<svg width="122" height="120" viewBox="0 0 122 120" fill="none" xmlns="http://www.w3.org/2000/svg">
<path d="M80.6208 23.3114C80.6208 23.3114 80.5709 23.2927 80.4837 23.2459L80.1098 23.0279L78.7482 22.1991L74.2897 19.423L69.8499 16.6189L68.5101 15.759L68.1456 15.5066C68.0646 15.4568 68.021 15.4256 68.0241 15.4194C68.0723 15.4328 68.1184 15.4527 68.1612 15.4786C68.2515 15.5222 68.3793 15.597 68.5413 15.6904C68.8684 15.8774 69.3358 16.1547 69.9091 16.5036C71.0588 17.2015 72.6384 18.1799 74.3769 19.2735C76.1155 20.3671 77.6796 21.361 78.8106 22.0776L80.1503 22.9842L80.5086 23.2273C80.5483 23.2521 80.5858 23.2802 80.6208 23.3114Z" fill="#263238"/>
<path d="M119.61 23.0308C119.61 23.0744 116.439 23.2146 112.522 23.3423C108.606 23.4701 105.428 23.5324 105.428 23.4888C105.428 23.4452 108.599 23.305 112.516 23.1772C116.432 23.0495 119.607 22.984 119.61 23.0308Z" fill="#263238"/>
<path d="M105.135 37.4013L104.926 37.529L104.303 37.9029L101.872 39.3236L92.9242 44.5299L92.8931 44.5486L92.8619 44.5299L80.5955 37.4667L80.5581 37.4449V37.4013C80.5581 33.0237 80.5581 28.2381 80.5581 23.2467V23.2L80.5986 23.1751L92.8619 16.1025L92.8993 16.0807L92.9367 16.1025L105.188 23.1938L105.219 23.2125V23.2467C105.219 27.6087 105.197 31.1543 105.188 33.6095C105.188 34.8277 105.188 35.7905 105.172 36.4136C105.172 36.7252 105.172 36.9713 105.172 37.1427C105.172 37.314 105.172 37.3888 105.172 37.3888C105.172 37.3888 105.172 37.3016 105.172 37.1333C105.172 36.9651 105.172 36.7158 105.172 36.3949C105.172 35.7437 105.172 34.7934 105.156 33.5721C105.156 31.1232 105.156 27.59 105.128 23.2343L105.159 23.2872L92.8401 16.2334H92.9242L80.6703 23.3153L80.7108 23.2467C80.7108 28.2318 80.7108 33.0237 80.7108 37.4013L80.6734 37.3358L92.9242 44.4271H92.8619L101.832 39.2831C102.891 38.6756 103.701 38.2051 104.284 37.8842L104.926 37.5228C105.057 37.4386 105.135 37.4013 105.135 37.4013Z" fill="#263238"/>
<path d="M68.4481 17.0334C69.1381 17.0334 69.6975 16.474 69.6975 15.784C69.6975 15.094 69.1381 14.5346 68.4481 14.5346C67.7581 14.5346 67.1987 15.094 67.1987 15.784C67.1987 16.474 67.7581 17.0334 68.4481 17.0334Z" fill="#455A64"/>
<path d="M82.5528 23.3118C82.5534 23.6947 82.4404 24.0692 82.228 24.3879C82.0156 24.7066 81.7135 24.955 81.3598 25.1019C81.0061 25.2487 80.6169 25.2873 80.2412 25.2127C79.8656 25.1382 79.5206 24.9538 79.2498 24.683C78.979 24.4123 78.7947 24.0672 78.7201 23.6916C78.6456 23.316 78.6842 22.9267 78.831 22.573C78.9778 22.2194 79.2263 21.9172 79.5449 21.7048C79.8636 21.4925 80.2381 21.3795 80.6211 21.3801C81.1334 21.3801 81.6247 21.5836 81.987 21.9459C82.3493 22.3081 82.5528 22.7995 82.5528 23.3118Z" fill="#455A64"/>
<path d="M106.898 23.3118C106.898 23.6938 106.785 24.0673 106.573 24.385C106.36 24.7027 106.059 24.9503 105.706 25.0965C105.353 25.2427 104.964 25.2809 104.59 25.2064C104.215 25.1319 103.871 24.9479 103.6 24.6777C103.33 24.4076 103.146 24.0634 103.072 23.6886C102.997 23.3139 103.036 22.9255 103.182 22.5725C103.328 22.2196 103.576 21.9179 103.893 21.7056C104.211 21.4934 104.584 21.3801 104.966 21.3801C105.479 21.3801 105.97 21.5836 106.332 21.9459C106.695 22.3081 106.898 22.7995 106.898 23.3118Z" fill="#455A64"/>
<path d="M106.898 37.8858C106.898 38.2678 106.785 38.6413 106.573 38.959C106.36 39.2766 106.059 39.5242 105.706 39.6704C105.353 39.8166 104.964 39.8549 104.59 39.7804C104.215 39.7058 103.871 39.5218 103.6 39.2517C103.33 38.9815 103.146 38.6373 103.072 38.2626C102.997 37.8879 103.036 37.4995 103.182 37.1465C103.328 36.7935 103.576 36.4919 103.893 36.2796C104.211 36.0673 104.584 35.954 104.966 35.954C105.478 35.9549 105.969 36.1586 106.331 36.5207C106.693 36.8828 106.897 37.3737 106.898 37.8858Z" fill="#455A64"/>
<path d="M119.611 24.3275C120.41 24.3275 121.057 23.6803 121.057 22.8818C121.057 22.0834 120.41 21.4362 119.611 21.4362C118.813 21.4362 118.166 22.0834 118.166 22.8818C118.166 23.6803 118.813 24.3275 119.611 24.3275Z" fill="#455A64"/>
<path d="M92.8604 46.5172C93.9273 46.5172 94.7921 45.6524 94.7921 44.5855C94.7921 43.5187 93.9273 42.6538 92.8604 42.6538C91.7936 42.6538 90.9287 43.5187 90.9287 44.5855C90.9287 45.6524 91.7936 46.5172 92.8604 46.5172Z" fill="#455A64"/>
<path d="M82.814 37.2019C82.8146 37.5847 82.7017 37.9591 82.4894 38.2776C82.2772 38.5962 81.9752 38.8447 81.6218 38.9916C81.2683 39.1386 80.8791 39.1773 80.5036 39.103C80.1281 39.0287 79.783 38.8447 79.5121 38.5742C79.2412 38.3037 79.0567 37.959 78.9817 37.5836C78.9068 37.2082 78.945 36.819 79.0913 36.4653C79.2377 36.1115 79.4857 35.8092 79.8039 35.5964C80.1222 35.3837 80.4964 35.2701 80.8792 35.2701C81.3918 35.2701 81.8834 35.4736 82.2462 35.8357C82.609 36.1979 82.8132 36.6893 82.814 37.2019Z" fill="#455A64"/>
<path d="M92.8789 2.10938C92.9225 2.10938 92.9599 5.16897 92.9599 8.94517C92.9599 12.7214 92.9225 15.7997 92.8789 15.7997C92.8352 15.7997 92.7979 12.7401 92.7979 8.94517C92.7979 5.15027 92.8352 2.10938 92.8789 2.10938Z" fill="#263238"/>
<path d="M94.8102 16.1675C94.8102 16.5496 94.6969 16.923 94.4847 17.2407C94.2724 17.5584 93.9707 17.806 93.6177 17.9522C93.2648 18.0984 92.8764 18.1366 92.5016 18.0621C92.1269 17.9876 91.7827 17.8036 91.5126 17.5334C91.2424 17.2633 91.0584 16.9191 90.9839 16.5444C90.9094 16.1696 90.9476 15.7812 91.0938 15.4283C91.24 15.0753 91.4876 14.7736 91.8053 14.5613C92.123 14.3491 92.4964 14.2358 92.8785 14.2358C93.3908 14.2358 93.8822 14.4393 94.2444 14.8016C94.6067 15.1638 94.8102 15.6552 94.8102 16.1675Z" fill="#455A64"/>
<path d="M94.4515 1.57342C94.4485 1.88084 94.3545 2.18049 94.1814 2.43462C94.0084 2.68875 93.7641 2.88599 93.4791 3.00152C93.1942 3.11704 92.8815 3.14568 92.5803 3.08382C92.2792 3.02196 92.0031 2.87238 91.7867 2.6539C91.5704 2.43543 91.4236 2.15783 91.3648 1.85607C91.3059 1.55431 91.3376 1.24189 91.456 0.958137C91.5743 0.674386 91.774 0.431999 92.0298 0.2615C92.2857 0.0910019 92.5862 1.53746e-05 92.8937 1.94755e-09C93.0996 -1.02931e-05 93.3034 0.0407953 93.4935 0.120056C93.6835 0.199317 93.8559 0.315462 94.0008 0.461775C94.1457 0.608087 94.2601 0.781664 94.3375 0.972472C94.4148 1.16328 94.4536 1.36753 94.4515 1.57342Z" fill="#455A64"/>
<path d="M8.05708 36.8796C8.03216 36.917 6.49924 35.9075 4.60803 34.6238C2.71681 33.3402 1.22441 32.2684 1.24933 32.231C1.27426 32.1936 2.80717 33.2031 4.7015 34.4899C6.59583 35.7766 8.08513 36.8422 8.05708 36.8796Z" fill="#263238"/>
<path d="M44.9153 58.1539C44.8935 58.1944 42.0738 56.727 38.6216 54.8762C35.1694 53.0255 32.3902 51.4957 32.4058 51.449C32.4214 51.4023 35.2442 52.8947 38.712 54.736C42.1797 56.5774 44.9433 58.1166 44.9153 58.1539Z" fill="#263238"/>
<path d="M32.5749 50.9694C32.5749 50.9694 32.5064 51.0162 32.3662 51.1003L31.7431 51.4711L29.3128 52.8918L20.349 58.0981L20.3179 58.1168L20.2867 58.0981L8.0203 51.0255L7.98291 51.0037V50.9601C7.98291 46.5981 7.98291 41.7969 7.98291 36.8087V36.762L8.02342 36.737L20.2867 29.6645L20.3241 29.6426L20.3615 29.6645L32.6123 36.7557L32.6435 36.7744V36.8087C32.6435 41.1706 32.6186 44.7163 32.6123 47.1714C32.6123 48.3897 32.6123 49.3524 32.6123 49.9755C32.6123 50.2871 32.6123 50.5364 32.6123 50.7046C32.6123 50.8729 32.6123 50.9507 32.6123 50.9507C32.6123 50.9507 32.6123 50.8635 32.6123 50.6953C32.6123 50.527 32.6123 50.2778 32.6123 49.96C32.6123 49.3088 32.6123 48.3554 32.5967 47.134C32.5967 44.6851 32.5812 41.1519 32.5687 36.7962L32.5999 36.8492L20.3334 29.786H20.4082L8.15116 36.8679L8.19166 36.7962C8.19166 41.7813 8.19166 46.5732 8.19166 50.9476L8.15427 50.8822L20.4051 57.9735H20.3428L29.3128 52.8295L31.7649 51.4306L32.4067 51.0691L32.5749 50.9694Z" fill="#263238"/>
<path d="M1.24938 33.4807C1.9394 33.4807 2.49877 32.9213 2.49877 32.2313C2.49877 31.5413 1.9394 30.9819 1.24938 30.9819C0.559367 30.9819 0 31.5413 0 32.2313C0 32.9213 0.559367 33.4807 1.24938 33.4807Z" fill="#455A64"/>
<path d="M9.98893 36.8805C9.98893 37.2625 9.87563 37.636 9.66337 37.9537C9.45111 38.2713 9.14942 38.5189 8.79645 38.6651C8.44347 38.8113 8.05506 38.8496 7.68035 38.7751C7.30563 38.7005 6.96143 38.5165 6.69128 38.2464C6.42112 37.9762 6.23714 37.632 6.16261 37.2573C6.08807 36.8826 6.12632 36.4942 6.27253 36.1412C6.41874 35.7882 6.66633 35.4865 6.984 35.2743C7.30167 35.062 7.67515 34.9487 8.05721 34.9487C8.311 34.9483 8.56238 34.998 8.79693 35.0949C9.03148 35.1919 9.2446 35.3341 9.42405 35.5136C9.60351 35.6931 9.74579 35.9062 9.84272 36.1407C9.93965 36.3753 9.98934 36.6267 9.98893 36.8805Z" fill="#455A64"/>
<path d="M34.3501 36.8805C34.3508 37.2634 34.2377 37.6379 34.0254 37.9566C33.813 38.2752 33.5108 38.5237 33.1572 38.6705C32.8035 38.8174 32.4142 38.8559 32.0386 38.7814C31.663 38.7068 31.3179 38.5225 31.0472 38.2517C30.7764 37.9809 30.5921 37.6359 30.5175 37.2603C30.4429 36.8847 30.4815 36.4954 30.6283 36.1417C30.7752 35.788 31.0237 35.4859 31.3423 35.2735C31.661 35.0612 32.0355 34.9481 32.4184 34.9487C32.9307 34.9487 33.4221 35.1523 33.7843 35.5145C34.1466 35.8768 34.3501 36.3681 34.3501 36.8805Z" fill="#455A64"/>
<path d="M32.4063 53.3903C33.4732 53.3903 34.338 52.5254 34.338 51.4586C34.338 50.3917 33.4732 49.5269 32.4063 49.5269C31.3395 49.5269 30.4746 50.3917 30.4746 51.4586C30.4746 52.5254 31.3395 53.3903 32.4063 53.3903Z" fill="#455A64"/>
<path d="M46.3586 58.1547C46.3592 58.4409 46.2749 58.7208 46.1163 58.9591C45.9577 59.1973 45.7319 59.3831 45.4676 59.4929C45.2033 59.6027 44.9124 59.6316 44.6317 59.5759C44.351 59.5202 44.0931 59.3824 43.8907 59.1801C43.6883 58.9777 43.5506 58.7198 43.4949 58.4391C43.4392 58.1584 43.4681 57.8674 43.5779 57.6032C43.6877 57.3389 43.8735 57.1131 44.1117 56.9545C44.3499 56.7959 44.6299 56.7115 44.9161 56.7122C45.2987 56.7122 45.6656 56.8641 45.9361 57.1347C46.2066 57.4052 46.3586 57.7721 46.3586 58.1547Z" fill="#455A64"/>
<path d="M22.2301 58.1534C22.2301 58.5355 22.1168 58.9089 21.9046 59.2266C21.6923 59.5443 21.3906 59.7919 21.0377 59.9381C20.6847 60.0843 20.2963 60.1225 19.9216 60.048C19.5468 59.9735 19.2026 59.7895 18.9325 59.5193C18.6623 59.2492 18.4784 58.905 18.4038 58.5303C18.3293 58.1555 18.3675 57.7671 18.5137 57.4142C18.66 57.0612 18.9075 56.7595 19.2252 56.5472C19.5429 56.335 19.9164 56.2217 20.2984 56.2217C20.8107 56.2217 21.3021 56.4252 21.6643 56.7875C22.0266 57.1497 22.2301 57.6411 22.2301 58.1534Z" fill="#455A64"/>
<path d="M10.2502 50.7697C10.2502 51.1518 10.1369 51.5253 9.92461 51.8429C9.71235 52.1606 9.41065 52.4082 9.05767 52.5544C8.7047 52.7006 8.31629 52.7389 7.94158 52.6643C7.56686 52.5898 7.22266 52.4058 6.95251 52.1357C6.68235 51.8655 6.49837 51.5213 6.42384 51.1466C6.3493 50.7719 6.38756 50.3835 6.53377 50.0305C6.67997 49.6775 6.92756 49.3758 7.24523 49.1636C7.5629 48.9513 7.93638 48.838 8.31844 48.838C8.57223 48.8376 8.82361 48.8873 9.05816 48.9842C9.29271 49.0812 9.50583 49.2234 9.68529 49.4029C9.86475 49.5823 10.007 49.7955 10.104 50.03C10.2009 50.2646 10.2506 50.5159 10.2502 50.7697Z" fill="#455A64"/>
<path d="M20.33 15.6789C20.3736 15.6789 20.411 18.7416 20.411 22.5334C20.411 26.3252 20.3736 29.3692 20.33 29.3692C20.2864 29.3692 20.249 26.3096 20.249 22.5334C20.249 18.7572 20.2708 15.6789 20.33 15.6789Z" fill="#263238"/>
<path d="M22.2492 29.7354C22.2492 30.1174 22.1359 30.4909 21.9236 30.8086C21.7114 31.1262 21.4097 31.3738 21.0567 31.52C20.7037 31.6663 20.3153 31.7045 19.9406 31.63C19.5659 31.5554 19.2217 31.3715 18.9515 31.1013C18.6814 30.8311 18.4974 30.4869 18.4229 30.1122C18.3483 29.7375 18.3866 29.3491 18.5328 28.9961C18.679 28.6432 18.9266 28.3415 19.2443 28.1292C19.5619 27.9169 19.9354 27.8036 20.3175 27.8036C20.8295 27.8045 21.3204 28.0083 21.6825 28.3703C22.0446 28.7324 22.2484 29.2233 22.2492 29.7354Z" fill="#455A64"/>
<path d="M20.3176 16.7164C21.1865 16.7164 21.891 16.0119 21.891 15.1429C21.891 14.274 21.1865 13.5695 20.3176 13.5695C19.4486 13.5695 18.7441 14.274 18.7441 15.1429C18.7441 16.0119 19.4486 16.7164 20.3176 16.7164Z" fill="#455A64"/>
<path d="M59.113 110.924C59.1613 110.941 59.2073 110.964 59.2501 110.993L59.6239 111.211L60.9855 112.036L65.444 114.816L69.8838 117.62L71.2236 118.476L71.585 118.713C71.63 118.737 71.6718 118.766 71.7096 118.8C71.7096 118.8 71.6598 118.8 71.5694 118.741C71.4791 118.682 71.3544 118.626 71.1893 118.533C70.8777 118.346 70.3979 118.065 69.8215 117.716C68.6719 117.018 67.0953 116.04 65.3568 114.95C63.6182 113.859 62.0542 112.859 60.9232 112.13L59.5865 111.264L59.2282 111.021C59.1503 110.961 59.1098 110.93 59.113 110.924Z" fill="#263238"/>
<path d="M22.2589 89.6602C22.2807 89.6228 25.0973 91.0903 28.5526 92.9379C32.0079 94.7855 34.7839 96.3184 34.7684 96.3651C34.7528 96.4118 31.93 94.9381 28.4747 93.0874C25.0194 91.2367 22.2371 89.6913 22.2589 89.6602Z" fill="#263238"/>
<path d="M34.5968 96.8257C34.5968 96.8257 34.6653 96.7789 34.8055 96.6948L35.4287 96.3241L37.8589 94.9033L46.8134 89.7064H46.8445H46.8726L59.139 96.7696L59.1795 96.7914V96.8257C59.1795 101.188 59.1795 105.989 59.1795 110.977V111.024L59.139 111.046L46.8944 118.137L46.857 118.159L46.8165 118.137L34.5688 111.043L34.5376 111.027V110.993C34.5376 106.631 34.5594 103.082 34.5656 100.627C34.5656 99.4086 34.5656 98.4614 34.5812 97.8227C34.5812 97.5111 34.5812 97.2619 34.5812 97.0905C34.5812 96.9192 34.5812 96.8475 34.5812 96.8475C34.5812 96.8475 34.5812 96.9347 34.5812 97.0999C34.5812 97.265 34.5812 97.5174 34.5812 97.8383C34.5812 98.4895 34.5812 99.4397 34.5968 100.661C34.5968 103.113 34.6155 106.643 34.628 111.002L34.5968 110.949L46.8944 118.012H46.8134L59.0704 110.93L59.0299 111.002C59.0299 106.017 59.0299 101.225 59.0299 96.8506L59.0673 96.916L46.8134 89.8123H46.8726L37.9181 94.9563L35.463 96.3552L34.8211 96.7166L34.5968 96.8257Z" fill="#263238"/>
<path d="M70.0337 118.452C70.0337 118.205 70.1068 117.964 70.2437 117.759C70.3807 117.554 70.5753 117.395 70.803 117.3C71.0308 117.206 71.2813 117.181 71.5231 117.229C71.7649 117.277 71.9869 117.396 72.1612 117.57C72.3355 117.745 72.4542 117.967 72.5023 118.208C72.5504 118.45 72.5257 118.701 72.4314 118.929C72.337 119.156 72.1773 119.351 71.9724 119.488C71.7674 119.625 71.5265 119.698 71.28 119.698C70.9494 119.698 70.6324 119.567 70.3987 119.333C70.165 119.099 70.0337 118.782 70.0337 118.452Z" fill="#455A64"/>
<path d="M57.1816 110.925C57.1816 110.543 57.2949 110.169 57.5072 109.851C57.7195 109.534 58.0211 109.286 58.3741 109.14C58.7271 108.994 59.1155 108.956 59.4902 109.03C59.8649 109.105 60.2091 109.289 60.4793 109.559C60.7495 109.829 60.9334 110.173 61.008 110.548C61.0825 110.923 61.0442 111.311 60.898 111.664C60.7518 112.017 60.5042 112.319 60.1866 112.531C59.8689 112.743 59.4954 112.856 59.1134 112.856C58.6013 112.856 58.1104 112.652 57.7483 112.29C57.3862 111.928 57.1825 111.437 57.1816 110.925Z" fill="#455A64"/>
<path d="M32.8359 110.925C32.8359 110.543 32.9492 110.169 33.1615 109.851C33.3737 109.534 33.6754 109.286 34.0284 109.14C34.3814 108.994 34.7698 108.956 35.1445 109.03C35.5192 109.105 35.8634 109.289 36.1336 109.559C36.4037 109.829 36.5877 110.173 36.6623 110.548C36.7368 110.923 36.6985 111.311 36.5523 111.664C36.4061 112.017 36.1585 112.319 35.8409 112.531C35.5232 112.743 35.1497 112.856 34.7677 112.856C34.2556 112.856 33.7647 112.652 33.4026 112.29C33.0405 111.928 32.8368 111.437 32.8359 110.925Z" fill="#455A64"/>
<path d="M34.7677 98.2807C35.8345 98.2807 36.6994 97.4159 36.6994 96.349C36.6994 95.2822 35.8345 94.4173 34.7677 94.4173C33.7008 94.4173 32.8359 95.2822 32.8359 96.349C32.8359 97.4159 33.7008 98.2807 34.7677 98.2807Z" fill="#455A64"/>
<path d="M22.2582 91.0961C23.0566 91.0961 23.7038 90.4488 23.7038 89.6504C23.7038 88.852 23.0566 88.2047 22.2582 88.2047C21.4597 88.2047 20.8125 88.852 20.8125 89.6504C20.8125 90.4488 21.4597 91.0961 22.2582 91.0961Z" fill="#455A64"/>
<path d="M44.9439 89.6604C44.9445 89.2784 45.0583 88.9053 45.2709 88.588C45.4836 88.2707 45.7855 88.0236 46.1385 87.8779C46.4915 87.7322 46.8798 87.6944 47.2543 87.7692C47.6288 87.8441 47.9728 88.0284 48.2426 88.2986C48.5124 88.5689 48.6961 88.9131 48.7704 89.2878C48.8447 89.6624 48.8062 90.0506 48.6599 90.4034C48.5136 90.7562 48.2661 91.0577 47.9484 91.2698C47.6308 91.482 47.2575 91.5952 46.8756 91.5952C46.6216 91.5952 46.3702 91.5451 46.1356 91.4478C45.901 91.3506 45.688 91.208 45.5085 91.0283C45.3291 90.8486 45.1869 90.6353 45.09 90.4005C44.9931 90.1658 44.9434 89.9143 44.9439 89.6604Z" fill="#455A64"/>
<path d="M56.9204 97.0348C56.921 96.6529 57.0348 96.2797 57.2475 95.9624C57.4601 95.6452 57.762 95.3981 58.1151 95.2524C58.4681 95.1066 58.8564 95.0688 59.2309 95.1437C59.6054 95.2186 59.9493 95.4028 60.2192 95.6731C60.489 95.9434 60.6727 96.2876 60.747 96.6622C60.8212 97.0368 60.7828 97.4251 60.6365 97.7779C60.4902 98.1307 60.2426 98.4322 59.925 98.6443C59.6074 98.8564 59.2341 98.9696 58.8521 98.9696C58.3395 98.9688 57.8482 98.7646 57.486 98.4018C57.1238 98.0391 56.9204 97.5474 56.9204 97.0348Z" fill="#455A64"/>
<path d="M44.9248 118.068C44.9248 117.686 45.0381 117.313 45.2504 116.995C45.4626 116.677 45.7643 116.43 46.1173 116.283C46.4703 116.137 46.8587 116.099 47.2334 116.174C47.6081 116.248 47.9523 116.432 48.2225 116.702C48.4926 116.972 48.6766 117.317 48.7511 117.691C48.8257 118.066 48.7874 118.454 48.6412 118.807C48.495 119.16 48.2474 119.462 47.9297 119.674C47.6121 119.887 47.2386 120 46.8565 120C46.3442 120 45.8529 119.796 45.4906 119.434C45.1283 119.072 44.9248 118.58 44.9248 118.068Z" fill="#455A64"/>
<path d="M15.3137 63.523C15.3137 63.523 15.5412 71.3434 24.8352 73.0414L32.9952 73.8359C32.9952 73.8359 33.2226 85.0523 46.4829 85.2829L56.7989 84.0366C56.7989 84.0366 72.6671 83.588 82.8678 84.4915C85.7778 84.747 90.0151 85.1614 94.2088 83.6877C98.4025 82.214 112.679 68.7324 98.2842 51.9607C98.2842 51.9607 99.5304 44.3647 91.8222 42.5514C91.8222 42.5514 88.423 32.1232 77.0882 32.2385C77.0882 32.2385 73.3494 27.5899 67.6789 29.5185C67.6789 29.5185 56.7989 24.6145 48.5237 29.0481C48.5237 29.0481 38.6626 26.9107 31.2971 34.9679C31.2971 34.9679 23.3615 37.4604 21.327 43.4674C21.327 43.4674 11.578 49.7611 14.5254 57.0424C13.9961 57.5 13.593 58.0857 13.3546 58.7436C13.1162 59.4014 13.0505 60.1094 13.1639 60.7999C13.5004 63.2956 15.3137 63.523 15.3137 63.523Z" fill="white" fill-opacity="0.5"/>
<path d="M74.031 55.172C73.6206 55.2993 73.2416 55.5116 72.9187 55.7951C72.5393 56.1382 72.2449 56.5649 72.0588 57.0414C71.7992 57.6882 71.7794 58.4064 72.0027 59.0666L72.0308 59.1476L71.9467 59.1258C70.6918 58.7818 69.4129 58.5329 68.1206 58.3811C62.5907 57.7732 57.0171 59.0429 52.2961 61.986L52.2649 62.0078H52.2275C51.4303 61.7566 50.6146 61.568 49.788 61.4439C47.9347 61.1381 46.0498 61.0722 44.1797 61.2476C43.2951 61.3301 42.4255 61.5302 41.5937 61.8427C40.7897 62.1264 40.0128 62.482 39.2726 62.9051C38.581 63.328 37.9348 63.8208 37.344 64.3757C36.7674 64.8799 36.2203 65.4167 35.7051 65.9834C34.8077 67.0267 34.0791 68.2042 33.546 69.4729C33.3159 70.0257 33.1365 70.5982 33.0101 71.1835C32.9037 71.7064 32.8515 72.2388 32.8543 72.7724C32.8705 73.6297 32.9823 74.4824 33.1876 75.3148C33.3528 76.0003 33.5241 76.5237 33.6456 76.8727L33.7859 77.2715C33.817 77.3618 33.8295 77.4086 33.8295 77.4086C33.5354 76.7356 33.3009 76.0381 33.1284 75.3242C32.9074 74.4898 32.785 73.6323 32.7639 72.7693C32.7565 72.2288 32.8056 71.6889 32.9104 71.1585C33.032 70.5657 33.2093 69.9857 33.44 69.4262C33.9716 68.1427 34.7012 66.9505 35.6023 65.893C36.1193 65.3201 36.6686 64.7771 37.2474 64.2667C37.8447 63.7042 38.4971 63.2031 39.1947 62.7711C39.9432 62.3437 40.7283 61.984 41.5408 61.6962C42.3823 61.3718 43.2636 61.1622 44.1611 61.0731C46.0414 60.8975 47.9365 60.9625 49.8004 61.2663C50.6363 61.3946 51.4612 61.5862 52.268 61.8395H52.1995C56.9479 58.8772 62.5607 57.6129 68.1206 58.2534C69.4183 58.4123 70.7016 58.6717 71.9591 59.0292L71.903 59.0884C71.6778 58.4068 71.7054 57.6669 71.9809 57.004C72.1752 56.5169 72.4816 56.0825 72.8751 55.7359C73.1218 55.5265 73.4006 55.3582 73.7008 55.2374C73.9189 55.1969 74.031 55.172 74.031 55.172Z" fill="#263238"/>
<path d="M88.1947 54.1198C88.1947 54.1198 88.1947 54.1665 88.1573 54.2631C88.1199 54.3597 88.0794 54.4999 88.0233 54.6806C87.9143 55.0483 87.7117 55.5779 87.4407 56.2572C87.0939 57.0746 86.6985 57.8705 86.2567 58.6407C86.0075 59.0987 85.699 59.5598 85.3812 60.0552C85.0634 60.5506 84.6864 61.0491 84.272 61.5538C82.35 63.9552 79.9569 65.938 77.24 67.3801C75.6295 68.2126 73.9257 68.8506 72.1645 69.2807C70.2708 69.7305 68.3279 69.9398 66.3818 69.9038C65.3025 69.8836 64.2259 69.7868 63.1602 69.6141C62.1329 69.4415 61.118 69.201 60.1224 68.8943H60.1941C58.6641 70.0361 56.8759 70.7822 54.9881 71.0665C53.1004 71.3508 51.1717 71.1644 49.3734 70.5238H49.4357C48.7792 71.0194 48.0525 71.4142 47.2796 71.6953C46.5915 71.9507 45.873 72.1152 45.1423 72.1845C44.9727 72.2047 44.802 72.214 44.6313 72.2125C44.4662 72.2125 44.3042 72.2125 44.1453 72.2125C43.8337 72.1938 43.5221 72.2125 43.2106 72.1565L42.7806 72.1066L42.3724 72.0256C42.1199 71.9786 41.8702 71.9173 41.6247 71.8418C40.9058 71.6299 40.2184 71.3229 39.5808 70.9289C39.3596 70.7918 39.2069 70.6672 39.0979 70.5924L38.939 70.4709L39.1103 70.5768C39.2225 70.6454 39.3783 70.7638 39.5995 70.8884C40.2403 71.2676 40.9273 71.5629 41.6434 71.767C41.8882 71.8389 42.1368 71.8972 42.388 71.9415L42.7931 72.0163L43.2199 72.063C43.5097 72.1035 43.815 72.0942 44.1328 72.1097L44.6157 72.091C44.7826 72.0882 44.9491 72.0747 45.1142 72.0505C45.8357 71.9747 46.5445 71.8071 47.2235 71.552C47.9835 71.2718 48.6975 70.8802 49.3422 70.3899L49.3702 70.3681H49.4014C51.1792 70.9931 53.0835 71.1708 54.9462 70.8856C56.8089 70.6003 58.5727 69.8608 60.0819 68.7323L60.1162 68.7074H60.1536C61.1435 69.0095 62.152 69.2468 63.1727 69.4178C64.23 69.5895 65.2983 69.6853 66.3694 69.7044C68.302 69.7389 70.2313 69.5296 72.1116 69.0813C76.8714 67.9536 81.1158 65.2626 84.1661 61.4385C84.5805 60.9369 84.9388 60.4322 85.2815 59.9555C85.6242 59.4788 85.9046 59.0052 86.1632 58.5534C86.6094 57.7885 87.012 56.999 87.369 56.1886C87.6463 55.5156 87.8582 54.9891 87.9766 54.6308C88.042 54.4563 88.0887 54.3192 88.1261 54.2195C88.1635 54.1198 88.1947 54.1198 88.1947 54.1198Z" fill="#263238"/>
<path d="M40.6597 78.5839C40.6343 78.4821 40.6259 78.3768 40.6348 78.2723C40.6348 78.076 40.6348 77.7956 40.6348 77.4466C40.6477 76.5308 40.8195 75.6242 41.1427 74.7672C41.4836 73.9024 42.1074 73.1787 42.9124 72.7139C43.1572 72.5803 43.4209 72.4847 43.6944 72.4304C43.7959 72.4035 43.9015 72.395 44.006 72.4055C43.6469 72.4992 43.3006 72.6362 42.9747 72.8136C42.2154 73.2898 41.6282 73.9961 41.2984 74.8295C40.9846 75.671 40.8017 76.5558 40.7563 77.4529C40.7444 77.8313 40.7121 78.2089 40.6597 78.5839Z" fill="#263238"/>
<path d="M85.382 76.4926C85.3491 76.4906 85.3167 76.4843 85.2854 76.4739L85.0112 76.4084L83.9519 76.1343C83.7214 76.0751 83.4659 76.0034 83.1855 75.938L82.2663 75.7323L81.2132 75.4955L80.023 75.2774C78.0652 74.9184 76.0889 74.6688 74.1033 74.5297C71.6758 74.3483 69.2388 74.3348 66.8095 74.4892C63.7584 74.667 60.7276 75.1005 57.7491 75.7853C55.5947 76.2915 53.4697 76.9156 51.3838 77.6547L51.4118 77.6204C51.3715 78.0439 51.2464 78.4551 51.0441 78.8293C50.8817 79.1005 50.6704 79.3392 50.421 79.5335C50.2219 79.6991 50.0045 79.8412 49.7729 79.9572C49.824 79.9157 49.8782 79.8783 49.935 79.845C50.0928 79.7382 50.2447 79.6227 50.3899 79.4992C50.6269 79.3027 50.8255 79.0639 50.9756 78.795C51.1679 78.4262 51.2845 78.0226 51.3183 77.608V77.583H51.3433C53.4275 76.8085 55.5562 76.1593 57.7179 75.6389C60.7015 74.9371 63.7403 74.4951 66.8001 74.3178C71.2296 74.0459 75.6757 74.3275 80.0355 75.1559L81.2257 75.3865L82.2788 75.6357L83.1948 75.8507C83.4752 75.9224 83.7276 76.0003 83.9581 76.0626L85.0081 76.3742L85.2823 76.4552L85.382 76.4926Z" fill="#263238"/>
<path d="M93.7541 71.9788C93.7541 71.9788 93.779 71.957 93.8382 71.9196L94.0906 71.7545C94.3087 71.6111 94.6327 71.3962 95.0253 71.0939C96.1609 70.2521 97.1513 69.2301 97.9571 68.0686C98.5086 67.2676 98.942 66.3915 99.2439 65.467C99.5879 64.4047 99.7388 63.2893 99.6894 62.1738C99.6389 60.9411 99.2893 59.7392 98.6706 58.6717C97.9919 57.5351 97.0116 56.6088 95.8385 55.9954C95.1125 55.6177 94.3177 55.3909 93.5017 55.3286H93.3833L93.4363 55.2196C93.9932 54.1821 94.2661 53.0159 94.2277 51.8391C94.1503 50.7532 93.801 49.7043 93.212 48.7888C92.748 48.0042 92.122 47.3276 91.3757 46.8043C90.6294 46.281 89.78 45.923 88.8843 45.7542C88.2026 45.6172 87.5072 45.5608 86.8124 45.5859C86.1892 45.6015 85.6751 45.6545 85.2545 45.6918L84.27 45.7822L84.0145 45.8009C83.9855 45.805 83.9562 45.805 83.9272 45.8009H84.0145L84.2669 45.7697L85.2483 45.6513C85.6783 45.6015 86.2017 45.5392 86.8061 45.5174C87.5074 45.4826 88.2103 45.5317 88.8999 45.6638C90.357 45.967 91.6775 46.7323 92.6649 47.846C93.6523 48.9597 94.2539 50.3623 94.3803 51.8453C94.4219 53.0508 94.1446 54.2459 93.5765 55.3099L93.5111 55.1915C94.3477 55.2568 95.1625 55.4899 95.907 55.877C97.1082 56.5023 98.1107 57.4509 98.8015 58.6157C99.4331 59.7056 99.7883 60.9336 99.8359 62.1925C99.8823 63.3248 99.724 64.4563 99.3685 65.5325C99.0585 66.4677 98.6135 67.3525 98.0475 68.159C97.2291 69.3242 96.2188 70.3419 95.0596 71.1687C94.6452 71.4709 94.2088 71.7417 93.7541 71.9788Z" fill="#263238"/>
<path d="M65.4259 57.8798C65.4259 57.8798 65.3387 57.8798 65.1829 57.8486C65.0884 57.8319 64.9957 57.8069 64.9056 57.7738C64.7842 57.7362 64.6656 57.6904 64.5504 57.6368C64.2486 57.4976 63.965 57.3218 63.7061 57.1133C63.3931 56.8525 63.1155 56.5519 62.8804 56.2191C62.6502 55.8819 62.4668 55.5151 62.3352 55.1286C62.23 54.813 62.1651 54.4853 62.142 54.1534C62.1343 54.0268 62.1343 53.8999 62.142 53.7733C62.1434 53.6772 62.1528 53.5813 62.17 53.4867C62.1759 53.4042 62.1948 53.3233 62.2261 53.2468C62.2604 53.2468 62.2012 53.5957 62.2604 54.1441C62.2989 54.4626 62.3721 54.7761 62.4785 55.0788C62.7435 55.8246 63.2015 56.4869 63.8058 56.998C64.0503 57.2057 64.3179 57.3845 64.6034 57.5308C65.0925 57.7801 65.4353 57.8455 65.4259 57.8798Z" fill="#263238"/>
<path d="M53.9421 57.1165C54.0471 57.3546 54.1063 57.6104 54.1166 57.8704C54.1723 58.5001 54.0939 59.1345 53.8866 59.7317C53.6793 60.3288 53.3478 60.8753 52.914 61.3351C52.7442 61.5343 52.538 61.6992 52.3064 61.8211C52.2908 61.7993 52.5214 61.6155 52.8267 61.2603C53.2234 60.7939 53.5307 60.2584 53.7334 59.6807C53.9311 59.1016 54.0219 58.4914 54.0013 57.8798C53.9795 57.4093 53.9141 57.1227 53.9421 57.1165Z" fill="#263238"/>
<path d="M44.0084 61.164C43.9676 61.1737 43.9258 61.1789 43.8838 61.1796C43.763 61.1874 43.6417 61.1811 43.5224 61.1609C43.0805 61.0767 42.6749 60.8593 42.3602 60.5378C41.8882 60.0643 41.5701 59.4595 41.4474 58.8023C41.3258 58.0067 41.3185 57.1978 41.4255 56.4001C41.5214 55.6137 41.5527 54.8207 41.519 54.0291C41.4838 53.3832 41.3952 52.7412 41.2542 52.1099C41.1327 51.5708 40.9987 51.144 40.9021 50.8636C40.8437 50.7134 40.7958 50.5593 40.7588 50.4025C40.7588 50.4025 40.7837 50.4367 40.8211 50.5115C40.8585 50.5863 40.9052 50.6953 40.9613 50.8418C41.1238 51.2478 41.2591 51.6641 41.3663 52.088C41.5281 52.7223 41.6323 53.3699 41.6779 54.0229C41.7209 54.8224 41.6938 55.6241 41.5969 56.4188C41.4891 57.2013 41.4891 57.9949 41.5969 58.7774C41.7087 59.4091 42.0033 59.9941 42.4444 60.4599C42.7385 60.7772 43.1184 61.0024 43.538 61.1079C43.8308 61.164 44.0084 61.1453 44.0084 61.164Z" fill="#263238"/>
<path d="M36.6898 64.8937C36.922 64.5307 37.0827 64.1267 37.1633 63.7035C37.2298 63.1907 37.1935 62.6699 37.0565 62.1714C36.9196 61.6728 36.6848 61.2065 36.3657 60.7997C35.6921 60.0012 34.8726 59.3382 33.9511 58.8461L33.1192 58.3757C33.0091 58.3244 32.9047 58.2617 32.8076 58.1887C32.9214 58.2194 33.0312 58.2633 33.1348 58.3196C33.3404 58.413 33.6364 58.5564 33.9947 58.7464C34.9522 59.2174 35.8011 59.8827 36.4872 60.7C36.8203 61.1225 37.062 61.6095 37.1972 62.1303C37.3323 62.651 37.3579 63.1941 37.2724 63.7253C37.2117 64.0451 37.0889 64.35 36.911 64.6226C36.8519 64.724 36.7772 64.8154 36.6898 64.8937Z" fill="#263238"/>
<path d="M33.0259 70.6949C32.9482 70.7025 32.87 70.7025 32.7923 70.6949H32.1162C31.8233 70.6762 31.465 70.6451 31.0506 70.5983C30.5881 70.5392 30.1294 70.4539 29.6766 70.3428C28.4844 70.0313 27.3436 69.5485 26.2899 68.9096C24.9941 68.1297 23.843 67.1315 22.8875 65.9591C21.9365 64.78 21.2138 63.4339 20.7564 61.9897C20.5607 61.3576 20.4558 60.7009 20.4448 60.0393C20.4403 59.7373 20.4664 59.4356 20.5227 59.1389C20.5805 58.8689 20.6576 58.6034 20.7533 58.3444C21.0328 57.5561 21.4401 56.8193 21.9591 56.1634C22.1018 55.987 22.2638 55.8271 22.442 55.6867C22.5026 55.6364 22.5696 55.5945 22.6414 55.5621C22.5844 55.6157 22.524 55.6656 22.4607 55.7116C22.2958 55.8609 22.1447 56.0246 22.0089 56.2008C21.5158 56.8638 21.1289 57.5996 20.8623 58.3818C20.7727 58.6374 20.6998 58.8986 20.6442 59.1638C20.5951 59.4519 20.5732 59.744 20.5788 60.0362C20.5936 60.6842 20.6984 61.327 20.8904 61.9461C21.349 63.3679 22.065 64.6933 23.0028 65.8563C24.7297 67.9711 27.0684 69.5002 29.6984 70.2338C30.1494 70.3623 30.607 70.4664 31.0693 70.5454C31.4775 70.6014 31.8326 70.6388 32.1224 70.67L32.7954 70.6949C32.8721 70.6879 32.9493 70.6879 33.0259 70.6949Z" fill="#263238"/>
<path d="M25.2843 48.4712C25.2286 48.4794 25.1719 48.4794 25.1161 48.4712L24.6456 48.4151C24.0676 48.3472 23.486 48.3139 22.904 48.3154C22.0447 48.3118 21.1915 48.4595 20.3834 48.7516C19.3906 49.098 18.5427 49.7672 17.975 50.6522C17.7018 51.0936 17.5319 51.591 17.4779 52.1074C17.424 52.6237 17.4874 53.1455 17.6634 53.6339C18.0058 54.4207 18.637 55.0463 19.4269 55.3818C19.957 55.6168 20.5168 55.7783 21.0906 55.8616C21.4957 55.9208 21.7138 55.9301 21.7138 55.9457C21.6579 55.9524 21.6014 55.9524 21.5455 55.9457C21.4375 55.9457 21.2786 55.9363 21.0688 55.9177C20.483 55.857 19.9096 55.7089 19.3677 55.4783C18.9903 55.318 18.641 55.0982 18.3333 54.8272C17.9754 54.5138 17.694 54.1227 17.5107 53.6837C17.3232 53.1747 17.2538 52.6298 17.3078 52.09C17.3618 51.5503 17.5377 51.0298 17.8223 50.568C18.4078 49.6525 19.2865 48.9627 20.3148 48.6114C21.14 48.3209 22.0107 48.1816 22.8853 48.2001C23.4708 48.2092 24.0549 48.2603 24.6332 48.3528L25.1036 48.4369C25.165 48.441 25.2257 48.4526 25.2843 48.4712Z" fill="#263238"/>
<path d="M51.5456 36.8989C51.5456 36.8989 51.5175 36.8989 51.4708 36.8459C51.424 36.7929 51.3461 36.7493 51.2589 36.6808C51.0751 36.5343 50.8009 36.3162 50.4395 36.0576C49.427 35.3016 48.2797 34.7454 47.059 34.4188C46.2129 34.216 45.3462 34.1115 44.4761 34.1072C43.478 34.084 42.4819 34.2068 41.5193 34.4718C40.4588 34.7732 39.4526 35.2401 38.5376 35.8551C37.5673 36.5327 36.7298 37.3829 36.0669 38.3632C35.9142 38.5845 35.774 38.8119 35.6494 39.0238L35.6244 39.0643H35.5777C33.3661 39.0262 31.2091 39.7525 29.471 41.1206C28.7201 41.7089 28.067 42.4124 27.5362 43.205C26.415 44.9055 25.8559 46.9151 25.9378 48.9503C25.9378 49.1622 25.9596 49.3491 25.9752 49.5111C25.9908 49.6731 26.0032 49.8227 26.0219 49.9224C26.0406 50.0221 26.0469 50.1062 26.0562 50.1717C26.0618 50.2005 26.0618 50.2301 26.0562 50.2589C25.954 49.8304 25.8914 49.3934 25.8693 48.9534C25.795 47.742 25.9548 46.5276 26.3397 45.3766C26.6028 44.5788 26.9683 43.8184 27.4271 43.1146C27.9631 42.3075 28.6235 41.5903 29.3837 40.9898C31.1458 39.5838 33.3426 38.8358 35.5964 38.8742L35.5247 38.9147C35.6525 38.6966 35.7958 38.4692 35.9485 38.2448C36.6228 37.2479 37.4751 36.3839 38.4628 35.6962C39.3938 35.0747 40.4169 34.6037 41.4944 34.3004C42.4718 34.0359 43.4826 33.9152 44.4948 33.9421C45.3747 33.9565 46.2499 34.0736 47.1026 34.2911C48.3336 34.6291 49.4857 35.2073 50.4925 35.9922C50.8508 36.2633 51.1156 36.4876 51.2963 36.6434L51.4957 36.821C51.5161 36.8443 51.5329 36.8706 51.5456 36.8989Z" fill="#263238"/>
<path d="M31.8823 43.4539C31.9287 43.4463 31.9761 43.4463 32.0225 43.4539C32.1545 43.4709 32.2856 43.4948 32.4151 43.5256C32.8967 43.6441 33.3557 43.8409 33.7735 44.1082C34.3963 44.5079 34.917 45.0478 35.294 45.6847C35.7437 46.4758 35.9537 47.3806 35.8984 48.289C35.8431 49.1973 35.5248 50.07 34.9824 50.8007C34.5297 51.3865 33.946 51.8582 33.2781 52.1778C32.8296 52.3889 32.3498 52.5257 31.8574 52.5828C31.7249 52.5973 31.5918 52.6046 31.4586 52.6046H31.3184C31.3184 52.5859 31.5084 52.5859 31.848 52.5299C32.3267 52.4475 32.7907 52.2952 33.2252 52.0781C33.8664 51.7525 34.4256 51.2859 34.8609 50.7134C35.3796 50.0038 35.6845 49.1607 35.7397 48.2835C35.7949 47.4063 35.5981 46.5316 35.1725 45.7626C34.8124 45.1403 34.316 44.6077 33.7206 44.2048C33.316 43.9343 32.8741 43.7244 32.4088 43.5816C32.0692 43.4944 31.8792 43.4695 31.8823 43.4539Z" fill="#263238"/>
<path d="M42.0337 40.6968C42.092 40.8169 42.1359 40.9434 42.1646 41.0738C42.2593 41.4268 42.3127 41.7896 42.3235 42.1549C42.379 43.3795 42.0045 44.585 41.2648 45.5626C40.5251 46.5402 39.4667 47.2282 38.2731 47.5076C37.9185 47.5973 37.5546 47.6454 37.1888 47.651C37.0554 47.659 36.9215 47.6506 36.79 47.626C37.2806 47.5901 37.7674 47.5129 38.2451 47.3955C39.3961 47.0916 40.4118 46.4104 41.1298 45.4608C41.8478 44.5112 42.2264 43.3483 42.2051 42.158C42.1874 41.6671 42.1301 41.1784 42.0337 40.6968Z" fill="#263238"/>
<path d="M49.0661 54.8168C49.0676 54.6481 49.079 54.4795 49.1004 54.3121C49.1361 53.8558 49.1361 53.3975 49.1004 52.9412C48.9875 51.4312 48.4584 49.982 47.5719 48.7544C46.6853 47.5268 45.4759 46.5689 44.0779 45.987C43.657 45.8078 43.2225 45.662 42.7787 45.5508C42.6132 45.5184 42.4498 45.4758 42.2896 45.4231C42.3338 45.4149 42.3792 45.4149 42.4235 45.4231C42.5076 45.4231 42.6354 45.4449 42.7943 45.4792C43.2478 45.5693 43.692 45.7007 44.1216 45.8717C45.5576 46.4353 46.8014 47.3999 47.7046 48.6505C48.6078 49.9012 49.1323 51.3852 49.2157 52.9256C49.2435 53.3871 49.2289 53.8502 49.1721 54.309C49.1534 54.4741 49.1253 54.5956 49.1098 54.6829C49.0942 54.7701 49.0724 54.82 49.0661 54.8168Z" fill="#263238"/>
<path d="M45.7256 37.9864C45.8557 38.0391 45.9791 38.1071 46.0932 38.1889C46.412 38.3986 46.703 38.6478 46.9594 38.9304C47.8235 39.8654 48.3146 41.0848 48.3396 42.3577C48.3399 43.0568 48.1956 43.7484 47.9159 44.3891C47.6922 44.9117 47.3837 45.3939 47.003 45.8161C46.7481 46.1014 46.4593 46.3546 46.1431 46.5701C46.0302 46.6529 45.9078 46.7219 45.7785 46.7757C46.1907 46.4691 46.5716 46.1226 46.9158 45.7413C47.7363 44.8059 48.1853 43.6021 48.1779 42.3578C48.1704 41.1135 47.707 39.9152 46.8753 38.9896C46.5253 38.6189 46.1403 38.2829 45.7256 37.9864Z" fill="#263238"/>
<path d="M50.1253 38.2261C50.0228 38.8564 49.7893 39.4582 49.4398 39.9926C49.1371 40.5556 48.7213 41.0499 48.2185 41.4445C48.1811 41.4103 48.7762 40.8058 49.2996 39.9116C49.823 39.0174 50.0785 38.2105 50.1253 38.2261Z" fill="#263238"/>
<path d="M56.1602 27.2997C56.2464 27.3333 56.3307 27.3718 56.4125 27.415L56.7241 27.5677L57.1167 27.8076C57.9392 28.3436 58.6545 29.0283 59.226 29.8266C60.0895 31.0073 60.6268 32.3946 60.7838 33.8489C60.9493 35.6437 60.4987 37.4414 59.5064 38.9461C58.51 40.5067 57.0191 41.6882 55.2722 42.3017L55.3189 42.2083C55.8969 44.1068 56.0709 46.1052 55.8299 48.0751C55.7622 48.6348 55.6582 49.1895 55.5183 49.7357C55.4716 49.9258 55.4249 50.0691 55.3968 50.1688C55.3861 50.2184 55.3694 50.2666 55.347 50.3121C55.3479 50.2611 55.3574 50.2105 55.375 50.1626L55.4716 49.7264C55.5923 49.1783 55.6818 48.6239 55.7396 48.0657C55.9478 46.1096 55.7559 44.1315 55.1756 42.2519L55.1538 42.1833L55.2224 42.1584C56.9253 41.5503 58.3791 40.3956 59.3569 38.8745C60.3251 37.4015 60.7696 35.6456 60.6187 33.8894C60.4677 32.4572 59.9482 31.0885 59.1107 29.9169C58.553 29.1237 57.8589 28.4359 57.0606 27.8855L56.6774 27.6331L56.3876 27.468C56.3061 27.4201 56.2298 27.3637 56.1602 27.2997Z" fill="#263238"/>
<path d="M50.8136 28.3243C50.9189 28.3794 51.0155 28.4497 51.1002 28.533C51.3416 28.7463 51.5514 28.9928 51.7234 29.2652C51.9888 29.668 52.1788 30.1156 52.2842 30.5863C52.417 31.1645 52.417 31.7653 52.2842 32.3435C52.141 32.9204 51.8706 33.458 51.4928 33.9169C51.187 34.2912 50.8166 34.6078 50.3992 34.8516C50.1206 35.0162 49.8208 35.1419 49.5081 35.2255C49.3952 35.2611 49.2776 35.28 49.1592 35.2816C49.5707 35.1494 49.9666 34.9728 50.34 34.755C50.7857 34.4879 51.1733 34.1342 51.4799 33.7148C51.7866 33.2954 52.0061 32.8188 52.1255 32.3132C52.2448 31.8075 52.2617 31.2831 52.1749 30.7708C52.0882 30.2585 51.8997 29.7688 51.6206 29.3306C51.3889 28.9669 51.1183 28.6295 50.8136 28.3243Z" fill="#263238"/>
<path d="M76.9761 31.7827C76.8917 31.7973 76.8062 31.8046 76.7206 31.8045C76.5555 31.8045 76.3093 31.8326 75.9978 31.87C75.1124 31.9697 74.2402 32.164 73.3962 32.4495C72.8142 32.6431 72.2511 32.8893 71.7137 33.1848C71.1044 33.5392 70.5213 33.937 69.9689 34.375C68.6741 35.3466 67.5764 36.5564 66.7348 37.9393C65.8905 39.4442 65.1272 40.8992 64.5103 42.2607C63.9581 43.4618 63.5018 44.7047 63.1456 45.9777C62.9083 46.8371 62.7354 47.713 62.6284 48.598C62.5817 48.9096 62.5723 49.1557 62.5536 49.3209C62.5486 49.4057 62.5372 49.4901 62.5193 49.5732C62.5111 49.4893 62.5111 49.4048 62.5193 49.3209C62.5193 49.1526 62.5193 48.9065 62.563 48.5918C62.648 47.6996 62.8064 46.8159 63.0365 45.9497C63.3792 44.669 63.8262 43.4186 64.3732 42.2109C64.9963 40.84 65.7472 39.3819 66.5946 37.8708C67.4431 36.4663 68.555 35.2391 69.8692 34.2566C70.429 33.8163 71.0217 33.4194 71.642 33.0695C72.19 32.7704 72.7648 32.5232 73.3588 32.3311C74.2128 32.0523 75.0963 31.8735 75.9915 31.7983C76.3031 31.7703 76.5523 31.764 76.7206 31.764C76.8061 31.7622 76.8917 31.7685 76.9761 31.7827Z" fill="#263238"/>
<path d="M67.0397 29.2622C67.0397 29.2934 66.6004 29.2872 65.915 29.4087C65.5148 29.4813 65.121 29.5855 64.7373 29.7202C63.7947 30.0558 62.9292 30.577 62.1917 31.2532C61.8908 31.5283 61.6126 31.8273 61.3599 32.1474C60.933 32.6957 60.7367 33.0821 60.7056 33.0821C60.7331 32.9835 60.7739 32.8891 60.8271 32.8016C60.8793 32.694 60.9386 32.5899 61.0047 32.4901C61.086 32.3527 61.1744 32.2195 61.2695 32.0913C61.5142 31.7559 61.7885 31.4431 62.0889 31.1566C62.8342 30.458 63.7201 29.9269 64.6874 29.5987C65.0804 29.4654 65.4852 29.3694 65.8963 29.3121C66.0541 29.2864 66.2133 29.2698 66.373 29.2622C66.4922 29.2532 66.612 29.2532 66.7313 29.2622C66.8335 29.2471 66.9375 29.2471 67.0397 29.2622Z" fill="#263238"/>
<path d="M69.6631 50.3839C69.6631 50.3683 69.7939 50.3621 70.0089 50.2842C70.3121 50.1691 70.5834 49.9832 70.8003 49.7421C71.118 49.3814 71.354 48.9562 71.492 48.4958C71.6671 47.9265 71.8116 47.3482 71.9251 46.7635C72.1352 45.7034 72.2602 44.6282 72.2989 43.5481C72.3176 43.1306 72.3176 42.7941 72.3208 42.5605C72.3114 42.4388 72.3167 42.3164 72.3363 42.1959C72.3671 42.3139 72.3828 42.4354 72.3831 42.5573C72.3987 42.791 72.4173 43.1306 72.4142 43.5481C72.4093 44.6426 72.2987 45.734 72.084 46.8071C71.9705 47.3997 71.8196 47.9846 71.6322 48.5581C71.4837 49.0364 71.228 49.4744 70.8844 49.8387C70.6483 50.0829 70.3532 50.2621 70.0276 50.359C69.9402 50.3839 69.8504 50.3995 69.7597 50.4057C69.6974 50.4026 69.6631 50.4026 69.6631 50.3839Z" fill="#263238"/>
<path d="M79.1904 55.1016C79.3966 54.5225 79.502 53.9123 79.502 53.2976C79.4888 52.6328 79.347 51.9768 79.0845 51.3659C78.7667 50.6165 78.2905 49.9448 77.6887 49.3968C77.0739 48.8586 76.3666 48.4364 75.6012 48.1505C74.9747 47.9192 74.3232 47.7624 73.6601 47.6831C73.2126 47.6272 72.762 47.6001 72.311 47.6021C72.1451 47.6147 71.9784 47.6147 71.8125 47.6021C71.8536 47.5878 71.8967 47.5804 71.9402 47.5803C72.0244 47.5803 72.149 47.5523 72.311 47.5461C72.7659 47.5183 73.2223 47.5277 73.6757 47.5741C74.35 47.6384 75.0137 47.787 75.651 48.0165C76.4376 48.2934 77.1648 48.7162 77.7946 49.2628C78.4174 49.8236 78.9052 50.5181 79.2216 51.2942C79.4853 51.9236 79.6199 52.5996 79.6173 53.282C79.6175 53.7415 79.5395 54.1977 79.3867 54.6311C79.3458 54.7481 79.2979 54.8625 79.2434 54.9738C79.2314 55.0185 79.2136 55.0615 79.1904 55.1016Z" fill="#263238"/>
<path d="M71.9097 38.3598C71.9715 38.331 72.0363 38.3091 72.1028 38.2944C72.2337 38.2549 72.4238 38.2082 72.673 38.1542C73.3813 38.0106 74.1035 37.9479 74.8259 37.9672C75.899 37.995 76.9568 38.2288 77.9416 38.6558C79.1571 39.1879 80.1981 40.0518 80.9451 41.1483C81.7115 42.2397 82.093 43.5551 82.0294 44.8871C81.954 45.969 81.5666 47.0058 80.914 47.872C80.4789 48.4551 79.9203 48.935 79.2782 49.2771C79.1035 49.3674 78.9223 49.4444 78.7361 49.5077C78.6733 49.5346 78.6074 49.5534 78.5398 49.5638C78.5986 49.5297 78.6601 49.5005 78.7237 49.4765C78.9035 49.4029 79.0784 49.3175 79.2471 49.221C79.866 48.8652 80.4023 48.382 80.8205 47.8034C81.4445 46.9487 81.8119 45.9339 81.8798 44.8778C81.9324 43.5804 81.5569 42.3017 80.8112 41.2387C80.0798 40.1676 79.0661 39.32 77.8824 38.7898C76.9121 38.3654 75.8716 38.1245 74.8135 38.0794C74.0982 38.0515 73.382 38.0975 72.6761 38.2165C72.187 38.3006 71.9128 38.3754 71.9097 38.3598Z" fill="#263238"/>
<path d="M81.3377 41.5287C81.3065 41.5287 81.4374 41.0427 81.4623 40.2513C81.476 40.0376 81.476 39.8232 81.4623 39.6095C81.4478 39.3632 81.4208 39.1177 81.3813 38.8742C81.1951 37.7512 80.755 36.6856 80.0945 35.7585C79.95 35.5584 79.795 35.366 79.6303 35.1821C79.492 35.0178 79.3432 34.8627 79.1847 34.7179C78.6083 34.1788 78.1752 33.9327 78.1939 33.9016C78.3043 33.9433 78.409 33.9988 78.5055 34.0667C78.6247 34.1331 78.7383 34.2091 78.8451 34.2941C78.9932 34.3985 79.1348 34.5119 79.2689 34.6337C79.4346 34.7759 79.5908 34.9289 79.7362 35.0917C79.909 35.2756 80.0713 35.4691 80.2223 35.6713C80.5615 36.1382 80.8468 36.642 81.0728 37.173C81.2881 37.7087 81.4428 38.2667 81.5339 38.8368C81.571 39.0856 81.5939 39.3363 81.6025 39.5877C81.6167 39.8066 81.6167 40.0262 81.6025 40.2451C81.5929 40.4257 81.5731 40.6057 81.5433 40.7841C81.5269 40.9187 81.5009 41.052 81.4654 41.1829C81.4391 41.3035 81.3961 41.4199 81.3377 41.5287Z" fill="#263238"/>
<path d="M91.5887 42.021C91.5887 42.0522 91.1026 41.9556 90.3175 41.9618C89.8596 41.9672 89.403 42.0121 88.9528 42.0958C88.4035 42.2025 87.8653 42.36 87.3451 42.5663C86.8279 42.7813 86.3323 43.0453 85.8652 43.3545C85.4853 43.6105 85.1278 43.8981 84.7965 44.2145C84.2326 44.7566 83.9522 45.1492 83.9272 45.1492C83.9754 45.0439 84.0372 44.9454 84.1111 44.8563C84.1863 44.7473 84.2686 44.6432 84.3572 44.5447C84.4684 44.4056 84.5881 44.2734 84.7155 44.149C85.041 43.8145 85.3978 43.5119 85.7811 43.2455C86.723 42.5923 87.7975 42.1551 88.9279 41.9649C89.3867 41.8864 89.8522 41.853 90.3175 41.8652C90.4967 41.8644 90.6758 41.8758 90.8534 41.8995C90.9875 41.9088 91.1208 41.9275 91.2522 41.9556C91.3668 41.9626 91.4799 41.9846 91.5887 42.021Z" fill="#263238"/>
<path d="M97.6389 68.6193C97.6692 68.6643 97.6923 68.7136 97.7075 68.7657C97.7616 68.9133 97.8063 69.0642 97.8414 69.2175C97.9631 69.7832 97.9988 70.3641 97.9474 70.9404C97.8709 71.7966 97.6453 72.6328 97.2806 73.4112C96.8354 74.363 96.2447 75.2397 95.5296 76.0096C94.8243 76.7913 93.972 77.4264 93.0215 77.8791C92.2414 78.2415 91.4044 78.466 90.5476 78.5427C89.9746 78.5898 89.3991 78.6002 88.8247 78.5739C88.6222 78.5739 88.4664 78.5739 88.3604 78.5739C88.3056 78.5812 88.2501 78.5812 88.1953 78.5739C88.2472 78.5535 88.3018 78.5409 88.3573 78.5365C88.5124 78.5178 88.6685 78.5084 88.8247 78.5084C89.3959 78.5107 89.9669 78.4826 90.5352 78.4243C91.3755 78.3334 92.1948 78.1027 92.9592 77.742C93.8874 77.2877 94.7199 76.6594 95.4112 75.8912C96.1123 75.1308 96.697 74.2709 97.1466 73.3395C97.5107 72.5772 97.7425 71.7586 97.8321 70.9186C97.8942 70.3529 97.8764 69.7813 97.7791 69.2206C97.7525 69.0673 97.7182 68.9155 97.6763 68.7657C97.6585 68.7184 97.646 68.6693 97.6389 68.6193Z" fill="#263238"/>
<g opacity="0.3">
<path d="M73.2606 55.3875C71.9372 55.8583 70.7272 56.6012 69.7087 57.5685C67.1649 56.7001 64.472 56.3544 61.7913 56.5519C59.1107 56.7495 56.4975 57.4863 54.1085 58.7182C53.2735 59.1575 52.4541 59.6529 51.5412 59.9021C50.404 60.2137 49.2044 60.0828 48.0329 60.0174C45.3815 59.871 42.6833 60.033 40.1596 60.8555C37.6359 61.6781 35.2867 63.1767 33.7849 65.3577C32.2832 67.5386 31.713 70.4331 32.5885 72.9381L32.9001 73.3743C32.6695 70.6637 33.8348 67.978 35.8413 65.7689C37.8478 63.5599 40.5833 61.6189 43.537 61.2138C46.4907 60.8088 49.3259 61.3914 52.2609 61.9367C58.2773 58.6527 65.2408 57.5404 71.8897 59.1886C71.6213 58.4963 71.6122 57.7302 71.8641 57.0317C72.1161 56.3331 72.612 55.7492 73.2606 55.3875Z" fill="black"/>
</g>
<g opacity="0.3">
<path d="M60.1493 68.8222C58.5962 69.8576 56.8351 70.5401 54.9898 70.8217C53.1445 71.1032 51.26 70.9769 49.4688 70.4517C44.2812 73.128 42.7202 72.0999 40.3149 71.3085C41.5051 72.7666 43.711 73.558 45.5898 73.6484C46.5333 73.6877 47.4747 73.5311 48.3547 73.1884C49.2347 72.8457 50.0341 72.3245 50.7026 71.6574C53.2948 72.5921 56.1581 72.2806 58.8999 71.969L65.7544 71.1496C68.2812 70.838 70.8267 70.5452 73.257 69.7818C75.6872 69.0185 78.0146 67.7535 79.6659 65.8156C73.9206 69.6977 66.8387 70.6854 60.1493 68.8222Z" fill="black"/>
</g>
<g opacity="0.3">
<path d="M31.5746 52.5834C32.6744 52.9386 34.2665 52.6177 35.2822 52.0662C35.7892 51.7852 36.2349 51.4056 36.5928 50.9497C36.9508 50.4938 37.2139 49.9708 37.3666 49.4116C37.4032 49.1042 37.5363 48.8162 37.7467 48.5891C38.0302 48.4282 38.3582 48.3637 38.6814 48.4053C39.2202 48.3933 39.7497 48.2623 40.2319 48.0215C40.714 47.7808 41.1369 47.4363 41.4702 47.0128C41.8034 46.5892 42.0388 46.0972 42.1595 45.572C42.2801 45.0467 42.283 44.5013 42.1679 43.9748C41.2488 46.4299 38.2951 47.9161 35.7745 47.1871C35.6904 49.368 35.0423 51.9385 31.5684 52.5834" fill="black"/>
</g>
<g opacity="0.3">
<path d="M52.049 35.9731C51.0529 34.6275 49.7128 33.5752 48.1695 32.9266C46.6261 32.278 44.9366 32.0572 43.2784 32.2872C41.5851 32.5255 39.9631 33.1259 38.5228 34.0474C37.0824 34.9689 35.8575 36.19 34.9315 37.6275C33.2042 37.6342 31.4945 37.9749 29.8966 38.6307C28.2912 39.2963 26.9536 40.4782 26.0954 41.9894C25.3954 43.2514 25.0248 44.6694 25.0177 46.1125C25.0106 47.5556 25.3673 48.9772 26.0549 50.246C25.5502 47.1085 26.1982 44.482 27.9025 42.4568C29.6068 40.4316 33.1836 38.7803 35.8257 38.9143C36.2645 37.8566 36.9433 36.9156 37.8085 36.1656C38.6737 35.4155 39.7016 34.8771 40.8108 34.5928C43.1551 33.9043 45.648 33.9043 47.9924 34.5928C50.27 35.3188 53.5196 38.7616 53.5227 39.2663C53.6411 38.1634 53.1052 37.4125 52.049 35.9731Z" fill="black"/>
</g>
<g opacity="0.3">
<path d="M75.8203 31.7618C71.6391 31.1387 67.355 33.438 64.9155 36.8964C62.4759 40.3548 62.1955 44.318 62.5164 48.5366C62.5164 48.5366 64.0742 41.3892 66.5886 38.0181C69.6638 33.9147 74.814 31.1449 75.8203 31.7618Z" fill="black"/>
</g>
<g opacity="0.3">
<path d="M72.4028 43.2359C72.8588 44.2829 73.0183 45.4351 72.8639 46.5666C75.0293 46.5666 77.0108 47.9593 78.1855 49.7789C77.3241 48.9143 76.2607 48.2782 75.0916 47.9282C73.9326 47.5792 72.8857 47.4016 71.8232 47.7537C72.085 46.1335 72.5087 44.5819 72.3623 43.1238" fill="black"/>
</g>
<g opacity="0.3">
<path d="M101.189 61.1669C100.674 59.5643 99.5677 58.2184 98.0951 57.4031C100.419 60.8117 100.058 65.3419 97.6403 68.6196C98.3662 71.1807 97.8147 74.368 93.5649 77.5179C96.1167 77.0911 98.8834 74.3181 99.2137 71.7508C99.3476 70.6821 99.2137 69.5698 99.5252 68.5448C99.7994 67.6381 100.407 66.8748 100.824 66.0273C101.561 64.513 101.692 62.7742 101.189 61.1669Z" fill="black"/>
</g>
<g opacity="0.3">
<path d="M17.2969 52.4833C17.2969 52.5238 17.3187 52.5612 17.328 52.6017C17.328 52.5363 17.353 52.474 17.3716 52.4086L17.2969 52.4833Z" fill="black"/>
</g>
<g opacity="0.3">
<path d="M21.6636 63.5566C21.1824 62.9047 20.8206 62.1726 20.595 61.3944C20.1494 59.525 21.0935 57.6556 22.0064 55.9824C19.8254 56.2037 17.956 55.1038 17.3328 52.6019C16.9652 54.3093 17.4357 56.322 18.8408 57.3409C18.5318 58.6374 18.4952 59.9839 18.7335 61.2953C18.9717 62.6067 19.4796 63.8543 20.2249 64.9593C20.9703 66.0642 21.9368 67.0025 23.0635 67.7146C24.1901 68.4267 25.4523 68.8972 26.7702 69.0963C24.7995 67.5166 23.078 65.6491 21.6636 63.5566Z" fill="black"/>
</g>
<path d="M67.8842 83.2698C67.6287 83.7215 64.4352 86.4073 65.4789 89.713C66.8374 94.0126 73.3367 94.1591 78.4495 93.1652C85.9614 91.7039 89.5226 88.4916 89.5226 84.1951C89.5226 80.7336 67.8842 83.2698 67.8842 83.2698Z" fill="white" fill-opacity="0.5"/>
<path d="M89.5232 84.1949C89.4382 84.1914 89.3537 84.1799 89.2708 84.1606L88.5542 84.0298C88.2426 83.9675 87.8656 83.9052 87.4232 83.8366C86.9808 83.7681 86.4885 83.6871 85.9183 83.6216C84.7998 83.4658 83.4632 83.3506 81.9739 83.2509C80.4846 83.1512 78.8582 83.1138 77.129 83.1075C73.6862 83.1075 70.5705 83.2727 68.3179 83.3973L65.6478 83.5531L64.9218 83.5936C64.8379 83.6018 64.7534 83.6018 64.6694 83.5936C64.7529 83.5778 64.8371 83.5663 64.9218 83.5593L65.6446 83.4908C66.2678 83.4347 67.1838 83.363 68.3085 83.282C70.5612 83.1294 73.68 82.9424 77.129 82.9455C78.852 82.9455 80.494 83.0016 81.9832 83.1013C83.4725 83.201 84.8154 83.3381 85.9339 83.5064C86.4916 83.5811 86.9964 83.6653 87.4388 83.7494C87.8812 83.8335 88.2613 83.8958 88.5667 83.9675L89.277 84.1295C89.3609 84.144 89.4432 84.1659 89.5232 84.1949Z" fill="#263238"/>
<g opacity="0.3">
<path d="M89.5219 84.2602C81.9228 82.3908 73.9248 83.1572 66.1045 83.5218C74.3735 84.2851 82.2686 84.2976 89.5219 84.2602Z" fill="black"/>
</g>
<g opacity="0.3">
<path d="M56.2967 76.0506C54.9788 76.437 52.5579 77.1691 51.3802 77.6085C51.1994 78.5961 50.8038 79.4249 49.9314 79.8954C48.9113 80.3569 47.7825 80.5242 46.6724 80.3783C47.9841 80.6307 49.3456 80.855 50.6417 80.5465C51.9379 80.2381 53.1717 79.2629 53.3711 77.9449C60.8262 75.4212 68.7032 74.3808 76.5579 74.8822C69.8873 73.5332 62.8271 74.1314 56.2967 76.0506Z" fill="black"/>
</g>
<g opacity="0.3">
<path d="M80.7317 47.9877L80.794 47.9534C81.6468 47.4507 82.3032 46.6728 82.6554 45.7476C83.0076 44.8224 83.0346 43.8049 82.732 42.8624C82.5926 42.5615 82.5001 42.241 82.4578 41.9121C82.4736 41.5736 82.5408 41.2395 82.6572 40.9213C82.8833 39.9626 82.7726 38.9552 82.3437 38.0684C81.9148 37.1816 81.1938 36.4695 80.3018 36.0515C80.7348 36.55 82.1151 38.5659 81.2365 41.9028C81.2365 41.9028 82.3207 43.8438 81.8876 45.5263" fill="black"/>
</g>
<g opacity="0.3">
<path d="M49.0972 54.6171C50.0319 53.7322 50.063 51.8784 49.7203 50.6322C49.3776 49.3859 48.5519 48.3266 47.6795 47.3732C48.1349 47.0352 48.5143 46.6055 48.7931 46.1116C49.0718 45.6178 49.2438 45.071 49.2978 44.5065C49.3519 43.942 49.2868 43.3724 49.1068 42.8347C48.9268 42.297 48.6358 41.803 48.2528 41.3848C48.1157 42.4535 48.1064 43.7808 47.6297 44.7498C47.2321 45.6362 46.5395 46.3574 45.6699 46.7905C48.1157 48.0119 49.2654 51.4921 49.1751 53.7634L49.0972 54.6171Z" fill="black"/>
</g>
<path d="M90.3323 70.2925C90.4532 69.7271 90.4711 69.1445 90.3853 68.5727C90.2756 67.9575 90.0459 67.3699 89.7092 66.8435C89.2872 66.205 88.7429 65.6565 88.1077 65.2296C87.4696 64.8042 86.7782 64.4647 86.0514 64.2201C85.4567 64.0149 84.8488 63.8505 84.2318 63.7278C83.7021 63.625 83.2722 63.5627 82.9855 63.5159C82.8298 63.4972 82.6757 63.467 82.5244 63.4256C82.6817 63.4179 82.8393 63.4263 82.9949 63.4505C83.3065 63.4817 83.7302 63.5253 84.263 63.6157C84.8901 63.7213 85.5079 63.8765 86.1106 64.0799C86.8555 64.3187 87.5634 64.6606 88.2136 65.0956C88.8663 65.5358 89.4228 66.1039 89.8494 66.7656C90.1901 67.3111 90.4149 67.921 90.5099 68.5571C90.575 68.9844 90.5655 69.4198 90.4819 69.8439C90.4599 69.9581 90.4297 70.0705 90.3915 70.1804C90.3763 70.22 90.3565 70.2577 90.3323 70.2925Z" fill="#263238"/>
<g opacity="0.3">
<path d="M86.4013 62.0805C87.0514 60.4186 87.3187 58.6317 87.1834 56.8524C86.0422 59.3445 84.4456 61.6016 82.4756 63.5074C85.0055 63.6539 87.5853 64.601 89.3955 66.3739C89.3607 65.4464 89.06 64.5486 88.5291 63.7873C87.9982 63.0261 87.2596 62.4336 86.4013 62.0805Z" fill="black"/>
</g>
<path d="M10.774 82.0974C7.50568 82.0974 5.53969 81.5709 5.19073 80.4648C4.37754 77.8944 12.1418 73.5667 18.7969 70.3887L18.9309 70.6723C9.81439 75.0342 4.91032 78.558 5.48672 80.3714C6.73299 84.294 32.5931 79.7732 61.9708 70.5009C91.3485 61.2287 115.13 50.0901 113.894 46.1644C113.314 44.3386 107.179 44.27 97.0689 45.9805L97.0159 45.669C104.403 44.4227 113.379 43.488 114.199 46.0678C115.532 50.2926 92.6353 61.1539 62.0736 70.7969C39.5068 77.9193 19.984 82.0943 10.774 82.0974Z" fill="white" fill-opacity="0.5"/>
<g opacity="0.6">
<path d="M10.7731 82.0981C7.50478 82.0981 5.53879 81.5716 5.18983 80.4655C4.37976 77.9044 12.1409 73.5736 18.796 70.3894L18.93 70.6729C9.81661 75.0349 4.90942 78.5681 5.48582 80.372C6.73209 84.2947 32.5922 79.7738 61.9699 70.5016C91.3476 61.2293 115.13 50.0908 113.893 46.165C113.316 44.3424 107.178 44.2769 97.068 45.9812L97.015 45.6696C104.405 44.4234 113.382 43.4887 114.198 46.0684C115.531 50.2933 92.6344 61.1545 62.0727 70.7976C39.5059 77.92 19.9831 82.095 10.7731 82.0981Z" fill="black"/>
</g>
<path d="M46.0993 98.9698C46.0993 99.1991 46.0313 99.4233 45.9038 99.614C45.7763 99.8047 45.5951 99.9532 45.3831 100.041C45.1711 100.128 44.9379 100.151 44.713 100.106C44.4881 100.061 44.2816 99.9506 44.1196 99.7882C43.9576 99.6258 43.8475 99.419 43.8031 99.194C43.7588 98.9689 43.7822 98.7358 43.8704 98.5241C43.9586 98.3123 44.1076 98.1315 44.2986 98.0046C44.4896 97.8776 44.714 97.8101 44.9434 97.8107C45.0955 97.8107 45.246 97.8407 45.3865 97.899C45.5269 97.9573 45.6545 98.0427 45.7619 98.1504C45.8692 98.2581 45.9543 98.3859 46.0122 98.5265C46.0701 98.6671 46.0997 98.8177 46.0993 98.9698Z" fill="white" fill-opacity="0.5"/>
<path d="M98.1686 87.0401C98.1686 87.2694 98.1006 87.4937 97.9731 87.6843C97.8456 87.875 97.6644 88.0235 97.4524 88.1112C97.2405 88.1988 97.0073 88.2216 96.7824 88.1766C96.5574 88.1316 96.3509 88.0209 96.189 87.8585C96.027 87.6961 95.9168 87.4893 95.8725 87.2643C95.8281 87.0392 95.8515 86.8061 95.9397 86.5944C96.0279 86.3826 96.177 86.2018 96.368 86.0749C96.559 85.9479 96.7834 85.8804 97.0127 85.881C97.1648 85.881 97.3154 85.911 97.4558 85.9693C97.5963 86.0276 97.7238 86.113 97.8312 86.2207C97.9386 86.3284 98.0237 86.4562 98.0816 86.5968C98.1395 86.7374 98.1691 86.888 98.1686 87.0401Z" fill="white" fill-opacity="0.5"/>
<path d="M97.5241 33.0107C97.5241 33.1622 97.4792 33.3104 97.395 33.4365C97.3107 33.5625 97.191 33.6608 97.051 33.7188C96.9109 33.7768 96.7568 33.792 96.6081 33.7624C96.4595 33.7328 96.3229 33.6598 96.2157 33.5526C96.1085 33.4454 96.0355 33.3089 96.0059 33.1602C95.9764 33.0115 95.9915 32.8574 96.0496 32.7173C96.1076 32.5773 96.2058 32.4576 96.3318 32.3734C96.4579 32.2892 96.6061 32.2442 96.7577 32.2442C96.9609 32.2442 97.1559 32.325 97.2996 32.4687C97.4434 32.6124 97.5241 32.8074 97.5241 33.0107Z" fill="white" fill-opacity="0.5"/>
<path d="M94.4706 96.7479C95.1107 96.7479 95.6296 96.229 95.6296 95.5889C95.6296 94.9488 95.1107 94.4299 94.4706 94.4299C93.8304 94.4299 93.3115 94.9488 93.3115 95.5889C93.3115 96.229 93.8304 96.7479 94.4706 96.7479Z" fill="white" fill-opacity="0.5"/>
<path d="M52.4613 99.7827C52.4613 100.169 52.3467 100.547 52.132 100.868C51.9174 101.189 51.6123 101.44 51.2553 101.588C50.8984 101.735 50.5056 101.774 50.1266 101.699C49.7477 101.623 49.3996 101.437 49.1264 101.164C48.8532 100.891 48.6671 100.543 48.5917 100.164C48.5164 99.7849 48.555 99.3921 48.7029 99.0351C48.8508 98.6781 49.1012 98.373 49.4224 98.1584C49.7437 97.9437 50.1214 97.8292 50.5077 97.8292C51.0258 97.8292 51.5227 98.035 51.8891 98.4013C52.2554 98.7677 52.4613 99.2646 52.4613 99.7827Z" fill="white" fill-opacity="0.5"/>
<path d="M111.803 90.9811C111.803 91.3674 111.688 91.7451 111.473 92.0664C111.259 92.3876 110.954 92.638 110.597 92.7859C110.24 92.9337 109.847 92.9724 109.468 92.897C109.089 92.8217 108.741 92.6356 108.468 92.3624C108.194 92.0892 108.008 91.7411 107.933 91.3622C107.858 90.9832 107.896 90.5904 108.044 90.2335C108.192 89.8765 108.442 89.5714 108.764 89.3568C109.085 89.1421 109.463 89.0275 109.849 89.0275C110.367 89.0275 110.864 89.2333 111.23 89.5997C111.597 89.9661 111.803 90.4629 111.803 90.9811Z" fill="white" fill-opacity="0.5"/>
<path d="M91.9461 33.7927C92.6585 33.7927 93.236 33.2152 93.236 32.5028C93.236 31.7905 92.6585 31.213 91.9461 31.213C91.2337 31.213 90.6562 31.7905 90.6562 32.5028C90.6562 33.2152 91.2337 33.7927 91.9461 33.7927Z" fill="white" fill-opacity="0.5"/>
<path d="M61.7333 21.9537C61.7333 22.3197 61.6246 22.6774 61.421 22.9815C61.2174 23.2856 60.9281 23.5224 60.5898 23.6618C60.2515 23.8013 59.8794 23.8372 59.5206 23.7648C59.1619 23.6925 58.8327 23.5153 58.5748 23.2557C58.3169 22.9961 58.142 22.6657 58.0721 22.3065C58.0022 21.9472 58.0406 21.5754 58.1823 21.238C58.3241 20.9006 58.5628 20.6129 58.8683 20.4114C59.1738 20.2099 59.5322 20.1037 59.8981 20.1061C60.3857 20.1102 60.852 20.3066 61.1956 20.6526C61.5393 20.9985 61.7325 21.4661 61.7333 21.9537Z" fill="white" fill-opacity="0.5"/>
<path d="M6.86376 66.5793C7.73101 66.5793 8.43406 65.8763 8.43406 65.009C8.43406 64.1418 7.73101 63.4387 6.86376 63.4387C5.9965 63.4387 5.29346 64.1418 5.29346 65.009C5.29346 65.8763 5.9965 66.5793 6.86376 66.5793Z" fill="white" fill-opacity="0.5"/>
<path d="M36.2471 17.1613C37.1143 17.1613 37.8174 16.4582 37.8174 15.591C37.8174 14.7237 37.1143 14.0207 36.2471 14.0207C35.3798 14.0207 34.6768 14.7237 34.6768 15.591C34.6768 16.4582 35.3798 17.1613 36.2471 17.1613Z" fill="white" fill-opacity="0.5"/>
<path d="M54.4461 21.8162C54.4461 22.0269 54.3836 22.2329 54.2665 22.4082C54.1494 22.5834 53.983 22.72 53.7883 22.8006C53.5936 22.8813 53.3793 22.9024 53.1726 22.8613C52.9659 22.8201 52.7761 22.7187 52.627 22.5696C52.478 22.4206 52.3765 22.2307 52.3354 22.0241C52.2943 21.8174 52.3154 21.6031 52.3961 21.4084C52.4767 21.2137 52.6133 21.0473 52.7885 20.9302C52.9637 20.8131 53.1698 20.7506 53.3805 20.7506C53.5204 20.7506 53.659 20.7782 53.7883 20.8317C53.9176 20.8853 54.035 20.9638 54.134 21.0627C54.2329 21.1617 54.3114 21.2791 54.365 21.4084C54.4185 21.5377 54.4461 21.6762 54.4461 21.8162Z" fill="white" fill-opacity="0.5"/>
<path d="M74.8787 23.2584C74.8787 23.4692 74.8162 23.6752 74.6991 23.8504C74.582 24.0257 74.4156 24.1622 74.2209 24.2429C74.0262 24.3235 73.8119 24.3446 73.6052 24.3035C73.3985 24.2624 73.2087 24.1609 73.0597 24.0119C72.9106 23.8629 72.8091 23.673 72.768 23.4663C72.7269 23.2596 72.748 23.0454 72.8287 22.8507C72.9093 22.656 73.0459 22.4895 73.2211 22.3725C73.3964 22.2554 73.6024 22.1929 73.8131 22.1929C74.0957 22.1929 74.3668 22.3051 74.5666 22.505C74.7664 22.7048 74.8787 22.9758 74.8787 23.2584Z" fill="white" fill-opacity="0.5"/>
<path d="M33.8865 20.1052C33.8865 20.316 33.824 20.522 33.7069 20.6972C33.5898 20.8725 33.4234 21.009 33.2287 21.0897C33.034 21.1703 32.8197 21.1914 32.6131 21.1503C32.4064 21.1092 32.2165 21.0077 32.0675 20.8587C31.9184 20.7097 31.817 20.5198 31.7758 20.3131C31.7347 20.1064 31.7558 19.8922 31.8365 19.6975C31.9171 19.5028 32.0537 19.3363 32.2289 19.2193C32.4042 19.1022 32.6102 19.0397 32.8209 19.0397C33.1035 19.0397 33.3746 19.1519 33.5744 19.3518C33.7742 19.5516 33.8865 19.8226 33.8865 20.1052Z" fill="white" fill-opacity="0.5"/>
<path d="M60.4186 16.9775C60.4179 17.0833 60.3858 17.1865 60.3263 17.2739C60.2668 17.3614 60.1827 17.4291 60.0845 17.4686C59.9864 17.508 59.8788 17.5174 59.7753 17.4954C59.6718 17.4735 59.5772 17.4213 59.5036 17.3454C59.4299 17.2695 59.3805 17.1734 59.3616 17.0693C59.3427 16.9653 59.3552 16.8579 59.3976 16.761C59.4399 16.6641 59.5101 16.582 59.5993 16.5251C59.6884 16.4682 59.7925 16.4391 59.8983 16.4416C60.0379 16.4449 60.1707 16.5029 60.2681 16.6031C60.3654 16.7033 60.4194 16.8378 60.4186 16.9775Z" fill="white" fill-opacity="0.5"/>
<path d="M49.34 11.3911C49.34 11.4964 49.3087 11.5994 49.2502 11.6871C49.1916 11.7747 49.1084 11.843 49.0111 11.8833C48.9137 11.9236 48.8066 11.9342 48.7033 11.9136C48.5999 11.893 48.505 11.8423 48.4305 11.7678C48.356 11.6933 48.3052 11.5983 48.2847 11.495C48.2641 11.3916 48.2746 11.2845 48.315 11.1872C48.3553 11.0898 48.4236 11.0066 48.5112 10.9481C48.5988 10.8895 48.7018 10.8583 48.8072 10.8583C48.9485 10.8583 49.084 10.9144 49.1839 11.0143C49.2838 11.1142 49.34 11.2498 49.34 11.3911Z" fill="white" fill-opacity="0.5"/>
<path d="M40.5978 22.8813C40.5978 22.9867 40.5665 23.0897 40.508 23.1773C40.4495 23.2649 40.3662 23.3332 40.2689 23.3735C40.1715 23.4138 40.0644 23.4244 39.9611 23.4038C39.8577 23.3833 39.7628 23.3325 39.6883 23.258C39.6138 23.1835 39.563 23.0886 39.5425 22.9852C39.5219 22.8819 39.5325 22.7748 39.5728 22.6774C39.6131 22.5801 39.6814 22.4968 39.769 22.4383C39.8566 22.3798 39.9596 22.3485 40.065 22.3485C40.2063 22.3485 40.3418 22.4046 40.4417 22.5046C40.5417 22.6045 40.5978 22.74 40.5978 22.8813Z" fill="white" fill-opacity="0.5"/>
<path d="M111.803 62.143C112.341 62.143 112.778 61.7064 112.778 61.1678C112.778 60.6292 112.341 60.1926 111.803 60.1926C111.264 60.1926 110.828 60.6292 110.828 61.1678C110.828 61.7064 111.264 62.143 111.803 62.143Z" fill="white" fill-opacity="0.5"/>
<path d="M108.952 65.6876C108.952 65.917 108.884 66.1412 108.757 66.3318C108.629 66.5225 108.448 66.6711 108.236 66.7587C108.024 66.8463 107.791 66.8691 107.566 66.8241C107.341 66.7792 107.135 66.6685 106.973 66.506C106.811 66.3436 106.701 66.1368 106.656 65.9118C106.612 65.6868 106.635 65.4536 106.723 65.2419C106.812 65.0302 106.961 64.8494 107.152 64.7224C107.343 64.5954 107.567 64.528 107.796 64.5286C107.948 64.5286 108.099 64.5586 108.239 64.6169C108.38 64.6751 108.508 64.7606 108.615 64.8682C108.722 64.9759 108.807 65.1037 108.865 65.2443C108.923 65.3849 108.953 65.5355 108.952 65.6876Z" fill="white" fill-opacity="0.5"/>
<path d="M106.84 57.0266C106.781 56.9501 106.745 56.8578 106.739 56.7612C106.732 56.6647 106.754 56.5683 106.802 56.4842C106.85 56.4001 106.921 56.3322 107.008 56.289C107.095 56.2458 107.192 56.2292 107.288 56.2415C107.384 56.2537 107.474 56.2941 107.548 56.3576C107.621 56.4212 107.673 56.5049 107.698 56.5983C107.724 56.6917 107.721 56.7906 107.69 56.8824C107.659 56.9741 107.602 57.0547 107.525 57.1138C107.423 57.193 107.293 57.2283 107.165 57.212C107.036 57.1956 106.919 57.1289 106.84 57.0266Z" fill="white" fill-opacity="0.5"/>
<path d="M91.5537 36.6186C91.7705 36.6186 91.9463 36.4429 91.9463 36.2261C91.9463 36.0093 91.7705 35.8335 91.5537 35.8335C91.3369 35.8335 91.1611 36.0093 91.1611 36.2261C91.1611 36.4429 91.3369 36.6186 91.5537 36.6186Z" fill="white" fill-opacity="0.5"/>
<path d="M101.939 85.606C102.266 85.606 102.531 85.341 102.531 85.014C102.531 84.6871 102.266 84.4221 101.939 84.4221C101.612 84.4221 101.347 84.6871 101.347 85.014C101.347 85.341 101.612 85.606 101.939 85.606Z" fill="white" fill-opacity="0.5"/>
<path d="M36.7492 89.4101C37.6904 89.4101 38.4535 88.6471 38.4535 87.7059C38.4535 86.7646 37.6904 86.0016 36.7492 86.0016C35.808 86.0016 35.0449 86.7646 35.0449 87.7059C35.0449 88.6471 35.808 89.4101 36.7492 89.4101Z" fill="white" fill-opacity="0.5"/>
<path d="M34.3998 92.8127C34.756 92.8127 35.0448 92.5239 35.0448 92.1677C35.0448 91.8115 34.756 91.5228 34.3998 91.5228C34.0436 91.5228 33.7549 91.8115 33.7549 92.1677C33.7549 92.5239 34.0436 92.8127 34.3998 92.8127Z" fill="white" fill-opacity="0.5"/>
</svg>
