<svg width="168" height="574" viewBox="0 0 168 574" fill="none" xmlns="http://www.w3.org/2000/svg">
<path d="M117.293 527.195L116.648 511.03L88.4878 509.971L88.9014 529.742L99.1595 535.93L117.293 527.195Z" fill="#FFBE9D"/>
<path d="M88.2901 526.069V527.922C88.2901 527.922 57.0196 540.827 56.7383 546.784L119.081 545.874L117.923 525.142C113.34 527.416 108.321 528.675 103.207 528.835C98.094 528.995 93.0062 528.051 88.2901 526.069Z" fill="#3780EF"/>
<g opacity="0.6">
<path d="M111.717 531.86C112.319 532.034 112.835 532.424 113.168 532.955C113.501 533.486 113.626 534.121 113.52 534.739C113.374 535.348 112.998 535.878 112.471 536.217C111.944 536.556 111.306 536.678 110.691 536.559C110.05 536.376 109.5 535.962 109.148 535.396C108.796 534.83 108.668 534.153 108.788 533.498C109.013 532.878 109.47 532.369 110.063 532.079C110.655 531.789 111.337 531.74 111.965 531.942" fill="white"/>
</g>
<g opacity="0.6">
<path d="M119.098 545.873L118.817 540.909L59.1548 543.59C59.1548 543.59 56.3918 544.847 56.7392 546.783L119.098 545.873Z" fill="white"/>
</g>
<path d="M88.0916 528.104C88.0916 528.402 89.6303 528.518 91.1359 529.477C92.6415 530.437 93.4688 531.694 93.7501 531.578C94.0314 531.463 93.5516 529.692 91.6985 528.567C89.8454 527.442 88.0254 527.823 88.0916 528.104Z" fill="#263238"/>
<path d="M81.5874 530.9C81.5874 531.198 82.8448 531.694 83.9037 532.968C84.9626 534.242 85.277 535.599 85.5583 535.582C85.8395 535.565 86.0381 533.828 84.6979 532.273C83.3578 530.718 81.5874 530.685 81.5874 530.9Z" fill="#263238"/>
<path d="M77.9983 538.776C78.2631 538.776 78.6767 537.32 77.8659 535.665C77.0552 534.011 75.6324 533.365 75.5 533.614C75.3676 533.862 76.2611 534.755 76.9063 536.112C77.5516 537.469 77.684 538.759 77.9983 538.776Z" fill="#263238"/>
<path d="M155.778 492.598L155.347 540.976L133.044 539.371L128.147 492.25L155.778 492.598Z" fill="#FFBE9D"/>
<path d="M132.284 529.874C132.284 529.874 147.952 540.761 155.58 531.38L157.548 535.946L166.417 568.392C166.708 569.42 166.611 570.519 166.145 571.48C165.678 572.441 164.874 573.197 163.885 573.603C163.119 573.894 162.287 573.968 161.481 573.816C160.675 573.665 159.927 573.293 159.319 572.743C152.866 566.737 129.273 544.616 129.537 541.572L129.637 533.597C129.652 532.78 129.914 531.986 130.39 531.322C130.866 530.657 131.532 530.152 132.3 529.874H132.284Z" fill="#3780EF"/>
<g opacity="0.6">
<path d="M163.121 573.819L129.501 538.792V540.612C129.471 541.335 129.604 542.056 129.89 542.721C130.177 543.385 130.609 543.977 131.156 544.451C133.886 548.041 141.414 556.033 159.283 572.826C159.805 573.308 160.435 573.657 161.121 573.844C161.806 574.031 162.526 574.051 163.221 573.902L163.121 573.819Z" fill="white"/>
</g>
<g opacity="0.6">
<path d="M134.449 533.613C134.961 533.975 135.319 534.515 135.454 535.127C135.589 535.739 135.49 536.379 135.177 536.922C134.811 537.428 134.271 537.782 133.661 537.916C133.051 538.05 132.413 537.956 131.868 537.65C131.586 537.474 131.344 537.242 131.156 536.968C130.969 536.694 130.839 536.385 130.776 536.058C130.714 535.732 130.719 535.397 130.792 535.073C130.864 534.749 131.003 534.443 131.199 534.175C131.395 533.907 131.645 533.683 131.931 533.515C132.218 533.348 132.537 533.242 132.867 533.203C133.196 533.164 133.531 533.194 133.848 533.29C134.166 533.386 134.461 533.547 134.714 533.762" fill="white"/>
</g>
<path d="M153.46 555.9C154.47 554.601 155.723 553.51 157.15 552.69C158.696 552.092 160.339 551.784 161.997 551.78C161.997 551.681 161.501 551.366 160.508 551.234C159.215 551.088 157.907 551.312 156.736 551.879C155.566 552.429 154.582 553.309 153.907 554.411C153.46 555.254 153.344 555.866 153.46 555.9Z" fill="#263238"/>
<path d="M156.456 561.393C157.662 560.716 158.911 560.119 160.195 559.606C161.552 559.356 162.922 559.185 164.298 559.093C163.643 558.702 162.907 558.467 162.146 558.407C161.386 558.347 160.622 558.463 159.914 558.746C157.448 559.457 156.241 561.277 156.456 561.393Z" fill="#263238"/>
<path d="M147.835 548.884C149.631 547.701 151.511 546.65 153.46 545.741C155.501 545.11 157.586 544.634 159.698 544.318C157.493 543.723 155.148 543.928 153.08 544.897C150.912 545.559 149.053 546.973 147.835 548.884Z" fill="#263238"/>
<path d="M147.106 538.958C147.222 539.206 149.555 538.263 152.582 538.147C155.61 538.031 158.009 538.743 158.109 538.478C156.392 537.591 154.474 537.168 152.543 537.253C150.613 537.337 148.739 537.925 147.106 538.958Z" fill="#263238"/>
<path d="M154.303 538.081C154.345 537.557 154.266 537.03 154.071 536.542C153.662 535.164 152.981 533.881 152.069 532.77C151.467 531.886 150.588 531.229 149.571 530.9C149.227 530.802 148.86 530.819 148.526 530.947C148.192 531.075 147.908 531.309 147.718 531.612C147.372 532.194 147.26 532.886 147.404 533.547C147.772 534.905 148.6 536.093 149.747 536.907C150.894 537.722 152.288 538.113 153.691 538.015C155.076 537.914 156.401 537.407 157.499 536.556C158.597 535.706 159.419 534.549 159.862 533.233C159.969 532.903 160.001 532.554 159.956 532.21C159.91 531.867 159.787 531.538 159.598 531.248C159.371 530.972 159.066 530.773 158.723 530.675C158.38 530.577 158.016 530.587 157.678 530.702C156.709 531.11 155.861 531.759 155.213 532.588C154.263 533.662 153.507 534.894 152.979 536.228C152.753 536.698 152.629 537.211 152.615 537.733C153.402 536.014 154.445 534.424 155.709 533.018C156.284 532.289 157.036 531.72 157.893 531.363C158.075 531.298 158.272 531.29 158.459 531.34C158.645 531.39 158.812 531.497 158.936 531.645C159.043 531.846 159.107 532.068 159.124 532.296C159.141 532.524 159.111 532.753 159.035 532.968C158.617 534.092 157.888 535.073 156.933 535.797C155.978 536.521 154.836 536.957 153.641 537.055C152.455 537.127 151.28 536.8 150.302 536.125C149.324 535.45 148.601 534.467 148.247 533.332C148.131 532.877 148.184 532.395 148.396 531.976C148.502 531.807 148.658 531.677 148.842 531.603C149.026 531.528 149.229 531.514 149.422 531.562C150.274 531.845 151.019 532.382 151.557 533.101C152.772 534.577 153.703 536.265 154.303 538.081Z" fill="#263238"/>
<path d="M73.5303 232.159L73.1332 237.503L60.5422 260.998C60.5422 260.998 54.9665 296.222 58.8877 319.469C62.9909 344.055 68.1034 398.257 68.5171 410.186C68.9307 422.115 84.7976 518.343 84.7976 518.343L119.261 517.399C119.261 517.399 112.643 409.541 111.965 395.494C111.287 381.447 111.435 320.726 111.435 320.726L111.353 240.151L71.247 230.802" fill="#263238"/>
<path d="M124.82 516.605L111.402 315.017L104.122 239.753L148.794 227.096L150.565 236.378C150.565 236.378 167.656 276.467 167.325 288.33C166.365 321.569 163.884 405.106 163.884 405.106L158.341 515.298L124.82 516.605Z" fill="#263238"/>
<path d="M108.407 246.322C108.496 246.56 108.541 246.812 108.539 247.067C108.539 247.646 108.671 248.341 108.771 249.184C108.936 251.038 109.151 253.718 109.35 257.027C109.763 263.645 110.111 272.795 110.442 282.904C110.773 293.013 111.087 302.063 111.319 308.797C111.451 312.023 111.567 314.671 111.65 316.639C111.65 317.483 111.65 318.195 111.65 318.774C111.678 319.021 111.678 319.271 111.65 319.518C111.561 319.286 111.517 319.039 111.517 318.79C111.517 318.211 111.385 317.5 111.286 316.656C111.12 314.82 110.905 312.139 110.707 308.83C110.293 302.212 109.945 293.046 109.615 282.937C109.284 272.828 108.969 263.794 108.738 257.043C108.605 253.834 108.489 251.186 108.407 249.201C108.407 248.357 108.407 247.646 108.407 247.067C108.379 246.819 108.379 246.57 108.407 246.322Z" fill="#455A64"/>
<path d="M159.947 263.661C159.583 263.881 159.186 264.043 158.772 264.141C158.301 264.304 157.821 264.437 157.333 264.538C156.695 264.698 156.049 264.82 155.397 264.902C153.693 265.145 151.968 265.206 150.251 265.084C148.146 264.921 146.066 264.528 144.047 263.909C142.038 263.265 140.107 262.399 138.289 261.328C136.811 260.438 135.43 259.395 134.169 258.217C133.682 257.778 133.223 257.309 132.796 256.811C132.448 256.455 132.128 256.073 131.836 255.669C131.357 255.008 131.108 254.627 131.158 254.594C131.208 254.561 132.366 255.934 134.55 257.804C135.828 258.891 137.201 259.86 138.653 260.699C140.443 261.703 142.327 262.528 144.279 263.164C146.24 263.765 148.258 264.164 150.301 264.356C151.952 264.501 153.613 264.501 155.265 264.356C158.177 264.074 159.897 263.512 159.947 263.661Z" fill="#455A64"/>
<path d="M77.7829 250.028C77.5042 251.074 77.0389 252.06 76.4096 252.94C73.6137 257.418 69.4043 260.836 64.4474 262.652C63.4569 263.08 62.3978 263.326 61.3203 263.38C64.6825 262.104 67.8509 260.367 70.7346 258.218C73.4603 255.836 75.8335 253.078 77.7829 250.028Z" fill="#455A64"/>
<path d="M101.046 423.024C99.6712 422.621 98.3449 422.066 97.092 421.37C94.7095 420.212 91.4831 418.474 88.0417 416.406C85.0981 414.601 82.2486 412.646 79.5044 410.549C78.3092 409.738 77.2003 408.807 76.1953 407.77C77.457 408.451 78.6631 409.231 79.8022 410.103C81.9696 411.592 84.9974 413.627 88.4223 415.744C91.8471 417.862 95.0404 419.649 97.3236 420.923C98.6136 421.533 99.8578 422.235 101.046 423.024Z" fill="#455A64"/>
<path d="M119.395 42.6002L89.5141 34.5427C79.9179 33.368 73.3494 45.0985 72.5883 54.7444C71.728 65.4327 71.1323 78.5365 72.274 86.5444C74.5738 102.659 86.8503 104.91 86.8503 104.91C86.8503 104.91 86.8503 104.91 86.8503 114.125C86.8503 122.712 87.1316 128.569 96.8602 131.002C106.506 131.349 119.759 126.468 120.024 117.451L124.342 48.4076C124.39 46.997 123.909 45.6193 122.994 44.5449C122.079 43.4704 120.795 42.7768 119.395 42.6002Z" fill="#FFBE9D"/>
<path d="M78.2292 66.9548C78.2156 67.4907 78.4123 68.0106 78.7772 68.4033C79.142 68.796 79.6461 69.0303 80.1815 69.0561C80.4428 69.081 80.7065 69.0534 80.9571 68.9749C81.2076 68.8965 81.4399 68.7687 81.6403 68.5991C81.8407 68.4295 82.0052 68.2216 82.124 67.9875C82.2429 67.7534 82.3137 67.4979 82.3324 67.2361C82.3462 66.6985 82.15 66.1768 81.7855 65.7814C81.4211 65.3861 80.9169 65.1482 80.38 65.1183C80.1178 65.0957 79.8538 65.1254 79.6032 65.2058C79.3526 65.2862 79.1205 65.4156 78.9203 65.5865C78.7202 65.7574 78.556 65.9663 78.4374 66.2013C78.3187 66.4362 78.2479 66.6923 78.2292 66.9548Z" fill="#263238"/>
<path d="M75.3011 62.2058C75.5658 62.4705 77.1376 61.3454 79.3547 61.3951C81.5717 61.4447 83.1767 62.5698 83.4248 62.2885C83.673 62.0072 83.2925 61.6929 82.5976 61.1634C81.6334 60.4712 80.4755 60.1006 79.2885 60.1045C78.1377 60.086 77.0097 60.4273 76.0622 61.0807C75.4169 61.5936 75.1853 62.09 75.3011 62.2058Z" fill="#263238"/>
<path d="M98.7606 66.9549C98.7513 67.4923 98.9517 68.0122 99.3193 68.4044C99.6868 68.7966 100.193 69.0304 100.729 69.0561C100.991 69.0811 101.254 69.0535 101.505 68.975C101.756 68.8965 101.988 68.7687 102.188 68.5991C102.389 68.4296 102.553 68.2216 102.672 67.9876C102.791 67.7535 102.862 67.498 102.88 67.2361C102.89 66.6997 102.692 66.1803 102.329 65.7858C101.965 65.3914 101.463 65.1523 100.928 65.1183C100.665 65.0957 100.4 65.1253 100.148 65.2055C99.8967 65.2857 99.6636 65.4148 99.4621 65.5855C99.2606 65.7562 99.0949 65.9651 98.9745 66.2001C98.8541 66.4351 98.7814 66.6916 98.7606 66.9549Z" fill="#263238"/>
<path d="M97.3063 62.4539C97.5545 62.7351 99.1428 61.5935 101.36 61.6431C103.577 61.6928 105.182 62.8178 105.43 62.5531C105.678 62.2884 105.298 61.9409 104.603 61.4115C103.637 60.7223 102.48 60.352 101.294 60.3526C100.14 60.3286 99.0084 60.6767 98.0673 61.3453C97.4221 61.8913 97.207 62.4539 97.3063 62.4539Z" fill="#263238"/>
<path d="M88.8008 78.7184C87.6413 78.3215 86.4337 78.0822 85.2105 78.0069C84.6479 78.0069 84.1019 77.8249 84.0192 77.4278C83.9808 76.8488 84.1193 76.2718 84.4163 75.7733C84.9788 74.4166 85.5579 72.9772 86.1701 71.4881C87.7759 67.8583 89.0926 64.1074 90.1079 60.2704C88.2032 63.7557 86.5874 67.3913 85.2767 71.1406C84.681 72.6463 84.1351 74.0857 83.6222 75.4589C83.249 76.1342 83.1315 76.9212 83.2912 77.676C83.3672 77.8775 83.4889 78.0587 83.6468 78.2051C83.8047 78.3515 83.9946 78.4593 84.2012 78.5198C84.5131 78.6117 84.8358 78.6618 85.1608 78.6687C86.3682 78.8259 87.5897 78.8426 88.8008 78.7184Z" fill="#263238"/>
<path d="M86.849 104.943C94.4186 105.172 101.904 103.299 108.474 99.5322C108.474 99.5322 102.865 110.8 86.7993 109.029L86.849 104.943Z" fill="#EB996E"/>
<path d="M89.082 84.1124C89.5463 83.359 90.1739 82.7195 90.9185 82.2413C91.6631 81.763 92.5056 81.4582 93.3838 81.3493C93.8927 81.3086 94.402 81.4227 94.845 81.6766C95.2879 81.9305 95.6437 82.3124 95.8656 82.7722C96.0969 83.3754 96.18 84.0254 96.1081 84.6674C96.0361 85.3094 95.8111 85.9248 95.452 86.4618C95.1182 87.0269 94.6285 87.4836 94.0415 87.7771C93.4545 88.0706 92.7952 88.1884 92.1429 88.1163C91.0613 87.7804 90.1011 87.1365 89.3798 86.2633C89.1336 86.0423 88.9461 85.7637 88.8339 85.4525C88.778 85.257 88.7669 85.0513 88.8012 84.8509C88.8356 84.6504 88.9146 84.4602 89.0324 84.2944" fill="#EB996E"/>
<path d="M95.3036 80.3564C94.9396 80.3564 94.9065 82.7389 92.8053 84.4099C90.704 86.081 88.1726 85.7832 88.1395 86.0645C88.1064 86.3457 88.702 86.5443 89.794 86.5939C91.2015 86.6341 92.5781 86.1772 93.6822 85.3034C94.7463 84.4624 95.4408 83.2398 95.618 81.8951C95.7338 80.9354 95.5518 80.3398 95.3036 80.3564Z" fill="#263238"/>
<path d="M96.2138 54.7939C96.4785 55.373 98.6625 54.8932 101.277 54.9924C103.891 55.0917 106.058 55.6046 106.356 54.9924C106.488 54.7277 106.075 54.1817 105.181 53.6688C103.996 53.0464 102.681 52.712 101.343 52.6927C100.002 52.638 98.6671 52.9106 97.4547 53.4868C96.5282 53.9997 96.098 54.5126 96.2138 54.7939Z" fill="#263238"/>
<path d="M75.6968 56.7462C76.1766 57.2591 78.0793 56.7462 80.3625 56.7462C82.6458 56.7462 84.5816 57.1268 85.0283 56.6139C85.2269 56.3657 84.929 55.8528 84.0852 55.3564C82.9216 54.753 81.6231 54.4568 80.3129 54.4961C79.0045 54.487 77.716 54.8177 76.5737 55.4557C75.6968 55.9851 75.4155 56.498 75.6968 56.7462Z" fill="#263238"/>
<path d="M130.05 97.0338C129.956 97.0461 129.862 97.0461 129.769 97.0338C129.504 96.9747 129.244 96.8973 128.991 96.8022C128.049 96.4841 127.182 95.9775 126.443 95.3131C125.881 94.8108 125.448 94.1796 125.183 93.4736C124.918 92.7676 124.828 92.0079 124.921 91.2595C124.978 90.8051 125.135 90.3691 125.381 89.9828C125.627 89.5965 125.956 89.2697 126.344 89.0259C126.572 88.8999 126.828 88.8338 127.088 88.8338C127.349 88.8338 127.605 88.8999 127.833 89.0259C128.082 89.1496 128.282 89.3547 128.4 89.6074C128.517 89.8601 128.545 90.1452 128.478 90.4157C128.436 90.5529 128.366 90.6797 128.272 90.788C128.178 90.8963 128.062 90.9836 127.932 91.0444C127.703 91.1669 127.447 91.2295 127.187 91.2264C126.702 91.2415 126.219 91.1394 125.781 90.9286C124.968 90.5872 124.231 90.0865 123.614 89.4561C122.618 88.4806 121.986 87.1946 121.82 85.8107C121.655 84.4269 121.966 83.028 122.704 81.8453L122.869 81.6136C122.869 81.6136 122.704 81.9611 122.456 82.6063C122.133 83.5181 122.009 84.4884 122.092 85.4521C122.202 86.5759 122.619 87.648 123.295 88.5521C123.972 89.4562 124.883 90.1579 125.93 90.5812C126.32 90.7585 126.743 90.8489 127.171 90.8459C127.365 90.8637 127.56 90.8207 127.729 90.7229C127.898 90.6251 128.033 90.4773 128.114 90.2999C128.149 90.1138 128.123 89.9213 128.039 89.7513C127.956 89.5813 127.819 89.4429 127.651 89.3568C127.478 89.2641 127.284 89.2156 127.088 89.2156C126.892 89.2156 126.699 89.2641 126.526 89.3568C126.188 89.5732 125.902 89.8594 125.685 90.1963C125.468 90.5331 125.326 90.9127 125.268 91.3092C125.169 92.0533 125.26 92.8104 125.533 93.5097C125.772 94.1343 126.145 94.699 126.625 95.1642C127.331 95.8299 128.156 96.3574 129.057 96.7195C129.686 96.8849 130.05 97.0007 130.05 97.0338Z" fill="#263238"/>
<path d="M92.0282 25.1778C91.0855 24.5114 90.4045 23.5372 90.1025 22.4228C89.8005 21.3085 89.8964 20.1238 90.3737 19.0726C89.7119 18.1129 90.5226 16.7066 91.6311 16.326C92.7745 16.0647 93.9707 16.1629 95.056 16.6073C94.7748 16.0613 95.5855 15.6146 96.1977 15.5153L100.45 14.9032C99.4745 14.6403 98.5723 14.1578 97.8123 13.4925C97.0523 12.8271 96.4547 11.9966 96.0653 11.0647C95.3045 9.18087 95.1202 7.11359 95.5358 5.12493C95.5546 4.83563 95.6318 4.55312 95.7626 4.29438C95.8934 4.03565 96.0751 3.80602 96.2969 3.6193C97.562 5.0825 98.5489 6.76469 99.2089 8.58288C99.7932 8.61784 100.364 8.77594 100.883 9.04683C101.401 9.31771 101.857 9.69524 102.22 10.1547C102.294 9.99843 102.402 9.86044 102.535 9.75054C102.668 9.64063 102.824 9.56152 102.992 9.51885C103.159 9.47618 103.334 9.47099 103.504 9.50368C103.674 9.53637 103.834 9.60612 103.974 9.70794C104.9 7.20961 106.654 4.57892 109.301 4.3142C108.491 3.13949 110.013 1.74967 111.303 1.12095C112.225 0.608773 113.236 0.277445 114.282 0.144788C114.804 0.0792743 115.334 0.162531 115.811 0.384979C116.288 0.607426 116.693 0.960044 116.978 1.40224C117.099 1.63099 117.168 1.88365 117.18 2.14213C117.192 2.40061 117.146 2.65847 117.047 2.89726C116.947 3.13606 116.796 3.34986 116.604 3.52332C116.412 3.69677 116.184 3.82561 115.936 3.90057C116.465 4.28246 116.85 4.83087 117.03 5.4579C117.21 6.08492 117.175 6.75424 116.929 7.35852C117.354 6.8697 117.931 6.53848 118.568 6.41838C119.204 6.29829 119.863 6.39636 120.436 6.69672C122.282 5.91241 124.307 5.64365 126.293 5.91909C126.806 5.95352 127.299 6.13122 127.716 6.43199C128.014 6.69671 128.196 7.06072 128.511 7.29235C128.983 7.58408 129.527 7.73873 130.082 7.73905C131.361 7.81701 132.585 8.28473 133.59 9.07924C134.083 9.48484 134.437 10.0354 134.6 10.6531C134.764 11.2707 134.729 11.9241 134.5 12.5207C137.428 13.4968 140.373 10.1712 143.401 10.8661C144.262 11.1476 145.045 11.624 145.691 12.2583C146.337 12.8926 146.827 13.6675 147.124 14.5226C145.612 15.1015 143.986 15.3169 142.375 15.1513C142.265 15.5886 142.01 15.9761 141.653 16.2519C141.297 16.5278 140.858 16.6763 140.407 16.6735C140.517 16.8323 140.587 17.0155 140.61 17.2073C140.634 17.3991 140.611 17.5938 140.542 17.7746C140.474 17.9554 140.363 18.1168 140.218 18.2449C140.073 18.373 139.899 18.464 139.712 18.51C141.572 18.0435 143.524 18.1008 145.354 18.6755C148.166 19.3869 151.244 20.9091 151.872 23.7383C152.046 24.7568 152.046 25.7973 151.872 26.8158C151.674 28.3379 150.863 30.3233 149.358 30.0255C148.431 29.8435 147.968 28.8343 147.471 28.0236C146.388 26.2175 144.633 24.9145 142.591 24.4001C141.863 25.095 143.186 26.0547 143.765 26.8323C144.344 27.6099 144.08 28.7515 144.212 29.7277C144.642 31.1738 145.289 32.5462 146.131 33.7978C147.504 36.7594 146.71 40.2174 145.9 43.3941C145.684 44.2379 144.692 45.2968 144.162 44.5854C144.698 44.7264 145.168 45.0497 145.491 45.4996C145.814 45.9495 145.97 46.498 145.933 47.0506C145.824 48.15 145.462 49.2092 144.874 50.1446C144.659 50.5582 144.377 51.0215 143.914 51.1207C143.451 51.22 142.723 50.5913 142.375 49.9957L139.546 45.2141C139.761 46.3114 139.721 47.4435 139.43 48.5231C139.262 49.5765 138.823 50.5681 138.156 51.4005C137.488 52.233 136.616 52.8778 135.625 53.2716C134.178 53.5494 132.683 53.4177 131.307 52.8911" fill="#263238"/>
<path d="M123.002 75.5909C122.373 75.3262 119.841 76.3189 119.444 75.7729C117.376 73.0264 116.35 65.217 115.871 61.8087C115.391 58.4004 117.525 54.6446 117.294 51.2198C117.299 48.4422 116.431 45.7333 114.812 43.4766C113.687 42.2491 112.278 41.3172 110.708 40.7632C108.307 39.8719 105.727 39.5661 103.183 39.8711C100.64 40.1761 98.2055 41.0831 96.0825 42.5169C94.3452 43.7082 92.6907 45.3131 90.5895 45.4786C88.4882 45.644 86.6186 44.3369 84.8482 43.2449C83.0779 42.153 80.8608 41.1602 78.9416 42.0206C78.1992 42.3831 77.5444 42.9025 77.0223 43.5428C74.9117 46.7581 73.4867 50.3741 72.8364 54.1648C72.1601 50.2747 72.543 46.2743 73.9449 42.5831C76.0016 38.24 79.1265 34.4896 83.027 31.6829C86.9276 28.8761 91.4765 27.1046 96.248 26.5342C115.292 23.705 124.044 34.3932 127.32 42.0041C128.726 45.3131 129.818 53.7843 128.677 60.3197C127.679 65.6989 125.759 70.8653 123.002 75.5909Z" fill="#263238"/>
<path d="M128.51 44.5846C128.228 44.6673 127.484 42.5164 125.631 39.439C124.577 37.6345 123.371 35.924 122.024 34.3265C120.386 32.4078 118.44 30.7751 116.266 29.4953C114.048 28.3073 111.65 27.4912 109.168 27.0797C107.12 26.7286 105.036 26.6286 102.964 26.7819C99.3901 27.0466 97.2557 27.8408 97.1399 27.543C97.0241 27.2451 97.5701 27.0797 98.5297 26.6661C99.8949 26.075 101.329 25.6581 102.798 25.4252C104.988 25.0717 107.217 25.0383 109.416 25.3259C112.096 25.7109 114.685 26.5739 117.06 27.8739C119.427 29.2629 121.514 31.0808 123.215 33.2345C124.604 34.9426 125.787 36.8085 126.739 38.7937C128.444 42.1855 128.741 44.5349 128.51 44.5846Z" fill="#3780EF"/>
<path d="M110.178 27.8242C109.801 27.8903 109.419 27.929 109.037 27.94C107.996 28.0349 106.963 28.1951 105.943 28.4198C102.563 29.1313 99.3876 30.5977 96.6543 32.7093C93.921 34.8209 91.7004 37.523 90.1585 40.6137C89.6818 41.5449 89.2673 42.5066 88.9176 43.4925C88.8128 43.8606 88.6801 44.2201 88.5205 44.568C88.5205 44.568 88.5205 44.4687 88.5205 44.2701C88.5205 44.0716 88.6198 43.7903 88.7356 43.4429C89.0292 42.4297 89.4112 41.4442 89.8772 40.4978C91.3739 37.3283 93.5991 34.5579 96.3711 32.4127C99.1431 30.2676 102.383 28.8086 105.827 28.1551C106.863 27.9511 107.915 27.8293 108.97 27.7911C109.351 27.7911 109.632 27.7911 109.831 27.7911C110.029 27.7911 110.178 27.8076 110.178 27.8242Z" fill="#455A64"/>
<path d="M115.208 30.175C114.49 30.6198 113.744 31.0177 112.975 31.3662C111.174 32.3089 109.429 33.3529 107.747 34.4933C106.068 35.643 104.455 36.8858 102.915 38.216C102.309 38.8054 101.668 39.3579 100.996 39.8705C101.116 39.6759 101.26 39.4979 101.426 39.341C101.724 39.0101 102.171 38.5634 102.733 38.0174C105.736 35.213 109.151 32.8861 112.859 31.1181C113.57 30.7871 114.15 30.539 114.514 30.3901C114.739 30.2997 114.971 30.2277 115.208 30.175Z" fill="#455A64"/>
<path d="M125.335 38.8439C125.375 39.0571 125.375 39.2759 125.335 39.4891C125.335 39.8862 125.17 40.4819 125.004 41.1437C124.141 44.8789 122.544 48.4052 120.305 51.5175C119.859 52.1132 119.495 52.5765 119.23 52.8743C118.965 53.1721 118.8 53.3541 118.783 53.3375C118.767 53.321 119.279 52.5764 120.074 51.3686C121.113 49.7857 122.031 48.1265 122.82 46.4051C123.597 44.6817 124.239 42.9005 124.739 41.0775C125.136 39.7208 125.335 38.8439 125.335 38.8439Z" fill="#455A64"/>
<path d="M119.758 61.7589C119.758 61.7589 120.552 60.8323 121.678 59.244C122.341 58.3188 122.943 57.3517 123.481 56.3485C124.122 55.1094 124.675 53.8267 125.136 52.5101C125.581 51.1916 125.929 49.8423 126.178 48.473C126.378 47.3519 126.505 46.2189 126.558 45.0812C126.641 43.1289 126.558 41.9211 126.558 41.9211C126.647 42.194 126.697 42.478 126.707 42.7649C126.785 43.5344 126.812 44.3081 126.79 45.0812C126.778 46.2342 126.678 47.3847 126.492 48.5226C126.26 49.9209 125.917 51.2986 125.466 52.6424C124.986 53.9749 124.405 55.2691 123.729 56.514C123.175 57.5259 122.545 58.4939 121.843 59.4094C121.379 60.0304 120.876 60.6217 120.337 61.1798C120.164 61.3913 119.97 61.5852 119.758 61.7589Z" fill="#455A64"/>
<path d="M59.3527 44.0724C59.3527 44.0724 59.6505 44.3868 60.1965 44.9162C60.974 45.6853 61.8962 46.2927 62.9099 46.7031C63.6446 47.0081 64.4371 47.1484 65.2318 47.1141C66.0264 47.0798 66.8039 46.8717 67.5095 46.5046C68.3175 46.03 68.9326 45.2861 69.2468 44.4033C69.4155 43.9452 69.4807 43.4555 69.4378 42.9692C69.3948 42.4829 69.2449 42.0121 68.9986 41.5906C68.872 41.3938 68.6982 41.2317 68.493 41.1191C68.2879 41.0064 68.0579 40.9467 67.8239 40.9454C67.6065 40.9527 67.3981 41.0336 67.2328 41.1749C67.0675 41.3162 66.955 41.5094 66.9139 41.723C66.7648 42.6335 66.9786 43.5661 67.5095 44.3206C67.9686 45.0523 68.6374 45.6288 69.4288 45.9751C70.1103 46.2539 70.861 46.3174 71.5797 46.1571C72.6315 45.9512 73.5692 45.3615 74.2104 44.5026C74.4415 44.1718 74.6357 43.8167 74.7895 43.4437C74.7895 43.4437 74.7895 43.5595 74.7895 43.7581C74.7046 44.0512 74.5763 44.3301 74.4089 44.5853C73.7908 45.5454 72.8238 46.2277 71.712 46.488C70.9362 46.678 70.1204 46.6201 69.3791 46.3226C68.5278 45.9958 67.7952 45.419 67.2779 44.6681C66.6895 43.8256 66.4521 42.7871 66.6161 41.7726C66.6961 41.4891 66.8503 41.2321 67.0628 41.0281C67.295 40.8327 67.5867 40.7218 67.8901 40.7137C68.1856 40.705 68.478 40.7756 68.737 40.9182C68.9959 41.0607 69.212 41.2701 69.3626 41.5245C69.6597 41.9897 69.8417 42.519 69.8934 43.0685C69.9452 43.6181 69.8654 44.1721 69.6604 44.6846C69.3181 45.6436 68.6429 46.4479 67.7577 46.9513C66.9978 47.3557 66.1555 47.5809 65.2951 47.6095C64.4348 47.6382 63.5793 47.4696 62.7942 47.1167C61.7663 46.6647 60.8426 46.0057 60.0807 45.181C59.8761 44.9592 59.6828 44.7273 59.5016 44.4861C59.3858 44.2544 59.3362 44.0724 59.3527 44.0724Z" fill="#263238"/>
<path d="M156.935 40.6642H156.505L155.264 40.8297C153.723 41.0183 152.16 40.9343 150.648 40.5815C149.601 40.297 148.633 39.7763 147.819 39.0593C147.335 38.6472 146.939 38.1417 146.655 37.5732C146.371 37.0047 146.204 36.3847 146.164 35.7503C146.116 35.0595 146.253 34.3683 146.561 33.7483C146.881 33.0894 147.403 32.5502 148.051 32.2096C148.716 31.8476 149.461 31.6579 150.218 31.6579C150.975 31.6579 151.72 31.8476 152.385 32.2096C152.752 32.3736 153.062 32.6434 153.275 32.9844C153.487 33.3254 153.593 33.7222 153.579 34.1238C153.565 34.5254 153.431 34.9137 153.195 35.2388C152.959 35.5639 152.631 35.8112 152.253 35.9488C151.583 36.2241 150.855 36.3265 150.135 36.2466C149.469 36.186 148.81 36.0642 148.166 35.8826C146.29 35.3697 144.6 34.3307 143.296 32.8883C141.991 31.4459 141.126 29.6603 140.804 27.7424C140.73 27.3268 140.686 26.9066 140.671 26.4849C140.647 26.3426 140.647 26.1971 140.671 26.0547C140.671 26.0547 140.671 26.6669 140.92 27.7093C141.332 29.9125 142.461 31.9179 144.13 33.4138C145.8 34.9097 147.917 35.8125 150.152 35.9819C150.805 36.0469 151.464 35.9503 152.071 35.7006C152.37 35.5761 152.631 35.3739 152.826 35.1151C153.02 34.8562 153.143 34.55 153.18 34.2281C153.173 33.8855 153.075 33.5509 152.894 33.2597C152.714 32.9685 152.458 32.7314 152.154 32.5736C151.547 32.2434 150.867 32.0704 150.177 32.0704C149.486 32.0704 148.806 32.2434 148.199 32.5736C147.645 32.8897 147.194 33.3593 146.901 33.9258C146.607 34.4924 146.484 35.1317 146.545 35.7668C146.574 36.3542 146.719 36.9301 146.972 37.4612C147.224 37.9923 147.58 38.4679 148.017 38.8608C148.791 39.556 149.714 40.0652 150.714 40.3498C152.189 40.7232 153.716 40.8463 155.231 40.7138L156.489 40.6146C156.639 40.6074 156.79 40.6241 156.935 40.6642Z" fill="#263238"/>
<path d="M83.1094 4.91034C82.9272 5.38901 82.7834 5.8814 82.6792 6.38287C82.5887 7.0636 82.6357 7.75559 82.8176 8.4178C82.9995 9.08001 83.3125 9.69895 83.7381 10.2379C84.4134 10.9916 85.2833 11.5447 86.2523 11.8365C87.2213 12.1284 88.2519 12.1477 89.2311 11.8924C89.8047 11.7858 90.3426 11.5379 90.7962 11.171C91.2498 10.8041 91.6047 10.3298 91.8288 9.79118C91.8982 9.51263 91.912 9.22311 91.8694 8.93921C91.8268 8.65531 91.7287 8.3826 91.5806 8.13666C91.4299 7.87914 91.2012 7.67623 90.9275 7.55726C90.6539 7.43829 90.3495 7.40943 90.0584 7.47486C89.765 7.56544 89.494 7.71688 89.263 7.91929C89.0321 8.12171 88.8465 8.37054 88.7182 8.64956C88.4764 9.20419 88.4469 9.82841 88.6355 10.4034C89.0643 11.5253 89.812 12.4973 90.7864 13.1995C92.4047 14.4826 94.357 15.275 96.4118 15.4828C97.7926 15.6359 99.19 15.5293 100.532 15.1684C101.475 14.9037 101.971 14.6555 101.988 14.7051L101.64 14.8871C101.298 15.0571 100.945 15.2009 100.581 15.3173C99.2236 15.7423 97.7953 15.8941 96.3787 15.764C94.271 15.5671 92.2627 14.7753 90.5879 13.4808C89.5504 12.7413 88.7558 11.7106 88.3046 10.5192C88.0721 9.85368 88.1077 9.12383 88.4039 8.48412C88.5538 8.14229 88.7815 7.84014 89.0687 7.60175C89.3559 7.36335 89.6948 7.19527 90.0584 7.11086C90.4271 7.02867 90.8122 7.0643 91.1595 7.21273C91.5068 7.36116 91.7988 7.61489 91.9942 7.93812C92.1803 8.23592 92.3016 8.56959 92.35 8.91739C92.3985 9.2652 92.3731 9.61932 92.2755 9.95665C92.067 10.5953 91.6542 11.1476 91.1008 11.5284C90.605 11.8891 90.0427 12.1478 89.4462 12.2895C88.4012 12.5479 87.3046 12.5082 86.281 12.1748C85.2574 11.8414 84.3478 11.2277 83.6554 10.4034C83.2178 9.83351 82.9036 9.17885 82.7326 8.48099C82.5617 7.78313 82.5379 7.05734 82.6627 6.34977C82.7392 5.97014 82.8672 5.60274 83.0432 5.25778C83.0581 5.1407 83.0802 5.02467 83.1094 4.91034Z" fill="#263238"/>
<path d="M119.08 73.1593C119.144 72.3458 119.407 71.5606 119.847 70.8732C120.286 70.1858 120.888 69.6173 121.6 69.2181C122.312 68.819 123.111 68.6014 123.927 68.5847C124.742 68.5679 125.55 68.7526 126.277 69.1223C127.932 70.115 129.222 72.1004 129.024 75.8727C128.461 85.9488 118.468 83.3181 118.468 83.0203C118.468 82.7224 118.815 77.3452 119.08 73.1593Z" fill="#FFBE9D"/>
<path d="M121.759 79.3801C121.759 79.3801 121.924 79.5125 122.222 79.6614C122.629 79.8622 123.097 79.8978 123.529 79.7607C124.2 79.381 124.759 78.8304 125.148 78.165C125.538 77.4995 125.744 76.7428 125.746 75.9718C125.814 75.1128 125.695 74.2494 125.399 73.4404C125.317 73.1206 125.16 72.8248 124.942 72.5774C124.723 72.33 124.449 72.1381 124.141 72.0175C123.942 71.9574 123.729 71.9673 123.536 72.0456C123.343 72.1238 123.183 72.2657 123.083 72.4476C122.934 72.7124 122.983 72.9275 122.934 72.944C122.884 72.9605 122.735 72.762 122.834 72.3484C122.902 72.1006 123.055 71.8842 123.265 71.7362C123.406 71.6401 123.565 71.573 123.733 71.539C123.9 71.5049 124.073 71.5044 124.241 71.5377C124.65 71.6402 125.027 71.8462 125.334 72.1359C125.641 72.4256 125.868 72.7893 125.994 73.1922C126.366 74.0921 126.52 75.0674 126.441 76.038C126.444 76.9367 126.18 77.8161 125.682 78.5644C125.184 79.3127 124.475 79.896 123.645 80.2405C123.361 80.314 123.064 80.3209 122.777 80.2606C122.49 80.2003 122.221 80.0745 121.991 79.893C121.759 79.6283 121.726 79.3966 121.759 79.3801Z" fill="#EB996E"/>
<path d="M154.122 216.689C153.857 209.922 155.446 149.532 155.446 149.532C155.446 149.532 152.501 120.082 142.491 116.59C138.95 115.35 131.306 114.936 122.901 114.936C122.901 113.116 122.636 111.097 121.528 110.336C119.327 108.864 85.2937 114.142 85.2937 114.142L85.1945 116.988C76.0119 118.824 55.9259 123.755 55.6281 131.762C55.231 142.153 65.7704 186.875 69.096 195.065C72.4216 203.255 71.0649 219.436 70.552 226.501C70.0391 233.565 76.7068 234.939 82.6134 236.974C88.5201 239.009 114.827 245.246 129.801 241.077C144.774 236.908 152.534 234.889 154.188 231.15C157.779 223.175 154.387 223.473 154.122 216.689Z" fill="#3780EF"/>
<path d="M0.45012 113.861C0.45012 113.861 -0.823828 109.675 6.17482 113.365C13.1735 117.054 23.266 125.707 23.266 125.707L28.8914 124.351C28.8914 124.351 35.9728 129.761 36.9986 132.623C38.0244 135.486 40.3076 147.315 39.6458 149.714C38.984 152.114 40.7378 157.309 40.7378 157.309L26.0622 164.423L24.5069 160.155C24.5069 160.155 11.0556 145.81 10.6916 144.221C10.3241 143.274 10.3477 142.219 10.7572 141.288C11.1666 140.357 11.9285 139.627 12.8756 139.258C12.8756 139.258 11.552 132.772 13.9014 130.869C13.9014 130.869 12.2469 126.783 12.9583 125.393L0.45012 113.861Z" fill="#FFBE9D"/>
<path d="M27.0382 146.554C26.9021 146.256 26.8182 145.937 26.79 145.611C26.6579 144.707 26.608 143.793 26.6411 142.881C26.7409 139.728 27.6712 136.657 29.338 133.979V134.476C28.1901 133.546 27.3864 132.259 27.0547 130.819V130.637L27.5842 130.918C25.3956 131.695 22.9896 131.582 20.8833 130.604C19.9803 130.202 19.1565 129.642 18.4512 128.95C18.2375 128.757 18.0778 128.512 17.9879 128.238C17.957 128.069 17.9803 127.895 18.0547 127.741C18.129 127.586 18.2504 127.459 18.4015 127.378C18.8001 127.222 19.2092 127.095 19.6259 126.997C21.197 126.494 22.8075 126.123 24.4405 125.889C22.9291 126.557 21.3694 127.11 19.7748 127.543C19.4139 127.647 19.0602 127.774 18.7159 127.924C18.6001 128.006 18.6001 128.04 18.6166 128.122C18.681 128.268 18.7771 128.398 18.8979 128.503C19.5719 129.126 20.3431 129.634 21.1811 130.008C23.1147 130.872 25.3058 130.96 27.3029 130.257L27.7331 130.091L27.8324 130.538V130.703C28.1234 131.994 28.826 133.155 29.8343 134.012L30.099 134.227L29.917 134.509C28.2902 137.077 27.3082 140 27.0547 143.03C26.9389 145.18 27.154 146.554 27.0382 146.554Z" fill="#EB996E"/>
<path d="M14.4806 144.32C14.4806 144.32 14.7288 144.32 15.1259 144.055C15.401 143.925 15.647 143.741 15.8489 143.513C16.0508 143.286 16.2044 143.02 16.3006 142.731L16.4164 142.4L16.6811 142.649C17.9866 143.936 19.4041 145.104 20.9168 146.14C21.8102 146.686 22.9187 147.612 23.746 147.116C23.9576 146.965 24.1307 146.767 24.2515 146.537C24.3722 146.307 24.437 146.052 24.4409 145.792C24.4088 145.183 24.2391 144.589 23.9445 144.055C23.1593 142.234 22.0365 140.578 20.6355 139.174C20.0444 138.65 19.3367 138.274 18.5712 138.079C17.8057 137.883 17.0046 137.873 16.2344 138.049C15.1726 138.336 14.1543 138.765 13.2067 139.323C12.8612 139.56 12.4819 139.745 12.0815 139.869C12.3536 139.547 12.6781 139.273 13.0412 139.058C13.9679 138.373 15.0024 137.847 16.1021 137.503C16.8977 137.271 17.7368 137.232 18.5507 137.387C19.4844 137.575 20.3552 137.996 21.0822 138.612C22.6246 140.045 23.8576 141.78 24.7056 143.707C25.0556 144.36 25.2483 145.085 25.2681 145.825C25.2588 146.213 25.1562 146.593 24.9691 146.933C24.7819 147.273 24.5156 147.562 24.1927 147.778C23.8607 147.944 23.4917 148.022 23.1208 148.005C22.75 147.987 22.3898 147.875 22.0749 147.678C21.5549 147.382 21.0522 147.056 20.5693 146.702C19.0437 145.61 17.6452 144.35 16.3999 142.946H16.7639C16.6321 143.275 16.4286 143.571 16.1681 143.811C15.9077 144.052 15.5968 144.231 15.2583 144.336C14.6792 144.402 14.4806 144.353 14.4806 144.32Z" fill="#EB996E"/>
<path d="M24.2419 143.625C24.2419 143.625 24.5894 143.625 25.0527 143.443C25.3668 143.29 25.6347 143.056 25.8294 142.765C26.0241 142.475 26.1385 142.138 26.1612 141.789C26.1291 140.661 25.7917 139.563 25.185 138.612C24.4951 137.375 23.6439 136.234 22.6536 135.221C21.6555 134.197 20.6004 133.23 19.4935 132.325C18.6518 131.555 17.6441 130.989 16.5484 130.671C15.5253 130.451 14.4569 130.622 13.5537 131.15C13.5537 131.15 13.686 130.819 14.1989 130.522C14.9505 130.109 15.8213 129.969 16.6642 130.125C17.8898 130.386 19.0287 130.956 19.9733 131.779C21.1454 132.668 22.2513 133.642 23.2823 134.691C24.3198 135.76 25.195 136.975 25.8799 138.298C26.5129 139.373 26.8231 140.608 26.7734 141.855C26.7358 142.298 26.568 142.719 26.2913 143.067C26.0145 143.414 25.6411 143.672 25.2181 143.807C24.5397 143.89 24.2254 143.659 24.2419 143.625Z" fill="#EB996E"/>
<path d="M20.2889 125.988C20.1897 125.988 19.8753 125.657 19.23 125.227C18.4249 124.654 17.4709 124.326 16.4835 124.284C15.4931 124.281 14.5227 124.563 13.6873 125.095C13.0255 125.509 12.6781 125.873 12.5954 125.806C12.5126 125.74 12.6946 125.244 13.3399 124.648C14.2124 123.887 15.3383 123.48 16.4959 123.508C17.6535 123.535 18.7587 123.995 19.594 124.797C20.2062 125.409 20.3717 125.939 20.2889 125.988Z" fill="#EB996E"/>
<path d="M64.5954 123.093C64.5954 123.093 52.8648 126.286 49.0263 145.297C46.2963 158.814 49.0263 194.287 49.0263 194.287C49.0263 194.287 35.8728 200.69 36.6174 200.905C37.3619 201.12 43.5498 236.395 58.6557 233.466C73.7615 230.538 75.9454 208.251 75.9454 208.251L64.5954 123.093Z" fill="#3780EF"/>
<path d="M75.1183 229.396C75.1183 229.396 74.9528 229.148 74.7212 228.619C74.3835 227.863 74.1014 227.083 73.8774 226.286C73.062 223.34 72.6064 220.307 72.5206 217.252C72.4743 212.763 72.1982 208.279 71.6934 203.817C71.3163 201.226 70.5405 198.709 69.3936 196.356C68.1196 193.973 66.1673 191.822 64.6948 189.208C63.3633 186.637 62.3839 183.9 61.7828 181.068C61.2669 178.434 60.9845 175.76 60.939 173.076C60.9899 168.558 61.2826 164.046 61.8159 159.559C62.1964 155.737 62.4446 152.643 62.4777 150.509C62.5108 148.374 62.4777 147.2 62.4777 147.2C62.5539 147.48 62.5928 147.769 62.5935 148.06C62.5935 148.622 62.7259 149.466 62.7093 150.542C62.7336 153.58 62.601 156.617 62.3122 159.642C61.8444 164.11 61.607 168.6 61.6008 173.093C61.6638 175.728 61.9572 178.352 62.4777 180.935C63.074 183.691 64.0308 186.355 65.3235 188.861C66.7298 191.375 68.6325 193.526 70.0058 196.025C71.1857 198.462 71.9784 201.069 72.3552 203.751C72.8268 208.241 73.0478 212.754 73.017 217.269C73.0565 220.289 73.4226 223.295 74.109 226.236C74.3007 227.036 74.5326 227.826 74.8039 228.602C74.9313 228.857 75.0365 229.123 75.1183 229.396Z" fill="#263238"/>
<path d="M12.6455 202.692C12.1491 202.792 9.0386 201.7 8.57533 204.347C8.11206 206.994 9.93204 207.06 13.1749 207.656C16.4178 208.251 29.9518 213.265 29.9518 213.265C29.9518 213.265 24.6739 215.134 24.9882 217.93C25.3026 220.727 26.345 220.528 28.7606 220.611L32.2682 220.76C32.2682 220.76 32.0531 226.799 34.7003 227.146C34.6781 227.733 34.7865 228.318 35.0176 228.858C35.2488 229.398 35.5969 229.88 36.0369 230.27C36.4769 230.659 36.9978 230.946 37.562 231.11C38.1263 231.273 38.7198 231.31 39.2999 231.216C44.0318 231.034 58.8398 227.461 58.8398 227.461L60.4944 209.261C60.4944 209.261 47.4567 204.165 45.0245 204.562C43.4783 204.855 42.0551 205.604 40.9378 206.713L12.6455 202.692Z" fill="#FFBE9D"/>
<path d="M60.5437 209.326L100.997 211.411L98.6143 234.045L58.8892 227.46L60.5437 209.326Z" fill="#FFBE9D"/>
<path d="M66.3827 206.563C65.7598 205.687 65.2066 204.763 64.7281 203.8C63.7189 202.146 62.2629 199.763 60.6415 197.182C58.5606 194.159 56.6334 191.034 54.8672 187.817C55.6645 188.55 56.3551 189.391 56.9188 190.316C58.11 191.97 59.6818 194.187 61.3033 196.752C62.7219 198.932 64.0252 201.185 65.208 203.502C65.7665 204.45 66.1635 205.485 66.3827 206.563Z" fill="#263238"/>
<path d="M122.025 199.299C121.627 199.443 121.208 199.521 120.784 199.531C119.649 199.679 118.503 199.729 117.359 199.68C109.686 199.443 102.365 196.406 96.7772 191.143C95.9384 190.357 95.1586 189.511 94.4443 188.611C93.9479 187.966 93.6998 187.602 93.7494 187.569C93.799 187.536 94.9903 188.859 97.1577 190.729C99.9683 193.168 103.152 195.14 106.589 196.569C110.031 197.991 113.678 198.857 117.393 199.134C120.238 199.333 122.025 199.151 122.025 199.299Z" fill="#263238"/>
<g opacity="0.2">
<path d="M112.348 198.721C109.645 197.773 107.041 196.565 104.572 195.114L95.207 189.968C95.7583 192.643 96.989 195.13 98.7807 197.191C100.572 199.251 102.864 200.816 105.436 201.733C108.008 202.651 110.773 202.891 113.464 202.43C116.155 201.969 118.683 200.823 120.803 199.101C118.008 199.804 115.068 199.671 112.348 198.721Z" fill="black"/>
<path d="M95.0254 189.853L95.2074 189.952C95.2074 189.836 95.2074 189.72 95.1247 189.604L95.0254 189.853Z" fill="black"/>
</g>
<g opacity="0.3">
<path d="M109.646 236.18C97.4022 235.386 85.0926 230.042 70.8306 229.479C81.0592 233.081 91.5312 235.951 102.167 238.066C109.674 239.691 117.385 240.16 125.033 239.456C132.627 238.529 140.188 236.279 145.532 230.786C137.938 237.835 121.873 236.925 109.646 236.18Z" fill="black"/>
</g>
<path d="M36.6841 200.971L26.062 164.422L40.688 157.324L55.5787 189.455C55.5787 189.455 48.0507 206.249 36.6841 200.971Z" fill="#FFBE9D"/>
<path d="M100.995 211.362C101.326 211.113 124.456 207.424 124.456 207.424L129.056 198.787C129.056 198.787 136.319 146.173 137.511 140.316C138.851 133.698 141.217 116.177 141.217 116.177C141.217 116.177 157.894 119.337 160.26 134.128C161.915 144.221 157.944 195.759 156.041 206.2C154.139 216.64 151.26 226.6 140.836 233.698C133.805 238.496 98.6128 233.996 98.6128 233.996L100.995 211.362Z" fill="#3780EF"/>
<path d="M156.769 201.104C156.788 201.235 156.788 201.369 156.769 201.501C156.769 201.815 156.67 202.196 156.587 202.692C156.422 203.718 156.157 205.257 155.777 207.209C155.396 209.161 154.9 211.593 154.122 214.356C153.399 217.542 152.328 220.638 150.929 223.589C149.187 227.212 146.572 230.344 143.318 232.705C139.386 235.198 134.836 236.544 130.181 236.593C127.749 236.742 125.217 236.726 122.703 236.676L114.893 236.544C109.344 236.491 103.81 235.971 98.3479 234.988H98.0005V234.641C98.381 231.018 98.7616 227.212 99.1752 223.34C99.5888 219.469 100.002 215.333 100.416 211.444V211.147H100.697L124.523 206.828L124.274 207.01C125.922 203.473 127.005 199.699 127.484 195.826C128.03 192.103 128.543 188.546 129.023 185.204C129.982 178.586 130.826 172.646 131.521 167.748C132.216 162.851 132.812 159.095 133.176 156.398L133.639 153.387L133.788 152.626C133.788 152.444 133.788 152.361 133.788 152.361C133.788 152.361 133.788 152.361 133.788 152.626C133.788 152.891 133.788 153.089 133.788 153.404C133.689 154.148 133.573 155.157 133.424 156.431C133.076 159.128 132.563 163.05 131.935 167.815C131.306 172.58 130.495 178.602 129.602 185.286C129.139 188.595 128.659 192.202 128.129 195.925C127.635 199.886 126.518 203.745 124.82 207.358V207.507H124.638L100.813 211.891L101.144 211.544C100.736 215.437 100.322 219.403 99.9032 223.44C99.5061 227.311 99.109 231.117 98.7285 234.74L98.4141 234.31C103.816 235.283 109.289 235.803 114.777 235.865L122.57 236.031C125.118 236.031 127.534 236.113 129.999 236.031C134.534 236.008 138.974 234.725 142.822 232.325C146.01 230.035 148.584 226.995 150.317 223.473C151.745 220.574 152.854 217.528 153.626 214.389C154.354 211.643 154.9 209.244 155.28 207.292C155.661 205.339 155.992 203.867 156.207 202.791C156.323 202.311 156.405 201.931 156.471 201.633C156.529 201.436 156.631 201.255 156.769 201.104Z" fill="#263238"/>
<path d="M144.906 122.282C143.14 124.638 141.531 127.109 140.091 129.677C138.891 132.367 137.864 135.13 137.014 137.95C137.088 134.927 137.9 131.967 139.38 129.33C140.631 126.572 142.526 124.155 144.906 122.282Z" fill="#263238"/>
<path d="M139.283 210.269C137.145 208.762 134.719 207.712 132.157 207.186C129.595 206.659 126.952 206.667 124.393 207.209C125.054 206.758 125.815 206.474 126.61 206.381C128.504 205.998 130.456 205.998 132.351 206.381C134.237 206.765 136.026 207.525 137.612 208.615C138.77 209.492 139.349 210.203 139.283 210.269Z" fill="#263238"/>
</svg>
