<svg width="236" height="454" viewBox="0 0 236 454" fill="none" xmlns="http://www.w3.org/2000/svg">
<path d="M206.641 406.011C200.017 379.259 195.668 377.793 179.738 343.81H167.905L54.2737 341.838L44.994 362.445C34.6777 390.258 27.6232 406.82 24.766 427.149C23.6431 436.017 23.5329 444.983 24.4374 453.876H211.547C214.252 440.019 209.524 417.566 206.641 406.011Z" fill="#263238"/>
<path d="M82.8716 33.7902C78.0583 37.734 74.2689 42.7822 71.8256 48.5052C69.3823 54.2282 68.3575 60.4566 68.8384 66.6607C69.3694 72.6785 71.0888 79.5308 67.2202 84.158C63.3515 88.7851 55.7913 88.684 52.0491 93.387C47.7254 98.9497 51.4676 107.091 49.9758 113.969C49.1754 117.178 47.2558 119.995 44.5626 121.914C41.8693 123.834 38.5794 124.728 35.2852 124.437C43.0743 130.657 52.4262 134.611 62.3149 135.866L69.7487 126.131C68.4935 127.961 67.8886 130.159 68.0307 132.373C68.1728 134.587 69.0538 136.69 70.5325 138.344C73.5826 141.598 77.5216 143.884 81.8601 144.918C92.0289 147.95 102.761 148.589 113.218 146.786C123.675 144.984 133.573 140.787 142.14 134.526" fill="#263238"/>
<path d="M196.452 85.827C194.526 81.3939 192.838 76.8614 191.395 72.2488C189.119 62.1348 193.923 50.5544 188.866 41.4265C185.276 34.9282 177.741 31.7928 170.636 29.6942C163.53 27.5955 155.894 25.8003 150.559 20.6422C146.64 16.8494 144.364 11.6154 140.445 7.82265C134.883 2.43694 126.741 0.666993 119.004 0.237148C111.024 -0.457508 103.001 0.927616 95.716 4.25746C92.1 5.94808 88.9321 8.46517 86.4681 11.6056C84.0041 14.746 82.3129 18.4218 81.5311 22.3362C80.9496 26.1796 81.5312 30.1999 80.2922 33.8915C79.0532 37.5831 75.842 41.1483 73.9203 44.9664C71.9448 49.0656 71.3943 53.707 72.3562 58.1547C73.3181 62.6023 75.7374 66.6015 79.2303 69.5181L134.503 139.456C146.008 143.679 173.72 138.167 182.545 129.621C191.369 121.074 200.371 97.3317 196.452 85.827Z" fill="#263238"/>
<path d="M80.5962 60.4411C82.6949 44.4104 94.6799 25.396 110.584 28.1521L154.884 43.7276C155.966 43.8898 157.005 44.2672 157.939 44.8375C158.873 45.4077 159.683 46.1593 160.322 47.0478C160.96 47.9364 161.414 48.9439 161.657 50.0108C161.9 51.0778 161.927 52.1827 161.736 53.2601L151.9 168.56L98.8015 178.219L99.1808 163.983C99.7118 154.248 100.268 145.373 100.243 145.449C100.217 145.525 80.0147 140.67 77.4862 113.565C76.1967 100.088 78.27 78.2417 80.5962 60.4411Z" fill="#FFBF9D"/>
<path d="M83.4271 86.08C83.3498 86.9779 83.6308 87.87 84.2087 88.5616C84.7866 89.2532 85.6146 89.6882 86.512 89.7717C86.9461 89.8356 87.3886 89.8119 87.8134 89.7021C88.2383 89.5923 88.6368 89.3986 88.9856 89.1323C89.3343 88.866 89.6264 88.5325 89.8442 88.1516C90.0621 87.7707 90.2014 87.3501 90.2541 86.9144C90.3247 86.0179 90.0414 85.1295 89.4647 84.4394C88.8881 83.7493 88.0642 83.3126 87.1694 83.2228C86.7353 83.1589 86.2927 83.1825 85.8678 83.2923C85.443 83.4021 85.0445 83.5959 84.6957 83.8622C84.3469 84.1285 84.0551 84.4619 83.8372 84.8428C83.6193 85.2237 83.4798 85.6444 83.4271 86.08Z" fill="#263238"/>
<path d="M118.194 87.9761C118.116 88.874 118.397 89.7661 118.975 90.4577C119.553 91.1493 120.381 91.5843 121.279 91.6678C121.713 91.7317 122.155 91.7081 122.58 91.5982C123.005 91.4884 123.403 91.2947 123.752 91.0284C124.101 90.7621 124.393 90.4286 124.611 90.0477C124.829 89.6668 124.968 89.2462 125.021 88.8106C125.091 87.9141 124.808 87.0256 124.231 86.3355C123.655 85.6455 122.831 85.2088 121.936 85.119C121.502 85.055 121.059 85.0786 120.634 85.1884C120.21 85.2982 119.811 85.492 119.462 85.7583C119.114 86.0246 118.822 86.358 118.604 86.7389C118.386 87.1198 118.246 87.5405 118.194 87.9761Z" fill="#263238"/>
<path d="M82.8966 73.7149C83.2759 74.347 86.4618 72.2989 90.4821 72.8299C94.5024 73.3609 97.0815 76.0916 97.5872 75.5859C98.0929 75.0802 97.5871 74.2711 96.3987 73.0574C94.9415 71.454 92.9602 70.423 90.8108 70.1497C88.6603 69.89 86.4865 70.391 84.6664 71.5656C83.2758 72.4759 82.7196 73.4367 82.8966 73.7149Z" fill="#263238"/>
<path d="M118.903 76.3455C119.383 76.9018 122.493 74.6008 126.792 74.7272C131.09 74.8536 134.2 77.2557 134.681 76.7247C135.161 76.1938 134.453 75.4605 133.113 74.3479C131.31 72.9012 129.078 72.0921 126.766 72.047C124.498 71.9765 122.271 72.6711 120.445 74.0192C119.181 75.0812 118.65 76.0673 118.903 76.3455Z" fill="#263238"/>
<path d="M105.652 101.832C103.743 101.083 101.746 100.582 99.71 100.34C98.7492 100.163 97.8896 99.9357 97.7632 99.2783C97.7423 98.2982 98.0247 97.3355 98.5722 96.5223L101.859 89.493C106.436 79.5055 109.799 71.2878 109.445 71.0855C109.091 70.8833 105.02 78.8733 100.443 88.7851C99.3309 91.3136 98.2942 93.5892 97.2828 95.8396C96.6063 96.9341 96.3459 98.2354 96.5494 99.5059C96.6604 99.8518 96.8509 100.167 97.1056 100.426C97.3603 100.685 97.672 100.881 98.016 100.998C98.5288 101.182 99.0651 101.293 99.609 101.326C101.595 101.74 103.625 101.91 105.652 101.832Z" fill="#263238"/>
<path d="M100.14 145.373C112.755 146.415 125.412 143.938 136.703 138.217C136.703 138.217 126.412 156.422 99.7358 152.124L100.14 145.373Z" fill="#FF9A6C"/>
<path d="M117.032 112.503C116.597 111.606 115.934 110.839 115.11 110.278C114.11 109.797 112.971 109.69 111.899 109.975C110.309 110.229 108.845 110.992 107.726 112.149C107.179 112.735 106.797 113.456 106.619 114.237C106.441 115.019 106.474 115.835 106.715 116.599C107.145 118.142 109.471 118.951 111.039 119.128C112.643 119.316 114.263 118.96 115.641 118.117C116.255 117.837 116.79 117.409 117.196 116.87C117.602 116.331 117.867 115.699 117.967 115.032C117.899 114.118 117.575 113.241 117.032 112.503Z" fill="#FF9A6C"/>
<path d="M116.223 107.445C115.616 107.445 115.338 111.364 111.722 113.994C108.106 116.623 103.833 115.89 103.757 116.522C103.682 117.154 104.668 117.382 106.463 117.533C108.816 117.718 111.16 117.074 113.088 115.713C114.041 115.049 114.849 114.197 115.462 113.21C116.075 112.224 116.48 111.122 116.653 109.973C116.88 108.33 116.501 107.293 116.223 107.445Z" fill="#263238"/>
<path d="M119.18 61.9326C119.483 62.9693 123.2 62.7417 127.499 63.5508C131.797 64.36 135.261 65.7759 135.893 64.9162C136.171 64.5116 135.615 63.5255 134.275 62.3877C132.474 61.0823 130.403 60.1999 128.214 59.8059C126.025 59.4119 123.775 59.5165 121.632 60.112C119.812 60.643 118.952 61.3763 119.18 61.9326Z" fill="#263238"/>
<path d="M85.0449 60.1625C85.7276 61.0475 88.7113 60.3648 92.2259 60.5671C95.7406 60.7694 98.6483 61.5785 99.4068 60.7441C99.7355 60.3143 99.4069 59.4546 98.0668 58.5696C96.3565 57.4549 94.3681 56.8417 92.327 56.7997C90.3034 56.682 88.2877 57.1377 86.5115 58.1145C85.222 58.8983 84.7415 59.7327 85.0449 60.1625Z" fill="#263238"/>
<path d="M170.685 47.9244C168.157 44.1317 163.707 42.21 159.459 40.6171C141.091 33.7311 121.967 29.0625 102.492 26.7103C100.115 30.7306 102.492 36.1163 106.082 38.9988C109.673 41.8813 114.477 42.9686 118.725 44.5615C122.973 46.1545 127.625 48.6071 129.446 52.9056C131.266 57.204 129.85 62.8932 131.57 67.5456C134.553 75.5357 145.78 78.0136 148.713 86.0543C150.913 92.0974 147.449 98.6968 146.639 105.018C146.219 108.274 146.497 111.581 147.456 114.721C148.415 117.86 150.033 120.759 152.201 123.223C154.369 125.688 157.037 127.662 160.029 129.014C163.02 130.365 166.265 131.063 169.548 131.062C170.66 108.002 171.764 84.9501 172.86 61.907C173.214 57.1029 173.34 51.8183 170.685 47.9244Z" fill="#263238"/>
<path d="M217.791 105.675C214.1 102.439 209.523 99.6572 208.031 95.03C205.857 88.2536 211.217 80.213 207.652 74.0435C204.39 68.4302 195.01 68.8095 191.9 63.0698C189.548 58.5943 192.178 54.574 191.242 50.6295C190.307 46.6851 184.668 43.2716 180.648 43.7773L149.522 89.7455C146.741 105.068 143.883 113.235 147.246 122.161C149.469 126.9 151.165 131.869 152.303 136.978C153.062 142.035 151.798 148.053 147.6 151.163C166.412 152.452 183.96 142.414 200.143 132.755L217.286 122.49C219.163 121.573 220.781 120.199 221.989 118.495C224.467 114.247 221.357 108.886 217.791 105.675Z" fill="#263238"/>
<path d="M200.548 128.079C199.899 128.289 199.229 128.425 198.55 128.483C196.589 128.704 194.604 128.584 192.684 128.129C189.617 127.423 186.785 125.934 184.466 123.805C181.405 120.916 179.463 117.039 178.98 112.857C178.681 110.443 178.862 107.995 179.511 105.651C180.336 103.164 181.493 100.8 182.949 98.6215C184.48 96.372 185.673 93.9099 186.489 91.3141C186.908 89.9886 187.027 88.5869 186.839 87.2097C186.651 85.8325 186.16 84.5141 185.402 83.3493C183.657 81.0736 180.345 80.5427 177.513 79.4048C175.907 78.8439 174.5 77.8241 173.467 76.4718C172.528 75.0034 172.061 73.2829 172.127 71.5412C172.507 68.215 173.193 64.931 174.175 61.7306C174.542 60.1503 174.542 58.5068 174.175 56.9264C173.752 55.3744 172.782 54.0276 171.445 53.1337C168.542 51.4515 165.242 50.5783 161.887 50.6052C158.47 50.5216 155.129 49.5735 152.177 47.8491C149.337 46.118 147.014 43.6553 145.452 40.7187C144.149 37.8669 143.296 34.8304 142.923 31.7173C142.575 28.8435 141.931 26.0134 141.001 23.2721C139.989 20.7693 138.454 18.511 136.501 16.6474C133.258 13.5581 129.115 11.5815 124.674 11.0042C120.232 10.4268 115.722 11.2787 111.797 13.4362C109.085 14.8493 106.652 16.7426 104.616 19.0242C102.896 21.0035 101.411 23.1757 100.191 25.4972C100.239 25.3248 100.298 25.1559 100.368 24.9915C100.52 24.6881 100.697 24.2076 101.001 23.6008C103.372 19.0673 107.032 15.337 111.519 12.88C115.162 10.8426 119.311 9.88653 123.479 10.1239C128.563 10.4787 133.376 12.5466 137.133 15.99C139.209 17.9304 140.832 20.3045 141.886 22.9433C142.874 25.7347 143.553 28.6261 143.909 31.5655C144.311 34.5672 145.163 37.4912 146.438 40.2384C147.903 43.0023 150.098 45.3111 152.784 46.9136C155.609 48.5181 158.791 49.3876 162.039 49.4421C165.576 49.3587 169.071 50.2323 172.153 51.9706C173.708 53.0072 174.839 54.5688 175.339 56.3701C175.743 58.117 175.743 59.9331 175.339 61.68C174.374 64.8147 173.697 68.0308 173.316 71.2884C173.241 72.8124 173.638 74.3224 174.454 75.6121C175.368 76.7865 176.608 77.6658 178.019 78.1406C179.435 78.7221 180.927 79.1267 182.393 79.7083C183.919 80.252 185.267 81.2055 186.287 82.4643C187.14 83.7491 187.694 85.2087 187.908 86.7359C188.123 88.263 187.992 89.8188 187.526 91.2887C186.679 93.9865 185.435 96.5431 183.834 98.8743C182.406 100.98 181.266 103.267 180.446 105.676C179.798 107.916 179.592 110.26 179.839 112.579C180.238 116.585 182.027 120.324 184.896 123.148C187.1 125.263 189.82 126.763 192.785 127.497C195.311 128.192 197.947 128.389 200.548 128.079Z" fill="#455A64"/>
<path d="M27.168 108.584C26.619 110.182 26.619 111.917 27.168 113.515C27.4898 114.422 28.0114 115.245 28.6942 115.923C29.3769 116.602 30.2034 117.118 31.1125 117.434C32.33 117.788 33.6223 117.793 34.8426 117.448C36.0628 117.104 37.1622 116.425 38.0154 115.487C38.9806 114.394 39.5349 112.999 39.5831 111.542C39.6352 109.916 39.3777 108.294 38.8244 106.764C37.7877 103.603 35.7143 100.164 35.9925 95.9921C36.115 93.8807 36.6779 91.8183 37.6446 89.9372C38.6112 88.0561 39.9605 86.3979 41.6058 85.069C43.3379 83.6653 45.3196 82.6016 47.4467 81.9337C49.6146 81.2878 51.8602 80.939 54.122 80.897C56.3051 80.8401 58.4793 80.5947 60.6202 80.1637C62.6329 79.7258 64.425 78.5879 65.6772 76.9525C66.785 75.2937 67.4067 73.3582 67.4724 71.3646C67.5432 69.4184 67.3562 67.4714 66.9162 65.5743C65.8499 61.9998 65.2465 58.3033 65.1209 54.5753C65.2774 51.2643 66.4223 48.0762 68.4079 45.4221C70.0783 43.2995 72.1379 41.5146 74.4764 40.1628C76.1816 39.1324 77.8123 37.9833 79.3564 36.724C80.6218 35.6158 81.6534 34.2662 82.3906 32.7543C82.3906 32.7543 82.3906 32.7543 82.3906 33.083C82.2987 33.3997 82.1714 33.705 82.0113 33.9933C81.4521 35.154 80.6703 36.1935 79.7104 37.0528C78.2055 38.3922 76.5899 39.6018 74.8809 40.6685C72.6517 42.0403 70.6899 43.8051 69.0906 45.8772C67.2519 48.4337 66.2135 51.4785 66.107 54.6258C66.2875 58.2711 66.9158 61.8802 67.9781 65.3719C68.4648 67.3561 68.669 69.3991 68.5849 71.4404C68.5209 73.6299 67.8466 75.7579 66.6379 77.5846C65.253 79.4272 63.2518 80.7105 60.9994 81.2004C58.798 81.687 56.5532 81.9496 54.299 81.9842C52.1248 82.037 49.9663 82.3685 47.8765 82.9704C45.8794 83.5944 44.0179 84.5894 42.3897 85.9034C40.8542 87.1294 39.5912 88.662 38.6813 90.4034C37.7714 92.1448 37.2345 94.0569 37.105 96.0175C36.8016 99.8355 38.7233 103.122 39.7852 106.46C40.3391 108.087 40.5961 109.8 40.5439 111.517C40.4529 113.165 39.7912 114.729 38.6727 115.942C37.7237 116.954 36.5089 117.678 35.1673 118.031C33.8257 118.385 32.4115 118.353 31.0872 117.94C30.1091 117.576 29.226 116.996 28.5036 116.242C27.7812 115.489 27.2382 114.583 26.9152 113.59C26.4955 112.352 26.4255 111.023 26.7129 109.747C26.8027 109.338 26.9563 108.946 27.168 108.584Z" fill="#263238"/>
<path d="M59.482 164.286C41.2009 167.472 24.5887 181.53 16.194 203.276C8.60853 222.973 -0.215979 241.608 0.668996 241.582L43.6535 263.833L46.7382 257.335L52.6044 328.967L34.4498 371.952C34.4498 371.952 75.3357 395.063 109.117 395.29C140.723 395.518 198.828 378.931 198.828 378.931L183.657 336.401L195.136 263.58L195.263 268.84L235.516 261.001C235.516 261.001 229.751 216.171 220.32 193.414C211.774 173.186 178.928 164.337 178.928 164.337L151.646 157.257C151.646 157.257 146.058 173.566 121.986 172.251C97.9152 170.936 99.8116 156.094 99.8116 156.094L59.482 164.286Z" fill="#D0DADF"/>
<path d="M202.621 210.355C202.595 210.531 202.595 210.71 202.621 210.886C202.621 211.291 202.621 211.771 202.444 212.403C202.267 213.769 202.039 215.665 201.761 217.966C201.154 222.669 200.269 229.167 199.233 236.323C198.196 243.479 197.261 249.926 196.553 254.68C196.224 256.981 195.946 258.852 195.744 260.217C195.744 260.849 195.617 261.355 195.541 261.734C195.519 261.911 195.519 262.089 195.541 262.265C195.541 262.265 195.541 262.088 195.541 261.76C195.541 261.431 195.718 260.875 195.819 260.243C196.072 258.902 196.376 257.006 196.78 254.73C197.539 250.027 198.55 243.554 199.587 236.399C200.624 229.243 201.433 222.72 201.938 218.017C202.191 215.665 202.368 213.743 202.469 212.429C202.469 211.796 202.469 211.291 202.469 210.886C202.469 210.482 202.621 210.355 202.621 210.355Z" fill="#263238"/>
<path d="M47.7251 208.586C47.7107 208.771 47.7107 208.957 47.7251 209.142C47.7251 209.572 47.725 210.103 47.5481 210.785C47.5481 212.176 47.27 214.224 47.1183 216.753C46.8148 221.81 46.5873 228.814 46.6631 236.551C46.739 244.288 47.1688 251.292 47.5987 256.324C47.801 258.852 48.0032 260.9 48.1549 262.316L48.3572 263.935C48.3334 264.119 48.3334 264.306 48.3572 264.491C48.3739 264.297 48.3739 264.103 48.3572 263.909C48.3572 263.505 48.3572 262.948 48.3572 262.291C48.3572 260.824 48.1044 258.802 47.9274 256.298C47.5987 251.241 47.2447 244.263 47.1436 236.551C47.0424 228.839 47.1436 221.835 47.4723 216.778C47.4723 214.249 47.6998 212.252 47.7504 210.785C47.7504 210.128 47.7504 209.572 47.7504 209.167C47.7751 208.973 47.7665 208.777 47.7251 208.586Z" fill="#263238"/>
<path d="M233.671 261.481L195.744 268.687L197.084 302.316L159.637 347.501L167.804 369.777C175.389 364.416 217.514 335.718 232.078 320.825C238.349 314.453 233.671 261.481 233.671 261.481Z" fill="#FFBF9D"/>
<path d="M219.259 305.174C219.259 305.174 218.146 304.188 216.224 302.949C215.13 302.234 213.959 301.64 212.735 301.179C211.282 300.649 209.771 300.292 208.234 300.117C206.716 299.982 205.186 300.042 203.683 300.294C202.427 300.518 201.198 300.874 200.017 301.356C197.994 302.191 196.831 303.051 196.78 302.949C197.031 302.715 197.301 302.503 197.589 302.317C197.9 302.072 198.23 301.852 198.576 301.66C198.98 301.458 199.41 301.179 199.941 300.952C201.122 300.417 202.361 300.018 203.633 299.763C205.166 299.48 206.731 299.403 208.285 299.536C209.853 299.717 211.391 300.1 212.862 300.674C214.107 301.168 215.288 301.813 216.376 302.595C216.816 302.891 217.238 303.212 217.64 303.556C217.994 303.834 218.298 304.138 218.551 304.365C218.817 304.606 219.055 304.878 219.259 305.174Z" fill="#FF9A6C"/>
<path d="M160.218 346.288C160.218 346.288 156.4 340.599 152.632 339.183C148.865 337.767 143.403 337.59 142.518 336.654C141.633 335.719 139.99 332.887 137.992 334.126C135.995 335.365 131.873 341.484 139.231 345.934L144.693 347.754C143.545 350.282 142.028 352.626 140.192 354.708C138.144 356.427 111.848 373.621 111.848 373.621C111.848 373.621 108.763 375.189 109.142 377.869C109.521 380.549 114.958 380.903 114.958 380.903C115.666 382.117 116.671 383.132 117.878 383.853C119.085 384.574 120.455 384.977 121.86 385.024C124.049 385.006 126.229 384.743 128.359 384.241C129.319 385.649 130.714 386.703 132.331 387.242C133.948 387.781 135.697 387.775 137.31 387.224C143.1 385.277 169.143 368.614 169.143 368.614L166.615 347.501L160.218 346.288Z" fill="#FFBF9D"/>
<path d="M134.099 372.433C131.516 374.809 128.515 376.686 125.249 377.97C122.087 379.572 118.66 380.583 115.135 380.954C115.135 380.676 119.56 379.437 124.743 377.085C129.926 374.734 133.947 372.205 134.099 372.433Z" fill="#FF9A6C"/>
<path d="M141.381 378.172C137.704 382.284 132.55 384.775 127.044 385.1C127.044 384.822 130.533 384.114 134.478 382.192C138.422 380.271 141.178 377.995 141.381 378.172Z" fill="#FF9A6C"/>
</svg>
