<svg width="218" height="747" viewBox="0 0 218 747" fill="none" xmlns="http://www.w3.org/2000/svg">
<path d="M152.375 686.085L151.535 665.047L114.886 663.669L115.425 689.401L128.775 697.454L152.375 686.085Z" fill="#FFBE9D"/>
<path d="M114.629 684.62V687.031C114.629 687.031 73.9317 703.827 73.5657 711.579L154.702 710.395L153.195 683.414C147.23 686.372 140.698 688.011 134.043 688.219C127.388 688.428 120.767 687.2 114.629 684.62Z" fill="#3780EF"/>
<g opacity="0.6">
<path d="M145.118 692.157C145.901 692.383 146.574 692.891 147.007 693.582C147.44 694.273 147.603 695.1 147.465 695.904C147.275 696.697 146.786 697.386 146.1 697.827C145.414 698.268 144.584 698.428 143.783 698.272C142.949 698.035 142.233 697.495 141.775 696.759C141.317 696.022 141.15 695.142 141.307 694.289C141.6 693.482 142.194 692.82 142.965 692.442C143.736 692.065 144.624 692.001 145.441 692.264" fill="white"/>
</g>
<g opacity="0.6">
<path d="M154.724 710.394L154.358 703.934L76.7105 707.423C76.7105 707.423 73.1145 709.059 73.5667 711.578L154.724 710.394Z" fill="white"/>
</g>
<path d="M114.371 687.269C114.371 687.656 116.373 687.807 118.333 689.056C120.292 690.305 121.369 691.941 121.735 691.79C122.101 691.64 121.477 689.336 119.065 687.871C116.653 686.407 114.285 686.902 114.371 687.269Z" fill="#263238"/>
<path d="M105.907 690.907C105.907 691.295 107.543 691.941 108.921 693.599C110.299 695.257 110.709 697.023 111.075 697.001C111.441 696.98 111.699 694.719 109.955 692.695C108.211 690.671 105.907 690.627 105.907 690.907Z" fill="#263238"/>
<path d="M101.234 701.157C101.579 701.157 102.117 699.262 101.062 697.109C100.007 694.956 98.1552 694.116 97.983 694.439C97.8107 694.762 98.9735 695.925 99.8133 697.69C100.653 699.456 100.825 701.136 101.234 701.157Z" fill="#263238"/>
<path d="M202.462 641.059L201.902 704.022L172.876 701.933L166.502 640.607L202.462 641.059Z" fill="#FFBE9D"/>
<path d="M171.885 689.572C171.885 689.572 192.277 703.741 202.204 691.532L204.766 697.475L216.308 739.701C216.687 741.039 216.561 742.469 215.954 743.72C215.346 744.971 214.3 745.955 213.013 746.484C212.016 746.863 210.933 746.959 209.884 746.761C208.835 746.563 207.862 746.08 207.07 745.364C198.672 737.547 167.966 708.758 168.311 704.796L168.44 694.417C168.46 693.353 168.801 692.321 169.42 691.456C170.04 690.591 170.907 689.934 171.907 689.572H171.885Z" fill="#3780EF"/>
<g opacity="0.6">
<path d="M212.021 746.764L168.266 701.178V703.547C168.226 704.488 168.399 705.426 168.772 706.291C169.145 707.156 169.708 707.925 170.419 708.543C173.972 713.215 183.77 723.616 207.025 745.472C207.705 746.098 208.525 746.553 209.417 746.796C210.309 747.04 211.246 747.066 212.15 746.871L212.021 746.764Z" fill="white"/>
</g>
<g opacity="0.6">
<path d="M174.704 694.439C175.37 694.909 175.836 695.612 176.011 696.409C176.187 697.205 176.058 698.039 175.651 698.745C175.174 699.404 174.472 699.864 173.678 700.039C172.884 700.213 172.054 700.09 171.344 699.693C170.978 699.464 170.663 699.162 170.418 698.805C170.174 698.449 170.006 698.046 169.924 697.621C169.842 697.197 169.849 696.76 169.944 696.338C170.038 695.917 170.219 695.519 170.474 695.17C170.729 694.822 171.054 694.529 171.427 694.311C171.8 694.094 172.215 693.955 172.644 693.905C173.073 693.854 173.508 693.893 173.922 694.018C174.336 694.143 174.719 694.353 175.048 694.633" fill="white"/>
</g>
<path d="M199.446 723.444C200.76 721.753 202.391 720.334 204.247 719.266C206.26 718.488 208.399 718.087 210.557 718.082C210.557 717.953 209.911 717.544 208.619 717.371C206.936 717.182 205.233 717.473 203.709 718.211C202.186 718.926 200.906 720.071 200.027 721.506C199.446 722.604 199.295 723.401 199.446 723.444Z" fill="#263238"/>
<path d="M203.344 730.592C204.914 729.712 206.54 728.935 208.211 728.267C209.977 727.942 211.76 727.719 213.551 727.599C212.698 727.09 211.74 726.785 210.751 726.707C209.761 726.628 208.767 726.779 207.845 727.147C204.636 728.073 203.064 730.442 203.344 730.592Z" fill="#263238"/>
<path d="M192.125 714.314C194.463 712.774 196.91 711.406 199.446 710.222C202.102 709.401 204.815 708.782 207.564 708.371C204.694 707.596 201.643 707.863 198.951 709.124C196.13 709.986 193.71 711.826 192.125 714.314Z" fill="#263238"/>
<path d="M191.176 701.394C191.327 701.717 194.363 700.49 198.303 700.339C202.244 700.189 205.366 701.114 205.495 700.77C203.262 699.615 200.765 699.065 198.253 699.175C195.74 699.284 193.301 700.05 191.176 701.394Z" fill="#263238"/>
<path d="M200.544 700.253C200.598 699.571 200.495 698.886 200.242 698.25C199.71 696.456 198.824 694.787 197.637 693.341C196.853 692.191 195.709 691.335 194.385 690.907C193.937 690.78 193.46 690.802 193.025 690.969C192.59 691.135 192.221 691.439 191.974 691.833C191.524 692.591 191.378 693.491 191.565 694.353C192.044 696.12 193.122 697.665 194.614 698.726C196.107 699.786 197.921 700.295 199.747 700.167C201.55 700.036 203.274 699.376 204.703 698.269C206.132 697.162 207.202 695.657 207.779 693.944C207.919 693.515 207.96 693.06 207.9 692.612C207.841 692.165 207.682 691.737 207.434 691.36C207.14 691.001 206.743 690.741 206.296 690.614C205.85 690.488 205.376 690.5 204.937 690.649C203.675 691.181 202.571 692.026 201.728 693.104C200.492 694.502 199.508 696.105 198.821 697.841C198.527 698.454 198.366 699.121 198.347 699.801C199.371 697.563 200.729 695.493 202.374 693.664C203.122 692.715 204.101 691.974 205.216 691.51C205.453 691.425 205.71 691.415 205.952 691.48C206.195 691.545 206.412 691.684 206.573 691.876C206.712 692.139 206.796 692.428 206.818 692.724C206.84 693.021 206.801 693.319 206.702 693.599C206.159 695.061 205.21 696.338 203.967 697.28C202.723 698.222 201.237 698.79 199.683 698.918C198.139 699.012 196.609 698.585 195.336 697.707C194.064 696.829 193.122 695.549 192.663 694.073C192.511 693.48 192.58 692.853 192.857 692.307C192.994 692.088 193.197 691.918 193.437 691.822C193.677 691.725 193.941 691.706 194.192 691.769C195.3 692.137 196.269 692.836 196.969 693.771C198.551 695.692 199.763 697.89 200.544 700.253Z" fill="#263238"/>
<path d="M95.4201 302.108L94.9034 309.063L78.5167 339.64C78.5167 339.64 71.2601 385.484 76.3635 415.738C81.7036 447.736 88.3573 518.278 88.8957 533.803C89.434 549.328 110.084 674.564 110.084 674.564L154.937 673.337C154.937 673.337 146.324 532.963 145.441 514.682C144.558 496.4 144.752 417.374 144.752 417.374L144.644 312.509L92.4486 300.343" fill="#263238"/>
<path d="M162.173 672.302L144.709 409.945L135.235 311.991L193.374 295.519L195.678 307.599C195.678 307.599 217.921 359.773 217.491 375.212C216.242 418.472 213.012 527.192 213.012 527.192L205.798 670.601L162.173 672.302Z" fill="#263238"/>
<path d="M140.811 320.541C140.927 320.85 140.985 321.179 140.983 321.509C140.983 322.263 141.156 323.168 141.285 324.266C141.5 326.677 141.78 330.166 142.038 334.472C142.577 343.086 143.029 354.993 143.46 368.15C143.89 381.307 144.299 393.085 144.601 401.849C144.773 406.048 144.924 409.493 145.032 412.056C145.032 413.154 145.032 414.08 145.032 414.833C145.068 415.155 145.068 415.48 145.032 415.802C144.917 415.5 144.858 415.179 144.859 414.855C144.859 414.101 144.687 413.175 144.558 412.077C144.342 409.687 144.063 406.199 143.804 401.892C143.266 393.279 142.814 381.35 142.383 368.193C141.952 355.036 141.543 343.279 141.242 334.494C141.069 330.316 140.919 326.871 140.811 324.287C140.811 323.189 140.811 322.263 140.811 321.509C140.775 321.188 140.775 320.862 140.811 320.541Z" fill="#455A64"/>
<path d="M207.888 343.107C207.414 343.393 206.898 343.604 206.359 343.731C205.747 343.944 205.121 344.117 204.486 344.248C203.656 344.457 202.815 344.615 201.967 344.722C199.749 345.038 197.504 345.118 195.27 344.959C192.53 344.748 189.822 344.235 187.195 343.43C184.58 342.592 182.067 341.465 179.701 340.071C177.778 338.912 175.981 337.555 174.34 336.023C173.706 335.451 173.109 334.84 172.553 334.192C172.1 333.729 171.682 333.232 171.304 332.706C170.679 331.845 170.356 331.35 170.421 331.307C170.485 331.264 171.993 333.051 174.835 335.484C176.498 336.899 178.285 338.16 180.175 339.252C182.505 340.558 184.957 341.633 187.496 342.461C190.05 343.242 192.676 343.762 195.334 344.011C197.484 344.201 199.645 344.201 201.794 344.011C205.584 343.645 207.824 342.913 207.888 343.107Z" fill="#455A64"/>
<path d="M100.955 325.364C100.592 326.724 99.9867 328.008 99.1676 329.154C95.5289 334.982 90.0505 339.43 83.5993 341.794C82.3102 342.35 80.9318 342.671 79.5295 342.741C83.9052 341.08 88.0288 338.819 91.7818 336.023C95.3292 332.923 98.4179 329.334 100.955 325.364Z" fill="#455A64"/>
<path d="M131.23 550.512C129.441 549.987 127.715 549.264 126.084 548.359C122.983 546.851 118.784 544.591 114.306 541.899C110.475 539.549 106.766 537.005 103.195 534.276C101.639 533.221 100.196 532.009 98.8879 530.659C100.53 531.546 102.1 532.561 103.582 533.695C106.403 535.633 110.344 538.281 114.801 541.038C119.258 543.794 123.414 546.119 126.386 547.777C128.064 548.571 129.684 549.485 131.23 550.512Z" fill="#455A64"/>
<path d="M155.111 55.4048L116.223 44.9183C103.734 43.3895 95.1849 58.6563 94.1944 71.21C93.0747 85.1203 92.2995 102.174 93.7853 112.596C96.7784 133.57 112.756 136.498 112.756 136.498C112.756 136.498 112.756 136.498 112.756 148.492C112.756 159.667 113.122 167.29 125.783 170.455C138.337 170.908 155.585 164.555 155.929 152.82L161.55 62.9629C161.612 61.1271 160.987 59.3341 159.796 57.9357C158.604 56.5374 156.934 55.6347 155.111 55.4048Z" fill="#FFBE9D"/>
<path d="M101.536 87.1019C101.518 87.7993 101.774 88.4759 102.249 88.987C102.724 89.4981 103.38 89.803 104.077 89.8366C104.417 89.869 104.76 89.8331 105.086 89.7309C105.412 89.6288 105.714 89.4625 105.975 89.2418C106.236 89.0211 106.45 88.7505 106.605 88.4459C106.759 88.1412 106.852 87.8087 106.876 87.4679C106.894 86.7683 106.639 86.0893 106.164 85.5747C105.69 85.0602 105.034 84.7507 104.335 84.7117C103.994 84.6823 103.65 84.721 103.324 84.8256C102.998 84.9302 102.696 85.0986 102.435 85.321C102.175 85.5434 101.961 85.8154 101.807 86.1211C101.652 86.4268 101.56 86.7602 101.536 87.1019Z" fill="#263238"/>
<path d="M97.7238 80.9214C98.0683 81.2659 100.114 79.8017 102.999 79.8663C105.885 79.9309 107.974 81.3951 108.297 81.0291C108.62 80.663 108.124 80.2539 107.22 79.5648C105.965 78.6639 104.458 78.1816 102.913 78.1867C101.415 78.1626 99.9475 78.6067 98.7143 79.4572C97.8745 80.1247 97.5731 80.7707 97.7238 80.9214Z" fill="#263238"/>
<path d="M128.257 87.1019C128.245 87.8014 128.506 88.478 128.984 88.9884C129.463 89.4989 130.121 89.8031 130.82 89.8366C131.16 89.8691 131.503 89.8331 131.829 89.731C132.155 89.6289 132.457 89.4626 132.718 89.2419C132.979 89.0212 133.193 88.7506 133.348 88.4459C133.502 88.1413 133.595 87.8088 133.619 87.468C133.631 86.7699 133.374 86.0938 132.901 85.5805C132.428 85.0671 131.775 84.756 131.078 84.7118C130.736 84.6823 130.391 84.7208 130.063 84.8252C129.736 84.9295 129.432 85.0976 129.17 85.3198C128.908 85.542 128.692 85.8138 128.536 86.1196C128.379 86.4255 128.284 86.7593 128.257 87.1019Z" fill="#263238"/>
<path d="M126.364 81.244C126.687 81.6101 128.754 80.1243 131.64 80.1889C134.525 80.2535 136.614 81.7177 136.937 81.3732C137.26 81.0287 136.764 80.5765 135.86 79.8874C134.603 78.9904 133.098 78.5086 131.553 78.5093C130.051 78.4781 128.579 78.9311 127.355 79.8013C126.515 80.5119 126.235 81.244 126.364 81.244Z" fill="#263238"/>
<path d="M115.294 102.411C113.785 101.895 112.213 101.583 110.621 101.485C109.889 101.485 109.179 101.249 109.071 100.732C109.021 99.9783 109.201 99.2273 109.588 98.5785C110.32 96.8128 111.073 94.9394 111.87 93.0015C113.96 88.2775 115.674 83.3959 116.995 78.4021C114.516 82.9381 112.413 87.6697 110.707 92.5493C109.932 94.5088 109.222 96.3821 108.554 98.1694C108.069 99.0482 107.916 100.072 108.123 101.055C108.222 101.317 108.381 101.553 108.586 101.743C108.792 101.934 109.039 102.074 109.308 102.153C109.714 102.273 110.134 102.338 110.557 102.347C112.128 102.551 113.718 102.573 115.294 102.411Z" fill="#263238"/>
<path d="M112.754 136.541C122.606 136.839 132.347 134.402 140.898 129.5C140.898 129.5 133.598 144.164 112.69 141.86L112.754 136.541Z" fill="#EB996E"/>
<path d="M115.66 109.431C116.264 108.451 117.081 107.619 118.05 106.996C119.019 106.374 120.115 105.977 121.258 105.835C121.921 105.782 122.583 105.931 123.16 106.261C123.736 106.592 124.199 107.089 124.488 107.687C124.789 108.472 124.897 109.318 124.804 110.154C124.71 110.989 124.417 111.79 123.95 112.489C123.515 113.224 122.878 113.819 122.114 114.201C121.35 114.583 120.492 114.736 119.643 114.642C118.236 114.205 116.986 113.367 116.047 112.231C115.727 111.943 115.483 111.581 115.337 111.176C115.264 110.921 115.249 110.653 115.294 110.392C115.339 110.132 115.442 109.884 115.595 109.668" fill="#EB996E"/>
<path d="M123.756 104.543C123.282 104.543 123.239 107.644 120.505 109.819C117.77 111.994 114.475 111.606 114.432 111.972C114.389 112.338 115.164 112.596 116.586 112.661C118.417 112.713 120.209 112.119 121.646 110.981C123.031 109.887 123.935 108.296 124.165 106.546C124.316 105.297 124.079 104.522 123.756 104.543Z" fill="#263238"/>
<path d="M124.942 71.2752C125.287 72.0289 128.129 71.4044 131.531 71.5336C134.934 71.6628 137.754 72.3303 138.142 71.5336C138.314 71.1891 137.776 70.4785 136.613 69.811C135.071 69.001 133.359 68.5658 131.618 68.5405C129.872 68.4694 128.135 68.8241 126.557 69.5741C125.351 70.2416 124.792 70.9091 124.942 71.2752Z" fill="#263238"/>
<path d="M98.2409 73.8159C98.8653 74.4834 101.342 73.8159 104.313 73.8159C107.285 73.8159 109.804 74.3112 110.385 73.6436C110.644 73.3206 110.256 72.6531 109.158 72.0071C107.644 71.2218 105.954 70.8363 104.249 70.8874C102.546 70.8756 100.869 71.306 99.3821 72.1363C98.2409 72.8254 97.8748 73.4929 98.2409 73.8159Z" fill="#263238"/>
<path d="M168.978 126.248C168.857 126.264 168.734 126.264 168.612 126.248C168.268 126.171 167.93 126.071 167.6 125.947C166.374 125.533 165.246 124.873 164.284 124.009C163.552 123.355 162.989 122.533 162.644 121.615C162.299 120.696 162.182 119.707 162.303 118.733C162.377 118.142 162.582 117.574 162.902 117.072C163.222 116.569 163.65 116.143 164.155 115.826C164.451 115.662 164.785 115.576 165.124 115.576C165.463 115.576 165.796 115.662 166.093 115.826C166.418 115.987 166.678 116.254 166.831 116.583C166.983 116.912 167.019 117.283 166.932 117.635C166.878 117.813 166.786 117.978 166.664 118.119C166.542 118.26 166.391 118.374 166.222 118.453C165.924 118.613 165.591 118.694 165.253 118.69C164.621 118.71 163.993 118.577 163.423 118.303C162.364 117.858 161.405 117.207 160.602 116.386C159.306 115.116 158.483 113.443 158.268 111.642C158.052 109.841 158.458 108.02 159.417 106.481L159.633 106.179C159.633 106.179 159.417 106.632 159.094 107.471C158.674 108.658 158.513 109.921 158.621 111.175C158.765 112.638 159.307 114.033 160.187 115.21C161.068 116.386 162.254 117.299 163.616 117.85C164.123 118.081 164.674 118.199 165.231 118.195C165.484 118.218 165.738 118.162 165.958 118.035C166.178 117.907 166.353 117.715 166.459 117.484C166.504 117.242 166.47 116.991 166.361 116.77C166.253 116.549 166.075 116.369 165.856 116.257C165.631 116.136 165.379 116.073 165.124 116.073C164.868 116.073 164.617 116.136 164.392 116.257C163.953 116.538 163.579 116.911 163.297 117.349C163.015 117.788 162.83 118.282 162.755 118.798C162.626 119.766 162.744 120.752 163.1 121.662C163.411 122.475 163.896 123.209 164.521 123.815C165.44 124.681 166.514 125.368 167.686 125.839C168.504 126.054 168.978 126.205 168.978 126.248Z" fill="#263238"/>
<path d="M119.494 32.7307C118.267 31.8634 117.381 30.5955 116.988 29.1453C116.595 27.6951 116.72 26.1532 117.341 24.7851C116.48 23.5361 117.535 21.7058 118.978 21.2106C120.466 20.8704 122.022 20.9983 123.435 21.5766C123.069 20.866 124.124 20.2847 124.921 20.1555L130.455 19.3587C129.185 19.0167 128.011 18.3887 127.022 17.5228C126.033 16.6569 125.255 15.576 124.748 14.3631C123.758 11.9114 123.518 9.22095 124.059 6.63279C124.084 6.25627 124.184 5.8886 124.354 5.55187C124.525 5.21513 124.761 4.91628 125.05 4.67328C126.696 6.57757 127.981 8.76687 128.84 11.1332C129.6 11.1787 130.342 11.3844 131.018 11.737C131.693 12.0895 132.286 12.5809 132.759 13.1788C132.855 12.9755 132.995 12.7959 133.168 12.6528C133.342 12.5098 133.545 12.4068 133.763 12.3513C133.981 12.2958 134.209 12.289 134.43 12.3316C134.651 12.3741 134.859 12.4649 135.041 12.5974C136.247 9.34592 138.529 5.92219 141.975 5.57766C140.92 4.04882 142.901 2.24003 144.58 1.42178C145.779 0.7552 147.095 0.323989 148.456 0.151341C149.136 0.0660787 149.826 0.174434 150.447 0.46394C151.068 0.753446 151.594 1.21236 151.966 1.78787C152.123 2.08557 152.213 2.4144 152.228 2.7508C152.244 3.0872 152.184 3.42279 152.055 3.73358C151.925 4.04436 151.728 4.32261 151.478 4.54836C151.228 4.77411 150.932 4.94178 150.609 5.03933C151.298 5.53635 151.799 6.25008 152.034 7.06613C152.268 7.88218 152.221 8.75327 151.901 9.53972C152.455 8.90354 153.206 8.47246 154.034 8.31617C154.863 8.15987 155.72 8.28751 156.466 8.67841C158.869 7.65766 161.503 7.30789 164.089 7.66636C164.757 7.71116 165.398 7.94244 165.941 8.33388C166.329 8.6784 166.565 9.15214 166.975 9.4536C167.589 9.83328 168.298 10.0345 169.02 10.035C170.684 10.1364 172.277 10.7451 173.585 11.7792C174.228 12.307 174.688 13.0236 174.9 13.8274C175.113 14.6313 175.067 15.4816 174.769 16.258C178.581 17.5285 182.414 13.2003 186.354 14.1047C187.474 14.471 188.494 15.0911 189.334 15.9165C190.175 16.742 190.813 17.7506 191.199 18.8635C189.232 19.6169 187.115 19.8973 185.019 19.6818C184.875 20.2508 184.544 20.7551 184.08 21.1141C183.615 21.4732 183.044 21.6664 182.457 21.6628C182.6 21.8694 182.691 22.1078 182.722 22.3575C182.753 22.6071 182.722 22.8605 182.633 23.0958C182.544 23.3311 182.399 23.5411 182.211 23.7079C182.023 23.8746 181.797 23.9931 181.552 24.0529C183.973 23.4458 186.514 23.5203 188.895 24.2683C192.556 25.1942 196.561 27.1752 197.379 30.8574C197.605 32.1829 197.605 33.537 197.379 34.8625C197.121 36.8435 196.066 39.4275 194.106 39.0399C192.9 38.803 192.297 37.4895 191.651 36.4344C190.241 34.0839 187.957 32.3881 185.299 31.7187C184.352 32.6231 186.074 33.872 186.828 34.884C187.582 35.8961 187.237 37.3819 187.409 38.6523C187.969 40.5343 188.811 42.3204 189.907 43.9494C191.694 47.8038 190.661 52.3042 189.606 56.4385C189.326 57.5367 188.034 58.9148 187.345 57.9889C188.042 58.1725 188.653 58.5932 189.074 59.1788C189.494 59.7643 189.698 60.4781 189.649 61.1973C189.508 62.6282 189.036 64.0066 188.271 65.224C187.991 65.7623 187.625 66.3652 187.022 66.4944C186.419 66.6236 185.471 65.8054 185.019 65.0302L181.337 58.8072C181.617 60.2353 181.565 61.7086 181.186 63.1137C180.967 64.4847 180.395 65.7752 179.527 66.8586C178.659 67.942 177.524 68.7811 176.234 69.2937C174.351 69.6553 172.404 69.4838 170.614 68.7984" fill="#263238"/>
<path d="M159.804 98.3414C158.986 97.9969 155.691 99.2888 155.175 98.5783C152.483 95.0038 151.148 84.8402 150.523 80.4044C149.899 75.9686 152.677 71.0807 152.375 66.6234C152.383 63.0085 151.253 59.483 149.145 56.5459C147.682 54.9484 145.848 53.7356 143.805 53.0145C140.679 51.8545 137.322 51.4565 134.012 51.8535C130.701 52.2504 127.533 53.4309 124.77 55.297C122.509 56.8474 120.356 58.9361 117.621 59.1514C114.886 59.3667 112.453 57.6656 110.149 56.2444C107.845 54.8233 104.96 53.5313 102.462 54.651C101.496 55.1228 100.643 55.7987 99.964 56.6321C97.2172 60.8167 95.3626 65.5227 94.5162 70.4562C93.6361 65.3934 94.1344 60.1871 95.9589 55.3831C98.6356 49.7308 102.702 44.8498 107.779 41.1969C112.855 37.5439 118.775 35.2384 124.985 34.4961C149.77 30.814 161.161 44.7243 165.424 54.6295C167.255 58.9361 168.676 69.961 167.19 78.4665C165.891 85.4674 163.392 92.1912 159.804 98.3414Z" fill="#263238"/>
<path d="M166.974 57.9882C166.608 58.0959 165.639 55.2966 163.227 51.2915C161.857 48.9429 160.286 46.7168 158.533 44.6378C156.402 42.1406 153.869 40.0157 151.04 38.3502C148.153 36.804 145.033 35.7419 141.802 35.2063C139.136 34.7494 136.425 34.6192 133.727 34.8188C129.076 35.1633 126.298 36.1968 126.148 35.8093C125.997 35.4217 126.708 35.2063 127.956 34.668C129.733 33.8988 131.6 33.3562 133.512 33.053C136.362 32.5931 139.263 32.5496 142.125 32.9238C145.613 33.4249 148.983 34.5481 152.073 36.2399C155.154 38.0477 157.87 40.4136 160.084 43.2166C161.892 45.4395 163.431 47.868 164.67 50.4517C166.888 54.8659 167.276 57.9236 166.974 57.9882Z" fill="#3780EF"/>
<path d="M143.116 36.1753C142.625 36.2613 142.129 36.3116 141.631 36.326C140.277 36.4495 138.932 36.658 137.604 36.9504C133.205 37.8765 129.073 39.785 125.515 42.5331C121.958 45.2812 119.068 48.7979 117.061 52.8203C116.441 54.0322 115.902 55.2838 115.446 56.567C115.31 57.046 115.137 57.5139 114.93 57.9666C114.93 57.9666 114.93 57.8374 114.93 57.579C114.93 57.3206 115.059 56.9546 115.21 56.5024C115.592 55.1837 116.089 53.9012 116.695 52.6695C118.643 48.5445 121.539 44.9389 125.147 42.1471C128.755 39.3553 132.971 37.4565 137.453 36.6059C138.802 36.3404 140.17 36.182 141.544 36.1322C142.04 36.1322 142.406 36.1322 142.664 36.1322C142.923 36.1322 143.116 36.1537 143.116 36.1753Z" fill="#455A64"/>
<path d="M149.664 39.2341C148.729 39.8131 147.758 40.3309 146.757 40.7845C144.413 42.0113 142.142 43.3701 139.952 44.8542C137.767 46.3505 135.668 47.968 133.665 49.6992C132.876 50.4662 132.042 51.1853 131.167 51.8525C131.322 51.5992 131.51 51.3675 131.727 51.1634C132.114 50.7327 132.696 50.1513 133.428 49.4407C137.335 45.7909 141.779 42.7625 146.606 40.4615C147.532 40.0308 148.285 39.7078 148.759 39.514C149.053 39.3964 149.355 39.3028 149.664 39.2341Z" fill="#455A64"/>
<path d="M162.842 50.5168C162.893 50.7944 162.893 51.0791 162.842 51.3566C162.842 51.8734 162.626 52.6486 162.411 53.5099C161.287 58.3711 159.209 62.9605 156.295 67.0111C155.714 67.7863 155.24 68.3892 154.896 68.7768C154.551 69.1644 154.336 69.4013 154.314 69.3797C154.293 69.3582 154.96 68.3892 155.994 66.8173C157.347 64.7572 158.542 62.5978 159.569 60.3574C160.58 58.1146 161.415 55.7964 162.066 53.4238C162.583 51.6581 162.842 50.5168 162.842 50.5168Z" fill="#455A64"/>
<path d="M155.583 80.3399C155.583 80.3399 156.617 79.134 158.081 77.0669C158.944 75.8628 159.728 74.6041 160.428 73.2986C161.262 71.6859 161.982 70.0166 162.581 68.303C163.161 66.587 163.615 64.831 163.938 63.0489C164.199 61.5898 164.364 60.1153 164.433 58.6347C164.541 56.0938 164.433 54.5219 164.433 54.5219C164.549 54.877 164.614 55.2467 164.627 55.6201C164.728 56.6216 164.764 57.6285 164.735 58.6347C164.719 60.1352 164.589 61.6325 164.347 63.1135C164.045 64.9333 163.599 66.7262 163.012 68.4752C162.386 70.2093 161.631 71.8937 160.751 73.5139C160.03 74.8309 159.21 76.0907 158.296 77.2822C157.692 78.0904 157.038 78.8599 156.337 79.5862C156.111 79.8615 155.858 80.1139 155.583 80.3399Z" fill="#455A64"/>
<path d="M76.9679 57.321C76.9679 57.321 77.3555 57.7301 78.0661 58.4192C79.078 59.4201 80.2782 60.2106 81.5975 60.7447C82.5536 61.1416 83.585 61.3242 84.6192 61.2796C85.6535 61.2349 86.6653 60.9641 87.5836 60.4863C88.6352 59.8687 89.4357 58.9005 89.8446 57.7516C90.0642 57.1554 90.149 56.518 90.0932 55.8851C90.0373 55.2523 89.8422 54.6396 89.5217 54.091C89.3568 53.8349 89.1306 53.624 88.8637 53.4773C88.5967 53.3307 88.2974 53.253 87.9928 53.2513C87.7099 53.2608 87.4387 53.3661 87.2235 53.55C87.0084 53.7339 86.862 53.9854 86.8085 54.2633C86.6144 55.4482 86.8927 56.662 87.5836 57.644C88.1812 58.5962 89.0516 59.3466 90.0815 59.7973C90.9685 60.1601 91.9454 60.2428 92.8808 60.0341C94.2497 59.7661 95.4701 58.9986 96.3045 57.8808C96.6053 57.4504 96.8581 56.9882 97.0582 56.5027C97.0582 56.5027 97.0582 56.6535 97.0582 56.9119C96.9477 57.2934 96.7808 57.6563 96.5629 57.9885C95.7585 59.238 94.4999 60.1259 93.053 60.4648C92.0433 60.7121 90.9816 60.6367 90.0169 60.2495C88.9088 59.8242 87.9555 59.0735 87.2822 58.0962C86.5164 56.9997 86.2075 55.6482 86.4209 54.3279C86.525 53.9589 86.7257 53.6244 87.0023 53.3589C87.3045 53.1046 87.6841 52.9603 88.0789 52.9498C88.4635 52.9384 88.8441 53.0303 89.1811 53.2158C89.5182 53.4014 89.7993 53.6739 89.9954 54.0049C90.382 54.6104 90.6188 55.2992 90.6862 56.0145C90.7536 56.7297 90.6497 57.4507 90.383 58.1177C89.9374 59.3658 89.0587 60.4126 87.9067 61.0677C86.9177 61.5941 85.8214 61.8871 84.7017 61.9244C83.582 61.9617 82.4686 61.7423 81.4468 61.283C80.1091 60.6947 78.9069 59.8371 77.9154 58.7637C77.6491 58.4751 77.3975 58.1733 77.1617 57.8593C77.011 57.5578 76.9464 57.321 76.9679 57.321Z" fill="#263238"/>
<path d="M203.968 52.8853H203.408L201.793 53.1006C199.787 53.3462 197.753 53.2369 195.785 52.7776C194.423 52.4074 193.163 51.7297 192.103 50.7966C191.473 50.2602 190.958 49.6024 190.588 48.8625C190.218 48.1226 190.001 47.3157 189.95 46.49C189.887 45.591 190.066 44.6915 190.467 43.8845C190.882 43.027 191.561 42.3252 192.405 41.882C193.27 41.4108 194.24 41.164 195.226 41.164C196.211 41.164 197.181 41.4108 198.046 41.882C198.524 42.0954 198.927 42.4465 199.203 42.8903C199.48 43.3342 199.618 43.8505 199.6 44.3732C199.581 44.8959 199.407 45.4012 199.1 45.8244C198.792 46.2475 198.365 46.5693 197.874 46.7484C197.002 47.1067 196.055 47.24 195.118 47.136C194.251 47.0572 193.393 46.8986 192.555 46.6623C190.114 45.9947 187.914 44.6425 186.216 42.7653C184.519 40.888 183.393 38.5642 182.973 36.0681C182.878 35.5273 182.82 34.9804 182.801 34.4315C182.769 34.2463 182.769 34.0569 182.801 33.8717C182.801 33.8717 182.801 34.6684 183.124 36.025C183.661 38.8925 185.13 41.5023 187.303 43.4492C189.476 45.396 192.23 46.571 195.139 46.7915C195.989 46.876 196.847 46.7503 197.637 46.4254C198.027 46.2633 198.365 46.0003 198.619 45.6633C198.873 45.3264 199.032 44.9279 199.08 44.509C199.072 44.0631 198.944 43.6277 198.709 43.2487C198.474 42.8697 198.141 42.5611 197.745 42.3557C196.955 41.926 196.071 41.7009 195.172 41.7009C194.273 41.7009 193.388 41.926 192.599 42.3557C191.877 42.7671 191.29 43.3782 190.908 44.1156C190.526 44.8529 190.365 45.685 190.445 46.5115C190.483 47.2761 190.671 48.0256 191 48.7167C191.329 49.4079 191.792 50.027 192.362 50.5382C193.369 51.443 194.569 52.1058 195.872 52.4762C197.791 52.9621 199.778 53.1223 201.75 52.9499L203.386 52.8207C203.582 52.8113 203.779 52.8331 203.968 52.8853Z" fill="#263238"/>
<path d="M107.887 6.35327C107.65 6.97624 107.463 7.61706 107.327 8.2697C107.209 9.15566 107.27 10.0562 107.507 10.9181C107.744 11.7799 108.151 12.5855 108.705 13.2869C109.584 14.2677 110.716 14.9876 111.977 15.3674C113.238 15.7472 114.58 15.7724 115.854 15.4402C116.601 15.3015 117.301 14.9787 117.891 14.5012C118.481 14.0237 118.943 13.4065 119.235 12.7055C119.325 12.343 119.343 11.9662 119.288 11.5967C119.232 11.2272 119.105 10.8723 118.912 10.5522C118.716 10.217 118.418 9.95297 118.062 9.79813C117.706 9.6433 117.31 9.60574 116.931 9.69089C116.549 9.80878 116.196 10.0059 115.896 10.2693C115.595 10.5327 115.354 10.8566 115.187 11.2197C114.872 11.9415 114.834 12.7539 115.079 13.5022C115.637 14.9624 116.61 16.2274 117.878 17.1413C119.984 18.8112 122.525 19.8424 125.199 20.1128C126.997 20.3121 128.815 20.1734 130.561 19.7037C131.789 19.3592 132.435 19.0362 132.456 19.1008L132.004 19.3376C131.559 19.5588 131.099 19.746 130.626 19.8975C128.859 20.4506 127 20.6482 125.156 20.4789C122.413 20.2226 119.8 19.1921 117.62 17.5073C116.27 16.545 115.235 15.2035 114.648 13.6529C114.346 12.7868 114.392 11.837 114.777 11.0044C114.973 10.5595 115.269 10.1663 115.643 9.85603C116.017 9.54576 116.458 9.32701 116.931 9.21716C117.411 9.11019 117.912 9.15657 118.364 9.34974C118.816 9.54291 119.196 9.87313 119.45 10.2938C119.692 10.6814 119.85 11.1156 119.913 11.5683C119.976 12.0209 119.943 12.4818 119.816 12.9208C119.545 13.752 119.008 14.4708 118.287 14.9665C117.642 15.4359 116.91 15.7725 116.134 15.957C114.774 16.2933 113.347 16.2415 112.015 15.8076C110.683 15.3737 109.499 14.575 108.598 13.5022C108.028 12.7606 107.619 11.9086 107.397 11.0003C107.174 10.0921 107.143 9.1475 107.306 8.22663C107.405 7.73256 107.572 7.25441 107.801 6.80545C107.82 6.65307 107.849 6.50207 107.887 6.35327Z" fill="#263238"/>
<path d="M154.701 95.1767C154.784 94.118 155.127 93.0962 155.699 92.2015C156.271 91.3068 157.055 90.567 157.981 90.0475C158.907 89.528 159.947 89.2448 161.009 89.223C162.071 89.2013 163.121 89.4416 164.068 89.9227C166.221 91.2147 167.901 93.7986 167.643 98.7081C166.91 111.822 153.905 108.398 153.905 108.01C153.905 107.623 154.357 100.625 154.701 95.1767Z" fill="#FFBE9D"/>
<path d="M158.187 103.273C158.187 103.273 158.403 103.445 158.79 103.639C159.319 103.9 159.929 103.947 160.492 103.768C161.365 103.274 162.092 102.557 162.599 101.691C163.105 100.825 163.374 99.8405 163.377 98.837C163.465 97.7191 163.311 96.5954 162.925 95.5425C162.818 95.1263 162.614 94.7414 162.33 94.4194C162.045 94.0975 161.688 93.8477 161.288 93.6906C161.029 93.6124 160.751 93.6253 160.5 93.7272C160.25 93.8291 160.041 94.0138 159.91 94.2505C159.716 94.595 159.781 94.875 159.716 94.8965C159.652 94.918 159.458 94.6596 159.587 94.1213C159.676 93.7989 159.874 93.5173 160.147 93.3246C160.331 93.1995 160.538 93.1122 160.756 93.0679C160.974 93.0235 161.199 93.0229 161.417 93.0662C161.95 93.1996 162.44 93.4677 162.84 93.8448C163.24 94.2218 163.536 94.6952 163.7 95.2195C164.184 96.3907 164.383 97.66 164.281 98.9232C164.285 100.093 163.941 101.237 163.293 102.211C162.645 103.185 161.723 103.944 160.642 104.393C160.273 104.488 159.886 104.497 159.513 104.419C159.139 104.34 158.789 104.177 158.489 103.94C158.188 103.596 158.144 103.294 158.187 103.273Z" fill="#EB996E"/>
<path d="M200.307 281.975C199.962 273.168 202.029 194.572 202.029 194.572C202.029 194.572 198.196 156.244 185.169 151.7C180.561 150.085 170.613 149.547 159.674 149.547C159.674 147.178 159.329 144.551 157.887 143.561C155.023 141.644 110.729 148.513 110.729 148.513L110.6 152.217C98.6495 154.607 72.5085 161.024 72.1209 171.446C71.6041 184.969 85.3206 243.172 89.6488 253.831C93.9769 264.49 92.2112 285.549 91.5437 294.744C90.8762 303.938 99.5539 305.726 107.241 308.374C114.928 311.023 149.166 319.141 168.653 313.714C188.141 308.288 198.24 305.661 200.393 300.795C205.065 290.416 200.651 290.803 200.307 281.975Z" fill="#3780EF"/>
<path d="M0.309507 148.148C0.309507 148.148 -1.34848 142.7 7.75996 147.502C16.8684 152.304 30.0035 163.565 30.0035 163.565L37.3247 161.8C37.3247 161.8 46.5408 168.841 47.8758 172.566C49.2109 176.291 52.1824 191.687 51.3211 194.81C50.4598 197.932 52.7423 204.693 52.7423 204.693L33.6426 213.952L31.6185 208.397C31.6185 208.397 14.1121 189.728 13.6384 187.661C13.1601 186.427 13.1908 185.054 13.7237 183.843C14.2566 182.632 15.2481 181.682 16.4808 181.201C16.4808 181.201 14.7581 172.76 17.8158 170.284C17.8158 170.284 15.6625 164.965 16.5884 163.156L0.309507 148.148Z" fill="#FFBE9D"/>
<path d="M34.9121 190.697C34.735 190.309 34.6257 189.894 34.5891 189.47C34.4171 188.294 34.3522 187.104 34.3953 185.917C34.5252 181.813 35.7359 177.817 37.9052 174.332V174.978C36.4113 173.768 35.3653 172.093 34.9336 170.219V169.982L35.6227 170.348C32.7743 171.359 29.643 171.212 26.9018 169.939C25.7265 169.416 24.6544 168.687 23.7364 167.786C23.4584 167.535 23.2505 167.216 23.1335 166.86C23.0933 166.64 23.1237 166.414 23.2204 166.212C23.3171 166.011 23.4752 165.846 23.6718 165.74C24.1906 165.538 24.723 165.372 25.2653 165.245C27.31 164.59 29.406 164.107 31.5314 163.802C29.5642 164.672 27.5344 165.391 25.4591 165.956C24.9894 166.09 24.529 166.256 24.081 166.451C23.9302 166.558 23.9303 166.602 23.9518 166.709C24.0355 166.899 24.1606 167.069 24.3179 167.204C25.195 168.015 26.1987 168.677 27.2894 169.164C29.8059 170.287 32.6574 170.403 35.2566 169.487L35.8165 169.272L35.9457 169.853V170.068C36.3245 171.748 37.2389 173.26 38.5511 174.375L38.8957 174.655L38.6588 175.021C36.5415 178.363 35.2635 182.168 34.9336 186.11C34.7829 188.91 35.0628 190.697 34.9121 190.697Z" fill="#EB996E"/>
<path d="M18.5688 187.789C18.5688 187.789 18.8919 187.789 19.4087 187.445C19.7667 187.276 20.0868 187.036 20.3495 186.74C20.6123 186.444 20.8123 186.098 20.9375 185.722L21.0882 185.291L21.4327 185.614C23.1317 187.289 24.9765 188.81 26.9452 190.158C28.108 190.868 29.5507 192.074 30.6273 191.428C30.9027 191.232 31.1281 190.974 31.2852 190.675C31.4423 190.376 31.5267 190.044 31.5317 189.706C31.4899 188.913 31.2691 188.14 30.8857 187.445C29.8638 185.075 28.4025 182.919 26.5791 181.092C25.8098 180.41 24.8888 179.921 23.8925 179.667C22.8963 179.412 21.8537 179.399 20.8513 179.628C19.4695 180.002 18.1441 180.56 16.9108 181.286C16.4612 181.595 15.9676 181.835 15.4465 181.997C15.8006 181.578 16.2229 181.221 16.6955 180.942C17.9015 180.05 19.2479 179.366 20.6791 178.918C21.7146 178.616 22.8066 178.565 23.8659 178.767C25.081 179.012 26.2144 179.56 27.1605 180.36C29.1679 182.227 30.7726 184.484 31.8762 186.993C32.3318 187.842 32.5825 188.786 32.6083 189.749C32.5962 190.254 32.4627 190.748 32.2191 191.19C31.9755 191.633 31.6289 192.01 31.2087 192.29C30.7767 192.506 30.2963 192.608 29.8137 192.585C29.3311 192.562 28.8624 192.416 28.4525 192.16C27.7758 191.774 27.1215 191.35 26.493 190.89C24.5075 189.468 22.6874 187.829 21.0667 186.002H21.5404C21.3689 186.43 21.104 186.815 20.765 187.128C20.4261 187.441 20.0215 187.674 19.5809 187.811C18.8272 187.897 18.5688 187.832 18.5688 187.789Z" fill="#EB996E"/>
<path d="M31.2743 186.886C31.2743 186.886 31.7265 186.886 32.3295 186.649C32.7383 186.449 33.087 186.144 33.3403 185.766C33.5937 185.388 33.7426 184.95 33.7721 184.495C33.7303 183.028 33.2913 181.599 32.5017 180.361C31.6038 178.75 30.496 177.266 29.2071 175.947C27.9081 174.614 26.535 173.356 25.0943 172.179C23.999 171.176 22.6875 170.439 21.2615 170.025C19.9299 169.739 18.5394 169.962 17.364 170.65C17.364 170.65 17.5362 170.219 18.2038 169.831C19.1818 169.295 20.3151 169.112 21.4122 169.315C23.0073 169.655 24.4894 170.396 25.7188 171.468C27.2443 172.625 28.6836 173.892 30.0254 175.258C31.3757 176.649 32.5147 178.23 33.4061 179.952C34.2299 181.352 34.6335 182.959 34.5688 184.582C34.5199 185.158 34.3016 185.706 33.9414 186.158C33.5812 186.611 33.0952 186.946 32.5447 187.122C31.6619 187.23 31.2528 186.929 31.2743 186.886Z" fill="#EB996E"/>
<path d="M26.1292 163.932C26 163.932 25.5909 163.501 24.7511 162.942C23.7033 162.195 22.4617 161.769 21.1766 161.714C19.8877 161.711 18.6247 162.077 17.5375 162.769C16.6762 163.308 16.224 163.781 16.1164 163.695C16.0087 163.609 16.2456 162.963 17.0854 162.188C18.2209 161.197 19.6863 160.668 21.1928 160.703C22.6993 160.739 24.1378 161.338 25.2248 162.382C26.0216 163.178 26.2369 163.867 26.1292 163.932Z" fill="#EB996E"/>
<path d="M83.7922 160.163C83.7922 160.163 68.5253 164.318 63.5297 189.06C59.9768 206.652 63.5297 252.819 63.5297 252.819C63.5297 252.819 46.411 261.152 47.38 261.432C48.349 261.712 56.4023 307.62 76.0619 303.809C95.7215 299.998 98.5638 270.993 98.5638 270.993L83.7922 160.163Z" fill="#3780EF"/>
<path d="M97.487 298.513C97.487 298.513 97.2717 298.19 96.9702 297.501C96.5307 296.517 96.1636 295.502 95.872 294.464C94.8108 290.631 94.2179 286.683 94.1063 282.707C94.0459 276.865 93.6866 271.029 93.0296 265.223C92.5388 261.851 91.5292 258.575 90.0366 255.511C88.3785 252.411 85.8377 249.611 83.9212 246.209C82.1884 242.864 80.9137 239.3 80.1314 235.615C79.46 232.187 79.0925 228.707 79.0332 225.214C79.0995 219.334 79.4805 213.462 80.1744 207.622C80.6697 202.648 80.9928 198.621 81.0358 195.843C81.0789 193.066 81.0358 191.537 81.0358 191.537C81.135 191.902 81.1856 192.278 81.1865 192.657C81.1865 193.389 81.3588 194.487 81.3372 195.887C81.3688 199.841 81.1963 203.793 80.8205 207.73C80.2116 213.545 79.9026 219.388 79.8946 225.236C79.9765 228.665 80.3584 232.08 81.0358 235.443C81.8118 239.028 83.0571 242.496 84.7395 245.757C86.5698 249.03 89.0461 251.829 90.8333 255.081C92.3689 258.253 93.4005 261.646 93.891 265.137C94.5048 270.98 94.7923 276.853 94.7523 282.729C94.8036 286.659 95.2801 290.572 96.1735 294.4C96.4229 295.441 96.7247 296.469 97.0778 297.479C97.2437 297.811 97.3805 298.157 97.487 298.513Z" fill="#263238"/>
<path d="M16.1801 263.758C15.5342 263.887 11.4859 262.466 10.883 265.911C10.2801 269.357 12.6487 269.443 16.8692 270.218C21.0896 270.993 38.7036 277.518 38.7036 277.518C38.7036 277.518 31.8346 279.951 32.2437 283.59C32.6529 287.229 34.0094 286.971 37.1532 287.078L41.7182 287.272C41.7182 287.272 41.4383 295.132 44.8836 295.584C44.8547 296.348 44.9958 297.109 45.2966 297.812C45.5974 298.515 46.0504 299.142 46.6231 299.649C47.1957 300.156 47.8736 300.529 48.608 300.742C49.3424 300.955 50.1148 301.003 50.8697 300.881C57.0282 300.644 76.3002 295.993 76.3002 295.993L78.4535 272.307C78.4535 272.307 61.4855 265.675 58.3201 266.191C56.3078 266.573 54.4556 267.548 53.0015 268.991L16.1801 263.758Z" fill="#FFBE9D"/>
<path d="M78.5178 272.393L131.166 275.106L128.065 304.563L76.3645 295.993L78.5178 272.393Z" fill="#FFBE9D"/>
<path d="M86.1173 268.796C85.3067 267.656 84.5867 266.453 83.964 265.2C82.6505 263.047 80.7556 259.946 78.6454 256.587C75.9372 252.653 73.429 248.586 71.1304 244.399C72.168 245.353 73.0668 246.447 73.8004 247.651C75.3508 249.804 77.3964 252.69 79.5067 256.027C81.3529 258.865 83.0492 261.797 84.5885 264.813C85.3154 266.047 85.832 267.393 86.1173 268.796Z" fill="#263238"/>
<path d="M158.534 259.343C158.015 259.529 157.47 259.631 156.919 259.644C155.442 259.837 153.95 259.902 152.462 259.838C142.476 259.529 132.948 255.577 125.675 248.727C124.583 247.705 123.568 246.604 122.639 245.433C121.993 244.593 121.67 244.119 121.734 244.076C121.799 244.033 123.349 245.756 126.17 248.189C129.828 251.363 133.972 253.93 138.444 255.79C142.924 257.641 147.671 258.767 152.505 259.128C156.208 259.386 158.534 259.149 158.534 259.343Z" fill="#263238"/>
<g opacity="0.2">
<path d="M145.939 258.59C142.421 257.357 139.032 255.784 135.818 253.895L123.631 247.199C124.348 250.679 125.95 253.916 128.282 256.598C130.613 259.28 133.596 261.316 136.943 262.51C140.29 263.705 143.889 264.017 147.391 263.417C150.894 262.817 154.183 261.325 156.942 259.085C153.305 259.999 149.479 259.826 145.939 258.59Z" fill="black"/>
<path d="M123.395 247.048L123.632 247.177C123.632 247.026 123.632 246.875 123.524 246.725L123.395 247.048Z" fill="black"/>
</g>
<g opacity="0.3">
<path d="M142.426 307.341C126.491 306.307 110.471 299.352 91.9092 298.62C105.221 303.308 118.85 307.043 132.693 309.796C142.462 311.911 152.497 312.521 162.451 311.604C172.335 310.399 182.175 307.47 189.131 300.321C179.247 309.494 158.338 308.31 142.426 307.341Z" fill="black"/>
</g>
<path d="M47.4658 261.518L33.6416 213.952L52.6767 204.714L72.0564 246.531C72.0564 246.531 62.2589 268.387 47.4658 261.518Z" fill="#FFBE9D"/>
<path d="M131.165 275.041C131.596 274.718 161.699 269.916 161.699 269.916L167.685 258.676C167.685 258.676 177.138 190.201 178.688 182.579C180.432 173.966 183.512 151.162 183.512 151.162C183.512 151.162 205.217 155.275 208.296 174.525C210.449 187.661 205.281 254.736 202.805 268.323C200.329 281.91 196.582 294.873 183.016 304.111C173.865 310.355 128.064 304.498 128.064 304.498L131.165 275.041Z" fill="#3780EF"/>
<path d="M203.752 261.691C203.776 261.862 203.776 262.036 203.752 262.208C203.752 262.617 203.623 263.112 203.515 263.758C203.3 265.093 202.955 267.096 202.46 269.636C201.965 272.177 201.319 275.343 200.307 278.939C199.366 283.084 197.972 287.113 196.151 290.954C193.884 295.669 190.48 299.746 186.246 302.819C181.128 306.063 175.207 307.815 169.148 307.879C165.983 308.073 162.689 308.051 159.416 307.987L149.252 307.814C142.03 307.746 134.827 307.069 127.719 305.79H127.267V305.338C127.762 300.622 128.257 295.67 128.796 290.631C129.334 285.592 129.872 280.209 130.411 275.149V274.761H130.777L161.784 269.141L161.461 269.378C163.606 264.774 165.015 259.862 165.639 254.822C166.349 249.977 167.017 245.347 167.641 240.998C168.89 232.384 169.988 224.654 170.893 218.28C171.797 211.907 172.572 207.019 173.046 203.509L173.649 199.59L173.843 198.599C173.843 198.362 173.843 198.255 173.843 198.255C173.843 198.255 173.843 198.255 173.843 198.599C173.843 198.944 173.843 199.202 173.843 199.611C173.713 200.58 173.563 201.894 173.369 203.552C172.917 207.062 172.249 212.165 171.431 218.366C170.613 224.568 169.558 232.406 168.395 241.105C167.792 245.412 167.167 250.106 166.478 254.951C165.835 260.107 164.382 265.128 162.172 269.83V270.024H161.935L130.927 275.73L131.358 275.278C130.827 280.345 130.289 285.506 129.743 290.76C129.226 295.799 128.71 300.752 128.214 305.467L127.805 304.907C134.835 306.174 141.959 306.851 149.101 306.932L159.243 307.147C162.559 307.147 165.703 307.255 168.912 307.147C174.814 307.118 180.592 305.448 185.6 302.324C189.749 299.344 193.099 295.387 195.354 290.803C197.213 287.03 198.657 283.066 199.661 278.982C200.608 275.407 201.319 272.285 201.814 269.744C202.309 267.203 202.74 265.287 203.02 263.887C203.171 263.263 203.278 262.767 203.364 262.38C203.439 262.123 203.572 261.888 203.752 261.691Z" fill="#263238"/>
<path d="M188.313 159.107C186.015 162.174 183.921 165.389 182.047 168.732C180.486 172.233 179.148 175.829 178.042 179.499C178.138 175.564 179.195 171.713 181.121 168.28C182.749 164.691 185.216 161.545 188.313 159.107Z" fill="#263238"/>
<path d="M180.994 273.62C178.212 271.659 175.055 270.293 171.72 269.607C168.386 268.922 164.945 268.932 161.615 269.637C162.476 269.051 163.466 268.681 164.5 268.56C166.966 268.061 169.506 268.061 171.972 268.56C174.427 269.059 176.756 270.048 178.82 271.467C180.327 272.608 181.081 273.534 180.994 273.62Z" fill="#263238"/>
</svg>
