<svg width="157" height="538" viewBox="0 0 157 538" fill="none" xmlns="http://www.w3.org/2000/svg">
<path d="M109.598 494.13L108.993 478.98L82.5995 477.987L82.9872 496.518L92.6018 502.318L109.598 494.13Z" fill="#FFBE9D"/>
<path d="M82.4135 493.075V494.812C82.4135 494.812 53.1046 506.908 52.841 512.491L111.273 511.638L110.187 492.207C105.892 494.338 101.188 495.518 96.395 495.668C91.6024 495.818 86.8337 494.934 82.4135 493.075Z" fill="#3780EF"/>
<g opacity="0.6">
<path d="M104.371 498.503C104.935 498.667 105.42 499.032 105.731 499.53C106.043 500.028 106.161 500.623 106.061 501.202C105.924 501.773 105.572 502.269 105.078 502.587C104.584 502.905 103.986 503.02 103.41 502.908C102.809 502.737 102.293 502.348 101.964 501.818C101.634 501.287 101.514 500.653 101.626 500.039C101.837 499.458 102.265 498.981 102.821 498.709C103.376 498.437 104.015 498.391 104.604 498.581" fill="white"/>
</g>
<g opacity="0.6">
<path d="M111.289 511.637L111.025 506.985L55.106 509.497C55.106 509.497 52.5163 510.676 52.8419 512.49L111.289 511.637Z" fill="white"/>
</g>
<path d="M82.2273 494.983C82.2273 495.262 83.6695 495.371 85.0806 496.27C86.4918 497.17 87.2672 498.348 87.5308 498.24C87.7944 498.131 87.3448 496.472 85.6079 495.417C83.8711 494.363 82.1653 494.719 82.2273 494.983Z" fill="#263238"/>
<path d="M76.1337 497.604C76.1337 497.883 77.3123 498.348 78.3047 499.542C79.2972 500.736 79.5919 502.008 79.8555 501.992C80.1191 501.977 80.3052 500.349 79.0491 498.891C77.793 497.433 76.1337 497.402 76.1337 497.604Z" fill="#263238"/>
<path d="M72.7686 504.985C73.0168 504.985 73.4044 503.621 72.6446 502.07C71.8847 500.519 70.5511 499.914 70.427 500.147C70.303 500.38 71.1404 501.217 71.7452 502.489C72.3499 503.76 72.474 504.97 72.7686 504.985Z" fill="#263238"/>
<path d="M145.668 461.704L145.265 507.048L124.361 505.544L119.771 461.379L145.668 461.704Z" fill="#FFBE9D"/>
<path d="M123.648 496.642C123.648 496.642 138.333 506.846 145.482 498.053L147.327 502.333L155.639 532.743C155.912 533.706 155.822 534.737 155.384 535.638C154.947 536.539 154.193 537.247 153.267 537.628C152.548 537.901 151.768 537.97 151.013 537.827C150.258 537.685 149.556 537.337 148.987 536.821C142.939 531.192 120.825 510.459 121.073 507.606L121.166 500.131C121.18 499.365 121.427 498.621 121.872 497.998C122.318 497.375 122.943 496.902 123.663 496.642H123.648Z" fill="#3780EF"/>
<g opacity="0.6">
<path d="M152.552 537.829L121.041 505V506.706C121.013 507.384 121.138 508.059 121.406 508.682C121.675 509.305 122.08 509.859 122.592 510.304C125.151 513.669 132.207 521.159 148.955 536.899C149.444 537.35 150.035 537.678 150.677 537.853C151.32 538.028 151.995 538.047 152.645 537.907L152.552 537.829Z" fill="white"/>
</g>
<g opacity="0.6">
<path d="M125.679 500.147C126.159 500.486 126.494 500.992 126.621 501.566C126.747 502.139 126.654 502.739 126.361 503.248C126.018 503.723 125.512 504.054 124.94 504.18C124.368 504.306 123.77 504.217 123.26 503.931C122.996 503.766 122.769 503.548 122.593 503.291C122.417 503.035 122.295 502.745 122.237 502.439C122.178 502.133 122.183 501.819 122.251 501.515C122.319 501.211 122.449 500.925 122.633 500.674C122.817 500.423 123.05 500.212 123.319 500.055C123.588 499.898 123.886 499.799 124.195 499.762C124.505 499.726 124.818 499.754 125.116 499.844C125.414 499.934 125.69 500.085 125.927 500.287" fill="white"/>
</g>
<path d="M143.497 521.035C144.444 519.818 145.618 518.796 146.955 518.027C148.405 517.467 149.945 517.178 151.499 517.174C151.499 517.081 151.034 516.786 150.103 516.662C148.891 516.526 147.665 516.735 146.568 517.267C145.471 517.782 144.549 518.607 143.916 519.64C143.497 520.43 143.389 521.004 143.497 521.035Z" fill="#263238"/>
<path d="M146.304 526.184C147.435 525.549 148.605 524.99 149.809 524.509C151.08 524.275 152.365 524.114 153.655 524.028C153.041 523.662 152.351 523.442 151.638 523.385C150.925 523.329 150.209 523.437 149.545 523.703C147.235 524.369 146.103 526.075 146.304 526.184Z" fill="#263238"/>
<path d="M138.224 514.46C139.908 513.351 141.67 512.366 143.497 511.514C145.409 510.922 147.363 510.476 149.343 510.18C147.276 509.622 145.079 509.815 143.14 510.723C141.109 511.343 139.366 512.669 138.224 514.46Z" fill="#263238"/>
<path d="M137.542 505.156C137.65 505.389 139.837 504.505 142.675 504.396C145.512 504.288 147.761 504.954 147.854 504.706C146.245 503.875 144.447 503.479 142.638 503.557C140.829 503.636 139.072 504.187 137.542 505.156Z" fill="#263238"/>
<path d="M144.288 504.334C144.327 503.843 144.253 503.35 144.071 502.892C143.687 501.6 143.049 500.398 142.194 499.356C141.63 498.528 140.806 497.912 139.853 497.604C139.53 497.512 139.186 497.528 138.873 497.648C138.56 497.768 138.294 497.987 138.116 498.271C137.792 498.817 137.687 499.465 137.821 500.085C138.166 501.358 138.943 502.471 140.018 503.234C141.092 503.998 142.399 504.365 143.714 504.272C145.013 504.178 146.254 503.703 147.283 502.905C148.312 502.108 149.083 501.024 149.498 499.79C149.599 499.481 149.629 499.154 149.586 498.832C149.543 498.51 149.428 498.201 149.25 497.93C149.038 497.672 148.752 497.484 148.431 497.393C148.109 497.302 147.768 497.31 147.451 497.418C146.543 497.801 145.748 498.409 145.141 499.186C144.25 500.193 143.542 501.347 143.047 502.597C142.835 503.038 142.719 503.519 142.706 504.008C143.443 502.397 144.421 500.907 145.606 499.589C146.145 498.906 146.85 498.372 147.653 498.038C147.823 497.977 148.008 497.969 148.183 498.016C148.358 498.063 148.514 498.163 148.63 498.302C148.73 498.491 148.79 498.699 148.806 498.912C148.822 499.126 148.794 499.34 148.723 499.542C148.332 500.595 147.648 501.515 146.753 502.193C145.857 502.872 144.787 503.281 143.667 503.373C142.556 503.44 141.454 503.133 140.537 502.501C139.621 501.868 138.943 500.947 138.612 499.883C138.503 499.457 138.552 499.005 138.752 498.612C138.851 498.454 138.997 498.332 139.17 498.262C139.342 498.193 139.532 498.179 139.713 498.224C140.511 498.49 141.209 498.993 141.714 499.666C142.853 501.05 143.726 502.632 144.288 504.334Z" fill="#263238"/>
<path d="M68.581 217.603L68.2088 222.612L56.4077 244.632C56.4077 244.632 51.1817 277.647 54.8569 299.435C58.7028 322.479 63.4945 373.281 63.8822 384.462C64.2699 395.643 79.1415 485.834 79.1415 485.834L111.443 484.95C111.443 484.95 105.24 383.857 104.605 370.691C103.969 357.526 104.108 300.614 104.108 300.614L104.031 225.093L66.4409 216.331" fill="#263238"/>
<path d="M116.654 484.205L104.077 295.264L97.2543 224.721L139.124 212.858L140.783 221.557C140.783 221.557 156.803 259.132 156.492 270.25C155.593 301.405 153.267 379.701 153.267 379.701L148.072 482.98L116.654 484.205Z" fill="#263238"/>
<path d="M101.27 230.877C101.353 231.101 101.396 231.337 101.394 231.575C101.394 232.118 101.518 232.769 101.611 233.56C101.766 235.297 101.968 237.809 102.154 240.911C102.542 247.114 102.867 255.689 103.177 265.164C103.488 274.639 103.782 283.122 103.999 289.433C104.123 292.457 104.232 294.938 104.309 296.784C104.309 297.575 104.309 298.241 104.309 298.784C104.336 299.016 104.336 299.25 104.309 299.482C104.227 299.264 104.185 299.033 104.185 298.8C104.185 298.257 104.061 297.59 103.968 296.799C103.813 295.078 103.612 292.566 103.425 289.464C103.038 283.261 102.712 274.67 102.402 265.195C102.092 255.72 101.797 247.253 101.58 240.926C101.456 237.918 101.347 235.437 101.27 233.576C101.27 232.785 101.27 232.118 101.27 231.575C101.244 231.343 101.244 231.109 101.27 230.877Z" fill="#455A64"/>
<path d="M149.576 247.129C149.234 247.335 148.863 247.487 148.475 247.579C148.034 247.732 147.583 247.856 147.126 247.951C146.528 248.101 145.922 248.215 145.311 248.292C143.714 248.52 142.098 248.577 140.489 248.463C138.515 248.311 136.565 247.941 134.673 247.362C132.79 246.758 130.98 245.947 129.277 244.942C127.891 244.108 126.597 243.131 125.415 242.027C124.959 241.615 124.529 241.175 124.128 240.709C123.802 240.375 123.502 240.017 123.229 239.639C122.779 239.019 122.546 238.662 122.593 238.631C122.64 238.6 123.725 239.887 125.772 241.639C126.97 242.658 128.257 243.566 129.618 244.353C131.296 245.294 133.062 246.067 134.89 246.664C136.729 247.226 138.62 247.6 140.535 247.78C142.083 247.917 143.64 247.917 145.187 247.78C147.917 247.517 149.529 246.989 149.576 247.129Z" fill="#455A64"/>
<path d="M72.5675 234.351C72.3063 235.331 71.8702 236.256 71.2803 237.08C68.6599 241.278 64.7145 244.481 60.0685 246.183C59.1402 246.584 58.1475 246.815 57.1376 246.866C60.2889 245.669 63.2585 244.041 65.9613 242.027C68.5161 239.795 70.7404 237.21 72.5675 234.351Z" fill="#455A64"/>
<path d="M94.3702 396.496C93.0813 396.117 91.8383 395.597 90.6639 394.945C88.4309 393.86 85.4069 392.231 82.1814 390.293C79.4224 388.6 76.7517 386.768 74.1796 384.803C73.0594 384.043 72.0201 383.17 71.0781 382.198C72.2607 382.837 73.3911 383.568 74.4588 384.385C76.4902 385.78 79.3281 387.688 82.5381 389.673C85.7481 391.657 88.741 393.332 90.881 394.526C92.0901 395.098 93.2562 395.756 94.3702 396.496Z" fill="#455A64"/>
<path d="M111.568 39.9355L83.5615 32.3834C74.5672 31.2824 68.4108 42.2771 67.6975 51.3179C66.8911 61.3356 66.3328 73.6175 67.4028 81.123C69.5583 96.2272 81.0648 98.3362 81.0648 98.3362C81.0648 98.3362 81.0648 98.3362 81.0648 106.974C81.0648 115.022 81.3284 120.512 90.4468 122.791C99.4875 123.117 111.909 118.542 112.157 110.091L116.204 45.3786C116.25 44.0565 115.799 42.7652 114.941 41.7582C114.083 40.7511 112.88 40.1011 111.568 39.9355Z" fill="#FFBE9D"/>
<path d="M72.9847 62.7624C72.972 63.2646 73.1564 63.7519 73.4984 64.12C73.8403 64.4881 74.3128 64.7077 74.8146 64.7318C75.0595 64.7552 75.3067 64.7293 75.5415 64.6558C75.7763 64.5822 75.994 64.4624 76.1819 64.3035C76.3697 64.1446 76.5239 63.9497 76.6353 63.7303C76.7467 63.5109 76.8131 63.2714 76.8306 63.026C76.8435 62.5222 76.6596 62.0331 76.318 61.6626C75.9764 61.292 75.5039 61.0691 75.0007 61.0411C74.7549 61.0199 74.5074 61.0478 74.2725 61.1231C74.0377 61.1984 73.8201 61.3197 73.6325 61.4799C73.4449 61.64 73.2911 61.8359 73.1799 62.0561C73.0687 62.2762 73.0023 62.5163 72.9847 62.7624Z" fill="#263238"/>
<path d="M70.2404 58.3114C70.4885 58.5595 71.9616 57.505 74.0396 57.5516C76.1176 57.5981 77.6219 58.6526 77.8545 58.3889C78.0871 58.1253 77.7304 57.8307 77.0791 57.3345C76.1754 56.6856 75.0901 56.3383 73.9776 56.342C72.899 56.3246 71.8418 56.6445 70.9537 57.2569C70.3489 57.7376 70.1318 58.2029 70.2404 58.3114Z" fill="#263238"/>
<path d="M92.2295 62.7624C92.2208 63.2661 92.4087 63.7534 92.7531 64.121C93.0976 64.4887 93.5716 64.7077 94.0749 64.7319C94.3198 64.7552 94.567 64.7294 94.8018 64.6558C95.0366 64.5822 95.2543 64.4625 95.4421 64.3035C95.6299 64.1446 95.7841 63.9497 95.8955 63.7303C96.0069 63.5109 96.0733 63.2715 96.0908 63.026C96.0998 62.5233 95.9146 62.0364 95.5738 61.6667C95.233 61.297 94.7628 61.0729 94.2609 61.0411C94.0144 61.0199 93.766 61.0476 93.5302 61.1228C93.2944 61.1979 93.0758 61.319 92.887 61.479C92.6982 61.639 92.5429 61.8347 92.43 62.055C92.3172 62.2753 92.249 62.5157 92.2295 62.7624Z" fill="#263238"/>
<path d="M90.865 58.544C91.0976 58.8076 92.5863 57.7376 94.6643 57.7841C96.7423 57.8307 98.2465 58.8852 98.4791 58.6371C98.7117 58.3889 98.3551 58.0633 97.7038 57.567C96.7986 56.9211 95.7143 56.5741 94.6023 56.5746C93.5206 56.5521 92.4603 56.8783 91.5783 57.505C90.9735 58.0168 90.772 58.544 90.865 58.544Z" fill="#263238"/>
<path d="M82.894 73.7878C81.8072 73.4158 80.6754 73.1915 79.5289 73.121C79.0016 73.121 78.4899 72.9504 78.4124 72.5782C78.3764 72.0355 78.5061 71.4947 78.7845 71.0275C79.3118 69.7559 79.8545 68.4067 80.4283 67.0111C81.9334 63.609 83.1675 60.0934 84.1191 56.4971C82.3339 59.7638 80.8195 63.1713 79.5909 66.6854C79.0327 68.0966 78.5209 69.4457 78.0402 70.7328C77.6905 71.3657 77.5803 72.1034 77.73 72.8108C77.8012 72.9997 77.9153 73.1695 78.0633 73.3067C78.2113 73.444 78.3892 73.545 78.583 73.6017C78.8753 73.6878 79.1777 73.7348 79.4824 73.7413C80.614 73.8886 81.7588 73.9042 82.894 73.7878Z" fill="#263238"/>
<path d="M81.0642 98.367C88.1589 98.5819 95.1745 96.8266 101.332 93.2961C101.332 93.2961 96.0753 103.857 81.0176 102.197L81.0642 98.367Z" fill="#EB996E"/>
<path d="M83.1574 78.8434C83.5925 78.1373 84.1807 77.5379 84.8786 77.0897C85.5765 76.6414 86.3662 76.3557 87.1893 76.2537C87.6663 76.2155 88.1436 76.3224 88.5588 76.5604C88.9739 76.7984 89.3074 77.1564 89.5154 77.5873C89.7322 78.1527 89.8101 78.7618 89.7426 79.3636C89.6752 79.9653 89.4643 80.5421 89.1277 81.0454C88.8149 81.5751 88.3559 82.0032 87.8057 82.2782C87.2555 82.5533 86.6376 82.6637 86.0262 82.5962C85.0125 82.2813 84.1125 81.6778 83.4365 80.8594C83.2058 80.6522 83.03 80.3912 82.9248 80.0995C82.8724 79.9162 82.862 79.7234 82.8942 79.5355C82.9264 79.3476 83.0004 79.1694 83.1109 79.014" fill="#EB996E"/>
<path d="M88.9883 75.3228C88.6472 75.3228 88.6161 77.5559 86.6467 79.1221C84.6773 80.6884 82.3046 80.4092 82.2736 80.6729C82.2426 80.9365 82.8009 81.1226 83.8244 81.1691C85.1435 81.2068 86.4338 80.7785 87.4686 79.9595C88.466 79.1713 89.1169 78.0254 89.283 76.765C89.3915 75.8656 89.2209 75.3073 88.9883 75.3228Z" fill="#263238"/>
<path d="M89.8417 51.3645C90.0898 51.9073 92.1368 51.4576 94.5869 51.5506C97.0371 51.6437 99.0685 52.1244 99.3477 51.5506C99.4717 51.3025 99.0841 50.7908 98.2467 50.31C97.1359 49.7267 95.9034 49.4133 94.649 49.3951C93.3918 49.3439 92.1411 49.5993 91.0047 50.1394C90.1363 50.6202 89.7331 51.1009 89.8417 51.3645Z" fill="#263238"/>
<path d="M70.6127 53.1943C71.0624 53.675 72.8457 53.1943 74.9857 53.1943C77.1258 53.1943 78.9401 53.5509 79.3588 53.0702C79.5449 52.8376 79.2658 52.3569 78.4749 51.8917C77.3843 51.3261 76.1672 51.0485 74.9392 51.0853C73.7129 51.0768 72.5053 51.3867 71.4346 51.9847C70.6127 52.4809 70.349 52.9617 70.6127 53.1943Z" fill="#263238"/>
<path d="M121.555 90.9545C121.467 90.9661 121.379 90.9661 121.291 90.9545C121.043 90.8992 120.8 90.8266 120.562 90.7374C119.68 90.4394 118.867 89.9645 118.174 89.3418C117.647 88.8709 117.242 88.2793 116.993 87.6177C116.745 86.956 116.661 86.2439 116.748 85.5425C116.801 85.1166 116.948 84.7079 117.179 84.3458C117.41 83.9838 117.718 83.6775 118.081 83.449C118.295 83.3309 118.535 83.2689 118.779 83.2689C119.023 83.2689 119.263 83.3309 119.477 83.449C119.711 83.5649 119.898 83.7572 120.008 83.994C120.118 84.2308 120.144 84.4981 120.082 84.7516C120.042 84.8801 119.976 84.999 119.888 85.1005C119.8 85.202 119.692 85.2839 119.57 85.3409C119.355 85.4557 119.115 85.5144 118.872 85.5115C118.417 85.5256 117.965 85.4299 117.554 85.2324C116.792 84.9123 116.101 84.443 115.522 83.8522C114.59 82.9379 113.997 81.7326 113.841 80.4355C113.686 79.1385 113.978 77.8273 114.67 76.7188L114.825 76.5017C114.825 76.5017 114.67 76.8273 114.437 77.4321C114.134 78.2867 114.018 79.1962 114.096 80.0994C114.2 81.1527 114.59 82.1575 115.224 83.0049C115.858 83.8523 116.712 84.5099 117.693 84.9067C118.059 85.0729 118.455 85.1576 118.857 85.1548C119.039 85.1715 119.222 85.1312 119.38 85.0395C119.538 84.9479 119.664 84.8093 119.74 84.6431C119.773 84.4686 119.749 84.2882 119.67 84.1289C119.592 83.9695 119.464 83.8398 119.306 83.7591C119.144 83.6723 118.963 83.6268 118.779 83.6268C118.595 83.6268 118.414 83.6723 118.252 83.7591C117.936 83.9619 117.667 84.2302 117.464 84.5459C117.26 84.8616 117.127 85.2174 117.073 85.589C116.98 86.2864 117.065 86.9961 117.321 87.6515C117.545 88.2369 117.895 88.7662 118.345 89.2022C119.007 89.8262 119.78 90.3206 120.624 90.6599C121.214 90.815 121.555 90.9235 121.555 90.9545Z" fill="#263238"/>
<path d="M85.9187 23.6061C85.0351 22.9815 84.3969 22.0684 84.1138 21.0239C83.8308 19.9795 83.9207 18.8691 84.368 17.8838C83.7477 16.9844 84.5076 15.6663 85.5466 15.3096C86.6182 15.0647 87.7393 15.1567 88.7566 15.5732C88.493 15.0615 89.2528 14.6428 89.8266 14.5498L93.812 13.976C92.8979 13.7297 92.0523 13.2774 91.34 12.6538C90.6277 12.0302 90.0675 11.2518 89.7025 10.3783C88.9895 8.61266 88.8168 6.67506 89.2063 4.81115C89.2239 4.54 89.2962 4.27521 89.4188 4.03271C89.5414 3.7902 89.7118 3.57498 89.9197 3.39998C91.1054 4.77139 92.0303 6.34805 92.6489 8.05218C93.1966 8.08495 93.7312 8.23313 94.2176 8.48702C94.704 8.74091 95.1312 9.09477 95.4713 9.52538C95.5406 9.37893 95.6413 9.2496 95.7664 9.14659C95.8914 9.04358 96.0377 8.96943 96.1947 8.92944C96.3517 8.88945 96.5156 8.88458 96.6747 8.91522C96.8338 8.94586 96.9841 9.01123 97.115 9.10667C97.9835 6.76506 99.6272 4.2994 102.108 4.05128C101.349 2.95026 102.775 1.64763 103.985 1.05835C104.848 0.578303 105.796 0.267759 106.776 0.143424C107.266 0.0820202 107.763 0.160054 108.21 0.368547C108.657 0.57704 109.036 0.907538 109.304 1.322C109.417 1.53639 109.482 1.77321 109.493 2.01547C109.504 2.25773 109.461 2.49942 109.368 2.72323C109.274 2.94705 109.133 3.14744 108.953 3.31001C108.773 3.47259 108.559 3.59334 108.327 3.6636C108.823 4.02153 109.184 4.53554 109.352 5.12323C109.521 5.71093 109.488 6.33825 109.257 6.90463C109.656 6.44648 110.197 6.13603 110.793 6.02347C111.39 5.91091 112.007 6.00283 112.545 6.28434C114.275 5.54924 116.172 5.29734 118.034 5.5555C118.515 5.58776 118.977 5.75432 119.368 6.03622C119.647 6.28434 119.818 6.62551 120.112 6.84261C120.555 7.11604 121.065 7.26099 121.586 7.26129C122.784 7.33436 123.931 7.77273 124.873 8.51741C125.336 8.89756 125.667 9.41362 125.82 9.99252C125.973 10.5714 125.94 11.1838 125.726 11.7429C128.471 12.6579 131.231 9.54089 134.069 10.1922C134.875 10.456 135.61 10.9025 136.215 11.497C136.82 12.0915 137.28 12.8178 137.558 13.6193C136.141 14.1619 134.617 14.3638 133.108 14.2086C133.004 14.6184 132.765 14.9816 132.431 15.2402C132.096 15.4988 131.685 15.6379 131.262 15.6353C131.366 15.7841 131.431 15.9558 131.453 16.1356C131.475 16.3154 131.454 16.4979 131.389 16.6673C131.325 16.8367 131.221 16.988 131.085 17.1081C130.95 17.2282 130.787 17.3135 130.611 17.3566C132.354 16.9194 134.184 16.973 135.899 17.5117C138.535 18.1785 141.42 19.6052 142.009 22.2569C142.171 23.2115 142.171 24.1867 142.009 25.1413C141.823 26.568 141.063 28.4288 139.652 28.1497C138.783 27.9791 138.349 27.0332 137.884 26.2733C136.868 24.5806 135.223 23.3593 133.309 22.8772C132.627 23.5285 133.867 24.4279 134.41 25.1568C134.953 25.8856 134.705 26.9556 134.829 27.8706C135.232 29.226 135.838 30.5122 136.628 31.6854C137.915 34.4612 137.171 37.7022 136.411 40.6796C136.209 41.4705 135.279 42.463 134.782 41.7962C135.284 41.9284 135.725 42.2314 136.028 42.6531C136.33 43.0748 136.477 43.5888 136.442 44.1068C136.34 45.1372 136 46.1299 135.449 47.0066C135.248 47.3943 134.984 47.8285 134.55 47.9216C134.116 48.0146 133.433 47.4253 133.108 46.8671L130.456 42.3855C130.657 43.414 130.62 44.475 130.347 45.4869C130.189 46.4743 129.778 47.4036 129.152 48.1838C128.527 48.9641 127.71 49.5684 126.781 49.9375C125.425 50.1979 124.023 50.0744 122.733 49.5809" fill="#263238"/>
<path d="M114.948 70.8568C114.359 70.6087 111.986 71.5391 111.614 71.0274C109.675 68.4531 108.714 61.1337 108.264 57.9392C107.814 54.7446 109.815 51.2245 109.598 48.0145C109.603 45.4112 108.789 42.8722 107.272 40.757C106.218 39.6065 104.897 38.7331 103.426 38.2138C101.175 37.3784 98.7568 37.0918 96.3728 37.3777C93.9887 37.6635 91.7072 38.5137 89.7174 39.8576C88.0891 40.9741 86.5383 42.4783 84.5689 42.6334C82.5995 42.7885 80.8471 41.5634 79.1879 40.5399C77.5286 39.5164 75.4506 38.586 73.6517 39.3924C72.9559 39.7321 72.3422 40.2189 71.8529 40.8191C69.8747 43.8327 68.5391 47.2218 67.9295 50.7748C67.2957 47.1287 67.6546 43.3793 68.9685 39.9196C70.8962 35.849 73.825 32.3338 77.4809 29.7031C81.1368 27.0724 85.4003 25.4121 89.8724 24.8775C107.721 22.2257 115.925 32.2435 118.995 39.3769C120.313 42.4783 121.337 50.4181 120.267 56.5435C119.331 61.5853 117.532 66.4276 114.948 70.8568Z" fill="#263238"/>
<path d="M120.111 41.796C119.848 41.8735 119.15 39.8575 117.413 36.9732C116.426 35.2818 115.295 33.6787 114.032 32.1814C112.497 30.383 110.674 28.8528 108.636 27.6533C106.557 26.5397 104.31 25.7749 101.983 25.3892C100.063 25.0601 98.1106 24.9664 96.168 25.1101C92.8184 25.3582 90.818 26.1025 90.7094 25.8234C90.6009 25.5443 91.1126 25.3892 92.012 25.0015C93.2916 24.4476 94.6358 24.0568 96.0129 23.8384C98.0652 23.5072 100.155 23.4759 102.216 23.7454C104.728 24.1062 107.154 24.9151 109.38 26.1336C111.599 27.4354 113.555 29.1393 115.149 31.1579C116.451 32.7588 117.56 34.5077 118.452 36.3684C120.049 39.5474 120.328 41.7494 120.111 41.796Z" fill="#3780EF"/>
<path d="M102.93 26.0869C102.577 26.1489 102.219 26.1851 101.86 26.1955C100.885 26.2844 99.9165 26.4346 98.9603 26.6452C95.7925 27.3121 92.8164 28.6865 90.2546 30.6656C87.6927 32.6447 85.6114 35.1773 84.1663 38.0741C83.7195 38.9469 83.331 39.8483 83.0032 40.7724C82.905 41.1174 82.7806 41.4543 82.631 41.7804C82.631 41.7804 82.631 41.6873 82.631 41.5012C82.631 41.3151 82.7241 41.0515 82.8326 40.7258C83.1078 39.7762 83.4659 38.8525 83.9027 37.9655C85.3054 34.9949 87.391 32.3982 89.9891 30.3876C92.5872 28.3771 95.6241 27.0096 98.8517 26.3971C99.8233 26.2058 100.809 26.0918 101.798 26.0559C102.155 26.0559 102.418 26.0559 102.605 26.0559C102.791 26.0559 102.93 26.0714 102.93 26.0869Z" fill="#455A64"/>
<path d="M107.645 28.2896C106.972 28.7065 106.273 29.0794 105.551 29.4061C103.864 30.2896 102.228 31.2681 100.651 32.337C99.0778 33.4145 97.566 34.5794 96.123 35.8261C95.555 36.3786 94.9543 36.8964 94.3242 37.3769C94.4362 37.1944 94.5717 37.0276 94.7273 36.8806C95.0064 36.5705 95.4252 36.1518 95.9524 35.64C98.7663 33.0115 101.967 30.8306 105.443 29.1735C106.11 28.8633 106.652 28.6307 106.994 28.4911C107.205 28.4064 107.423 28.339 107.645 28.2896Z" fill="#455A64"/>
<path d="M117.135 36.415C117.172 36.6149 117.172 36.8199 117.135 37.0198C117.135 37.392 116.98 37.9503 116.825 38.5706C116.016 42.0715 114.519 45.3766 112.421 48.2937C112.002 48.8519 111.661 49.2862 111.413 49.5653C111.165 49.8444 111.01 50.015 110.994 49.9995C110.979 49.984 111.459 49.2862 112.204 48.1541C113.178 46.6705 114.038 45.1153 114.778 43.5019C115.506 41.8867 116.108 40.2172 116.577 38.5085C116.949 37.2369 117.135 36.415 117.135 36.415Z" fill="#455A64"/>
<path d="M111.908 57.8926C111.908 57.8926 112.652 57.0242 113.707 55.5355C114.328 54.6684 114.893 53.7619 115.397 52.8217C115.998 51.6603 116.516 50.4581 116.948 49.224C117.365 47.9883 117.692 46.7236 117.925 45.4402C118.113 44.3895 118.232 43.3275 118.282 42.2612C118.359 40.4314 118.282 39.2993 118.282 39.2993C118.365 39.5551 118.412 39.8213 118.421 40.0902C118.494 40.8115 118.52 41.5366 118.499 42.2612C118.487 43.3419 118.394 44.4202 118.22 45.4868C118.002 46.7973 117.68 48.0885 117.258 49.3481C116.807 50.5969 116.263 51.81 115.63 52.9768C115.111 53.9252 114.52 54.8325 113.862 55.6906C113.427 56.2726 112.955 56.8268 112.451 57.3499C112.288 57.5481 112.106 57.7299 111.908 57.8926Z" fill="#455A64"/>
<path d="M55.2914 41.3152C55.2914 41.3152 55.5706 41.6098 56.0823 42.106C56.811 42.8269 57.6754 43.3962 58.6255 43.7808C59.314 44.0667 60.0569 44.1982 60.8017 44.166C61.5465 44.1339 62.2752 43.9389 62.9365 43.5948C63.6938 43.15 64.2703 42.4527 64.5648 41.6253C64.7229 41.1959 64.784 40.7369 64.7438 40.2811C64.7036 39.8253 64.5631 39.3841 64.3322 38.9891C64.2135 38.8046 64.0506 38.6527 63.8584 38.5471C63.6661 38.4415 63.4505 38.3855 63.2312 38.3843C63.0275 38.3911 62.8322 38.467 62.6772 38.5994C62.5222 38.7318 62.4168 38.913 62.3783 39.1131C62.2385 39.9665 62.4389 40.8406 62.9365 41.5478C63.3669 42.2336 63.9937 42.7739 64.7354 43.0985C65.3742 43.3598 66.0777 43.4194 66.7514 43.2691C67.7372 43.0761 68.6161 42.5233 69.217 41.7184C69.4337 41.4083 69.6157 41.0755 69.7598 40.7259C69.7598 40.7259 69.7598 40.8344 69.7598 41.0205C69.6802 41.2953 69.56 41.5567 69.4031 41.7959C68.8238 42.6957 67.9174 43.3352 66.8754 43.5793C66.1483 43.7573 65.3836 43.7031 64.6889 43.4242C63.8909 43.1179 63.2043 42.5773 62.7195 41.8734C62.1679 41.0838 61.9455 40.1105 62.0992 39.1597C62.1741 38.8939 62.3187 38.653 62.5179 38.4618C62.7355 38.2786 63.0089 38.1748 63.2932 38.1672C63.5702 38.159 63.8443 38.2251 64.087 38.3588C64.3297 38.4924 64.5322 38.6886 64.6734 38.9271C64.9519 39.3631 65.1224 39.8592 65.1709 40.3743C65.2195 40.8893 65.1446 41.4086 64.9525 41.8889C64.6316 42.7878 63.9988 43.5417 63.1692 44.0135C62.4569 44.3925 61.6674 44.6035 60.8611 44.6304C60.0547 44.6573 59.2529 44.4993 58.517 44.1685C57.5536 43.7448 56.6879 43.1272 55.9737 42.3542C55.782 42.1463 55.6008 41.929 55.431 41.7029C55.3224 41.4858 55.2759 41.3152 55.2914 41.3152Z" fill="#263238"/>
<path d="M146.753 38.1207H146.35L145.187 38.2758C143.743 38.4526 142.278 38.3739 140.861 38.0432C139.879 37.7766 138.972 37.2885 138.209 36.6165C137.755 36.2302 137.384 35.7565 137.118 35.2236C136.851 34.6907 136.695 34.1097 136.658 33.515C136.613 32.8676 136.741 32.2198 137.03 31.6386C137.329 31.0211 137.819 30.5157 138.426 30.1965C139.049 29.8572 139.748 29.6794 140.458 29.6794C141.167 29.6794 141.866 29.8572 142.489 30.1965C142.833 30.3502 143.123 30.603 143.322 30.9227C143.522 31.2423 143.621 31.6142 143.608 31.9906C143.594 32.367 143.469 32.7309 143.247 33.0357C143.026 33.3404 142.719 33.5721 142.365 33.7011C141.737 33.9591 141.055 34.0551 140.38 33.9803C139.756 33.9235 139.138 33.8093 138.535 33.6391C136.776 33.1583 135.192 32.1845 133.969 30.8326C132.747 29.4807 131.936 27.8071 131.634 26.0095C131.565 25.62 131.523 25.2262 131.51 24.8309C131.487 24.6975 131.487 24.5611 131.51 24.4277C131.51 24.4277 131.51 25.0015 131.742 25.9785C132.129 28.0435 133.187 29.923 134.752 31.3251C136.317 32.7272 138.3 33.5733 140.395 33.7321C141.008 33.793 141.625 33.7025 142.194 33.4685C142.475 33.3518 142.719 33.1623 142.901 32.9197C143.084 32.6771 143.199 32.3901 143.233 32.0884C143.228 31.7673 143.135 31.4537 142.966 31.1807C142.797 30.9078 142.557 30.6856 142.272 30.5376C141.703 30.2282 141.066 30.066 140.419 30.066C139.771 30.066 139.134 30.2282 138.566 30.5376C138.046 30.8339 137.623 31.274 137.348 31.805C137.073 32.336 136.957 32.9353 137.015 33.5305C137.042 34.0811 137.178 34.6209 137.415 35.1186C137.652 35.6164 137.985 36.0622 138.395 36.4304C139.12 37.082 139.985 37.5593 140.923 37.8261C142.305 38.176 143.736 38.2914 145.156 38.1672L146.335 38.0742C146.476 38.0674 146.617 38.0831 146.753 38.1207Z" fill="#263238"/>
<path d="M77.5589 4.60962C77.3881 5.05826 77.2533 5.51976 77.1557 5.98977C77.0708 6.62781 77.1149 7.27638 77.2854 7.89705C77.4559 8.51772 77.7492 9.09784 78.1481 9.60299C78.7811 10.3094 79.5964 10.8278 80.5046 11.1013C81.4128 11.3749 82.3788 11.393 83.2966 11.1537C83.8342 11.0538 84.3383 10.8214 84.7634 10.4775C85.1886 10.1336 85.5212 9.68913 85.7312 9.18428C85.7963 8.9232 85.8092 8.65184 85.7693 8.38575C85.7294 8.11966 85.6374 7.86406 85.4986 7.63355C85.3574 7.39218 85.143 7.202 84.8865 7.0905C84.6301 6.97899 84.3448 6.95194 84.0719 7.01326C83.7969 7.09816 83.5429 7.2401 83.3265 7.42981C83.11 7.61953 82.936 7.85276 82.8158 8.11427C82.5891 8.63412 82.5616 9.21917 82.7383 9.75805C83.1402 10.8096 83.841 11.7206 84.7543 12.3788C86.2711 13.5814 88.1008 14.3241 90.0268 14.5188C91.321 14.6624 92.6307 14.5624 93.8881 14.2242C94.772 13.9761 95.2373 13.7434 95.2528 13.79L94.9271 13.9605C94.6069 14.1198 94.2752 14.2546 93.9346 14.3637C92.6622 14.762 91.3235 14.9043 89.9958 14.7824C88.0203 14.5979 86.138 13.8557 84.5682 12.6424C83.5958 11.9493 82.8511 10.9833 82.4282 9.86661C82.2102 9.24286 82.2436 8.55879 82.5212 7.95921C82.6617 7.63882 82.8751 7.35563 83.1443 7.13219C83.4135 6.90875 83.7311 6.75121 84.0719 6.6721C84.4175 6.59507 84.7785 6.62846 85.104 6.76758C85.4295 6.90669 85.7032 7.14451 85.8863 7.44747C86.0608 7.72658 86.1744 8.03932 86.2198 8.36531C86.2652 8.69129 86.2414 9.0232 86.1499 9.33937C85.9545 9.93795 85.5676 10.4556 85.0489 10.8126C84.5843 11.1506 84.0572 11.3931 83.4982 11.5259C82.5187 11.7681 81.4909 11.7308 80.5315 11.4183C79.5721 11.1059 78.7196 10.5306 78.0706 9.75805C77.6604 9.22396 77.3659 8.61036 77.2057 7.95628C77.0456 7.30219 77.0232 6.62193 77.1402 5.95875C77.2119 5.60294 77.3319 5.25859 77.4968 4.93526C77.5107 4.82553 77.5315 4.71678 77.5589 4.60962Z" fill="#263238"/>
<path d="M111.273 68.5775C111.333 67.815 111.579 67.0791 111.991 66.4348C112.403 65.7905 112.968 65.2577 113.635 64.8835C114.302 64.5094 115.051 64.3055 115.815 64.2898C116.58 64.2741 117.337 64.4472 118.018 64.7937C119.569 65.7241 120.779 67.585 120.593 71.1207C120.065 80.5646 110.699 78.099 110.699 77.8198C110.699 77.5407 111.025 72.5008 111.273 68.5775Z" fill="#FFBE9D"/>
<path d="M113.785 74.4082C113.785 74.4082 113.94 74.5323 114.219 74.6718C114.6 74.86 115.039 74.8934 115.444 74.7649C116.073 74.409 116.596 73.893 116.961 73.2693C117.326 72.6456 117.52 71.9363 117.522 71.2137C117.585 70.4086 117.474 69.5993 117.196 68.8411C117.119 68.5413 116.973 68.2641 116.768 68.0323C116.563 67.8004 116.306 67.6205 116.018 67.5074C115.831 67.4511 115.631 67.4604 115.45 67.5338C115.27 67.6071 115.12 67.7401 115.025 67.9106C114.886 68.1587 114.932 68.3603 114.886 68.3758C114.839 68.3913 114.7 68.2053 114.793 67.8176C114.856 67.5854 114.999 67.3826 115.196 67.2438C115.328 67.1537 115.477 67.0909 115.635 67.0589C115.792 67.027 115.953 67.0266 116.111 67.0577C116.495 67.1538 116.847 67.3469 117.135 67.6184C117.423 67.89 117.636 68.2309 117.754 68.6085C118.103 69.4519 118.247 70.366 118.173 71.2757C118.176 72.1181 117.928 72.9423 117.462 73.6436C116.995 74.345 116.331 74.8918 115.552 75.2146C115.286 75.2835 115.008 75.2899 114.739 75.2334C114.47 75.177 114.218 75.059 114.002 74.8889C113.785 74.6408 113.754 74.4237 113.785 74.4082Z" fill="#EB996E"/>
<path d="M144.117 203.104C143.869 196.761 145.358 140.159 145.358 140.159C145.358 140.159 142.597 112.556 133.215 109.284C129.897 108.121 122.732 107.733 114.855 107.733C114.855 106.028 114.607 104.136 113.568 103.422C111.505 102.042 79.6064 106.989 79.6064 106.989L79.5134 109.656C70.9068 111.378 52.0809 115.999 51.8017 123.504C51.4296 133.243 61.3078 175.159 64.4247 182.835C67.5417 190.512 66.2701 205.678 65.7894 212.299C65.3087 218.921 71.5581 220.208 77.0942 222.116C82.6304 224.023 107.287 229.869 121.321 225.961C135.355 222.054 142.628 220.162 144.179 216.657C147.544 209.182 144.365 209.462 144.117 203.104Z" fill="#3780EF"/>
<path d="M0.0850526 106.725C0.0850526 106.725 -1.10898 102.802 5.45063 106.26C12.0102 109.718 21.4697 117.829 21.4697 117.829L26.7422 116.557C26.7422 116.557 33.3793 121.628 34.3408 124.311C35.3022 126.993 37.4423 138.081 36.822 140.33C36.2017 142.578 37.8455 147.448 37.8455 147.448L24.0904 154.116L22.6328 150.115C22.6328 150.115 10.0253 136.67 9.68411 135.181C9.33966 134.293 9.36177 133.304 9.74553 132.432C10.1293 131.56 10.8434 130.875 11.7311 130.529C11.7311 130.529 10.4905 124.45 12.6925 122.667C12.6925 122.667 11.1418 118.837 11.8086 117.534L0.0850526 106.725Z" fill="#FFBE9D"/>
<path d="M25.0049 137.368C24.8774 137.089 24.7987 136.79 24.7723 136.484C24.6485 135.637 24.6018 134.781 24.6328 133.926C24.7263 130.971 25.5983 128.093 27.1605 125.583V126.048C26.0847 125.176 25.3313 123.97 25.0205 122.621V122.45L25.5167 122.714C23.4654 123.442 21.2104 123.336 19.2362 122.419C18.3898 122.043 17.6177 121.517 16.9566 120.868C16.7563 120.688 16.6067 120.458 16.5224 120.202C16.4934 120.043 16.5153 119.88 16.585 119.735C16.6546 119.59 16.7685 119.471 16.9101 119.395C17.2837 119.249 17.6671 119.13 18.0576 119.039C19.5302 118.567 21.0397 118.219 22.5703 118C21.1536 118.626 19.6918 119.144 18.1972 119.55C17.859 119.647 17.5274 119.766 17.2047 119.907C17.0962 119.984 17.0962 120.015 17.1117 120.093C17.172 120.23 17.2621 120.352 17.3753 120.45C18.007 121.034 18.7299 121.51 19.5153 121.861C21.3276 122.67 23.3812 122.753 25.2531 122.093L25.6563 121.938L25.7493 122.357V122.512C26.0221 123.722 26.6806 124.81 27.6257 125.614L27.8738 125.815L27.7032 126.079C26.1784 128.486 25.2581 131.226 25.0205 134.065C24.9119 136.081 25.1135 137.368 25.0049 137.368Z" fill="#EB996E"/>
<path d="M13.2356 135.274C13.2356 135.274 13.4682 135.274 13.8404 135.026C14.0982 134.904 14.3287 134.732 14.518 134.519C14.7072 134.305 14.8513 134.056 14.9414 133.786L15.05 133.475L15.298 133.708C16.5216 134.914 17.8502 136.009 19.268 136.98C20.1054 137.492 21.1443 138.36 21.9197 137.895C22.118 137.754 22.2803 137.568 22.3935 137.352C22.5066 137.137 22.5674 136.898 22.571 136.654C22.5409 136.083 22.3819 135.527 22.1058 135.026C21.3698 133.319 20.3175 131.767 19.0043 130.451C18.4503 129.96 17.787 129.608 17.0695 129.425C16.3521 129.241 15.6012 129.232 14.8794 129.397C13.8842 129.666 12.9297 130.068 12.0415 130.591C11.7178 130.814 11.3622 130.986 10.987 131.103C11.242 130.801 11.5461 130.544 11.8865 130.343C12.755 129.701 13.7246 129.208 14.7553 128.885C15.501 128.668 16.2875 128.631 17.0504 128.777C17.9254 128.953 18.7417 129.348 19.423 129.924C20.8687 131.268 22.0244 132.894 22.8191 134.7C23.1472 135.312 23.3278 135.992 23.3464 136.685C23.3376 137.049 23.2415 137.405 23.0661 137.724C22.8906 138.042 22.641 138.314 22.3384 138.515C22.0273 138.671 21.6814 138.744 21.3338 138.728C20.9862 138.712 20.6486 138.606 20.3535 138.422C19.8661 138.144 19.395 137.839 18.9423 137.507C17.5124 136.483 16.2017 135.303 15.0344 133.987H15.3756C15.2521 134.296 15.0614 134.573 14.8172 134.798C14.5731 135.023 14.2817 135.191 13.9644 135.29C13.4217 135.352 13.2356 135.305 13.2356 135.274Z" fill="#EB996E"/>
<path d="M22.3844 134.623C22.3844 134.623 22.7101 134.623 23.1443 134.453C23.4387 134.309 23.6899 134.09 23.8723 133.817C24.0548 133.545 24.162 133.229 24.1833 132.902C24.1532 131.845 23.837 130.816 23.2684 129.925C22.6218 128.765 21.8239 127.696 20.8957 126.746C19.9602 125.786 18.9713 124.88 17.9338 124.032C17.145 123.31 16.2005 122.779 15.1735 122.481C14.2146 122.275 13.2132 122.435 12.3667 122.931C12.3667 122.931 12.4907 122.621 12.9715 122.342C13.6758 121.955 14.492 121.824 15.2821 121.969C16.4308 122.215 17.4982 122.748 18.3836 123.52C19.4821 124.354 20.5187 125.266 21.485 126.249C22.4575 127.251 23.2777 128.39 23.9197 129.63C24.513 130.638 24.8036 131.795 24.7571 132.964C24.7218 133.379 24.5646 133.774 24.3052 134.1C24.0458 134.425 23.6958 134.667 23.2994 134.794C22.6636 134.872 22.3689 134.654 22.3844 134.623Z" fill="#EB996E"/>
<path d="M18.6788 118.093C18.5857 118.093 18.2911 117.783 17.6863 117.379C16.9317 116.842 16.0375 116.535 15.1121 116.495C14.1838 116.493 13.2743 116.757 12.4913 117.255C11.871 117.643 11.5454 117.984 11.4678 117.922C11.3903 117.86 11.5609 117.395 12.1657 116.837C12.9834 116.123 14.0388 115.742 15.1237 115.768C16.2087 115.793 17.2446 116.225 18.0275 116.976C18.6012 117.55 18.7563 118.046 18.6788 118.093Z" fill="#EB996E"/>
<path d="M60.2071 115.378C60.2071 115.378 49.2124 118.371 45.6147 136.189C43.056 148.859 45.6147 182.106 45.6147 182.106C45.6147 182.106 33.2863 188.108 33.9842 188.309C34.682 188.511 40.4818 221.572 54.64 218.828C68.7982 216.083 70.8451 195.195 70.8451 195.195L60.2071 115.378Z" fill="#3780EF"/>
<path d="M70.0698 215.014C70.0698 215.014 69.9148 214.781 69.6977 214.285C69.3811 213.576 69.1168 212.845 68.9068 212.098C68.1425 209.338 67.7156 206.495 67.6352 203.631C67.5917 199.423 67.3329 195.221 66.8598 191.039C66.5064 188.611 65.7793 186.252 64.7043 184.045C63.5102 181.812 61.6804 179.796 60.3002 177.346C59.0523 174.937 58.1343 172.371 57.5709 169.717C57.0874 167.248 56.8227 164.742 56.78 162.227C56.8278 157.992 57.1022 153.763 57.6019 149.557C57.9586 145.975 58.1912 143.075 58.2222 141.075C58.2533 139.074 58.2222 137.973 58.2222 137.973C58.2937 138.236 58.3301 138.507 58.3308 138.78C58.3308 139.307 58.4548 140.098 58.4393 141.106C58.4621 143.953 58.3378 146.8 58.0672 149.635C57.6287 153.823 57.4061 158.031 57.4004 162.242C57.4594 164.712 57.7344 167.171 58.2222 169.593C58.7811 172.175 59.6779 174.673 60.8895 177.021C62.2076 179.378 63.991 181.394 65.2781 183.735C66.384 186.02 67.1269 188.464 67.4801 190.977C67.9221 195.186 68.1292 199.415 68.1004 203.647C68.1374 206.477 68.4806 209.295 69.1239 212.052C69.3035 212.801 69.5209 213.542 69.7752 214.269C69.8946 214.509 69.9932 214.758 70.0698 215.014Z" fill="#263238"/>
<path d="M11.5139 189.984C11.0487 190.077 8.13329 189.054 7.69908 191.535C7.26488 194.016 8.97068 194.078 12.0101 194.637C15.0496 195.195 27.7346 199.894 27.7346 199.894C27.7346 199.894 22.7878 201.646 23.0824 204.267C23.377 206.887 24.354 206.701 26.6181 206.779L29.9056 206.918C29.9056 206.918 29.704 212.579 32.1852 212.904C32.1644 213.454 32.266 214.002 32.4826 214.509C32.6993 215.015 33.0255 215.467 33.4379 215.832C33.8503 216.197 34.3386 216.466 34.8674 216.619C35.3963 216.772 35.9526 216.807 36.4962 216.719C40.9313 216.548 54.8104 213.199 54.8104 213.199L56.3612 196.141C56.3612 196.141 44.1414 191.364 41.8618 191.737C40.4126 192.012 39.0787 192.714 38.0315 193.753L11.5139 189.984Z" fill="#FFBE9D"/>
<path d="M56.4085 196.203L94.324 198.157L92.0909 219.371L54.8577 213.199L56.4085 196.203Z" fill="#FFBE9D"/>
<path d="M61.8815 193.613C61.2977 192.791 60.7792 191.925 60.3307 191.023C59.3848 189.472 58.0201 187.239 56.5004 184.82C54.5501 181.987 52.7438 179.058 51.0884 176.043C51.8357 176.73 52.4829 177.518 53.0113 178.385C54.1278 179.935 55.601 182.013 57.1207 184.417C58.4503 186.461 59.6719 188.572 60.7805 190.744C61.3039 191.633 61.676 192.602 61.8815 193.613Z" fill="#263238"/>
<path d="M114.033 186.805C113.659 186.939 113.267 187.013 112.87 187.022C111.806 187.161 110.732 187.208 109.66 187.162C102.468 186.939 95.6064 184.093 90.3688 179.16C89.5826 178.424 88.8518 177.631 88.1822 176.787C87.717 176.183 87.4844 175.841 87.5309 175.81C87.5775 175.779 88.694 177.02 90.7254 178.772C93.3597 181.059 96.3441 182.907 99.5646 184.246C102.791 185.579 106.209 186.391 109.691 186.65C112.358 186.836 114.033 186.666 114.033 186.805Z" fill="#263238"/>
<g opacity="0.2">
<path d="M104.963 186.262C102.429 185.375 99.9885 184.242 97.6743 182.882L88.8972 178.059C89.4139 180.566 90.5674 182.897 92.2466 184.828C93.9258 186.76 96.0741 188.226 98.4846 189.086C100.895 189.946 103.486 190.171 106.009 189.739C108.531 189.307 110.9 188.232 112.887 186.619C110.268 187.277 107.513 187.153 104.963 186.262Z" fill="black"/>
<path d="M88.7264 177.95L88.897 178.043C88.897 177.935 88.897 177.826 88.8195 177.718L88.7264 177.95Z" fill="black"/>
</g>
<g opacity="0.3">
<path d="M102.434 221.371C90.9581 220.627 79.4207 215.618 66.0533 215.091C75.6403 218.467 85.4554 221.156 95.4243 223.139C102.46 224.662 109.687 225.101 116.855 224.442C123.973 223.573 131.06 221.464 136.069 216.316C128.951 222.922 113.894 222.069 102.434 221.371Z" fill="black"/>
</g>
<path d="M34.0461 188.371L24.0903 154.116L37.7988 147.463L51.7554 177.578C51.7554 177.578 44.6996 193.318 34.0461 188.371Z" fill="#FFBE9D"/>
<path d="M94.323 198.111C94.6332 197.878 116.312 194.42 116.312 194.42L120.623 186.325C120.623 186.325 127.431 137.012 128.548 131.522C129.804 125.319 132.021 108.897 132.021 108.897C132.021 108.897 147.653 111.859 149.87 125.722C151.421 135.182 147.699 183.487 145.916 193.272C144.133 203.057 141.434 212.393 131.665 219.045C125.074 223.543 92.09 219.325 92.09 219.325L94.323 198.111Z" fill="#3780EF"/>
<path d="M146.598 188.496C146.615 188.619 146.615 188.745 146.598 188.868C146.598 189.163 146.505 189.519 146.427 189.985C146.272 190.946 146.024 192.388 145.668 194.218C145.311 196.048 144.846 198.328 144.117 200.917C143.439 203.903 142.436 206.804 141.124 209.57C139.491 212.966 137.04 215.902 133.991 218.115C130.305 220.451 126.041 221.713 121.678 221.759C119.398 221.899 117.026 221.883 114.668 221.837L107.349 221.713C102.148 221.663 96.9606 221.176 91.8416 220.255H91.5159V219.929C91.8726 216.533 92.2293 212.967 92.6169 209.338C93.0046 205.709 93.3923 201.832 93.78 198.188V197.909H94.0436L116.374 193.861L116.142 194.032C117.686 190.716 118.701 187.179 119.15 183.549C119.662 180.06 120.142 176.726 120.592 173.593C121.492 167.39 122.282 161.823 122.934 157.233C123.585 152.643 124.143 149.123 124.485 146.595L124.919 143.773L125.058 143.059C125.058 142.889 125.058 142.811 125.058 142.811C125.058 142.811 125.058 142.811 125.058 143.059C125.058 143.308 125.058 143.494 125.058 143.788C124.965 144.486 124.857 145.432 124.717 146.626C124.392 149.154 123.911 152.829 123.321 157.295C122.732 161.761 121.972 167.406 121.135 173.671C120.701 176.772 120.251 180.153 119.755 183.642C119.291 187.355 118.245 190.971 116.653 194.358V194.497H116.483L94.1522 198.607L94.4623 198.281C94.0798 201.93 93.6921 205.647 93.2993 209.431C92.9271 213.06 92.5549 216.626 92.1983 220.022L91.9036 219.619C96.9663 220.531 102.096 221.019 107.24 221.077L114.544 221.232C116.932 221.232 119.197 221.31 121.507 221.232C125.758 221.211 129.919 220.008 133.525 217.758C136.513 215.612 138.926 212.763 140.55 209.462C141.889 206.745 142.929 203.89 143.652 200.948C144.334 198.374 144.846 196.126 145.202 194.296C145.559 192.466 145.869 191.086 146.071 190.078C146.179 189.628 146.257 189.271 146.319 188.992C146.373 188.808 146.468 188.638 146.598 188.496Z" fill="#263238"/>
<path d="M135.48 114.618C133.825 116.827 132.317 119.143 130.967 121.55C129.843 124.071 128.879 126.661 128.083 129.304C128.152 126.47 128.913 123.697 130.3 121.225C131.473 118.64 133.249 116.374 135.48 114.618Z" fill="#263238"/>
<path d="M130.208 197.087C128.204 195.674 125.93 194.69 123.529 194.197C121.128 193.703 118.65 193.71 116.251 194.218C116.871 193.796 117.584 193.53 118.329 193.443C120.105 193.083 121.935 193.083 123.71 193.443C125.478 193.802 127.155 194.514 128.642 195.536C129.727 196.358 130.27 197.025 130.208 197.087Z" fill="#263238"/>
</svg>
