<svg width="251" height="483" viewBox="0 0 251 483" fill="none" xmlns="http://www.w3.org/2000/svg">
<path d="M241.042 423.456L64.8561 412.052L48.7495 482.85H245.416C247.102 462.945 245.626 442.899 241.042 423.456Z" fill="#263238"/>
<path d="M139.017 8.02189C140.382 5.88162 142.377 4.21844 144.729 3.26258C147.08 2.30672 149.67 2.1055 152.14 2.68679C155.272 0.651582 158.998 -0.270553 162.718 0.0688504C166.437 0.408254 169.935 1.98942 172.647 4.55785C174.958 3.43628 177.515 2.91984 180.08 3.05694C182.645 3.19404 185.134 3.98017 187.312 5.34168C189.465 6.75259 191.224 8.68817 192.422 10.9662C193.621 13.2443 194.221 15.7899 194.164 18.3635C196.772 18.1977 199.368 18.8362 201.602 20.1927C203.836 21.5492 205.599 23.5583 206.655 25.949C207.634 28.3706 207.856 31.0321 207.292 33.5825C206.727 36.1328 205.403 38.4524 203.494 40.2351C206.178 41.4466 208.348 43.5672 209.62 46.2227C210.892 48.8783 211.185 51.898 210.448 54.7486C209.554 57.5538 207.686 59.9468 205.182 61.4955C202.678 63.0443 199.703 63.6466 196.794 63.1938L140.231 22.2827C138.575 20.325 137.569 17.9007 137.351 15.3457C137.134 12.7907 137.716 10.2313 139.017 8.02189Z" fill="#263238"/>
<path d="M198.411 64.9141C198.34 52.1494 193.468 39.8791 184.764 30.5423C176.059 21.2055 164.16 15.4861 151.432 14.521L148.903 14.344C120.534 13.9647 109.762 39.4773 110.141 67.9988L105.084 173.539L147.159 215.764L162.532 187.673L167.842 159.682C167.842 159.682 195.301 157.381 197.577 130.124C198.513 116.951 198.614 89.6428 198.411 64.9141Z" fill="#AE7461"/>
<path d="M167.892 159.656C155.265 158.743 143.173 154.194 133.075 146.558C133.075 146.558 139.017 167.494 166.274 166.988L167.892 159.656Z" fill="#6F4439"/>
<path d="M188.727 87.8476C188.668 88.8627 188.215 89.8144 187.463 90.4995C186.712 91.1846 185.723 91.5487 184.706 91.514C184.209 91.521 183.715 91.4273 183.254 91.2385C182.794 91.0498 182.376 90.7698 182.027 90.4155C181.677 90.0612 181.403 89.6399 181.22 89.1769C181.038 88.7138 180.951 88.2188 180.964 87.7212C181.023 86.7062 181.477 85.7544 182.228 85.0694C182.979 84.3843 183.969 84.0202 184.985 84.0549C185.481 84.0514 185.974 84.1475 186.433 84.3375C186.891 84.5275 187.308 84.8076 187.657 85.1612C188.005 85.5147 188.28 85.9346 188.464 86.396C188.648 86.8575 188.737 87.351 188.727 87.8476Z" fill="#263238"/>
<path d="M191.889 79.2756C191.383 79.7307 188.602 77.3539 184.303 77.0505C180.005 76.7471 176.92 78.6434 176.515 78.1125C176.111 77.5815 176.844 76.9747 178.26 76.0897C180.146 74.9589 182.339 74.446 184.531 74.6231C186.711 74.7638 188.786 75.6066 190.447 77.0252C191.712 78.1125 192.066 79.0481 191.889 79.2756Z" fill="#263238"/>
<path d="M152.849 86.0014C152.784 87.0008 152.339 87.9375 151.606 88.6193C150.872 89.3011 149.906 89.6763 148.904 89.6678C148.406 89.6679 147.913 89.5686 147.454 89.3758C146.995 89.1831 146.579 88.9006 146.231 88.545C145.882 88.1895 145.608 87.7679 145.425 87.3051C145.241 86.8423 145.152 86.3475 145.162 85.8497C145.227 84.837 145.682 83.889 146.432 83.2052C147.182 82.5214 148.168 82.1551 149.182 82.1834C149.674 82.1933 150.158 82.2998 150.609 82.4971C151.059 82.6943 151.466 82.9783 151.806 83.3328C152.147 83.6874 152.414 84.1056 152.593 84.5634C152.772 85.0213 152.859 85.5099 152.849 86.0014Z" fill="#263238"/>
<path d="M151.964 75.7603C151.433 76.2407 148.651 73.8386 144.378 73.5605C140.105 73.2823 137.02 75.1534 136.59 74.5972C136.16 74.0409 136.944 73.4846 138.36 72.5996C140.244 71.4624 142.438 70.9492 144.631 71.1331C146.802 71.2792 148.868 72.1216 150.522 73.5352C151.837 74.6477 152.216 75.6085 151.964 75.7603Z" fill="#263238"/>
<path d="M163.468 107.898C165.71 107.352 168.013 107.097 170.32 107.139C171.407 107.139 172.419 106.987 172.646 106.254C172.819 105.16 172.651 104.039 172.166 103.043L169.637 94.6484C166.097 82.7138 163.619 72.9538 164.1 72.8021C164.58 72.6504 167.817 82.2334 171.357 94.1426C172.216 97.0757 173.059 99.8824 173.885 102.563C174.468 103.904 174.558 105.409 174.138 106.81C173.969 107.182 173.714 107.507 173.392 107.758C173.071 108.009 172.693 108.178 172.292 108.252C171.679 108.321 171.06 108.321 170.446 108.252C168.115 108.428 165.77 108.309 163.468 107.898Z" fill="#263238"/>
<path d="M150.977 109.921C151.659 109.921 151.331 114.472 154.972 117.987C158.613 121.502 163.493 121.35 163.467 121.982C163.442 122.614 162.33 122.791 160.282 122.69C157.627 122.54 155.11 121.456 153.176 119.63C151.339 117.848 150.246 115.436 150.117 112.879C150.092 110.958 150.673 109.87 150.977 109.921Z" fill="#263238"/>
<path d="M152.874 63.8518C152.292 64.8885 148.777 63.6495 144.403 63.4219C140.029 63.1944 136.337 63.8265 135.958 62.7139C135.806 62.183 136.615 61.2474 138.208 60.413C140.262 59.4313 142.538 59.0042 144.808 59.1741C147.053 59.2925 149.223 60.0273 151.078 61.298C152.52 62.3094 153.127 63.3461 152.874 63.8518Z" fill="#263238"/>
<path d="M191.685 67.6945C190.977 68.6553 188.07 67.6945 184.606 67.6945C181.141 67.6945 178.234 68.4025 177.551 67.4164C177.248 66.936 177.703 65.9752 178.967 65.0396C180.676 63.9425 182.673 63.3783 184.703 63.4188C186.734 63.4593 188.707 64.1027 190.371 65.2672C191.61 66.2533 192.014 67.2141 191.685 67.6945Z" fill="#263238"/>
<path d="M196.693 52.2205C196.693 52.2205 190.776 34.521 182.862 30.0203C173.279 24.4829 168.222 35.0772 158.967 31.7902C149.713 28.5031 140.56 23.1427 130.37 29.818C119.219 37.1 123.771 43.0926 122.228 55.103C116.059 104.03 106.147 117.279 105.262 93.9661C105.262 91.4376 98.334 88.9091 98.0558 78.1124C97.7271 64.1298 98.4097 47.2394 102.177 37.6563C105.388 29.5398 110.496 24.1289 119.396 18.4145C133.43 9.38772 151.761 10.475 164.1 12.6242C176.439 14.7734 199.474 30.9053 196.693 52.2205Z" fill="#263238"/>
<path d="M110.495 93.6372C110.536 92.637 110.374 91.6388 110.018 90.7029C109.663 89.7671 109.121 88.9129 108.427 88.1922C107.732 87.4714 106.898 86.8989 105.976 86.5093C105.054 86.1197 104.062 85.921 103.061 85.9252C98.0043 86.0517 92.1129 88.4538 91.7083 99.0735C90.9498 117.784 109.787 114.674 109.838 114.118C109.888 113.562 110.242 101.476 110.495 93.6372Z" fill="#AE7461"/>
<path d="M106.071 106.936C106.071 106.936 105.742 107.138 105.186 107.366C104.786 107.537 104.356 107.625 103.922 107.625C103.487 107.625 103.057 107.537 102.657 107.366C101.485 106.547 100.549 105.433 99.9449 104.137C99.3411 102.84 99.0906 101.407 99.2188 99.9828C99.24 98.3767 99.6201 96.7958 100.331 95.3556C100.52 94.7768 100.85 94.254 101.292 93.8347C101.733 93.4153 102.272 93.1125 102.86 92.9535C103.235 92.8645 103.63 92.9123 103.973 93.0885C104.316 93.2646 104.585 93.5575 104.731 93.9144C104.958 94.4454 104.731 94.8246 104.933 94.8499C105.135 94.8752 105.338 94.5465 105.211 93.7627C105.129 93.2992 104.888 92.8789 104.529 92.5743C104.03 92.1713 103.398 91.9724 102.759 92.018C101.986 92.1407 101.259 92.4614 100.647 92.9488C100.036 93.4363 99.5611 94.0738 99.2693 94.7994C98.4196 96.3516 97.9597 98.087 97.9292 99.8564C97.9292 103.624 99.6738 107.24 102.329 108.125C102.822 108.295 103.347 108.35 103.865 108.284C104.383 108.218 104.878 108.034 105.312 107.745C105.919 107.391 106.122 106.961 106.071 106.936Z" fill="#6F4439"/>
<path d="M110.015 57.2512C112.154 59.2666 114.761 60.7178 117.601 61.4738C119.03 61.8037 120.53 61.6003 121.82 60.9019C123.11 60.2035 124.1 59.0582 124.605 57.681C124.934 56.3915 124.605 54.8491 125.641 53.9135C126.678 52.978 128.575 53.3067 130.117 53.5849C132.814 53.9909 135.568 53.4591 137.92 52.0785C140.271 50.6978 142.078 48.552 143.038 45.9994C143.814 46.9636 144.918 47.6094 146.139 47.8145C147.36 48.0195 148.613 47.7696 149.662 47.1119C151.697 45.6828 153.526 43.9813 155.099 42.0549C155.887 41.0883 156.902 40.331 158.053 39.8503C159.204 39.3695 160.456 39.1801 161.698 39.2988C162.97 39.849 164.303 40.2478 165.668 40.4872C168.196 40.4872 169.511 37.6553 170.067 35.2532C170.624 32.8512 171.079 30.0445 173.253 28.8561C175.428 27.6677 177.678 28.6538 179.903 29.1595C182.128 29.6652 184.96 29.3365 185.795 27.162C185.932 26.5776 185.949 25.9714 185.845 25.3802C185.74 24.789 185.517 24.2253 185.188 23.7233C183.855 21.3573 181.758 19.515 179.24 18.4994C176.721 17.4839 173.932 17.3554 171.332 18.1352C170.66 14.9689 169.06 12.0747 166.736 9.82191C164.412 7.56917 161.469 6.06018 158.283 5.48762C155.097 4.91506 151.813 5.30496 148.85 6.60742C145.887 7.90989 143.379 10.0659 141.647 12.8001C139.809 10.8598 137.527 9.39472 134.998 8.53081C132.468 7.66689 129.767 7.42993 127.126 7.84027C124.485 8.25061 121.983 9.296 119.835 10.8866C117.687 12.4772 115.957 14.5656 114.794 16.9721C112.554 16.2171 110.141 16.1371 107.856 16.7421C105.57 17.3471 103.513 18.6103 101.94 20.3749C100.367 22.1395 99.3466 24.3275 99.0066 26.6671C98.6667 29.0066 99.0218 31.3944 100.028 33.5338C98.2358 34.2714 96.6601 35.4517 95.4485 36.964C94.2368 38.4764 93.4287 40.2715 93.0997 42.1813C92.7457 46.0499 96.2098 50.1713 100.003 49.4128C99.1902 50.8903 98.9423 52.6126 99.3051 54.2592C99.6679 55.9058 100.617 57.3645 101.975 58.3637C103.398 59.2682 105.103 59.6185 106.767 59.3482C108.431 59.0778 109.938 58.2056 111.002 56.8972" fill="#263238"/>
<path d="M98.662 49.1854C98.5407 49.826 98.5593 50.4854 98.7164 51.1181C98.8735 51.7509 99.1654 52.3423 99.5723 52.8518C100.383 54.119 101.651 55.0247 103.112 55.3803C104.044 55.6058 105.014 55.6182 105.951 55.4169C106.887 55.2155 107.767 54.8055 108.523 54.2172L107.739 54.0402C108.588 55.8602 109.733 57.5265 111.128 58.9707C112.037 59.9536 113.127 60.7521 114.339 61.3223C115.5 61.8568 116.783 62.0749 118.056 61.9544C119.128 61.9362 120.183 61.6848 121.148 61.2176C122.113 60.7504 122.965 60.0785 123.644 59.2489C124.464 58.1056 125.064 56.8194 125.414 55.4561C125.59 54.9789 125.676 54.473 125.666 53.9643C125.666 53.9643 125.388 54.4448 125.009 55.3297C124.542 56.5676 123.876 57.7207 123.037 58.7432C122.29 59.4805 121.399 60.055 120.42 60.4303C119.44 60.8057 118.393 60.9737 117.345 60.9238C116.297 60.8739 115.271 60.6072 114.331 60.1404C113.392 59.6737 112.559 59.0171 111.886 58.2122C110.59 56.8484 109.508 55.297 108.675 53.6103L108.447 53.0035L107.967 53.4081C107.325 53.9052 106.586 54.2613 105.797 54.453C105.009 54.6447 104.189 54.6678 103.39 54.5206C102.104 54.2554 100.956 53.5376 100.154 52.4978C99.4526 51.4973 98.9465 50.3736 98.662 49.1854Z" fill="#D0DADF"/>
<path d="M136.792 9.05785C137.202 9.27477 137.624 9.46894 138.056 9.63944C139.208 10.2388 140.151 11.1733 140.761 12.3196L140.964 12.6989L141.242 12.3702C143.794 9.37525 147.065 7.07828 150.749 5.69498C153.113 4.80836 155.639 4.43759 158.157 4.60767C160.941 4.81525 163.613 5.79611 165.869 7.43965C167.642 8.70536 169.125 10.3345 170.218 12.2185C171.216 13.9915 171.779 15.9759 171.862 18.0088V18.5904H172.443C175.07 18.0883 177.788 18.623 180.029 20.0822C181.805 21.2509 183.167 22.9496 183.923 24.9368C184.566 26.7342 184.824 28.6466 184.681 30.5501C184.894 30.0725 185.006 29.556 185.01 29.033C185.143 27.5704 184.962 26.0963 184.479 24.7093C183.756 22.5611 182.365 20.7004 180.509 19.3994C178.082 17.7273 175.092 17.0821 172.191 17.6042L172.797 18.0846C172.74 15.8861 172.15 13.7344 171.078 11.8139C169.908 9.81368 168.322 8.08889 166.426 6.75691C164.018 4.99874 161.158 3.96374 158.183 3.77329C155.52 3.62158 152.855 4.04409 150.37 5.01223C146.575 6.49137 143.254 8.97338 140.761 12.1932H141.216C140.521 10.9766 139.433 10.0317 138.132 9.51297C137.723 9.26575 137.266 9.11046 136.792 9.05785Z" fill="#D0DADF"/>
<path d="M81.0386 425.023C81.4313 425.257 81.8463 425.452 82.2775 425.605L85.8933 427.071C89.0539 428.335 93.7064 430.004 99.4714 431.901C105.236 433.797 112.24 435.82 120.028 437.767C127.816 439.714 136.539 441.484 145.718 442.95C154.896 444.417 163.695 445.302 171.736 445.883C179.777 446.465 187.033 446.642 193.102 446.591C199.17 446.541 204.126 446.389 207.514 446.136L211.433 445.858C211.886 445.859 212.337 445.8 212.774 445.681C212.319 445.643 211.862 445.643 211.408 445.681H207.489C204.101 445.681 199.195 445.833 193.102 445.681C187.008 445.529 179.827 445.302 171.812 444.72C163.796 444.139 155.048 443.127 145.895 441.711C136.741 440.295 128.195 438.475 120.306 436.654C112.417 434.834 105.514 432.836 99.7242 431.016C93.9339 429.195 89.2562 427.703 86.0703 426.565L82.3534 425.301C81.9294 425.15 81.4873 425.057 81.0386 425.023Z" fill="#263238"/>
<path d="M198.032 175.509L167.007 170.452C167.007 170.452 165.364 183.449 144.251 183.879C120.003 184.384 103.036 163.651 103.036 163.651C103.036 163.651 49.2804 179.176 38.686 187.115C28.0916 195.055 62.6815 360.798 62.6815 360.798L65.8169 410.18C65.8169 410.18 58.7876 418.979 58.7876 427.55C58.9979 432.239 57.4872 436.844 54.5397 440.496C119.143 458.626 189.005 474.808 247.995 457.286C247.995 457.286 246.529 428.157 243.115 420.218C239.702 412.278 240.334 411.545 240.334 411.545L230.65 325.121L221.37 241.048L198.032 175.509Z" fill="#D0DADF"/>
<path d="M198.032 175.51C198.032 175.51 213.355 180.188 222.255 189.847C231.156 199.506 250.853 233.034 250.853 233.034L233.709 288.459L208.905 276.448L198.032 175.51Z" fill="#D0DADF"/>
<path d="M217.173 238.141C217.947 240.684 218.497 243.289 218.817 245.928C219.677 250.758 220.713 257.458 221.75 264.867C222.787 272.275 223.621 279.026 224.101 283.906C224.478 286.535 224.622 289.192 224.531 291.846C223.88 289.271 223.424 286.651 223.166 284.007C222.407 278.773 221.472 272.25 220.46 265.044C219.449 257.837 218.615 251.314 217.932 246.055C217.468 243.441 217.214 240.795 217.173 238.141Z" fill="#263238"/>
<path d="M33.0739 191.515C33.0739 191.515 19.951 219.885 18.7121 229.089C17.6501 236.472 9.48302 330.634 8.74975 344.464C8.01648 358.295 3.4146 387.171 20.9118 397.133C32.9728 404.011 93.7832 413.847 90.1675 413.29C96.337 401.28 87.9677 393.593 99.0425 383.53L57.7015 353.719L65.8433 253.363L33.0739 191.515Z" fill="#AE7461"/>
<path d="M34.7925 367.802C36.9138 363.596 40.1954 360.087 44.2491 357.688C48.0884 354.98 52.6064 353.395 57.2961 353.111C52.9748 354.516 48.8201 356.39 44.9065 358.699C41.2025 361.342 37.8096 364.396 34.7925 367.802Z" fill="#6F4439"/>
<path d="M103.872 383.606C103.872 383.606 110.623 377.563 115.933 376.981C121.243 376.4 128.272 377.967 129.612 377.184C130.952 376.4 133.961 373.138 136.211 375.565C138.462 377.993 141.648 387.019 130.75 390.332L123.164 390.837C123.803 394.464 124.98 397.975 126.654 401.255C128.727 404.137 156.793 434.884 156.793 434.884C156.793 434.884 160.257 437.893 158.867 441.231C157.476 444.568 150.422 443.203 150.422 443.203C149.123 444.512 147.517 445.476 145.75 446.006C143.984 446.536 142.113 446.616 140.308 446.237C137.492 445.492 134.769 444.432 132.191 443.076C130.499 444.565 128.365 445.456 126.116 445.612C123.868 445.767 121.631 445.178 119.751 443.936C112.949 439.536 84.9839 409.548 84.9839 409.548L95.0979 383.277L103.872 383.606Z" fill="#AE7461"/>
<path d="M128.979 423.455C129.283 423.202 133.505 428.108 139.397 433.392C145.288 438.677 150.75 442.242 150.522 442.545C149.178 442.074 147.922 441.382 146.805 440.497C143.922 438.643 141.183 436.572 138.613 434.302C136.058 432.012 133.666 429.545 131.457 426.919C130.46 425.897 129.625 424.729 128.979 423.455Z" fill="#6F4439"/>
<path d="M116.615 430.787C116.893 430.509 120.003 433.771 124.479 436.906C127.401 438.596 130.024 440.758 132.241 443.304C129.302 441.702 126.48 439.894 123.796 437.893C120.92 436.068 118.47 433.645 116.615 430.787Z" fill="#6F4439"/>
<path d="M0 291.366L61.4426 303.073L79.3192 246.081L64.7044 178.342C64.7044 178.342 32.0108 179.531 21.2647 206.282C10.5186 233.034 0 291.366 0 291.366Z" fill="#D0DADF"/>
<path d="M63.415 234.5C63.5861 235.4 63.6624 236.315 63.6426 237.231C63.6426 239.001 63.6426 241.58 63.6426 244.816C63.6426 251.138 63.4656 259.987 63.1116 269.545C62.7576 279.103 62.4541 287.599 62.2013 294.249C62.0749 297.182 61.9737 299.685 61.8979 301.834C61.9215 302.762 61.8195 303.689 61.5945 304.59C61.4248 303.682 61.3486 302.758 61.3669 301.834C61.3669 300.064 61.3669 297.51 61.3669 294.249C61.3669 287.927 61.5439 279.078 61.8979 269.52C62.2519 259.962 62.5553 251.466 62.8082 244.816C62.9346 241.883 63.0357 239.38 63.1116 237.231C63.0831 236.311 63.1853 235.391 63.415 234.5Z" fill="#263238"/>
</svg>
