<svg width="175" height="600" viewBox="0 0 175 600" fill="none" xmlns="http://www.w3.org/2000/svg">
<path d="M122.256 551.063L121.582 534.162L92.1399 533.055L92.5724 553.727L103.297 560.197L122.256 551.063Z" fill="#FFBE9D"/>
<path d="M91.9321 549.887V551.824C91.9321 551.824 59.2382 565.317 58.9441 571.544L124.124 570.593L122.914 548.918C118.122 551.295 112.875 552.611 107.528 552.779C102.182 552.946 96.8629 551.959 91.9321 549.887Z" fill="#3780EF"/>
<g opacity="0.6">
<path d="M116.426 555.941C117.056 556.123 117.596 556.531 117.944 557.086C118.292 557.642 118.423 558.306 118.312 558.951C118.159 559.589 117.766 560.142 117.215 560.497C116.664 560.851 115.997 560.979 115.354 560.854C114.684 560.663 114.109 560.23 113.741 559.638C113.373 559.047 113.239 558.339 113.364 557.654C113.6 557.006 114.078 556.474 114.697 556.171C115.316 555.868 116.029 555.816 116.686 556.028" fill="white"/>
</g>
<g opacity="0.6">
<path d="M124.142 570.593L123.848 565.403L61.47 568.206C61.47 568.206 58.5812 569.52 58.9444 571.544L124.142 570.593Z" fill="white"/>
</g>
<path d="M91.7245 552.015C91.7245 552.326 93.3332 552.447 94.9074 553.45C96.4815 554.454 97.3465 555.768 97.6406 555.647C97.9346 555.526 97.433 553.675 95.4956 552.499C93.5582 551.323 91.6553 551.721 91.7245 552.015Z" fill="#263238"/>
<path d="M84.9264 554.938C84.9264 555.249 86.2411 555.768 87.3482 557.1C88.4553 558.432 88.7839 559.851 89.078 559.833C89.3721 559.816 89.5797 558 88.1785 556.374C86.7773 554.748 84.9264 554.713 84.9264 554.938Z" fill="#263238"/>
<path d="M81.1725 563.172C81.4493 563.172 81.8817 561.65 81.0341 559.92C80.1864 558.19 78.6988 557.515 78.5604 557.775C78.422 558.034 79.3561 558.968 80.0308 560.387C80.7054 561.805 80.8438 563.155 81.1725 563.172Z" fill="#263238"/>
<path d="M162.492 514.892L162.042 565.472L138.724 563.795L133.604 514.529L162.492 514.892Z" fill="#FFBE9D"/>
<path d="M137.928 553.865C137.928 553.865 154.31 565.248 162.284 555.44L164.343 560.214L173.615 594.136C173.92 595.211 173.818 596.36 173.33 597.365C172.842 598.37 172.001 599.16 170.968 599.585C170.167 599.889 169.297 599.967 168.454 599.808C167.612 599.649 166.83 599.261 166.194 598.686C159.447 592.406 134.78 569.278 135.057 566.095L135.161 557.757C135.176 556.903 135.451 556.074 135.948 555.379C136.445 554.684 137.142 554.156 137.946 553.865H137.928Z" fill="#3780EF"/>
<g opacity="0.6">
<path d="M170.172 599.81L135.022 563.189V565.092C134.99 565.848 135.129 566.601 135.429 567.296C135.728 567.991 136.18 568.609 136.752 569.105C139.606 572.859 147.477 581.214 166.159 598.772C166.705 599.276 167.364 599.641 168.081 599.836C168.797 600.032 169.55 600.053 170.276 599.897L170.172 599.81Z" fill="white"/>
</g>
<g opacity="0.6">
<path d="M140.195 557.775C140.73 558.153 141.105 558.717 141.245 559.357C141.386 559.997 141.283 560.667 140.956 561.234C140.573 561.763 140.009 562.133 139.371 562.273C138.733 562.414 138.066 562.315 137.496 561.996C137.202 561.812 136.949 561.569 136.752 561.282C136.556 560.996 136.421 560.672 136.355 560.331C136.289 559.99 136.295 559.64 136.371 559.301C136.447 558.962 136.592 558.643 136.797 558.362C137.002 558.082 137.263 557.847 137.563 557.672C137.863 557.498 138.195 557.386 138.54 557.346C138.885 557.305 139.235 557.336 139.567 557.437C139.899 557.537 140.207 557.705 140.472 557.93" fill="white"/>
</g>
<path d="M160.071 581.076C161.127 579.718 162.437 578.578 163.928 577.72C165.545 577.095 167.263 576.773 168.996 576.769C168.996 576.665 168.478 576.336 167.44 576.198C166.088 576.045 164.72 576.279 163.496 576.872C162.272 577.447 161.244 578.367 160.538 579.519C160.07 580.401 159.949 581.041 160.071 581.076Z" fill="#263238"/>
<path d="M163.202 586.819C164.462 586.112 165.768 585.488 167.111 584.951C168.53 584.69 169.962 584.511 171.401 584.415C170.716 584.006 169.946 583.761 169.151 583.698C168.356 583.635 167.558 583.756 166.817 584.051C164.239 584.795 162.977 586.698 163.202 586.819Z" fill="#263238"/>
<path d="M154.189 573.741C156.067 572.504 158.032 571.406 160.07 570.455C162.203 569.795 164.383 569.297 166.592 568.967C164.286 568.345 161.835 568.559 159.672 569.572C157.406 570.265 155.462 571.743 154.189 573.741Z" fill="#263238"/>
<path d="M153.428 563.362C153.549 563.622 155.988 562.636 159.153 562.515C162.319 562.394 164.827 563.138 164.931 562.861C163.137 561.933 161.131 561.491 159.113 561.579C157.095 561.667 155.135 562.282 153.428 563.362Z" fill="#263238"/>
<path d="M160.953 562.445C160.996 561.898 160.914 561.347 160.71 560.837C160.283 559.396 159.571 558.055 158.617 556.893C157.988 555.969 157.069 555.281 156.005 554.938C155.645 554.836 155.262 554.853 154.913 554.987C154.563 555.121 154.267 555.365 154.068 555.682C153.707 556.291 153.589 557.014 153.739 557.706C154.124 559.125 154.99 560.367 156.189 561.219C157.388 562.07 158.846 562.48 160.313 562.376C161.761 562.271 163.146 561.741 164.294 560.852C165.442 559.962 166.302 558.753 166.765 557.377C166.877 557.032 166.91 556.667 166.862 556.308C166.815 555.948 166.687 555.604 166.488 555.301C166.251 555.013 165.932 554.805 165.574 554.703C165.215 554.601 164.834 554.61 164.481 554.73C163.468 555.157 162.581 555.836 161.904 556.702C160.911 557.826 160.12 559.114 159.569 560.508C159.332 561 159.203 561.536 159.188 562.082C160.01 560.284 161.101 558.622 162.423 557.152C163.024 556.39 163.81 555.795 164.706 555.422C164.896 555.354 165.103 555.345 165.298 555.398C165.492 555.45 165.666 555.562 165.796 555.716C165.908 555.927 165.975 556.159 165.993 556.397C166.011 556.636 165.979 556.875 165.9 557.1C165.463 558.275 164.701 559.301 163.702 560.057C162.703 560.814 161.51 561.27 160.261 561.373C159.021 561.448 157.791 561.106 156.769 560.4C155.747 559.695 154.991 558.667 154.621 557.481C154.499 557.005 154.555 556.501 154.777 556.062C154.888 555.886 155.051 555.75 155.243 555.672C155.436 555.595 155.648 555.58 155.85 555.63C156.74 555.926 157.519 556.487 158.081 557.239C159.352 558.782 160.325 560.547 160.953 562.445Z" fill="#263238"/>
<path d="M76.5019 242.598L76.0867 248.186L62.9226 272.749C62.9226 272.749 57.0931 309.578 61.1928 333.882C65.4828 359.587 70.828 416.257 71.2605 428.729C71.6929 441.201 88.2821 541.809 88.2821 541.809L124.315 540.823C124.315 540.823 117.395 428.054 116.686 413.368C115.977 398.682 116.133 335.197 116.133 335.197L116.046 250.953L74.1147 241.18" fill="#263238"/>
<path d="M130.127 539.992L116.098 329.228L108.486 250.538L155.192 237.305L157.043 247.009C157.043 247.009 174.912 288.923 174.566 301.326C173.563 336.078 170.968 423.418 170.968 423.418L165.173 538.625L130.127 539.992Z" fill="#263238"/>
<path d="M112.967 257.406C113.06 257.654 113.107 257.918 113.105 258.184C113.105 258.789 113.243 259.516 113.347 260.398C113.52 262.336 113.745 265.138 113.953 268.598C114.385 275.517 114.748 285.083 115.094 295.652C115.44 306.222 115.769 315.684 116.011 322.724C116.15 326.097 116.271 328.865 116.357 330.924C116.357 331.806 116.357 332.55 116.357 333.155C116.386 333.414 116.386 333.675 116.357 333.934C116.265 333.69 116.218 333.433 116.219 333.172C116.219 332.567 116.08 331.823 115.977 330.941C115.804 329.021 115.579 326.219 115.371 322.759C114.939 315.84 114.575 306.256 114.229 295.687C113.883 285.118 113.555 275.673 113.313 268.615C113.174 265.259 113.053 262.491 112.967 260.415C112.967 259.533 112.967 258.789 112.967 258.184C112.937 257.925 112.937 257.664 112.967 257.406Z" fill="#455A64"/>
<path d="M166.851 275.534C166.47 275.764 166.056 275.934 165.623 276.036C165.131 276.207 164.628 276.346 164.118 276.451C163.452 276.619 162.776 276.746 162.094 276.832C160.313 277.086 158.509 277.15 156.714 277.022C154.513 276.853 152.338 276.441 150.227 275.794C148.127 275.121 146.108 274.216 144.208 273.095C142.662 272.165 141.219 271.075 139.9 269.843C139.391 269.384 138.911 268.893 138.465 268.373C138.101 268 137.766 267.601 137.461 267.179C136.96 266.487 136.7 266.09 136.752 266.055C136.804 266.02 138.015 267.456 140.298 269.411C141.634 270.547 143.07 271.56 144.588 272.438C146.46 273.487 148.43 274.35 150.47 275.015C152.521 275.643 154.631 276.06 156.766 276.261C158.493 276.413 160.229 276.413 161.956 276.261C165 275.967 166.799 275.379 166.851 275.534Z" fill="#455A64"/>
<path d="M80.9479 261.28C80.6565 262.373 80.1701 263.405 79.5121 264.325C76.589 269.007 72.1879 272.58 67.0054 274.479C65.9698 274.926 64.8625 275.184 63.736 275.24C67.2512 273.906 70.5638 272.09 73.5788 269.843C76.4286 267.353 78.9098 264.469 80.9479 261.28Z" fill="#455A64"/>
<path d="M105.269 442.152C103.831 441.73 102.445 441.15 101.135 440.423C98.6437 439.212 95.2705 437.395 91.6724 435.233C88.5948 433.345 85.6156 431.301 82.7464 429.11C81.4968 428.262 80.3375 427.288 79.2867 426.203C80.6059 426.916 81.8669 427.732 83.0578 428.642C85.3239 430.199 88.4895 432.327 92.0703 434.541C95.6511 436.755 98.9896 438.624 101.377 439.956C102.726 440.593 104.026 441.327 105.269 442.152Z" fill="#455A64"/>
<path d="M124.453 44.4103L93.2124 35.986C83.1793 34.7578 76.3118 47.0224 75.5161 57.1073C74.6166 68.2821 73.9938 81.9824 75.1874 90.3549C77.5919 107.204 90.4273 109.556 90.4273 109.556C90.4273 109.556 90.4273 109.556 90.4273 119.191C90.4273 128.169 90.7214 134.293 100.893 136.836C110.978 137.199 124.834 132.096 125.111 122.668L129.625 50.4821C129.676 49.0073 129.173 47.5668 128.216 46.4435C127.26 45.3202 125.917 44.595 124.453 44.4103Z" fill="#FFBE9D"/>
<path d="M81.4144 69.8737C81.4002 70.434 81.6058 70.9776 81.9873 71.3881C82.3688 71.7987 82.8958 72.0437 83.4556 72.0706C83.7288 72.0967 84.0045 72.0678 84.2664 71.9858C84.5284 71.9037 84.7712 71.7701 84.9808 71.5928C85.1903 71.4155 85.3623 71.1981 85.4865 70.9534C85.6108 70.7087 85.6849 70.4416 85.7044 70.1678C85.7188 69.6058 85.5137 69.0603 85.1326 68.6469C84.7516 68.2336 84.2245 67.9849 83.6632 67.9536C83.389 67.93 83.1129 67.9611 82.8509 68.0451C82.5889 68.1291 82.3462 68.2644 82.137 68.4431C81.9277 68.6218 81.7561 68.8402 81.632 69.0858C81.508 69.3314 81.434 69.5993 81.4144 69.8737Z" fill="#263238"/>
<path d="M78.3528 64.9091C78.6296 65.1859 80.2729 64.0096 82.5909 64.0614C84.9089 64.1133 86.5869 65.2896 86.8464 64.9956C87.1058 64.7015 86.708 64.3728 85.9814 63.8193C84.9734 63.0955 83.7627 62.7081 82.5218 62.7122C81.3185 62.6928 80.1392 63.0496 79.1485 63.7328C78.4739 64.269 78.2317 64.788 78.3528 64.9091Z" fill="#263238"/>
<path d="M102.882 69.8738C102.872 70.4357 103.081 70.9792 103.466 71.3893C103.85 71.7994 104.379 72.0438 104.94 72.0707C105.213 72.0967 105.489 72.0679 105.751 71.9858C106.013 71.9038 106.256 71.7702 106.465 71.5929C106.675 71.4156 106.847 71.1982 106.971 70.9535C107.095 70.7087 107.169 70.4416 107.189 70.1678C107.199 69.607 106.992 69.0639 106.612 68.6515C106.232 68.2391 105.707 67.9892 105.148 67.9536C104.873 67.93 104.596 67.9609 104.332 68.0448C104.069 68.1286 103.826 68.2636 103.615 68.4421C103.404 68.6206 103.231 68.8389 103.105 69.0846C102.979 69.3304 102.903 69.5985 102.882 69.8738Z" fill="#263238"/>
<path d="M101.36 65.1686C101.619 65.4626 103.28 64.2691 105.598 64.3209C107.916 64.3728 109.594 65.5491 109.853 65.2724C110.113 64.9956 109.715 64.6323 108.988 64.0788C107.979 63.3582 106.769 62.9711 105.529 62.9717C104.322 62.9466 103.139 63.3105 102.155 64.0096C101.481 64.5804 101.256 65.1686 101.36 65.1686Z" fill="#263238"/>
<path d="M92.4681 82.1729C91.2558 81.7579 89.9933 81.5077 88.7143 81.429C88.1262 81.429 87.5553 81.2387 87.4689 80.8236C87.4287 80.2182 87.5735 79.6149 87.884 79.0937C88.4721 77.6753 89.0776 76.1703 89.7176 74.6135C91.3965 70.8185 92.7732 66.8968 93.8347 62.8851C91.8433 66.5291 90.154 70.3302 88.7836 74.2502C88.1608 75.8243 87.59 77.3293 87.0537 78.7651C86.6636 79.4711 86.5407 80.2939 86.7077 81.0831C86.7871 81.2938 86.9144 81.4831 87.0795 81.6362C87.2446 81.7893 87.4431 81.902 87.6592 81.9653C87.9852 82.0614 88.3226 82.1137 88.6624 82.121C89.9247 82.2853 91.2018 82.3027 92.4681 82.1729Z" fill="#263238"/>
<path d="M90.4269 109.591C98.3411 109.83 106.167 107.872 113.036 103.934C113.036 103.934 107.172 115.714 90.375 113.863L90.4269 109.591Z" fill="#EB996E"/>
<path d="M92.7626 87.8122C93.248 87.0245 93.9041 86.356 94.6826 85.8559C95.4611 85.3559 96.342 85.0372 97.2602 84.9234C97.7922 84.8808 98.3247 85 98.7878 85.2655C99.2509 85.531 99.6229 85.9303 99.8549 86.411C100.097 87.0417 100.184 87.7212 100.108 88.3925C100.033 89.0637 99.798 89.7071 99.4225 90.2686C99.0735 90.8594 98.5615 91.3369 97.9478 91.6438C97.334 91.9506 96.6448 92.0738 95.9628 91.9984C94.8319 91.6472 93.828 90.9739 93.0739 90.061C92.8165 89.83 92.6204 89.5387 92.5031 89.2134C92.4447 89.0089 92.4331 88.7939 92.469 88.5843C92.5049 88.3747 92.5875 88.1758 92.7107 88.0025" fill="#EB996E"/>
<path d="M99.2664 83.8852C98.8858 83.8852 98.8512 86.3762 96.6543 88.1233C94.4574 89.8705 91.8107 89.5591 91.7761 89.8532C91.7416 90.1473 92.3643 90.3548 93.506 90.4067C94.9775 90.4488 96.4168 89.971 97.5711 89.0574C98.6837 88.1782 99.4098 86.8999 99.5951 85.494C99.7161 84.4907 99.5259 83.8679 99.2664 83.8852Z" fill="#263238"/>
<path d="M100.218 57.1594C100.495 57.7648 102.778 57.2632 105.511 57.367C108.245 57.4708 110.511 58.007 110.822 57.367C110.96 57.0902 110.528 56.5193 109.594 55.9831C108.355 55.3324 106.98 54.9828 105.581 54.9625C104.178 54.9053 102.783 55.1903 101.516 55.7928C100.547 56.3291 100.097 56.8653 100.218 57.1594Z" fill="#263238"/>
<path d="M78.7677 59.2007C79.2694 59.7369 81.2587 59.2007 83.6459 59.2007C86.033 59.2007 88.057 59.5985 88.524 59.0623C88.7316 58.8028 88.4202 58.2666 87.538 57.7476C86.3214 57.1167 84.9638 56.8071 83.594 56.8481C82.226 56.8386 80.8789 57.1843 79.6845 57.8514C78.7677 58.4049 78.4736 58.9412 78.7677 59.2007Z" fill="#263238"/>
<path d="M135.594 101.322C135.496 101.335 135.397 101.335 135.299 101.322C135.023 101.26 134.751 101.179 134.486 101.08C133.502 100.747 132.595 100.218 131.822 99.523C131.234 98.9978 130.783 98.3379 130.505 97.5998C130.228 96.8616 130.134 96.0674 130.231 95.2849C130.291 94.8098 130.455 94.3539 130.712 93.9501C130.97 93.5462 131.313 93.2045 131.719 92.9496C131.957 92.8179 132.225 92.7488 132.497 92.7488C132.769 92.7488 133.037 92.8179 133.276 92.9496C133.537 93.0789 133.746 93.2934 133.868 93.5576C133.991 93.8218 134.02 94.1199 133.95 94.4027C133.906 94.5461 133.833 94.6787 133.734 94.7919C133.636 94.9051 133.515 94.9965 133.379 95.06C133.14 95.1881 132.872 95.2536 132.601 95.2503C132.093 95.2661 131.589 95.1593 131.131 94.939C130.28 94.5819 129.51 94.0585 128.864 93.3994C127.824 92.3795 127.162 91.0349 126.989 89.5881C126.816 88.1412 127.142 86.6787 127.913 85.4421L128.086 85.2C128.086 85.2 127.913 85.5632 127.654 86.2378C127.316 87.1911 127.186 88.2056 127.273 89.2132C127.389 90.3881 127.824 91.509 128.532 92.4542C129.239 93.3995 130.192 94.1331 131.286 94.5757C131.693 94.7611 132.136 94.8556 132.584 94.8525C132.787 94.871 132.991 94.8261 133.167 94.7239C133.344 94.6216 133.485 94.4671 133.57 94.2816C133.606 94.087 133.579 93.8858 133.491 93.708C133.404 93.5303 133.262 93.3856 133.085 93.2956C132.904 93.1987 132.702 93.148 132.497 93.148C132.292 93.148 132.09 93.1987 131.909 93.2956C131.556 93.5218 131.256 93.8211 131.03 94.1733C130.803 94.5254 130.654 94.9222 130.594 95.3368C130.49 96.1148 130.586 96.9064 130.871 97.6375C131.121 98.2905 131.511 98.8809 132.013 99.3673C132.751 100.063 133.614 100.615 134.556 100.993C135.213 101.166 135.594 101.287 135.594 101.322Z" fill="#263238"/>
<path d="M95.8415 26.1952C94.8558 25.4985 94.1439 24.4799 93.8281 23.3149C93.5124 22.1498 93.6127 20.9112 94.1117 19.8121C93.4197 18.8088 94.2674 17.3384 95.4264 16.9406C96.6218 16.6673 97.8724 16.77 99.0072 17.2346C98.7131 16.6638 99.5607 16.1967 100.201 16.093L104.646 15.4529C103.627 15.1781 102.683 14.6736 101.889 13.978C101.094 13.2824 100.47 12.4141 100.062 11.4397C99.2669 9.47013 99.0743 7.30875 99.5088 5.22956C99.5285 4.92709 99.6091 4.63173 99.7459 4.36121C99.8826 4.0907 100.073 3.85062 100.305 3.6554C101.627 5.18521 102.659 6.94397 103.349 8.84492C103.96 8.88147 104.556 9.04677 105.099 9.32999C105.641 9.6132 106.118 10.0079 106.497 10.4883C106.575 10.3249 106.687 10.1806 106.827 10.0657C106.966 9.95082 107.129 9.86811 107.304 9.8235C107.479 9.77889 107.662 9.77346 107.84 9.80764C108.017 9.84181 108.185 9.91474 108.331 10.0212C109.3 7.40914 111.133 4.65871 113.901 4.38193C113.053 3.15375 114.645 1.70067 115.994 1.04333C116.958 0.507837 118.014 0.161426 119.108 0.0227303C119.654 -0.0457651 120.208 0.0412817 120.707 0.273855C121.206 0.506428 121.629 0.875097 121.928 1.33743C122.054 1.57658 122.126 1.84075 122.138 2.11099C122.151 2.38123 122.103 2.65083 121.999 2.9005C121.895 3.15016 121.736 3.37369 121.536 3.55505C121.335 3.7364 121.097 3.8711 120.838 3.94947C121.391 4.34875 121.794 4.92212 121.982 5.57769C122.17 6.23326 122.133 6.93304 121.876 7.56483C122.32 7.05376 122.924 6.70746 123.589 6.5819C124.255 6.45634 124.943 6.55888 125.543 6.87291C127.473 6.05289 129.589 5.7719 131.666 6.05988C132.203 6.09587 132.718 6.28166 133.154 6.59613C133.466 6.8729 133.656 7.25347 133.985 7.49565C134.478 7.80066 135.047 7.96235 135.628 7.96269C136.965 8.04419 138.244 8.5332 139.295 9.36388C139.811 9.78794 140.181 10.3636 140.351 11.0094C140.522 11.6551 140.486 12.3382 140.247 12.9619C143.308 13.9826 146.387 10.5056 149.553 11.2321C150.453 11.5263 151.272 12.0245 151.947 12.6876C152.622 13.3508 153.135 14.161 153.445 15.055C151.865 15.6603 150.164 15.8855 148.481 15.7124C148.365 16.1695 148.099 16.5746 147.726 16.8631C147.353 17.1515 146.894 17.3067 146.422 17.3038C146.537 17.4698 146.61 17.6614 146.635 17.8619C146.66 18.0625 146.635 18.266 146.564 18.455C146.492 18.644 146.376 18.8128 146.225 18.9468C146.073 19.0807 145.892 19.1759 145.696 19.224C147.64 18.7362 149.682 18.7961 151.594 19.3969C154.535 20.1408 157.753 21.7322 158.41 24.6903C158.591 25.7551 158.591 26.8429 158.41 27.9078C158.202 29.4992 157.355 31.575 155.78 31.2636C154.812 31.0733 154.327 30.0182 153.808 29.1705C152.676 27.2823 150.841 25.92 148.705 25.3822C147.944 26.1087 149.328 27.112 149.934 27.9251C150.539 28.7381 150.262 29.9317 150.401 30.9523C150.85 32.4642 151.527 33.899 152.407 35.2077C153.843 38.3041 153.013 41.9194 152.165 45.2407C151.94 46.123 150.902 47.2301 150.349 46.4862C150.909 46.6337 151.4 46.9717 151.738 47.4421C152.076 47.9125 152.239 48.4859 152.2 49.0637C152.086 50.2132 151.707 51.3205 151.093 52.2985C150.868 52.7309 150.574 53.2153 150.089 53.3191C149.605 53.4229 148.844 52.7655 148.481 52.1428L145.523 47.1436C145.747 48.2909 145.706 49.4744 145.401 50.6032C145.225 51.7046 144.766 52.7413 144.069 53.6116C143.371 54.482 142.459 55.1561 141.423 55.5679C139.91 55.8584 138.346 55.7206 136.908 55.17" fill="#263238"/>
<path d="M128.224 78.9034C127.567 78.6266 124.92 79.6645 124.505 79.0937C122.343 76.2221 121.27 68.0573 120.768 64.4938C120.267 60.9304 122.498 57.0036 122.256 53.4229C122.262 50.5189 121.354 47.6867 119.661 45.3272C118.486 44.0438 117.012 43.0695 115.371 42.4903C112.86 41.5584 110.163 41.2387 107.504 41.5576C104.844 41.8764 102.299 42.8248 100.08 44.3239C98.2632 45.5694 96.5333 47.2473 94.3364 47.4203C92.1395 47.5933 90.1848 46.2267 88.3339 45.085C86.483 43.9433 84.165 42.9054 82.1584 43.8049C81.3822 44.184 80.6976 44.727 80.1517 45.3964C77.9451 48.7581 76.4552 52.5386 75.7752 56.502C75.0682 52.4348 75.4686 48.2523 76.9343 44.3931C79.0846 39.8523 82.3517 35.9312 86.4298 32.9966C90.5079 30.0621 95.2638 28.21 100.253 27.6136C120.163 24.6556 129.314 35.8304 132.739 43.7876C134.209 47.2473 135.351 56.1041 134.157 62.937C133.114 68.5611 131.107 73.9627 128.224 78.9034Z" fill="#263238"/>
<path d="M133.984 46.4861C133.69 46.5726 132.912 44.3238 130.974 41.1063C129.873 39.2197 128.611 37.4313 127.203 35.7611C125.491 33.7551 123.456 32.048 121.183 30.71C118.864 29.4679 116.357 28.6147 113.762 28.1844C111.621 27.8173 109.442 27.7128 107.275 27.8731C103.539 28.1498 101.307 28.9802 101.186 28.6688C101.065 28.3574 101.636 28.1844 102.639 27.752C104.067 27.1341 105.566 26.6982 107.102 26.4546C109.392 26.0851 111.722 26.0501 114.022 26.3508C116.824 26.7533 119.531 27.6556 122.014 29.0148C124.488 30.467 126.67 32.3677 128.449 34.6194C129.901 36.4052 131.138 38.3561 132.133 40.4317C133.915 43.9779 134.226 46.4342 133.984 46.4861Z" fill="#3780EF"/>
<path d="M114.818 28.9629C114.424 29.032 114.025 29.0725 113.624 29.084C112.537 29.1832 111.456 29.3508 110.39 29.5857C106.856 30.3296 103.536 31.8628 100.678 34.0705C97.8208 36.2781 95.499 39.1033 93.887 42.3346C93.3886 43.3082 92.9552 44.3137 92.5896 45.3445C92.48 45.7293 92.3413 46.1052 92.1744 46.4689C92.1744 46.4689 92.1744 46.3651 92.1744 46.1575C92.1744 45.95 92.2782 45.6559 92.3993 45.2926C92.7063 44.2333 93.1057 43.203 93.5929 42.2135C95.1577 38.8997 97.4842 36.0032 100.382 33.7604C103.281 31.5176 106.668 29.9922 110.269 29.3089C111.352 29.0956 112.451 28.9683 113.555 28.9283C113.953 28.9283 114.247 28.9283 114.455 28.9283C114.662 28.9283 114.818 28.9457 114.818 28.9629Z" fill="#455A64"/>
<path d="M120.077 31.4194C119.326 31.8845 118.546 32.3005 117.741 32.6649C115.859 33.6505 114.034 34.742 112.275 35.9343C110.52 37.1363 108.834 38.4357 107.224 39.8265C106.59 40.4427 105.92 41.0203 105.217 41.5563C105.342 41.3528 105.494 41.1667 105.667 41.0027C105.979 40.6568 106.446 40.1897 107.034 39.6189C110.173 36.6868 113.743 34.2539 117.62 32.4054C118.364 32.0595 118.97 31.8 119.35 31.6443C119.586 31.5498 119.829 31.4746 120.077 31.4194Z" fill="#455A64"/>
<path d="M130.663 40.4836C130.705 40.7066 130.705 40.9353 130.663 41.1583C130.663 41.5734 130.49 42.1962 130.317 42.8881C129.415 46.7934 127.745 50.4802 125.405 53.7342C124.938 54.357 124.557 54.8413 124.28 55.1527C124.003 55.4641 123.83 55.6544 123.813 55.6371C123.796 55.6198 124.332 54.8413 125.162 53.5785C126.249 51.9236 127.209 50.1888 128.034 48.389C128.846 46.5873 129.517 44.7249 130.041 42.8189C130.456 41.4005 130.663 40.4836 130.663 40.4836Z" fill="#455A64"/>
<path d="M124.833 64.4421C124.833 64.4421 125.664 63.4734 126.84 61.8127C127.533 60.8455 128.163 59.8343 128.726 58.7855C129.395 57.4899 129.973 56.1489 130.455 54.7723C130.921 53.3938 131.285 51.9831 131.545 50.5515C131.755 49.3793 131.888 48.1947 131.943 47.0053C132.029 44.9641 131.943 43.7013 131.943 43.7013C132.036 43.9866 132.088 44.2836 132.099 44.5835C132.18 45.3881 132.209 46.197 132.185 47.0053C132.172 48.2108 132.068 49.4136 131.874 50.6034C131.631 52.0653 131.272 53.5056 130.801 54.9107C130.299 56.3038 129.691 57.6569 128.985 58.9585C128.406 60.0164 127.747 61.0285 127.013 61.9857C126.527 62.635 126.002 63.2531 125.439 63.8366C125.257 64.0577 125.054 64.2605 124.833 64.4421Z" fill="#455A64"/>
<path d="M61.6773 45.9501C61.6773 45.9501 61.9887 46.2787 62.5596 46.8323C63.3724 47.6364 64.3366 48.2714 65.3965 48.7005C66.1645 49.0194 66.9931 49.166 67.824 49.1302C68.6548 49.0943 69.4677 48.8768 70.2054 48.4929C71.0502 47.9968 71.6933 47.219 72.0218 46.296C72.1981 45.8171 72.2663 45.305 72.2214 44.7966C72.1766 44.2882 72.0198 43.796 71.7623 43.3553C71.6299 43.1495 71.4482 42.9801 71.2337 42.8623C71.0193 42.7445 70.7788 42.6821 70.5341 42.6807C70.3068 42.6883 70.089 42.7729 69.9161 42.9207C69.7433 43.0684 69.6257 43.2704 69.5827 43.4937C69.4268 44.4456 69.6503 45.4207 70.2054 46.2095C70.6854 46.9745 71.3847 47.5773 72.212 47.9394C72.9246 48.2309 73.7094 48.2973 74.4609 48.1297C75.5606 47.9144 76.5409 47.2978 77.2113 46.3998C77.4529 46.054 77.656 45.6828 77.8167 45.2927C77.8167 45.2927 77.8167 45.4138 77.8167 45.6214C77.728 45.9279 77.5939 46.2195 77.4189 46.4863C76.7726 47.4901 75.7616 48.2034 74.5992 48.4757C73.7881 48.6743 72.9351 48.6138 72.1601 48.3027C71.27 47.961 70.5041 47.358 69.9633 46.5728C69.348 45.692 69.0999 44.6062 69.2713 43.5456C69.3549 43.2492 69.5162 42.9804 69.7384 42.7672C69.9811 42.5628 70.2861 42.447 70.6033 42.4385C70.9122 42.4294 71.218 42.5032 71.4888 42.6522C71.7595 42.8013 71.9854 43.0202 72.1429 43.2861C72.4535 43.7725 72.6437 44.3259 72.6979 44.9005C72.752 45.4751 72.6685 46.0542 72.4542 46.5901C72.0963 47.5928 71.3904 48.4337 70.4649 48.96C69.6704 49.3828 68.7897 49.6182 67.8902 49.6482C66.9907 49.6782 66.0963 49.5019 65.2754 49.133C64.2008 48.6604 63.235 47.9714 62.4384 47.1091C62.2245 46.8772 62.0224 46.6348 61.833 46.3825C61.7119 46.1404 61.66 45.9501 61.6773 45.9501Z" fill="#263238"/>
<path d="M163.703 42.3864H163.253L161.956 42.5594C160.345 42.7567 158.711 42.6689 157.13 42.2999C156.035 42.0025 155.023 41.4581 154.172 40.7085C153.666 40.2776 153.252 39.7491 152.955 39.1547C152.658 38.5603 152.483 37.9121 152.442 37.2488C152.391 36.5266 152.535 35.804 152.857 35.1557C153.191 34.4668 153.736 33.903 154.414 33.5469C155.109 33.1684 155.888 32.9701 156.68 32.9701C157.472 32.9701 158.251 33.1684 158.946 33.5469C159.33 33.7184 159.653 34.0005 159.876 34.357C160.098 34.7136 160.209 35.1284 160.194 35.5483C160.179 35.9682 160.039 36.3741 159.792 36.7141C159.545 37.054 159.202 37.3125 158.808 37.4564C158.107 37.7442 157.346 37.8513 156.594 37.7678C155.897 37.7044 155.208 37.577 154.535 37.3872C152.574 36.8509 150.807 35.7646 149.443 34.2565C148.079 32.7485 147.175 30.8816 146.837 28.8764C146.76 28.4419 146.714 28.0026 146.699 27.5617C146.673 27.4129 146.673 27.2607 146.699 27.1119C146.699 27.1119 146.699 27.752 146.958 28.8418C147.39 31.1453 148.57 33.2419 150.315 34.8059C152.061 36.37 154.274 37.3138 156.611 37.491C157.294 37.5589 157.983 37.4579 158.617 37.1969C158.93 37.0667 159.202 36.8553 159.406 36.5847C159.61 36.314 159.738 35.9939 159.776 35.6574C159.77 35.2992 159.667 34.9494 159.478 34.6449C159.289 34.3404 159.022 34.0926 158.704 33.9275C158.07 33.5823 157.359 33.4015 156.637 33.4015C155.915 33.4015 155.204 33.5823 154.57 33.9275C153.99 34.258 153.518 34.749 153.212 35.3413C152.905 35.9336 152.776 36.6021 152.84 37.2661C152.87 37.8803 153.022 38.4824 153.286 39.0376C153.55 39.5928 153.922 40.0902 154.379 40.5009C155.188 41.2277 156.153 41.7602 157.199 42.0578C158.741 42.4481 160.337 42.5768 161.921 42.4383L163.236 42.3345C163.394 42.327 163.551 42.3445 163.703 42.3864Z" fill="#263238"/>
<path d="M86.5175 5.00476C86.327 5.50522 86.1766 6.02002 86.0677 6.54432C85.973 7.25604 86.0222 7.97953 86.2124 8.67188C86.4026 9.36423 86.7298 10.0114 87.1748 10.5748C87.8809 11.3628 88.7904 11.9411 89.8034 12.2462C90.8165 12.5514 91.8941 12.5716 92.9179 12.3047C93.5175 12.1932 94.0799 11.934 94.5542 11.5504C95.0284 11.1668 95.3994 10.6709 95.6337 10.1078C95.7063 9.81654 95.7207 9.51384 95.6762 9.21702C95.6317 8.9202 95.5291 8.63508 95.3743 8.37794C95.2167 8.1087 94.9776 7.89656 94.6915 7.77217C94.4054 7.64779 94.0872 7.61761 93.7828 7.68602C93.476 7.78072 93.1927 7.93905 92.9512 8.15068C92.7098 8.36231 92.5157 8.62247 92.3816 8.91419C92.1287 9.49407 92.098 10.1467 92.2952 10.7478C92.7434 11.9208 93.5251 12.9371 94.5439 13.6712C96.2359 15.0128 98.277 15.8412 100.425 16.0584C101.869 16.2185 103.33 16.1071 104.733 15.7298C105.719 15.453 106.238 15.1935 106.255 15.2454L105.892 15.4357C105.535 15.6134 105.164 15.7637 104.785 15.8854C103.365 16.3297 101.872 16.4885 100.391 16.3525C98.1872 16.1466 96.0875 15.3188 94.3363 13.9653C93.2517 13.1922 92.4209 12.1146 91.9492 10.8689C91.7061 10.1731 91.7433 9.41005 92.0529 8.74122C92.2097 8.38382 92.4477 8.06793 92.748 7.81868C93.0483 7.56943 93.4026 7.3937 93.7828 7.30545C94.1682 7.21952 94.5709 7.25677 94.934 7.41196C95.2972 7.56714 95.6024 7.83242 95.8067 8.17037C96.0013 8.48172 96.1281 8.83058 96.1787 9.19422C96.2294 9.55785 96.2028 9.9281 96.1008 10.2808C95.8828 10.9485 95.4512 11.526 94.8726 11.9241C94.3543 12.3012 93.7663 12.5717 93.1428 12.7198C92.0501 12.99 90.9037 12.9484 89.8335 12.5999C88.7633 12.2513 87.8122 11.6096 87.0883 10.7478C86.6308 10.152 86.3023 9.46758 86.1236 8.73795C85.9449 8.00832 85.9199 7.24949 86.0504 6.50971C86.1304 6.11281 86.2643 5.72868 86.4483 5.36801C86.4638 5.24561 86.4869 5.1243 86.5175 5.00476Z" fill="#263238"/>
<path d="M124.125 76.3606C124.191 75.5101 124.467 74.6892 124.926 73.9705C125.386 73.2518 126.015 72.6574 126.76 72.2401C127.504 71.8227 128.339 71.5952 129.192 71.5778C130.045 71.5603 130.889 71.7533 131.649 72.1398C133.379 73.1777 134.729 75.2535 134.521 79.1976C133.933 89.7323 123.485 86.9818 123.485 86.6705C123.485 86.3591 123.848 80.7371 124.125 76.3606Z" fill="#FFBE9D"/>
<path d="M126.927 82.8648C126.927 82.8648 127.1 83.0032 127.411 83.1589C127.836 83.3688 128.326 83.406 128.778 83.2627C129.479 82.8657 130.063 82.2901 130.47 81.5943C130.877 80.8986 131.093 80.1075 131.096 79.3013C131.166 78.4033 131.042 77.5005 130.732 76.6547C130.647 76.3203 130.483 76.0111 130.254 75.7525C130.026 75.4938 129.739 75.2932 129.418 75.167C129.209 75.1042 128.986 75.1146 128.785 75.1964C128.583 75.2782 128.416 75.4266 128.311 75.6168C128.155 75.8935 128.207 76.1184 128.155 76.1357C128.103 76.153 127.947 75.9454 128.051 75.513C128.122 75.254 128.281 75.0277 128.501 74.8729C128.649 74.7724 128.815 74.7024 128.99 74.6667C129.165 74.6311 129.346 74.6306 129.521 74.6654C129.95 74.7726 130.343 74.9879 130.664 75.2908C130.985 75.5937 131.223 75.974 131.355 76.3952C131.744 77.3361 131.904 78.3558 131.822 79.3705C131.825 80.3102 131.549 81.2296 131.028 82.0119C130.508 82.7943 129.767 83.4042 128.899 83.7643C128.602 83.8412 128.291 83.8484 127.991 83.7854C127.691 83.7223 127.41 83.5908 127.169 83.401C126.927 83.1243 126.892 82.8821 126.927 82.8648Z" fill="#EB996E"/>
<path d="M160.762 226.424C160.485 219.349 162.146 156.21 162.146 156.21C162.146 156.21 159.067 125.419 148.601 121.769C144.9 120.471 136.908 120.039 128.12 120.039C128.12 118.136 127.843 116.026 126.684 115.23C124.384 113.69 88.8009 119.209 88.8009 119.209L88.6971 122.184C79.0965 124.104 58.0962 129.259 57.7849 137.631C57.3697 148.495 68.3888 195.252 71.8658 203.815C75.3428 212.378 73.9243 229.296 73.388 236.682C72.8518 244.068 79.823 245.504 85.9985 247.632C92.1741 249.76 119.679 256.281 135.334 251.922C150.989 247.563 159.102 245.452 160.831 241.543C164.585 233.205 161.039 233.516 160.762 226.424Z" fill="#3780EF"/>
<path d="M0.0948759 118.915C0.0948759 118.915 -1.23706 114.538 6.08016 118.396C13.3974 122.253 23.9494 131.3 23.9494 131.3L29.8308 129.882C29.8308 129.882 37.2345 135.538 38.307 138.531C39.3795 141.524 41.7667 153.892 41.0748 156.4C40.3828 158.908 42.2165 164.34 42.2165 164.34L26.8728 171.778L25.2468 167.315C25.2468 167.315 11.1832 152.318 10.8026 150.657C10.4184 149.666 10.443 148.563 10.8711 147.59C11.2992 146.617 12.0957 145.854 13.086 145.468C13.086 145.468 11.7021 138.687 14.1585 136.697C14.1585 136.697 12.4286 132.425 13.1725 130.971L0.0948759 118.915Z" fill="#FFBE9D"/>
<path d="M27.8934 153.096C27.7511 152.785 27.6634 152.451 27.6339 152.11C27.4957 151.165 27.4436 150.21 27.4782 149.256C27.5826 145.96 28.5552 142.749 30.2979 139.949V140.468C29.0978 139.496 28.2575 138.15 27.9107 136.645V136.455L28.4642 136.749C26.176 137.561 23.6605 137.443 21.4584 136.421C20.5142 136 19.653 135.415 18.9155 134.691C18.6921 134.489 18.5251 134.233 18.4311 133.947C18.3988 133.77 18.4232 133.588 18.5009 133.427C18.5786 133.265 18.7056 133.132 18.8636 133.047C19.2803 132.885 19.7081 132.752 20.1437 132.649C21.7863 132.123 23.4701 131.736 25.1775 131.49C23.5972 132.189 21.9666 132.767 20.2994 133.22C19.922 133.329 19.5522 133.461 19.1923 133.618C19.0712 133.705 19.0712 133.739 19.0885 133.826C19.1558 133.979 19.2562 134.114 19.3826 134.224C20.0872 134.875 20.8935 135.407 21.7697 135.798C23.7914 136.7 26.0821 136.793 28.1701 136.057L28.6199 135.884L28.7237 136.351V136.524C29.028 137.874 29.7626 139.088 30.8168 139.984L31.0936 140.209L30.9033 140.503C29.2024 143.188 28.1757 146.244 27.9107 149.412C27.7896 151.66 28.0145 153.096 27.8934 153.096Z" fill="#EB996E"/>
<path d="M14.7638 150.761C14.7638 150.761 15.0233 150.761 15.4384 150.484C15.7261 150.348 15.9832 150.156 16.1943 149.918C16.4054 149.68 16.5661 149.402 16.6666 149.1L16.7877 148.754L17.0644 149.014C18.4293 150.359 19.9114 151.581 21.4929 152.664C22.427 153.234 23.586 154.203 24.4509 153.684C24.6721 153.527 24.8532 153.319 24.9794 153.079C25.1056 152.839 25.1734 152.572 25.1774 152.3C25.1439 151.663 24.9665 151.043 24.6585 150.484C23.8375 148.58 22.6636 146.849 21.1988 145.381C20.5808 144.833 19.8409 144.44 19.0406 144.236C18.2402 144.031 17.4026 144.02 16.5974 144.205C15.4873 144.505 14.4226 144.953 13.4318 145.537C13.0707 145.785 12.6741 145.977 12.2555 146.108C12.54 145.771 12.8792 145.484 13.2588 145.26C14.2277 144.544 15.3093 143.994 16.459 143.634C17.2909 143.392 18.1682 143.35 19.0192 143.513C19.9953 143.709 20.9058 144.15 21.6658 144.793C23.2785 146.292 24.5676 148.105 25.4542 150.121C25.8202 150.803 26.0216 151.561 26.0423 152.335C26.0326 152.74 25.9254 153.138 25.7296 153.493C25.5339 153.848 25.2555 154.151 24.9179 154.376C24.5709 154.55 24.185 154.632 23.7973 154.613C23.4096 154.595 23.033 154.478 22.7037 154.272C22.1601 153.962 21.6345 153.622 21.1296 153.252C19.5346 152.11 18.0724 150.792 16.7704 149.325H17.151C17.0132 149.669 16.8004 149.978 16.5281 150.229C16.2558 150.481 15.9308 150.668 15.5768 150.778C14.9714 150.847 14.7638 150.795 14.7638 150.761Z" fill="#EB996E"/>
<path d="M24.97 150.034C24.97 150.034 25.3333 150.034 25.8177 149.844C26.1461 149.683 26.4263 149.439 26.6298 149.135C26.8333 148.831 26.9529 148.479 26.9767 148.114C26.9431 146.935 26.5904 145.787 25.9561 144.793C25.2348 143.499 24.3448 142.306 23.3094 141.247C22.2658 140.176 21.1627 139.166 20.0054 138.219C19.1255 137.414 18.0719 136.822 16.9263 136.49C15.8566 136.26 14.7396 136.439 13.7953 136.991C13.7953 136.991 13.9336 136.645 14.4699 136.334C15.2556 135.903 16.1661 135.756 17.0474 135.919C18.3288 136.192 19.5194 136.788 20.5071 137.649C21.7325 138.578 22.8888 139.596 23.9668 140.693C25.0515 141.811 25.9665 143.081 26.6826 144.464C27.3444 145.589 27.6687 146.88 27.6167 148.183C27.5774 148.646 27.402 149.087 27.1126 149.45C26.8233 149.813 26.4329 150.083 25.9906 150.225C25.2814 150.311 24.9527 150.069 24.97 150.034Z" fill="#EB996E"/>
<path d="M20.8356 131.594C20.7318 131.594 20.4031 131.249 19.7284 130.799C18.8867 130.199 17.8893 129.857 16.8569 129.813C15.8214 129.81 14.8068 130.104 13.9335 130.66C13.2415 131.093 12.8782 131.473 12.7918 131.404C12.7053 131.335 12.8956 130.816 13.5702 130.193C14.4824 129.397 15.6596 128.972 16.8699 129.001C18.0801 129.03 19.2357 129.511 20.109 130.349C20.749 130.989 20.922 131.543 20.8356 131.594Z" fill="#EB996E"/>
<path d="M67.1608 128.567C67.1608 128.567 54.8962 131.906 50.883 151.781C48.0287 165.914 50.883 203.002 50.883 203.002C50.883 203.002 37.1307 209.696 37.9092 209.921C38.6876 210.146 45.1572 247.026 60.9506 243.965C76.7441 240.903 79.0274 217.602 79.0274 217.602L67.1608 128.567Z" fill="#3780EF"/>
<path d="M78.1623 239.709C78.1623 239.709 77.9893 239.45 77.7471 238.896C77.394 238.106 77.0991 237.29 76.8649 236.457C76.0124 233.378 75.5361 230.206 75.4464 227.012C75.3979 222.318 75.1092 217.63 74.5815 212.966C74.1872 210.257 73.3761 207.625 72.177 205.164C70.8451 202.673 68.8039 200.424 67.2643 197.691C65.8722 195.004 64.8482 192.141 64.2198 189.181C63.6804 186.427 63.3851 183.631 63.3375 180.825C63.3908 176.102 63.6968 171.384 64.2543 166.693C64.6522 162.697 64.9117 159.462 64.9463 157.23C64.9809 154.999 64.9463 153.771 64.9463 153.771C65.026 154.064 65.0667 154.366 65.0674 154.67C65.0674 155.258 65.2058 156.141 65.1885 157.265C65.2138 160.441 65.0753 163.617 64.7733 166.779C64.2842 171.451 64.0359 176.145 64.0295 180.843C64.0953 183.597 64.4021 186.341 64.9463 189.042C65.5697 191.923 66.5701 194.709 67.9216 197.328C69.392 199.957 71.3813 202.206 72.8171 204.818C74.0507 207.367 74.8794 210.093 75.2735 212.897C75.7665 217.591 75.9975 222.309 75.9654 227.029C76.0066 230.187 76.3894 233.33 77.1071 236.405C77.3075 237.241 77.5499 238.067 77.8336 238.879C77.9668 239.146 78.0768 239.423 78.1623 239.709Z" fill="#263238"/>
<path d="M12.8438 211.79C12.3248 211.893 9.0727 210.752 8.58835 213.519C8.10399 216.287 10.0068 216.356 13.3973 216.979C16.7878 217.602 30.9379 222.843 30.9379 222.843C30.9379 222.843 25.4197 224.798 25.7484 227.721C26.077 230.645 27.1668 230.437 29.6924 230.524L33.3597 230.679C33.3597 230.679 33.1348 236.993 35.9025 237.357C35.8794 237.97 35.9927 238.582 36.2343 239.147C36.476 239.711 36.8399 240.215 37.2999 240.622C37.76 241.029 38.3046 241.329 38.8945 241.5C39.4845 241.672 40.105 241.71 40.7115 241.612C45.6588 241.422 61.1409 237.685 61.1409 237.685L62.8707 218.657C62.8707 218.657 49.2396 213.329 46.6967 213.744C45.0801 214.051 43.5922 214.834 42.424 215.993L12.8438 211.79Z" fill="#FFBE9D"/>
<path d="M62.9228 218.726L105.217 220.906L102.726 244.57L61.193 237.685L62.9228 218.726Z" fill="#FFBE9D"/>
<path d="M69.0292 215.838C68.378 214.921 67.7996 213.955 67.2993 212.949C66.2441 211.219 64.7219 208.728 63.0266 206.029C60.851 202.869 58.8361 199.601 56.9895 196.238C57.8231 197.005 58.5451 197.884 59.1345 198.85C60.38 200.58 62.0233 202.898 63.7186 205.58C65.2017 207.859 66.5644 210.215 67.801 212.637C68.3849 213.629 68.8 214.71 69.0292 215.838Z" fill="#263238"/>
<path d="M127.204 208.243C126.787 208.393 126.349 208.475 125.906 208.486C124.719 208.641 123.521 208.693 122.325 208.641C114.303 208.393 106.649 205.218 100.806 199.715C99.9293 198.894 99.1141 198.01 98.3672 197.069C97.8482 196.394 97.5888 196.014 97.6407 195.979C97.6926 195.944 98.938 197.328 101.204 199.283C104.143 201.833 107.472 203.895 111.064 205.389C114.664 206.876 118.477 207.781 122.36 208.07C125.335 208.278 127.204 208.088 127.204 208.243Z" fill="#263238"/>
<g opacity="0.2">
<path d="M117.084 207.638C114.258 206.648 111.535 205.385 108.953 203.867L99.1626 198.487C99.739 201.284 101.026 203.884 102.899 206.039C104.772 208.193 107.168 209.829 109.857 210.788C112.546 211.748 115.437 211.998 118.251 211.516C121.065 211.034 123.707 209.836 125.923 208.036C123.001 208.77 119.928 208.632 117.084 207.638Z" fill="black"/>
<path d="M98.9724 198.366L99.1627 198.47C99.1627 198.349 99.1627 198.228 99.0762 198.107L98.9724 198.366Z" fill="black"/>
</g>
<g opacity="0.3">
<path d="M114.264 246.801C101.463 245.971 88.5931 240.384 73.6819 239.796C84.3761 243.562 95.3248 246.562 106.445 248.774C114.293 250.473 122.355 250.963 130.351 250.227C138.291 249.258 146.197 246.905 151.784 241.162C143.844 248.531 127.047 247.58 114.264 246.801Z" fill="black"/>
</g>
<path d="M37.9784 209.991L26.8728 171.779L42.1646 164.358L57.7331 197.951C57.7331 197.951 49.8624 215.509 37.9784 209.991Z" fill="#FFBE9D"/>
<path d="M105.217 220.854C105.563 220.595 129.746 216.737 129.746 216.737L134.555 207.707C134.555 207.707 142.149 152.699 143.394 146.575C144.796 139.656 147.269 121.337 147.269 121.337C147.269 121.337 164.706 124.641 167.18 140.105C168.91 150.657 164.758 204.542 162.769 215.457C160.779 226.372 157.769 236.786 146.871 244.207C139.52 249.224 102.726 244.518 102.726 244.518L105.217 220.854Z" fill="#3780EF"/>
<path d="M163.53 210.129C163.549 210.267 163.549 210.406 163.53 210.544C163.53 210.873 163.426 211.271 163.34 211.79C163.167 212.862 162.89 214.471 162.492 216.512C162.094 218.553 161.575 221.096 160.762 223.985C160.006 227.315 158.887 230.552 157.424 233.637C155.603 237.425 152.868 240.701 149.466 243.169C145.355 245.775 140.599 247.183 135.732 247.234C133.189 247.39 130.542 247.372 127.913 247.32L119.748 247.182C113.946 247.127 108.16 246.583 102.449 245.556H102.086V245.193C102.484 241.404 102.882 237.426 103.314 233.378C103.747 229.33 104.179 225.006 104.612 220.94V220.629H104.906L129.816 216.114L129.556 216.304C131.279 212.606 132.411 208.66 132.912 204.611C133.483 200.719 134.019 196.999 134.521 193.505C135.524 186.586 136.406 180.376 137.133 175.255C137.859 170.135 138.482 166.208 138.863 163.389L139.347 160.24L139.503 159.445C139.503 159.254 139.503 159.168 139.503 159.168C139.503 159.168 139.503 159.168 139.503 159.445C139.503 159.721 139.503 159.929 139.503 160.258C139.399 161.036 139.278 162.091 139.122 163.423C138.759 166.243 138.222 170.343 137.565 175.325C136.908 180.306 136.06 186.603 135.126 193.592C134.642 197.051 134.14 200.822 133.587 204.715C133.07 208.856 131.902 212.89 130.127 216.668V216.823H129.937L105.027 221.407L105.373 221.044C104.946 225.115 104.514 229.261 104.075 233.482C103.66 237.53 103.245 241.508 102.847 245.297L102.519 244.847C108.166 245.864 113.889 246.408 119.627 246.473L127.774 246.646C130.438 246.646 132.964 246.732 135.541 246.646C140.283 246.622 144.925 245.281 148.948 242.771C152.281 240.377 154.972 237.198 156.784 233.516C158.277 230.485 159.437 227.301 160.243 224.02C161.005 221.148 161.575 218.64 161.973 216.599C162.371 214.557 162.717 213.018 162.942 211.893C163.063 211.392 163.15 210.994 163.219 210.682C163.279 210.477 163.385 210.287 163.53 210.129Z" fill="#263238"/>
<path d="M151.127 127.719C149.281 130.183 147.599 132.766 146.093 135.452C144.839 138.264 143.764 141.153 142.876 144.101C142.953 140.94 143.802 137.846 145.349 135.089C146.657 132.205 148.639 129.678 151.127 127.719Z" fill="#263238"/>
<path d="M145.246 219.712C143.011 218.137 140.474 217.039 137.795 216.488C135.117 215.938 132.353 215.946 129.677 216.512C130.369 216.041 131.164 215.744 131.995 215.647C133.976 215.247 136.017 215.247 137.998 215.647C139.97 216.048 141.841 216.843 143.499 217.983C144.71 218.899 145.315 219.643 145.246 219.712Z" fill="#263238"/>
</svg>
