<svg width="146" height="472" viewBox="0 0 146 472" fill="none" xmlns="http://www.w3.org/2000/svg">
<path d="M112.811 46.5546C113.15 46.4047 113.445 46.1698 113.668 45.8726C113.89 45.5754 114.032 45.2259 114.079 44.8579C114.127 44.4899 114.079 44.1158 113.94 43.7718C113.801 43.4277 113.576 43.1253 113.285 42.8938C114.314 42.182 113.817 40.4986 112.867 39.6851C111.918 38.8716 110.608 38.4535 109.862 37.4254C110.215 37.4582 110.572 37.4174 110.909 37.3054C111.245 37.1934 111.555 37.0128 111.819 36.7749C112.082 36.537 112.293 36.2471 112.439 35.9234C112.584 35.5997 112.661 35.2494 112.664 34.8945C113.13 34.8854 113.58 34.7206 113.942 34.4263C114.304 34.132 114.557 33.7251 114.661 33.2704C114.765 32.8157 114.714 32.3393 114.516 31.917C114.318 31.4947 113.984 31.1508 113.568 30.94C114.698 30.714 114.404 28.7933 113.365 28.251C112.325 27.7086 111.048 27.9007 109.975 27.5166C107.813 25.5703 105.094 24.353 102.202 24.0366L106.585 19.9692C106.956 19.6677 107.247 19.2797 107.433 18.8393C107.749 17.845 106.891 16.8847 106.032 16.2971C104.199 15.0557 102.042 14.38 99.829 14.3538C99.1285 14.3538 98.2472 14.5572 98.1003 15.2464C96.4949 14.8394 94.8134 14.8394 93.208 15.2464C92.2806 15.2885 91.3988 15.6612 90.7224 16.2971C91.075 15.4632 91.5723 14.6982 92.1912 14.0374C92.5016 13.6964 92.7365 13.2937 92.8806 12.8556C93.0247 12.4175 93.0746 11.954 93.0273 11.4953C92.8465 10.6027 91.6602 9.93607 90.9596 10.5236C91.7618 10.0378 91.502 8.69324 90.7224 8.17351C89.8738 7.74839 88.908 7.61724 87.9768 7.80065C87.3215 7.85715 86.508 8.04922 86.395 8.69324C86.245 8.36427 86.0014 8.08675 85.6947 7.89528C85.388 7.7038 85.0318 7.60683 84.6703 7.61647C84.3089 7.62611 83.9583 7.74192 83.6622 7.94947C83.3662 8.15703 83.1378 8.44713 83.0055 8.78362C82.7567 8.60447 82.474 8.47783 82.1747 8.4114C81.8754 8.34498 81.5657 8.34016 81.2644 8.39723C80.9632 8.45431 80.6767 8.57209 80.4225 8.74341C80.1682 8.91472 79.9514 9.13599 79.7854 9.39374C79.3987 9.23528 78.9825 9.1615 78.5648 9.17735C78.1472 9.19321 77.7378 9.29835 77.3642 9.48569C76.9906 9.67302 76.6614 9.93822 76.3989 10.2634C76.1364 10.5886 75.9466 10.9663 75.8422 11.371L77.9098 6.85158C78.3053 5.99289 78.2262 4.47889 77.2997 4.68226C78.633 4.54668 79.1979 2.63723 78.4296 1.54127C77.9881 1.03503 77.4108 0.665933 76.766 0.477702C76.1212 0.289471 75.436 0.289997 74.7915 0.479215L73.8085 2.28698C73.3233 2.01446 72.7645 1.902 72.2116 1.96561C71.6588 2.02922 71.1401 2.26565 70.7295 2.64124C70.3188 3.01682 70.0372 3.5124 69.9246 4.05739C69.8121 4.60239 69.8743 5.169 70.1026 5.67653C69.9362 5.57671 69.7505 5.51344 69.5578 5.49092C69.3651 5.46841 69.1698 5.48717 68.985 5.54595C68.8001 5.60472 68.6298 5.70218 68.4855 5.83184C68.3412 5.9615 68.2261 6.12039 68.1479 6.29795C67.8656 7.04163 67.8183 7.85402 68.0123 8.62544C67.6483 8.43336 67.2388 8.34434 66.8279 8.36799C66.417 8.39164 66.0204 8.52706 65.6808 8.75964C65.3412 8.99222 65.0716 9.31311 64.9011 9.6877C64.7306 10.0623 64.6656 10.4763 64.7132 10.8851C63.4671 10.4127 62.1168 10.284 60.8039 10.5123C61.0468 9.99949 61.116 9.42147 61.001 8.8658C60.886 8.31014 60.593 7.8071 60.1664 7.43289C59.7398 7.05868 59.2029 6.83369 58.637 6.792C58.0711 6.7503 57.507 6.89418 57.0302 7.20183C56.9371 6.84082 56.7667 6.50432 56.5308 6.21559C56.2949 5.92685 55.9992 5.69276 55.664 5.52947C55.3289 5.36618 54.9622 5.27759 54.5895 5.26982C54.2167 5.26205 53.8467 5.33528 53.5051 5.48446C52.9175 3.98176 50.7708 3.05528 49.641 4.20772C48.5111 5.36017 49.3924 7.37131 50.3302 8.72713C51.268 10.083 52.3752 11.6986 53.3921 13.19L44.6357 9.65361C44.3726 9.51367 44.0727 9.45843 43.777 9.49543C43.3816 9.58582 43.1443 9.98127 42.8054 10.2072C42.4664 10.4332 41.6755 10.4445 41.1897 10.6705C39.7773 11.2806 40.0598 13.5064 41.1897 14.5459C42.3195 15.5853 43.9013 15.9808 45.1441 16.8847L41.5399 18.0145C41.3489 17.5346 41.0614 17.0991 40.6953 16.7348C40.3291 16.3705 39.8921 16.0853 39.4112 15.8968C38.9304 15.7082 38.4159 15.6204 37.8998 15.6387C37.3836 15.6571 36.8767 15.7812 36.4104 16.0034C35.7664 14.6927 33.9247 14.7153 32.4898 14.9413C31.174 14.98 29.9187 15.5031 28.9647 16.4101C28.5262 17.1116 28.3399 17.9415 28.4364 18.7631C28.5329 19.5847 28.9066 20.3488 29.4957 20.9295C30.7309 22.0457 32.2143 22.8513 33.823 23.2796C33.6988 24.4095 32.309 24.9066 31.1679 24.8614C30.0429 24.6259 28.8765 24.6804 27.7783 25.0196C26.3999 25.7201 25.9932 27.6408 24.6034 28.3188C24.1611 28.4621 23.7365 28.6554 23.338 28.895C22.8879 29.3895 22.6381 30.034 22.6375 30.7027L22.3663 33.1545C22.2815 33.553 22.2815 33.9649 22.3663 34.3635C22.7618 35.6402 24.6261 35.7193 25.7559 35.0866C26.8858 34.4539 27.88 33.3692 29.1455 33.0302C27.4097 33.9298 25.97 35.3106 24.9989 37.0073C24.2193 38.7812 24.8972 41.3347 26.7841 41.7979C28.6709 42.2611 30.3318 40.4647 31.5181 38.8942C32.7045 37.3237 34.4671 35.6063 36.3313 36.2164" fill="#263238"/>
<path d="M110.031 45.6962C110.37 45.4353 110.772 45.2701 111.196 45.2178C111.62 45.1656 112.05 45.2282 112.441 45.3991C112.833 45.57 113.171 45.8429 113.421 46.1893C113.671 46.5358 113.823 46.943 113.862 47.3684C114.75 47.5174 115.581 47.9057 116.266 48.4915C116.951 49.0774 117.463 49.8386 117.747 50.6935C118.032 51.5484 118.078 52.4647 117.881 53.3439C117.684 54.2232 117.252 55.0322 116.63 55.6841C115.647 56.7122 113.489 56.9834 113.105 55.605C112.944 56.2172 112.635 56.7805 112.206 57.2454C111.776 57.7104 111.239 58.0627 110.642 58.2714C110.959 58.6801 111.188 59.1504 111.314 59.6523C111.44 60.1543 111.46 60.677 111.373 61.1871C111.286 61.6973 111.093 62.1837 110.808 62.6154C110.522 63.0471 110.15 63.4147 109.715 63.6947C110.263 64.0574 110.712 64.55 111.023 65.1287C111.334 65.7073 111.497 66.354 111.497 67.0108C111.497 67.6677 111.334 68.3144 111.023 68.893C110.712 69.4717 110.263 69.9643 109.715 70.327C110.124 71.0266 110.238 71.8602 110.033 72.6442C109.827 73.4281 109.319 74.0984 108.619 74.5074C107.919 74.9164 107.086 75.0308 106.302 74.8252C105.518 74.6197 104.848 74.1111 104.439 73.4114C104.199 74.6311 103.615 75.7565 102.755 76.6541C102.531 76.8602 102.268 77.0189 101.98 77.1206C101.693 77.2223 101.389 77.2649 101.085 77.2459C100.781 77.2269 100.484 77.1467 100.212 77.01C99.9397 76.8734 99.698 76.6832 99.5012 76.4507C99.3884 77.058 99.1432 77.633 98.7829 78.1347C98.4227 78.6364 97.9562 79.0526 97.4169 79.3536C96.8775 79.6545 96.2784 79.8329 95.6623 79.876C95.0461 79.9192 94.428 79.8259 93.852 79.603C93.9964 80.2742 93.8808 80.9753 93.5286 81.5646C93.1764 82.1539 92.6137 82.5877 91.9542 82.7784C91.2946 82.9691 90.5873 82.9025 89.9749 82.5921C89.3625 82.2817 88.8907 81.7505 88.6546 81.1057L81.7739 82.3938C80.2626 82.7284 78.7227 82.9175 77.1754 82.9587C75.1902 82.9544 73.2344 82.4781 71.4696 81.569C70.9305 81.2209 70.3207 80.997 69.6844 80.9137C68.9561 80.9937 68.2582 81.2496 67.6507 81.6594C65.9288 82.5404 64.0096 82.9646 62.0768 82.8914C60.144 82.8182 58.2624 82.25 56.6121 81.2413C56.125 80.8727 55.5786 80.5899 54.9964 80.4052C54.3031 80.2964 53.5948 80.3349 52.9174 80.5182C51.2258 80.8246 49.5018 80.9119 47.7879 80.7781C47.0494 80.7976 46.3149 80.6642 45.6304 80.3862C44.946 80.1081 44.3265 79.6914 43.8108 79.1624C42.8957 78.0325 43.2798 75.8632 44.726 75.6034C44.7135 75.1245 44.592 74.6549 44.3707 74.2301C44.1495 73.8052 43.8344 73.4364 43.4493 73.1516C43.0537 72.8817 42.5707 72.7713 42.0972 72.8426C41.6236 72.9138 41.1945 73.1614 40.8958 73.5357C40.7766 73.7353 40.7098 73.9617 40.7016 74.194C40.6934 74.4264 40.7441 74.657 40.849 74.8644C40.9538 75.0719 41.1094 75.2495 41.3013 75.3806C41.4932 75.5118 41.7152 75.5923 41.9466 75.6147C40.6021 76.9931 37.8904 75.9649 37.4272 74.0781C37.3065 73.124 37.5535 72.1598 38.118 71.3812C38.6825 70.6027 39.5222 70.0682 40.4665 69.8863C39.8237 68.6045 39.5056 67.1845 39.54 65.751C39.1546 66.4444 38.5186 66.9641 37.7623 67.2036C37.006 67.4431 36.1868 67.3842 35.4725 67.0391C35.2269 67.733 34.8401 68.3684 34.3364 68.9052C33.8327 69.4419 33.2231 69.8683 32.5462 70.1575C31.8627 70.4277 31.1071 70.4551 30.4058 70.235C29.7045 70.015 29.1 69.5608 28.6934 68.9485C28.5202 68.6288 28.4242 68.2729 28.4133 67.9094C28.4024 67.5459 28.4769 67.1849 28.6306 66.8554C28.7844 66.5258 29.0133 66.2369 29.2989 66.0118C29.5845 65.7866 29.9189 65.6316 30.2752 65.559C29.99 65.1869 29.804 64.7485 29.7346 64.2848C29.6652 63.8212 29.7147 63.3475 29.8784 62.9082C30.0422 62.4689 30.3148 62.0784 30.6708 61.7733C31.0267 61.4682 31.4543 61.2585 31.9135 61.1639C31.603 60.263 31.6011 59.2845 31.9079 58.3824C32.2147 57.4803 32.8129 56.7059 33.6083 56.1812C33.356 56.3898 33.0614 56.5411 32.7449 56.6247C32.4284 56.7082 32.0975 56.722 31.7751 56.665C31.4528 56.6081 31.1466 56.4818 30.8779 56.2948C30.6092 56.1079 30.3843 55.8648 30.2187 55.5824C29.6199 57.1303 27.4167 57.2094 25.8462 56.7122C24.6147 56.2829 23.3831 55.5824 23.3718 53.8424C23.3807 53.0356 23.6772 52.2583 24.2079 51.6505C25.4394 50.2043 27.3263 49.7524 29.1228 49.3908C29.7686 47.0265 30.0243 44.5726 29.8798 42.1259C28.88 42.3623 27.8286 42.2324 26.9164 41.7597C26.0042 41.287 25.2918 40.5029 24.9084 39.5498L34.2749 32.2171C34.2749 32.2171 57.1318 26.0933 58.0018 26.0029C58.8718 25.9125 110.167 45.651 110.167 45.651C110.505 45.8701 110.886 46.0134 111.284 46.0707C111.683 46.1281 112.089 46.0983 112.474 45.9834C112.86 45.8684 113.216 45.671 113.518 45.4049C113.82 45.1388 114.061 44.8103 114.223 44.4421C114.493 43.6779 114.553 42.8552 114.396 42.0601C114.239 41.265 113.871 40.5267 113.331 39.9226C112.217 38.7193 110.892 37.7311 109.421 37.0076C111.003 36.918 112.5 36.26 113.636 35.1547C113.965 34.7822 114.177 34.3202 114.243 33.8273C114.309 33.3344 114.228 32.8329 114.009 32.3865C113.308 31.1098 111.749 31.3697 110.687 30.7144C110.093 30.2762 109.593 29.7229 109.218 29.0874" fill="#263238"/>
<path d="M56.4874 104.38L62.8598 98.2566L62.6564 96.2455C62.0802 91.2176 61.8768 89.1613 61.8768 89.2065C61.8768 89.2517 51.0754 88.5286 47.4599 74.8913C45.6635 68.1122 44.8613 56.8136 44.4997 47.4811C44.1721 39.1201 48.6463 28.3527 57.0185 28.3866L83.5474 32.3184C84.777 32.3234 85.9596 32.7911 86.8599 33.6286C87.7601 34.4661 88.312 35.6118 88.4057 36.8378L91.7953 92.8559L95.264 95.9404L54.4537 130.796C54.4537 130.796 42.9744 121.091 56.4874 104.38Z" fill="#B47266"/>
<path d="M48.6247 56.5421C48.6705 57.0047 48.894 57.4314 49.2479 57.7327C49.6019 58.034 50.0589 58.1864 50.5228 58.1578C50.7503 58.152 50.9744 58.101 51.1821 58.0078C51.3897 57.9147 51.5768 57.7811 51.7324 57.615C51.888 57.4489 52.009 57.2536 52.0884 57.0403C52.1678 56.827 52.204 56.6 52.195 56.3726C52.1518 55.908 51.9296 55.4785 51.5753 55.1748C51.2211 54.8711 50.7626 54.7172 50.2968 54.7456C50.0683 54.7514 49.8433 54.8027 49.6349 54.8966C49.4264 54.9905 49.2389 55.125 49.0831 55.2924C48.9274 55.4597 48.8066 55.6564 48.7279 55.871C48.6491 56.0856 48.6141 56.3138 48.6247 56.5421Z" fill="#263238"/>
<path d="M65.7074 55.3223C65.7506 55.786 65.9732 56.2144 66.3278 56.5163C66.6824 56.8181 67.1409 56.9695 67.6056 56.938C67.8331 56.9338 68.0574 56.8838 68.2652 56.791C68.4729 56.6982 68.6599 56.5645 68.8149 56.3979C68.9699 56.2313 69.0897 56.0352 69.1673 55.8213C69.2449 55.6074 69.2786 55.38 69.2664 55.1528C69.2261 54.6901 69.0058 54.2617 68.653 53.9596C68.3002 53.6575 67.843 53.5058 67.3796 53.5371C67.1516 53.5414 66.9268 53.5914 66.7184 53.684C66.5101 53.7767 66.3224 53.9101 66.1665 54.0766C66.0106 54.243 65.8897 54.439 65.8108 54.6529C65.732 54.8669 65.6968 55.0945 65.7074 55.3223Z" fill="#263238"/>
<path d="M47.5508 53.1078C47.7994 53.3225 49.0422 52.1926 50.9404 51.9779C52.8385 51.7633 54.33 52.5994 54.5333 52.3395C54.7367 52.0796 54.3638 51.8311 53.7085 51.4469C52.8173 50.9649 51.8011 50.764 50.7935 50.8707C49.8038 50.9542 48.8662 51.3498 48.1158 52.0005C47.5847 52.5768 47.4266 53.0174 47.5508 53.1078Z" fill="#263238"/>
<path d="M65.414 51.9778C65.6625 52.1925 66.9054 51.0513 68.8035 50.8479C70.7017 50.6446 72.1931 51.4694 72.3965 51.2095C72.5998 50.9496 72.227 50.7011 71.5717 50.3169C70.6843 49.8244 69.6647 49.6228 68.6567 49.7407C67.6669 49.8242 66.7293 50.2198 65.9789 50.8705C65.4479 51.4468 65.2784 51.8874 65.414 51.9778Z" fill="#263238"/>
<path d="M60.8946 66.4398C59.8542 66.2278 58.7913 66.1481 57.731 66.2025C57.2339 66.2025 56.7593 66.2025 56.6011 65.8184C56.5055 65.3182 56.5687 64.8007 56.7819 64.3383C57.1209 63.118 57.4711 61.83 57.844 60.4742C59.3128 54.9831 60.3183 50.475 60.1037 50.4185C59.889 50.362 58.5106 54.7684 57.0531 60.2708C56.7028 61.6266 56.3639 62.9147 56.0475 64.1575C55.8011 64.7746 55.7811 65.4591 55.991 66.0896C56.0759 66.2561 56.199 66.4002 56.3502 66.5102C56.5014 66.6201 56.6764 66.6928 56.861 66.7223C57.1422 66.7604 57.4272 66.7604 57.7084 66.7223C58.7782 66.7674 59.8494 66.6725 60.8946 66.4398Z" fill="#263238"/>
<path d="M61.8889 89.2069C68.4327 88.6431 74.6912 86.2727 79.9665 82.36C79.9665 82.36 76.2832 92.5286 62.2844 92.619L61.8889 89.2069Z" fill="#89544C"/>
<path d="M61.4589 71.3549C62.8902 69.9978 64.5604 68.9176 66.3851 68.1687C67.3794 67.9427 67.2551 69.1178 67.8878 69.9539C68.2194 70.4077 68.4192 70.9444 68.465 71.5047C68.5109 72.0649 68.4011 72.627 68.1477 73.1288C67.8836 73.7055 67.463 74.1965 66.9337 74.546C66.4044 74.8956 65.7876 75.0896 65.1536 75.106C64.0237 74.9478 62.9955 73.8067 62.0691 73.14C61.7943 72.9697 61.5593 72.7424 61.3798 72.4734C61.2916 72.3206 61.2451 72.1472 61.2451 71.9707C61.2451 71.7941 61.2916 71.6207 61.3798 71.4679" fill="#89544C"/>
<path d="M65.4254 45.8766C65.6627 46.3738 67.5495 45.9331 69.8205 45.9783C72.0915 46.0235 73.9671 46.4416 74.2156 45.9783C74.3286 45.741 73.967 45.2891 73.1762 44.8485C72.1328 44.3392 70.9871 44.0746 69.8261 44.0746C68.6652 44.0746 67.5195 44.3392 66.4761 44.8485C65.6852 45.1422 65.2785 45.5829 65.4254 45.8766Z" fill="#263238"/>
<path d="M47.6862 47.5035C48.0703 47.9103 49.3358 47.3227 50.9176 47.142C52.4994 46.9612 53.8778 47.142 54.1377 46.6448C54.2506 46.4075 54.0021 46.0008 53.3694 45.6505C52.5333 45.2331 51.5914 45.0757 50.6651 45.1986C49.7387 45.3214 48.8704 45.7189 48.172 46.3398C47.6523 46.8482 47.5167 47.3114 47.6862 47.5035Z" fill="#263238"/>
<path d="M90.01 50.9724C90.2456 51.4082 90.3374 51.9072 90.2725 52.3982C90.2076 52.8892 89.9892 53.3472 89.6484 53.7067C89.4727 53.8432 89.2707 53.942 89.0551 53.9968C88.8394 54.0516 88.6147 54.0613 88.3952 54.0252C88.1756 53.9892 87.9658 53.9081 87.779 53.7872C87.5922 53.6663 87.4324 53.5081 87.3096 53.3225C86.7899 54.2038 85.3098 53.5259 85.3889 52.4412C84.6884 52.9497 83.5924 52.0458 83.728 51.0854C82.8919 51.5148 82.2253 50.159 81.6604 49.2777C81.3389 48.8113 80.9879 48.366 80.6096 47.9444C79.4774 46.4762 78.784 44.7173 78.6098 42.8714C77.333 41.7416 76.8246 39.7643 76.3501 37.9453L75.5366 34.5557L74.8135 33.8213C74.8632 34.2115 74.7898 34.6075 74.6034 34.9539C74.4171 35.3003 74.127 35.5798 73.774 35.7533C73.1042 36.0076 72.3786 36.0778 71.6725 35.9567L69.571 35.7872L68.3281 36.307C68.7043 37.4055 68.7043 38.598 68.3281 39.6965C68.2489 40.4589 67.9004 41.168 67.3452 41.6964C67.1934 41.7872 67.0198 41.8348 66.8429 41.8342C66.6661 41.8336 66.4928 41.7848 66.3416 41.6929C66.1905 41.6011 66.0673 41.4697 65.9853 41.3131C65.9033 41.1564 65.8657 40.9803 65.8764 40.8038C65.7655 40.9218 65.6306 41.0147 65.4808 41.076C65.3309 41.1373 65.1696 41.1658 65.0078 41.1593C64.8461 41.1529 64.6875 41.1118 64.543 41.0387C64.3985 40.9657 64.2714 40.8624 64.1703 40.736C63.7273 40.1365 63.4824 39.4137 63.4698 38.6684C63.3189 36.8656 63.7125 35.059 64.5996 33.4823L61.4022 37.2447C61.2006 37.5325 60.9171 37.7529 60.5887 37.8775C60.6148 38.0117 60.6117 38.15 60.5794 38.2828C60.5472 38.4157 60.4866 38.5401 60.4018 38.6474C60.3171 38.7547 60.2101 38.8424 60.0883 38.9045C59.9665 38.9666 59.8327 39.0017 59.6961 39.0073C59.1509 38.9266 58.6492 38.6638 58.2725 38.2616C57.3008 37.4481 56.1935 36.0019 56.8601 34.8721C56.7464 34.8407 56.6412 34.7839 56.5526 34.706C56.464 34.6281 56.3942 34.5312 56.3485 34.4224C56.3028 34.3136 56.2824 34.1958 56.2888 34.078C56.2953 33.9602 56.3284 33.8454 56.3856 33.7422L52.6797 37.2899C53.0525 37.0188 53.5723 37.595 53.5384 38.126C53.4707 38.6299 53.2216 39.0919 52.8379 39.4254C53.2566 39.9631 53.494 40.6197 53.5158 41.3009C54.1711 40.5665 55.4139 41.6512 55.2897 42.7245C55.2193 43.2146 54.9899 43.668 54.6367 44.015C54.2836 44.362 53.8262 44.5835 53.335 44.6453C52.9482 44.7566 52.5338 44.7184 52.1738 44.5385C51.8139 44.3585 51.5347 44.0498 51.3917 43.6736C50.5217 43.9561 49.5274 42.8262 49.7308 41.7867C49.132 42.2952 48.4314 41.1992 48.2959 40.3292C48.05 38.7317 48.1114 37.1019 48.4766 35.5274C48.4766 35.7533 48.2959 35.968 48.1151 35.8663C48.0747 35.8324 48.0422 35.79 48.0199 35.7422C47.9977 35.6944 47.9861 35.6423 47.9861 35.5895C47.9861 35.5368 47.9977 35.4846 48.0199 35.4368C48.0422 35.389 48.0747 35.3466 48.1151 35.3127L46.4542 41.1653C45.9115 42.6982 45.6623 44.3195 45.7198 45.9446C45.7876 46.6112 45.8102 47.5377 45.2566 47.662C45.1025 47.6843 44.9453 47.6608 44.8046 47.5942C43.024 46.8252 41.5606 45.4695 40.6581 43.7527C40.3016 43.1641 40.0386 42.5238 39.8785 41.8545C39.596 40.4422 40.0367 38.996 39.9689 37.5498C39.8976 36.916 39.8712 36.2779 39.8898 35.6404C40.0459 34.6735 40.4552 33.7652 41.0761 33.0078C42.9743 30.2284 44.9967 27.3585 47.8552 25.9914C49.5726 25.1666 51.4933 24.9746 53.222 24.1724C54.2565 23.6236 55.2633 23.024 56.2387 22.3759C60.4305 19.8111 65.2775 18.9863 70.0794 18.8734C72.7812 18.7081 75.4907 19.0295 78.0787 19.8224C80.9695 20.9656 83.6442 22.5933 85.9877 24.6356C89.8785 27.5698 93.2278 31.16 95.8852 35.2449C98.0564 38.5795 99.2106 42.4738 99.207 46.453C99.0714 50.4301 97.049 54.362 93.8628 55.4919L92.4053 54.1586" fill="#263238"/>
<path d="M86.519 54.0451C86.6998 53.9321 93.9535 50.7233 94.7331 58.4628C95.5127 66.2023 87.5811 65.3775 87.5472 65.1628C87.5133 64.9481 86.519 54.0451 86.519 54.0451Z" fill="#B47266"/>
<path d="M89.6148 61.9996C89.6148 61.9996 89.7617 62.0787 89.9989 62.1578C90.3317 62.2629 90.6923 62.2346 91.0045 62.0787C91.47 61.7085 91.8299 61.2223 92.0481 60.669C92.2662 60.1157 92.3349 59.5147 92.2473 58.9264C92.2042 58.2628 92.011 57.6177 91.6824 57.0396C91.5839 56.8036 91.4297 56.595 91.2329 56.4316C91.0361 56.2683 90.8027 56.1551 90.5525 56.1018C90.3937 56.079 90.2318 56.1115 90.094 56.1938C89.9562 56.276 89.8509 56.4031 89.7956 56.5537C89.7052 56.7797 89.7956 56.9266 89.7956 56.9492C89.7956 56.9718 89.6148 56.8362 89.6374 56.5086C89.6644 56.3114 89.7558 56.1287 89.8973 55.9888C90.0945 55.8089 90.3534 55.7118 90.6203 55.7177C90.9437 55.7511 91.2532 55.8662 91.52 56.0519C91.7868 56.2377 92.002 56.4881 92.1456 56.7797C92.5451 57.4169 92.7818 58.1424 92.8349 58.8925C92.9413 59.5779 92.8425 60.2794 92.551 60.9087C92.2594 61.538 91.7882 62.067 91.1966 62.429C90.9966 62.5092 90.7812 62.5437 90.5662 62.5301C90.3512 62.5164 90.1419 62.4548 89.9537 62.3499C89.6487 62.1804 89.5922 62.0109 89.6148 61.9996Z" fill="#89544C"/>
<path d="M57.2453 32.4085C56.9439 32.1675 56.7232 31.8404 56.6126 31.4708C56.555 31.2673 56.5455 31.0532 56.5847 30.8454C56.6239 30.6375 56.7108 30.4417 56.8385 30.2731C57.0036 30.0583 57.2254 29.8937 57.4789 29.7979C57.7323 29.7021 58.0075 29.6789 58.2734 29.7308L58.6124 29.7986L58.4316 29.5048C58.2846 29.2251 58.2275 28.9069 58.2679 28.5935C58.3084 28.2801 58.4444 27.9868 58.6576 27.7535C58.9098 27.5079 59.2403 27.3587 59.5913 27.3319C59.9424 27.305 60.2917 27.4023 60.5783 27.6067L60.8156 27.3355C60.7558 27.2877 60.7092 27.2255 60.68 27.1547C60.6272 27.0395 60.5999 26.9143 60.5999 26.7875C60.5999 26.6608 60.6272 26.5355 60.68 26.4203C60.8086 26.1933 61.0186 26.0237 61.2675 25.9458C61.5237 25.8835 61.791 25.8835 62.0471 25.9458C62.3305 26.0413 62.6308 26.076 62.9284 26.0475C63.29 25.9345 63.4256 25.6407 63.6063 25.5051C63.772 25.336 63.9579 25.188 64.16 25.0645C64.5317 24.8474 64.9424 24.7053 65.3689 24.6465C65.9966 24.5504 66.6386 24.6326 67.2219 24.8837C67.4268 25.0006 67.6381 25.1063 67.8546 25.2001C67.701 25.0087 67.5033 24.8575 67.2784 24.7594C66.698 24.4583 66.0413 24.3364 65.3915 24.4092C64.9235 24.4576 64.4701 24.5998 64.0583 24.8272C63.8317 24.9537 63.6228 25.1095 63.4368 25.2905C63.2222 25.4712 63.0866 25.7085 62.8945 25.7424C62.6414 25.7468 62.3893 25.7086 62.1488 25.6294C61.8366 25.5567 61.5119 25.5567 61.1997 25.6294C60.8679 25.7318 60.5886 25.9585 60.4201 26.2621C60.335 26.4242 60.2906 26.6045 60.2906 26.7875C60.2906 26.9706 60.335 27.1509 60.4201 27.3129C60.468 27.4232 60.5371 27.5231 60.6235 27.6067L60.8495 27.3355C60.4951 27.0763 60.0594 26.953 59.6218 26.9883C59.1842 27.0236 58.7738 27.215 58.4655 27.5276C58.208 27.8165 58.0468 28.1784 58.0043 28.5631C57.9618 28.9477 58.0401 29.3361 58.2282 29.6743L58.3977 29.4483C58.0773 29.3895 57.7467 29.4231 57.4446 29.5452C57.1425 29.6672 56.8813 29.8727 56.6916 30.1375C56.5508 30.3392 56.4608 30.5719 56.4293 30.8159C56.3978 31.0598 56.4258 31.3078 56.5109 31.5385C56.6057 31.8274 56.7823 32.0825 57.0193 32.273C57.1323 32.3859 57.234 32.4198 57.2453 32.4085Z" fill="#455A64"/>
<path d="M48.8611 35.5948C48.533 35.3631 48.2687 35.0522 48.0928 34.6909C47.9956 34.4878 47.9395 34.2674 47.9279 34.0424C47.9162 33.8175 47.9493 33.5924 48.025 33.3803C48.1297 33.1061 48.298 32.8607 48.516 32.6643C48.734 32.4678 48.9956 32.326 49.2792 32.2505L49.5277 32.194L49.3357 32.0245C49.0657 31.8054 48.8521 31.525 48.7126 31.2066C48.573 30.8882 48.5116 30.5411 48.5335 30.1941C48.5595 30.0142 48.6286 29.8433 48.7348 29.6957C48.841 29.5482 48.9812 29.4285 49.1436 29.3467C49.2964 29.2413 49.4777 29.1848 49.6633 29.1848C49.849 29.1848 50.0303 29.2413 50.1831 29.3467L51.3129 30.2845L50.4542 29.1547C50.305 28.94 50.2044 28.6953 50.1595 28.4377C50.1146 28.1801 50.1265 27.9158 50.1944 27.6633C50.2706 27.3941 50.4144 27.149 50.6122 26.9513C50.81 26.7535 51.0551 26.6096 51.3242 26.5334C51.69 26.406 52.0882 26.406 52.4541 26.5334L52.8495 26.669L52.6348 26.2735C52.5834 26.1231 52.5643 25.9635 52.5787 25.8052C52.5932 25.6468 52.6409 25.4933 52.7187 25.3547C52.7966 25.216 52.9028 25.0954 53.0305 25.0006C53.1582 24.9059 53.3044 24.8391 53.4596 24.8047C54.0952 24.6819 54.7535 24.7691 55.3352 25.0533L55.6854 25.2002L55.5499 24.8499C55.4762 24.6316 55.4636 24.3973 55.5134 24.1723C55.5632 23.9473 55.6735 23.7401 55.8323 23.5732C56.1383 23.2509 56.5305 23.0234 56.9622 22.9179C57.6967 22.7127 58.4633 22.6475 59.2219 22.7258C59.8832 22.8166 60.5341 22.9717 61.1652 23.189C61.0207 23.0823 60.8607 22.9985 60.6907 22.9405C60.2292 22.7403 59.7427 22.6035 59.2445 22.5337C58.4715 22.4283 57.6855 22.4705 56.9283 22.658C56.4454 22.7798 56.0043 23.0296 55.6515 23.3811C55.4529 23.5891 55.3151 23.8477 55.2534 24.1286C55.1916 24.4096 55.2082 24.7021 55.3013 24.9742L55.5047 24.7708C54.8605 24.4417 54.1244 24.3383 53.4144 24.4771C53.0177 24.5822 52.6774 24.8375 52.4654 25.1889C52.3423 25.3719 52.2692 25.5839 52.2534 25.8039C52.2375 26.0239 52.2794 26.2442 52.375 26.443L52.5897 26.1945C52.1331 26.0306 51.6339 26.0306 51.1773 26.1945C50.8621 26.3028 50.5785 26.4874 50.3518 26.7318C50.1251 26.9763 49.9623 27.2729 49.878 27.5955C49.7989 27.8989 49.7873 28.216 49.8439 28.5244C49.9005 28.8328 50.024 29.1251 50.2057 29.3806L50.4542 29.1547C50.25 29.0034 50.005 28.9171 49.7511 28.907C49.4972 28.897 49.2461 28.9636 49.0306 29.0982C48.8251 29.2144 48.6496 29.3771 48.5181 29.5733C48.3867 29.7695 48.3029 29.9937 48.2736 30.228C48.2494 30.6235 48.321 31.019 48.4823 31.3809C48.6436 31.7428 48.8898 32.0605 49.2001 32.307L49.2566 32.0697C48.9337 32.1616 48.6382 32.3312 48.396 32.5636C48.1538 32.796 47.9721 33.0841 47.8669 33.4029C47.7492 33.792 47.7581 34.2083 47.8921 34.592C48.0261 34.9757 48.2783 35.3071 48.6126 35.5383C48.6919 35.5703 48.7758 35.5894 48.8611 35.5948Z" fill="#455A64"/>
<path d="M30.4223 39.2333C30.4078 39.0505 30.4315 38.8668 30.4918 38.6937C30.552 38.5205 30.6477 38.3619 30.7726 38.2277C30.9151 38.0672 31.0887 37.9373 31.2829 37.846C31.4772 37.7547 31.688 37.7039 31.9025 37.6967C32.4751 37.6594 33.0497 37.7284 33.5972 37.9H33.8006V37.6967C33.7725 37.3696 33.8522 37.0422 34.0277 36.7648C34.2032 36.4873 34.4647 36.2749 34.7723 36.1601C35.6026 35.956 36.4745 35.9992 37.2806 36.2844L38.4104 36.5668L37.4161 35.9793C37.29 35.8714 37.1871 35.7391 37.1134 35.5904C37.0397 35.4418 36.9968 35.2797 36.9873 35.114C36.9778 34.9484 37.0019 34.7825 37.0581 34.6263C37.1143 34.4702 37.2015 34.327 37.3144 34.2054C37.592 33.9422 37.9209 33.7391 38.2806 33.6088C38.6403 33.4786 39.0229 33.424 39.4047 33.4484H40.2069L39.5968 33.1208C39.4296 33.0045 39.2916 32.8512 39.1935 32.6728C39.0953 32.4944 39.0397 32.2958 39.0309 32.0924C39.0222 31.889 39.0606 31.6863 39.143 31.5002C39.2255 31.314 39.3498 31.1494 39.5064 31.0192C39.8385 30.7899 40.2326 30.6671 40.6362 30.6671C41.0398 30.6671 41.4339 30.7899 41.7661 31.0192L42.5457 31.5051L41.9807 30.782C41.6583 30.3493 41.4578 29.838 41.4001 29.3014C41.3425 28.7649 41.4298 28.2227 41.6531 27.7314C41.8355 27.3494 42.102 27.0138 42.4327 26.7496C42.7634 26.4854 43.1497 26.2996 43.5625 26.2061C44.1063 26.0587 44.6796 26.0587 45.2234 26.2061C45.5963 26.3191 45.777 26.432 45.7996 26.4094C45.8222 26.3868 45.7996 26.4094 45.664 26.3078C45.5356 26.2265 45.3994 26.1583 45.2573 26.1044C44.7018 25.8945 44.0971 25.8513 43.5173 25.9801C43.0679 26.0696 42.6449 26.2607 42.2807 26.5388C41.9164 26.8169 41.6206 27.1745 41.4158 27.5845C41.1504 28.1236 41.0395 28.7257 41.0954 29.3239C41.1512 29.9222 41.3716 30.4934 41.7322 30.974L41.9468 30.7481C41.557 30.4829 41.0964 30.341 40.6249 30.341C40.1534 30.341 39.6928 30.4829 39.303 30.7481C39.1062 30.9139 38.9492 31.1219 38.8436 31.3565C38.738 31.5912 38.6865 31.8466 38.6929 32.1039C38.6854 32.3727 38.7508 32.6385 38.8821 32.8732C39.0133 33.1079 39.2056 33.3028 39.4386 33.4371L39.5177 33.1095H39.416C38.9833 33.0803 38.5494 33.1428 38.1425 33.2927C37.7356 33.4426 37.3649 33.6766 37.0546 33.9795C36.7747 34.3186 36.6299 34.7491 36.6478 35.1884C36.6482 35.4035 36.7034 35.6149 36.8082 35.8027C36.9129 35.9905 37.0639 36.1485 37.2467 36.2618L37.3709 35.968C36.503 35.6738 35.5676 35.6424 34.6819 35.8776C34.2876 36.0085 33.9518 36.2735 33.7329 36.6266C33.5141 36.9797 33.4261 37.3983 33.4842 37.8097L33.6311 37.6515C33.0535 37.4964 32.4532 37.4429 31.8573 37.4933C31.4142 37.5614 31.0118 37.7907 30.7274 38.1373C30.5415 38.3646 30.4345 38.6461 30.4223 38.9395C30.3659 39.0977 30.411 39.2333 30.4223 39.2333Z" fill="#455A64"/>
<path d="M38.2402 20.4548C38.3891 20.5243 38.5506 20.5628 38.7148 20.5678C39.172 20.5914 39.6304 20.5649 40.0819 20.4887C40.7375 20.3533 41.4164 20.3804 42.0591 20.5678C42.2362 20.6308 42.397 20.7324 42.5299 20.8653C42.6628 20.9982 42.7645 21.159 42.8274 21.3361C42.9073 21.516 42.9263 21.7171 42.8814 21.9088C42.8365 22.1005 42.7303 22.2723 42.5789 22.3981L42.8387 22.545C42.8387 22.0818 43.381 21.7428 43.8556 21.4152C44.3235 21.044 44.8455 20.7468 45.4035 20.5339C45.6745 20.4309 45.9638 20.3847 46.2534 20.3983C46.5431 20.4119 46.8268 20.485 47.087 20.613C47.3304 20.7117 47.5406 20.878 47.6927 21.0921C47.8449 21.3063 47.9326 21.5595 47.9457 21.8219V22.2513L48.2394 21.9349C48.8115 21.3105 49.5744 20.8933 50.4087 20.7486C51.0676 20.6139 51.7491 20.6371 52.3973 20.8164C52.9681 20.9909 53.5063 21.2581 53.9904 21.6072C53.9904 21.6072 53.8887 21.4604 53.6514 21.257C53.2943 20.9745 52.8883 20.7601 52.4538 20.6243C51.7797 20.4039 51.0617 20.3534 50.3635 20.4774C49.4611 20.613 48.6298 21.0465 48.0022 21.7089L48.2846 21.8219C48.2742 21.4967 48.1721 21.181 47.9903 20.9112C47.8084 20.6413 47.554 20.4283 47.2564 20.2966C46.9535 20.1507 46.6242 20.0675 46.2883 20.052C45.9525 20.0364 45.6169 20.0889 45.3018 20.2062C44.7085 20.4303 44.1523 20.7427 43.6522 21.1327C43.4083 21.3118 43.1744 21.5041 42.9517 21.7089C42.7056 21.9214 42.5517 22.2212 42.5224 22.545V22.884L42.7935 22.6919C43.0007 22.5239 43.1472 22.2926 43.2104 22.0335C43.2737 21.7743 43.2503 21.5016 43.1438 21.257C43.0604 21.0403 42.9299 20.8449 42.7619 20.6847C42.5939 20.5245 42.3925 20.4035 42.1721 20.3305C41.484 20.1443 40.7587 20.1443 40.0706 20.3305C39.636 20.427 39.1935 20.4837 38.7487 20.5C38.4097 20.4661 38.2515 20.4322 38.2402 20.4548Z" fill="#455A64"/>
<path d="M54.7828 11.879C55.0905 11.8421 55.4016 11.8421 55.7093 11.879C56.0513 11.949 56.37 12.1045 56.6358 12.3309C56.9952 12.6113 57.2402 13.0129 57.325 13.4608V13.6529L57.4944 13.5738C57.752 13.4918 58.0304 13.5048 58.2792 13.6105C58.5279 13.7163 58.7306 13.9077 58.8503 14.15C59.1187 14.7482 59.2127 15.4101 59.1214 16.0595V16.76L59.483 16.1498L59.5395 16.0595C59.6681 15.8758 59.8365 15.7236 60.0321 15.6141C60.2278 15.5045 60.4456 15.4405 60.6693 15.4267C61.1014 15.3944 61.5296 15.5277 61.867 15.7996C62.1518 16.0447 62.3809 16.348 62.5387 16.6891C62.6966 17.0301 62.7796 17.401 62.7821 17.7768C62.7915 18.3016 62.7152 18.8245 62.5562 19.3247C62.4863 19.5109 62.4371 19.7041 62.4093 19.9009C62.4093 19.9009 62.5449 19.7315 62.6918 19.3699C62.9116 18.8674 63.0269 18.3253 63.0307 17.7768C63.0518 17.3521 62.9764 16.9281 62.8101 16.5367C62.6437 16.1453 62.3908 15.7967 62.0703 15.5171C61.867 15.3433 61.6301 15.2132 61.3744 15.1346C61.1187 15.0561 60.8496 15.0308 60.5838 15.0605C60.318 15.0902 60.061 15.1741 59.8289 15.307C59.5968 15.44 59.3945 15.6192 59.2344 15.8335L59.1553 15.9578L59.4943 16.0368C59.5831 15.3172 59.4614 14.5873 59.144 13.9353C58.9767 13.6336 58.7077 13.4009 58.385 13.2789C58.0622 13.1568 57.7066 13.1532 57.3815 13.2687L57.5961 13.3704C57.472 12.8708 57.176 12.4308 56.76 12.1276C56.4553 11.8991 56.0977 11.7514 55.7206 11.6982C55.4783 11.6486 55.2285 11.6486 54.9862 11.6982C54.8506 11.8225 54.7715 11.8677 54.7828 11.879Z" fill="#455A64"/>
<path d="M71.1531 20.7943C71.1531 20.7943 71.3338 20.7943 71.605 20.6474C71.9873 20.435 72.3188 20.142 72.5767 19.7887C72.9605 19.2508 73.1696 18.6078 73.1755 17.947C73.1197 17.618 73.163 17.2798 73.2998 16.9754C73.4806 16.7042 73.8873 16.5121 74.102 16.0715C74.2889 15.6755 74.3206 15.2238 74.191 14.8055C74.0613 14.3872 73.7796 14.0327 73.4015 13.8118V14.0604C73.9926 13.4153 74.4258 12.6417 74.6669 11.8007C74.7873 11.4918 74.8337 11.159 74.8025 10.829C74.8025 10.829 74.7008 11.1792 74.4861 11.7442C74.1951 12.5097 73.7533 13.209 73.1868 13.8005L73.0286 13.9587L73.232 14.0604C73.5348 14.2482 73.7568 14.5419 73.855 14.8844C73.9531 15.2269 73.9204 15.5937 73.763 15.9133C73.6274 16.2297 73.2546 16.4104 72.9947 16.7833C72.8198 17.1325 72.7643 17.5294 72.8365 17.9132C72.8407 18.5095 72.672 19.0942 72.3507 19.5966C72.0329 20.0697 71.6262 20.4765 71.1531 20.7943Z" fill="#455A64"/>
<path d="M75.9773 23.3698C75.9773 23.3698 76.079 23.3698 76.271 23.3698C76.5473 23.3477 76.8201 23.2946 77.0845 23.2116C78.0587 22.9047 78.907 22.2902 79.5024 21.4604H79.2765C79.5622 21.7414 79.9014 21.9622 80.274 22.1097C80.6466 22.2572 81.0451 22.3284 81.4458 22.3191C81.8912 22.315 82.3306 22.2148 82.7338 22.0253C83.1888 21.8382 83.5534 21.4817 83.7507 21.031C83.7507 20.839 83.7507 20.6582 83.8298 20.5226C83.8553 20.3909 83.918 20.2694 84.0105 20.1723C84.233 19.9734 84.4947 19.8233 84.7788 19.7317C85.0907 19.6252 85.3814 19.4646 85.6375 19.2572C85.7781 19.1555 85.8889 19.0181 85.9585 18.8591C86.028 18.7002 86.0537 18.5255 86.0329 18.3533L85.8296 18.5228C86.5395 18.7259 87.2993 18.6616 87.965 18.342C88.4798 18.1176 88.9276 17.7633 89.2643 17.3138C89.4845 17.0266 89.6492 16.7009 89.7502 16.3534C89.7751 16.2304 89.7751 16.1036 89.7502 15.9806C89.5888 16.42 89.3601 16.8316 89.0723 17.2008C88.7294 17.5947 88.3002 17.904 87.8181 18.1047C87.204 18.3705 86.5156 18.4105 85.8748 18.2177L85.6375 18.1499V18.3985C85.6441 18.5167 85.6206 18.6347 85.5693 18.7414C85.5179 18.8481 85.4403 18.94 85.3438 19.0086C85.1143 19.1868 84.8538 19.3208 84.5754 19.404C84.2423 19.513 83.9375 19.6943 83.6829 19.9351C83.5414 20.0781 83.4434 20.2583 83.4004 20.4548C83.3882 20.6143 83.3656 20.7728 83.3326 20.9293C83.1618 21.285 82.8632 21.5633 82.4965 21.7089C82.1457 21.885 81.7591 21.9777 81.3667 21.9801C81.0093 21.9938 80.6528 21.937 80.3174 21.813C79.982 21.6889 79.6744 21.5 79.412 21.257L79.2877 21.1327L79.186 21.2796C78.6275 22.0761 77.8391 22.6831 76.9263 23.0196C76.384 23.2794 75.966 23.3359 75.9773 23.3698Z" fill="#455A64"/>
<path d="M104.688 31.0982C104.688 31.0982 104.688 31.0982 104.688 30.9739C104.696 30.8497 104.696 30.7252 104.688 30.601C104.668 30.1284 104.557 29.6641 104.36 29.2339C103.846 28.1649 103.155 27.1907 102.315 26.3528C102.125 26.1798 101.902 26.0455 101.66 25.9573C101.52 25.9025 101.369 25.8821 101.22 25.8978C101.07 25.9136 100.927 25.965 100.801 26.0477L101.039 26.172C101.036 25.7097 100.895 25.2588 100.635 24.8766C100.375 24.4945 100.007 24.1985 99.5776 24.0264C99.1486 23.8542 98.6779 23.8138 98.2258 23.9102C97.7736 24.0066 97.3604 24.2355 97.0389 24.5676L97.3326 24.6693C97.3117 24.415 97.2286 24.1697 97.0907 23.955C96.9528 23.7403 96.7643 23.5627 96.5418 23.4378C96.313 23.307 96.054 23.2382 95.7904 23.2382C95.5269 23.2382 95.2679 23.307 95.039 23.4378C94.7777 23.5712 94.5587 23.7746 94.4063 24.0253L94.734 24.1157C94.7254 23.9593 94.68 23.8072 94.6014 23.6718C94.5229 23.5363 94.4135 23.4213 94.2821 23.3361C94.0404 23.168 93.7516 23.0809 93.4573 23.0875C92.9341 23.1451 92.4333 23.3315 91.9997 23.6298H92.2257C91.8124 23.1414 91.2328 22.8234 90.5987 22.7373C90.0229 22.6611 89.4372 22.7271 88.8927 22.9293C87.9762 23.3153 87.1319 23.854 86.3957 24.5224L86.5991 24.658C86.6314 24.5551 86.6359 24.4455 86.6121 24.3403C86.5883 24.2351 86.537 24.1381 86.4635 24.0592C86.3372 23.9276 86.1768 23.8337 86.0002 23.788C85.6895 23.704 85.362 23.704 85.0512 23.788C84.5772 23.9132 84.1242 24.1074 83.7066 24.3643C83.4462 24.5229 83.2005 24.7044 82.9722 24.9066C82.8957 24.981 82.824 25.0603 82.7576 25.1439C82.7576 25.1439 83.0965 24.8614 83.7744 24.4885C84.1883 24.2589 84.6337 24.0914 85.0964 23.9914C85.3665 23.919 85.651 23.919 85.9211 23.9914C86.2036 24.0818 86.4522 24.3078 86.3618 24.5789L86.2149 24.9857L86.5652 24.7145C87.2921 24.1022 88.1172 23.6171 89.0056 23.2796C89.5048 23.1011 90.04 23.0468 90.5648 23.1214C91.1143 23.1928 91.6155 23.4718 91.9659 23.901L92.0563 24.014L92.1805 23.9349C92.5682 23.6708 93.014 23.5041 93.4798 23.4491C93.6905 23.4312 93.9003 23.4916 94.0692 23.6187C94.2381 23.7459 94.3541 23.9309 94.395 24.1383V24.7597L94.7114 24.2174C94.8291 24.0224 94.9969 23.8624 95.1972 23.7541C95.3716 23.6631 95.5654 23.6155 95.7622 23.6155C95.9589 23.6155 96.1527 23.6631 96.3271 23.7541C96.4992 23.8549 96.6458 23.994 96.7555 24.1605C96.8652 24.327 96.9351 24.5166 96.9598 24.7145V25.0987L97.231 24.8275C97.5097 24.5465 97.8648 24.3535 98.2522 24.2724C98.6396 24.1913 99.0423 24.2256 99.4104 24.3712C99.7784 24.5167 100.096 24.7671 100.323 25.0912C100.55 25.4153 100.677 25.799 100.688 26.1946V26.4884L100.926 26.3189C101.276 26.0477 101.762 26.3189 102.055 26.5901C102.376 26.885 102.67 27.2062 102.937 27.5504C103.399 28.0942 103.797 28.6894 104.123 29.3243C104.427 29.8724 104.619 30.4753 104.688 31.0982Z" fill="#455A64"/>
<path d="M103.852 41.527C103.91 41.4536 103.959 41.374 103.999 41.2897C104.128 41.0487 104.241 40.7996 104.338 40.544C104.494 40.1258 104.541 39.6747 104.474 39.2334C104.414 38.955 104.294 38.6928 104.123 38.4651C103.918 38.1975 103.62 38.0162 103.287 37.9567L103.389 38.1374C103.527 37.8631 103.588 37.5566 103.566 37.2504C103.544 36.9441 103.44 36.6495 103.265 36.3975C103.05 36.1134 102.75 35.9054 102.408 35.8038C102.067 35.7022 101.702 35.7122 101.367 35.8325L101.559 36.0585C101.692 35.8105 101.743 35.526 101.702 35.2472C101.661 34.9683 101.532 34.7101 101.333 34.5106C101.127 34.3146 100.881 34.1656 100.611 34.0739C100.342 33.9823 100.056 33.9501 99.7735 33.9796C99.5152 34.0194 99.2549 34.0458 98.9939 34.0587C98.8818 34.0491 98.7741 34.0108 98.681 33.9474C98.588 33.8841 98.5129 33.7979 98.4629 33.6971C98.3229 33.4377 98.1438 33.2015 97.9318 32.9966C97.6867 32.7864 97.3831 32.6563 97.0618 32.6238C96.4368 32.6159 95.8124 32.6689 95.1976 32.7819C94.9329 32.8445 94.6582 32.8528 94.3902 32.8062C94.1222 32.7596 93.8664 32.6591 93.6384 32.5108C93.4463 32.3526 93.2994 32.1153 93.0847 31.9007C92.881 31.6781 92.6186 31.5176 92.3278 31.4374C92.0548 31.3532 91.7661 31.3328 91.484 31.3779C91.2019 31.4229 90.9339 31.5322 90.7008 31.6973L90.9268 31.8894C91.0415 31.6214 91.0683 31.3238 91.0034 31.0396C90.9384 30.7554 90.785 30.4991 90.5652 30.3076C90.1863 29.9703 89.6939 29.7887 89.1868 29.7991C88.4076 29.8381 87.642 30.018 86.9271 30.3302C86.4686 30.5208 86.0297 30.7554 85.6164 31.0307C85.4639 31.1169 85.3265 31.2276 85.2097 31.3583C85.787 31.0365 86.3831 30.7498 86.9949 30.4996C87.6912 30.2291 88.4287 30.0801 89.1755 30.059C89.5959 30.0602 90.0001 30.2218 90.3053 30.5109C90.4739 30.6643 90.5922 30.8651 90.6446 31.0869C90.6971 31.3087 90.6812 31.5412 90.5991 31.7538L90.294 32.3413L90.825 31.9459C91.0192 31.8126 91.2411 31.7251 91.474 31.6899C91.7069 31.6546 91.9447 31.6726 92.1696 31.7425C92.4056 31.8166 92.6192 31.9487 92.791 32.1266C92.9668 32.3554 93.1593 32.5706 93.3672 32.7706C93.6221 32.9718 93.9266 33.1006 94.2485 33.1435C94.5561 33.1831 94.8674 33.1831 95.175 33.1435C95.7632 33.0307 96.3613 32.9777 96.9602 32.9853C97.2137 33.0053 97.4547 33.1041 97.6494 33.2678C97.8358 33.456 97.9955 33.6689 98.1239 33.9005C98.2037 34.0448 98.3174 34.1674 98.4552 34.258C98.593 34.3485 98.7507 34.4042 98.9148 34.4202C99.1913 34.4063 99.4667 34.3761 99.7396 34.3298C99.9735 34.3028 100.21 34.3261 100.435 34.3982C100.659 34.4703 100.865 34.5895 101.039 34.7479C101.184 34.8934 101.28 35.0801 101.314 35.2823C101.349 35.4846 101.319 35.6926 101.231 35.8777L100.994 36.2732L101.423 36.115C101.697 36.0179 101.994 36.0081 102.273 36.0871C102.552 36.166 102.8 36.3297 102.982 36.5556C103.133 36.7646 103.224 37.0105 103.246 37.2672C103.268 37.5239 103.22 37.7817 103.107 38.0132L103.027 38.1713H103.197C103.463 38.2316 103.705 38.3723 103.889 38.5744C104.073 38.7765 104.19 39.0302 104.225 39.3012C104.3 39.7082 104.273 40.1274 104.146 40.5214C103.999 41.1654 103.818 41.5157 103.852 41.527Z" fill="#455A64"/>
<path d="M105.568 62.8241C105.689 62.805 105.802 62.7543 105.896 62.6772C106.19 62.4968 106.441 62.2537 106.63 61.9654C106.937 61.5094 107.088 60.9663 107.06 60.4175C107.035 60.06 106.94 59.7109 106.779 59.3907C106.618 59.0706 106.395 58.7859 106.122 58.5533V58.7341C106.488 58.1812 106.735 57.5576 106.845 56.9037C106.895 56.5151 106.824 56.1207 106.642 55.7739C106.555 55.5854 106.428 55.4182 106.27 55.2836C106.112 55.149 105.926 55.0503 105.726 54.9943L105.794 55.2993C106.062 55.0644 106.265 54.7638 106.382 54.4271C106.498 54.0904 106.526 53.729 106.461 53.3786C106.407 52.9643 106.238 52.5732 105.975 52.2487C105.721 51.9432 105.377 51.7258 104.992 51.6273C104.642 51.5143 104.472 51.3787 104.427 51.0398C104.383 50.6887 104.268 50.3504 104.088 50.0455C103.724 49.5039 103.22 49.0707 102.631 48.7914C102.122 48.5089 101.659 48.2264 101.218 48.0005C100.527 47.5885 99.7575 47.3268 98.9586 47.2322C98.7451 47.2014 98.5282 47.2014 98.3146 47.2322C98.1677 47.2322 98.0886 47.2322 98.0999 47.3C98.1112 47.3678 98.405 47.3 98.9473 47.3C99.7066 47.4439 100.431 47.7315 101.083 48.1474L102.472 48.9721C103.002 49.2296 103.458 49.6186 103.794 50.102C103.948 50.3825 104.047 50.689 104.088 51.0059C104.114 51.2131 104.205 51.4068 104.348 51.5595C104.499 51.6931 104.676 51.7932 104.868 51.8533C105.166 51.9517 105.433 52.1253 105.644 52.3575C105.854 52.5896 106.002 52.8724 106.071 53.1782C106.14 53.484 106.13 53.8026 106.039 54.103C105.949 54.4034 105.783 54.6754 105.557 54.8926L105.286 55.1072L105.636 55.1976C105.931 55.3142 106.178 55.5275 106.336 55.8025C106.494 56.0775 106.554 56.398 106.506 56.7116C106.404 57.3238 106.186 57.9107 105.862 58.4403V58.542L105.952 58.6211C106.201 58.826 106.406 59.0785 106.555 59.3638C106.704 59.649 106.795 59.9611 106.822 60.282C106.869 60.783 106.754 61.2857 106.495 61.7169C106.269 62.1482 105.953 62.5259 105.568 62.8241Z" fill="#455A64"/>
<path d="M93.6597 54.9153C93.8223 54.8907 93.9792 54.8371 94.1229 54.7572C94.5382 54.5632 94.9197 54.3038 95.2528 53.9889C95.7871 53.4942 96.2007 52.8834 96.4617 52.2037C96.6632 51.7757 96.6954 51.2874 96.5521 50.8366C96.5013 50.7071 96.4205 50.5915 96.3164 50.4992C96.2124 50.4069 96.0879 50.3405 95.9533 50.3055C95.807 50.2491 95.6464 50.2418 95.4956 50.2846C95.3448 50.3274 95.212 50.418 95.1172 50.5428L95.3996 50.6671C95.5629 50.2301 95.5943 49.7547 95.49 49.3C95.4056 49.0454 95.2334 48.8291 95.0042 48.6899C94.8773 48.6288 94.7383 48.5971 94.5975 48.5971C94.4566 48.5971 94.3176 48.6288 94.1907 48.6899C93.9647 48.7689 93.7275 48.8819 93.5919 48.8367C93.4563 48.7916 93.4224 48.656 93.4111 48.3961C93.3483 47.846 93.0774 47.3407 92.6541 46.9838C92.3321 46.6842 91.9297 46.485 91.4962 46.4108C91.0627 46.3365 90.617 46.3904 90.2136 46.5657L90.4509 46.7465C90.5298 46.4101 90.5192 46.0588 90.4201 45.7277C90.321 45.3967 90.1368 45.0974 89.886 44.8597C89.746 44.7579 89.5856 44.688 89.4158 44.6548C89.246 44.6216 89.0709 44.626 88.903 44.6676C88.7348 44.6947 88.578 44.7699 88.4517 44.8842C88.3254 44.9985 88.2349 45.1469 88.1912 45.3116H88.485C88.4353 44.4176 88.1337 43.5558 87.6149 42.8259C87.2206 42.2714 86.7217 41.7993 86.1462 41.4362C85.776 41.2051 85.3719 41.0335 84.9485 40.9278C84.8021 40.8826 84.6498 40.8598 84.4966 40.86C85.0392 41.0442 85.5586 41.2907 86.0445 41.5944C86.5893 41.956 87.0545 42.425 87.4116 42.9728C87.8812 43.6695 88.1472 44.4834 88.1799 45.3229L88.2364 46.5996L88.485 45.3568C88.5753 44.9275 89.2984 44.7806 89.6826 45.0856C89.882 45.2891 90.0262 45.5402 90.1013 45.8151C90.1764 46.09 90.1801 46.3795 90.1119 46.6561V46.9838L90.4057 46.8369C90.7508 46.6998 91.1274 46.6621 91.4928 46.728C91.8582 46.7939 92.1979 46.9608 92.4733 47.2098C92.8236 47.5134 93.049 47.9361 93.106 48.3961C93.11 48.5341 93.1328 48.671 93.1738 48.8028C93.2058 48.8861 93.2575 48.9604 93.3243 49.0194C93.3912 49.0784 93.4714 49.1204 93.558 49.1418C93.8309 49.1594 94.1037 49.1048 94.3489 48.9836C94.4312 48.9419 94.5221 48.9202 94.6144 48.9202C94.7066 48.9202 94.7976 48.9419 94.8799 48.9836C95.0419 49.0778 95.1658 49.2257 95.2302 49.4017C95.3013 49.7796 95.27 50.1697 95.1398 50.5315L94.9138 51.4128L95.4222 50.6558C95.6256 50.362 96.2244 50.5428 96.3374 50.8931C96.4478 51.266 96.4238 51.6659 96.2696 52.0229C96.027 52.6797 95.641 53.2741 95.1398 53.7629C94.7042 54.216 94.2057 54.6042 93.6597 54.9153Z" fill="#455A64"/>
<path d="M73.8311 35.3239C74.1902 35.2181 74.5244 35.0413 74.8141 34.8042C75.1595 34.5595 75.4485 34.2436 75.6615 33.8777C75.7962 33.6459 75.8817 33.3888 75.9128 33.1225C75.9439 32.8563 75.9199 32.5864 75.8423 32.3298C75.7957 32.2065 75.7351 32.0889 75.6615 31.9795L75.605 32.2281C75.8142 32.0908 75.9891 31.9074 76.1164 31.692C76.2437 31.4765 76.32 31.2348 76.3394 30.9853C76.3612 30.783 76.3413 30.5784 76.2811 30.3841C76.2208 30.1898 76.1215 30.0099 75.9891 29.8554C75.5485 29.3357 75.0965 29.3244 75.0965 29.3583C75.0965 29.3922 75.4807 29.5165 75.8084 29.991C75.9932 30.2666 76.0734 30.5992 76.0343 30.9288C76.0058 31.1271 75.9357 31.3172 75.8286 31.4866C75.7215 31.656 75.5798 31.8009 75.4129 31.9118L75.2773 32.0022L75.3677 32.1603C75.4262 32.2434 75.4719 32.3348 75.5033 32.4315C75.5682 32.6419 75.5907 32.8632 75.5694 33.0823C75.548 33.3015 75.4833 33.5143 75.379 33.7082C75.1959 34.0419 74.9504 34.3372 74.6559 34.5782C74.1475 35.0415 73.7972 35.2787 73.8311 35.3239Z" fill="#455A64"/>
<path d="M65.2776 32.4543C65.0064 32.0943 64.8704 31.6504 64.8935 31.2002C64.912 30.9655 64.9876 30.7389 65.1136 30.54C65.2396 30.3411 65.4123 30.176 65.6166 30.059C65.8778 29.9112 66.1755 29.8402 66.4754 29.8542C66.7752 29.8682 67.065 29.9666 67.3114 30.1381L67.5486 30.3189V30.0251C67.5668 29.6322 67.6669 29.2473 67.8424 28.8953C67.9164 28.7243 68.0264 28.5712 68.1648 28.4464C68.3032 28.3217 68.4668 28.2281 68.6446 28.1722C69.1869 28.0366 69.8761 28.4885 69.7744 28.9631H70.1021C70.1159 28.2741 70.3905 27.616 70.8704 27.1214C71.2591 26.7291 71.7609 26.4683 72.3053 26.3757C72.8051 26.319 73.3112 26.3573 73.7967 26.4887C73.7967 26.4887 73.6837 26.387 73.4352 26.2853C73.0702 26.171 72.6857 26.1325 72.3053 26.1723C71.6994 26.2281 71.1301 26.4869 70.6896 26.9068C70.1319 27.4482 69.8076 28.186 69.7858 28.9631H70.1247C70.15 28.7749 70.1209 28.5833 70.0409 28.4111C69.9608 28.239 69.833 28.0933 69.6728 27.9914C69.5117 27.875 69.327 27.7954 69.1317 27.7583C68.9365 27.7212 68.7355 27.7275 68.5429 27.7767C68.3144 27.8429 68.1031 27.958 67.9236 28.1141C67.744 28.2702 67.6007 28.4635 67.5034 28.6806C67.3231 29.0596 67.2195 29.4704 67.1984 29.8896L67.4696 29.7653C67.1652 29.5674 66.81 29.462 66.447 29.462C66.084 29.462 65.7288 29.5674 65.4245 29.7653C65.1857 29.9174 64.9898 30.1281 64.8553 30.3772C64.7209 30.6264 64.6523 30.9058 64.6562 31.1889C64.6505 31.5459 64.7616 31.8951 64.9726 32.1832C65.1646 32.3978 65.2776 32.4656 65.2776 32.4543Z" fill="#455A64"/>
<path d="M64.6905 75.1396C64.8952 75.1843 65.1072 75.1843 65.3119 75.1396C65.8776 75.0357 66.4183 74.8248 66.905 74.5182C67.2453 74.3071 67.5567 74.0526 67.8315 73.7612C68.1565 73.4206 68.3932 73.0055 68.5207 72.5522C68.6936 71.4948 68.4551 70.4113 67.8541 69.5242C67.4969 68.9442 67.0237 68.4442 66.4644 68.0554H66.3966H66.3288C65.0289 68.6306 63.8066 69.367 62.6907 70.2473C62.363 70.4966 62.0499 70.7644 61.7529 71.0495C61.5495 71.2416 61.4478 71.3659 61.4591 71.3772C61.4704 71.3885 61.9449 70.993 62.8036 70.3942C63.9332 69.5742 65.1494 68.8808 66.4305 68.3266H66.2949C66.8198 68.6981 67.2654 69.1705 67.6055 69.7163C68.1659 70.5399 68.3958 71.5443 68.2495 72.5296C67.9987 73.2976 67.4818 73.9507 66.792 74.3713C66.3345 74.6858 65.8261 74.9189 65.2893 75.0605C64.9051 75.117 64.6905 75.117 64.6905 75.1396Z" fill="#263238"/>
<path d="M76.9272 449.539C77.0402 449.765 78.2153 449.415 79.6615 449.539C81.1077 449.663 82.2489 450.092 82.3844 449.867C82.52 449.641 81.424 448.737 79.718 448.646C78.0119 448.556 76.8029 449.335 76.9272 449.539Z" fill="#263238"/>
<path d="M74.1362 429.631C74.3395 429.778 75.1869 428.885 76.4976 428.253C77.8082 427.62 79.0171 427.45 79.0171 427.202C79.0171 426.953 77.6274 426.682 76.1021 427.45C74.5768 428.219 73.9215 429.518 74.1362 429.631Z" fill="#263238"/>
<path d="M145.668 149.969C144.47 140.931 129.85 120.22 124.2 113.125C115.941 102.821 101.863 94.8665 95.4231 94.731L109.659 201.886C117.229 193.977 126.404 187.616 133.861 179.56C141.318 171.504 147.114 160.861 145.668 149.969Z" fill="#455A64"/>
<path d="M27.6881 116.323C27.7741 112.335 26.9673 108.378 25.3267 104.742C22.6377 99.0925 14.401 89.4435 14.401 89.4435C14.401 89.4435 2.95564 80.1674 1.7354 80.7437C0.51516 81.3199 0.0858189 82.7209 1.66761 84.1332C3.2494 85.5455 9.30542 92.9348 9.30542 92.9348C9.30542 92.9348 6.68416 93.8838 6.63897 95.6916C6.56258 96.6116 6.7549 97.534 7.19258 98.3468C7.19258 98.3468 4.7521 99.4766 4.11939 100.855C3.74193 101.673 3.51972 102.554 3.46407 103.454C3.00694 103.55 2.59558 103.797 2.29631 104.156C1.99704 104.515 1.82731 104.964 1.8145 105.431C1.67993 106.561 1.72569 107.705 1.95007 108.82C1.95007 108.82 6.25482 113.927 8.05128 114.571C9.84775 115.215 12.243 115.961 12.243 115.961L13.7683 118.108L12.7176 131.192L27.6881 116.323Z" fill="#B47266"/>
<path d="M10.9101 128.141C10.9101 128.141 7.2607 156.489 8.97808 162.613C10.6955 168.736 13.4975 177.176 18.7739 178.973C24.0503 180.769 18.7739 177.843 18.7739 177.843C18.7739 177.843 39.7326 160.296 39.9586 160.568C40.1846 160.839 28.6601 114.131 28.6601 114.131L10.9101 128.141Z" fill="#455A64"/>
<path d="M118.799 113.996C116.856 104.121 107.896 96.8897 102.981 93.4662C101.444 92.3364 96.4505 90.1897 93.3773 90.201C92.9592 90.201 90.1572 91.9296 85.9316 93.8052C79.8127 96.5174 73.0364 97.3889 66.4303 96.3135C60.9167 95.0932 51.0531 98.5732 44.6807 106.482C39.4834 112.967 20.5357 148.287 20.5357 148.287C20.5357 148.287 13.7566 155.857 13.3273 161.257C12.898 166.658 9.66657 178.363 22.7955 182.453C29.9135 184.645 37.4835 180.815 42.6131 172.804L44.8728 169.302C44.7598 171.076 47.4036 177.663 52.4541 180.205C57.2559 182.634 54.42 189.764 54.7138 191.571L117.387 190.306C116.584 185.142 122.64 133.519 118.799 113.996Z" fill="#455A64"/>
<path d="M65.278 140.219C65.4362 140.332 60.8151 147.156 54.9738 155.472C49.1325 163.788 44.2515 170.42 44.0933 170.318C43.9351 170.217 48.5449 163.37 54.3975 155.065C60.2502 146.761 65.1198 140.106 65.278 140.219Z" fill="#263238"/>
<path d="M40.4888 112.854C40.6357 112.933 36.2857 120.932 30.7833 130.728C25.281 140.524 20.7051 148.388 20.6147 148.309C20.5243 148.23 24.8177 140.23 30.3201 130.434C35.8225 120.639 40.3419 112.775 40.4888 112.854Z" fill="#263238"/>
<path d="M31.8347 163.878C30.6411 161.702 29.6211 159.436 28.7841 157.099C27.7664 154.85 26.9314 152.522 26.2871 150.139C27.4779 152.317 28.4978 154.583 29.3377 156.918C30.3475 159.171 31.1823 161.498 31.8347 163.878Z" fill="white"/>
<path d="M48.4209 149.563C46.4933 149.275 44.6004 148.791 42.7716 148.117C40.877 147.637 39.0369 146.963 37.2805 146.106C39.2067 146.4 41.099 146.885 42.9298 147.552C44.8198 148.047 46.6585 148.72 48.4209 149.563Z" fill="white"/>
<path d="M48.3976 128.356C46.6962 129.738 44.8779 130.971 42.963 132.039C41.1501 133.272 39.229 134.339 37.2234 135.225C40.7371 132.609 44.4766 130.31 48.3976 128.356Z" fill="white"/>
<path d="M58.3983 120.074C57.6911 118.34 57.1649 116.537 56.8278 114.696C56.3029 112.901 55.9659 111.057 55.8223 109.193C56.5396 110.92 57.0699 112.72 57.4041 114.56C57.9228 116.359 58.2559 118.207 58.3983 120.074Z" fill="white"/>
<path d="M72.1931 162.172C70.249 163.196 68.2187 164.046 66.1258 164.714C64.1014 165.561 62.007 166.231 59.8665 166.714C61.8029 165.68 63.83 164.825 65.9225 164.161C67.9479 163.309 70.0468 162.643 72.1931 162.172Z" fill="white"/>
<path d="M79.1974 149.506C78.0165 147.695 77.0066 145.777 76.1807 143.778C75.1717 141.862 74.3397 139.857 73.6951 137.79C74.8744 139.606 75.8842 141.528 76.7118 143.529C77.7159 145.444 78.5478 147.444 79.1974 149.506Z" fill="white"/>
<path d="M101.501 118.515C99.1319 120.048 96.6633 121.422 94.1116 122.627C91.6443 124.004 89.0848 125.208 86.4512 126.232C88.8147 124.686 91.2838 123.308 93.8404 122.108C96.305 120.729 98.865 119.528 101.501 118.515Z" fill="white"/>
<path d="M81.3677 115.193C81.1982 115.193 81.6163 112.357 81.9214 108.888C82.0115 106.782 82.2076 104.681 82.5089 102.595C82.8021 104.701 82.8021 106.838 82.5089 108.945C82.4083 111.069 82.0245 113.17 81.3677 115.193Z" fill="white"/>
<path d="M109.501 107.928C107.419 106.929 105.427 105.753 103.546 104.414C101.556 103.235 99.6667 101.893 97.8972 100.403C99.9845 101.398 101.981 102.574 103.863 103.917C105.853 105.091 107.739 106.433 109.501 107.928Z" fill="white"/>
<path d="M108.563 143.552C108.28 141.38 108.337 139.176 108.732 137.022C108.946 134.837 109.487 132.696 110.337 130.672C110.506 130.672 109.806 133.553 109.32 137.101C108.834 140.648 108.732 143.552 108.563 143.552Z" fill="white"/>
<path d="M95.7165 154.998C94.7105 153.03 94.0639 150.899 93.807 148.704C93.3646 146.536 93.3072 144.306 93.6375 142.117C93.807 142.117 93.807 145.055 94.3945 148.603C94.982 152.15 95.8859 154.941 95.7165 154.998Z" fill="white"/>
<path d="M91.0729 174.985C88.3501 176.466 85.4546 177.604 82.4521 178.374C83.764 177.543 85.1764 176.882 86.6552 176.408C88.0582 175.74 89.5438 175.262 91.0729 174.985Z" fill="white"/>
<path d="M105.456 176.499C105.336 175.777 105.336 175.04 105.456 174.318C105.588 172.567 105.86 170.829 106.269 169.121C106.67 167.411 107.199 165.734 107.851 164.104C108.079 163.41 108.41 162.755 108.834 162.161C109.003 162.229 107.704 165.302 106.834 169.256C105.964 173.211 105.636 176.51 105.456 176.499Z" fill="white"/>
<path d="M62.172 185.38C61.212 182.901 60.6329 180.292 60.4546 177.64C61.4005 180.123 61.979 182.73 62.172 185.38Z" fill="white"/>
<path d="M130.641 169.618C129.914 170.864 129.021 172.004 127.986 173.007C127.095 174.129 126.053 175.121 124.89 175.956C126.506 173.602 128.442 171.484 130.641 169.663V169.618Z" fill="white"/>
<path d="M131.713 155.348C130.434 153.96 129.298 152.445 128.324 150.828C127.188 149.307 126.215 147.671 125.42 145.947C126.693 147.341 127.828 148.855 128.809 150.467C129.94 151.991 130.913 153.627 131.713 155.348Z" fill="white"/>
<path d="M130.922 131.237C128.105 131.422 125.327 130.497 123.183 128.661C123.284 128.514 124.855 129.452 126.979 130.153C129.103 130.853 130.933 131.068 130.922 131.237Z" fill="white"/>
<path d="M138.719 159.291C138.646 157.27 138.767 155.245 139.08 153.247C139.206 151.229 139.524 149.227 140.029 147.27C140.11 149.292 139.989 151.317 139.668 153.314C139.542 155.332 139.225 157.334 138.719 159.291Z" fill="white"/>
<path d="M27.5079 176.747C25.8201 176.895 24.1196 176.73 22.4914 176.262C20.821 175.973 19.217 175.383 17.7573 174.522C17.8251 174.363 19.9379 175.075 22.627 175.651C25.316 176.228 27.5305 176.578 27.5079 176.747Z" fill="white"/>
<path d="M14.2652 141.259C14.1742 139.663 14.2728 138.063 14.559 136.491C14.6558 134.898 14.948 133.323 15.429 131.802C15.5275 133.397 15.4326 134.998 15.1465 136.57C15.0478 138.163 14.7518 139.738 14.2652 141.259Z" fill="white"/>
<path d="M27.2245 130.378C27.1567 130.514 25.9478 129.937 24.9648 128.683C24.2837 127.984 23.8818 127.06 23.835 126.085C23.9931 126.017 24.5016 127.147 25.4506 128.344C26.3997 129.542 27.3149 130.231 27.2245 130.378Z" fill="white"/>
<path d="M118.867 120.56C118.919 120.79 118.946 121.025 118.946 121.26L119.059 123.283C119.172 125.034 119.229 127.576 119.297 130.706C119.387 136.988 119.297 145.654 118.992 155.224C118.687 164.794 118.246 173.448 117.862 179.708C117.67 182.781 117.523 185.357 117.398 187.119C117.398 187.944 117.297 188.611 117.252 189.131C117.258 189.366 117.236 189.601 117.184 189.831C117.156 189.598 117.156 189.363 117.184 189.131C117.184 188.611 117.184 187.933 117.184 187.108C117.252 185.278 117.342 182.77 117.466 179.685C117.715 173.426 118.088 164.771 118.393 155.201C118.698 145.631 118.856 136.977 118.867 130.717C118.867 127.633 118.867 125.068 118.867 123.294V121.272C118.838 121.035 118.838 120.796 118.867 120.56Z" fill="#263238"/>
<g opacity="0.3">
<path d="M44.6487 169.245C55.9472 164.432 64.455 153.427 65.0764 141.112C57.5566 149.953 50.7273 159.358 44.6487 169.245Z" fill="black"/>
</g>
<g opacity="0.3">
<path d="M119.116 139.959C118.197 153.412 117.888 166.887 118.189 180.385L118.415 180.826C122.316 167.514 122.558 153.397 119.116 139.959Z" fill="black"/>
</g>
<g opacity="0.3">
<path d="M31.3842 128.797C27.1917 132.315 23.3268 136.206 19.8372 140.423C16.3313 144.668 14.0396 149.782 13.2049 155.224C13.1258 155.936 13.3405 156.964 14.0636 156.907C14.4478 156.907 14.7189 156.512 14.9223 156.196C20.7523 147.217 26.2698 138.039 31.4746 128.661L31.3842 128.797Z" fill="black"/>
</g>
<path d="M67.5947 126.56C67.493 126.56 67.9676 125.147 68.3065 122.854C68.5043 121.511 68.5987 120.155 68.589 118.798C68.5621 115.47 67.9066 112.177 66.6569 109.092C66.1469 107.834 65.5386 106.617 64.8379 105.454C63.6402 103.465 62.6799 102.381 62.759 102.302C62.838 102.223 63.0527 102.528 63.4933 103.014C64.1171 103.721 64.6838 104.476 65.1881 105.273C65.9545 106.431 66.6126 107.656 67.1541 108.934C68.4927 112.064 69.166 115.439 69.1313 118.843C69.1195 120.227 68.9795 121.608 68.7133 122.967C68.5499 123.885 68.3119 124.788 68.0015 125.667C67.9133 125.984 67.776 126.285 67.5947 126.56Z" fill="#263238"/>
<path d="M76.3509 428.896L77.3226 456.013C77.3226 456.013 50.1271 466.102 49.822 471.119H102.383L102.563 428.896H76.3509Z" fill="#455A64"/>
<path d="M93.5241 453.753C94.0307 453.906 94.4626 454.241 94.7361 454.694C95.0095 455.147 95.1051 455.685 95.0042 456.205C94.8705 456.714 94.5463 457.153 94.0985 457.431C93.6507 457.708 93.1134 457.803 92.5976 457.696C92.0596 457.533 91.6018 457.175 91.3135 456.693C91.0251 456.21 90.9271 455.637 91.0384 455.086C91.2345 454.57 91.623 454.15 92.1223 453.914C92.6215 453.678 93.1928 453.645 93.7162 453.821" fill="#E0E0E0"/>
<path d="M102.383 471.096L102.236 466.837L51.9008 468.441C51.9008 468.441 49.562 469.458 49.8219 471.107L102.383 471.096Z" fill="#263238"/>
<path d="M76.4639 455.73C76.4639 455.979 77.7632 456.103 79.0174 456.928C80.2715 457.753 80.9607 458.826 81.198 458.724C81.4353 458.623 81.0511 457.143 79.5032 456.171C77.9553 455.199 76.4074 455.493 76.4639 455.73Z" fill="#263238"/>
<path d="M70.9277 458.013C70.9277 458.261 71.9898 458.691 72.8598 459.775C73.7298 460.86 73.9896 462.035 74.2382 462.035C74.4868 462.035 74.6563 460.566 73.549 459.244C72.4417 457.922 70.9277 457.764 70.9277 458.013Z" fill="#263238"/>
<path d="M67.8204 464.6C68.0576 464.6 68.4192 463.38 67.7526 461.967C67.086 460.555 65.8996 460.013 65.7866 460.216C65.6736 460.42 66.4194 461.188 66.9165 462.352C67.4136 463.515 67.5379 464.577 67.8204 464.6Z" fill="#263238"/>
<path d="M117.399 190.328C117.399 190.328 127.082 208.406 129.827 228.009C133.07 250.719 115.727 267.983 115.727 267.983L104.586 338.034L103.694 451.2L74.487 452.081L60.4316 317.098L68.1598 191.876L117.399 190.328Z" fill="#263238"/>
<path d="M63.3907 412.039L77.706 435.043C77.706 435.043 59.1199 457.301 61.3457 461.809L106.935 435.676L86.1346 398.91L63.3907 412.039Z" fill="#455A64"/>
<path d="M90.6546 424.998C91.1706 424.878 91.7131 424.953 92.1767 425.21C92.6403 425.467 92.9918 425.887 93.1629 426.388C93.2983 426.897 93.2332 427.439 92.9809 427.902C92.7287 428.364 92.3085 428.712 91.8071 428.874C91.2613 428.998 90.6888 428.916 90.2003 428.643C89.7119 428.369 89.3423 427.924 89.1632 427.394C89.0765 426.847 89.2044 426.288 89.5202 425.833C89.836 425.378 90.3153 425.063 90.858 424.953" fill="#E0E0E0"/>
<path d="M106.936 435.675L104.676 432.06L61.742 458.442C61.742 458.442 60.2168 460.487 61.2675 461.831L106.936 435.675Z" fill="#263238"/>
<path d="M76.8139 435.235C76.9495 435.461 78.1133 434.918 79.6273 435.009C81.1413 435.099 82.2485 435.698 82.4067 435.495C82.5649 435.291 81.4915 434.195 79.6612 434.116C77.8308 434.037 76.6444 435.065 76.8139 435.235Z" fill="#263238"/>
<path d="M73.1876 439.958C73.2554 440.195 74.4417 440.025 75.7298 440.534C77.0178 441.042 77.82 441.912 77.9895 441.777C78.1589 441.641 77.6279 440.297 76.0009 439.698C74.3739 439.099 73.0407 439.743 73.1876 439.958Z" fill="#263238"/>
<path d="M73.7174 447.234C73.9434 447.167 73.6271 445.879 72.3503 444.975C71.0736 444.071 69.7629 444.195 69.7742 444.432C69.7855 444.67 70.8024 444.952 71.8306 445.698C72.8587 446.444 73.4802 447.336 73.7174 447.234Z" fill="#263238"/>
<path d="M53.7308 201.322C53.7308 201.322 13.3047 318.453 20.5809 332.916C27.8572 347.378 67.7748 433.472 67.7748 433.472L101.038 416.05L65.2779 327.504L95.1624 265.26C95.1624 265.26 109.093 253.634 114.731 237.014C120.369 220.394 111.907 190.464 111.907 190.464L54.6911 191.594L53.7308 201.322Z" fill="#263238"/>
<path d="M116.787 219.422C116.787 219.422 116.878 219.76 116.991 220.416C117.104 221.071 117.262 222.054 117.409 223.342C117.862 227.09 118.017 230.868 117.872 234.641C117.761 237.337 117.409 240.018 116.821 242.651C116.476 244.151 115.999 245.618 115.398 247.035C114.725 248.551 113.924 250.006 113.002 251.385C108.741 257.872 102.536 262.844 95.275 265.587L95.4558 265.429L65.6277 327.707V327.413C66.1249 328.633 66.6559 329.955 67.1869 331.277L101.275 416.016L101.354 416.219L101.162 416.321L76.7568 428.975L70.1133 432.365L68.3733 433.235C67.9778 433.427 67.7745 433.506 67.7745 433.506C67.7745 433.506 67.9553 433.382 68.3394 433.167L70.0455 432.24L76.6325 428.715L100.924 415.869L100.811 416.174L66.5316 331.492L64.9837 327.639L64.9272 327.492L64.995 327.356C76.1015 304.262 86.3944 282.885 94.9361 265.135V265.034H95.0604C102.21 262.345 108.335 257.48 112.573 251.125C113.486 249.773 114.28 248.344 114.946 246.854C115.56 245.469 116.041 244.027 116.381 242.55C116.993 239.952 117.371 237.305 117.511 234.641C117.683 230.898 117.581 227.148 117.205 223.421C117.081 222.133 116.957 221.161 116.878 220.484C116.799 219.806 116.787 219.422 116.787 219.422Z" fill="#455A64"/>
<path d="M73.2882 198.768C72.953 197.69 72.804 196.563 72.8476 195.435C72.6944 194.306 72.7403 193.159 72.9831 192.046C73.3276 193.118 73.4806 194.242 73.4351 195.367C73.5802 196.501 73.5305 197.651 73.2882 198.768Z" fill="#455A64"/>
<path d="M78.0791 199.819C77.7283 198.663 77.5718 197.456 77.6159 196.249C77.4668 195.052 77.5088 193.839 77.7402 192.656C78.0869 193.813 78.2434 195.019 78.2034 196.226C78.3517 197.423 78.3097 198.635 78.0791 199.819Z" fill="#455A64"/>
<path d="M103.694 199.333C103.098 197.987 102.687 196.565 102.473 195.108C102.064 193.689 101.844 192.223 101.818 190.746C102.413 192.098 102.824 193.523 103.038 194.983C103.447 196.398 103.668 197.861 103.694 199.333Z" fill="#455A64"/>
<path d="M108.212 199.966C107.727 197.13 107.624 194.242 107.907 191.379C108.408 194.213 108.51 197.103 108.212 199.966Z" fill="#455A64"/>
<path d="M86.7455 217.388C86.3667 217.643 85.9566 217.848 85.5253 217.998C84.3744 218.489 83.1787 218.868 81.955 219.128C77.8987 219.975 73.6859 219.662 69.7992 218.226C65.9126 216.789 62.5093 214.286 59.9793 211.004C59.2122 210.025 58.5424 208.973 57.9795 207.864C57.7459 207.472 57.5673 207.05 57.4485 206.609C58.323 208.04 59.2774 209.421 60.307 210.745C62.8591 213.883 66.2069 216.279 70.0008 217.682C73.7948 219.085 77.8958 219.444 81.8759 218.721C83.5212 218.362 85.1466 217.917 86.7455 217.388Z" fill="#455A64"/>
<path d="M44.6465 325.131C45.6225 324.734 46.6494 324.475 47.6971 324.362C52.74 323.591 57.8974 324.184 62.6337 326.08C63.6256 326.422 64.5648 326.901 65.4245 327.503C64.4263 327.213 63.4455 326.866 62.4868 326.464C60.1281 325.651 57.6886 325.094 55.2106 324.803C52.7286 324.53 50.2242 324.53 47.7423 324.803C45.8441 324.95 44.6691 325.221 44.6465 325.131Z" fill="#455A64"/>
<path d="M106.665 270.774C102.875 269.524 99.2159 267.908 95.7393 265.949C97.6651 266.482 99.5344 267.201 101.321 268.096C103.183 268.817 104.973 269.713 106.665 270.774Z" fill="#455A64"/>
</svg>
