<svg width="321" height="300" viewBox="0 0 321 300" fill="none" xmlns="http://www.w3.org/2000/svg">
<path d="M298.592 29.4238H16.4458V210.477H298.592V29.4238Z" fill="white"/>
<path d="M298.585 81.8579H93.0894V101.88H298.585V81.8579Z" fill="#F5F5F5"/>
<path d="M298.585 139.658H93.0894V170.247H298.585V139.658Z" fill="#F5F5F5"/>
<path d="M93.0963 58.0322H16.4458V209.956H93.0963V58.0322Z" fill="#EBEBEB"/>
<path d="M93.0963 62.1025H16.4458V76.9722H93.0963V62.1025Z" fill="#3780EF"/>
<path d="M78.2747 90.3754C78.2747 90.4714 67.489 90.5536 54.1818 90.5536C40.8745 90.5536 30.0889 90.4714 30.0889 90.3754C30.0889 90.2795 40.8745 90.1973 54.1818 90.1973C67.489 90.1973 78.2747 90.2726 78.2747 90.3754Z" fill="#263238"/>
<path d="M78.2747 109.055C78.2747 109.151 67.489 109.233 54.1818 109.233C40.8745 109.233 30.0889 109.151 30.0889 109.055C30.0889 108.959 40.8745 108.877 54.1818 108.877C67.489 108.877 78.2747 108.959 78.2747 109.055Z" fill="#263238"/>
<path d="M78.2747 127.734C78.2747 127.837 67.489 127.912 54.1818 127.912C40.8745 127.912 30.0889 127.837 30.0889 127.734C30.0889 127.632 40.8745 127.556 54.1818 127.556C67.489 127.556 78.2747 127.666 78.2747 127.734Z" fill="#263238"/>
<path d="M108.309 74.8001V71.7919L106.836 74.2725H106.315L104.841 71.8536V74.8001H103.759V69.7842H104.718L106.589 72.902L108.439 69.7842H109.385V74.8001H108.309Z" fill="#263238"/>
<path d="M113.893 73.7243H111.563L111.118 74.8001H109.932L112.166 69.7842H113.31L115.551 74.8001H114.338L113.893 73.7243ZM113.495 72.8472L112.7 70.9217L111.933 72.8472H113.495Z" fill="#263238"/>
<path d="M120.677 69.7842V74.8001H119.724L117.223 71.7577V74.8001H116.079V69.7842H117.038L119.532 72.8266V69.7842H120.677Z" fill="#263238"/>
<path d="M125.144 73.7243H122.821L122.376 74.8001H121.184L123.417 69.7842H124.569L126.809 74.8001H125.59L125.144 73.7243ZM124.802 72.8472L124.007 70.9217L123.212 72.8472H124.802Z" fill="#263238"/>
<path d="M130.668 72.2169H131.73V74.2726C131.131 74.7003 130.41 74.9238 129.674 74.9099C129.318 74.9358 128.961 74.8881 128.624 74.7696C128.287 74.6512 127.979 74.4646 127.717 74.2216C127.456 73.9785 127.247 73.6842 127.105 73.357C126.962 73.0297 126.889 72.6766 126.889 72.3197C126.889 71.9628 126.962 71.6097 127.105 71.2824C127.247 70.9552 127.456 70.6609 127.717 70.4178C127.979 70.1748 128.287 69.9882 128.624 69.8698C128.961 69.7513 129.318 69.7036 129.674 69.7295C130.067 69.7118 130.458 69.7798 130.821 69.9289C131.185 70.078 131.511 70.3046 131.778 70.5929L131.031 71.2781C130.869 71.0952 130.67 70.9496 130.446 70.8514C130.222 70.7532 129.98 70.7047 129.736 70.7094C129.311 70.7094 128.903 70.8783 128.602 71.179C128.301 71.4797 128.132 71.8876 128.132 72.3129C128.132 72.7381 128.301 73.146 128.602 73.4467C128.903 73.7474 129.311 73.9163 129.736 73.9163C130.048 73.9236 130.358 73.8505 130.634 73.7039L130.668 72.2169Z" fill="#263238"/>
<path d="M136.684 73.8682V74.8001H132.806V69.7842H136.595V70.7161H133.957V71.8056H136.287V72.7101H133.957V73.8682H136.684Z" fill="#263238"/>
<path d="M140.679 70.7298H139.075V69.7842H143.44V70.7298H141.837V74.8001H140.679V70.7298Z" fill="#263238"/>
<path d="M147.12 73.7243H144.79L144.345 74.8001H143.159L145.393 69.7842H146.537L148.778 74.8001H147.558L147.12 73.7243ZM146.75 72.8472L145.955 70.9217L145.16 72.8472H146.75Z" fill="#263238"/>
<path d="M148.909 74.3066L149.306 73.4295C149.791 73.7682 150.366 73.9522 150.958 73.9572C151.643 73.9572 151.924 73.7242 151.924 73.4158C151.924 72.4771 149.011 73.1212 149.011 71.2642C149.011 70.4077 149.697 69.7019 151.122 69.7019C151.732 69.6895 152.334 69.8435 152.863 70.1473L152.506 71.0244C152.091 70.7783 151.619 70.6437 151.136 70.6338C150.45 70.6338 150.183 70.8873 150.183 71.2025C150.183 72.1276 153.095 71.4903 153.095 73.3336C153.095 74.1696 152.41 74.8822 150.971 74.8822C150.241 74.9046 149.522 74.7038 148.909 74.3066Z" fill="#263238"/>
<path d="M155.699 72.8472L155.014 73.5324V74.8001H153.863V69.7842H155.014V72.1619L157.234 69.8184H158.522L156.467 72.0523L158.666 74.8344H157.296L155.699 72.8472Z" fill="#263238"/>
<path d="M158.673 74.3066L159.071 73.4295C159.555 73.7682 160.131 73.9522 160.722 73.9572C161.407 73.9572 161.688 73.7242 161.688 73.4158C161.688 72.4771 158.776 73.1212 158.776 71.2642C158.776 70.4077 159.461 69.7019 160.887 69.7019C161.497 69.6895 162.098 69.8435 162.627 70.1473L162.271 71.0244C161.855 70.7783 161.383 70.6437 160.9 70.6338C160.215 70.6338 159.948 70.8873 159.948 71.2025C159.948 72.1276 162.86 71.4903 162.86 73.3336C162.86 74.1696 162.175 74.8822 160.736 74.8822C160.006 74.9046 159.286 74.7038 158.673 74.3066Z" fill="#263238"/>
<path d="M112.056 89.8274H110.124V89.3271H114.564V89.8274H112.632V94.8227H112.056V89.8274Z" fill="#263238"/>
<path d="M118.292 92.2665V94.8224H117.758V94.1783C117.603 94.4095 117.389 94.5951 117.138 94.7156C116.888 94.8361 116.609 94.8872 116.332 94.8636C115.4 94.8636 114.825 94.377 114.825 93.6644C114.825 92.9518 115.236 92.4926 116.421 92.4926H117.73V92.2391C117.73 91.5539 117.333 91.1496 116.565 91.1496C116.065 91.146 115.58 91.3182 115.195 91.6361L114.941 91.2181C115.423 90.846 116.018 90.6501 116.627 90.6631C116.848 90.6317 117.072 90.651 117.284 90.7195C117.496 90.788 117.69 90.904 117.851 91.0586C118.011 91.2131 118.134 91.4023 118.211 91.6116C118.287 91.8209 118.315 92.0449 118.292 92.2665ZM117.73 93.5822V92.8969H116.435C115.633 92.8969 115.38 93.2121 115.38 93.6301C115.38 94.0481 115.763 94.4113 116.421 94.4113C116.695 94.4235 116.965 94.3501 117.195 94.2015C117.424 94.0529 117.602 93.8364 117.703 93.5822H117.73Z" fill="#263238"/>
<path d="M119.204 94.3568L119.458 93.9114C119.884 94.2187 120.398 94.3819 120.924 94.3774C121.705 94.3774 122.027 94.1101 122.027 93.6921C122.027 92.6163 119.355 93.466 119.355 91.8352C119.355 91.1499 119.937 90.6566 120.986 90.6566C121.498 90.649 122.003 90.7817 122.445 91.0403L122.205 91.4857C121.843 91.2496 121.418 91.1279 120.986 91.1362C120.239 91.1362 119.91 91.424 119.91 91.8215C119.91 92.9315 122.589 92.0955 122.589 93.6784C122.589 94.3637 121.959 94.857 120.883 94.857C120.284 94.8784 119.694 94.7027 119.204 94.3568Z" fill="#263238"/>
<path d="M125.145 92.7531L124.172 93.6439V94.8226H123.617V88.998H124.172V92.945L126.639 90.6974H127.324L125.556 92.3831L127.488 94.8226H126.803L125.145 92.7531Z" fill="#263238"/>
<path d="M217.172 115.558C217.172 115.661 192.935 115.736 163.038 115.736C133.141 115.736 108.904 115.661 108.904 115.558C108.904 115.455 133.134 115.38 163.038 115.38C192.942 115.38 217.172 115.462 217.172 115.558Z" fill="#263238"/>
<path d="M154.61 125.302C154.61 125.398 144.332 125.48 131.614 125.48C118.896 125.48 108.61 125.398 108.61 125.302C108.61 125.206 118.889 125.124 131.614 125.124C144.339 125.124 154.61 125.199 154.61 125.302Z" fill="#263238"/>
<path d="M280.323 108.74H235.159C232.12 108.74 229.657 111.203 229.657 114.242V122.65C229.657 125.689 232.12 128.152 235.159 128.152H280.323C283.362 128.152 285.826 125.689 285.826 122.65V114.242C285.826 111.203 283.362 108.74 280.323 108.74Z" fill="#3780EF"/>
<path d="M217.172 150.08C217.172 150.183 192.935 150.258 163.038 150.258C133.141 150.258 108.904 150.183 108.904 150.08C108.904 149.977 133.134 149.902 163.038 149.902C192.942 149.902 217.172 149.984 217.172 150.08Z" fill="#263238"/>
<path d="M154.61 159.824C154.61 159.92 144.332 160.002 131.614 160.002C118.896 160.002 108.61 159.92 108.61 159.824C108.61 159.728 118.889 159.646 131.614 159.646C144.339 159.646 154.61 159.728 154.61 159.824Z" fill="#263238"/>
<path d="M280.323 145.242H235.159C232.12 145.242 229.657 147.706 229.657 150.745V159.152C229.657 162.191 232.12 164.655 235.159 164.655H280.323C283.362 164.655 285.826 162.191 285.826 159.152V150.745C285.826 147.706 283.362 145.242 280.323 145.242Z" fill="#3780EF"/>
<path d="M217.172 184.602C217.172 184.705 192.935 184.787 163.038 184.787C133.141 184.787 108.904 184.705 108.904 184.602C108.904 184.5 133.134 184.424 163.038 184.424C192.942 184.424 217.172 184.541 217.172 184.602Z" fill="#263238"/>
<path d="M154.61 194.346C154.61 194.442 144.332 194.524 131.614 194.524C118.896 194.524 108.61 194.442 108.61 194.346C108.61 194.25 118.889 194.168 131.614 194.168C144.339 194.168 154.61 194.25 154.61 194.346Z" fill="#263238"/>
<path d="M280.323 181.752H235.159C232.12 181.752 229.657 184.215 229.657 187.254V195.662C229.657 198.701 232.12 201.165 235.159 201.165H280.323C283.362 201.165 285.826 198.701 285.826 195.662V187.254C285.826 184.215 283.362 181.752 280.323 181.752Z" fill="#3780EF"/>
<path d="M298.592 29.1909H16.4458V46.4657H298.592V29.1909Z" fill="#E0E0E0"/>
<path d="M298.592 44.8345H16.4458V62.1093H298.592V44.8345Z" fill="#F5F5F5"/>
<path d="M247.041 119.594H244.485L243.999 120.766H242.697L245.15 115.284H246.431L248.891 120.766H247.528L247.041 119.594ZM246.637 118.628L245.746 116.517L244.876 118.628H246.637Z" fill="#FAFAFA"/>
<path d="M248.994 118.655C248.994 118.354 249.056 118.057 249.177 117.782C249.297 117.506 249.473 117.259 249.694 117.055C249.915 116.851 250.176 116.695 250.46 116.596C250.744 116.498 251.045 116.459 251.345 116.483C251.732 116.452 252.12 116.538 252.459 116.73C252.797 116.921 253.07 117.21 253.243 117.559L252.29 118.066C252.201 117.89 252.065 117.742 251.897 117.639C251.728 117.536 251.535 117.482 251.338 117.483C251.027 117.483 250.729 117.607 250.509 117.826C250.289 118.046 250.166 118.344 250.166 118.655C250.166 118.966 250.289 119.264 250.509 119.484C250.729 119.703 251.027 119.827 251.338 119.827C251.535 119.83 251.73 119.777 251.899 119.674C252.067 119.571 252.203 119.422 252.29 119.244L253.243 119.765C253.066 120.11 252.792 120.395 252.454 120.585C252.117 120.775 251.731 120.862 251.345 120.834C251.045 120.857 250.743 120.817 250.459 120.718C250.175 120.619 249.915 120.462 249.694 120.257C249.473 120.053 249.297 119.805 249.177 119.529C249.056 119.253 248.994 118.956 248.994 118.655Z" fill="#FAFAFA"/>
<path d="M253.572 118.655C253.573 118.354 253.636 118.057 253.757 117.781C253.878 117.506 254.055 117.258 254.276 117.055C254.498 116.851 254.759 116.695 255.043 116.596C255.327 116.498 255.629 116.459 255.929 116.483C256.316 116.451 256.703 116.537 257.04 116.729C257.378 116.921 257.649 117.21 257.82 117.559L256.875 118.066C256.785 117.89 256.649 117.743 256.48 117.64C256.312 117.537 256.119 117.483 255.922 117.483C255.611 117.483 255.313 117.607 255.094 117.826C254.874 118.046 254.75 118.344 254.75 118.655C254.75 118.966 254.874 119.264 255.094 119.484C255.313 119.703 255.611 119.827 255.922 119.827C256.12 119.829 256.314 119.776 256.482 119.673C256.651 119.57 256.787 119.421 256.875 119.244L257.82 119.765C257.646 120.11 257.373 120.395 257.036 120.586C256.7 120.776 256.314 120.862 255.929 120.834C255.628 120.858 255.326 120.819 255.041 120.72C254.757 120.621 254.495 120.465 254.274 120.26C254.052 120.055 253.876 119.807 253.755 119.531C253.634 119.255 253.572 118.956 253.572 118.655Z" fill="#FAFAFA"/>
<path d="M262.589 119.005H259.389C259.457 119.267 259.616 119.497 259.839 119.651C260.062 119.806 260.332 119.876 260.602 119.847C260.796 119.856 260.99 119.824 261.172 119.755C261.353 119.685 261.519 119.579 261.657 119.443L262.343 120.128C262.118 120.362 261.846 120.544 261.544 120.663C261.242 120.781 260.919 120.833 260.595 120.814C260.291 120.844 259.983 120.811 259.692 120.715C259.401 120.62 259.133 120.464 258.906 120.259C258.679 120.054 258.497 119.803 258.373 119.523C258.248 119.244 258.184 118.941 258.183 118.635C258.18 118.341 258.237 118.051 258.35 117.78C258.463 117.51 258.631 117.266 258.842 117.062C259.053 116.859 259.303 116.701 259.578 116.597C259.852 116.494 260.145 116.448 260.438 116.462C260.731 116.441 261.025 116.483 261.301 116.585C261.576 116.687 261.827 116.847 262.035 117.055C262.244 117.262 262.405 117.511 262.509 117.786C262.613 118.061 262.657 118.355 262.637 118.648C262.61 118.758 262.596 118.902 262.589 119.005ZM259.376 118.285H261.431C261.377 118.053 261.246 117.846 261.06 117.698C260.873 117.549 260.642 117.469 260.403 117.469C260.165 117.469 259.934 117.549 259.747 117.698C259.56 117.846 259.43 118.053 259.376 118.285Z" fill="#FAFAFA"/>
<path d="M268.023 118.655C268.04 118.939 267.998 119.224 267.899 119.491C267.801 119.758 267.648 120.002 267.45 120.207C267.252 120.412 267.014 120.573 266.751 120.681C266.487 120.789 266.204 120.841 265.919 120.834C265.683 120.847 265.447 120.807 265.228 120.718C265.009 120.63 264.812 120.494 264.652 120.32V122.294H263.425V116.544H264.597V117.031C264.761 116.845 264.965 116.698 265.194 116.603C265.424 116.508 265.672 116.467 265.919 116.483C266.203 116.476 266.486 116.528 266.749 116.635C267.012 116.743 267.25 116.904 267.447 117.108C267.645 117.312 267.798 117.555 267.897 117.821C267.996 118.087 268.039 118.371 268.023 118.655ZM266.783 118.655C266.765 118.445 266.687 118.245 266.558 118.079C266.429 117.913 266.254 117.788 266.055 117.72C265.856 117.652 265.641 117.643 265.437 117.695C265.233 117.747 265.049 117.857 264.906 118.012C264.764 118.167 264.67 118.36 264.636 118.568C264.601 118.775 264.628 118.989 264.713 119.181C264.798 119.374 264.937 119.537 265.114 119.652C265.29 119.767 265.496 119.827 265.707 119.827C265.857 119.828 266.006 119.798 266.143 119.739C266.281 119.679 266.405 119.591 266.506 119.481C266.608 119.37 266.685 119.24 266.732 119.097C266.78 118.955 266.797 118.804 266.783 118.655Z" fill="#FAFAFA"/>
<path d="M271.566 120.567C271.266 120.753 270.918 120.846 270.565 120.834C270.355 120.868 270.141 120.852 269.938 120.788C269.735 120.725 269.55 120.615 269.397 120.467C269.245 120.319 269.128 120.138 269.057 119.938C268.986 119.738 268.963 119.524 268.989 119.313V117.579H268.359V116.641H269.01V115.613H270.236V116.641H271.285V117.579H270.236V119.299C270.226 119.372 270.232 119.446 270.254 119.516C270.276 119.586 270.313 119.65 270.363 119.704C270.413 119.758 270.474 119.8 270.542 119.827C270.61 119.854 270.684 119.866 270.757 119.861C270.936 119.861 271.11 119.806 271.257 119.704L271.566 120.567Z" fill="#FAFAFA"/>
<path d="M247.041 155.96H244.485L243.999 157.131H242.697L245.15 151.649H246.431L248.891 157.131H247.528L247.041 155.96ZM246.637 154.993L245.746 152.883L244.876 154.993H246.637Z" fill="#FAFAFA"/>
<path d="M248.994 155.021C248.994 154.72 249.056 154.423 249.177 154.147C249.297 153.872 249.473 153.625 249.694 153.421C249.915 153.217 250.176 153.06 250.46 152.962C250.744 152.864 251.045 152.825 251.345 152.849C251.732 152.818 252.12 152.904 252.459 153.095C252.797 153.287 253.07 153.576 253.243 153.924L252.29 154.431C252.201 154.256 252.065 154.108 251.897 154.005C251.728 153.902 251.535 153.848 251.338 153.849C251.027 153.849 250.729 153.972 250.509 154.192C250.289 154.412 250.166 154.71 250.166 155.021C250.166 155.332 250.289 155.63 250.509 155.849C250.729 156.069 251.027 156.192 251.338 156.192C251.535 156.196 251.73 156.143 251.899 156.04C252.067 155.937 252.203 155.788 252.29 155.61L253.243 156.131C253.066 156.476 252.792 156.761 252.454 156.951C252.117 157.141 251.731 157.228 251.345 157.2C251.045 157.222 250.743 157.183 250.459 157.084C250.175 156.984 249.915 156.828 249.694 156.623C249.473 156.419 249.297 156.171 249.177 155.895C249.056 155.619 248.994 155.322 248.994 155.021Z" fill="#FAFAFA"/>
<path d="M253.572 155.021C253.573 154.72 253.636 154.422 253.757 154.147C253.878 153.872 254.055 153.624 254.276 153.42C254.498 153.216 254.759 153.06 255.043 152.962C255.327 152.864 255.629 152.825 255.929 152.849C256.316 152.817 256.703 152.903 257.04 153.095C257.378 153.287 257.649 153.576 257.82 153.924L256.875 154.431C256.785 154.256 256.649 154.109 256.48 154.006C256.312 153.903 256.119 153.849 255.922 153.849C255.611 153.849 255.313 153.972 255.094 154.192C254.874 154.412 254.75 154.71 254.75 155.021C254.75 155.331 254.874 155.63 255.094 155.849C255.313 156.069 255.611 156.192 255.922 156.192C256.12 156.195 256.314 156.142 256.482 156.039C256.651 155.936 256.787 155.787 256.875 155.61L257.82 156.131C257.646 156.476 257.373 156.761 257.036 156.951C256.7 157.142 256.314 157.228 255.929 157.2C255.628 157.223 255.326 157.185 255.041 157.086C254.757 156.987 254.495 156.83 254.274 156.626C254.052 156.421 253.876 156.173 253.755 155.897C253.634 155.62 253.572 155.322 253.572 155.021Z" fill="#FAFAFA"/>
<path d="M262.589 155.37H259.389C259.457 155.632 259.616 155.862 259.839 156.017C260.062 156.171 260.332 156.241 260.602 156.213C260.796 156.221 260.99 156.19 261.172 156.12C261.353 156.051 261.519 155.945 261.657 155.808L262.343 156.494C262.118 156.727 261.846 156.91 261.544 157.028C261.242 157.146 260.919 157.198 260.595 157.179C260.291 157.21 259.983 157.176 259.692 157.08C259.401 156.985 259.133 156.829 258.906 156.624C258.679 156.419 258.497 156.168 258.373 155.889C258.248 155.609 258.184 155.306 258.183 155C258.18 154.707 258.237 154.416 258.35 154.146C258.463 153.875 258.631 153.631 258.842 153.427C259.053 153.224 259.303 153.066 259.578 152.963C259.852 152.86 260.145 152.814 260.438 152.828C260.731 152.806 261.025 152.848 261.301 152.95C261.576 153.053 261.827 153.213 262.035 153.42C262.244 153.627 262.405 153.876 262.509 154.151C262.613 154.426 262.657 154.72 262.637 155.014C262.61 155.13 262.596 155.267 262.589 155.37ZM259.376 154.65H261.431C261.377 154.418 261.246 154.211 261.06 154.063C260.873 153.915 260.642 153.834 260.403 153.834C260.165 153.834 259.934 153.915 259.747 154.063C259.56 154.211 259.43 154.418 259.376 154.65Z" fill="#FAFAFA"/>
<path d="M268.023 155.021C268.04 155.305 267.998 155.59 267.899 155.857C267.801 156.124 267.648 156.368 267.45 156.572C267.252 156.777 267.014 156.939 266.751 157.047C266.487 157.155 266.204 157.207 265.919 157.2C265.683 157.211 265.448 157.171 265.229 157.082C265.01 156.993 264.813 156.858 264.652 156.686V158.659H263.425V152.91H264.597V153.397C264.761 153.21 264.965 153.064 265.194 152.969C265.424 152.874 265.672 152.833 265.919 152.848C266.203 152.841 266.486 152.893 266.749 153.001C267.012 153.108 267.25 153.269 267.447 153.473C267.645 153.678 267.798 153.92 267.897 154.187C267.996 154.453 268.039 154.737 268.023 155.021ZM266.783 155.021C266.765 154.811 266.687 154.611 266.558 154.445C266.429 154.279 266.254 154.154 266.055 154.086C265.856 154.017 265.641 154.009 265.437 154.06C265.233 154.112 265.049 154.223 264.906 154.378C264.764 154.533 264.67 154.726 264.636 154.933C264.601 155.141 264.628 155.354 264.713 155.547C264.798 155.739 264.937 155.903 265.114 156.018C265.29 156.132 265.496 156.193 265.707 156.192C265.857 156.194 266.006 156.164 266.143 156.105C266.281 156.045 266.405 155.957 266.506 155.846C266.608 155.736 266.685 155.605 266.732 155.463C266.78 155.321 266.797 155.17 266.783 155.021Z" fill="#FAFAFA"/>
<path d="M271.566 156.932C271.266 157.118 270.918 157.211 270.565 157.2C270.355 157.233 270.141 157.217 269.938 157.153C269.735 157.09 269.55 156.98 269.397 156.832C269.245 156.685 269.128 156.504 269.057 156.303C268.986 156.103 268.963 155.889 268.989 155.678V153.945H268.359V153.02H269.01V151.985H270.236V153.02H271.285V153.958H270.236V155.678C270.226 155.751 270.232 155.825 270.254 155.895C270.276 155.965 270.313 156.029 270.363 156.083C270.413 156.137 270.474 156.179 270.542 156.206C270.61 156.233 270.684 156.245 270.757 156.24C270.936 156.239 271.11 156.184 271.257 156.083L271.566 156.932Z" fill="#FAFAFA"/>
<path d="M247.041 192.318H244.485L243.999 193.497H242.697L245.15 188.015H246.431L248.891 193.497H247.528L247.041 192.318ZM246.637 191.352L245.746 189.248L244.876 191.352H246.637Z" fill="#FAFAFA"/>
<path d="M248.994 191.393C248.994 191.092 249.056 190.795 249.177 190.519C249.297 190.243 249.473 189.995 249.694 189.791C249.915 189.586 250.175 189.43 250.459 189.33C250.743 189.231 251.045 189.192 251.345 189.214C251.733 189.185 252.121 189.272 252.459 189.465C252.797 189.658 253.07 189.948 253.243 190.297L252.29 190.804C252.201 190.628 252.065 190.48 251.897 190.377C251.728 190.275 251.535 190.221 251.338 190.222C251.027 190.222 250.729 190.345 250.509 190.565C250.289 190.784 250.166 191.082 250.166 191.393C250.166 191.704 250.289 192.002 250.509 192.222C250.729 192.442 251.027 192.565 251.338 192.565C251.535 192.567 251.729 192.514 251.898 192.411C252.066 192.308 252.202 192.159 252.29 191.983L253.243 192.496C253.067 192.842 252.794 193.129 252.456 193.319C252.118 193.509 251.731 193.595 251.345 193.565C251.045 193.589 250.744 193.55 250.46 193.452C250.176 193.354 249.915 193.197 249.694 192.993C249.473 192.789 249.297 192.542 249.177 192.267C249.056 191.991 248.994 191.694 248.994 191.393Z" fill="#FAFAFA"/>
<path d="M253.572 191.393C253.572 191.091 253.634 190.793 253.755 190.517C253.876 190.241 254.052 189.992 254.274 189.788C254.495 189.583 254.757 189.426 255.041 189.328C255.326 189.229 255.628 189.19 255.929 189.214C256.317 189.183 256.704 189.27 257.042 189.463C257.379 189.656 257.65 189.947 257.82 190.296L256.875 190.804C256.785 190.628 256.649 190.481 256.48 190.378C256.312 190.275 256.119 190.221 255.922 190.221C255.611 190.221 255.313 190.344 255.094 190.564C254.874 190.784 254.75 191.082 254.75 191.393C254.75 191.704 254.874 192.002 255.094 192.221C255.313 192.441 255.611 192.565 255.922 192.565C256.119 192.566 256.313 192.513 256.482 192.41C256.65 192.307 256.786 192.159 256.875 191.982L257.82 192.496C257.647 192.842 257.375 193.129 257.038 193.319C256.701 193.509 256.315 193.595 255.929 193.565C255.629 193.589 255.327 193.55 255.043 193.452C254.759 193.353 254.498 193.197 254.276 192.993C254.055 192.789 253.878 192.542 253.757 192.267C253.636 191.991 253.573 191.694 253.572 191.393Z" fill="#FAFAFA"/>
<path d="M262.589 191.729H259.389C259.455 191.993 259.615 192.224 259.837 192.38C260.06 192.536 260.332 192.607 260.602 192.579C260.796 192.587 260.99 192.556 261.172 192.486C261.353 192.417 261.519 192.31 261.657 192.174L262.343 192.86C262.119 193.094 261.846 193.276 261.544 193.395C261.243 193.513 260.919 193.564 260.595 193.545C260.291 193.575 259.984 193.542 259.694 193.447C259.403 193.352 259.136 193.197 258.909 192.992C258.682 192.788 258.5 192.538 258.375 192.259C258.25 191.98 258.185 191.678 258.183 191.373C258.179 191.079 258.235 190.787 258.348 190.516C258.461 190.245 258.628 190 258.839 189.796C259.051 189.591 259.301 189.433 259.576 189.329C259.851 189.226 260.144 189.179 260.438 189.194C260.73 189.179 261.022 189.226 261.295 189.33C261.568 189.435 261.816 189.596 262.023 189.803C262.23 190.009 262.392 190.257 262.498 190.53C262.604 190.802 262.651 191.094 262.637 191.386C262.61 191.496 262.596 191.626 262.589 191.729ZM259.376 191.044H261.431C261.377 190.812 261.246 190.604 261.06 190.456C260.873 190.308 260.642 190.227 260.403 190.227C260.165 190.227 259.934 190.308 259.747 190.456C259.561 190.604 259.43 190.812 259.376 191.044Z" fill="#FAFAFA"/>
<path d="M268.023 191.393C268.039 191.676 267.996 191.96 267.897 192.227C267.798 192.493 267.645 192.736 267.447 192.94C267.25 193.144 267.012 193.305 266.749 193.413C266.486 193.52 266.203 193.572 265.919 193.565C265.684 193.577 265.449 193.538 265.23 193.45C265.011 193.363 264.814 193.229 264.652 193.058V195.024H263.425V189.282H264.597V189.769C264.76 189.582 264.965 189.434 265.194 189.338C265.423 189.242 265.671 189.199 265.919 189.214C266.204 189.207 266.487 189.259 266.751 189.367C267.014 189.475 267.252 189.636 267.45 189.841C267.648 190.046 267.801 190.29 267.899 190.557C267.998 190.824 268.04 191.108 268.023 191.393ZM266.783 191.393C266.765 191.183 266.687 190.983 266.558 190.817C266.429 190.651 266.254 190.526 266.055 190.458C265.856 190.389 265.641 190.381 265.437 190.433C265.233 190.484 265.049 190.595 264.906 190.75C264.764 190.905 264.67 191.098 264.636 191.305C264.601 191.513 264.628 191.726 264.713 191.919C264.798 192.111 264.937 192.275 265.114 192.39C265.29 192.504 265.496 192.565 265.707 192.564C265.857 192.567 266.006 192.538 266.145 192.479C266.283 192.42 266.407 192.332 266.509 192.221C266.61 192.11 266.687 191.979 266.735 191.836C266.782 191.693 266.798 191.542 266.783 191.393Z" fill="#FAFAFA"/>
<path d="M271.566 193.291C271.267 193.48 270.918 193.573 270.565 193.558C270.356 193.592 270.142 193.576 269.94 193.513C269.738 193.449 269.553 193.34 269.401 193.193C269.248 193.046 269.131 192.866 269.06 192.667C268.988 192.468 268.964 192.254 268.989 192.044V190.31H268.359V189.337H269.01V188.31H270.236V189.337H271.285V190.283H270.236V192.003C270.226 192.075 270.232 192.149 270.253 192.219C270.275 192.289 270.313 192.353 270.363 192.406C270.413 192.459 270.474 192.501 270.543 192.527C270.611 192.553 270.684 192.564 270.757 192.558C270.936 192.561 271.112 192.505 271.257 192.4L271.566 193.291Z" fill="#FAFAFA"/>
<path d="M75.9792 70.3872C75.9792 70.4899 65.9268 70.5653 53.5308 70.5653C41.1349 70.5653 31.0825 70.4899 31.0825 70.3872C31.0825 70.2844 41.1349 70.209 53.5308 70.209C65.9268 70.209 75.9792 70.2912 75.9792 70.3872Z" fill="white"/>
<path d="M27.8888 37.2904C27.8888 37.7203 27.7613 38.1405 27.5223 38.4979C27.2833 38.8553 26.9436 39.1337 26.5463 39.2979C26.149 39.4621 25.7119 39.5047 25.2903 39.4203C24.8688 39.3359 24.4817 39.1284 24.1782 38.8239C23.8747 38.5194 23.6684 38.1317 23.5853 37.7099C23.5023 37.2881 23.5463 36.8511 23.7118 36.4543C23.8772 36.0576 24.1567 35.7188 24.5148 35.4809C24.8729 35.2431 25.2936 35.1168 25.7235 35.1182C26.0084 35.1182 26.2906 35.1744 26.5537 35.2837C26.8169 35.3929 27.0559 35.553 27.257 35.7548C27.4582 35.9566 27.6176 36.1961 27.726 36.4596C27.8344 36.7231 27.8897 37.0054 27.8888 37.2904Z" fill="#263238"/>
<path d="M35.8517 37.2904C35.8517 37.72 35.7243 38.1399 35.4856 38.4972C35.247 38.8544 34.9077 39.1328 34.5108 39.2972C34.1139 39.4616 33.6771 39.5046 33.2557 39.4208C32.8344 39.337 32.4473 39.1301 32.1435 38.8263C31.8398 38.5225 31.6329 38.1355 31.5491 37.7141C31.4652 37.2928 31.5083 36.856 31.6727 36.4591C31.8371 36.0622 32.1155 35.7229 32.4727 35.4842C32.8299 35.2456 33.2499 35.1182 33.6795 35.1182C33.9648 35.1182 34.2472 35.1744 34.5108 35.2835C34.7743 35.3927 35.0138 35.5527 35.2155 35.7544C35.4172 35.9561 35.5772 36.1956 35.6864 36.4591C35.7955 36.7226 35.8517 37.0051 35.8517 37.2904Z" fill="#263238"/>
<path d="M43.8073 37.2904C43.8073 37.72 43.6799 38.1399 43.4412 38.4972C43.2025 38.8544 42.8633 39.1328 42.4664 39.2972C42.0694 39.4616 41.6327 39.5046 41.2113 39.4208C40.79 39.337 40.4029 39.1301 40.0991 38.8263C39.7953 38.5225 39.5884 38.1355 39.5046 37.7141C39.4208 37.2928 39.4638 36.856 39.6282 36.4591C39.7926 36.0622 40.0711 35.7229 40.4283 35.4842C40.7855 35.2456 41.2055 35.1182 41.6351 35.1182C41.9203 35.1182 42.2028 35.1744 42.4664 35.2835C42.7299 35.3927 42.9694 35.5527 43.1711 35.7544C43.3728 35.9561 43.5328 36.1956 43.6419 36.4591C43.7511 36.7226 43.8073 37.0051 43.8073 37.2904Z" fill="#263238"/>
<path d="M280.7 122.054L284.284 141.069L287.23 135.765L293.555 145.242L296.721 143.111L290.389 133.634L296.2 132.743L280.7 122.054Z" fill="#263238"/>
<path d="M279.529 122.677C278.642 122.868 277.734 122.939 276.829 122.89C275.924 122.959 275.014 122.911 274.122 122.746C275.913 122.486 277.731 122.463 279.529 122.677Z" fill="#263238"/>
<path d="M280.049 120.224C278.996 119.307 278.02 118.306 277.13 117.23C276.159 116.225 275.269 115.143 274.471 113.996C275.532 114.907 276.511 115.909 277.397 116.99C278.372 117.991 279.259 119.073 280.049 120.224Z" fill="#263238"/>
<path d="M283.133 115.517C283.101 117.102 282.667 118.654 281.872 120.025C281.987 119.25 282.18 118.488 282.447 117.75C282.601 116.985 282.831 116.237 283.133 115.517Z" fill="#263238"/>
<path d="M283.852 67.9271C283.852 68.1982 283.771 68.4631 283.621 68.6885C283.47 68.9139 283.256 69.0895 283.006 69.1933C282.755 69.297 282.48 69.3241 282.214 69.2713C281.948 69.2184 281.704 69.0878 281.512 68.8962C281.321 68.7045 281.19 68.4603 281.137 68.1945C281.084 67.9286 281.111 67.6531 281.215 67.4027C281.319 67.1522 281.495 66.9382 281.72 66.7876C281.945 66.637 282.21 66.5566 282.481 66.5566C282.845 66.5566 283.193 66.701 283.45 66.958C283.707 67.2151 283.852 67.5636 283.852 67.9271Z" fill="#E0E0E0"/>
<path d="M283.852 71.7372C283.852 72.0082 283.771 72.2732 283.621 72.4986C283.47 72.7239 283.256 72.8996 283.006 73.0033C282.755 73.107 282.48 73.1342 282.214 73.0813C281.948 73.0284 281.704 72.8979 281.512 72.7062C281.321 72.5146 281.19 72.2704 281.137 72.0045C281.084 71.7387 281.111 71.4631 281.215 71.2127C281.319 70.9623 281.495 70.7482 281.72 70.5977C281.945 70.4471 282.21 70.3667 282.481 70.3667C282.845 70.3667 283.193 70.5111 283.45 70.7681C283.707 71.0251 283.852 71.3737 283.852 71.7372Z" fill="#E0E0E0"/>
<path d="M283.852 75.5399C283.852 75.811 283.771 76.0759 283.621 76.3013C283.47 76.5267 283.256 76.7023 283.006 76.8061C282.755 76.9098 282.48 76.9369 282.214 76.884C281.948 76.8312 281.704 76.7006 281.512 76.509C281.321 76.3173 281.19 76.0731 281.137 75.8073C281.084 75.5414 281.111 75.2659 281.215 75.0154C281.319 74.765 281.495 74.551 281.72 74.4004C281.945 74.2498 282.21 74.1694 282.481 74.1694C282.845 74.1694 283.193 74.3138 283.45 74.5708C283.707 74.8279 283.852 75.1764 283.852 75.5399Z" fill="#E0E0E0"/>
<path d="M298.591 210.484C298.591 209.333 298.537 139.904 298.448 29.1909L298.591 29.3348H16.4662L16.6443 29.1566C16.6443 93.514 16.6443 154.801 16.6443 210.449L16.4799 210.285L298.626 210.449L16.4799 210.614H16.3154V210.449C16.3154 154.801 16.3154 93.514 16.3154 29.1566V28.9922H16.5141L298.639 29.0333H298.776V29.1704C298.646 139.918 298.591 209.333 298.591 210.484Z" fill="#263238"/>
<path d="M64.6861 162.702L58.752 152.239C62.4145 146.285 63.718 139.178 62.4062 132.313C61.0945 125.447 57.2624 119.321 51.6632 115.137C46.064 110.954 39.1025 109.016 32.147 109.705C25.1916 110.393 18.7451 113.658 14.0747 118.858C9.40427 124.058 6.84763 130.817 6.90727 137.806C6.96691 144.795 9.63852 151.509 14.397 156.629C19.1555 161.748 25.6567 164.903 32.6229 165.473C39.5891 166.042 46.5165 163.986 52.0435 159.708L64.6861 162.702Z" fill="white"/>
<path d="M64.6864 162.702L52.0095 159.81L51.8793 159.776L51.9615 159.666L52.0917 159.79C50.3171 161.171 48.3849 162.337 46.3357 163.264C43.8954 164.358 41.3109 165.096 38.6611 165.457C37.1924 165.658 35.7092 165.733 34.2276 165.683C33.467 165.635 32.6859 165.621 31.9047 165.553L29.5406 165.196C22.5042 163.801 16.2621 159.78 12.0808 153.952C9.75092 150.726 8.13874 147.039 7.35269 143.139C6.54185 139.015 6.65418 134.763 7.6816 130.688C8.73496 126.426 10.7932 122.479 13.6843 119.176L14.8218 117.915C15.1986 117.49 15.6509 117.141 16.0552 116.757C16.4595 116.373 16.8638 115.976 17.3229 115.647L18.6933 114.646C19.1288 114.308 19.5867 113.998 20.0638 113.721L21.4891 112.865L22.9761 112.138C23.461 111.878 23.9623 111.649 24.4767 111.453C28.461 109.876 32.7496 109.218 37.0234 109.528C41.0659 109.81 44.9964 110.98 48.5354 112.954C54.8955 116.5 59.6516 122.353 61.8221 129.304C62.6875 132.26 63.0988 135.331 63.0418 138.41C62.9635 141.082 62.502 143.729 61.6713 146.27C60.9718 148.38 60.029 150.401 58.8619 152.293V152.204L64.7206 162.709L58.6768 152.286V152.238V152.197C61.2333 148.037 62.6511 143.278 62.7883 138.397C62.8342 135.346 62.4184 132.305 61.5548 129.379C59.3866 122.51 54.6685 116.732 48.3709 113.235C44.8679 111.299 40.9823 110.158 36.9891 109.891C32.7683 109.59 28.5339 110.243 24.6001 111.803C24.0923 111.999 23.5978 112.227 23.12 112.488L21.6467 113.173L20.2762 114.023C19.7995 114.296 19.3417 114.6 18.9058 114.934L17.5833 115.928C17.131 116.25 16.7473 116.661 16.3293 117.017C15.9113 117.374 15.4864 117.751 15.1164 118.169L13.9241 119.443C11.0689 122.693 9.02786 126.576 7.9694 130.77C6.9536 134.795 6.83895 138.995 7.63364 143.07C8.40822 146.924 9.99684 150.569 12.2932 153.76C16.4319 159.533 22.6092 163.518 29.5749 164.908L31.9115 165.265C32.6859 165.333 33.4602 165.354 34.2139 165.402C35.6812 165.459 37.1507 165.39 38.6063 165.196C41.2346 164.844 43.7999 164.122 46.2261 163.051C48.2653 162.138 50.1903 160.988 51.9615 159.625L52.496 159.214L52.0849 159.749L52.0301 159.605L64.6864 162.702Z" fill="#263238"/>
<path d="M24.3672 138.02L27.3617 135.025L33.1382 140.157L44.4789 129.249L47.2609 132.243L32.7134 145.934L24.3672 138.02Z" fill="#3780EF"/>
<path d="M130.723 192.222L122.671 189.248L91.8628 188.337L84.709 190.283L85.6478 207.709L101.819 218.021L117.498 217.706L127.358 208.723L129.551 199.821L130.723 192.222Z" fill="#FFBE9D"/>
<path d="M39.339 218.912C41.245 214.941 43.3986 211.094 45.7871 207.393C49.5604 201.458 55.5296 197.258 62.3904 195.71L88.2374 188.707C88.2374 188.707 89.9985 206.139 107.774 206.139C125.549 206.139 125.912 190.023 125.912 190.023L158.46 201.918C159.488 202.316 166.43 204.721 174.502 222.03C182.19 238.489 185.555 246.897 185.555 246.897L154.849 255.12L152.794 283.482L153.479 299.311L59.9441 299.105L60.4648 281.008L60.0468 251.146L58.0871 254.839L28.8823 243.122C28.8823 243.122 31.7672 234.501 39.339 218.912Z" fill="#3780EF"/>
<path d="M59.5812 235.666C59.4441 235.666 59.5332 245.691 59.773 258.046C60.0129 270.401 60.3144 280.426 60.4583 280.419C60.6022 280.412 60.5131 270.401 60.2733 258.039C60.0334 245.677 59.7182 235.659 59.5812 235.666Z" fill="#263238"/>
<g opacity="0.3">
<path d="M150.704 238.585C149.251 236.989 146.997 236.454 144.879 236.023C120.814 231.082 95.9947 233.172 71.614 236.221C68.5852 236.598 65.2481 237.236 63.4254 239.648C62.1029 241.415 62.9526 243.759 62.8224 245.959C62.1851 257.258 63.6584 269.298 65.8991 280.392L148.95 279.103C151.793 270.497 152.485 255.894 152.533 245.979C152.554 243.368 152.458 240.504 150.704 238.585Z" fill="black"/>
</g>
<path d="M172.234 218.302L171.967 218.542L171.144 219.228C170.711 219.605 170.253 219.953 169.774 220.269L168.849 220.879L168.342 221.215L167.766 221.523C166.909 222.019 166.021 222.458 165.107 222.839C164.028 223.305 162.923 223.71 161.798 224.052C159.033 224.831 156.174 225.228 153.301 225.23C149.812 225.227 146.35 224.617 143.07 223.428C142.844 223.346 142.618 223.277 142.385 223.188L141.734 222.9L140.418 222.304C139.98 222.105 139.562 221.838 139.13 221.619C138.698 221.4 138.253 221.16 137.842 220.865C137.033 220.283 136.163 219.748 135.375 219.084C134.587 218.419 133.792 217.754 132.997 217.069C131.429 215.615 129.673 214.378 127.776 213.389C126.78 212.927 125.73 212.591 124.651 212.389C123.545 212.216 122.423 212.17 121.307 212.252C119.007 212.469 116.758 213.066 114.654 214.02C112.474 214.976 110.383 216.123 108.404 217.446C104.375 220.105 100.51 222.976 96.1521 224.552C92.989 225.766 89.5392 226.026 86.2299 225.299C85.1813 225.076 84.1506 224.776 83.1464 224.401C79.4363 222.912 75.9534 220.91 72.7993 218.453C69.7774 216.24 67.0228 214.116 64.3024 212.485C61.8935 210.956 59.2533 209.827 56.4839 209.141C54.3932 208.618 52.2263 208.469 50.0837 208.702C48.7293 208.847 47.4064 209.206 46.1642 209.764C45.8388 209.9 45.5209 210.054 45.2117 210.224L44.8828 210.388C44.9821 210.319 45.0851 210.255 45.1912 210.196C45.4937 210.006 45.8097 209.839 46.1368 209.696C47.3783 209.109 48.7066 208.728 50.07 208.565C52.227 208.308 54.4126 208.436 56.525 208.942C59.323 209.619 61.9933 210.744 64.4326 212.272C67.1735 213.903 69.9145 216.021 72.9706 218.22C76.1077 220.647 79.567 222.626 83.2492 224.1C84.2401 224.467 85.2571 224.76 86.2916 224.977C87.3456 225.208 88.4196 225.337 89.4985 225.36C91.7274 225.403 93.9439 225.019 96.0288 224.23C100.318 222.674 104.163 219.824 108.205 217.158C110.199 215.81 112.308 214.642 114.51 213.67C116.649 212.703 118.935 212.099 121.273 211.882C122.417 211.798 123.567 211.849 124.699 212.033C125.808 212.237 126.885 212.582 127.906 213.06C129.829 214.065 131.608 215.324 133.196 216.802C133.991 217.487 134.772 218.172 135.56 218.816C136.348 219.46 137.198 220.002 137.999 220.577C138.404 220.872 138.849 221.078 139.267 221.331C139.685 221.585 140.103 221.825 140.542 222.016L141.844 222.599L142.488 222.894C142.7 222.983 142.926 223.051 143.173 223.127C146.412 224.324 149.834 224.948 153.287 224.97C156.139 224.982 158.979 224.606 161.729 223.853C162.852 223.524 163.955 223.131 165.032 222.674C165.942 222.305 166.827 221.88 167.684 221.4L168.26 221.098L168.773 220.769L169.685 220.173C170.162 219.866 170.62 219.53 171.055 219.166L171.898 218.515L172.234 218.302Z" fill="white"/>
<path d="M157.515 237.893C157.417 237.945 157.317 237.991 157.213 238.03L156.302 238.407C155.105 238.812 153.862 239.063 152.602 239.154C150.604 239.257 148.602 239.063 146.661 238.578C144.096 237.925 141.607 237.006 139.233 235.837C136.581 234.583 133.785 233.001 130.654 231.582C127.522 230.164 124.027 228.841 120.17 228.8C118.203 228.772 116.245 229.075 114.379 229.698C112.43 230.354 110.543 231.182 108.74 232.171C106.876 233.151 105.026 234.227 103.08 235.228C101.121 236.281 99.053 237.117 96.9126 237.722C94.7576 238.291 92.5228 238.497 90.3001 238.332C88.1472 238.162 86.022 237.739 83.9685 237.071C80.1259 235.762 76.4631 233.976 73.0664 231.753C69.7841 229.698 66.7622 227.587 63.8226 225.799C61.1343 224.097 58.2805 222.671 55.3051 221.543C49.8232 219.543 44.8895 219.529 41.7306 220.283C40.5087 220.563 39.3192 220.97 38.181 221.495L37.3108 221.948L37.0093 222.092C37.0093 222.092 37.1052 222.023 37.2971 221.913L38.1536 221.427C39.2865 220.872 40.4768 220.442 41.7031 220.146C44.8758 219.344 49.8369 219.316 55.4079 221.31C58.4095 222.433 61.2887 223.859 64.0007 225.566C66.9541 227.347 69.9828 229.444 73.2583 231.493C76.6424 233.702 80.2885 235.482 84.1124 236.79C86.133 237.429 88.221 237.831 90.3343 237.989C92.5208 238.148 94.7185 237.942 96.8372 237.379C98.9487 236.782 100.989 235.957 102.922 234.919C104.848 233.926 106.705 232.864 108.575 231.87C110.4 230.875 112.308 230.041 114.276 229.376C116.179 228.749 118.173 228.446 120.176 228.478C124.11 228.56 127.659 229.896 130.777 231.315C133.895 232.733 136.704 234.35 139.342 235.618C141.698 236.781 144.166 237.7 146.709 238.359C148.629 238.855 150.613 239.068 152.595 238.99C153.846 238.907 155.084 238.677 156.281 238.304L157.2 237.962C157.405 237.921 157.515 237.893 157.515 237.893Z" fill="white"/>
<path d="M179.429 232.665C179.224 232.916 178.995 233.146 178.744 233.35C178.511 233.57 178.223 233.83 177.86 234.118C177.497 234.406 177.113 234.741 176.64 235.07C175.546 235.866 174.402 236.589 173.214 237.236C170.313 238.822 167.179 239.939 163.929 240.545C162.607 240.796 161.27 240.957 159.927 241.025C159.352 241.066 158.831 241.025 158.378 241.059C157.926 241.093 157.529 241.059 157.207 241.025C156.873 241.02 156.541 240.988 156.213 240.929C156.542 240.88 156.875 240.867 157.207 240.888C157.529 240.888 157.892 240.888 158.372 240.888C158.851 240.888 159.338 240.888 159.907 240.799C161.236 240.695 162.559 240.512 163.867 240.251C165.468 239.923 167.046 239.488 168.588 238.949C170.121 238.389 171.616 237.73 173.063 236.975C174.243 236.355 175.387 235.669 176.489 234.919C176.962 234.604 177.366 234.282 177.73 234.015C178.093 233.748 178.415 233.501 178.648 233.33C178.891 233.089 179.152 232.867 179.429 232.665Z" fill="white"/>
<path d="M76.7804 155.227C76.7804 155.227 74.8275 157.899 74.8618 162.716C74.8618 165.3 76.6365 170.535 81.2208 170.795C80.0079 178.182 84.7292 183.636 92.5957 183.65C100.462 183.664 109.473 170.158 116.764 167.205L137.924 161.613C139.788 161.181 140.548 158.913 140.514 157.008C140.48 155.103 139.993 153.116 140.665 151.328C141.59 148.881 144.427 147.572 145.393 145.16C146.496 142.42 144.79 139.329 142.823 137.095C140.857 134.861 138.465 132.737 137.842 129.832C137.266 127.152 138.294 124.137 136.958 121.753C135.313 118.813 131.01 118.45 129.009 115.743C128.043 114.428 127.741 112.721 126.782 111.399C125.151 109.151 121.985 108.562 119.244 108.87C116.504 109.179 113.831 110.165 111.063 110.371C107.26 110.645 103.333 109.419 99.6879 110.515C95.6655 111.735 93.2124 115.312 90.6016 118.738L87.1755 122.746C86.4819 123.438 85.7222 124.06 84.9073 124.603C83.4683 125.535 81.8306 126.179 80.5972 127.344C79.975 128.003 79.4923 128.781 79.1778 129.631C78.8634 130.481 78.7237 131.386 78.7672 132.292C78.8108 133.197 79.0365 134.084 79.431 134.9C79.8255 135.716 80.3806 136.444 81.0632 137.04C79.6134 137.551 78.3653 138.512 77.5021 139.783C76.6388 141.055 76.2057 142.57 76.2665 144.105C76.2665 144.105 75.8896 147.614 78.1098 149.176C78.1098 149.19 74.9234 151.588 76.7804 155.227Z" fill="#263238"/>
<path d="M90.9582 162.394C89.2109 157.021 87.4909 151.615 86.6961 146.023C85.9012 140.432 86.0657 134.614 88.0665 129.324C88.368 128.516 90.9103 123.157 91.76 123.219C92.3698 123.28 90.8006 128.303 91.109 128.831C94.0487 133.874 94.8435 139.939 94.3776 145.756C93.8676 151.41 92.7323 156.99 90.9925 162.394" fill="#263238"/>
<path d="M106.068 204.529C97.3174 204.344 90.9927 189.995 90.9927 189.995L90.4239 140.857C89.958 126.707 97.8108 114.647 111.968 114.578L113.277 114.647C119.628 114.985 125.618 117.703 130.056 122.259C134.494 126.815 137.054 132.875 137.226 139.233C137.554 151.499 137.767 165.059 137.335 171.603C136.437 185.164 122.76 186.542 122.76 186.542C122.76 186.542 122.678 189.687 122.637 193.675C122.548 202.631 109.617 204.837 106.088 204.529H106.068Z" fill="#FFBE9D"/>
<path d="M122.74 186.542C122.74 186.542 114.161 186.59 105.355 180.375C105.355 180.375 109.131 190.468 122.733 189.968L122.74 186.542Z" fill="#EB996E"/>
<path d="M130.311 150.855C130.291 151.361 130.074 151.84 129.704 152.187C129.335 152.534 128.844 152.723 128.338 152.712C128.09 152.718 127.844 152.675 127.613 152.584C127.383 152.494 127.173 152.358 126.996 152.185C126.819 152.011 126.678 151.805 126.583 151.576C126.487 151.348 126.438 151.102 126.439 150.855C126.459 150.349 126.676 149.872 127.044 149.525C127.411 149.178 127.9 148.988 128.406 148.998C128.654 148.991 128.901 149.035 129.131 149.125C129.362 149.215 129.573 149.351 129.75 149.524C129.928 149.697 130.069 149.904 130.165 150.133C130.262 150.361 130.311 150.607 130.311 150.855Z" fill="#263238"/>
<path d="M134.005 144.708C133.751 144.948 132.339 143.783 130.256 143.68C128.173 143.577 126.59 144.53 126.378 144.263C126.268 144.146 126.542 143.701 127.234 143.255C128.169 142.676 129.262 142.402 130.359 142.474C131.441 142.526 132.478 142.923 133.319 143.605C133.936 144.112 134.128 144.605 134.005 144.708Z" fill="#263238"/>
<path d="M111.672 150.361C111.649 150.866 111.43 151.342 111.062 151.687C110.693 152.033 110.204 152.221 109.699 152.211C109.452 152.218 109.206 152.175 108.975 152.085C108.745 151.995 108.535 151.86 108.357 151.687C108.18 151.515 108.038 151.309 107.942 151.081C107.845 150.853 107.795 150.609 107.794 150.361C107.817 149.856 108.036 149.38 108.404 149.033C108.773 148.686 109.262 148.497 109.767 148.504C110.015 148.499 110.261 148.543 110.492 148.634C110.722 148.724 110.932 148.86 111.11 149.033C111.287 149.206 111.428 149.413 111.525 149.641C111.621 149.869 111.672 150.114 111.672 150.361Z" fill="#263238"/>
<path d="M113.543 144.455C113.29 144.694 111.878 143.529 109.795 143.427C107.712 143.324 106.122 144.283 105.91 144.016C105.807 143.893 106.074 143.454 106.766 143.002C107.703 142.427 108.794 142.154 109.891 142.221C110.976 142.273 112.016 142.672 112.858 143.358C113.496 143.879 113.667 144.352 113.543 144.455Z" fill="#263238"/>
<path d="M120.163 160.873C120.163 160.756 121.465 160.605 123.59 160.448C124.131 160.448 124.638 160.338 124.748 159.982C124.819 159.434 124.724 158.878 124.474 158.385L123.103 154.274C121.226 148.388 119.903 143.557 120.136 143.481C120.369 143.406 122.089 148.12 123.966 154.013C124.419 155.466 124.85 156.843 125.255 158.173C125.557 158.832 125.615 159.578 125.419 160.276C125.333 160.461 125.205 160.622 125.046 160.748C124.886 160.874 124.7 160.961 124.501 161.003C124.202 161.068 123.896 161.095 123.59 161.085C121.472 161.058 120.163 160.996 120.163 160.873Z" fill="#263238"/>
<path d="M113.948 161.99C114.29 161.99 114.174 164.251 116.003 165.957C117.833 167.664 120.272 167.547 120.272 167.869C120.272 168.013 119.71 168.28 118.696 168.253C117.369 168.2 116.102 167.681 115.119 166.786C114.179 165.926 113.607 164.735 113.523 163.463C113.495 162.517 113.797 161.969 113.948 161.99Z" fill="#263238"/>
<path d="M113.88 135.992C113.647 136.547 111.577 136.17 109.117 136.334C106.657 136.499 104.643 137.02 104.321 136.533C104.19 136.28 104.567 135.766 105.39 135.259C106.49 134.644 107.716 134.288 108.974 134.217C110.232 134.146 111.49 134.361 112.653 134.847C113.558 135.259 113.982 135.731 113.88 135.992Z" fill="#263238"/>
<path d="M133.518 137.732C133.121 138.185 131.716 137.616 129.989 137.506C128.262 137.397 126.782 137.65 126.474 137.136C126.337 136.89 126.59 136.451 127.255 136.013C128.142 135.521 129.155 135.304 130.165 135.389C131.175 135.475 132.137 135.859 132.929 136.492C133.518 137.013 133.689 137.513 133.518 137.732Z" fill="#263238"/>
<path d="M90.9719 150.964C90.7457 150.854 81.7966 147.709 81.5978 157.001C81.3991 166.293 90.7594 164.573 90.7869 164.306C90.8143 164.038 90.9719 150.964 90.9719 150.964Z" fill="#FFBE9D"/>
<path d="M88.0256 160.722C87.9845 160.688 87.8612 160.832 87.5802 160.948C87.1935 161.105 86.7609 161.105 86.3742 160.948C85.4012 160.564 84.6063 158.988 84.5994 157.316C84.5909 156.519 84.7618 155.73 85.0997 155.007C85.1932 154.719 85.3557 154.458 85.573 154.246C85.7904 154.035 86.056 153.88 86.3468 153.794C86.534 153.749 86.7313 153.771 86.9041 153.856C87.0769 153.941 87.2144 154.084 87.2924 154.26C87.4089 154.521 87.3472 154.706 87.3952 154.719C87.4432 154.733 87.6008 154.568 87.5322 154.185C87.487 153.952 87.3607 153.744 87.1759 153.595C86.9263 153.397 86.6093 153.304 86.292 153.335C85.9123 153.4 85.5551 153.56 85.2533 153.799C84.9515 154.039 84.7149 154.351 84.5652 154.706C84.1521 155.501 83.9403 156.386 83.9485 157.282C83.9485 159.16 84.8872 160.927 86.2234 161.345C86.4714 161.423 86.7337 161.445 86.991 161.408C87.2483 161.371 87.4941 161.277 87.7104 161.133C88.0051 160.941 88.053 160.736 88.0256 160.722Z" fill="#EB996E"/>
<path d="M131.394 123.767C132.908 122.959 128.454 118.025 124.782 116.305C119.231 113.701 110.721 112.029 105.554 113.427C99.3319 115.099 94.1447 118.121 90.9584 123.706C87.772 129.29 86.518 135.862 86.614 142.31C86.614 144.276 86.8264 146.325 87.8542 148.004C89.1219 150.06 91.5956 151.396 91.4517 154.233C91.4091 154.745 91.4696 155.261 91.6296 155.749C91.7897 156.238 92.0461 156.689 92.3837 157.077C94.0556 158.906 96.1593 157.234 97.1392 155.549C99.2292 151.931 99.5101 147.593 99.7431 143.427C99.9075 140.46 100.065 137.438 99.2703 134.58C98.8317 133.025 98.1191 131.552 97.7765 129.976C97.4338 128.4 97.4955 126.618 98.4617 125.35C98.6934 125.076 98.9503 124.823 99.2292 124.596C100.538 123.481 102.121 122.735 103.815 122.435C105.508 122.135 107.251 122.292 108.864 122.89C114.071 124.802 122.973 127.687 125.309 125.94C128.694 123.425 129.523 121.773 129.523 121.773L131.394 123.767Z" fill="#263238"/>
<path d="M106.054 112.166C111.186 110.528 117.017 110.693 121.739 113.228C124.26 114.599 126.535 116.709 127.262 119.471C127.988 122.232 126.782 125.638 124.123 126.645L123.938 126.762C119.957 128.043 117.387 127.447 113.454 126.076C110.144 124.877 107.212 122.787 103.895 121.615C100.342 120.36 96.495 120.198 92.8491 121.149C96.4535 117.141 100.928 113.811 106.054 112.166Z" fill="#263238"/>
<path d="M88.388 121.355C88.4702 121.424 89.2171 120.54 90.7247 119.491C91.5985 118.876 92.5443 118.37 93.541 117.984C94.7382 117.491 96.0308 117.273 97.3235 117.346C99.6902 117.611 101.935 118.537 103.799 120.019C105.238 121.156 105.903 122.116 105.992 122.075C106.081 122.034 105.889 121.794 105.587 121.389C105.149 120.784 104.643 120.23 104.08 119.738C102.207 118.077 99.8612 117.044 97.3715 116.785C95.9858 116.701 94.6001 116.947 93.3286 117.504C92.3029 117.936 91.3396 118.503 90.4643 119.19C88.9705 120.314 88.3332 121.321 88.388 121.355Z" fill="#455A64"/>
<path d="M116.695 111.323C117.499 111.673 118.32 111.982 119.155 112.248C123.081 113.81 126.416 116.566 128.687 120.129C129.106 120.898 129.563 121.646 130.057 122.369C129.873 121.493 129.531 120.657 129.05 119.902C126.906 116.106 123.429 113.241 119.292 111.865C118.468 111.523 117.587 111.339 116.695 111.323Z" fill="#455A64"/>
<path d="M76.3559 144.235C76.3559 144.235 76.6985 144.386 77.3357 144.564C78.2298 144.797 79.16 144.857 80.0767 144.742C81.453 144.564 82.7844 144.131 84.0031 143.468C85.4078 142.782 86.8468 141.796 88.4434 140.891C89.9293 139.983 91.5767 139.371 93.2949 139.089C94.7244 138.867 96.187 139.133 97.4474 139.843C98.3033 140.312 98.9981 141.029 99.4415 141.898C99.5581 142.129 99.6478 142.373 99.7087 142.625C99.743 142.803 99.7567 142.892 99.743 142.899C99.7292 142.906 99.6402 142.536 99.3181 141.96C98.8445 141.158 98.1531 140.507 97.3241 140.082C96.1038 139.436 94.7047 139.21 93.3429 139.438C91.6695 139.732 90.0659 140.336 88.6147 141.22C87.0387 142.118 85.586 143.084 84.1538 143.783C82.8944 144.447 81.52 144.866 80.1041 145.016C79.1478 145.117 78.181 145.014 77.2672 144.715C77.0301 144.632 76.8008 144.529 76.582 144.406C76.4312 144.297 76.349 144.249 76.3559 144.235Z" fill="#455A64"/>
<path d="M76.9858 148.628C78.088 148.867 79.2203 148.936 80.3434 148.833C81.5561 148.691 82.749 148.412 83.8998 148.004C85.2086 147.565 86.6408 146.969 88.1414 146.435C89.5689 145.891 91.0707 145.568 92.5955 145.476C93.853 145.431 95.1048 145.665 96.2615 146.161C97.0499 146.495 97.7526 147.004 98.3172 147.648C98.4658 147.822 98.5966 148.01 98.7078 148.21C98.79 148.34 98.8242 148.415 98.8105 148.422C98.7968 148.429 98.6118 148.162 98.2144 147.737C97.6322 147.142 96.932 146.675 96.1587 146.366C95.0314 145.918 93.8209 145.717 92.6092 145.777C91.1194 145.886 89.6536 146.211 88.2579 146.743C86.7504 147.271 85.3388 147.86 84.0026 148.292C82.8244 148.691 81.603 148.949 80.364 149.059C79.5274 149.129 78.6851 149.078 77.8629 148.909C77.6297 148.863 77.4005 148.799 77.1776 148.717C77.0543 148.676 76.9789 148.641 76.9858 148.628Z" fill="#455A64"/>
<path d="M142.344 138.63C142.312 138.94 142.199 139.235 142.015 139.486C141.625 140.13 141.096 140.678 140.466 141.09C139.836 141.501 139.122 141.768 138.376 141.871C138.071 141.939 137.754 141.922 137.458 141.823C138.447 141.643 139.398 141.293 140.267 140.788C141.076 140.191 141.778 139.461 142.344 138.63Z" fill="#455A64"/>
<path d="M144.955 143.242C144.891 143.697 144.727 144.132 144.475 144.516C143.917 145.482 143.134 146.3 142.193 146.901C141.255 147.507 140.182 147.874 139.069 147.97C138.61 148.04 138.142 148.007 137.698 147.874C137.698 147.812 138.219 147.874 139.028 147.723C140.08 147.553 141.087 147.171 141.988 146.599C142.884 146.025 143.652 145.272 144.242 144.386C144.708 143.708 144.893 143.221 144.955 143.242Z" fill="#455A64"/>
<path d="M182.889 247.692L195.422 272.854C196.821 275.663 197.477 278.784 197.327 281.919C197.097 286.622 195.067 291.057 191.657 294.304C188.247 297.552 183.72 299.364 179.011 299.366L143.07 297.31L141.501 280.912L168.849 274.306L158.248 254.277L182.889 247.692Z" fill="#FFBE9D"/>
<path d="M168.849 274.307C168.849 274.416 170.089 274.211 172.076 274.224C174.656 274.277 177.213 274.728 179.655 275.561C182.103 276.376 184.398 277.594 186.446 279.165C188.001 280.391 188.728 281.406 188.817 281.337C188.906 281.269 188.693 281.042 188.364 280.576C187.876 279.943 187.327 279.358 186.727 278.829C184.713 277.115 182.386 275.807 179.874 274.978C177.373 274.112 174.736 273.708 172.09 273.786C171.291 273.814 170.496 273.908 169.712 274.067C169.412 274.093 169.119 274.174 168.849 274.307Z" fill="#EB996E"/>
<path d="M29.3555 243.368C29.3555 243.368 22.5991 262.233 14.1364 283.215C13.9677 283.64 13.8325 284.077 13.7321 284.523C12.4507 290.197 16.7746 299.749 22.5854 299.749L71.2371 299.27V283.359L43.1767 277.191L54.0034 253.208L29.3555 243.368Z" fill="#FFBE9D"/>
<path d="M21.3587 281.564C21.4273 281.646 22.3866 280.878 24.0997 279.912C28.5341 277.367 33.6313 276.214 38.7295 276.602C40.6755 276.753 41.8678 277.02 41.8953 276.918C41.643 276.771 41.3671 276.669 41.0798 276.616C40.3224 276.408 39.5505 276.257 38.7706 276.164C33.5637 275.517 28.2946 276.71 23.8735 279.535C23.2088 279.955 22.5766 280.425 21.9823 280.94C21.5506 281.31 21.3313 281.529 21.3587 281.564Z" fill="#EB996E"/>
<path d="M148.532 279.933H141.501C141.501 279.933 125.618 274.197 122.356 274.745C119.416 275.239 108.651 282.393 106.541 283.804C106.307 283.962 106.129 284.19 106.034 284.455C105.827 285.015 105.845 285.633 106.084 286.18C106.323 286.726 106.764 287.159 107.315 287.388L107.541 287.484L107.445 287.806C107.317 288.22 107.261 288.654 107.281 289.087C107.305 289.417 107.434 289.73 107.648 289.981C107.862 290.232 108.151 290.409 108.472 290.485C108.794 290.562 109.131 290.534 109.435 290.406C109.74 290.278 109.996 290.056 110.166 289.773L109.761 290.492C109.592 290.785 109.514 291.121 109.535 291.458L109.569 292.109C109.589 292.465 109.716 292.807 109.934 293.09C110.152 293.372 110.45 293.582 110.789 293.692C111.111 293.797 111.456 293.807 111.783 293.721C112.11 293.635 112.405 293.456 112.632 293.206C114.003 291.705 116.949 288.697 118.943 288.368C121.105 288.104 123.283 287.994 125.46 288.039C125.905 288.04 126.34 288.175 126.706 288.427C127.073 288.678 127.355 289.035 127.516 289.451C126.33 289.533 118.08 293.836 115.181 295.378C114.73 295.603 114.341 295.935 114.046 296.345C113.751 296.754 113.56 297.229 113.489 297.728C113.379 298.64 113.838 299.599 115.647 299.174C119.526 298.27 126.508 295.063 126.508 295.063C126.508 295.063 130.106 294.028 132.443 295.679C135.725 297.989 137.239 298.838 140.042 297.906C141.756 297.336 143.4 296.573 144.941 295.631L150.492 295.076C150.492 295.076 155.713 281.947 148.532 279.933Z" fill="#FFBE9D"/>
<path d="M127.57 282.612C127.57 282.673 126.44 282.317 124.583 282.201C122.164 282.038 119.741 282.45 117.511 283.402C115.282 284.355 113.309 285.822 111.755 287.682C110.556 289.108 110.042 290.156 109.987 290.122C110.081 289.866 110.2 289.62 110.344 289.389C110.706 288.742 111.124 288.128 111.591 287.552C113.131 285.62 115.126 284.1 117.399 283.13C119.672 282.16 122.15 281.77 124.61 281.995C125.35 282.06 126.084 282.186 126.803 282.372C127.066 282.426 127.323 282.506 127.57 282.612Z" fill="#EB996E"/>
<path d="M125.885 278.761C124.877 278.452 123.834 278.27 122.781 278.219C120.228 278.212 117.725 278.925 115.558 280.275C113.41 281.653 111.454 283.31 109.741 285.202L108.144 286.894C107.959 287.111 107.757 287.312 107.541 287.497C107.689 287.251 107.864 287.021 108.062 286.812C108.411 286.387 108.925 285.777 109.59 285.051C111.272 283.096 113.232 281.4 115.408 280.015C117.618 278.632 120.188 277.936 122.794 278.014C123.577 278.053 124.351 278.194 125.097 278.432C125.299 278.499 125.498 278.577 125.693 278.665C125.83 278.713 125.892 278.747 125.885 278.761Z" fill="#EB996E"/>
<path d="M60.938 280.433H67.9686C67.9686 280.433 83.8455 274.697 87.1141 275.239C90.0537 275.739 100.819 282.886 102.929 284.304C103.169 284.471 103.347 284.712 103.436 284.99C103.643 285.549 103.625 286.167 103.386 286.714C103.147 287.261 102.706 287.694 102.155 287.922L101.929 288.011L102.025 288.334C102.153 288.748 102.208 289.182 102.189 289.615C102.165 289.944 102.036 290.257 101.822 290.509C101.608 290.76 101.319 290.937 100.998 291.013C100.676 291.089 100.339 291.061 100.034 290.933C99.7301 290.805 99.4744 290.583 99.3044 290.3L99.7087 291.02C99.8748 291.314 99.9532 291.649 99.9348 291.986L99.9006 292.671C99.8806 293.027 99.7535 293.369 99.5358 293.651C99.3181 293.934 99.0201 294.144 98.6808 294.254C98.3594 294.359 98.0144 294.369 97.6873 294.283C97.3603 294.197 97.0652 294.018 96.8376 293.767C95.4671 292.267 92.5206 289.259 90.5265 288.923C88.3645 288.663 86.1871 288.553 84.0099 288.594C83.5651 288.595 83.1311 288.731 82.7644 288.983C82.3977 289.234 82.1154 289.591 81.9542 290.006C83.1397 290.095 91.3899 294.391 94.2885 295.933C94.739 296.159 95.1281 296.491 95.4228 296.901C95.7175 297.31 95.909 297.784 95.981 298.283C96.0906 299.195 95.6315 300.154 93.8225 299.736C89.9441 298.824 82.9615 295.624 82.9615 295.624C82.9615 295.624 79.364 294.597 77.0274 296.241C73.7451 298.557 72.2307 299.407 69.4281 298.468C67.7141 297.898 66.0704 297.135 64.5287 296.193L58.9783 295.645C58.9783 295.645 53.7568 282.441 60.938 280.433Z" fill="#FFBE9D"/>
<path d="M81.8994 283.112C81.8994 283.173 83.0301 282.817 84.8802 282.701C87.3003 282.537 89.7248 282.948 91.9555 283.901C94.1862 284.854 96.1597 286.321 97.7147 288.183C98.9138 289.601 99.4277 290.649 99.4826 290.622C99.3891 290.366 99.2697 290.12 99.1262 289.889C98.7639 289.24 98.3467 288.623 97.8791 288.045C96.3374 286.116 94.341 284.598 92.0688 283.63C89.7966 282.661 87.3195 282.271 84.8596 282.495C84.1194 282.555 83.3857 282.679 82.6669 282.865C82.4023 282.917 82.1448 283 81.8994 283.112Z" fill="#EB996E"/>
<path d="M83.5855 279.254C84.5947 278.95 85.6369 278.768 86.6896 278.713C89.2427 278.704 91.7465 279.416 93.912 280.769C96.058 282.147 98.014 283.801 99.7296 285.689L101.319 287.381C101.505 287.599 101.709 287.801 101.929 287.984C101.779 287.739 101.604 287.51 101.408 287.299C101.059 286.874 100.545 286.271 99.8804 285.538C98.1929 283.589 96.2335 281.892 94.0627 280.501C91.851 279.122 89.2814 278.426 86.6759 278.501C85.8928 278.538 85.1184 278.681 84.3735 278.925C84.1062 279.001 83.9144 279.104 83.7773 279.151C83.6403 279.199 83.5786 279.247 83.5855 279.254Z" fill="#EB996E"/>
<path d="M70.4486 299.818H144.331C145.341 299.819 146.312 299.429 147.041 298.731C147.77 298.032 148.201 297.079 148.243 296.07L150.464 245.239C150.49 244.708 150.407 244.178 150.222 243.68C150.037 243.182 149.752 242.727 149.386 242.342C149.019 241.958 148.578 241.652 148.09 241.443C147.601 241.234 147.075 241.127 146.544 241.127H68.4271C67.8989 241.127 67.376 241.233 66.8898 241.44C66.4037 241.647 65.9644 241.95 65.5983 242.331C65.2322 242.711 64.9469 243.162 64.7594 243.656C64.572 244.15 64.4863 244.677 64.5076 245.205L66.5633 296.035C66.5969 297.046 67.0202 298.004 67.7444 298.709C68.4687 299.414 69.4378 299.811 70.4486 299.818Z" fill="#E0E0E0"/>
<path d="M70.4488 299.818H70.2706C70.089 299.815 69.9079 299.796 69.7293 299.763C69.0284 299.643 68.3741 299.333 67.838 298.865C67.402 298.483 67.0539 298.01 66.8173 297.48C66.5808 296.95 66.4615 296.376 66.4676 295.796C66.4059 294.425 66.3374 292.876 66.262 291.122C65.9605 284.078 65.5288 273.895 64.9943 261.321C64.8573 258.174 64.7179 254.882 64.5763 251.447C64.5078 249.727 64.4324 247.98 64.357 246.191C64.357 245.746 64.3091 245.307 64.3228 244.821C64.3505 244.349 64.4595 243.885 64.6448 243.45C64.9312 242.791 65.3856 242.217 65.9628 241.788C66.54 241.359 67.2196 241.089 67.934 241.004C68.4273 240.963 68.8864 241.004 69.3593 241.004H90.1973H144.365H146.167C146.788 240.975 147.407 241.071 147.99 241.285C148.572 241.511 149.095 241.867 149.518 242.325C149.942 242.784 150.256 243.332 150.436 243.93C150.602 244.52 150.653 245.137 150.587 245.746L150.512 247.514C150.457 248.692 150.409 249.864 150.354 251.036C150.149 255.709 149.948 260.312 149.751 264.843C149.354 273.895 148.97 282.625 148.6 290.944C148.559 291.986 148.511 293 148.463 294.041C148.463 294.555 148.422 295.069 148.394 295.576C148.402 296.099 148.335 296.621 148.196 297.125C147.88 298.138 147.185 298.99 146.256 299.503C145.801 299.755 145.3 299.915 144.783 299.975C144.262 300.03 143.783 299.975 143.282 299.975H131.812H111.213L81.3851 299.921L73.2788 299.886H81.3851L111.213 299.825H131.812H143.282C143.776 299.825 144.283 299.825 144.749 299.79C145.23 299.736 145.696 299.587 146.119 299.352C146.976 298.88 147.615 298.094 147.901 297.159C148.033 296.682 148.095 296.188 148.086 295.693C148.086 295.186 148.134 294.672 148.155 294.158C148.196 293.13 148.244 292.102 148.285 291.061C148.648 282.742 149.025 274.005 149.415 264.953C149.612 260.431 149.811 255.828 150.011 251.146C150.066 249.981 150.114 248.809 150.169 247.63L150.244 245.862C150.31 245.29 150.264 244.711 150.107 244.156C149.942 243.611 149.655 243.111 149.268 242.693C148.881 242.275 148.404 241.951 147.874 241.744C147.333 241.545 146.757 241.459 146.181 241.491H144.379H90.211H69.3593C68.8933 241.491 68.4068 241.491 67.9888 241.491C67.3242 241.564 66.691 241.813 66.154 242.211C65.6171 242.61 65.1956 243.144 64.9326 243.759C64.761 244.159 64.659 244.585 64.6311 245.02C64.6311 245.451 64.6311 245.91 64.6311 246.356C64.6997 248.137 64.7682 249.892 64.8367 251.605C64.9737 255.035 65.1039 258.327 65.2273 261.479C65.7207 274.06 66.1112 284.242 66.3853 291.287C66.4539 293.048 66.5087 294.61 66.5635 295.96C66.5398 296.884 66.844 297.787 67.4222 298.508C68.0004 299.229 68.8153 299.722 69.7224 299.9C70.2021 299.818 70.4488 299.797 70.4488 299.818Z" fill="#263238"/>
<path d="M103.409 271.381C103.411 272.18 103.649 272.961 104.094 273.625C104.539 274.289 105.171 274.806 105.91 275.111C106.649 275.416 107.461 275.495 108.245 275.338C109.029 275.182 109.749 274.796 110.313 274.23C110.878 273.665 111.262 272.944 111.418 272.16C111.573 271.376 111.493 270.564 111.187 269.825C110.88 269.087 110.362 268.456 109.697 268.012C109.033 267.568 108.251 267.331 107.452 267.331C106.921 267.331 106.394 267.436 105.903 267.639C105.412 267.843 104.966 268.141 104.591 268.518C104.215 268.894 103.918 269.34 103.715 269.832C103.512 270.323 103.408 270.849 103.409 271.381Z" fill="white"/>
<path d="M156.111 225.545C156.127 225.687 156.127 225.829 156.111 225.97V227.19C156.111 228.245 156.111 229.773 156.035 231.665C155.939 235.44 155.741 240.662 155.419 246.418C155.097 252.174 154.733 257.381 154.425 261.157C154.267 263.007 154.137 264.515 154.048 265.618C153.993 266.111 153.952 266.509 153.918 266.824C153.915 266.968 153.892 267.111 153.849 267.249C153.836 267.108 153.836 266.965 153.849 266.824C153.849 266.509 153.849 266.105 153.904 265.604C153.973 264.508 154.062 262.994 154.178 261.137C154.404 257.327 154.72 252.133 155.062 246.397C155.405 240.662 155.624 235.433 155.782 231.658C155.857 229.801 155.926 228.286 155.974 227.183L156.035 225.97C156.044 225.826 156.069 225.684 156.111 225.545Z" fill="#263238"/>
<path d="M320.972 299.818C320.972 299.914 250.879 299.996 164.43 299.996C77.9805 299.996 7.87402 299.914 7.87402 299.818C7.87402 299.722 77.9531 299.66 164.43 299.66C250.907 299.66 320.972 299.715 320.972 299.818Z" fill="#263238"/>
</svg>
