<svg width="24" height="25" viewBox="0 0 24 25" fill="none" xmlns="http://www.w3.org/2000/svg">
<path d="M9.45678 15.6676L19.5377 6.60398C19.7843 6.38818 19.7997 6.24945 19.5839 6.1878C19.3681 6.12614 19.1215 6.1878 18.8441 6.37277L6.40475 14.1878L0.99435 12.5231C0.408608 12.3381 0.131152 12.076 0.16198 11.7369C0.192809 11.3978 0.562751 11.0895 1.27181 10.8121L22.266 2.76583C22.7901 2.58086 23.2063 2.64252 23.5146 2.9508C23.8229 3.25909 23.9153 3.75235 23.792 4.43057V4.47682L20.1851 21.2167C19.9076 22.3882 19.2602 22.6811 18.2429 22.0953L12.7863 18.1184L10.1504 20.6618C9.81131 21.0009 9.44136 21.1705 9.04059 21.1705L9.45678 15.6676Z" fill="#3780EF"/>
</svg>
