<svg width="561" height="462" viewBox="0 0 561 462" fill="none" xmlns="http://www.w3.org/2000/svg">
<path d="M537.956 461.679C537.956 461.864 417.851 462 269.749 462C121.646 462 1.5166 461.914 1.5166 461.679C1.5166 461.445 121.584 461.359 269.749 461.359C417.913 461.359 537.956 461.556 537.956 461.679Z" fill="#263238"/>
<path d="M387.265 248.397C388.181 252.12 388.074 256.02 386.956 259.688C385.839 263.355 383.752 266.652 380.916 269.232C377.156 272.561 372.286 274.484 368.834 278.145C366.697 280.58 365.228 283.527 364.569 286.699C363.91 289.871 364.084 293.159 365.074 296.244C366.121 299.306 367.779 302.124 369.947 304.527C372.115 306.93 374.747 308.868 377.686 310.224C381.687 312.094 386.074 312.99 390.488 312.84C394.902 312.69 399.217 311.498 403.083 309.361C412.613 303.974 418.16 293.162 419.566 282.3C420.971 271.439 418.764 260.442 415.867 249.876" fill="#263238"/>
<path d="M507.456 439.92C517.318 438.305 526.565 441.313 536.329 443.471C538.925 444.24 541.666 444.388 544.33 443.902C548.559 442.817 551.567 438.7 552.22 434.385C552.749 430.604 551.872 426.761 549.755 423.585C548.906 422.216 547.749 421.063 546.377 420.219C544.906 419.482 543.298 419.062 541.655 418.986C535.671 418.504 529.668 419.637 524.272 422.266C518.89 424.882 514.008 428.42 509.847 432.72C507.776 434.791 508.393 437.171 507.48 439.957" fill="#263238"/>
<path d="M307.5 280.736C305.918 271.332 306.111 261.714 308.067 252.381C308.894 247.816 310.566 243.447 312.998 239.497C313.827 238.024 315.088 236.841 316.611 236.107C317.717 235.74 318.903 235.687 320.037 235.955C321.171 236.222 322.209 236.8 323.034 237.623C324.087 238.72 324.896 240.028 325.406 241.46C325.916 242.893 326.116 244.417 325.993 245.933C325.773 248.963 325.03 251.933 323.798 254.711C319.989 264.45 313.935 272.538 307.463 280.724" fill="#263238"/>
<path d="M498.592 316.376C500.824 317.967 550.372 424.695 550.372 424.695C546.387 422.993 541.974 422.562 537.735 423.462L535.048 424.177C530.238 425.47 525.676 427.553 521.548 430.341L507.407 439.908C506.848 439.587 506.373 439.136 506.024 438.593C505.674 438.05 505.459 437.432 505.398 436.789V436.382L466.982 370.449L498.592 316.376Z" fill="#EBEBEB"/>
<path d="M312.542 146.466L325.758 221.584C330.011 231.693 379.609 292.941 379.609 292.941L363.212 345.633L298.068 256.56C292.019 250.092 288.729 241.521 288.896 232.667L291.435 152.408L312.542 146.466Z" fill="#FFBE9D"/>
<path d="M382.876 281.166L416.891 283.742L446.553 288.341C446.553 288.341 498.592 302.013 498.592 307.709C498.592 309.608 484.39 354.841 476.401 381.939C474.442 388.521 472.846 395.205 471.617 401.961L498.592 461.68H370.585V406.929C370.585 406.929 361.955 335.017 363.471 325.191C364.988 315.365 382.876 281.166 382.876 281.166Z" fill="#EBEBEB"/>
<path d="M296.404 116.111C296.604 108.46 297.387 100.835 298.747 93.303C298.932 92.2304 299.375 90.9359 300.448 90.8373C301.78 90.6647 302.458 92.3783 302.63 93.7098C303.812 102.793 303.433 112.012 301.508 120.968" fill="#EB996E"/>
<path d="M311.568 275.175C326.165 262.132 326.658 239.534 325.413 221.546C325.169 220.233 325.369 218.875 325.98 217.687C327.373 215.703 330.764 216.455 332.144 218.452C333.525 220.449 333.377 223.075 333.303 225.491C334.055 223.445 337.261 223.457 338.765 225.035C340.269 226.613 340.528 228.993 340.7 231.2L341.181 237.216L383.826 277.9C383.826 277.9 384.997 274.201 388.128 276.334C391.26 278.467 393.282 282.967 393.282 282.967L363.237 348.543L307.475 280.736C308.547 278.684 309.928 276.809 311.568 275.175Z" fill="#EBEBEB"/>
<path d="M369.438 320.555C364.989 326.23 361.666 332.704 359.649 339.627C357.639 346.596 357.859 354.019 360.278 360.857C362.149 365.588 365.215 369.753 369.175 372.947C373.136 376.14 377.856 378.253 382.876 379.078" fill="#EBEBEB"/>
<path d="M507.457 439.92L505.842 461.68H537.44L544.837 423.153C535.212 422.616 525.719 425.59 518.121 431.524L507.457 439.92Z" fill="#FFBE9D"/>
<path d="M326.424 270.354C326.603 269.755 326.834 269.173 327.115 268.616C327.608 267.531 328.274 265.928 329.026 263.931C329.778 261.933 330.579 259.517 331.331 256.805C332.113 253.845 332.734 250.844 333.193 247.817C333.619 244.789 333.878 241.739 333.969 238.682C333.969 235.859 333.969 233.319 333.797 231.186C333.624 229.053 333.464 227.34 333.304 226.156C333.197 225.541 333.14 224.919 333.131 224.294C333.331 224.887 333.472 225.498 333.55 226.119C333.87 227.783 334.105 229.462 334.253 231.149C334.494 233.657 334.597 236.175 334.561 238.694C334.467 244.87 333.572 251.007 331.898 256.953C331.21 259.376 330.387 261.759 329.432 264.091C328.619 266.088 327.891 267.666 327.324 268.726C327.066 269.291 326.765 269.835 326.424 270.354Z" fill="#263238"/>
<path d="M335.708 258.901C336.11 257.841 336.571 256.803 337.089 255.794C339.247 250.791 340.499 245.443 340.787 240.001C340.786 238.869 340.847 237.737 340.972 236.611C341.215 237.728 341.306 238.873 341.244 240.014C341.201 245.543 339.938 250.995 337.545 255.979C337.074 257.035 336.456 258.019 335.708 258.901Z" fill="#263238"/>
<path d="M385.786 293.002C385.687 292.94 386.205 292.139 386.501 290.684C386.847 288.783 386.737 286.826 386.18 284.976C385.595 283.113 384.882 281.292 384.048 279.527C383.658 278.796 383.368 278.016 383.185 277.209C383.673 277.868 384.086 278.579 384.417 279.329C385.393 281.066 386.182 282.901 386.772 284.803C387.362 286.751 387.409 288.822 386.908 290.795C386.753 291.623 386.363 292.388 385.786 293.002Z" fill="#263238"/>
<path d="M378.377 379.844C378.185 379.764 378.002 379.66 377.835 379.535L376.38 378.574C375.147 377.723 373.31 376.478 371.165 374.789C368.629 372.836 366.311 370.616 364.249 368.168C361.712 365.138 359.884 361.579 358.898 357.751C357.957 353.922 357.715 349.954 358.183 346.039C358.561 342.863 359.268 339.736 360.291 336.706C360.97 334.665 361.756 332.66 362.646 330.702C362.967 330.012 363.213 329.469 363.398 329.124C363.48 328.932 363.583 328.75 363.706 328.582C363.473 329.336 363.197 330.077 362.88 330.801C362.326 332.206 361.524 334.253 360.723 336.842C359.776 339.858 359.124 342.958 358.775 346.1C358.346 349.944 358.596 353.834 359.515 357.591C360.474 361.333 362.246 364.818 364.705 367.799C366.723 370.231 368.983 372.454 371.449 374.431C373.545 376.157 375.308 377.452 376.528 378.376L377.909 379.437C378.229 379.683 378.39 379.819 378.377 379.844Z" fill="#263238"/>
<path d="M448.218 392.036C448.047 392.127 447.864 392.193 447.675 392.233C447.305 392.332 446.775 392.517 446.072 392.653C444.086 393.083 442.063 393.327 440.031 393.38C433.257 393.588 426.575 391.763 420.846 388.14C415.118 384.516 410.606 379.261 407.891 373.05C407.063 371.193 406.415 369.261 405.955 367.281C405.783 366.578 405.721 366.048 405.647 365.653C405.605 365.463 405.584 365.269 405.586 365.074C405.838 365.77 406.044 366.483 406.202 367.207C408.164 374.65 412.558 381.224 418.686 385.884C424.813 390.544 432.322 393.021 440.019 392.924C442.031 392.914 444.039 392.741 446.023 392.406C446.748 392.244 447.48 392.121 448.218 392.036Z" fill="#263238"/>
<path d="M467.833 416.065C467.66 416.065 469.288 409.198 471.531 400.839C473.775 392.481 475.625 385.737 475.785 385.786C475.945 385.835 474.33 392.641 472.148 401C469.966 409.358 468.005 416.065 467.833 416.065Z" fill="#263238"/>
<path d="M485.031 401.529C484.884 401.615 479.927 393.515 473.936 383.43C467.944 373.346 463.259 365.098 463.42 365.011C463.58 364.925 468.524 373.013 474.515 383.097C480.507 393.182 485.241 401.43 485.031 401.529Z" fill="#263238"/>
<path d="M532.361 421.49C532.361 421.613 530.561 421.761 527.75 422.476C526.108 422.894 524.497 423.425 522.93 424.067C521.017 424.876 519.171 425.832 517.406 426.927C515.665 428.048 514.016 429.305 512.475 430.687C511.218 431.836 510.044 433.072 508.961 434.386C507.112 436.617 506.2 438.183 506.089 438.084C506.237 437.685 506.432 437.304 506.668 436.95C507.24 435.941 507.887 434.977 508.604 434.065C509.657 432.703 510.816 431.425 512.068 430.243C513.619 428.807 515.294 427.512 517.074 426.372C518.869 425.256 520.758 424.299 522.72 423.512C524.32 422.88 525.97 422.381 527.652 422.02C528.779 421.759 529.925 421.586 531.079 421.502C531.503 421.437 531.935 421.433 532.361 421.49Z" fill="#263238"/>
<path d="M538.401 414.069C538.401 414.205 536.416 413.958 533.247 414.229C531.399 414.396 529.568 414.718 527.774 415.191C523.374 416.359 519.261 418.42 515.692 421.244C514.24 422.399 512.887 423.674 511.648 425.054C509.54 427.421 508.553 429.147 508.442 429.085C508.608 428.649 508.828 428.235 509.096 427.852C509.36 427.376 509.657 426.919 509.983 426.484C510.394 425.887 510.834 425.311 511.303 424.758C512.514 423.311 513.86 421.982 515.322 420.788C517.13 419.338 519.079 418.075 521.141 417.016C523.215 416 525.388 415.199 527.626 414.624C529.46 414.163 531.334 413.878 533.223 413.773C533.941 413.737 534.662 413.737 535.38 413.773C535.928 413.775 536.476 413.808 537.02 413.872C537.487 413.879 537.951 413.945 538.401 414.069Z" fill="#263238"/>
<g opacity="0.3">
<path d="M406.904 367.7C404.007 373.198 406.423 379.905 409.074 385.539C411.133 389.903 413.426 394.329 417.174 397.375C419.015 398.88 421.148 399.988 423.438 400.63C425.729 401.272 428.127 401.434 430.483 401.105C432.839 400.777 435.101 399.964 437.128 398.72C439.155 397.475 440.903 395.825 442.262 393.873C434.403 393.756 426.764 391.265 420.347 386.725C413.931 382.186 409.038 375.811 406.312 368.439" fill="black"/>
</g>
<g opacity="0.3">
<path d="M463.504 365.013C461.284 370.302 462.961 377.539 465.279 382.778C467.597 388.018 470.062 393.874 468.201 399.311C467.721 400.276 467.472 401.34 467.473 402.418C467.597 403.478 468.706 404.501 469.705 404.008C470.221 403.645 470.578 403.098 470.703 402.479C472.454 397.203 474.209 391.93 475.968 386.662" fill="black"/>
</g>
<path d="M346.878 295.369C347.077 292.058 347.488 288.764 348.111 285.506C348.53 282.23 349.16 278.985 349.997 275.791C349.811 279.103 349.399 282.398 348.764 285.654C348.349 288.93 347.719 292.175 346.878 295.369Z" fill="#FAFAFA"/>
<path d="M333.895 292.645C333.735 292.743 331.615 289.784 328.681 286.382C325.746 282.979 323.157 280.427 323.281 280.292C325.491 281.908 327.473 283.816 329.174 285.963C331.031 287.976 332.618 290.222 333.895 292.645Z" fill="#FAFAFA"/>
<path d="M345.04 260.886C344.669 261.68 344.201 262.425 343.647 263.105C342.71 264.424 341.342 266.187 339.751 268.036C338.161 269.886 336.632 271.55 335.486 272.684C334.911 273.343 334.252 273.923 333.525 274.41C333.39 274.287 336.09 271.365 339.258 267.617C342.427 263.869 344.892 260.725 345.04 260.886Z" fill="#FAFAFA"/>
<path d="M340.689 245.364C340.504 245.438 339.801 243.872 338.445 242.306C337.089 240.741 335.634 239.841 335.733 239.656C337.015 240.025 338.138 240.81 338.926 241.887C339.874 242.825 340.493 244.045 340.689 245.364Z" fill="#FAFAFA"/>
<path d="M329.444 254.931C328.437 255.406 327.35 255.686 326.239 255.757C325.161 256.039 324.038 256.106 322.935 255.955C325.019 255.199 327.229 254.851 329.444 254.931Z" fill="#FAFAFA"/>
<path d="M357.814 268.628C357.842 266.709 357.706 264.791 357.407 262.896C356.897 261.044 356.224 259.241 355.397 257.508C356.796 258.945 357.713 260.78 358.023 262.76C358.551 264.692 358.478 266.739 357.814 268.628Z" fill="#FAFAFA"/>
<path d="M372.964 284.926C370.69 281.296 367.637 278.218 364.026 275.914C366.065 276.705 367.914 277.916 369.454 279.469C370.994 281.021 372.19 282.881 372.964 284.926Z" fill="#FAFAFA"/>
<path d="M348.639 313.209C344.968 314.584 340.903 314.447 337.333 312.827C337.395 312.642 339.799 313.419 342.968 313.505C346.136 313.591 348.589 313.024 348.639 313.209Z" fill="#FAFAFA"/>
<path d="M360.056 319.063C359.884 318.989 360.845 316.154 361.647 312.554C362.448 308.954 362.806 305.97 362.991 305.995C363.117 308.251 362.876 310.512 362.276 312.689C361.884 314.92 361.134 317.072 360.056 319.063Z" fill="#FAFAFA"/>
<path d="M384.996 320.014C383.046 318.366 381.243 316.551 379.609 314.589C377.805 312.774 376.155 310.811 374.677 308.721C376.62 310.377 378.418 312.196 380.053 314.158C381.855 315.974 383.508 317.932 384.996 320.014Z" fill="#FAFAFA"/>
<path d="M396.611 348.826C395.133 347.753 393.784 346.512 392.592 345.127C391.256 343.885 390.064 342.496 389.042 340.985C390.52 342.058 391.869 343.299 393.061 344.683C394.409 345.914 395.601 347.305 396.611 348.826Z" fill="#FAFAFA"/>
<path d="M375.023 351.574C373.606 353.083 371.937 354.334 370.092 355.273C368.356 356.428 366.427 357.263 364.396 357.738C364.396 357.566 366.862 356.505 369.771 354.767C372.681 353.029 374.9 351.426 375.023 351.574Z" fill="#FAFAFA"/>
<path d="M384.96 378.979C384.775 378.979 385.515 375.7 385.884 371.644C386.254 367.588 386.143 364.247 386.328 364.247C386.781 366.687 386.848 369.183 386.526 371.644C386.403 374.157 385.874 376.634 384.96 378.979Z" fill="#FAFAFA"/>
<path d="M422.328 356.705C420.291 355.458 418.485 353.869 416.99 352.007C415.341 350.286 414.01 348.287 413.057 346.102C413.217 345.991 414.906 348.666 417.471 351.588C420.035 354.51 422.451 356.544 422.328 356.705Z" fill="#FAFAFA"/>
<path d="M435.975 368.331C435.827 368.22 437.701 365.655 439.797 362.364C441.893 359.072 443.434 356.31 443.594 356.397C442.794 358.638 441.695 360.761 440.327 362.709C439.144 364.775 437.679 366.667 435.975 368.331Z" fill="#FAFAFA"/>
<path d="M433.978 339.875C429.769 339.176 425.639 338.061 421.65 336.546C423.776 336.8 425.873 337.254 427.913 337.903C429.996 338.354 432.028 339.015 433.978 339.875Z" fill="#FAFAFA"/>
<path d="M424.029 389.954C423.811 388.013 423.811 386.052 424.029 384.111C424.045 382.157 424.268 380.211 424.695 378.304C424.917 380.246 424.917 382.206 424.695 384.148C424.683 386.102 424.459 388.048 424.029 389.954Z" fill="#FAFAFA"/>
<path d="M432.633 407.102C433.279 405.111 433.798 403.081 434.187 401.024C434.357 398.936 434.39 396.84 434.285 394.749C434.921 396.8 435.103 398.966 434.818 401.095C434.533 403.224 433.787 405.265 432.633 407.077V407.102Z" fill="#FAFAFA"/>
<path d="M410.331 403.318C409.703 399.059 410.537 394.713 412.699 390.99C412.871 391.063 411.737 393.665 411.096 397.08C410.455 400.495 410.516 403.306 410.331 403.318Z" fill="#FAFAFA"/>
<path d="M389.989 412.008C387.98 410.611 386.045 409.109 384.195 407.508C382.215 406.073 380.31 404.538 378.487 402.909C380.703 404.013 382.774 405.388 384.651 407.002C386.62 408.456 388.412 410.136 389.989 412.008Z" fill="#FAFAFA"/>
<path d="M403.762 387.821C399.043 390.815 394.096 393.433 388.967 395.65C391.289 394.053 393.729 392.635 396.266 391.409C398.668 390.022 401.174 388.822 403.762 387.821Z" fill="#FAFAFA"/>
<path d="M446.553 442.104C446.291 442.189 446.023 442.255 445.751 442.301C445.221 442.399 444.445 442.597 443.434 442.732C440.579 443.169 437.691 443.354 434.804 443.287C427.345 443.179 419.994 441.49 413.236 438.332C406.478 435.174 400.467 430.619 395.599 424.967C392.771 421.713 390.349 418.128 388.387 414.29C387.049 411.719 385.943 409.033 385.083 406.265C384.75 405.291 384.589 404.514 384.442 403.996C384.359 403.731 384.306 403.459 384.281 403.182C384.399 403.432 384.494 403.692 384.565 403.959C384.75 404.465 384.947 405.192 385.317 406.191C387.681 412.949 391.322 419.189 396.043 424.572C400.923 430.094 406.879 434.562 413.546 437.701C420.213 440.841 427.451 442.586 434.816 442.831C437.697 442.938 440.582 442.822 443.446 442.486C444.469 442.387 445.246 442.227 445.776 442.178C446.031 442.124 446.292 442.099 446.553 442.104Z" fill="#263238"/>
<path d="M409.715 435.717C409.294 433.76 409.497 431.721 410.295 429.885C410.896 427.976 412.088 426.305 413.697 425.114C412.608 426.691 411.671 428.367 410.899 430.12C410.334 431.945 409.938 433.819 409.715 435.717Z" fill="#FAFAFA"/>
<path d="M399.57 431.475C398.399 432.381 397.325 433.405 396.364 434.532C395.563 435.774 394.886 437.091 394.342 438.465C394.384 436.902 394.909 435.391 395.845 434.139C396.781 432.887 398.082 431.956 399.57 431.475Z" fill="#FAFAFA"/>
<path d="M438.588 454.702C436.571 454.541 434.621 453.897 432.905 452.824C431.188 451.751 429.755 450.281 428.726 448.538C431.407 451.433 434.811 453.561 438.588 454.702Z" fill="#FAFAFA"/>
<path d="M444.656 420.553C444.397 422.366 443.631 424.068 442.447 425.464C441.263 426.86 439.708 427.893 437.962 428.443C439.403 427.449 440.741 426.313 441.956 425.053C443.009 423.65 443.914 422.142 444.656 420.553Z" fill="#FAFAFA"/>
<path d="M461.902 446.011C461.754 445.887 463.382 443.829 464.886 440.993C466.39 438.157 467.191 435.655 467.351 435.716C466.653 439.638 464.738 443.239 461.877 446.011H461.902Z" fill="#FAFAFA"/>
<path d="M484.698 449.352C484.772 449.536 482.528 450.424 480.272 452.286C478.016 454.147 476.66 456.145 476.5 455.984C477.208 454.284 478.373 452.812 479.865 451.731C481.224 450.505 482.898 449.681 484.698 449.352Z" fill="#FAFAFA"/>
<path d="M467.314 420.172C467.117 420.234 466.081 416.634 463.776 412.639C461.471 408.645 459.005 405.834 459.165 405.711C459.842 406.187 460.437 406.77 460.928 407.437C463.523 410.468 465.499 413.978 466.747 417.768C467.057 418.536 467.248 419.347 467.314 420.172Z" fill="#FAFAFA"/>
<path d="M470.718 383.468C466.88 384.794 462.913 385.707 458.882 386.193C462.721 384.871 466.688 383.958 470.718 383.468Z" fill="#FAFAFA"/>
<path d="M460.227 372.497C458.819 371.188 457.554 369.734 456.454 368.157C455.199 366.705 454.104 365.122 453.187 363.436C454.608 364.727 455.874 366.179 456.96 367.763C458.226 369.21 459.323 370.799 460.227 372.497Z" fill="#FAFAFA"/>
<path d="M486.262 365.911C482.267 365.812 478.337 364.88 474.723 363.174C476.675 363.508 478.606 363.957 480.505 364.518C482.45 364.865 484.373 365.331 486.262 365.911Z" fill="#FAFAFA"/>
<path d="M504.757 365.581C505.287 363.837 505.917 362.124 506.643 360.452C507.164 358.701 507.794 356.984 508.529 355.311C508.429 357.156 508.012 358.97 507.297 360.674C506.747 362.447 505.887 364.108 504.757 365.581Z" fill="#FAFAFA"/>
<path d="M500.54 390.632C496.716 389.778 493.262 387.731 490.677 384.788C490.8 384.64 492.748 386.341 495.448 387.932C498.148 389.522 500.601 390.447 500.54 390.632Z" fill="#FAFAFA"/>
<path d="M512.548 389.867C512.795 387.392 513.249 384.943 513.904 382.544C514.35 380.105 515.002 377.709 515.852 375.381C515.16 380.301 514.042 385.152 512.511 389.879L512.548 389.867Z" fill="#FAFAFA"/>
<path d="M502.525 417.877C499.448 414.394 496.699 410.634 494.314 406.646C495.93 408.318 497.391 410.134 498.679 412.07C500.137 413.883 501.425 415.827 502.525 417.877Z" fill="#FAFAFA"/>
<path d="M519.637 407.165C519.464 407.251 518.342 405.02 516.567 402.53C514.792 400.039 513.078 398.227 513.214 398.091C514.764 399.178 516.084 400.56 517.097 402.16C518.275 403.638 519.139 405.341 519.637 407.165Z" fill="#FAFAFA"/>
<path d="M535.689 404.762C534.283 403.111 532.967 401.387 531.744 399.596C530.343 397.946 529.026 396.226 527.799 394.443C531.079 397.333 533.759 400.839 535.689 404.762Z" fill="#FAFAFA"/>
<path d="M531.878 415.4C531.659 413.919 531.161 412.492 530.411 411.196C529.509 409.999 528.393 408.979 527.12 408.188C527.12 408.114 527.687 408.188 528.463 408.57C529.465 409.104 530.314 409.884 530.929 410.838C531.557 411.789 531.934 412.883 532.026 414.019C532.15 414.833 531.989 415.4 531.878 415.4Z" fill="#FAFAFA"/>
<path d="M519.402 429.983C519.304 429.983 519.341 429.651 519.242 429.219C519.126 428.665 518.826 428.165 518.391 427.801C517.936 427.465 517.379 427.295 516.813 427.321C516.37 427.321 516.086 427.431 516.037 427.321C515.987 427.21 516.222 426.988 516.752 426.84C517.1 426.749 517.465 426.739 517.818 426.812C518.171 426.885 518.502 427.039 518.786 427.26C519.07 427.482 519.299 427.767 519.455 428.091C519.611 428.416 519.69 428.773 519.686 429.133C519.674 429.725 519.476 430.008 519.402 429.983Z" fill="#FAFAFA"/>
<path d="M391.137 453.296C388.834 452.409 386.742 451.052 384.993 449.312C383.244 447.571 381.876 445.485 380.978 443.187C383.493 447.345 386.978 450.831 391.137 453.346V453.296Z" fill="#FAFAFA"/>
<path d="M312.666 147.303C310.681 128.551 307.093 110.909 306.119 92.5274C306.158 92.0665 306.1 91.6026 305.949 91.1653C305.799 90.728 305.559 90.327 305.244 89.9877C304.976 89.8308 304.678 89.7301 304.37 89.6918C304.061 89.6535 303.748 89.6783 303.449 89.7648C303.151 89.8513 302.873 89.9976 302.632 90.1949C302.392 90.3922 302.194 90.6362 302.051 90.9123C301.513 92.0662 301.3 93.3449 301.435 94.6109C301.456 104.386 299.787 114.092 296.503 123.299C294.395 129.279 291.572 135.012 289.994 141.139C288.416 147.266 291.387 149.35 294.148 155.058" fill="#FFBE9D"/>
<path d="M294.185 155.034C291.743 153.16 289.849 150.665 288.701 147.808C287.554 144.952 287.196 141.84 287.663 138.797C288.292 135.098 290.129 131.745 291.584 128.293C293.039 124.841 294.161 121.007 293.273 117.37C292.782 116.02 292.451 114.618 292.287 113.191C292.287 111.761 293.211 110.158 294.641 110.096C295.182 110.14 295.705 110.308 296.169 110.589C296.633 110.869 297.026 111.253 297.317 111.711C299.721 114.682 301.644 123.362 300.436 129.846" fill="#FFBE9D"/>
<path d="M300.436 129.846C300.436 129.846 300.559 128.848 300.633 127.048C300.71 124.509 300.499 121.969 300.004 119.478C299.672 117.762 299.177 116.082 298.525 114.46C298.182 113.578 297.717 112.748 297.144 111.995C296.887 111.59 296.55 111.243 296.153 110.973C295.757 110.704 295.309 110.519 294.839 110.429C294.354 110.452 293.89 110.633 293.518 110.945C293.146 111.257 292.887 111.682 292.78 112.155C292.515 113.206 292.584 114.313 292.977 115.323C293.391 116.451 293.681 117.621 293.84 118.812C293.959 120.046 293.913 121.289 293.704 122.511C292.841 127.516 290.178 131.56 288.773 135.567C288.08 137.439 287.709 139.415 287.676 141.41C287.668 143.149 287.926 144.878 288.44 146.539C289.187 148.962 290.448 151.195 292.139 153.086C293.371 154.405 294.173 154.984 294.136 155.046C293.916 154.934 293.709 154.798 293.519 154.639C292.963 154.215 292.439 153.749 291.954 153.246C290.152 151.387 288.802 149.139 288.009 146.675C287.447 144.976 287.155 143.2 287.146 141.41C287.156 139.35 287.519 137.307 288.218 135.369C289.574 131.276 292.2 127.233 293.014 122.412C293.224 121.241 293.27 120.046 293.149 118.862C293.001 117.704 292.724 116.567 292.324 115.471C291.897 114.339 291.837 113.101 292.151 111.933C292.334 111.35 292.671 110.826 293.125 110.416C293.352 110.205 293.62 110.042 293.913 109.938C294.205 109.834 294.516 109.791 294.826 109.812C295.391 109.887 295.933 110.081 296.418 110.38C296.902 110.68 297.318 111.079 297.637 111.551C298.237 112.367 298.718 113.263 299.067 114.214C299.719 115.87 300.198 117.588 300.497 119.342C300.964 121.87 301.109 124.447 300.929 127.011C300.886 127.706 300.795 128.398 300.658 129.082C300.62 129.346 300.546 129.603 300.436 129.846Z" fill="#EB996E"/>
<path d="M461.606 229.965C462.009 231.729 462.964 233.318 464.332 234.502C465.7 235.686 467.41 236.403 469.213 236.549C471.02 236.637 472.82 236.265 474.444 235.467C476.068 234.669 477.462 233.472 478.496 231.987C480.544 228.968 481.368 225.284 480.802 221.681C480.099 216.49 476.647 211.497 471.642 209.956C466.636 208.415 460.41 211.189 459.03 216.219L453.26 224.27L461.606 229.965Z" fill="#263238"/>
<path d="M454.79 214.148C455.349 209.686 455.007 205.158 453.783 200.832C452.559 196.505 450.479 192.468 447.665 188.961C444.851 185.454 441.362 182.548 437.403 180.415C433.445 178.282 429.098 176.967 424.622 176.546C406.733 174.845 390.817 188.172 388.142 205.949C385.787 221.533 383.765 237.264 383.839 242.935C384.061 260.195 394.133 266.877 398.226 268.825C399.696 269.355 401.216 269.731 402.763 269.947C402.778 269.95 402.792 269.956 402.804 269.964C402.817 269.973 402.827 269.983 402.835 269.996C402.843 270.009 402.849 270.023 402.851 270.038C402.854 270.053 402.853 270.068 402.849 270.082L399.028 289.808C397.289 302.765 404.526 314.33 417.459 316.216C430.391 318.102 440.587 308.153 442.572 295.183L454.79 214.148Z" fill="#FFBE9D"/>
<path d="M391.113 216.023C391.396 216.43 393.665 215.209 396.587 215.641C399.509 216.072 401.42 217.848 401.789 217.527C401.974 217.391 401.715 216.713 400.889 215.9C399.755 214.839 398.322 214.155 396.784 213.939C395.266 213.719 393.718 213.982 392.358 214.691C391.335 215.246 390.965 215.838 391.113 216.023Z" fill="#263238"/>
<path d="M417.053 221.644C417.336 222.051 419.617 220.831 422.527 221.262C425.436 221.694 427.372 223.469 427.742 223.149C427.914 223.013 427.668 222.335 426.829 221.509C425.697 220.455 424.268 219.775 422.736 219.561C421.218 219.34 419.67 219.603 418.31 220.313C417.312 220.868 416.917 221.46 417.053 221.644Z" fill="#263238"/>
<path d="M406.967 235.427C405.5 234.724 403.951 234.206 402.357 233.886C401.617 233.701 400.939 233.442 400.889 232.924C400.938 232.147 401.222 231.403 401.703 230.791L404.736 225.441C408.965 217.809 412.133 211.497 411.837 211.324C411.541 211.152 407.843 217.205 403.614 224.886L400.668 230.273C400.077 231.11 399.79 232.124 399.854 233.146C399.932 233.417 400.068 233.668 400.254 233.881C400.439 234.094 400.669 234.264 400.926 234.379C401.322 234.547 401.735 234.667 402.159 234.736C403.726 235.169 405.342 235.401 406.967 235.427Z" fill="#263238"/>
<path d="M402.873 270.071C402.873 270.071 413.969 272.635 429.318 266.224C429.318 266.224 422.71 280.464 401.85 275.397L402.873 270.071Z" fill="#EB996E"/>
<path d="M407.175 242.64C407.829 242.038 408.622 241.611 409.484 241.395C410.345 241.18 411.247 241.184 412.107 241.407C412.741 241.563 413.338 241.845 413.863 242.234C414.388 242.623 414.83 243.113 415.164 243.675C415.484 244.217 415.629 244.844 415.578 245.471C415.527 246.098 415.284 246.694 414.88 247.177C414.338 247.635 413.671 247.919 412.965 247.991C412.259 248.064 411.547 247.922 410.923 247.583C409.614 246.902 408.457 245.962 407.52 244.822C407.219 244.543 406.976 244.208 406.805 243.835C406.72 243.659 406.691 243.46 406.721 243.266C406.752 243.072 406.842 242.892 406.978 242.751" fill="#EB996E"/>
<path d="M415.251 238.694C414.782 238.595 414.314 241.763 411.281 243.625C408.248 245.487 404.919 244.636 404.833 245.08C404.759 245.277 405.499 245.807 406.917 246.054C408.766 246.346 410.66 245.98 412.267 245.018C413.809 244.091 414.932 242.601 415.399 240.863C415.707 239.544 415.473 238.706 415.251 238.694Z" fill="#263238"/>
<path d="M419.06 212.151C419.233 212.99 422.204 213.039 425.558 213.951C428.911 214.864 431.562 216.195 432.116 215.554C432.363 215.246 431.993 214.432 430.994 213.495C429.641 212.337 428.042 211.502 426.318 211.053C424.595 210.605 422.791 210.554 421.045 210.906C419.689 211.227 418.999 211.757 419.06 212.151Z" fill="#263238"/>
<path d="M394.058 207.035C394.465 207.775 396.585 207.381 398.99 207.701C401.394 208.022 403.391 208.786 403.921 208.17C404.18 207.861 403.921 207.146 403.144 206.394C402.054 205.465 400.712 204.882 399.289 204.719C397.866 204.557 396.427 204.822 395.155 205.482C394.255 206.037 393.873 206.678 394.058 207.035Z" fill="#263238"/>
<path d="M384.763 202.091C388.326 207.528 399.643 204.162 406.473 200.427C410.041 202.703 414.356 203.497 418.5 202.64C422.645 201.784 426.291 199.344 428.665 195.841C432.573 200.772 440.525 199.169 443.459 193.56C446.393 187.95 444.692 180.22 440.747 175.314C436.801 170.407 430.958 167.917 425.213 166.869C411.59 164.403 396.758 169.63 388.609 181.946C384.849 187.63 382.593 195.286 384.824 202.091" fill="#263238"/>
<path d="M422.415 168.804C422.415 169.05 419.197 168.434 414.143 169.272C407.577 170.364 401.559 173.603 397.031 178.482C392.768 183.589 389.95 189.745 388.869 196.309C388.494 199.045 388.35 201.808 388.438 204.569C388.175 203.856 388.021 203.108 387.982 202.35C387.766 200.299 387.799 198.229 388.08 196.186C388.974 189.367 391.807 182.948 396.242 177.693C400.929 172.617 407.244 169.341 414.093 168.434C416.137 168.159 418.206 168.126 420.258 168.335C420.997 168.38 421.724 168.538 422.415 168.804Z" fill="#455A64"/>
<path d="M403.996 194.151C403.792 193.527 403.701 192.872 403.724 192.216C403.66 190.427 403.847 188.639 404.279 186.902C404.939 183.99 406.187 181.243 407.948 178.832C409.709 176.42 411.945 174.394 414.518 172.879C417.091 171.364 419.947 170.391 422.91 170.021C425.873 169.651 428.88 169.891 431.747 170.727C433.478 171.201 435.136 171.906 436.679 172.823C437.273 173.132 437.804 173.55 438.244 174.056C436.094 173.038 433.858 172.213 431.562 171.59C425.979 170.168 420.059 171.01 415.094 173.934C410.129 176.857 406.521 181.625 405.056 187.198C403.848 191.316 404.23 194.151 403.996 194.151Z" fill="#455A64"/>
<path d="M436.678 188.232C435.342 193.058 434.572 198.023 434.385 203.027C434.201 208.058 435.765 212.998 438.811 217.007C443.57 222.74 451.51 224.491 458.833 225.884C462.75 216.111 463.931 205.456 462.248 195.062C461.409 190.02 459.782 184.879 456.231 181.205C453.592 178.601 450.162 176.946 446.481 176.5C442.8 176.054 439.075 176.841 435.889 178.739" fill="#263238"/>
<path d="M440.746 212.102C438.823 216.269 438.959 221.089 439.624 225.663C440.29 230.237 441.449 234.712 441.4 239.298C441.35 243.885 439.895 248.754 436.296 251.627C435.204 252.355 434.181 253.18 433.238 254.093C432.773 254.556 432.462 255.151 432.347 255.797C432.232 256.444 432.32 257.11 432.597 257.705C433.287 258.814 435.371 258.79 435.667 257.52L435.482 257.84C435.3 258.148 435.202 258.497 435.199 258.854C435.195 259.211 435.285 259.562 435.459 259.873C435.634 260.184 435.888 260.444 436.195 260.626C436.502 260.808 436.851 260.906 437.208 260.91C438.468 260.85 439.702 260.532 440.834 259.977C441.966 259.421 442.973 258.64 443.791 257.68C446.146 254.956 447.083 251.294 447.699 247.817C449.598 236.931 449.228 225.626 452.236 215.011" fill="#263238"/>
<path d="M398.941 283.594C399.79 287.303 401.427 290.785 403.741 293.805C406.055 296.825 408.991 299.311 412.351 301.096C415.711 302.88 419.416 303.921 423.213 304.147C427.011 304.374 430.813 303.78 434.361 302.407C440.747 299.942 445.901 295.134 450.869 290.436C451.758 295.784 451.513 301.258 450.15 306.505C448.788 311.751 446.337 316.653 442.958 320.891C439.578 325.129 435.346 328.61 430.535 331.107C425.723 333.604 420.441 335.062 415.03 335.386C406.856 335.879 398.078 333.389 392.937 327.015C389.35 322.577 387.907 316.696 388.006 310.988C388.255 305.271 389.343 299.622 391.236 294.221C392.691 289.561 394.996 284.358 399.705 283.064" fill="#EBEBEB"/>
<path d="M457.428 226.206C462.359 228.856 464.997 234.404 465.947 239.878C466.896 245.352 466.415 250.974 466.649 256.509C466.884 262.045 467.944 267.864 471.457 272.167C475.156 276.753 481.012 278.923 486.252 281.721C497.742 287.886 507.21 298.402 510.662 311.002C514.114 323.601 510.983 338.124 501.551 347.186C492.921 355.397 480.47 358.281 468.585 358.281C460.115 358.281 450.807 356.457 445.518 349.836C440.229 343.216 440.587 333.933 442.436 325.771C444.285 317.61 447.676 309.682 447.811 301.311C446.546 306.494 444.339 311.399 441.302 315.785C440.426 317.018 438.935 318.374 437.603 317.659C436.272 316.944 436.679 314.638 437.369 313.097C447.577 290.376 444.026 244.575 450.08 219.487" fill="#263238"/>
<path d="M449.02 223.63C449.328 223.531 461.249 221.275 459.708 233.061C458.167 244.847 446.665 240.877 446.689 240.544C446.714 240.212 449.02 223.63 449.02 223.63Z" fill="#FFBE9D"/>
<path d="M450.868 236.55C450.868 236.55 451.053 236.71 451.386 236.92C451.846 237.191 452.394 237.275 452.914 237.154C454.221 236.858 455.528 235.009 455.861 232.901C456.016 231.892 455.949 230.861 455.664 229.88C455.601 229.497 455.446 229.135 455.212 228.826C454.978 228.516 454.672 228.269 454.32 228.105C454.098 228.027 453.857 228.024 453.634 228.098C453.411 228.171 453.218 228.317 453.087 228.512C452.89 228.82 452.927 229.067 452.865 229.079C452.803 229.091 452.643 228.845 452.791 228.376C452.896 228.092 453.097 227.852 453.358 227.698C453.542 227.588 453.746 227.517 453.958 227.489C454.17 227.462 454.386 227.478 454.591 227.538C455.063 227.697 455.486 227.975 455.82 228.344C456.155 228.713 456.389 229.161 456.502 229.646C456.867 230.733 456.964 231.892 456.785 233.024C456.403 235.391 454.899 237.45 453.087 237.721C452.759 237.774 452.423 237.751 452.105 237.655C451.786 237.559 451.494 237.392 451.25 237.166C450.855 236.834 450.831 236.562 450.868 236.55Z" fill="#EB996E"/>
<path d="M386.76 308.992C387.338 307.734 388.006 306.519 388.757 305.355C390.475 302.511 391.9 299.5 393.01 296.368C394.089 293.233 394.451 289.897 394.071 286.604C393.831 285.252 393.518 283.915 393.134 282.597C393.366 282.897 393.545 283.235 393.664 283.596C394.066 284.54 394.356 285.529 394.527 286.542C395.045 289.907 394.736 293.347 393.627 296.565C392.508 299.744 391.005 302.775 389.152 305.59C388.461 306.675 387.919 307.538 387.462 308.117C387.006 308.696 386.797 309.017 386.76 308.992Z" fill="#263238"/>
<path d="M392.763 295.394C392.591 295.394 392.258 294.383 391.197 293.681C390.137 292.978 389.077 292.978 389.052 292.793C389.028 292.608 389.311 292.583 389.792 292.571C390.429 292.577 391.049 292.779 391.567 293.15C392.089 293.515 392.492 294.025 392.726 294.618C392.886 295.074 392.849 295.37 392.763 295.394Z" fill="#FAFAFA"/>
<path d="M400.383 295.37C399.46 294.332 398.445 293.379 397.351 292.522C396.136 291.843 394.856 291.289 393.529 290.87C394.263 290.769 395.01 290.816 395.726 291.008C396.442 291.201 397.112 291.536 397.696 291.992C398.999 292.724 399.963 293.936 400.383 295.37Z" fill="#FAFAFA"/>
<path d="M405.167 320.384C405.196 318.684 405.436 316.994 405.882 315.354C406.12 313.66 406.572 312.003 407.226 310.422C407.198 312.126 406.957 313.82 406.511 315.464C406.272 317.154 405.82 318.807 405.167 320.384Z" fill="#FAFAFA"/>
<path d="M424.398 324.156C424.09 320.617 424.202 317.054 424.731 313.541C425.056 317.08 424.944 320.645 424.398 324.156Z" fill="#FAFAFA"/>
<path d="M31.724 378.945L12.7134 461.731L52.9167 461.855L71.4835 389.055L31.724 378.945Z" fill="#B78876"/>
<path d="M229.154 277.235C225.332 272.118 220.943 267.199 218.933 261.134C217.959 258.199 217.577 255.093 216.542 252.183C215.506 249.274 213.62 246.438 210.735 245.341C207.85 244.244 205.655 245.341 203.781 247.412L189.986 287.763L197.938 318.757C205.877 316.97 215.814 314.849 223.236 311.508C230.658 308.167 235.564 302.816 236.082 294.692C236.44 288.318 232.975 282.363 229.154 277.235Z" fill="#263238"/>
<path d="M103.611 270.108C103.611 270.108 55.6533 290.98 49.6617 300.399C43.67 309.818 23.9443 376.972 23.9443 376.972L74.4913 391.766L73.6283 461.681H197.53L196.507 338.396L180.973 270.268C180.973 270.268 153.616 268.505 151.076 267.26C148.537 266.015 103.611 270.108 103.611 270.108Z" fill="#EBEBEB"/>
<path d="M274.041 99.2226C274.436 96.3994 272.451 93.2926 273.881 90.8146C274.827 89.5375 276.179 88.6202 277.715 88.2133C278.46 87.873 279.264 87.6844 280.082 87.6585C280.49 87.6519 280.891 87.7652 281.235 87.9844C281.579 88.2036 281.851 88.5189 282.018 88.8913C282.107 89.3628 282.065 89.8496 281.898 90.2993C281.731 90.7489 281.444 91.1445 281.069 91.4433C280.317 92.0337 279.686 92.7617 279.207 93.5885C278.872 95.6178 279.029 97.6978 279.663 99.6542C281.306 103.959 282.669 108.365 283.744 112.846" fill="#B78876"/>
<path d="M263.92 100.184C264.093 95.9055 267.619 79.0524 267.742 74.7744C270.639 75.6621 272.316 78.7442 272.859 81.7277C273.401 84.7112 273.118 87.781 273.635 90.7645C274.326 94.7713 276.409 98.3836 278.505 101.86C280.601 105.337 282.795 108.875 283.745 112.82C284.694 116.765 288.269 127.023 285.483 129.982" fill="#B78876"/>
<path d="M263.119 129.032L245.97 210.499C245.366 214.198 180.974 270.354 180.974 270.354L193.684 321.135L277.518 239.113C283.572 232.642 286.866 224.068 286.703 215.208L285.273 138.772L263.119 129.032Z" fill="#B78876"/>
<path d="M260.184 100.702L263.119 129.057L285.31 138.822C285.31 138.822 285.581 136.812 286.543 126.986C287.591 116.162 275.953 111.514 270.762 103.562C268.543 100.147 269.123 93.8594 267.409 86.0678C267.212 85.1678 265.979 79.7186 265.313 76.7967C264.963 75.173 264.011 73.7417 262.65 72.7899C261.639 72.1242 260.505 71.7913 259.679 72.7899C258.853 73.7885 260.184 100.702 260.184 100.702Z" fill="#B78876"/>
<path d="M274.042 133.743C276.508 131.61 277.099 127.788 276.175 124.62C275.043 121.5 273.256 118.658 270.935 116.286C268.617 113.919 266.668 111.218 265.153 108.272C264.216 106.151 263.772 103.809 262.687 101.726C261.602 99.642 259.766 97.7311 257.448 97.6448C259.309 109.369 259.26 116.138 263.07 128.984" fill="#B78876"/>
<path d="M259.753 111.033C259.753 111.033 259.667 110.712 259.531 110.096C259.396 109.479 259.161 108.456 258.939 107.408C258.409 104.942 257.707 101.798 256.979 98.1862L256.905 97.841H257.263C258.022 97.8133 258.778 97.9363 259.49 98.203C260.201 98.4696 260.852 98.8745 261.405 99.3944C263.098 101.005 264.303 103.06 264.882 105.324C265.374 107.084 266.021 108.796 266.817 110.441C267.421 111.521 268.149 112.526 268.987 113.437C269.293 113.786 269.543 114.181 269.727 114.608C269.389 114.295 269.076 113.957 268.79 113.597C267.872 112.73 267.076 111.743 266.423 110.663C265.552 109.013 264.842 107.283 264.302 105.497C263.729 103.346 262.578 101.394 260.974 99.8505C259.974 98.9122 258.646 98.4032 257.275 98.4327L257.571 98.0629C259.063 105.485 260.024 111.045 259.753 111.033Z" fill="#7C5142"/>
<path d="M269.726 103.82C268.831 100.006 268.148 96.1458 267.679 92.2563C266.995 88.3975 266.521 84.504 266.262 80.5935C267.163 84.4104 267.846 88.2755 268.308 92.17C268.993 96.0248 269.466 99.914 269.726 103.82Z" fill="#7C5142"/>
<path d="M276.791 104.781C276.791 104.781 276.877 104.904 276.951 105.212H276.766C275.849 102.575 275.1 99.8818 274.522 97.1496C273.992 94.7702 273.61 92.6004 273.376 90.9854C273.185 90.1405 273.111 89.2737 273.154 88.4087C273.339 88.4087 274.091 92.2429 275.151 97.0387C276.002 100.873 276.791 104.103 276.951 105.188H276.766C276.754 104.929 276.754 104.781 276.791 104.781Z" fill="#7C5142"/>
<path d="M281.167 120.402C281.069 120.402 280.625 119.761 279.737 118.812C277.392 116.32 274.209 114.784 270.799 114.497C270.086 114.503 269.373 114.458 268.666 114.361C269.348 114.097 270.081 113.987 270.811 114.041C272.588 114.063 274.338 114.476 275.938 115.249C277.538 116.022 278.949 117.138 280.07 118.516C280.575 119.053 280.95 119.698 281.167 120.402Z" fill="#7C5142"/>
<path d="M265.128 131.276C264.518 130.216 264.026 129.091 263.661 127.923C262.647 125.157 261.799 122.333 261.121 119.466C260.431 116.623 259.913 113.741 259.568 110.836C259.366 109.614 259.292 108.374 259.346 107.137C259.655 108.315 259.878 109.514 260.011 110.725C260.381 112.932 260.948 115.989 261.737 119.355C262.527 122.72 263.414 125.667 264.092 127.812C264.517 128.941 264.863 130.099 265.128 131.276Z" fill="#7C5142"/>
<path d="M165.919 271.822C167.018 270.14 168.722 268.945 170.678 268.486C172.634 268.027 174.691 268.338 176.423 269.356C185.472 261.959 194.731 254.784 203.78 247.424C200.822 262.218 198.849 282.843 205.469 296.38C205.469 296.38 213.816 311.889 227.106 309.522L215.246 321.136L196.544 338.482" fill="#EBEBEB"/>
<path d="M162.986 278.726C163 276.741 163.605 274.805 164.725 273.166C165.67 271.415 167.111 269.983 168.867 269.048C166.081 271.694 164.052 275.035 162.986 278.726Z" fill="#263238"/>
<path d="M172.763 287.849C172.25 287.027 171.898 286.115 171.727 285.161C171.195 282.875 171.132 280.504 171.541 278.193C171.95 275.881 172.823 273.676 174.107 271.711C174.597 270.87 175.241 270.13 176.005 269.529C176.092 269.603 175.377 270.441 174.501 271.995C173.363 273.96 172.574 276.108 172.171 278.344C171.785 280.583 171.785 282.872 172.171 285.112C172.479 286.715 172.862 287.75 172.763 287.849Z" fill="#263238"/>
<path d="M218.057 319.507C217.148 320.073 216.153 320.489 215.111 320.74C212.263 321.427 209.283 321.337 206.481 320.481C202.331 319.163 198.701 316.576 196.1 313.084C192.977 308.802 190.869 303.865 189.936 298.647C188.195 289.252 187.697 279.669 188.457 270.144C188.74 266.445 189.147 263.56 189.492 261.514C189.653 260.503 189.8 259.726 189.911 259.196C189.95 258.923 190.016 258.654 190.109 258.395C190.117 258.672 190.092 258.949 190.035 259.221L189.739 261.551C189.48 263.573 189.135 266.482 188.913 270.181C188.282 279.664 188.837 289.19 190.565 298.536C191.488 303.619 193.53 308.432 196.544 312.628C199.037 316.084 202.551 318.671 206.592 320.025C209.32 320.904 212.23 321.061 215.037 320.481C216.064 320.224 217.074 319.899 218.057 319.507Z" fill="#FAFAFA"/>
<path d="M74.7253 412.577C74.5527 412.577 74.4048 395.046 74.4048 373.434C74.4048 351.822 74.5527 334.291 74.7253 334.291C74.8979 334.291 75.0459 351.809 75.0459 373.434C75.0459 395.058 74.9103 412.577 74.7253 412.577Z" fill="#263238"/>
<path d="M73.7394 320.765C73.6038 320.765 73.6408 319.014 73.0367 316.29C72.6768 314.698 72.1606 313.145 71.4956 311.654C70.6671 309.841 69.6462 308.121 68.4505 306.525C67.2215 304.952 65.8288 303.514 64.2957 302.235C63.0335 301.203 61.6753 300.295 60.2397 299.523C57.7739 298.228 56.0603 297.797 56.0973 297.674C56.5181 297.695 56.9334 297.778 57.3301 297.92C57.7974 298.037 58.2549 298.189 58.6986 298.376C59.3034 298.585 59.8925 298.836 60.4616 299.128C61.9426 299.853 63.3399 300.738 64.6286 301.767C66.2113 303.059 67.646 304.523 68.9066 306.131C70.137 307.767 71.1715 309.543 71.9887 311.42C72.6602 312.955 73.1604 314.559 73.4805 316.203C73.607 316.83 73.6935 317.464 73.7394 318.102C73.797 318.581 73.8218 319.062 73.8134 319.544C73.8358 319.953 73.8109 320.362 73.7394 320.765Z" fill="#263238"/>
<path d="M158.179 269.565C158.281 269.907 158.351 270.258 158.388 270.613C158.554 271.612 158.661 272.621 158.709 273.633C158.856 277.374 158.334 281.11 157.168 284.667C155.43 289.971 152.351 294.736 148.229 298.5C143.06 303.018 136.567 305.743 129.721 306.267C122.875 306.791 116.043 305.087 110.245 301.409C105.611 298.308 101.856 294.061 99.3469 289.081C97.666 285.738 96.5931 282.123 96.1784 278.404C96.0782 277.397 96.033 276.384 96.0428 275.371C96.0131 275.019 96.0131 274.664 96.0428 274.311C96.1007 274.657 96.1295 275.008 96.1291 275.359C96.1607 276.365 96.243 277.369 96.3757 278.367C96.8807 282.032 98.0063 285.584 99.7044 288.871C102.22 293.751 105.942 297.906 110.517 300.941C116.209 304.52 122.9 306.18 129.606 305.676C136.312 305.173 142.679 302.532 147.773 298.142C151.85 294.456 154.915 289.788 156.675 284.581C157.856 281.075 158.439 277.395 158.401 273.695C158.401 272.388 158.29 271.377 158.191 270.687C158.092 269.996 158.166 269.577 158.179 269.565Z" fill="#263238"/>
<path d="M73.6658 376.529C73.6658 376.701 63.4208 373.484 50.9197 369.354C38.4185 365.224 28.3215 361.735 28.3831 361.562C28.4447 361.389 38.6158 364.607 51.1292 368.737C63.6427 372.867 73.7151 376.356 73.6658 376.529Z" fill="#FAFAFA"/>
<path d="M195.311 359.416C195.311 359.6 168.126 359.859 134.593 359.995C101.059 360.131 73.8623 360.106 73.8623 359.995C73.8623 359.884 101.047 359.551 134.593 359.416C168.139 359.28 195.311 359.243 195.311 359.416Z" fill="#FAFAFA"/>
<path d="M195.927 370.155C195.927 370.327 168.595 370.475 134.901 370.475C101.207 370.475 73.8623 370.327 73.8623 370.155C73.8623 369.982 101.182 369.834 134.901 369.834C168.619 369.834 195.927 369.97 195.927 370.155Z" fill="#FAFAFA"/>
<path d="M179.185 383.198C179.102 383.541 178.986 383.876 178.84 384.197C178.569 384.887 178.199 385.824 177.743 387.008L176.929 389.03C176.609 389.769 176.227 390.546 175.832 391.397C175.018 393.073 174.18 395.021 173.009 397.068L171.234 400.298C170.617 401.42 169.877 402.529 169.162 403.713C167.757 406.092 166.031 408.484 164.231 411.036C160.228 416.459 155.818 421.569 151.039 426.323C146.193 431.011 140.996 435.322 135.493 439.219C132.904 440.945 130.475 442.634 128.096 443.99C126.863 444.681 125.778 445.396 124.644 446L121.34 447.701C119.281 448.823 117.308 449.637 115.619 450.413C114.769 450.783 113.98 451.153 113.24 451.461L111.194 452.238L108.37 453.286C108.045 453.426 107.706 453.533 107.359 453.607C107.667 453.432 107.989 453.284 108.321 453.163L111.107 452.004L113.117 451.178C113.857 450.857 114.633 450.475 115.472 450.081C117.148 449.279 119.096 448.441 121.13 447.294L124.373 445.568C125.495 444.952 126.617 444.224 127.8 443.534C130.179 442.166 132.584 440.464 135.197 438.738C146.179 430.99 155.837 421.519 163.799 410.691C165.587 408.164 167.325 405.759 168.731 403.429C169.458 402.258 170.21 401.161 170.839 400.051L172.627 396.846C173.859 394.836 174.686 392.901 175.524 391.236C175.931 390.398 176.338 389.634 176.67 388.906C177.003 388.179 177.274 387.513 177.533 386.909C178.039 385.75 178.446 384.838 178.766 384.148C178.89 383.824 179.03 383.507 179.185 383.198Z" fill="#263238"/>
<g opacity="0.3">
<path d="M174.181 393.873C165.896 403.958 157.217 411.269 145.049 415.978C139.217 418.222 133.115 419.763 127.468 422.439C121.822 425.114 116.496 429.145 113.907 434.853C111.947 439.267 112.896 445.949 117.606 446.911C119.435 447.135 121.291 446.849 122.968 446.085C147.071 437.344 162.913 415.263 174.107 393.873" fill="black"/>
</g>
<path d="M87.9662 174.525C82.7635 178.606 82.4183 186.237 82.6772 192.845C82.9361 199.453 83.0101 206.974 78.1896 211.535C74.2445 215.296 67.3405 216.689 66.2063 222.027C65.9192 223.285 66.034 224.601 66.5345 225.79C67.0349 226.979 67.8958 227.981 68.9959 228.655C70.0959 229.329 71.3797 229.641 72.6664 229.546C73.953 229.452 75.1776 228.957 76.1678 228.13C74.4911 232.309 75.2555 237.66 78.8184 240.458C82.3813 243.257 88.6073 241.925 89.9141 237.635C89.7121 238.345 89.6564 239.088 89.7503 239.82C89.8442 240.552 90.0859 241.257 90.4605 241.893C90.8352 242.529 91.3351 243.082 91.9299 243.519C92.5248 243.955 93.2021 244.267 93.9209 244.434C94.6397 244.601 95.3849 244.621 96.1114 244.491C96.8379 244.362 97.5306 244.086 98.1473 243.681C98.7641 243.275 99.2921 242.749 99.6994 242.134C100.107 241.518 100.385 240.827 100.517 240.101" fill="#263238"/>
<path d="M163.467 222.374C163.715 223.24 164.138 224.045 164.711 224.741C165.283 225.436 165.993 226.007 166.795 226.416C167.597 226.826 168.475 227.067 169.374 227.123C170.273 227.179 171.174 227.05 172.021 226.743C172.868 226.437 173.643 225.959 174.298 225.34C174.952 224.722 175.473 223.975 175.827 223.147C176.181 222.319 176.361 221.426 176.355 220.525C176.35 219.625 176.159 218.735 175.796 217.911C174.772 215.346 172.097 213.411 172.035 210.661C171.875 207.333 175.376 205.126 178.446 203.831C181.516 202.537 185.116 200.811 185.597 197.519C186.078 194.228 183.328 191.7 181.035 189.444C178.742 187.188 176.535 183.761 178.15 180.974C178.976 179.557 180.616 178.792 181.676 177.547C184.068 174.785 183.106 170.15 180.345 167.795C177.583 165.44 173.626 164.898 170.014 165.329C166.401 165.761 162.949 167.117 159.411 167.992C153.544 169.409 147.446 169.592 141.505 168.531C135.563 167.47 129.906 165.187 124.891 161.828" fill="#263238"/>
<path d="M91.5051 199.946L104.191 273.474C104.717 276.551 105.846 279.494 107.515 282.133C109.183 284.771 111.357 287.054 113.911 288.849C116.466 290.643 119.35 291.915 122.399 292.589C125.447 293.264 128.598 293.329 131.671 292.78C137.495 291.737 142.716 288.552 146.308 283.851C149.899 279.151 151.601 273.276 151.077 267.383C150.497 260.861 150.004 255.462 150.004 255.462C150.004 255.462 168.423 250.727 166.832 232.037C166.056 222.988 162.961 204.483 159.953 187.766C158.393 179.113 153.633 171.365 146.62 166.063C139.607 160.76 130.855 158.293 122.105 159.151L120.305 159.324C115.719 160.042 111.324 161.672 107.379 164.117C103.434 166.562 100.018 169.772 97.3338 173.558C94.6495 177.345 92.7508 181.63 91.7497 186.163C90.7486 190.695 90.6654 195.381 91.5051 199.946Z" fill="#B78876"/>
<path d="M156.021 199.835C156.101 200.531 155.904 201.23 155.473 201.782C155.041 202.333 154.41 202.693 153.715 202.782C153.379 202.844 153.033 202.837 152.699 202.762C152.366 202.688 152.05 202.547 151.772 202.348C151.493 202.149 151.258 201.896 151.079 201.604C150.901 201.312 150.783 200.988 150.732 200.649C150.652 199.954 150.849 199.254 151.28 198.703C151.712 198.151 152.343 197.792 153.037 197.703C153.374 197.641 153.719 197.648 154.053 197.722C154.387 197.797 154.703 197.938 154.981 198.137C155.259 198.336 155.495 198.589 155.674 198.881C155.852 199.172 155.97 199.497 156.021 199.835Z" fill="#263238"/>
<path d="M156.834 197.283C156.538 197.653 154.368 196.358 151.495 196.642C148.623 196.926 146.65 198.578 146.305 198.257C146.145 198.109 146.416 197.456 147.267 196.691C148.428 195.706 149.867 195.107 151.384 194.978C152.878 194.829 154.379 195.157 155.675 195.915C156.624 196.506 156.981 197.11 156.834 197.283Z" fill="#263238"/>
<path d="M127.911 203.126C127.981 203.821 127.779 204.515 127.346 205.062C126.914 205.61 126.285 205.968 125.593 206.06C125.257 206.12 124.912 206.112 124.579 206.037C124.245 205.962 123.931 205.821 123.653 205.622C123.375 205.423 123.139 205.171 122.96 204.88C122.781 204.589 122.662 204.265 122.61 203.928C122.536 203.233 122.735 202.537 123.166 201.987C123.596 201.437 124.223 201.076 124.915 200.981C125.253 200.921 125.6 200.93 125.934 201.006C126.269 201.081 126.585 201.224 126.865 201.423C127.144 201.623 127.38 201.877 127.56 202.169C127.739 202.462 127.859 202.787 127.911 203.126Z" fill="#263238"/>
<path d="M128.638 200.563C128.342 200.945 126.173 199.651 123.3 199.934C120.427 200.218 118.467 201.87 118.11 201.549C117.949 201.401 118.221 200.748 119.071 199.984C120.235 199.002 121.673 198.404 123.189 198.27C124.683 198.115 126.186 198.443 127.479 199.207C128.429 199.799 128.737 200.403 128.638 200.563Z" fill="#263238"/>
<path d="M141.152 220.868C141.152 220.695 142.878 220.214 145.726 219.561C146.454 219.413 147.144 219.203 147.218 218.686C147.197 217.925 146.953 217.188 146.515 216.565L143.791 211.19C140.006 203.522 137.195 197.197 137.503 197.049C137.811 196.901 141.128 202.991 144.9 210.61L147.526 216.035C148.073 216.873 148.304 217.878 148.18 218.871C148.106 219.147 147.968 219.403 147.777 219.617C147.587 219.831 147.349 219.998 147.082 220.103C146.684 220.249 146.27 220.348 145.85 220.399C144.309 220.746 142.731 220.903 141.152 220.868Z" fill="#263238"/>
<path d="M128.281 189.22C128.072 190.034 125.175 189.935 121.846 190.675C118.517 191.414 115.867 192.598 115.361 191.907C115.127 191.599 115.521 190.81 116.594 189.947C117.963 188.866 119.568 188.122 121.279 187.777C122.985 187.402 124.756 187.44 126.444 187.888C127.69 188.295 128.368 188.85 128.281 189.22Z" fill="#263238"/>
<path d="M154.971 189.062C154.527 189.765 152.505 189.284 150.04 189.481C147.574 189.678 145.688 190.356 145.108 189.715C144.874 189.407 145.108 188.717 145.947 188.014C147.051 187.141 148.4 186.632 149.805 186.559C151.206 186.445 152.607 186.772 153.812 187.496C154.811 188.088 155.156 188.729 154.971 189.062Z" fill="#263238"/>
<path d="M109.801 177.459L109.702 177.557C106.955 180.194 105.33 183.788 105.165 187.593C105.165 187.728 105.165 187.864 105.165 187.975C104.956 193.387 105.609 198.799 105.35 204.199C105.091 209.599 103.772 215.196 100.185 219.252C98.7175 220.917 95.9559 222.236 94.4519 220.596C93.9285 219.906 93.6121 219.08 93.5395 218.217C91.2957 205.445 86.6602 194.361 85.3781 180.886C85.1941 179.084 85.4439 177.264 86.1066 175.579C86.7693 173.893 87.8257 172.39 89.1876 171.196C91.8012 168.89 95.0436 166.462 98.323 167.645C101.602 168.829 106.226 174.29 108.901 176.534" fill="#263238"/>
<path d="M98.6308 207.787C98.2979 207.688 85.4146 205.247 87.0666 217.982C88.7187 230.718 101.17 226.44 101.146 226.07C101.121 225.7 98.6308 207.787 98.6308 207.787Z" fill="#B78876"/>
<path d="M96.6831 221.756C96.6831 221.756 96.4858 221.941 96.1283 222.15C95.8835 222.3 95.6116 222.4 95.3281 222.444C95.0446 222.489 94.7552 222.477 94.4763 222.409C93.0708 222.089 91.6531 220.091 91.2955 217.811C91.1205 216.72 91.1921 215.603 91.5051 214.544C91.5753 214.13 91.7442 213.739 91.9974 213.404C92.2507 213.069 92.5808 212.801 92.9599 212.62C93.2059 212.524 93.4778 212.515 93.7294 212.596C93.981 212.677 94.1969 212.842 94.3407 213.064C94.5626 213.397 94.5133 213.668 94.5873 213.681C94.6612 213.693 94.8338 213.434 94.6612 212.916C94.5497 212.608 94.3366 212.347 94.0571 212.177C93.6811 211.97 93.2407 211.912 92.8243 212.016C92.3135 212.189 91.8552 212.489 91.4928 212.888C91.1304 213.287 90.8758 213.772 90.7531 214.297C90.3525 215.487 90.2467 216.756 90.4449 217.996C90.864 220.548 92.4914 222.779 94.4023 223.075C94.7573 223.133 95.1208 223.108 95.4649 223.003C95.809 222.899 96.1245 222.716 96.3872 222.471C96.6831 222.064 96.6831 221.768 96.6831 221.756Z" fill="#7C5142"/>
<path d="M98.0633 169.668C94.3648 164.86 102.329 156.674 108.444 154.072C114.559 151.471 123.177 153.727 129.661 155.194C133.742 156.131 137.872 157.574 141.99 156.994C144.751 156.442 147.414 155.483 149.892 154.146C152.368 152.788 155.095 151.949 157.906 151.681C159.314 151.573 160.724 151.853 161.985 152.49C163.245 153.127 164.307 154.096 165.057 155.293C166.363 157.759 165.192 161.457 162.455 162.135C163.297 161.556 164.267 161.19 165.281 161.068C166.296 160.946 167.325 161.073 168.28 161.436C169.235 161.8 170.087 162.39 170.764 163.156C171.44 163.921 171.921 164.84 172.164 165.832C172.407 166.825 172.406 167.861 172.16 168.853C171.915 169.845 171.432 170.762 170.753 171.526C170.075 172.29 169.221 172.878 168.265 173.24C167.31 173.601 166.28 173.725 165.266 173.601C166.955 172.047 169.963 174.057 169.963 176.338C169.963 178.618 168.052 180.492 166.055 181.614C160.951 184.474 154.664 184.327 148.968 183.007C143.272 181.688 137.872 179.309 132.201 177.829C126.53 176.35 117.025 173.687 111.723 176.165C107.828 177.977 105.485 183.118 103.093 182.329C101.962 181.86 100.956 181.131 100.157 180.201C99.3585 179.272 98.7891 178.168 98.4948 176.979C97.9441 174.587 97.7858 172.122 98.0263 169.68" fill="#263238"/>
<path d="M98.7915 209.969C98.9504 216.74 99.7262 223.483 101.109 230.114C102.491 236.767 105.648 242.923 110.245 247.928C116.409 254.253 124.497 260.257 133.25 261.749C142.804 263.327 154.492 261.33 162.271 255.584C165.97 252.86 168.645 246.955 167.498 242.492C169.064 241.753 170.404 240.609 171.38 239.178C172.355 237.748 172.931 236.082 173.046 234.355C173.244 230.903 171.135 226.588 168.411 226.132C170.457 225.786 171.049 222.532 170.272 220.695C169.496 218.858 166.796 218.303 164.749 218.698C162.726 219.227 160.845 220.195 159.238 221.533C157.641 222.873 155.839 223.947 153.9 224.714C147.292 226.859 140.598 221.015 133.657 221.299C127.381 221.545 121.797 226.76 115.571 225.885C113.842 225.556 112.203 224.866 110.758 223.862C109.314 222.857 108.097 221.559 107.187 220.054C105.264 217.107 106.102 206.221 105.35 202.794" fill="#263238"/>
<g opacity="0.6">
<path d="M149.153 239.322C148.633 239.201 148.122 239.044 147.624 238.854C146.416 238.509 145.146 238.446 143.91 238.67C142.674 238.895 141.507 239.4 140.498 240.148C139.709 240.715 139.265 241.172 139.265 241.11C139.265 241.048 139.512 240.506 140.264 239.877C141.276 238.986 142.513 238.388 143.841 238.149C145.169 237.91 146.537 238.039 147.796 238.521C148.709 238.829 149.19 239.261 149.153 239.322Z" fill="#455A64"/>
</g>
<path d="M135.654 225.159C136.122 225.085 136.431 228.204 139.352 230.09C142.274 231.976 145.517 231.385 145.591 231.816C145.652 232.001 144.913 232.494 143.507 232.667C141.686 232.881 139.848 232.444 138.317 231.434C136.851 230.455 135.824 228.942 135.457 227.218C135.173 225.96 135.444 225.159 135.654 225.159Z" fill="white"/>
<path d="M126.383 259.665C126.662 259.728 126.931 259.828 127.184 259.961C127.714 260.158 128.491 260.429 129.514 260.713C132.414 261.497 135.39 261.964 138.391 262.106C140.446 262.227 142.507 262.186 144.555 261.983C146.917 261.771 149.252 261.317 151.521 260.627C154.026 259.878 156.416 258.787 158.622 257.384C161.021 255.937 163.115 254.036 164.786 251.787C166.772 249.139 167.655 245.826 167.252 242.541V242.282L167.474 242.183C169.007 241.47 170.335 240.38 171.333 239.015C171.817 238.37 172.23 237.676 172.566 236.943C172.86 236.232 173.043 235.479 173.108 234.712C173.242 233.323 173.044 231.922 172.529 230.625C172.015 229.328 171.199 228.172 170.149 227.253L169.964 227.105L170.112 226.92C170.668 226.215 171.031 225.376 171.165 224.488C171.299 223.6 171.2 222.692 170.876 221.853C170.623 221.218 170.24 220.642 169.752 220.162C169.264 219.682 168.681 219.309 168.041 219.067C167.224 218.741 166.339 218.618 165.464 218.71C164.86 218.784 164.564 218.894 164.552 218.857C164.837 218.722 165.14 218.631 165.452 218.586C166.623 218.397 167.824 218.6 168.868 219.164C169.911 219.728 170.739 220.622 171.222 221.705C171.587 222.609 171.711 223.593 171.581 224.559C171.451 225.525 171.072 226.441 170.482 227.216V226.883C171.608 227.845 172.489 229.061 173.051 230.431C173.612 231.802 173.839 233.286 173.712 234.761C173.649 235.608 173.453 236.44 173.133 237.227C172.775 238 172.341 238.735 171.838 239.421C170.789 240.885 169.379 242.053 167.745 242.812L167.93 242.442C168.425 245.894 167.539 249.403 165.464 252.206C163.744 254.521 161.587 256.477 159.115 257.964C156.864 259.396 154.419 260.496 151.854 261.231C149.544 261.925 147.168 262.371 144.765 262.562C142.676 262.728 140.578 262.728 138.489 262.562C135.465 262.373 132.474 261.831 129.576 260.947C128.79 260.703 128.02 260.411 127.27 260.072C126.961 259.968 126.663 259.832 126.383 259.665Z" fill="#455A64"/>
<path d="M70.4975 227.131C70.2615 227.066 70.0398 226.957 69.844 226.81C69.2886 226.394 68.8613 225.83 68.6112 225.183C68.1946 224.141 68.1043 222.997 68.3523 221.903C68.7413 220.455 69.6106 219.181 70.818 218.291C72.2364 217.222 73.8185 216.389 75.5028 215.825C77.3904 215.232 79.2155 214.456 80.9521 213.508C82.7794 212.351 84.2113 210.665 85.0575 208.675C85.9856 206.533 86.48 204.228 86.5122 201.894C86.6109 197.074 85.5013 192.5 85.378 188.246C85.2547 183.993 85.9944 180.023 87.93 177.36C89.3797 175.226 91.5808 173.716 94.0943 173.132C94.7759 172.996 95.474 172.963 96.1655 173.033C96.4068 173.061 96.6457 173.106 96.8805 173.169C95.9671 173.125 95.0519 173.195 94.1559 173.378C91.7332 174.018 89.631 175.528 88.2506 177.619C86.4506 180.208 85.6985 184.055 85.9204 188.222C86.1424 192.389 87.1533 196.963 87.1533 201.919C87.102 204.342 86.5698 206.73 85.5876 208.946C84.6812 211.046 83.154 212.819 81.2109 214.025C79.4269 214.991 77.5469 215.768 75.6015 216.343C73.9651 216.861 72.4212 217.635 71.0276 218.636C69.8828 219.447 69.0445 220.619 68.6482 221.965C68.3795 222.991 68.4268 224.073 68.7838 225.072C69.1088 225.93 69.7121 226.655 70.4975 227.131Z" fill="#455A64"/>
<path d="M162.924 161.924C163.099 161.818 163.285 161.731 163.479 161.665C163.713 161.561 163.957 161.478 164.206 161.419C164.541 161.32 164.883 161.25 165.23 161.209C166.38 161.084 167.544 161.222 168.633 161.613C169.723 162.004 170.709 162.637 171.517 163.465C172.325 164.55 172.911 165.784 173.239 167.096C173.567 168.408 173.631 169.772 173.428 171.109C173.186 172.767 172.614 174.361 171.746 175.794C170.878 177.228 169.731 178.473 168.373 179.455C165.247 181.731 161.512 183.019 157.647 183.154C153.458 183.319 149.267 182.87 145.208 181.822C138.759 180.24 132.641 177.531 127.134 173.821C124.78 172.203 122.308 170.765 119.737 169.519C117.486 168.477 115.062 167.858 112.587 167.694C108.981 167.445 105.371 168.115 102.095 169.642C99.7896 170.727 98.6924 171.664 98.6431 171.59C99.6556 170.718 100.779 169.984 101.984 169.408C105.279 167.778 108.941 167.03 112.611 167.238C115.167 167.369 117.675 167.975 120.008 169.025C122.616 170.269 125.126 171.707 127.516 173.328C132.984 176.965 139.041 179.626 145.418 181.194C149.414 182.243 153.542 182.708 157.672 182.575C161.419 182.443 165.043 181.208 168.09 179.024C169.398 178.089 170.507 176.903 171.353 175.536C172.2 174.169 172.767 172.647 173.021 171.06C173.238 169.775 173.199 168.459 172.905 167.19C172.611 165.92 172.068 164.721 171.307 163.663C170.543 162.861 169.61 162.238 168.576 161.84C167.542 161.441 166.433 161.276 165.328 161.357C164.513 161.484 163.71 161.674 162.924 161.924Z" fill="#455A64"/>
<path d="M156.39 151.064C156.389 152.035 156.191 152.995 155.81 153.887C154.741 156.34 152.884 158.367 150.534 159.645C148.947 160.568 147.205 161.195 145.393 161.494C143.316 161.797 141.206 161.797 139.13 161.494C134.729 160.939 130.179 159.213 125.396 157.722C120.612 156.23 115.792 155.342 111.551 156.255C107.793 157.075 104.389 159.06 101.824 161.926C100.076 163.837 98.7377 166.086 97.8909 168.534C97.3238 170.284 97.2128 171.308 97.1388 171.295C97.1087 171.05 97.1087 170.801 97.1388 170.556C97.2375 169.846 97.39 169.146 97.595 168.46C98.3608 165.928 99.6693 163.593 101.429 161.617C104.02 158.624 107.503 156.541 111.366 155.675C115.755 154.701 120.711 155.601 125.519 157.105C130.327 158.609 134.84 160.335 139.142 160.902C141.166 161.198 143.221 161.198 145.245 160.902C147.003 160.637 148.698 160.056 150.25 159.189C152.548 157.983 154.394 156.068 155.514 153.727C155.877 152.864 156.169 151.974 156.39 151.064Z" fill="#455A64"/>
<path d="M249.704 73.0319C249.593 73.1675 242.664 67.5334 234.219 60.4445C225.774 53.3556 219.03 47.4379 219.154 47.3516C219.277 47.2653 226.193 52.8501 234.638 59.9513C243.083 67.0526 249.827 72.8963 249.704 73.0319Z" fill="#263238"/>
<path d="M284.865 64.5868C284.692 64.5868 283.989 53.639 283.311 40.1146C282.633 26.5902 282.214 15.6178 282.387 15.6055C282.559 15.5932 283.262 26.5532 283.952 40.0899C284.643 53.6267 285.037 64.5868 284.865 64.5868Z" fill="#263238"/>
<path d="M262.476 56.7582C262.304 56.7582 260.146 50.5939 257.643 42.7899C255.141 34.986 253.254 28.6861 253.427 28.6368C253.6 28.5875 255.757 34.801 258.26 42.5927C260.762 50.3843 262.636 56.7088 262.476 56.7582Z" fill="#263238"/>
<path d="M242.516 84.5958C239.27 83.4537 236.096 82.1157 233.011 80.589C229.836 79.2505 226.748 77.7147 223.765 75.9905C227.011 77.1326 230.185 78.4706 233.27 79.9973C236.444 81.3386 239.532 82.8744 242.516 84.5958Z" fill="#263238"/>
<path d="M210.105 70.4306C210.105 70.6032 209.057 70.6278 207.812 70.4306C206.567 70.2333 205.58 70.0114 205.605 69.8388C205.63 69.6662 206.653 69.6415 207.886 69.8388C209.119 70.0361 210.105 70.258 210.105 70.4306Z" fill="#263238"/>
<path d="M254.228 20.6713C254.043 20.6713 253.908 19.6727 253.908 18.4275C253.908 17.1823 254.043 16.1714 254.228 16.1714C254.413 16.1714 254.549 17.1823 254.549 18.4275C254.549 19.6727 254.401 20.6713 254.228 20.6713Z" fill="#263238"/>
<path d="M328.459 38.0798C328.595 38.2031 322.899 44.7249 315.761 52.6521C308.623 60.5794 302.729 66.9162 302.569 66.793C302.409 66.6697 308.129 60.1602 315.268 52.2206C322.406 44.2811 328.336 37.9689 328.459 38.0798Z" fill="#263238"/>
<path d="M337.52 29.1169C337.644 29.2402 336.99 30.1032 336.053 31.0401C335.116 31.9771 334.266 32.6182 334.142 32.4949C334.019 32.3716 334.673 31.5086 335.609 30.584C336.546 29.6594 337.397 28.9443 337.52 29.1169Z" fill="#263238"/>
<path d="M359.49 60.6797C358.961 61.0605 358.4 61.3947 357.813 61.6783C356.716 62.2824 355.113 63.1331 353.116 64.144C349.109 66.1659 343.5 68.8042 337.188 71.4302C330.875 74.0562 325.044 76.152 320.778 77.5944C318.658 78.2972 316.932 78.8273 315.724 79.1848C315.112 79.4069 314.48 79.568 313.837 79.6656C314.421 79.3772 315.027 79.138 315.65 78.9506L320.581 77.1629C324.797 75.6465 330.58 73.4644 336.892 70.8754C343.204 68.2864 348.813 65.6851 352.919 63.7742L357.702 61.5057C358.277 61.1866 358.875 60.9105 359.49 60.6797Z" fill="#263238"/>
<path d="M341.465 91.0298C340.412 91.499 339.313 91.8584 338.186 92.1024C336.139 92.6695 333.254 93.3352 330.074 93.89C326.893 94.4448 323.909 94.753 321.826 94.9009C320.685 95.0462 319.532 95.0669 318.386 94.9626C319.506 94.7046 320.643 94.5315 321.789 94.4448C323.885 94.1859 326.782 93.7914 329.963 93.2119C333.144 92.6325 336.016 92.0777 338.087 91.6339C339.192 91.329 340.323 91.1267 341.465 91.0298Z" fill="#263238"/>
<path d="M357.85 87.9976C355.502 88.425 353.097 88.425 350.749 87.9976C353.097 87.5701 355.502 87.5701 357.85 87.9976Z" fill="#263238"/>
</svg>
