<svg width="379" height="250" viewBox="0 0 379 250" fill="none" xmlns="http://www.w3.org/2000/svg">
<path d="M159.123 60.2025L163.12 51.5132C160.299 44.3856 160.245 36.4606 162.97 29.2956C165.695 22.1307 171.001 16.2438 177.845 12.7917C184.689 9.33968 192.577 8.57212 199.959 10.6399C207.34 12.7076 213.681 17.4612 217.736 23.9664C221.791 30.4717 223.267 38.2582 221.873 45.796C220.479 53.3338 216.317 60.0778 210.203 64.7027C204.09 69.3277 196.468 71.4991 188.836 70.7905C181.203 70.0818 174.111 66.5442 168.954 60.8728L159.123 60.2025Z" fill="white"/>
<path d="M158.974 60.2024H159.644L161.544 60.3017L168.83 60.7113L168.694 60.9223C168.67 60.8971 168.657 60.8638 168.657 60.8292C168.657 60.7947 168.67 60.7614 168.694 60.7361C168.719 60.7179 168.749 60.7082 168.781 60.7082C168.812 60.7082 168.842 60.7179 168.867 60.7361C172.302 64.4648 176.604 67.2876 181.392 68.9537C188.038 71.2194 195.258 71.1537 201.862 68.7675C206.11 67.228 209.961 64.7606 213.135 61.545C216.309 58.3293 218.726 54.4463 220.21 50.1787C221.694 45.9111 222.207 41.3662 221.713 36.8751C221.219 32.3839 219.73 28.0594 217.353 24.2165L216.348 22.64L215.206 21.1629C214.431 20.1979 213.602 19.2778 212.723 18.4071C210.979 16.7116 209.037 15.2321 206.939 14.0005C203.021 11.6707 198.626 10.2612 194.085 9.87848C189.543 9.49571 184.974 10.1496 180.722 11.7909C176.943 13.2232 173.485 15.3909 170.549 18.1686C167.613 20.9462 165.257 24.2787 163.618 27.9729C161.978 31.6672 161.088 35.65 160.998 39.6907C160.909 43.7314 161.621 47.7497 163.095 51.5131V51.6248L160.066 58.0176L159.272 59.681C159.086 60.0658 158.974 60.2644 158.974 60.2644C158.974 60.2644 159.049 60.0906 159.198 59.7183C159.347 59.3459 159.62 58.7624 159.93 58.0549C160.6 56.5405 161.581 54.3309 162.835 51.5007V51.6124C160.906 46.7428 160.241 41.4642 160.902 36.2685C161.563 31.0727 163.529 26.1288 166.615 21.8973C169.702 17.6657 173.809 14.2843 178.555 12.0679C183.301 9.85146 188.53 8.87222 193.756 9.22138C198.548 9.58579 203.193 11.0422 207.336 13.4791C209.483 14.7432 211.471 16.2601 213.257 17.9975C214.136 18.8903 214.965 19.831 215.74 20.8153L216.906 22.3297L217.937 23.9434C220.35 27.8687 221.86 32.2821 222.355 36.8634C222.85 41.4446 222.319 46.0787 220.8 50.429C219.281 54.7794 216.812 58.7369 213.573 62.0141C210.334 65.2913 206.405 67.8061 202.073 69.3757C196.306 71.4739 190.043 71.7984 184.09 70.3074C178.137 68.8164 172.766 65.5781 168.669 61.0092L168.905 60.8478C168.928 60.8731 168.941 60.9064 168.941 60.941C168.941 60.9755 168.928 61.0088 168.905 61.034H168.818L161.457 60.4382L159.595 60.2768L158.974 60.2024Z" fill="#263238"/>
<path d="M184.546 40.4777C184.546 41.1946 184.333 41.8954 183.935 42.4914C183.537 43.0875 182.97 43.5521 182.308 43.8264C181.646 44.1008 180.917 44.1725 180.214 44.0327C179.511 43.8928 178.865 43.5476 178.358 43.0407C177.851 42.5338 177.506 41.8879 177.366 41.1848C177.226 40.4817 177.298 39.7529 177.572 39.0906C177.847 38.4283 178.311 37.8622 178.907 37.4639C179.503 37.0656 180.204 36.853 180.921 36.853C181.882 36.853 182.804 37.2349 183.484 37.9147C184.164 38.5944 184.546 39.5164 184.546 40.4777Z" fill="#263238"/>
<path d="M195.978 40.4777C195.98 41.1981 195.769 41.903 195.37 42.503C194.971 43.103 194.403 43.5711 193.738 43.8479C193.073 44.1247 192.341 44.1978 191.634 44.0579C190.927 43.9179 190.278 43.5713 189.769 43.0619C189.259 42.5525 188.913 41.9033 188.773 41.1966C188.633 40.4899 188.706 39.7576 188.983 39.0925C189.26 38.4274 189.728 37.8595 190.328 37.4608C190.928 37.0621 191.633 36.8506 192.353 36.853C193.314 36.853 194.236 37.2349 194.916 37.9147C195.596 38.5944 195.978 39.5164 195.978 40.4777Z" fill="#263238"/>
<path d="M207.397 40.4777C207.397 41.1946 207.185 41.8954 206.786 42.4914C206.388 43.0875 205.822 43.5521 205.16 43.8264C204.497 44.1008 203.769 44.1725 203.065 44.0327C202.362 43.8928 201.717 43.5476 201.21 43.0407C200.703 42.5338 200.357 41.8879 200.218 41.1848C200.078 40.4817 200.15 39.7529 200.424 39.0906C200.698 38.4283 201.163 37.8622 201.759 37.4639C202.355 37.0656 203.056 36.853 203.773 36.853C204.734 36.853 205.656 37.2349 206.336 37.9147C207.015 38.5944 207.397 39.5164 207.397 40.4777Z" fill="#263238"/>
<path d="M119.886 67.2158C102.064 67.2126 84.6354 72.4532 69.7707 82.2848C54.906 92.1164 43.2627 106.104 36.2912 122.506C29.3197 138.908 27.3283 156.998 30.565 174.524C33.8017 192.049 42.1234 208.235 54.4935 221.065L44.4885 249.615C44.4885 249.615 63.94 242.093 75.7573 237.413C87.8796 244.158 101.386 248.036 115.239 248.75C129.093 249.464 142.927 246.996 155.678 241.534C168.43 236.072 179.761 227.762 188.802 217.241C197.843 206.72 204.355 194.267 207.836 180.839C211.318 167.411 211.678 153.364 208.888 139.775C206.097 126.186 200.232 113.417 191.741 102.448C183.249 91.4777 172.358 82.5986 159.903 76.4914C147.447 70.3842 133.758 67.2112 119.886 67.2158Z" fill="#E0E0E0"/>
<path d="M119.886 67.0298C119.886 67.0298 120.42 67.0298 121.45 67.0298C122.481 67.0298 124.032 67.0298 126.056 67.1787C131.96 67.5159 137.813 68.4644 143.521 70.009C147.647 71.1124 151.691 72.5019 155.624 74.1674C160.302 76.1644 164.803 78.552 169.08 81.305C179.541 88.0304 188.528 96.8102 195.495 107.112C199.511 113.111 202.819 119.555 205.351 126.315C208.043 133.666 209.79 141.328 210.552 149.118C212.218 166.407 208.919 183.812 201.044 199.292C198.964 203.41 196.557 207.354 193.844 211.085C180.811 229.232 161.562 241.955 139.758 246.833C117.955 251.711 95.1189 248.402 75.5961 237.537H75.8691L44.6003 249.752L43.9672 250L44.1907 249.355L54.1957 220.804L54.2702 221.127C44.3329 210.822 36.9682 198.317 32.775 184.629C28.5819 170.941 27.6787 156.456 30.1389 142.353C34.0373 119.977 46.1599 99.8675 64.1263 85.9723C67.6563 83.2105 71.391 80.7207 75.2981 78.5244C76.2043 77.9782 77.1353 77.5065 78.0415 77.0472C78.9476 76.5879 79.8414 76.1038 80.7475 75.6942C82.5599 74.8998 84.2729 74.0432 86.0107 73.4102C91.8495 71.0717 97.9207 69.3614 104.122 68.3083L105.959 67.9856L107.709 67.7622C108.839 67.6256 109.894 67.4767 110.862 67.3898C112.836 67.2656 114.487 67.0918 115.827 67.067H118.868C119.551 67.067 119.899 67.067 119.899 67.067H118.868L115.84 67.1787C114.499 67.1787 112.848 67.4022 110.874 67.5387C109.894 67.638 108.851 67.7994 107.721 67.936L105.984 68.1718L104.146 68.507C97.9708 69.6011 91.926 71.3359 86.11 73.6833C84.3846 74.3287 82.6716 75.1853 80.8717 75.9797C79.9779 76.4017 79.0966 76.8859 78.1904 77.3451C77.2843 77.8044 76.3284 78.2886 75.4719 78.8223C71.5647 81.0184 67.83 83.5082 64.3 86.2702C54.2649 94.0698 45.9828 103.893 39.9916 115.102C34.0004 126.311 30.4342 138.655 29.5246 151.332C28.615 164.009 30.3824 176.736 34.7119 188.686C39.0414 200.635 45.8362 211.54 54.655 220.693L54.7791 220.829V221.015L44.8486 249.566L44.4389 249.156L75.6954 236.954H75.8443L75.9685 237.028C95.3586 247.806 118.031 251.087 139.681 246.249C161.331 241.412 180.451 228.792 193.41 210.787C196.11 207.081 198.505 203.162 200.572 199.069C206.251 187.93 209.571 175.74 210.322 163.26C211.074 150.779 209.242 138.278 204.942 126.539C202.415 119.794 199.12 113.363 195.123 107.373C185.327 92.8512 171.583 81.4333 155.512 74.4653C151.593 72.8005 147.567 71.4029 143.459 70.282C137.781 68.7138 131.958 67.7281 126.081 67.3401C124.07 67.1291 122.518 67.1787 121.488 67.1167C120.457 67.0546 119.886 67.0298 119.886 67.0298Z" fill="#263238"/>
<path d="M110.079 39.9687L111.32 39.8322C117.169 39.1781 123.049 40.7497 127.792 44.2343C132.535 47.7189 135.792 52.8612 136.916 58.6382C139.076 69.81 141.323 82.1239 141.881 88.1567C143.122 100.669 130.846 104.008 130.846 104.008L131.566 109.085C131.849 111.076 131.737 113.102 131.234 115.049C130.732 116.996 129.85 118.824 128.639 120.429C127.427 122.033 125.911 123.383 124.177 124.399C122.442 125.416 120.524 126.079 118.532 126.352C114.555 126.903 110.522 125.863 107.307 123.457C104.093 121.052 101.957 117.475 101.364 113.504L94.4006 67.2281C91.8311 54.3805 97.1688 42.1783 110.079 39.9687Z" fill="#FFBF9D"/>
<path d="M130.945 103.984C125.146 104.631 119.282 103.602 114.051 101.017C114.051 101.017 118.904 109.582 131.243 107.062L130.945 103.984Z" fill="#FF9A6C"/>
<path d="M134.807 70.4683C134.867 70.9335 134.742 71.4038 134.459 71.7777C134.176 72.1515 133.757 72.3991 133.293 72.4668C133.067 72.5115 132.835 72.5104 132.61 72.4636C132.386 72.4167 132.172 72.3252 131.984 72.1943C131.795 72.0634 131.634 71.896 131.512 71.7018C131.389 71.5077 131.307 71.2908 131.269 71.0642C131.212 70.5995 131.338 70.1309 131.621 69.7578C131.904 69.3847 132.321 69.1364 132.784 69.0656C133.009 69.0227 133.24 69.0251 133.465 69.0727C133.689 69.1202 133.901 69.212 134.09 69.3426C134.278 69.4732 134.438 69.64 134.562 69.8333C134.685 70.0265 134.768 70.2424 134.807 70.4683Z" fill="#263238"/>
<path d="M134.881 65.0434C134.683 65.3041 133.218 64.46 131.294 64.671C129.37 64.882 128.079 66.0116 127.843 65.8006C127.607 65.5896 127.843 65.2669 128.476 64.7455C129.237 64.0601 130.191 63.6265 131.207 63.5042C132.206 63.3943 133.214 63.6028 134.087 64.1C134.732 64.5345 134.968 64.9317 134.881 65.0434Z" fill="#263238"/>
<path d="M117.415 72.7526C117.468 73.2171 117.339 73.6842 117.054 74.0549C116.769 74.4256 116.351 74.6708 115.888 74.7387C115.664 74.7815 115.433 74.779 115.209 74.7313C114.986 74.6836 114.774 74.5917 114.587 74.461C114.4 74.3303 114.24 74.1635 114.118 73.9703C113.996 73.7771 113.914 73.5614 113.877 73.336C113.82 72.8728 113.947 72.4057 114.23 72.0346C114.513 71.6635 114.93 71.4178 115.391 71.3499C115.617 71.3035 115.849 71.3033 116.075 71.3493C116.301 71.3954 116.514 71.4868 116.704 71.6179C116.893 71.7491 117.053 71.9173 117.176 72.1123C117.298 72.3074 117.379 72.5252 117.415 72.7526Z" fill="#263238"/>
<path d="M116.05 67.5136C115.851 67.7743 114.386 66.9302 112.475 67.1412C110.563 67.3523 109.247 68.4819 109.012 68.2708C108.776 68.0598 109.012 67.7371 109.645 67.2157C110.407 66.5337 111.36 66.1006 112.375 65.9744C113.374 65.8645 114.382 66.073 115.255 66.5702C115.901 67.0047 116.149 67.4019 116.05 67.5136Z" fill="#263238"/>
<path d="M124.604 80.9698C125.582 80.5487 126.607 80.2445 127.657 80.0636C128.154 79.9519 128.601 79.8029 128.65 79.4678C128.63 78.9532 128.457 78.4563 128.154 78.0403L126.292 74.4777C123.685 69.3883 121.736 65.1802 121.935 65.0809C122.133 64.9816 124.417 69.0159 127.037 74.1053C127.67 75.3466 128.278 76.5879 128.849 77.7051C129.224 78.2631 129.387 78.9367 129.308 79.6043C129.257 79.7844 129.165 79.9505 129.041 80.0903C128.916 80.23 128.761 80.3397 128.588 80.4112C128.325 80.5112 128.049 80.578 127.769 80.6098C126.734 80.8653 125.67 80.9862 124.604 80.9698Z" fill="#263238"/>
<path d="M115.702 59.9418C115.566 60.488 113.629 60.4507 111.408 60.9721C109.186 61.4934 107.435 62.3127 107.075 61.8782C106.926 61.6672 107.187 61.1459 107.857 60.5624C108.766 59.8308 109.831 59.3172 110.969 59.0611C112.107 58.8051 113.289 58.8133 114.424 59.0853C115.293 59.3211 115.752 59.6811 115.702 59.9418Z" fill="#263238"/>
<path d="M133.552 59.5695C133.254 60.0412 131.889 59.7433 130.287 59.8923C128.686 60.0412 127.395 60.5129 127.023 60.1033C126.874 59.8923 127.023 59.433 127.569 58.9488C128.307 58.3677 129.2 58.0176 130.137 57.9425C131.073 57.8674 132.011 58.0707 132.832 58.5268C133.428 58.9613 133.676 59.3461 133.552 59.5695Z" fill="#263238"/>
<path d="M135.03 53.04C135.03 53.04 130.859 45.5921 126.887 44.1894C122.071 42.4888 120.68 47.7148 116.187 46.9948C111.693 46.2748 107.1 44.6239 103.029 48.4844C98.5726 52.7173 101.142 55.0385 101.465 60.6245C102.706 83.2289 99.367 90.0437 97.0085 79.5918C96.7602 78.4374 93.4335 77.8788 92.4032 73.0377C91.075 66.7566 89.9206 59.0604 90.8888 54.4179C91.6584 50.4953 93.5328 47.6154 97.0954 44.2887C102.719 39.0379 111.135 37.9952 116.956 37.9332C122.778 37.8711 134.459 43.1839 135.03 53.04Z" fill="#263238"/>
<path d="M97.7659 79.1579C97.6963 78.7007 97.5343 78.2625 97.2896 77.87C97.0449 77.4775 96.7228 77.139 96.3429 76.8753C95.9629 76.6115 95.5332 76.4281 95.08 76.3361C94.6267 76.244 94.1594 76.2454 93.7067 76.3402C91.3979 76.8243 88.9649 78.438 89.6476 83.2295C90.889 91.7449 99.1685 88.7534 99.1437 88.5051C99.1189 88.2568 98.312 82.7205 97.7659 79.1579Z" fill="#FFBF9D"/>
<path d="M96.8712 85.5377C96.8712 85.5377 96.7347 85.6618 96.4988 85.8108C96.1688 86.0142 95.7725 86.081 95.3941 85.997C94.7944 85.7254 94.2774 85.2997 93.8958 84.7633C93.5142 84.2269 93.2816 83.5989 93.2217 82.9433C93.1006 82.2156 93.1387 81.4702 93.3335 80.7586C93.3835 80.4909 93.4962 80.2389 93.6624 80.0232C93.8285 79.8074 94.0433 79.6341 94.2893 79.5173C94.4519 79.4466 94.6341 79.4352 94.8043 79.4851C94.9744 79.535 95.1216 79.643 95.2203 79.7904C95.3692 80.0138 95.3444 80.1876 95.3816 80.2C95.4189 80.2124 95.543 80.0262 95.3816 79.691C95.3025 79.4888 95.1584 79.3185 94.972 79.2069C94.7075 79.0726 94.4037 79.0373 94.1155 79.1076C93.7772 79.2271 93.4751 79.4313 93.2382 79.7008C93.0013 79.9703 92.8375 80.296 92.7625 80.6469C92.4947 81.4462 92.4349 82.3006 92.5887 83.1295C92.8866 84.8425 94.0038 86.3197 95.2823 86.4935C95.5193 86.5277 95.7609 86.5074 95.9889 86.4343C96.2169 86.3612 96.4253 86.2371 96.5981 86.0714C96.8836 85.7363 96.9085 85.5377 96.8712 85.5377Z" fill="#FF9A6C"/>
<path d="M136.346 43.6683C134.98 42.7498 133.155 42.7125 131.802 41.7815C129.32 40.0809 128.997 35.9473 126.142 35.0163C124.454 34.4577 122.629 35.3515 120.854 35.2646C117.974 35.1156 116.758 33.0178 112.413 33.2413C110.895 33.231 109.405 33.6588 108.124 34.4734C106.843 35.2881 105.823 36.4549 105.188 37.8341C104.123 37.4112 102.964 37.278 101.83 37.4481C100.697 37.6181 99.6282 38.0854 98.7336 38.8024C97.9686 39.4655 97.3521 40.2826 96.9243 41.2002C96.4965 42.1178 96.2671 43.1153 96.2509 44.1276C96.2509 44.1276 95.3323 43.7304 92.738 46.0144C91.0344 47.8722 89.8599 50.1526 89.3368 52.6182C88.5672 55.8084 90.1064 59.0359 91.6084 61.953C92.4152 63.5294 93.4083 65.2549 95.1213 65.6769C97.1943 66.2479 99.3666 64.5349 100.087 62.4743C100.807 60.4137 101.936 58.3531 102.805 56.367C104.307 52.9286 105.859 49.7136 104.332 47.6778C106.25 46.9216 108.358 46.7955 110.352 47.3178C112.351 47.8516 114.076 49.0184 116.124 49.6018C118.173 50.1853 120.581 50.0115 121.822 48.3605C122.133 48.9123 122.564 49.3868 123.083 49.7488C123.603 50.1107 124.198 50.3507 124.823 50.451C125.448 50.5512 126.088 50.509 126.694 50.3276C127.301 50.1462 127.859 49.8302 128.327 49.4032C129.163 50.6239 130.431 51.4829 131.874 51.8075C133.318 52.1322 134.831 51.8985 136.11 51.1535C138.555 49.5274 138.803 45.3069 136.346 43.6683Z" fill="#263238"/>
<path d="M90.6782 59.9912C91.1118 60.5817 91.4782 61.2187 91.7706 61.8904C92.1171 62.5706 92.6402 63.1451 93.285 63.5538C94.1257 63.9292 95.0741 63.9866 95.9538 63.7151C96.862 63.4874 97.7094 63.0637 98.4365 62.4738C99.0278 61.9679 99.5608 61.3975 100.025 60.7732C100.423 60.1533 100.871 59.5679 101.366 59.0229C101.118 59.7272 100.762 60.3888 100.311 60.9842C99.8725 61.67 99.3421 62.2924 98.7344 62.8338C97.9543 63.4913 97.0322 63.9587 96.0407 64.1992C95.0402 64.5021 93.9619 64.4133 93.0243 63.951C92.3226 63.4844 91.7708 62.8248 91.4354 62.0518C91.0979 61.3992 90.8435 60.707 90.6782 59.9912Z" fill="#455A64"/>
<path d="M91.3601 66.5832C91.9013 66.937 92.4853 67.2207 93.098 67.4273C93.7726 67.5942 94.4751 67.6153 95.1586 67.4894C95.9885 67.3197 96.7719 66.9725 97.455 66.4715C98.6997 65.4974 99.7343 64.2813 100.496 62.8965C100.796 62.301 101.158 61.7393 101.576 61.2207C101.415 61.8709 101.16 62.494 100.819 63.0703C100.112 64.5649 99.0616 65.8709 97.7529 66.8811C97.0196 67.4252 96.1696 67.7907 95.2703 67.9487C94.5222 68.0682 93.7565 68.0086 93.0359 67.7749C91.7573 67.3404 91.3105 66.5956 91.3601 66.5832Z" fill="#455A64"/>
<path d="M119.314 84.4209C119.071 85.3695 118.959 86.3466 118.979 87.3256C118.972 87.7923 119.065 88.2551 119.252 88.6832C119.438 89.1112 119.713 89.4947 120.059 89.8082C120.418 90.198 120.859 90.5028 121.351 90.7004C121.843 90.8979 122.373 90.9833 122.901 90.9502C123.851 90.892 124.749 90.4958 125.432 89.8332C126.115 89.1707 126.538 88.2856 126.625 87.338L126.849 85.1905C124.875 84.7312 119.463 84.545 119.314 84.4209Z" fill="#FF9A6C"/>
<path d="M124.913 90.2056C124.913 90.2056 124.653 90.2056 124.231 90.3173C123.635 90.4399 123.025 90.4775 122.418 90.429C121.542 90.3376 120.731 89.9214 120.147 89.2622C119.618 88.608 119.277 87.8221 119.161 86.9888C119.045 86.1556 119.158 85.3065 119.489 84.5328L119.228 84.6817C121.165 84.8679 122.865 85.0045 124.069 85.0914C124.717 85.1689 125.371 85.1689 126.018 85.0914C125.397 84.8992 124.755 84.7784 124.107 84.7314C122.865 84.57 121.214 84.359 119.278 84.1479H119.092L119.017 84.3093C118.633 85.1693 118.501 86.1207 118.638 87.0527C118.774 87.9846 119.172 88.8585 119.787 89.5725C120.463 90.3068 121.397 90.7515 122.394 90.8138C123.035 90.8361 123.674 90.7393 124.28 90.5283C124.511 90.4645 124.726 90.3547 124.913 90.2056Z" fill="#263238"/>
<path d="M71.5244 123.771C70.8169 123.771 60.6877 127.817 58.0189 137.785C55.35 147.753 48.0883 184.21 48.0883 184.21L40.3301 194.911C40.3301 194.911 42.8127 214.461 57.0631 210.737C57.0631 210.737 66.5467 212.401 69.5756 202.78C72.6044 193.16 78.4634 164.473 78.4634 164.473L71.5244 123.771Z" fill="#455A64"/>
<path d="M101.154 107.075L95.7792 115.193L71.561 123.77L78.5 193.992L75.9057 230.809C75.5581 235.7 79.6296 239.561 81.3302 239.697H158.851C160.75 239.697 163.332 234.98 163.655 232.386C163.913 230.047 163.706 227.681 163.046 225.422L159.024 211.333C159.62 220.097 157.001 159.074 156.902 156.852L162.761 125.459L135.203 114.287L130.946 107.708L118.533 117.142L101.154 107.075Z" fill="#455A64"/>
<path d="M162.723 125.459C162.723 125.459 168.272 130.325 169.203 134.036C170.134 137.748 190.057 180.921 190.057 180.921L199.988 183.602L202.632 189.077C204.191 192.237 204.611 195.839 203.819 199.273C203.027 202.707 201.073 205.762 198.287 207.92C197.945 208.179 197.588 208.42 197.219 208.64C191.869 211.818 182.249 211.693 176.651 205.09C171.338 198.883 155.809 176.303 155.809 176.303V148.696L162.723 125.459Z" fill="#455A64"/>
<path d="M190.666 180.946C189.658 181.089 188.66 181.288 187.674 181.542C185.365 182.337 183.32 183.754 181.765 185.638C180.238 187.561 178.984 189.688 178.042 191.956C177.686 192.93 177.233 193.866 176.688 194.749C176.837 193.716 177.129 192.709 177.557 191.758C178.41 189.363 179.67 187.133 181.281 185.166C182.918 183.175 185.129 181.736 187.612 181.045C188.599 180.718 189.66 180.683 190.666 180.946Z" fill="#263238"/>
<path d="M52.829 186.817L39.522 175.757L31.8755 184.334L32.8189 188.542L49.4526 204.195C51.92 202.778 53.7801 200.503 54.6785 197.803C56.3419 193.098 52.829 186.817 52.829 186.817Z" fill="#FFBF9D"/>
<path d="M39.3738 181.442C39.9405 179.635 40.0349 177.713 39.6481 175.86C39.2613 174.006 38.4062 172.283 37.1642 170.853C34.1533 167.714 30.6319 165.107 26.7495 163.145C24.4034 161.742 19.7485 156.826 18.7182 157.77C18.0973 158.328 17.7008 159.093 17.6025 159.922C17.5043 160.751 17.7112 161.588 18.1844 162.276C19.2644 164.311 24.391 166.72 24.2545 169.339C24.2388 169.596 24.1721 169.847 24.0584 170.077C23.9446 170.308 23.786 170.514 23.5919 170.682C23.3977 170.851 23.1719 170.979 22.9276 171.06C22.6834 171.14 22.4255 171.171 22.1691 171.151C22.1691 171.151 13.095 170.679 9.34624 169.91C5.59746 169.14 2.10935 169.451 2.159 170.779C2.20866 172.107 2.82932 172.914 5.88296 173.547C8.93661 174.18 14.1129 174.577 14.2867 175.322C14.4605 176.067 13.3681 176.402 11.5558 176.067C9.74346 175.732 1.1163 174.701 0.383917 175.62C0.212792 175.851 0.0947598 176.118 0.038203 176.4C-0.0183538 176.683 -0.0120472 176.974 0.0566752 177.254C0.125398 177.533 0.25485 177.794 0.435837 178.018C0.616824 178.242 0.844905 178.424 1.10388 178.549L3.04034 179.505C3.04034 179.505 1.67489 180.995 2.55623 181.988C3.43756 182.981 5.68435 182.956 5.68435 182.956L17.1417 183.962C17.1417 183.962 17.7251 184.731 17.3403 185.203C16.9555 185.675 8.09251 183.962 7.90631 184.905C7.72011 185.848 6.88843 186.246 9.4952 187.214C13.3306 188.325 17.3243 188.791 21.3126 188.592C23.7952 188.232 33.974 188.964 33.974 188.964L39.3738 181.442Z" fill="#FFBF9D"/>
<path d="M134.483 116.322C133.767 117.221 132.969 118.052 132.1 118.805C130.586 120.294 128.5 122.367 126.303 124.738L124.95 126.216L124.652 126.538L124.391 126.203C122.691 124.018 121.214 122.07 120.183 120.667C119.579 119.949 119.062 119.161 118.644 118.321C119.362 118.924 120.003 119.612 120.556 120.369C121.698 121.697 123.237 123.584 124.962 125.756H124.404L125.769 124.267C127.654 122.221 129.647 120.277 131.74 118.445C132.564 117.628 133.486 116.915 134.483 116.322Z" fill="#263238"/>
<path d="M73.1 142.39C73.2927 142.869 73.4261 143.369 73.4972 143.88C73.7082 144.848 73.9565 146.251 74.242 147.988C74.8006 151.477 75.3964 156.33 75.893 161.643C76.3895 166.956 76.7495 171.859 77.0226 175.372C77.1467 177.027 77.246 178.417 77.3205 179.543C77.3822 180.054 77.3822 180.571 77.3205 181.082C77.1543 180.592 77.0501 180.083 77.0102 179.568C76.8612 178.599 76.6874 177.184 76.4764 175.422C76.0792 171.921 75.6323 167.068 75.1358 161.705C74.6392 156.343 74.1303 151.514 73.6958 148.051C73.4972 146.437 73.3234 145.047 73.1869 143.917C73.1005 143.413 73.0714 142.901 73.1 142.39Z" fill="#263238"/>
<path d="M157.312 139.945C157.461 140.555 157.548 141.179 157.573 141.807C157.685 143.048 157.821 144.774 157.933 146.933C158.169 151.278 158.293 157.274 158.318 163.877V185.948C158.358 186.578 158.328 187.211 158.231 187.835C158.105 187.218 158.038 186.59 158.032 185.961C157.946 184.719 157.871 182.994 157.797 180.834C157.648 176.489 157.598 170.506 157.573 163.89C157.548 157.274 157.573 151.29 157.412 146.958C157.412 144.91 157.312 143.234 157.288 141.832C157.229 141.204 157.237 140.571 157.312 139.945Z" fill="#263238"/>
<path d="M62.1765 202.035C61.8438 200.812 61.595 199.568 61.4317 198.311C60.9228 195.328 59.9511 192.442 58.5518 189.759C57.1248 187.106 54.972 184.915 52.3452 183.44C51.2108 182.91 50.0412 182.458 48.8447 182.087C49.1877 182.007 49.5445 182.007 49.8874 182.087C50.8209 182.246 51.7277 182.534 52.5811 182.944C55.4015 184.346 57.7175 186.588 59.2097 189.361C60.6521 192.113 61.5817 195.103 61.9531 198.187C62.1903 199.455 62.2654 200.748 62.1765 202.035Z" fill="#263238"/>
<path d="M65.6284 187.5C65.4794 187.674 63.332 185.464 59.8563 184.31C56.3806 183.155 53.3518 183.528 53.3394 183.292C55.5622 182.634 57.9422 182.748 60.0921 183.615C63.7788 184.856 65.8022 187.425 65.6284 187.5Z" fill="#263238"/>
<path d="M120.246 237.513C120.186 237.102 120.161 236.687 120.171 236.271C120.171 235.415 120.171 234.273 120.084 232.821C120.084 229.754 119.935 225.373 119.836 220.134C119.588 209.36 119.24 194.6 118.855 178.277C118.471 161.954 118.26 147.12 118.272 136.407C118.272 131.045 118.272 126.713 118.396 123.709C118.396 122.269 118.471 121.114 118.508 120.27C118.498 119.855 118.523 119.44 118.582 119.029C118.62 119.442 118.62 119.857 118.582 120.27C118.582 121.127 118.582 122.269 118.582 123.721C118.582 126.787 118.582 131.094 118.694 136.407C118.806 147.12 119.116 161.916 119.488 178.265C119.861 194.613 120.171 209.409 120.258 220.134C120.258 225.484 120.258 229.829 120.258 232.821C120.258 234.273 120.258 235.415 120.258 236.271C120.289 236.685 120.284 237.1 120.246 237.513Z" fill="#263238"/>
<path d="M52.1837 186.32C53.0561 186.946 53.7321 187.807 54.1326 188.803C54.6616 189.841 55.0419 190.948 55.2622 192.092C55.481 193.503 55.481 194.939 55.2622 196.35C55.1071 197.781 54.6861 199.17 54.0209 200.447C53.4435 201.476 52.6519 202.369 51.6996 203.066C50.864 203.772 49.8024 204.156 48.708 204.146C49.6556 203.761 50.552 203.261 51.3768 202.656C52.2182 201.973 52.9145 201.129 53.425 200.173C54.0133 198.959 54.3911 197.654 54.5422 196.313C54.7349 194.971 54.7349 193.608 54.5422 192.266C54.3621 191.169 54.0495 190.098 53.6112 189.076C53.1817 188.134 52.7053 187.214 52.1837 186.32Z" fill="#263238"/>
<path d="M144.799 172.256C144.218 172.663 143.603 173.02 142.962 173.324C141.721 173.982 139.995 174.888 137.798 175.98C133.404 178.165 127.272 181.045 120.42 183.962C113.568 186.879 107.175 189.287 102.557 190.913C100.236 191.733 98.3615 192.366 97.0581 192.775C96.3915 193.032 95.7014 193.224 94.9976 193.346C95.6298 193.021 96.2854 192.743 96.9588 192.515L102.371 190.429C106.951 188.679 113.245 186.196 120.122 183.292C126.999 180.387 133.168 177.582 137.612 175.521L142.875 173.038C143.492 172.721 144.136 172.459 144.799 172.256Z" fill="#263238"/>
<path d="M18.978 180.325C16.3245 180.687 13.6383 180.745 10.9715 180.499C8.29294 180.484 5.62432 180.171 3.01465 179.568C3.01465 179.357 6.60206 179.568 11.0087 179.754C15.4154 179.94 18.978 180.114 18.978 180.325Z" fill="#FF9A6C"/>
<path d="M27.1337 179.717C27.1337 179.791 26.2772 179.655 25.2593 178.798C24.6033 178.227 24.0817 177.518 23.7319 176.722C23.3821 175.926 23.2128 175.062 23.236 174.193C23.321 173.278 23.4872 172.372 23.7325 171.487C23.9209 170.804 24.0129 170.097 24.0056 169.389C23.9505 168.741 23.7999 168.106 23.5587 167.502C23.5587 167.415 24.3408 167.999 24.527 169.352C24.6054 170.111 24.5635 170.877 24.4028 171.623C24.1918 172.48 24.0465 173.351 23.9684 174.23C23.9485 175.787 24.5414 177.29 25.6193 178.413C26.451 179.295 27.1834 179.605 27.1337 179.717Z" fill="#FF9A6C"/>
<path d="M117.763 117.613C117.347 119.047 116.807 120.443 116.149 121.784L115.243 123.857C114.914 124.677 114.537 125.477 114.113 126.253C113.96 126.51 113.735 126.716 113.466 126.846C113.197 126.976 112.895 127.025 112.599 126.985C112.077 126.843 111.591 126.594 111.171 126.253L108.689 124.515C105.226 122.132 102.11 119.934 99.8754 118.308C98.6225 117.499 97.4429 116.581 96.3501 115.565C97.6871 116.231 98.966 117.007 100.173 117.886C102.482 119.401 105.635 121.523 109.111 123.919L111.594 125.669C111.928 125.948 112.311 126.163 112.723 126.302C112.894 126.323 113.068 126.291 113.22 126.211C113.373 126.131 113.498 126.007 113.58 125.855C114.386 124.378 115.069 122.777 115.69 121.573C116.276 120.201 116.969 118.876 117.763 117.613Z" fill="#263238"/>
<path d="M193.012 185.687L207.25 177.284L214.115 185.687L212.687 189.759L194.341 203.413C192.078 201.545 190.566 198.922 190.083 196.028C189.152 190.901 193.012 185.687 193.012 185.687Z" fill="#FFBF9D"/>
<path d="M206.939 181.951C206.596 180.092 206.73 178.176 207.329 176.383C207.928 174.589 208.973 172.977 210.365 171.698C213.723 168.93 217.525 166.752 221.611 165.256C224.094 164.138 229.295 159.794 230.226 160.849C230.773 161.477 231.074 162.282 231.074 163.114C231.074 163.947 230.773 164.752 230.226 165.38C228.91 167.291 221.376 170.159 222.418 172.567C222.853 173.56 225.224 173.734 225.224 173.734C229.512 174.037 233.812 174.124 238.109 173.994C241.919 173.672 245.345 174.392 245.147 175.707C244.948 177.023 244.228 177.743 241.075 178.004C237.922 178.265 232.783 178.004 232.523 178.798C232.262 179.593 233.305 180.04 235.154 179.853C237.004 179.667 245.668 179.717 246.326 180.698C246.472 180.947 246.561 181.226 246.586 181.514C246.611 181.802 246.571 182.092 246.47 182.363C246.369 182.634 246.209 182.879 246.002 183.081C245.794 183.282 245.545 183.435 245.271 183.528L243.235 184.248C243.235 184.248 244.477 185.899 243.434 186.817C242.391 187.736 240.206 187.413 240.206 187.413L228.699 187.078C228.699 187.078 228.041 187.773 228.377 188.245C228.712 188.716 237.711 188.071 237.773 189.052C237.835 190.032 238.63 190.504 235.936 191.162C231.995 191.82 227.973 191.82 224.032 191.162C221.549 190.504 211.408 190.045 211.408 190.045L206.939 181.951Z" fill="#FFBF9D"/>
<path d="M196.935 204.915C196.625 204.889 196.324 204.796 196.054 204.642C195.275 204.306 194.545 203.867 193.881 203.339C191.628 201.602 190.086 199.102 189.547 196.309C189.007 193.515 189.507 190.621 190.952 188.17C191.374 187.434 191.887 186.755 192.479 186.147C192.901 185.737 193.174 185.538 193.211 185.576C193.248 185.613 192.342 186.569 191.411 188.418C190.162 190.803 189.763 193.543 190.28 196.186C190.796 198.828 192.198 201.215 194.254 202.954C195.768 204.307 196.997 204.791 196.935 204.915Z" fill="#263238"/>
<path d="M224.268 169.439C224.342 169.526 223.734 170.122 222.94 171.164C222.487 171.756 222.177 172.444 222.033 173.175C221.86 174.007 221.872 174.988 221.723 176.043C221.597 176.958 221.289 177.839 220.818 178.634C220.347 179.429 219.722 180.122 218.98 180.673C218.409 181.178 217.691 181.487 216.932 181.554C216.932 181.43 217.676 181.132 218.657 180.313C219.927 179.197 220.758 177.666 221.003 175.993C221.074 175.019 221.199 174.049 221.376 173.088C221.568 172.27 221.965 171.514 222.53 170.891C223.486 169.787 224.206 169.352 224.268 169.439Z" fill="#FF9A6C"/>
<path d="M226.316 182.671C226.316 182.46 230.152 182.671 234.844 183.006C239.536 183.341 243.335 183.875 243.322 184.086C240.471 184.214 237.614 184.098 234.782 183.739C231.935 183.626 229.103 183.269 226.316 182.671Z" fill="#FF9A6C"/>
<path d="M80.6724 239.697C80.6724 239.697 96.8095 249.504 121.636 248.684C146.462 247.865 158.813 239.697 158.813 239.697H80.6724Z" fill="#263238"/>
<path d="M353.276 166.732C369.202 149.581 378.099 127.07 378.199 103.665C378.3 80.2602 369.598 57.673 353.819 40.3858C338.041 23.0986 316.341 12.3752 293.024 10.3435C269.707 8.3118 246.479 15.1204 227.949 29.4182C209.418 43.7159 196.941 64.4577 192.992 87.5272C189.043 110.597 193.911 134.308 206.631 153.955C219.351 173.602 238.992 187.748 261.657 193.587C284.322 199.427 308.354 196.531 328.984 185.476C340.255 189.982 364.721 199.441 364.721 199.441L353.276 166.732Z" fill="#FAFAFA"/>
<path d="M353.277 166.732C353.277 166.732 353.551 167.465 354.06 168.88L356.306 175.173C358.255 180.71 361.135 188.828 364.859 199.391L364.958 199.702L364.673 199.578L328.91 185.662H329.084C317.903 191.636 305.63 195.289 293.002 196.402C280.375 197.516 267.652 196.067 255.598 192.142C250.926 190.632 246.387 188.734 242.03 186.469C237.506 184.162 233.179 181.484 229.096 178.463C220.541 172.109 213.11 164.368 207.112 155.56C197.546 141.405 192.026 124.906 191.149 107.844C190.861 101.949 191.118 96.0401 191.918 90.1925C194.636 70.4451 203.578 52.0778 217.444 37.7573C231.31 23.4369 249.38 13.9085 269.029 10.5556C288.679 7.20274 308.886 10.1998 326.716 19.1118C344.547 28.0237 359.073 42.3866 368.186 60.1154C371.634 66.7491 374.253 73.7824 375.981 81.0564C378.957 93.595 379.341 106.609 377.111 119.301C374.359 134.981 367.608 149.684 357.51 161.99C356.195 163.641 355.102 164.796 354.382 165.59L353.277 166.832L354.32 165.59C355.028 164.783 356.12 163.592 357.399 161.941C361.239 157.182 364.606 152.06 367.453 146.648C371.961 138.087 375.099 128.872 376.751 119.339C378.935 106.696 378.512 93.7408 375.509 81.2674C373.779 74.0275 371.165 67.0277 367.726 60.4257C361.898 49.1445 353.827 39.1729 344.007 31.1224C334.187 23.072 322.827 17.1126 310.621 13.6096C298.416 10.1066 285.624 9.13389 273.03 10.7512C260.436 12.3685 248.304 16.5417 237.38 23.0148C226.456 29.4879 216.97 38.1244 209.503 48.3947C202.036 58.6649 196.746 70.3524 193.957 82.7402C191.168 95.1279 190.939 107.955 193.285 120.434C195.63 132.914 200.5 144.782 207.596 155.312C213.553 164.062 220.929 171.756 229.419 178.078C233.477 181.083 237.774 183.752 242.266 186.06C246.593 188.309 251.098 190.198 255.735 191.708C267.717 195.658 280.376 197.135 292.946 196.049C305.515 194.963 317.734 191.337 328.861 185.389H328.948H329.035L364.747 199.416L364.561 199.602C360.837 189.026 358.057 180.834 356.133 175.273C355.177 172.517 354.457 170.407 353.96 168.979C353.464 167.552 353.277 166.732 353.277 166.732Z" fill="#263238"/>
<path d="M339.673 39.6466C340.755 38.7131 341.615 37.5502 342.19 36.2425C342.766 34.9347 343.042 33.5151 343 32.0869C342.752 29.2443 340.306 26.5507 337.464 26.6872C337.93 25.3605 337.985 23.9241 337.622 22.5656C337.259 21.2071 336.494 19.9897 335.428 19.0726C334.362 18.1555 333.044 17.5812 331.647 17.4249C330.249 17.2687 328.837 17.5376 327.595 18.1966C327.699 17.4185 327.555 16.6275 327.183 15.9364C326.81 15.2453 326.229 14.6896 325.522 14.3485C324.281 13.6533 319.576 13.5168 318.074 16.2105L311.11 38.8273C309.657 40.1317 308.475 41.7105 307.633 43.4732C306.791 45.2358 306.306 47.1474 306.206 49.0981C306.106 51.0488 306.392 53.0001 307.048 54.8398C307.705 56.6795 308.718 58.3713 310.03 59.818C309.168 60.9926 308.676 62.3975 308.617 63.8532C308.558 65.309 308.934 66.7493 309.698 67.9901C310.461 69.2308 311.578 70.2156 312.904 70.8185C314.23 71.4215 315.706 71.6151 317.143 71.3747C317.226 72.3678 317.522 73.3314 318.011 74.1996C318.501 75.0678 319.171 75.8202 319.978 76.4054C320.785 76.9907 321.708 77.395 322.685 77.5908C323.662 77.7865 324.67 77.7692 325.64 77.5398C326.61 77.3104 327.519 76.8745 328.305 76.2618C329.091 75.649 329.735 74.8739 330.194 73.9894C330.653 73.1048 330.916 72.1316 330.964 71.1362C331.013 70.1409 330.846 69.1467 330.475 68.2217C333.727 69.5375 337.613 67.0797 338.792 63.7654C339.971 60.4511 339.028 56.7271 337.402 53.599C338.862 53.2275 340.182 52.4375 341.199 51.326C342.217 50.2146 342.887 48.8301 343.128 47.3428C343.37 45.8554 343.171 44.33 342.557 42.9539C341.944 41.5778 340.941 40.411 339.673 39.5969V39.6466Z" fill="#263238"/>
<path d="M321.996 20.1821C325.111 21.4234 325.583 24.055 326.092 26.2398C327.209 30.9692 325.136 37.7096 322.269 41.6197C319.401 45.5299 316.422 47.4167 311.581 47.8263C311.929 40.4611 312.272 33.1043 312.611 25.7557L321.996 20.1821Z" fill="#F54545"/>
<path d="M322.927 32.9555C324.076 31.5801 324.706 29.8447 324.706 28.0523C324.706 26.2599 324.076 24.5244 322.927 23.1491C324.441 21.4857 324.168 18.7548 322.827 16.9425C321.381 15.2132 319.566 13.8303 317.514 12.8958C317.032 10.3066 315.575 8.00108 313.443 6.4539C311.312 4.90672 308.668 4.23567 306.057 4.57892C303.674 0.494977 298.051 -0.51049 293.433 0.507392C292.32 0.836315 291.167 1.00763 290.007 1.01633C289.17 0.891507 288.341 0.717422 287.524 0.49498C282.956 -0.448422 278.152 2.4935 276.054 6.70158C275.771 7.39067 275.395 8.03797 274.937 8.62562C274.212 9.28245 273.407 9.84546 272.541 10.3014C271.663 10.8887 270.921 11.6583 270.366 12.5579C269.811 13.4575 269.457 14.4661 269.326 15.5149C269.128 17.3024 269.575 19.2389 268.706 20.8154C268.271 21.6098 267.551 22.2181 267.191 23.0498C266.173 25.4455 268.731 28.1516 268.048 30.6715C267.911 31.1928 267.638 31.6521 267.464 32.161C267.075 33.1989 267.084 34.3443 267.489 35.3761C267.916 36.1026 268.202 36.9026 268.333 37.7346C268.243 38.3662 268.072 38.9837 267.824 39.5717C267.415 41.0737 270.307 47.181 271.548 48.0996L310.935 51.0912C312.462 50.8734 313.881 50.1826 314.995 49.1161C316.108 48.0495 316.859 46.6608 317.142 45.1452C317.156 44.6392 317.315 44.1478 317.601 43.7301C317.929 43.4411 318.314 43.2253 318.731 43.0971C321.35 41.8557 321.896 38.4545 321.822 35.5623C321.793 35.1452 321.831 34.7261 321.934 34.3209C322.173 33.8055 322.51 33.3417 322.927 32.9555Z" fill="#263238"/>
<path d="M311.631 32.2357C311.852 28.445 311.046 24.6648 309.299 21.2939C307.551 17.9229 304.926 15.0859 301.701 13.0821C298.634 11.3866 295.256 10.3269 291.77 9.96639C288.581 9.44264 285.308 9.90156 282.386 11.2822C280.176 11.6422 271.723 18.3825 270.779 26.2649C269.712 35.0162 268.768 45.7412 269.426 52.3326C270.767 65.6396 280.772 67.8988 280.772 67.8988L278.289 89.6839L296.636 106.938L305.921 82.1119L311.631 32.2357Z" fill="#AE7461"/>
<path d="M273.782 37.9329C273.758 38.3734 273.904 38.8064 274.191 39.1417C274.478 39.477 274.883 39.6887 275.322 39.7328C275.535 39.7605 275.753 39.7455 275.961 39.6885C276.168 39.6315 276.363 39.5338 276.533 39.401C276.703 39.2681 276.844 39.1028 276.95 38.9147C277.055 38.7266 277.122 38.5195 277.146 38.3053C277.178 37.8653 277.035 37.4306 276.75 37.0942C276.464 36.7578 276.059 36.5464 275.62 36.5054C275.405 36.4759 275.186 36.4896 274.977 36.5457C274.768 36.6019 274.572 36.6993 274.4 36.8323C274.229 36.9653 274.086 37.1312 273.98 37.3202C273.874 37.5092 273.807 37.7175 273.782 37.9329Z" fill="#263238"/>
<path d="M273.511 31.4905C273.71 31.7263 275.038 30.845 276.862 30.9567C278.687 31.0684 279.953 32.0491 280.164 31.8381C280.375 31.627 280.077 31.3415 279.519 30.8822C278.766 30.2879 277.846 29.9449 276.887 29.9016C275.943 29.8469 275.005 30.09 274.206 30.5967C273.623 30.994 273.412 31.3912 273.511 31.4905Z" fill="#263238"/>
<path d="M283.329 46.4613C282.385 46.1106 281.401 45.8772 280.4 45.7662C279.941 45.6917 279.506 45.5675 279.444 45.2448C279.439 44.7661 279.573 44.2963 279.829 43.8918C280.338 42.787 280.859 41.645 281.405 40.4285C283.603 35.4632 285.229 31.4413 285.03 31.3544C284.831 31.2676 282.883 35.1901 280.685 40.1182C280.164 41.3595 279.655 42.4891 279.171 43.6063C278.842 44.1448 278.719 44.7839 278.823 45.4062C278.88 45.5751 278.974 45.7289 279.099 45.8558C279.223 45.9828 279.375 46.0795 279.543 46.1386C279.798 46.2174 280.06 46.2673 280.325 46.2875C281.314 46.482 282.325 46.5405 283.329 46.4613Z" fill="#263238"/>
<path d="M280.773 67.911C286.993 68.3521 293.214 67.0632 298.747 64.187C298.747 64.187 293.558 73.2362 280.4 71.2501L280.773 67.911Z" fill="#6F4439"/>
<path d="M275.123 24.2911C275.396 24.7504 276.811 24.527 278.425 24.7628C280.039 24.9987 281.367 25.4952 281.752 25.1104C281.926 24.9366 281.752 24.4897 281.23 24.0056C280.492 23.4174 279.6 23.0553 278.661 22.9629C277.722 22.8337 276.766 22.9758 275.905 23.3725C275.247 23.6704 274.999 24.0677 275.123 24.2911Z" fill="#263238"/>
<path d="M293.383 39.8075C293.348 40.2488 293.142 40.6588 292.807 40.949C292.473 41.2393 292.038 41.3865 291.596 41.3591C291.38 41.3543 291.168 41.3067 290.97 41.2189C290.773 41.1311 290.596 41.005 290.448 40.8479C290.3 40.6907 290.185 40.5058 290.109 40.3037C290.033 40.1016 289.999 39.8865 290.007 39.6709C290.045 39.2308 290.253 38.8227 290.587 38.5331C290.92 38.2435 291.353 38.095 291.795 38.1193C292.01 38.124 292.223 38.1717 292.42 38.2595C292.617 38.3472 292.795 38.4734 292.943 38.6305C293.091 38.7876 293.206 38.9726 293.281 39.1747C293.357 39.3767 293.392 39.5918 293.383 39.8075Z" fill="#263238"/>
<path d="M298.349 33.6382C298.125 33.8368 296.934 32.7692 295.121 32.5955C293.309 32.4217 291.894 33.2161 291.72 32.9679C291.546 32.7196 291.881 32.4837 292.502 32.1238C293.334 31.6507 294.294 31.451 295.245 31.5527C296.188 31.6374 297.079 32.02 297.79 32.6451C298.311 33.1292 298.522 33.5513 298.349 33.6382Z" fill="#263238"/>
<path d="M298.834 26.5129C298.436 26.8853 297.083 26.3267 295.408 26.1529C293.732 25.9791 292.267 26.1529 291.982 25.6688C291.857 25.4454 292.118 25.0482 292.788 24.7254C293.68 24.315 294.672 24.1727 295.643 24.3158C296.617 24.4102 297.541 24.7903 298.3 25.4081C298.858 25.8798 299.02 26.3267 298.834 26.5129Z" fill="#263238"/>
<path d="M308.801 44.5988C308.801 43.6182 310.117 41.3714 311.098 41.2721C313.717 41.0238 318.359 41.4956 318.024 48.0745C317.577 57.0617 308.64 54.7528 308.64 54.4922C308.64 54.2315 308.59 47.9876 308.801 44.5988Z" fill="#AE7461"/>
<path d="M311.284 51.3268C311.284 51.3268 311.433 51.4509 311.694 51.5874C312.058 51.7614 312.474 51.7924 312.86 51.6743C313.459 51.3343 313.958 50.8415 314.304 50.2462C314.651 49.651 314.834 48.9744 314.834 48.2855C314.897 47.5138 314.786 46.7378 314.511 46.0139C314.439 45.7321 314.3 45.472 314.105 45.2559C313.911 45.0397 313.667 44.8739 313.394 44.7726C313.217 44.716 313.025 44.7235 312.853 44.7939C312.68 44.8642 312.538 44.9929 312.451 45.1574C312.314 45.3933 312.364 45.5795 312.314 45.5919C312.265 45.6043 312.128 45.4305 312.215 45.0705C312.28 44.8512 312.415 44.6593 312.6 44.5243C312.725 44.4331 312.869 44.3694 313.021 44.3373C313.172 44.3053 313.329 44.3055 313.481 44.3381C313.848 44.4274 314.185 44.6105 314.459 44.8695C314.733 45.1285 314.935 45.4545 315.045 45.8153C315.381 46.5974 315.521 47.4494 315.455 48.298C315.306 50.0979 314.3 51.7488 312.972 52.0219C312.726 52.0804 312.47 52.0829 312.223 52.0291C311.976 51.9754 311.744 51.8669 311.545 51.7116C311.296 51.513 311.259 51.3516 311.284 51.3268Z" fill="#6F4439"/>
<path d="M268.73 26.2645C269.642 25.8701 270.421 25.2236 270.978 24.4012C271.534 23.5788 271.844 22.6146 271.871 21.622C273.112 22.044 274.354 20.5669 275.136 19.5738C275.918 18.5808 276.787 18.0966 276.811 16.8305C276.789 16.5838 276.831 16.3353 276.936 16.1105C277.197 15.8145 277.561 15.6282 277.953 15.5892C278.929 15.3351 279.825 14.8407 280.56 14.1512C281.295 13.4616 281.846 12.5989 282.162 11.6418C284.059 12.6065 286.166 13.0842 288.294 13.0321C288.721 13.7384 289.322 14.3243 290.038 14.7345C290.755 15.1447 291.564 15.3658 292.39 15.377C293.216 15.3882 294.031 15.1891 294.758 14.7984C295.486 14.4077 296.102 13.8383 296.548 13.1438C296.815 13.7171 297.203 14.2259 297.685 14.6351C298.167 15.0444 298.732 15.3445 299.341 15.5147C300.556 15.8318 301.811 15.9698 303.065 15.9243C302.76 17.1276 302.9 18.4005 303.459 19.5089C304.018 20.6173 304.958 21.4867 306.107 21.9571C306.429 22.0813 306.789 22.193 306.913 22.5033C306.95 22.6729 306.952 22.8481 306.921 23.0186C306.889 23.1892 306.823 23.3516 306.727 23.4964C306.525 24.0032 306.428 24.5455 306.44 25.0909C306.453 25.6363 306.575 26.1736 306.8 26.6707C307.025 27.1678 307.347 27.6145 307.749 27.984C308.15 28.3536 308.622 28.6385 309.135 28.8216C308.776 29.1052 308.486 29.4663 308.287 29.878C308.087 30.2897 307.984 30.7413 307.984 31.1988C307.984 31.6563 308.087 32.1078 308.287 32.5195C308.486 32.9312 308.776 33.2924 309.135 33.5759C309.446 33.7869 309.868 34.0476 309.793 34.4324C309.753 34.5741 309.676 34.7027 309.57 34.8048C308.777 35.5942 308.226 36.5932 307.981 37.6847C307.887 38.2293 308.004 38.7892 308.309 39.2504C308.613 39.7117 309.082 40.0396 309.62 40.1673C309.296 40.3844 309.019 40.6644 308.806 40.9907C308.592 41.317 308.447 41.6829 308.378 42.0665C308.316 42.8486 309.061 43.6927 309.806 43.4568C310.128 43.3451 314.647 42.7368 314.858 42.4762C317.601 39.1743 314.634 35.1772 314.622 30.8822C314.543 26.5537 313.455 22.3033 311.444 18.469C310.649 16.8464 309.643 15.3356 308.453 13.9755C307.03 12.4929 305.443 11.177 303.723 10.0529C301.608 8.39785 299.24 7.09433 296.71 6.1924C291.931 4.76488 286.779 6.19239 282.149 8.06679C280.357 8.703 278.658 9.57549 277.097 10.6611C275.333 12.096 273.837 13.8317 272.678 15.7878C270.807 18.4981 269.518 21.5666 268.892 24.7998" fill="#263238"/>
<path d="M267.192 23.0249C267.322 22.6829 267.507 22.3643 267.739 22.0815C267.95 21.796 268.235 21.4732 268.508 21.0388C268.827 20.5386 269.035 19.9755 269.116 19.3878C269.211 18.6511 269.24 17.9076 269.203 17.1658C269.164 16.2697 269.243 15.3723 269.439 14.497C269.7 13.5119 270.161 12.5909 270.792 11.7909C271.15 11.3249 271.568 10.9076 272.034 10.5496C272.497 10.1844 272.991 9.86039 273.511 9.58139C274.045 9.29016 274.531 8.91743 274.951 8.47661C275.335 7.97396 275.652 7.42309 275.894 6.83807C277.153 4.24795 279.291 2.18915 281.927 1.0287C282.636 0.719413 283.377 0.490409 284.136 0.345969C284.922 0.200903 285.723 0.155028 286.52 0.209423C286.917 0.209423 287.314 0.321146 287.761 0.383212L288.94 0.668715C289.72 0.885701 290.536 0.936449 291.336 0.817672C292.155 0.705953 292.962 0.457689 293.819 0.308731C294.665 0.13397 295.525 0.0342753 296.388 0.0108121C297.267 -0.0218939 298.148 0.0196335 299.02 0.134947C299.906 0.270716 300.779 0.486766 301.627 0.780433C303.378 1.38504 304.897 2.52216 305.971 4.03269L306.282 4.50439L306.145 4.42991C308.792 4.08644 311.47 4.76989 313.629 6.33981C315.787 7.90974 317.263 10.2469 317.751 12.8709L317.677 12.7716C318.735 13.319 319.755 13.9369 320.731 14.6211C321.71 15.2809 322.553 16.1239 323.213 17.1038C323.83 18.0461 324.17 19.143 324.194 20.2691C324.25 21.362 323.881 22.4342 323.163 23.2607V23.1118C324.293 24.4316 324.925 26.1045 324.951 27.8412C325.01 29.404 324.576 30.9457 323.71 32.2479C323.516 32.5487 323.3 32.835 323.064 33.1044C322.827 33.3488 322.603 33.6057 322.394 33.874C322.205 34.1268 322.078 34.42 322.021 34.7305C321.997 35.0403 321.997 35.3517 322.021 35.6615C322.057 36.803 321.957 37.9447 321.724 39.0627C321.537 39.9489 321.183 40.7915 320.681 41.5454C320.297 42.1128 319.787 42.5842 319.191 42.9232C318.72 43.1963 318.297 43.2956 318.062 43.4446C317.934 43.5146 317.817 43.6024 317.714 43.7052C317.801 43.5894 317.911 43.4923 318.037 43.4198C318.273 43.2584 318.695 43.1467 319.166 42.8612C319.739 42.5196 320.227 42.0527 320.594 41.4957C321.079 40.737 321.42 39.8954 321.599 39.0131C321.819 37.9018 321.907 36.7685 321.86 35.6367C321.836 35.3185 321.836 34.999 321.86 34.6809C321.916 34.3433 322.053 34.0241 322.257 33.7499C322.467 33.4739 322.691 33.2088 322.928 32.9554C323.166 32.6999 323.378 32.4213 323.561 32.1237C324.374 30.8431 324.777 29.3446 324.715 27.8288C324.68 26.1394 324.056 24.5151 322.952 23.2359L322.89 23.149L322.952 23.0745C323.632 22.2985 323.98 21.2866 323.921 20.2567C323.89 19.1719 323.564 18.1161 322.977 17.2031C322.335 16.2733 321.527 15.4696 320.594 14.8322C319.585 14.1618 318.531 13.5605 317.441 13.0323C316.956 10.4814 315.516 8.21178 313.414 6.68689C311.312 5.162 308.708 4.49681 306.133 4.82713H305.971V4.75266L305.673 4.30578C304.636 2.83898 303.164 1.73585 301.465 1.15283C300.636 0.856149 299.78 0.644044 298.908 0.519753C298.053 0.400047 297.189 0.354366 296.326 0.383212C295.491 0.409646 294.661 0.509332 293.844 0.681126C293.012 0.830084 292.205 1.06593 291.361 1.19007C290.948 1.2258 290.533 1.2258 290.12 1.19007C289.7 1.1589 289.284 1.08825 288.878 0.979044L287.637 0.693541C287.252 0.693541 286.867 0.544579 286.47 0.519753C285.698 0.467424 284.923 0.50911 284.161 0.643888C283.419 0.783978 282.695 1.00458 282.001 1.30179C280.663 1.87423 279.446 2.69564 278.414 3.72236C277.444 4.66207 276.649 5.76769 276.068 6.98703C275.811 7.59 275.477 8.15739 275.075 8.67522C274.639 9.12568 274.137 9.50664 273.585 9.80482C273.071 10.077 272.581 10.3926 272.12 10.7482C271.69 11.0936 271.302 11.4896 270.966 11.9275C270.335 12.7169 269.878 13.6306 269.625 14.6087C269.425 15.4708 269.341 16.3559 269.377 17.2403C269.402 17.9873 269.361 18.7351 269.253 19.4747C269.168 20.0731 268.952 20.6453 268.62 21.1505C268.322 21.5849 268.036 21.9201 267.813 22.1932C267.65 22.4027 267.501 22.6225 267.366 22.8511C267.313 22.9132 267.254 22.9713 267.192 23.0249Z" fill="#455A64"/>
<path d="M301.948 2.33203C301.948 2.33203 301.725 2.18308 301.303 1.93481C300.704 1.60259 300.054 1.37189 299.379 1.25208C298.382 1.06326 297.352 1.14908 296.4 1.50035C295.236 1.93742 294.24 2.73284 293.557 3.77197C293.353 4.08438 293.183 4.4172 293.048 4.76502C292.98 4.91298 292.945 5.07389 292.945 5.23672C292.945 5.39956 292.98 5.56046 293.048 5.70842L293.247 6.03117L292.899 5.90703C291.979 5.59241 290.972 5.65033 290.094 6.0684C289.398 6.40743 288.828 6.95971 288.468 7.64488C288.232 8.09696 288.084 8.58989 288.033 9.09723C288.033 9.45721 288.033 9.65582 288.033 9.65582C288.033 9.65582 288.033 9.65582 288.033 9.51927C288.02 9.37892 288.02 9.23757 288.033 9.09723C288.041 8.56281 288.168 8.03692 288.406 7.55799C288.766 6.82522 289.354 6.22867 290.081 5.85738C291.014 5.40163 292.088 5.33031 293.073 5.65877L292.912 5.84497C292.826 5.66232 292.782 5.46316 292.782 5.26155C292.782 5.05994 292.826 4.86078 292.912 4.67813C293.052 4.3086 293.231 3.95493 293.445 3.623C294.158 2.53646 295.203 1.70925 296.425 1.2645C297.422 0.918259 298.493 0.84539 299.528 1.05347C300.217 1.19588 300.874 1.46529 301.464 1.84792C301.625 1.94883 301.778 2.06082 301.924 2.18307C301.911 2.26997 301.961 2.31962 301.948 2.33203Z" fill="#455A64"/>
<path d="M315.901 13.5165C315.901 13.5165 315.801 13.6407 315.565 13.8269C315.237 14.0777 314.883 14.2941 314.51 14.4723C313.939 14.7411 313.317 14.8849 312.686 14.8944C311.882 14.9104 311.101 14.6222 310.501 14.0875H310.699L310.414 14.4475L310.091 14.7827C309.423 15.376 308.623 15.8015 307.758 16.024C307.053 16.2062 306.32 16.2525 305.598 16.1605C305.117 16.0891 304.65 15.9512 304.207 15.7509C304.039 15.6822 303.884 15.5857 303.748 15.4654C304.349 15.7098 304.979 15.8766 305.622 15.9619C306.319 16.0291 307.022 15.966 307.695 15.7757C308.521 15.5444 309.278 15.1188 309.905 14.5344L310.215 14.2117L310.476 13.8889L310.575 13.7648L310.687 13.8641C311.234 14.3605 311.947 14.635 312.686 14.6337C313.288 14.6378 313.884 14.5151 314.436 14.2737C315.379 13.8889 315.901 13.4793 315.901 13.5165Z" fill="#455A64"/>
<path d="M320.147 22.1312C320.147 22.1312 320.147 22.1932 320.147 22.305C320.092 22.4574 320.012 22.5999 319.911 22.727C319.538 23.1951 319.001 23.5053 318.409 23.5959C317.537 23.7024 316.652 23.5514 315.865 23.1615C315.39 22.9724 314.925 22.7569 314.474 22.516C313.951 22.2528 313.538 21.8131 313.308 21.2747V21.1257L313.519 21.2126C312.672 21.8271 311.739 22.3124 310.751 22.6525C309.947 22.9081 309.089 22.9424 308.268 22.7518C307.702 22.6246 307.18 22.3506 306.753 21.9574C306.637 21.8527 306.537 21.7314 306.456 21.5974L306.369 21.4609C306.369 21.4609 306.518 21.6222 306.828 21.8705C307.255 22.2209 307.763 22.4597 308.305 22.5656C309.131 22.7479 309.992 22.692 310.788 22.4043C311.746 22.0664 312.649 21.5896 313.469 20.9892L313.63 20.8774V21.0636V21.1878C313.853 21.6512 314.225 22.0269 314.685 22.2553C315.132 22.5036 315.604 22.7022 316.039 22.9008C316.804 23.2916 317.666 23.4553 318.521 23.3725C319.079 23.2975 319.593 23.0296 319.974 22.6153C320.047 22.4597 320.105 22.2977 320.147 22.1312Z" fill="#455A64"/>
<path d="M291.074 48.8193C288.982 49.2816 286.959 50.0117 285.054 50.9916C284.893 51.9102 286.407 53.9336 287.263 54.306C287.738 54.4836 288.247 54.5459 288.75 54.4876C289.253 54.4293 289.735 54.2522 290.156 53.9708C290.912 53.3449 291.407 52.4598 291.546 51.4882C291.59 50.5745 291.429 49.6625 291.074 48.8193Z" fill="#6F4439"/>
<path d="M287.513 54.4178C288.205 54.4111 288.89 54.2808 289.536 54.033C290.187 53.7383 290.727 53.2422 291.075 52.6179C291.489 51.8596 291.604 50.9741 291.398 50.1353C291.297 49.7351 291.125 49.3565 290.889 49.0181L291.187 49.105C289.336 49.8162 287.431 50.3766 285.489 50.7808C287.287 49.8847 289.155 49.1374 291.075 48.5464H291.261L291.373 48.7078C291.813 49.3158 292.066 50.0389 292.101 50.7884C292.136 51.538 291.952 52.2816 291.572 52.9282C291.134 53.6315 290.475 54.1687 289.697 54.4551C289.353 54.609 288.978 54.6854 288.601 54.6789C288.223 54.6725 287.852 54.5834 287.513 54.4178Z" fill="#263238"/>
<path d="M310.501 57.8935C312.091 57.8935 313.381 56.6042 313.381 55.0136C313.381 53.4231 312.091 52.1338 310.501 52.1338C308.91 52.1338 307.621 53.4231 307.621 55.0136C307.621 56.6042 308.91 57.8935 310.501 57.8935Z" fill="#455A64"/>
<path d="M206.505 116.161C206.505 116.161 200.099 108.515 198.473 105.796C197.24 103.565 195.485 101.666 193.359 100.26C190.876 98.4474 184.248 94.1525 181.902 94.5373C180.114 94.8228 173.349 92.3525 170.295 91.6202C170.022 91.5615 169.738 91.5844 169.477 91.6859C169.217 91.7874 168.992 91.9631 168.831 92.1912C168.297 93.8918 171.189 96.1882 173.337 97.0572L176.154 98.1867L177.706 104.89C177.706 104.89 175.931 112.648 177.706 114.299C179.481 115.95 179.171 115.54 181.554 116.211C183.937 116.881 192.726 117.018 192.912 117.253C193.098 117.489 198.386 125.123 198.386 125.123L206.505 116.161Z" fill="#AE7461"/>
<path d="M164.46 92.1665C164.46 92.1665 166.31 91.3596 167.899 93.8299C168.806 95.2523 169.635 96.7234 170.381 98.2366C170.58 98.3234 172.157 98.5345 172.157 98.5345L174.639 101.687L174.019 103.773C174.019 103.773 169.227 103.103 168.259 101.762C166.654 99.105 165.291 96.309 164.187 93.4078C164.026 92.4024 164.46 92.1665 164.46 92.1665Z" fill="#AE7461"/>
<path d="M181.033 110.402L180.015 108.701L181.579 106.901C181.579 106.901 184.943 108.056 186.147 106.492C187.351 104.928 186.991 104.803 186.991 104.803L182.584 103.463L185.241 102.83C185.241 102.83 188.878 104.071 189.598 101.986L189.411 100.744C187.785 100.274 186.125 99.9297 184.446 99.714C182.256 99.8021 180.073 100.005 177.904 100.322L182.435 98.9444C183.409 99.0659 184.397 98.9899 185.34 98.721C185.526 98.6558 185.695 98.5497 185.835 98.4105C185.974 98.2713 186.081 98.1025 186.146 97.9166C186.212 97.7307 186.235 97.5325 186.213 97.3365C186.192 97.1406 186.127 96.9519 186.023 96.7845C185.873 96.5335 185.647 96.3376 185.377 96.2259C184.224 95.7299 183.002 95.4158 181.753 95.2949C180.139 95.2949 174.789 96.1887 173.473 97.3928C172.157 98.5968 171.959 99.1678 172.405 100.571C172.964 101.911 173.663 103.188 174.491 104.381C174.514 105.461 174.813 106.516 175.36 107.447C175.36 107.447 174.565 110.662 177.669 114.324" fill="#AE7461"/>
<path d="M177.643 114.299C177.52 114.182 177.404 114.057 177.296 113.927C176.973 113.537 176.683 113.122 176.427 112.685C176.005 112.015 175.671 111.294 175.434 110.538C175.1 109.505 175.011 108.409 175.173 107.335V107.472C174.587 106.519 174.27 105.425 174.254 104.307V104.406C173.783 103.711 173.311 102.966 172.852 102.147C172.327 101.3 172 100.345 171.896 99.3537C171.915 98.7897 172.145 98.2535 172.541 97.8517C172.895 97.428 173.314 97.0634 173.783 96.7717C174.782 96.2695 175.842 95.8982 176.936 95.6669C178.066 95.3986 179.209 95.1914 180.362 95.0463C180.972 94.9774 181.588 94.9774 182.199 95.0463C182.817 95.1327 183.428 95.2697 184.024 95.4559L184.917 95.7538C185.243 95.859 185.552 96.0094 185.836 96.2007C186.13 96.4432 186.328 96.7819 186.397 97.1567C186.465 97.5316 186.398 97.9185 186.208 98.2489C186.019 98.5894 185.709 98.8464 185.339 98.9689C185.016 99.074 184.684 99.1488 184.346 99.1923C183.678 99.2668 183.004 99.2668 182.335 99.1923H182.447L180.598 99.7633L177.916 100.583L177.805 100.049C179.853 99.7757 181.839 99.515 183.813 99.4281C184.796 99.4362 185.776 99.5613 186.73 99.8005C187.661 100.012 188.555 100.235 189.448 100.483H189.61V100.645C189.61 101.079 189.734 101.489 189.796 101.886V101.948C189.633 102.406 189.306 102.787 188.877 103.016C188.493 103.214 188.068 103.32 187.636 103.326C186.791 103.34 185.951 103.205 185.153 102.929H185.29L182.621 103.549V103.115L185.91 104.145L186.68 104.381H186.866H186.953H187.028C187.06 104.371 187.095 104.371 187.127 104.381C187.301 104.704 187.127 104.803 187.127 104.952C186.902 105.395 186.627 105.812 186.308 106.193C185.99 106.582 185.554 106.857 185.066 106.975C184.636 107.082 184.193 107.124 183.751 107.099C182.989 107.054 182.237 106.904 181.516 106.653H181.653L180.051 108.428V108.614C180.374 109.16 180.61 109.595 180.796 109.855C180.879 109.994 180.949 110.139 181.007 110.29C180.893 110.172 180.797 110.038 180.722 109.892L179.915 108.651L181.454 106.814H181.541C182.236 107.037 182.959 107.162 183.689 107.186C184.105 107.242 184.529 107.197 184.924 107.054C185.32 106.912 185.675 106.676 185.96 106.367C186.261 105.985 186.515 105.568 186.717 105.126C186.729 105.077 186.729 105.026 186.717 104.977C186.717 104.977 186.717 104.977 186.829 104.878C186.904 104.766 186.742 105.026 186.829 105.002H186.73H186.544L185.774 104.766L182.472 103.785L181.69 103.562L182.484 103.363L185.153 102.718H185.29C186.016 102.969 186.781 103.09 187.549 103.078C187.919 103.108 188.29 103.021 188.608 102.83C188.927 102.638 189.177 102.351 189.324 102.01V102.134C189.262 101.712 189.2 101.303 189.138 100.893L189.312 101.104C188.443 100.868 187.549 100.645 186.63 100.446C185.717 100.215 184.78 100.094 183.837 100.086C181.926 100.173 179.915 100.446 177.892 100.707L177.767 100.173L180.449 99.3537L182.298 98.7951C182.921 98.8695 183.55 98.8695 184.173 98.7951C184.477 98.7613 184.777 98.6947 185.066 98.5965C185.187 98.5612 185.3 98.5025 185.398 98.4237C185.496 98.3449 185.577 98.2475 185.637 98.1372C185.763 97.9167 185.807 97.659 185.762 97.4093C185.716 97.1596 185.584 96.9339 185.389 96.7717C185.156 96.6153 184.901 96.494 184.632 96.4117L183.763 96.1138C183.2 95.9345 182.623 95.8016 182.038 95.7166C181.464 95.6487 180.885 95.6487 180.312 95.7166C179.18 95.8444 178.057 96.0392 176.948 96.3C175.9 96.5191 174.883 96.8651 173.919 97.3303C173.5 97.5943 173.123 97.9208 172.802 98.2985C172.634 98.4591 172.499 98.6515 172.405 98.8646C172.311 99.0776 172.261 99.3071 172.256 99.5399C172.351 100.456 172.652 101.339 173.137 102.122C173.559 102.929 174.031 103.673 174.478 104.369C174.475 105.416 174.753 106.445 175.285 107.348V107.41V107.484C175.12 108.504 175.187 109.548 175.483 110.538C175.69 111.284 175.991 112.002 176.377 112.673C177.209 113.753 177.681 114.262 177.643 114.299Z" fill="#6F4439"/>
<path d="M182.323 111.196C182.772 110.693 183.305 110.272 183.9 109.955C186.687 108.311 189.889 107.505 193.123 107.633C193.79 107.614 194.455 107.719 195.084 107.944C192.865 107.971 190.653 108.212 188.48 108.664C186.351 109.308 184.289 110.156 182.323 111.196Z" fill="#6F4439"/>
<path d="M182.956 103.45C182.956 103.549 182.423 103.45 181.591 103.338C180.525 103.33 179.485 103.665 178.624 104.294C177.754 104.958 176.955 105.711 176.241 106.541C175.67 107.174 175.297 107.559 175.235 107.509C175.173 107.46 175.446 107 175.943 106.268C176.593 105.321 177.389 104.483 178.301 103.785C179.259 103.081 180.448 102.766 181.628 102.904C182.115 102.951 182.577 103.141 182.956 103.45Z" fill="#6F4439"/>
<path d="M178.115 100.26C177.333 100.699 176.612 101.237 175.968 101.861C174.974 102.953 174.515 104.12 174.366 104.07C174.392 103.579 174.516 103.098 174.729 102.655C174.942 102.212 175.24 101.816 175.608 101.488C176.063 100.963 176.644 100.562 177.296 100.322C177.73 100.16 178.115 100.197 178.115 100.26Z" fill="#6F4439"/>
<path d="M327.98 88.7529C327.98 88.7529 336.744 91.0742 337.004 102.618C337.228 112.822 341.97 141.509 342.119 151.862C342.268 162.214 341.076 170.022 327.955 172.232C317.367 174.007 306.133 150.211 306.133 150.211L316.907 140.864L312.414 122.144C312.414 122.144 309.435 115.727 316.51 102.283C323.586 88.8398 327.98 88.7529 327.98 88.7529Z" fill="#F54545"/>
<path d="M279.233 71.0144L274.168 77.7051L258.031 81.1684C258.031 81.1684 246.164 106.404 246.723 118.011C246.889 123.84 247.491 129.649 248.523 135.389L248.423 148.671C248.423 148.671 243.458 159.719 245.643 164.511C247.828 169.302 254.133 173.709 254.133 173.709L312.612 174.454C312.612 174.454 316.783 176.837 318.968 170.581C321.152 164.324 317.726 118.656 317.726 118.656L329.122 89.2866L310.651 79.1947L307.274 70.2944L285.216 75.93L279.233 71.0144Z" fill="#F54545"/>
<path d="M321.165 143.631L318.682 140.069L306.083 145.518L307.262 149.602C307.262 149.602 311.557 154.431 315.803 152.817C320.048 151.203 320.768 146.424 320.768 146.424L321.165 143.631Z" fill="#AE7461"/>
<path d="M310.266 134.074C311.099 132.943 312.144 131.986 313.344 131.256C313.962 130.996 314.597 130.776 315.243 130.598C315.142 130.303 315.111 129.988 315.154 129.68C315.197 129.371 315.312 129.076 315.489 128.82C315.667 128.564 315.902 128.353 316.177 128.205C316.451 128.056 316.756 127.975 317.068 127.966C317.57 128.39 318.181 128.665 318.831 128.761C319.018 128.731 319.21 128.74 319.394 128.787C319.578 128.835 319.75 128.919 319.9 129.035C320.05 129.151 320.174 129.297 320.266 129.464C320.357 129.63 320.414 129.813 320.432 130.002C320.655 130.945 321.239 133.577 320.432 134.818C319.625 136.06 318.173 137.301 318.831 140.665C318.831 140.665 317.949 144.389 316.05 145.345C315.184 145.867 314.204 146.169 313.195 146.226C313.195 146.226 311.445 148.349 309.98 148.051C308.515 147.753 307.857 147.691 307.857 147.691C307.857 147.691 306.691 149.503 304.133 148.088C303.716 148.366 303.232 148.53 302.731 148.563C302.23 148.595 301.729 148.496 301.278 148.274C300.596 147.902 297.257 144.55 297.108 141.981C296.959 139.411 297.108 137.673 297.691 136.718C298.634 135.315 300 136.593 300 136.593C300.132 135.383 300.558 134.224 301.241 133.217C302.197 132.261 302.917 132.41 302.917 132.41C302.917 132.41 302.631 129.481 304.891 129.27C307.15 129.059 306.939 131.752 307.013 133.217L307.088 134.669C307.088 134.669 308.044 132.46 310.266 134.074Z" fill="#AE7461"/>
<path d="M310.265 134.073C310.265 134.073 309.98 133.887 309.396 133.664C309.037 133.549 308.651 133.549 308.292 133.664C307.818 133.855 307.438 134.225 307.236 134.694L307.038 135.116V134.657C307.038 134.036 306.938 133.329 306.914 132.559C306.94 131.741 306.801 130.926 306.504 130.163C306.39 129.976 306.24 129.815 306.062 129.688C305.884 129.561 305.682 129.472 305.468 129.425C305.255 129.379 305.034 129.376 304.819 129.418C304.605 129.459 304.401 129.544 304.22 129.667C303.82 129.98 303.514 130.397 303.332 130.871C303.151 131.345 303.101 131.86 303.19 132.36V132.596H302.917C302.518 132.648 302.138 132.796 301.81 133.028C301.481 133.259 301.213 133.567 301.03 133.924C300.625 134.77 300.357 135.675 300.235 136.606L300.161 137.04L299.838 136.755C299.649 136.524 299.382 136.37 299.088 136.32C298.794 136.27 298.492 136.327 298.237 136.481C297.766 136.954 297.48 137.579 297.43 138.244C297.332 138.976 297.29 139.715 297.306 140.454C297.296 141.207 297.363 141.96 297.504 142.701C298.031 144.19 298.879 145.546 299.987 146.673C300.26 146.983 300.546 147.269 300.844 147.554L301.29 147.939C301.445 148.04 301.612 148.119 301.787 148.175C302.154 148.286 302.542 148.315 302.922 148.259C303.301 148.203 303.664 148.064 303.984 147.852L304.133 147.753L304.27 147.827C304.948 148.256 305.765 148.412 306.554 148.262C306.984 148.143 307.364 147.885 307.634 147.529L307.745 147.38H307.907L309.421 147.641C309.657 147.641 309.942 147.74 310.153 147.753C310.358 147.795 310.569 147.795 310.774 147.753C311.644 147.389 312.408 146.813 312.996 146.077L313.083 145.978H313.232C313.928 145.926 314.609 145.749 315.243 145.456C315.892 145.236 316.467 144.841 316.906 144.314C317.71 143.197 318.284 141.931 318.594 140.59V140.69C318.234 139.201 318.438 137.631 319.165 136.283C319.513 135.65 319.997 135.104 320.32 134.57C320.577 134.002 320.688 133.379 320.643 132.758C320.621 132.141 320.554 131.527 320.444 130.92C320.406 130.361 320.231 129.82 319.935 129.344C319.761 129.171 319.534 129.062 319.29 129.034C319.041 129.034 318.756 129.034 318.445 128.934C317.908 128.773 317.409 128.503 316.981 128.14H317.105C316.801 128.142 316.503 128.218 316.235 128.361C315.967 128.504 315.737 128.709 315.566 128.959C315.336 129.46 315.279 130.024 315.404 130.56V130.685H315.28L313.952 131.131C313.555 131.223 313.177 131.383 312.835 131.603C312.302 131.962 311.811 132.378 311.37 132.844C310.998 133.217 310.737 133.515 310.551 133.713C310.365 133.912 310.278 134.024 310.265 134.011C310.253 133.999 310.327 133.887 310.489 133.664C310.65 133.44 310.911 133.13 311.258 132.733C311.691 132.236 312.178 131.791 312.711 131.404C313.067 131.17 313.456 130.99 313.865 130.871L315.206 130.387L315.106 130.573C314.932 129.961 314.99 129.307 315.268 128.736C315.46 128.433 315.723 128.182 316.035 128.005C316.347 127.827 316.697 127.729 317.055 127.718H317.142C317.533 128.037 317.985 128.274 318.47 128.413C318.88 128.512 319.712 128.413 320.159 128.909C320.386 129.156 320.541 129.461 320.605 129.791C320.667 130.089 320.742 130.387 320.792 130.685C320.921 131.314 321 131.954 321.027 132.596C321.085 133.3 320.956 134.006 320.655 134.644C320.295 135.277 319.836 135.774 319.513 136.37C318.85 137.624 318.681 139.081 319.041 140.454C318.728 141.86 318.128 143.187 317.279 144.351C317.037 144.652 316.753 144.916 316.435 145.133C316.111 145.336 315.77 145.511 315.417 145.655C314.7 145.981 313.931 146.175 313.145 146.226L313.381 146.127C312.721 146.941 311.867 147.577 310.898 147.976C310.623 148.067 310.33 148.097 310.042 148.063C309.744 148.063 309.533 147.989 309.272 147.951L307.795 147.691L308.056 147.566C307.715 148.04 307.218 148.378 306.653 148.522C305.728 148.712 304.765 148.544 303.959 148.051H304.257C303.866 148.314 303.422 148.486 302.955 148.555C302.489 148.624 302.014 148.587 301.564 148.448C301.374 148.431 301.187 148.394 301.005 148.336L300.508 147.914C300.198 147.616 299.9 147.318 299.615 147.008C298.463 145.808 297.586 144.372 297.045 142.8C296.889 142.015 296.823 141.216 296.847 140.416C296.83 139.649 296.875 138.881 296.983 138.12C297.056 137.327 297.419 136.59 298.001 136.047C298.177 135.918 298.381 135.831 298.596 135.792C298.811 135.753 299.032 135.764 299.242 135.824C299.615 135.925 299.96 136.112 300.248 136.37L299.851 136.506C299.987 135.521 300.285 134.565 300.732 133.676C300.962 133.243 301.295 132.872 301.7 132.596C302.095 132.285 302.588 132.126 303.09 132.149L302.842 132.385C302.798 131.794 302.869 131.199 303.053 130.635C303.218 130.075 303.591 129.6 304.096 129.307C304.581 129.057 305.135 128.974 305.672 129.071C305.928 129.117 306.169 129.225 306.375 129.385C306.58 129.545 306.744 129.753 306.852 129.989C307.156 130.78 307.296 131.625 307.261 132.472C307.261 133.242 307.261 133.949 307.261 134.57H307.05C307.168 134.309 307.34 134.076 307.554 133.886C307.768 133.696 308.019 133.552 308.292 133.465C308.704 133.346 309.145 133.381 309.533 133.564C309.801 133.696 310.048 133.868 310.265 134.073Z" fill="#6F4439"/>
<path d="M317.975 133.44C317.975 133.502 317.702 133.564 317.292 133.44C316.756 133.302 316.275 133.003 315.915 132.584C315.541 132.177 315.314 131.657 315.269 131.106C315.269 130.684 315.269 130.436 315.381 130.436C315.492 130.436 315.604 131.404 316.337 132.224C317.069 133.043 318 133.291 317.975 133.44Z" fill="#6F4439"/>
<path d="M314.66 140.888C314.498 140.95 313.84 139.225 312.636 137.35C311.432 135.476 310.154 134.197 310.228 134.073C311.434 134.791 312.424 135.82 313.096 137.052C313.923 138.184 314.46 139.501 314.66 140.888Z" fill="#6F4439"/>
<path d="M307.212 134.036C307.299 134.036 307.212 134.731 307.398 135.799C307.784 137.18 308.378 138.495 309.161 139.697C309.568 140.401 309.92 141.136 310.216 141.894C310.409 142.522 310.571 143.16 310.7 143.805C310.849 144.365 311.181 144.859 311.643 145.208C311.643 145.208 311.432 145.208 311.147 145.059C310.759 144.781 310.472 144.385 310.328 143.929C310.117 143.383 310.017 142.688 309.732 142.08C309.426 141.351 309.073 140.642 308.677 139.957C307.861 138.713 307.296 137.322 307.013 135.861C306.871 135.248 306.941 134.604 307.212 134.036Z" fill="#6F4439"/>
<path d="M305.97 144.016C305.4 143.706 304.898 143.283 304.493 142.775C304.003 142.263 303.604 141.671 303.314 141.025C303.021 140.227 302.85 139.39 302.805 138.542C302.513 136.398 302.584 134.22 303.016 132.1C303.177 132.1 303.016 134.979 303.351 138.492C303.392 139.298 303.538 140.095 303.786 140.863C304.035 141.469 304.374 142.034 304.791 142.539C305.235 142.988 305.631 143.484 305.97 144.016Z" fill="#6F4439"/>
<path d="M301.912 144.699C301.838 144.699 301.602 144.277 301.019 143.657C300.669 143.291 300.345 142.901 300.05 142.49C299.681 141.944 299.462 141.31 299.417 140.653C299.392 139.521 299.509 138.391 299.765 137.289C299.901 136.457 299.889 135.936 299.976 135.936C300.166 136.373 300.226 136.855 300.15 137.326C300.021 138.413 299.959 139.508 299.964 140.603C300.118 141.66 300.595 142.644 301.329 143.421C301.85 144.116 301.987 144.674 301.912 144.699Z" fill="#6F4439"/>
<path d="M336.632 153.066C336.166 152.279 335.603 151.553 334.956 150.906C334.211 150.247 333.375 149.7 332.474 149.28C331.359 148.783 330.21 148.368 329.035 148.039C327.84 147.707 326.664 147.314 325.51 146.859C324.558 146.473 323.661 145.964 322.841 145.345C322.287 144.921 321.801 144.415 321.401 143.843C321.128 143.433 321.029 143.185 321.053 143.16C321.659 143.847 322.333 144.471 323.064 145.022C323.886 145.577 324.769 146.035 325.696 146.388C326.739 146.797 327.93 147.132 329.197 147.517C330.399 147.859 331.57 148.303 332.697 148.845C333.618 149.305 334.457 149.913 335.18 150.645C335.687 151.137 336.107 151.712 336.421 152.346C336.547 152.566 336.619 152.813 336.632 153.066Z" fill="#263238"/>
<path d="M202.692 108.862L206.801 112.822C208.562 113.025 210.299 113.394 211.99 113.927C215.391 114.92 222.504 123.857 222.504 123.857L240.64 97.0694C240.64 97.0694 249.552 82.0618 258.018 81.1309L251.352 123.509C251.352 123.509 233.303 147.343 224.614 150.334C215.925 153.326 197.144 129.952 196.362 125.707L190.838 119.053L202.692 108.862Z" fill="#F54545"/>
<path d="M325.273 172.678C324.882 172.594 324.502 172.46 324.144 172.281C323.143 171.849 322.179 171.334 321.264 170.742C318.297 168.715 315.67 166.23 313.481 163.381C312.165 161.742 310.998 160.129 309.955 158.639C308.973 157.357 308.113 155.985 307.386 154.543C306.917 153.521 306.799 152.373 307.051 151.278C307.133 150.99 307.254 150.714 307.411 150.459C307.522 150.285 307.609 150.211 307.622 150.223C307.476 150.582 307.356 150.952 307.262 151.328C307.094 152.371 307.264 153.441 307.746 154.381C308.513 155.775 309.393 157.104 310.378 158.354C311.433 159.818 312.6 161.42 313.903 163.033C316.071 165.84 318.625 168.326 321.487 170.419C323.722 171.921 325.311 172.579 325.273 172.678Z" fill="#263238"/>
<path d="M314.66 113.455C314.821 113.455 314.759 116.756 314.933 120.816C315.106 124.875 315.429 128.152 315.268 128.164C315.025 127.48 314.878 126.766 314.833 126.042C314.647 124.713 314.461 122.876 314.374 120.84C314.287 118.805 314.374 116.943 314.374 115.614C314.368 114.885 314.464 114.158 314.66 113.455Z" fill="#263238"/>
<path d="M327.857 89.9942C326.779 90.182 325.72 90.4645 324.691 90.8383C322.301 91.9601 320.272 93.7271 318.832 95.9401C317.322 98.1151 316.165 100.516 315.406 103.053C314.823 105.014 314.686 106.28 314.587 106.268C314.541 105.968 314.541 105.662 314.587 105.362C314.61 105.012 314.655 104.663 314.724 104.319C314.793 103.859 314.888 103.403 315.009 102.954C315.668 100.326 316.8 97.8401 318.348 95.6174C319.207 94.3914 320.221 93.2816 321.365 92.3155C322.308 91.5279 323.378 90.9066 324.53 90.4783C324.766 90.3914 325.002 90.2921 325.225 90.2301L325.883 90.0935C326.223 90 326.574 89.9541 326.926 89.957C327.236 89.919 327.551 89.9316 327.857 89.9942Z" fill="#263238"/>
<path d="M255.71 89.9941C255.669 90.155 255.607 90.3096 255.524 90.4534L254.928 91.6948C254.655 92.2409 254.332 92.9361 253.997 93.7181C253.662 94.5001 253.228 95.4063 252.843 96.4366C251.889 98.8121 251.06 101.236 250.36 103.698C249.531 106.714 248.889 109.777 248.436 112.872C248.014 115.974 247.786 119.1 247.753 122.231C247.742 124.789 247.866 127.346 248.126 129.89C248.2 130.983 248.374 131.963 248.473 132.82C248.573 133.676 248.709 134.421 248.821 135.029L249.044 136.419C249.069 136.58 249.069 136.743 249.044 136.904C248.976 136.757 248.926 136.603 248.895 136.444C248.808 136.059 248.697 135.613 248.573 135.066C248.391 134.342 248.246 133.609 248.138 132.869C248.002 132.013 247.803 131.032 247.704 129.94C247.378 127.383 247.212 124.809 247.207 122.231C247.194 115.932 248.076 109.663 249.826 103.611C250.549 101.138 251.416 98.7097 252.421 96.3373C252.83 95.3194 253.29 94.4257 253.662 93.6436C254.034 92.8616 254.382 92.1789 254.692 91.6451C255.003 91.1113 255.189 90.7513 255.387 90.4038C255.586 90.0562 255.685 89.9941 255.71 89.9941Z" fill="#263238"/>
<path d="M310.65 79.1943C310.65 79.1943 310.513 79.2936 310.228 79.4301C309.942 79.5667 309.52 79.7653 308.987 80.0012C307.869 80.4729 306.256 81.1183 304.207 81.8631C298.841 83.7884 293.36 85.3803 287.797 86.6298H287.524L287.462 86.3691C287.35 85.8602 287.214 85.314 287.052 84.7678C286.27 81.9004 285.315 79.1943 284.731 76.5875L285.178 76.6868C282.869 79.5046 280.796 81.9997 278.971 83.9361L278.823 84.0851L278.686 83.9361C277.976 83.1244 277.333 82.2568 276.762 81.3418L275.434 79.3309C274.701 78.2261 274.192 77.6923 274.192 77.6551C274.343 77.7536 274.477 77.8751 274.59 78.015C274.838 78.2757 275.161 78.6729 275.57 79.2564C275.98 79.8398 276.439 80.4977 276.973 81.2177C277.568 82.0902 278.223 82.9198 278.934 83.7003H278.661C280.461 81.7514 282.509 79.2191 284.793 76.4013L285.128 75.9917L285.253 76.5006C285.848 79.0702 286.804 81.7638 287.599 84.6561C287.76 85.2023 287.897 85.7609 288.021 86.2822L287.686 86.0712C293.232 84.8289 298.71 83.2958 304.096 81.4783C306.144 80.7956 307.82 80.237 308.925 79.7777C309.488 79.5492 310.064 79.3544 310.65 79.1943Z" fill="#263238"/>
<path d="M278.315 176.738L278.067 176.614C277.84 176.495 277.62 176.362 277.409 176.216C276.591 175.624 275.892 174.883 275.348 174.032C274.506 172.679 273.925 171.18 273.635 169.613C273.24 167.568 273.048 165.489 273.064 163.406C273.064 154.146 272.928 141.323 273.921 127.209C274.43 120.146 275.162 113.443 276.267 107.348C277.194 101.987 278.437 96.6855 279.991 91.4715C281.373 86.6603 283.133 81.9659 285.254 77.4321L285.18 77.6804L284.907 78.4128L283.827 81.1933C283.318 82.4347 282.834 83.887 282.225 85.6248C281.617 87.3627 280.984 89.3488 280.363 91.5832C278.88 96.7954 277.695 102.088 276.813 107.435C275.795 113.455 275.013 120.146 274.504 127.197C273.511 141.286 273.586 154.096 273.487 163.356C273.452 165.436 273.614 167.514 273.971 169.563C274.236 171.104 274.778 172.585 275.572 173.932C276.272 175.055 277.208 176.013 278.315 176.738Z" fill="#263238"/>
<path d="M294.798 156.814C294.29 156.807 293.783 156.758 293.284 156.665C292.315 156.541 290.913 156.305 289.187 155.97C280.212 154.181 271.533 151.139 263.405 146.933C261.853 146.127 260.612 145.431 259.78 144.923C259.346 144.677 258.931 144.399 258.539 144.091C259.019 144.258 259.481 144.475 259.917 144.736C260.786 145.183 262.052 145.816 263.641 146.586C267.72 148.57 271.905 150.327 276.178 151.849C280.473 153.338 284.85 154.582 289.287 155.573C290.987 155.958 292.377 156.256 293.333 156.442C293.835 156.506 294.327 156.631 294.798 156.814Z" fill="#263238"/>
<g opacity="0.3">
<path d="M339.311 150.124C339.082 149.212 338.631 148.372 337.999 147.676C337.367 146.981 336.572 146.453 335.686 146.139C333.898 145.539 332.003 145.319 330.125 145.494C327.94 145.61 325.749 145.564 323.571 145.357C325.42 146.822 328.66 147.455 331.18 148.523C332.641 149.03 333.993 149.809 335.165 150.819C335.624 151.254 336.009 151.775 336.505 152.16C336.745 152.369 337.032 152.516 337.341 152.59C337.65 152.663 337.973 152.661 338.28 152.582C338.709 152.353 339.045 151.984 339.233 151.536C339.42 151.088 339.448 150.59 339.311 150.124Z" fill="black"/>
</g>
<g opacity="0.3">
<path d="M250.519 102.308C247.217 105.743 245.153 110.179 244.652 114.917C244.151 119.655 245.241 124.426 247.751 128.475V128.314C246.625 119.548 247.573 110.64 250.519 102.308Z" fill="black"/>
</g>
<path d="M247.269 189.175L254.158 173.684L317.974 172.703L326.887 188.17C326.887 188.17 290.529 204.841 247.269 189.175Z" fill="#263238"/>
</svg>
