<svg width="168" height="269" viewBox="0 0 168 269" fill="none" xmlns="http://www.w3.org/2000/svg">
<path d="M140.964 48.403C140.512 49.695 139.913 50.9308 139.179 52.0864C135.822 57.5365 130.498 61.4884 124.31 63.125C121.422 63.9584 118.37 64.0439 115.441 63.3736C113.853 62.9728 112.385 62.198 111.159 61.1139C109.85 59.9804 108.926 58.4682 108.515 56.7865C108.096 54.9747 108.39 53.071 109.336 51.4699C110.282 49.8688 111.807 48.6931 113.597 48.1862C115.386 47.6793 117.302 47.8802 118.947 48.7472C120.592 49.6142 121.841 51.0809 122.434 52.8434C122.955 54.4886 122.998 56.2476 122.559 57.9164C122.163 59.5099 121.527 61.0338 120.672 62.4358C117.678 67.1888 113.131 70.7581 107.803 72.5367C105.788 73.2457 103.686 73.6752 101.555 73.8134C99.9542 73.9388 98.3449 73.8971 96.7529 73.6891C95.7476 73.5498 94.7543 73.3345 93.7814 73.0451L93.0244 72.8078C92.9383 72.7876 92.8549 72.7572 92.7759 72.7175C92.8657 72.7027 92.9572 72.7027 93.047 72.7175L93.8153 72.8982C94.7902 73.136 95.7788 73.3133 96.7755 73.4293C100.459 73.7978 104.179 73.3464 107.667 72.1073C112.866 70.3077 117.291 66.7831 120.209 62.1194C121.026 60.7819 121.632 59.326 122.005 57.8034C122.42 56.2431 122.38 54.5969 121.892 53.058C121.341 51.4437 120.192 50.1021 118.682 49.3092C117.172 48.5164 115.415 48.3327 113.773 48.796C112.131 49.2592 110.73 50.3342 109.857 51.7996C108.984 53.265 108.706 55.0093 109.08 56.6736C109.455 58.2447 110.312 59.659 111.531 60.7184C112.693 61.7548 114.083 62.502 115.588 62.899C118.425 63.5517 121.38 63.4856 124.186 62.707C126.653 62.0726 129.008 61.0628 131.168 59.7129C134.304 57.7438 136.972 55.1141 138.987 52.0073C139.3 51.5128 139.583 50.9997 139.834 50.4707C140.083 50.03 140.297 49.6572 140.433 49.3408L140.783 48.6403C140.831 48.5526 140.892 48.4726 140.964 48.403Z" fill="white"/>
<path d="M155.471 75.1132C155.471 75.2262 153.991 75.5312 151.72 76.4464C150.399 76.9887 149.119 77.6269 147.89 78.3559C146.399 79.27 144.985 80.3054 143.664 81.4517C142.367 82.6285 141.173 83.9136 140.094 85.2932C139.223 86.4286 138.441 87.6298 137.755 88.8861C136.625 91.0328 136.094 92.479 135.993 92.4451C136.034 92.0876 136.125 91.7377 136.264 91.4057C136.563 90.4677 136.941 89.5568 137.394 88.6827C138.037 87.3802 138.793 86.1364 139.653 84.9655C141.775 82.089 144.468 79.6812 147.562 77.8926C148.821 77.1606 150.145 76.5478 151.517 76.0623C152.435 75.7179 153.38 75.4496 154.341 75.2601C154.709 75.1572 155.09 75.1077 155.471 75.1132Z" fill="white"/>
<path d="M130.999 29.8286C129.078 30.5272 127.019 30.7634 124.989 30.5181C122.959 30.2727 121.016 29.5527 119.316 28.4163C121.186 29.0878 123.11 29.5944 125.067 29.9303C127.044 30.0715 129.029 30.0375 130.999 29.8286Z" fill="white"/>
<path d="M149.02 94.9758H101.341C99.7584 94.9758 98.2411 94.3473 97.1223 93.2285C96.0035 92.1098 95.375 90.5924 95.375 89.0102V23.0156C95.3735 22.2317 95.5268 21.4553 95.8261 20.7309C96.1254 20.0064 96.5647 19.3482 97.119 18.7939C97.6732 18.2397 98.3315 17.8003 99.0559 17.501C99.7804 17.2017 100.557 17.0484 101.341 17.0499H131.575L154.986 41.1723V89.0102C154.983 90.5915 154.354 92.1071 153.235 93.2252C152.117 94.3434 150.602 94.9728 149.02 94.9758Z" fill="#3780EF"/>
<path d="M131.575 17.0499V35.6699C131.575 37.1412 132.159 38.5522 133.2 39.5926C134.24 40.633 135.651 41.2175 137.122 41.2175H154.985L131.575 17.0499Z" fill="#3780EF"/>
<path opacity="0.2" d="M131.825 37.2518C131.835 38.6581 132.326 40.0185 133.216 41.1076C134.106 42.1967 135.341 42.949 136.717 43.24C136.91 43.2934 137.106 43.3349 137.304 43.3643C139.632 43.7824 154.987 46.5166 154.987 46.1664V41.1724H137.124C137.124 41.1724 132.661 41.0142 131.825 37.2518Z" fill="black"/>
<path d="M149.019 94.9762C149.019 94.9762 149.37 94.9762 150.048 94.8519C151.039 94.6697 151.969 94.2382 152.748 93.5978C153.376 93.0813 153.89 92.4401 154.258 91.7147C154.625 90.9893 154.838 90.1954 154.883 89.3834C154.883 87.4627 154.883 85.2256 154.883 82.7286C154.883 72.7407 154.883 58.4481 154.816 41.1726V41.2856L131.439 17.1859H131.574H102.684C101.93 17.1603 101.174 17.1906 100.424 17.2763C99.678 17.4014 98.9636 17.6724 98.3219 18.0737C97.6802 18.475 97.1239 18.9987 96.6846 19.6151C96.0635 20.4718 95.6955 21.4857 95.6226 22.5414C95.6226 23.6034 95.6226 24.7107 95.6226 25.7841V44.8559C95.6226 53.1152 95.6226 61.0693 95.6226 68.6506C95.6226 72.4168 95.6226 76.1114 95.6226 79.7345V87.6434C95.5817 88.4809 95.6158 89.3203 95.7243 90.1517C95.8848 90.9438 96.2076 91.694 96.6723 92.3551C97.137 93.0163 97.7337 93.574 98.4246 93.9932C99.1007 94.3953 99.8494 94.6602 100.628 94.7728C101.411 94.8125 102.195 94.8125 102.978 94.7728H112.017L139.133 94.8406H112.017H102.978C102.198 94.8406 101.407 94.8406 100.583 94.7728C99.7627 94.6645 98.974 94.3875 98.2664 93.9593C97.5338 93.5209 96.9003 92.9349 96.4063 92.2386C95.9123 91.5422 95.5684 90.7508 95.3966 89.9144C95.2804 89.061 95.2425 88.1987 95.2836 87.3384C95.2836 86.4797 95.2836 85.621 95.2836 84.751V79.7345C95.2836 76.1415 95.2836 72.4469 95.2836 68.6506C95.2836 61.0693 95.2836 53.1152 95.2836 44.8559V25.8406C95.2836 24.7107 95.2836 23.6825 95.2836 22.5753C95.3604 21.4435 95.7517 20.3556 96.4135 19.4343C97.3332 18.1315 98.7225 17.2364 100.289 16.9373C101.072 16.846 101.862 16.8158 102.65 16.8469H131.62H131.676C140.105 25.5355 147.991 33.6817 155.064 40.9919H155.121V41.0596C155.121 58.3351 155.064 72.6277 155.041 82.6156C155.041 85.1126 155.041 87.3384 155.041 89.2817C154.949 90.6263 154.408 91.9009 153.504 92.9009C152.601 93.9008 151.387 94.568 150.059 94.7954C149.801 94.8393 149.541 94.8619 149.279 94.8632L149.019 94.9762Z" fill="#263238"/>
<path d="M154.986 41.1727H154.522H153.212H148.376H141.201H136.953C135.761 41.1404 134.608 40.7365 133.656 40.0174C132.704 39.2984 132 38.3 131.643 37.1617C131.425 36.4294 131.337 35.6646 131.383 34.902C131.383 33.4332 131.383 32.0209 131.383 30.6651C131.383 27.976 131.383 25.5468 131.383 23.4905C131.383 21.4342 131.439 19.8411 131.451 18.6547C131.451 18.1124 131.451 17.6831 131.451 17.3328C131.439 17.1824 131.439 17.0313 131.451 16.8809C131.462 17.0313 131.462 17.1824 131.451 17.3328C131.451 17.6831 131.451 18.1124 131.451 18.6547C131.451 19.7846 131.451 21.4907 131.519 23.4905C131.586 25.4903 131.519 28.0099 131.519 30.6651C131.519 32.0209 131.519 33.4332 131.519 34.902C131.48 35.6309 131.568 36.3611 131.778 37.06C132.114 38.1172 132.769 39.0444 133.653 39.7141C134.537 40.3838 135.607 40.7631 136.716 40.7998H140.953H148.127L152.963 40.8676H154.274C154.523 40.9379 154.763 41.0405 154.986 41.1727Z" fill="#263238"/>
<path d="M130.672 33.6251C130.672 33.7268 125.023 33.8172 118.097 33.8172C111.171 33.8172 105.521 33.7268 105.521 33.6251C105.521 33.5234 111.171 33.4218 118.097 33.4218C125.023 33.4218 130.672 33.5121 130.672 33.6251Z" fill="#263238"/>
<path d="M142.615 42.8899C142.615 42.9916 134.31 43.082 124.062 43.082C113.815 43.082 105.521 42.9916 105.521 42.8899C105.521 42.7882 113.826 42.6865 124.062 42.6865C134.299 42.6865 142.615 42.7769 142.615 42.8899Z" fill="#263238"/>
<path d="M142.615 52.1545C142.615 52.2675 134.31 52.3579 124.062 52.3579C113.815 52.3579 105.521 52.2675 105.521 52.1545C105.521 52.0416 113.826 51.9512 124.062 51.9512C134.299 51.9512 142.615 52.0416 142.615 52.1545Z" fill="#263238"/>
<path d="M142.615 61.4197C142.615 61.5327 134.31 61.6231 124.062 61.6231C113.815 61.6231 105.521 61.5327 105.521 61.4197C105.521 61.3067 113.826 61.2163 124.062 61.2163C134.299 61.2163 142.615 61.3067 142.615 61.4197Z" fill="#263238"/>
<path d="M142.615 70.6954C142.615 70.8084 134.31 70.8988 124.062 70.8988C113.815 70.8988 105.521 70.8084 105.521 70.6954C105.521 70.5825 113.826 70.4921 124.062 70.4921C134.299 70.4921 142.615 70.5712 142.615 70.6954Z" fill="#263238"/>
<path d="M142.615 79.9486C142.615 80.0615 134.31 80.1519 124.062 80.1519C113.815 80.1519 105.521 80.0615 105.521 79.9486C105.521 79.8356 113.848 79.7339 124.017 79.7339C134.186 79.7339 142.615 79.8356 142.615 79.9486Z" fill="#263238"/>
<path d="M160.172 103.461C160.172 103.258 163.211 103.088 166.951 103.088L166.657 103.461V101.766C166.657 101.224 166.657 100.693 166.657 100.162C166.657 99.2356 166.657 98.3317 166.725 97.4617C166.692 96.6242 166.76 95.7858 166.928 94.9647C167.097 95.7858 167.165 96.6242 167.132 97.4617C167.132 98.3317 167.132 99.2356 167.2 100.162C167.2 100.693 167.2 101.224 167.2 101.766C167.2 102.049 167.2 102.331 167.2 102.614V103.461C167.064 103.619 167.493 103.088 166.906 103.834C163.211 103.789 160.172 103.619 160.172 103.461Z" fill="#263238"/>
<path d="M131.179 103.461C131.179 103.258 134.433 103.088 138.433 103.088C142.433 103.088 145.675 103.258 145.675 103.461C145.675 103.665 142.433 103.834 138.433 103.834C134.433 103.834 131.179 103.619 131.179 103.461Z" fill="#263238"/>
<path d="M102.199 103.461C102.199 103.258 105.441 103.088 109.441 103.088C113.441 103.088 116.695 103.258 116.695 103.461C116.695 103.665 113.441 103.834 109.441 103.834C105.441 103.834 102.199 103.619 102.199 103.461Z" fill="#263238"/>
<path d="M80.9245 94.8969C81.2155 97.7266 81.3136 100.573 81.2183 103.416C80.6307 102.682 81.0601 103.213 80.9245 103.043H82.2916H83.5571L85.7151 103.122C86.3882 103.088 87.062 103.176 87.7036 103.382C87.062 103.588 86.3882 103.677 85.7151 103.642L83.5571 103.721H82.2916H80.9245L80.6307 103.348C80.5384 100.528 80.6366 97.7041 80.9245 94.8969Z" fill="#263238"/>
<path d="M80.9237 64.2552C81.2146 66.7977 81.3127 69.3584 81.2175 71.9156C81.3124 74.4729 81.2143 77.0336 80.9237 79.576C80.6331 77.0336 80.5349 74.4729 80.6299 71.9156C80.5346 69.3584 80.6328 66.7977 80.9237 64.2552Z" fill="#263238"/>
<path d="M80.923 33.6136C81.2139 36.1561 81.3121 38.7168 81.2168 41.274C81.3118 43.8313 81.2136 46.392 80.923 48.9344C80.6347 46.407 80.5365 43.8614 80.6293 41.3192C80.5317 38.747 80.6299 36.171 80.923 33.6136Z" fill="#263238"/>
<path d="M87.7034 9.77379C87.7034 9.97717 84.6641 10.1353 80.9243 10.1353L81.2181 9.77379V11.4686C81.2181 12.0109 81.2181 12.5419 81.2181 13.0617C81.2181 13.9994 81.2181 14.892 81.1503 15.7733C81.1835 16.6108 81.1152 17.4492 80.9469 18.2703C80.7776 17.4493 80.7055 16.6112 80.7322 15.7733C80.7322 14.892 80.7322 13.9994 80.7322 13.0617C80.7322 12.5419 80.7322 12.0109 80.7322 11.4686V9.79638C80.8565 9.62691 80.4385 10.1579 81.026 9.42354C84.6641 9.40094 87.7034 9.57042 87.7034 9.77379Z" fill="#263238"/>
<path d="M116.695 9.7741C116.695 9.97747 113.441 10.1357 109.441 10.1357C105.441 10.1357 102.199 9.97747 102.199 9.7741C102.199 9.57072 105.441 9.40125 109.441 9.40125C113.441 9.40125 116.695 9.57072 116.695 9.7741Z" fill="#263238"/>
<path d="M145.675 9.7741C145.675 9.97747 142.433 10.1357 138.433 10.1357C134.433 10.1357 131.179 9.97747 131.179 9.7741C131.179 9.57072 134.422 9.40125 138.433 9.40125C142.444 9.40125 145.675 9.57072 145.675 9.7741Z" fill="#263238"/>
<path d="M166.951 18.2934C166.66 15.4636 166.562 12.6174 166.657 9.7743L166.951 10.1358H165.584H164.307L162.16 10.0568C161.487 10.0914 160.813 10.0034 160.172 9.79689C160.813 9.59043 161.487 9.50238 162.16 9.53702L164.307 9.45794H165.584H166.951C167.075 9.62741 166.657 9.08509 167.245 9.83079C167.337 12.655 167.239 15.4823 166.951 18.2934Z" fill="#263238"/>
<path d="M166.951 48.9344C166.66 46.392 166.562 43.8313 166.657 41.274C166.561 38.7168 166.66 36.1561 166.951 33.6136C167.241 36.1561 167.34 38.7168 167.244 41.274C167.339 43.8313 167.241 46.392 166.951 48.9344Z" fill="#263238"/>
<path d="M166.951 79.576C166.66 77.0336 166.562 74.4729 166.657 71.9156C166.561 69.3584 166.66 66.7977 166.951 64.2552C167.241 66.7977 167.34 69.3584 167.244 71.9156C167.339 74.4729 167.241 77.0336 166.951 79.576Z" fill="#263238"/>
<path d="M84.8337 25.9364C90.7077 23.5679 93.5495 16.886 91.181 11.0119C88.8125 5.13788 82.1306 2.29605 76.2565 4.66456C70.3825 7.03307 67.5407 13.715 69.9092 19.5891C72.2777 25.4631 78.9596 28.3049 84.8337 25.9364Z" fill="white"/>
<path d="M91.9965 15.3329C91.9007 14.4013 91.746 13.4767 91.5333 12.5647C91.1349 11.0421 90.4228 9.61943 89.4425 8.38802C88.4623 7.15661 87.2356 6.14358 85.8411 5.41386C84.4465 4.68415 82.9149 4.25385 81.3444 4.15054C79.7738 4.04723 78.1991 4.27318 76.7209 4.81393C74.6492 5.58551 72.8471 6.94395 71.5349 8.72322C70.1253 10.6387 69.365 12.9546 69.365 15.3329C69.365 17.7111 70.1253 20.027 71.5349 21.9425C72.8454 23.7208 74.6484 25.0761 76.7209 25.8405C78.4832 26.4837 80.378 26.6779 82.2341 26.4057C84.0903 26.1335 85.8494 25.4034 87.3528 24.2813C89.3963 22.7448 90.8677 20.5695 91.5333 18.101C91.744 17.1886 91.8987 16.2641 91.9965 15.3329C92.0686 16.281 91.9885 17.2346 91.7593 18.1575C91.1572 20.7224 89.6886 23.0011 87.6014 24.6089C86.1673 25.7373 84.4873 26.5114 82.6978 26.8686C80.6395 27.2585 78.5145 27.0947 76.5402 26.3941C75.471 26.0171 74.4652 25.48 73.5573 24.801C72.6013 24.1105 71.7621 23.2713 71.0717 22.3153C69.582 20.3049 68.7778 17.8689 68.7778 15.3667C68.7778 12.8645 69.582 10.4286 71.0717 8.41816C71.7621 7.46215 72.6013 6.62295 73.5573 5.93249C74.4678 5.22762 75.4815 4.66741 76.5628 4.2716C78.5359 3.56557 80.6624 3.4017 82.7204 3.79707C84.9007 4.22408 86.912 5.26919 88.5147 6.80774C90.1174 8.34629 91.2437 10.3134 91.7593 12.4743C91.9921 13.4081 92.0723 14.3735 91.9965 15.3329Z" fill="#263238"/>
<path d="M80.6752 20.9821C80.3784 19.088 80.2799 17.1682 80.3815 15.2537C80.2799 13.3393 80.3784 11.4194 80.6752 9.52539C80.9706 11.4462 81.069 13.3921 80.969 15.3328C81.0584 17.221 80.96 19.1134 80.6752 20.9821Z" fill="#263238"/>
<path d="M86.7317 15.333C84.7383 15.623 82.7218 15.7213 80.7096 15.6268C78.6975 15.7219 76.6808 15.6235 74.6875 15.333C76.6808 15.0425 78.6975 14.9441 80.7096 15.0392C82.7218 14.9447 84.7383 15.043 86.7317 15.333Z" fill="#263238"/>
<path d="M59.9534 186.765C59.1017 188.862 58.0697 190.881 56.8689 192.799C55.8303 194.813 54.6247 196.737 53.2646 198.55C54.1174 196.45 55.1494 194.428 56.3491 192.505C57.3826 190.491 58.5885 188.571 59.9534 186.765Z" fill="#263238"/>
<path d="M73.342 163.185C72.4904 165.282 71.4583 167.3 70.2575 169.218C69.219 171.233 68.0134 173.157 66.6533 174.969C67.5074 172.868 68.5433 170.846 69.7491 168.925C70.7765 166.91 71.9787 164.989 73.342 163.185Z" fill="#263238"/>
<path d="M86.7313 139.617C85.8727 141.712 84.837 143.731 83.6355 145.65C82.6018 147.667 81.3959 149.591 80.0312 151.401C80.891 149.302 81.9266 147.28 83.127 145.356C84.1507 143.337 85.3572 141.416 86.7313 139.617Z" fill="#263238"/>
<path d="M100.131 116.025C99.2721 118.12 98.2364 120.139 97.0349 122.058C96.0012 124.076 94.7954 126 93.4307 127.809C94.2904 125.711 95.326 123.689 96.5265 121.765C97.5501 119.745 98.7566 117.824 100.131 116.025Z" fill="#263238"/>
<path d="M56.6893 196.584C56.7791 197.092 56.7165 197.614 56.5095 198.087C56.3024 198.559 55.9602 198.959 55.5259 199.237C55.0916 199.515 54.5848 199.658 54.0693 199.648C53.5538 199.638 53.0528 199.476 52.6295 199.181C52.2062 198.887 51.8795 198.474 51.6906 197.994C51.5018 197.515 51.4593 196.99 51.5685 196.486C51.6776 195.982 51.9336 195.522 52.304 195.163C52.6745 194.805 53.1428 194.564 53.65 194.471C53.9884 194.409 54.3357 194.415 54.6719 194.488C55.0081 194.56 55.3265 194.699 55.609 194.895C55.8914 195.092 56.1323 195.342 56.3177 195.632C56.5031 195.922 56.6294 196.245 56.6893 196.584Z" fill="#263238"/>
<path d="M108.3 117.483C107.983 116.225 107.768 114.944 107.656 113.652C107.328 111.268 106.921 108.003 106.526 104.309L106.955 104.535L106.65 104.693C103.261 106.41 100.244 107.924 98.0181 108.997C96.8404 109.626 95.621 110.173 94.3687 110.636C95.4651 109.877 96.6214 109.208 97.826 108.636C100.007 107.506 103.023 105.879 106.379 104.116L106.684 103.958L107.068 103.766V104.184C107.486 107.845 107.825 111.155 108.04 113.551C108.223 114.853 108.31 116.167 108.3 117.483Z" fill="#263238"/>
<path d="M54.1687 268.962H6.51152C5.72769 268.963 4.95128 268.81 4.22682 268.511C3.50237 268.212 2.84413 267.772 2.28987 267.218C1.73562 266.664 1.29625 266.005 0.996981 265.281C0.697708 264.557 0.54442 263.78 0.545909 262.996V197.002C0.54442 196.218 0.697708 195.441 0.996981 194.717C1.29625 193.992 1.73562 193.334 2.28987 192.78C2.84413 192.226 3.50237 191.786 4.22682 191.487C4.95128 191.188 5.72769 191.035 6.51152 191.036H36.7238L60.1343 215.158V262.996C60.1343 263.78 59.98 264.555 59.6802 265.279C59.3804 266.003 58.941 266.661 58.387 267.215C57.833 267.769 57.1754 268.208 56.4516 268.508C55.7278 268.808 54.9521 268.962 54.1687 268.962Z" fill="#3780EF"/>
<path d="M36.7241 191.036V209.667C36.7241 211.139 37.3086 212.55 38.349 213.59C39.3893 214.63 40.8004 215.215 42.2717 215.215H60.1346L36.7241 191.036Z" fill="#3780EF"/>
<path opacity="0.2" d="M37.0176 211.238C37.031 212.645 37.5243 214.006 38.4159 215.095C39.3076 216.184 40.5441 216.935 41.9211 217.226C42.1143 217.279 42.3105 217.321 42.5087 217.35C44.8362 217.768 60.1908 220.503 60.1908 220.152V215.159H42.2714C42.2714 215.159 37.8085 215.012 37.0176 211.238Z" fill="black"/>
<path d="M60.1343 215.158C59.9805 215.178 59.8249 215.178 59.671 215.158H58.3604L53.5133 215.226H46.3388H42.1018C40.9106 215.189 39.7602 214.783 38.8091 214.065C37.8581 213.346 37.1532 212.351 36.7915 211.215C36.5721 210.483 36.4803 209.719 36.5204 208.955C36.5204 207.487 36.5204 206.074 36.5204 204.719C36.5204 202.029 36.5204 199.6 36.5204 197.544C36.5204 195.488 36.5204 193.906 36.5882 192.708C36.5882 192.166 36.5882 191.737 36.5882 191.386C36.5693 191.236 36.5693 191.084 36.5882 190.934C36.5998 191.085 36.5998 191.236 36.5882 191.386C36.5882 191.737 36.5882 192.166 36.5882 192.708C36.5882 193.906 36.5882 195.544 36.656 197.544C36.7237 199.544 36.656 202.063 36.656 204.719C36.656 206.074 36.656 207.487 36.656 208.955C36.6192 209.684 36.7032 210.413 36.9045 211.113C37.2452 212.17 37.903 213.096 38.7884 213.765C39.6739 214.434 40.7441 214.814 41.8533 214.853H46.0789H53.2535L58.1005 214.921H59.4112C59.6613 214.969 59.9044 215.049 60.1343 215.158Z" fill="#263238"/>
<path d="M35.8199 207.611C35.8199 207.724 30.1707 207.814 23.2447 207.814C16.3187 207.814 10.6694 207.724 10.6694 207.611C10.6694 207.498 16.3187 207.407 23.2447 207.407C30.1707 207.407 35.8199 207.498 35.8199 207.611Z" fill="#263238"/>
<path d="M47.7625 216.876C47.7625 216.989 39.458 217.079 29.2103 217.079C18.9625 217.079 10.6694 216.989 10.6694 216.876C10.6694 216.763 18.9625 216.672 29.2103 216.672C39.458 216.672 47.7625 216.763 47.7625 216.876Z" fill="#263238"/>
<path d="M47.7625 226.14C47.7625 226.253 39.458 226.344 29.2103 226.344C18.9625 226.344 10.6694 226.253 10.6694 226.14C10.6694 226.027 18.9625 225.937 29.2103 225.937C39.458 225.937 47.7625 226.027 47.7625 226.14Z" fill="#263238"/>
<path d="M47.7625 235.405C47.7625 235.518 39.458 235.608 29.2103 235.608C18.9625 235.608 10.6694 235.518 10.6694 235.405C10.6694 235.292 18.9625 235.202 29.2103 235.202C39.458 235.202 47.7625 235.292 47.7625 235.405Z" fill="#263238"/>
<path d="M47.7625 244.693C47.7625 244.806 39.458 244.896 29.2103 244.896C18.9625 244.896 10.6694 244.806 10.6694 244.693C10.6694 244.58 18.9625 244.489 29.2103 244.489C39.458 244.489 47.7625 244.557 47.7625 244.693Z" fill="#263238"/>
<path d="M47.7625 253.935C47.7625 254.048 39.458 254.138 29.2103 254.138C18.9625 254.138 10.6694 254.048 10.6694 253.935C10.6694 253.822 18.9399 253.732 29.2103 253.732C39.4806 253.732 47.7625 253.822 47.7625 253.935Z" fill="#263238"/>
</svg>
