<svg width="389" height="400" viewBox="0 0 389 400" fill="none" xmlns="http://www.w3.org/2000/svg">
<path d="M376.714 386.338C376.714 386.466 296.247 386.56 197.014 386.56C97.7812 386.56 17.2979 386.466 17.2979 386.338C17.2979 386.21 97.747 386.116 197.014 386.116C296.282 386.116 376.714 386.218 376.714 386.338Z" fill="#263238"/>
<path d="M304.696 83.3937L305.875 309.34L138.28 309.032L126.509 298.517L137.092 80.9251L294.3 67.9497L304.696 83.3937Z" fill="#E0E0E0"/>
<path d="M294.3 67.9497L294.13 298.363L126.509 298.517L128.602 68.2145L294.3 67.9497Z" fill="#FAFAFA"/>
<path d="M294.3 67.9497L128.584 68.3939L128.764 68.2145C128.191 132.605 127.483 212.336 126.714 298.517L126.492 298.295H127.482L294.112 298.167L293.907 298.363C294.13 162.1 294.275 69.735 294.283 67.9497C294.283 69.735 294.283 162.1 294.283 298.363V298.568H294.078L127.448 298.739H126.235V298.483C127.038 212.302 127.773 132.57 128.371 68.1718V68.001H128.55L294.3 67.9497Z" fill="#263238"/>
<path d="M153.245 123.781L209.572 123.396C210.454 123.39 211.297 123.033 211.917 122.405C212.537 121.778 212.882 120.93 212.878 120.048C212.874 119.611 212.785 119.18 212.615 118.778C212.445 118.376 212.197 118.012 211.886 117.706C211.575 117.399 211.207 117.158 210.803 116.994C210.398 116.83 209.965 116.747 209.529 116.751L153.203 117.144C152.766 117.145 152.335 117.232 151.932 117.401C151.53 117.57 151.165 117.816 150.859 118.127C150.552 118.437 150.31 118.805 150.146 119.21C149.983 119.614 149.901 120.047 149.905 120.483C149.907 120.92 149.994 121.352 150.163 121.754C150.332 122.156 150.578 122.521 150.889 122.828C151.199 123.134 151.567 123.376 151.972 123.54C152.376 123.703 152.809 123.785 153.245 123.781Z" fill="#E0E0E0"/>
<path d="M153.143 136.637L209.52 136.244C209.956 136.241 210.388 136.153 210.789 135.984C211.191 135.815 211.556 135.568 211.862 135.258C212.168 134.948 212.41 134.58 212.574 134.176C212.738 133.772 212.821 133.34 212.818 132.904C212.815 132.467 212.727 132.036 212.558 131.633C212.389 131.231 212.142 130.866 211.832 130.559C211.522 130.252 211.155 130.009 210.751 129.844C210.347 129.679 209.914 129.596 209.478 129.598L153.1 129.991C152.664 129.994 152.232 130.084 151.83 130.254C151.429 130.424 151.064 130.671 150.758 130.982C150.452 131.293 150.21 131.661 150.046 132.066C149.882 132.47 149.799 132.903 149.803 133.339C149.81 134.219 150.165 135.06 150.791 135.678C151.417 136.297 152.263 136.641 153.143 136.637Z" fill="#E0E0E0"/>
<path d="M153.049 149.484L209.375 149.099C210.257 149.093 211.101 148.736 211.72 148.109C212.34 147.481 212.685 146.633 212.681 145.751C212.678 145.315 212.588 144.883 212.418 144.481C212.248 144.079 212 143.715 211.69 143.409C211.379 143.103 211.01 142.861 210.606 142.697C210.201 142.533 209.769 142.45 209.332 142.454L153.006 142.847C152.57 142.849 152.138 142.937 151.736 143.106C151.333 143.275 150.968 143.522 150.661 143.832C150.354 144.142 150.112 144.51 149.947 144.914C149.782 145.318 149.698 145.75 149.7 146.187C149.704 146.623 149.793 147.054 149.963 147.456C150.133 147.858 150.381 148.223 150.692 148.529C151.003 148.835 151.371 149.077 151.775 149.241C152.18 149.405 152.612 149.487 153.049 149.484Z" fill="#E0E0E0"/>
<path d="M152.946 162.34L209.324 161.947C209.76 161.943 210.192 161.854 210.594 161.684C210.995 161.514 211.36 161.266 211.666 160.955C211.972 160.645 212.214 160.276 212.378 159.872C212.542 159.467 212.624 159.035 212.621 158.598C212.612 157.718 212.255 156.877 211.627 156.259C211 155.641 210.153 155.297 209.273 155.301L152.946 155.694C152.51 155.696 152.079 155.784 151.677 155.954C151.275 156.123 150.911 156.37 150.605 156.68C150.298 156.99 150.056 157.358 149.892 157.762C149.728 158.166 149.646 158.598 149.649 159.034C149.653 159.908 150.002 160.745 150.619 161.364C151.236 161.982 152.072 162.333 152.946 162.34Z" fill="#E0E0E0"/>
<path d="M152.852 175.187L209.179 174.794C209.615 174.793 210.047 174.705 210.449 174.537C210.852 174.368 211.216 174.121 211.523 173.811C211.829 173.5 212.071 173.132 212.235 172.727C212.399 172.323 212.481 171.89 212.476 171.454C212.475 171.018 212.387 170.586 212.219 170.184C212.05 169.781 211.803 169.416 211.493 169.11C211.182 168.803 210.814 168.561 210.41 168.398C210.005 168.234 209.572 168.152 209.136 168.157L152.801 168.541C151.921 168.55 151.079 168.907 150.462 169.535C149.844 170.162 149.499 171.009 149.504 171.89C149.507 172.326 149.597 172.757 149.767 173.159C149.937 173.561 150.184 173.926 150.495 174.232C150.806 174.538 151.174 174.78 151.579 174.944C151.983 175.108 152.416 175.19 152.852 175.187Z" fill="#E0E0E0"/>
<path d="M152.75 188.034L209.085 187.65C209.966 187.641 210.807 187.283 211.425 186.656C212.043 186.028 212.387 185.182 212.382 184.301C212.373 183.421 212.016 182.579 211.389 181.962C210.761 181.344 209.914 180.999 209.034 181.004L152.707 181.397C152.272 181.399 151.84 181.487 151.438 181.657C151.037 181.826 150.672 182.072 150.366 182.383C150.06 182.693 149.818 183.061 149.654 183.465C149.49 183.869 149.407 184.301 149.41 184.737C149.412 185.173 149.501 185.604 149.67 186.006C149.839 186.408 150.086 186.772 150.396 187.078C150.706 187.385 151.074 187.627 151.478 187.791C151.882 187.955 152.314 188.037 152.75 188.034Z" fill="#E0E0E0"/>
<path d="M152.656 200.89L208.982 200.497C209.419 200.496 209.851 200.408 210.253 200.24C210.655 200.071 211.02 199.824 211.327 199.514C211.633 199.203 211.875 198.835 212.039 198.431C212.202 198.026 212.284 197.593 212.28 197.157C212.279 196.721 212.191 196.289 212.022 195.887C211.854 195.484 211.607 195.119 211.296 194.813C210.986 194.506 210.618 194.264 210.213 194.101C209.809 193.937 209.376 193.855 208.94 193.86L152.588 194.27C151.707 194.279 150.866 194.636 150.248 195.264C149.63 195.891 149.286 196.738 149.291 197.618C149.304 198.498 149.666 199.337 150.297 199.95C150.928 200.563 151.776 200.901 152.656 200.89Z" fill="#E0E0E0"/>
<path d="M222.633 187.086L279.01 187.436C279.446 187.438 279.879 187.355 280.283 187.19C280.687 187.025 281.055 186.782 281.365 186.475C281.675 186.168 281.922 185.803 282.091 185.401C282.26 184.998 282.348 184.567 282.35 184.13C282.355 183.251 282.01 182.405 281.392 181.779C280.774 181.153 279.933 180.797 279.053 180.79L222.718 180.44C222.282 180.438 221.849 180.522 221.445 180.687C221.041 180.852 220.673 181.094 220.363 181.401C220.053 181.708 219.806 182.073 219.637 182.476C219.468 182.878 219.38 183.31 219.378 183.746C219.373 184.619 219.712 185.458 220.321 186.083C220.93 186.708 221.76 187.068 222.633 187.086Z" fill="#E0E0E0"/>
<path d="M222.376 199.933L278.711 200.283C279.592 200.286 280.437 199.939 281.063 199.32C281.689 198.7 282.044 197.858 282.051 196.978C282.053 196.097 281.707 195.251 281.087 194.626C280.468 194 279.626 193.645 278.745 193.638L222.419 193.296C221.982 193.292 221.55 193.373 221.145 193.537C220.741 193.701 220.373 193.943 220.062 194.249C219.752 194.556 219.505 194.921 219.336 195.323C219.167 195.725 219.08 196.157 219.079 196.593C219.074 197.03 219.156 197.462 219.32 197.867C219.483 198.271 219.725 198.639 220.032 198.95C220.338 199.26 220.703 199.507 221.106 199.676C221.508 199.845 221.94 199.932 222.376 199.933Z" fill="#E0E0E0"/>
<path d="M222.009 213.489L278.387 213.831C279.266 213.836 280.112 213.491 280.738 212.873C281.364 212.255 281.72 211.414 281.727 210.534C281.729 210.097 281.645 209.665 281.48 209.261C281.315 208.857 281.072 208.489 280.765 208.179C280.458 207.869 280.093 207.622 279.691 207.453C279.289 207.284 278.857 207.196 278.421 207.194L222.094 206.844C221.215 206.839 220.369 207.184 219.743 207.802C219.117 208.42 218.761 209.261 218.754 210.141C218.748 211.015 219.085 211.856 219.694 212.483C220.304 213.11 221.135 213.471 222.009 213.489Z" fill="#E0E0E0"/>
<path d="M221.641 227.037L278.019 227.387C278.9 227.39 279.745 227.043 280.371 226.424C280.997 225.804 281.352 224.962 281.359 224.082C281.361 223.645 281.277 223.213 281.112 222.809C280.948 222.405 280.705 222.037 280.398 221.727C280.091 221.417 279.726 221.17 279.323 221.001C278.921 220.832 278.489 220.744 278.053 220.742L221.727 220.391C221.29 220.389 220.858 220.473 220.454 220.638C220.05 220.803 219.682 221.046 219.372 221.353C219.062 221.66 218.815 222.025 218.646 222.427C218.477 222.829 218.389 223.261 218.387 223.697C218.38 224.57 218.718 225.411 219.327 226.036C219.937 226.662 220.768 227.021 221.641 227.037Z" fill="#E0E0E0"/>
<path d="M221.274 240.585L277.609 240.935C278.488 240.937 279.332 240.592 279.958 239.974C280.584 239.357 280.94 238.517 280.949 237.638C280.953 236.756 280.608 235.908 279.988 235.28C279.368 234.652 278.525 234.296 277.643 234.289L221.317 233.948C220.88 233.943 220.448 234.025 220.043 234.189C219.639 234.352 219.271 234.594 218.96 234.901C218.65 235.207 218.403 235.572 218.234 235.975C218.065 236.377 217.978 236.809 217.977 237.245C217.972 237.681 218.054 238.114 218.218 238.519C218.381 238.923 218.623 239.291 218.93 239.602C219.236 239.912 219.601 240.159 220.004 240.328C220.406 240.496 220.838 240.584 221.274 240.585Z" fill="#E0E0E0"/>
<path d="M220.924 254.141L277.259 254.483C278.139 254.487 278.984 254.143 279.611 253.525C280.237 252.907 280.592 252.065 280.599 251.186C280.601 250.749 280.517 250.317 280.352 249.913C280.188 249.509 279.945 249.141 279.638 248.831C279.331 248.521 278.966 248.274 278.563 248.105C278.161 247.936 277.729 247.848 277.293 247.846L220.924 247.495C220.044 247.491 219.199 247.835 218.572 248.454C217.946 249.072 217.591 249.913 217.584 250.793C217.581 251.233 217.665 251.669 217.831 252.076C217.998 252.483 218.244 252.853 218.554 253.165C218.865 253.476 219.234 253.723 219.641 253.891C220.048 254.058 220.484 254.143 220.924 254.141Z" fill="#E0E0E0"/>
<path d="M220.54 267.731L276.874 268.082C277.755 268.084 278.601 267.737 279.227 267.118C279.853 266.499 280.208 265.656 280.214 264.776C280.217 264.34 280.133 263.907 279.968 263.503C279.803 263.099 279.56 262.731 279.253 262.421C278.946 262.111 278.581 261.864 278.179 261.695C277.777 261.526 277.345 261.438 276.909 261.436L220.582 261.086C220.146 261.083 219.713 261.167 219.309 261.332C218.905 261.497 218.538 261.74 218.228 262.047C217.918 262.354 217.671 262.719 217.502 263.121C217.333 263.523 217.245 263.955 217.242 264.392C217.238 264.828 217.32 265.261 217.483 265.665C217.647 266.07 217.889 266.438 218.195 266.748C218.502 267.059 218.867 267.305 219.269 267.474C219.672 267.643 220.103 267.73 220.54 267.731Z" fill="#E0E0E0"/>
<path d="M148.658 279.912L276.729 280.707C277.166 280.709 277.598 280.625 278.002 280.46C278.406 280.296 278.774 280.053 279.084 279.746C279.394 279.439 279.641 279.074 279.81 278.671C279.979 278.269 280.067 277.837 280.069 277.401C280.074 276.521 279.729 275.676 279.111 275.049C278.493 274.423 277.652 274.068 276.772 274.061L148.701 273.275C148.409 273.273 148.12 273.328 147.85 273.438C147.58 273.547 147.333 273.709 147.126 273.914C146.918 274.118 146.752 274.362 146.639 274.63C146.525 274.899 146.465 275.187 146.463 275.479V277.674C146.46 277.966 146.514 278.255 146.622 278.525C146.731 278.795 146.892 279.041 147.096 279.249C147.3 279.457 147.543 279.623 147.811 279.737C148.079 279.85 148.367 279.91 148.658 279.912Z" fill="#E0E0E0"/>
<path d="M153.647 107.038L190.924 106.782C191.361 106.779 191.792 106.689 192.194 106.519C192.596 106.349 192.96 106.102 193.266 105.791C193.573 105.48 193.815 105.112 193.978 104.707C194.142 104.303 194.225 103.87 194.222 103.434C194.215 102.554 193.859 101.713 193.233 101.094C192.607 100.476 191.761 100.132 190.882 100.136L153.604 100.401C153.168 100.402 152.736 100.49 152.334 100.658C151.931 100.827 151.566 101.074 151.26 101.384C150.953 101.695 150.711 102.063 150.548 102.467C150.384 102.872 150.302 103.305 150.307 103.741C150.309 104.177 150.397 104.608 150.566 105.01C150.736 105.412 150.982 105.776 151.293 106.083C151.603 106.389 151.971 106.631 152.375 106.795C152.778 106.959 153.211 107.042 153.647 107.038Z" fill="#E0E0E0"/>
<path d="M195.153 64.9601L197.51 62.6879L225.862 62.5427L227.262 65.0455L195.153 64.9601Z" fill="#263238"/>
<path d="M227.238 78.1111L227.261 65.0247L195.16 64.9686L195.137 78.055L227.238 78.1111Z" fill="#263238"/>
<path d="M228.331 78.5588L228.332 78.0805C228.333 77.4907 227.855 77.0119 227.266 77.011L195.071 76.9604C194.481 76.9595 194.002 77.4368 194.001 78.0265L194.001 78.5049C194 79.0946 194.477 79.5734 195.067 79.5743L227.262 79.6249C227.851 79.6258 228.33 79.1485 228.331 78.5588Z" fill="#263238"/>
<path d="M218.267 74.9116H204.147C203.949 74.9137 203.754 74.8682 203.577 74.779C203.4 74.6898 203.247 74.5595 203.131 74.3991C203.015 74.2429 202.94 74.0602 202.913 73.8677C202.887 73.6752 202.908 73.479 202.977 73.2971L207.009 62.4316C206.102 61.8003 205.355 60.9655 204.829 59.994C204.302 59.0224 204.01 57.9411 203.977 56.8366C203.963 54.9299 204.699 53.0942 206.027 51.726C207.356 50.3579 209.169 49.5672 211.075 49.5246C212.061 49.4841 213.045 49.6399 213.971 49.9831C214.896 50.3262 215.744 50.8498 216.465 51.5234C217.243 52.2408 217.848 53.1253 218.235 54.1104C218.622 55.0954 218.78 56.1554 218.698 57.2105C218.615 58.2655 218.295 59.2882 217.76 60.2014C217.225 61.1147 216.491 61.8948 215.611 62.4829L219.446 73.3569C219.509 73.5388 219.527 73.7331 219.499 73.9235C219.471 74.1138 219.397 74.2946 219.284 74.4503C219.161 74.5994 219.005 74.7184 218.829 74.7983C218.653 74.8783 218.461 74.917 218.267 74.9116ZM211.254 50.3446H211.084C209.415 50.4042 207.834 51.107 206.671 52.3059C205.509 53.5049 204.856 55.107 204.848 56.7768C204.875 57.8066 205.157 58.8137 205.668 59.7081C206.179 60.6025 206.904 61.3562 207.778 61.902L208.068 62.09L203.797 73.5876C203.776 73.6395 203.77 73.6958 203.777 73.7512C203.784 73.8066 203.806 73.8591 203.84 73.9036C203.873 73.9495 203.917 73.9866 203.967 74.0119C204.018 74.0372 204.074 74.0499 204.13 74.0488H218.25C218.306 74.0509 218.362 74.0395 218.412 74.0157C218.463 73.992 218.507 73.9564 218.541 73.9122C218.574 73.8676 218.596 73.8151 218.604 73.7597C218.611 73.7044 218.604 73.648 218.583 73.5961L214.526 62.09L214.825 61.9106C215.732 61.3605 216.483 60.5873 217.006 59.6647C217.53 58.7421 217.808 57.7008 217.815 56.6401C217.816 55.7893 217.641 54.9474 217.3 54.168C216.959 53.3886 216.459 52.6887 215.833 52.1128C214.594 50.9509 212.952 50.3167 211.254 50.3446Z" fill="#455A64"/>
<path d="M226.998 77.0128C226.893 77.0036 226.787 77.0036 226.682 77.0128H225.759H222.343L211.144 76.9445H199.945H196.528H195.606C195.498 76.9335 195.389 76.9335 195.281 76.9445C195.389 76.9555 195.498 76.9555 195.606 76.9445H196.528L199.945 76.9958C202.807 76.9958 206.779 77.0726 211.144 77.0897C215.509 77.1068 219.481 77.0897 222.343 77.0897C223.778 77.0897 224.905 77.0897 225.759 77.047H226.682C226.788 77.05 226.895 77.0386 226.998 77.0128Z" fill="#455A64"/>
<path d="M227.322 64.7721C227.214 64.7647 227.106 64.7647 226.998 64.7721H226.049H222.633L211.528 64.644H200.321H196.904H195.981C195.873 64.633 195.765 64.633 195.657 64.644H195.981H196.904L200.321 64.7038C203.191 64.7038 207.154 64.7721 211.528 64.7892C215.901 64.8063 219.856 64.7892 222.727 64.7892C224.162 64.7892 225.289 64.7892 226.143 64.7379C226.545 64.7379 226.861 64.7379 227.074 64.7379C227.156 64.7581 227.239 64.7695 227.322 64.7721Z" fill="#455A64"/>
<path d="M305.875 309.349C303.775 307.679 301.765 305.9 299.853 304.018C297.84 302.243 295.929 300.355 294.129 298.364C296.233 300.028 298.244 301.808 300.152 303.694C302.164 305.469 304.075 307.357 305.875 309.349Z" fill="#263238"/>
<path d="M146.446 304.591H147.232H149.521L158.345 304.548L191.027 304.462L300.596 304.394L300.374 304.616V287.233C300.374 239.876 300.416 197.003 300.434 165.936C300.434 150.423 300.493 137.875 300.502 129.205C300.502 124.874 300.502 121.517 300.545 119.211C300.545 118.075 300.545 117.203 300.545 116.648C300.545 117.203 300.545 118.109 300.545 119.211C300.545 121.509 300.545 124.874 300.587 129.205C300.587 137.892 300.587 150.441 300.656 165.936C300.656 196.978 300.698 239.85 300.724 287.233V304.813H300.502L191.027 304.736L158.362 304.676L149.538 304.633H147.249C146.711 304.608 146.446 304.591 146.446 304.591Z" fill="#263238"/>
<path d="M203.31 237.834C203.369 242.991 201.898 248.05 199.083 252.372C196.269 256.694 192.237 260.085 187.496 262.116C182.756 264.148 177.52 264.729 172.449 263.787C167.378 262.845 162.7 260.422 159.006 256.823C155.312 253.224 152.767 248.611 151.693 243.567C150.618 238.522 151.063 233.273 152.97 228.481C154.877 223.689 158.161 219.57 162.408 216.643C166.654 213.716 171.673 212.114 176.83 212.037C183.759 211.96 190.436 214.631 195.399 219.466C200.362 224.301 203.207 230.906 203.31 237.834ZM164.743 238.449C164.796 240.914 165.577 243.309 166.989 245.33C168.401 247.351 170.38 248.909 172.677 249.806C174.973 250.704 177.484 250.901 179.892 250.373C182.3 249.846 184.499 248.616 186.209 246.84C187.919 245.065 189.065 242.822 189.502 240.395C189.94 237.969 189.648 235.467 188.665 233.206C187.682 230.945 186.051 229.026 183.978 227.691C181.905 226.356 179.483 225.665 177.018 225.705C173.702 225.767 170.546 227.144 168.245 229.532C165.943 231.92 164.684 235.125 164.743 238.441V238.449Z" fill="#E0E0E0"/>
<path d="M203.31 237.834C203.432 244.771 200.796 251.471 195.982 256.466C191.168 261.461 184.569 264.342 177.633 264.477L177.419 250.81C180.698 250.69 183.799 249.289 186.058 246.909C188.316 244.529 189.551 241.358 189.498 238.078C189.446 234.797 188.11 231.668 185.777 229.361C183.443 227.054 180.299 225.754 177.018 225.739L176.796 212.072C183.725 211.982 190.407 214.644 195.377 219.473C200.347 224.303 203.2 230.905 203.31 237.834Z" fill="#455A64"/>
<path d="M179.982 266.561C176.016 266.657 172.071 265.96 168.377 264.512C164.684 263.063 161.317 260.893 158.473 258.127C155.629 255.361 153.366 252.055 151.815 248.404C150.265 244.752 149.459 240.828 149.444 236.86L165.375 236.604C165.503 244.685 171.662 249.776 179.708 249.648L179.982 266.561Z" fill="#68D64A"/>
<path d="M158.567 237.134C157.568 238.966 156.443 240.727 155.202 242.404C154.076 244.164 152.829 245.842 151.469 247.427C152.467 245.594 153.591 243.833 154.834 242.157C155.956 240.395 157.204 238.716 158.567 237.134Z" fill="#263238"/>
<path d="M165.52 238.466C165.623 238.535 163.393 241.943 160.549 246.077C157.704 250.212 155.304 253.509 155.21 253.441C155.116 253.372 157.337 249.964 160.181 245.83C163.026 241.695 165.401 238.398 165.52 238.466Z" fill="#263238"/>
<path d="M168.894 245.522C167.528 247.899 166.034 250.201 164.418 252.416C162.922 254.717 161.302 256.935 159.566 259.061C160.935 256.684 162.432 254.383 164.051 252.168C165.543 249.866 167.16 247.647 168.894 245.522Z" fill="#263238"/>
<path d="M174.797 249.469C173.427 251.845 171.93 254.147 170.313 256.362C168.819 258.66 167.203 260.876 165.469 262.999C166.838 260.623 168.332 258.322 169.945 256.106C171.443 253.808 173.063 251.593 174.797 249.469Z" fill="#263238"/>
<path d="M179.786 254.44C178.692 256.419 177.47 258.325 176.13 260.146C174.907 262.05 173.56 263.87 172.098 265.596C174.416 261.715 176.984 257.988 179.786 254.44Z" fill="#263238"/>
<path d="M274.679 168.311L225.392 167.73C225.163 167.722 224.946 167.627 224.785 167.465C224.628 167.302 224.542 167.084 224.546 166.858L225.007 128.231C225.007 128.005 225.097 127.787 225.257 127.627C225.418 127.467 225.635 127.377 225.861 127.377C226.088 127.377 226.305 127.467 226.466 127.627C226.626 127.787 226.716 128.005 226.716 128.231L226.263 166.013L274.696 166.585C274.923 166.585 275.14 166.675 275.3 166.835C275.461 166.995 275.551 167.213 275.551 167.439C275.551 167.666 275.461 167.883 275.3 168.043C275.14 168.203 274.923 168.293 274.696 168.293L274.679 168.311Z" fill="#263238"/>
<path d="M238.852 152.075L232.232 151.996L232.088 164.151L238.708 164.229L238.852 152.075Z" fill="#455A64"/>
<path d="M261.829 152.074L255.209 151.996L255.065 164.15L261.684 164.229L261.829 152.074Z" fill="#455A64"/>
<path d="M250.499 142.339L243.879 142.26L243.617 164.357L250.236 164.435L250.499 142.339Z" fill="#68D64A"/>
<path d="M273.398 142.337L266.779 142.258L266.517 164.355L273.136 164.434L273.398 142.337Z" fill="#68D64A"/>
<path d="M231.448 146.708C231.329 146.708 231.212 146.685 231.103 146.637C230.994 146.59 230.896 146.521 230.816 146.434C230.663 146.268 230.583 146.047 230.593 145.821C230.602 145.596 230.701 145.383 230.867 145.23L246.063 131.315C246.211 131.177 246.403 131.097 246.605 131.087C246.807 131.078 247.005 131.14 247.165 131.264L256.749 138.746L277.25 124.148C277.342 124.083 277.445 124.037 277.554 124.011C277.664 123.986 277.777 123.983 277.888 124.002C277.998 124.02 278.104 124.061 278.199 124.12C278.294 124.18 278.377 124.257 278.442 124.349C278.507 124.44 278.553 124.544 278.578 124.653C278.604 124.762 278.607 124.876 278.588 124.986C278.57 125.097 278.529 125.203 278.47 125.298C278.41 125.393 278.333 125.475 278.241 125.54L257.245 140.506C257.098 140.615 256.92 140.674 256.737 140.674C256.554 140.674 256.375 140.615 256.228 140.506L246.712 133.083L232.029 146.486C231.87 146.63 231.662 146.709 231.448 146.708Z" fill="#455A64"/>
<path d="M261.524 132.63C261.524 132.63 257.091 131.195 258.005 124.78C258.919 118.365 262.618 115.879 262.618 115.879C262.618 115.879 266.795 120.244 266.812 125.78C266.829 131.315 263.147 132.613 263.147 132.613L262.396 121.867L261.524 132.63Z" fill="#455A64"/>
<path d="M268.29 132.673C268.29 132.673 266.445 128.12 272.254 124.515C278.062 120.911 282.555 122.217 282.555 122.217C282.555 122.217 281.864 128.547 277.43 132.306C272.997 136.064 269.136 133.766 269.136 133.766L277.678 126.984L268.29 132.673Z" fill="#455A64"/>
<path d="M279.429 106.047H267.837C266.763 106.047 265.733 105.621 264.974 104.861C264.215 104.102 263.788 103.072 263.788 101.998C263.79 100.926 264.218 99.8984 264.977 99.1409C265.736 98.3834 266.765 97.958 267.837 97.958H279.429C280.5 97.958 281.528 98.3837 282.286 99.1414C283.043 99.8991 283.469 100.927 283.469 101.998C283.469 103.071 283.044 104.099 282.286 104.858C281.529 105.617 280.501 106.045 279.429 106.047Z" fill="#E0E0E0"/>
<path d="M43.2912 116.785C41.9666 113.278 40.9491 109.662 40.2502 105.979C39.5533 102.279 39.7852 98.463 40.9251 94.8743C41.113 94.3446 42.736 90.7399 43.2998 90.7826C43.7012 90.7826 42.7274 94.1994 42.941 94.5155C44.8524 97.9173 45.6836 101.82 45.3242 105.706C45.0595 109.471 44.3776 113.195 43.2912 116.81" fill="#263238"/>
<path d="M56.6083 84.7776H57.4625C61.6847 84.9169 65.6996 86.6416 68.7074 89.6081C71.7151 92.5747 73.4949 96.5654 73.6924 100.785C74.0682 108.926 74.3757 117.921 74.1707 122.277C73.7522 131.281 64.689 132.374 64.689 132.374L65.2528 141.89L55.7455 142.206L44.8458 139.216L42.642 102.485C42.1551 93.1061 47.2205 85.0082 56.6083 84.7776Z" fill="#FFBF9D"/>
<path d="M64.689 132.408C60.5267 132.253 56.4956 130.911 53.0718 128.539C53.0718 128.539 55.8223 135.74 64.8427 135.236L64.689 132.408Z" fill="#FF9A6C"/>
<path d="M70.8651 108.371C70.8562 108.707 70.7164 109.026 70.4754 109.261C70.2345 109.495 69.9115 109.627 69.5753 109.626C69.4109 109.633 69.2468 109.607 69.0927 109.549C68.9387 109.492 68.7977 109.404 68.6783 109.291C68.5588 109.178 68.4632 109.042 68.3972 108.891C68.3312 108.74 68.2961 108.578 68.2939 108.413C68.3028 108.079 68.4414 107.761 68.6805 107.526C68.9196 107.292 69.2405 107.16 69.5753 107.158C69.74 107.151 69.9045 107.177 70.0591 107.235C70.2136 107.292 70.3551 107.38 70.4753 107.493C70.5954 107.606 70.6918 107.742 70.7587 107.893C70.8257 108.043 70.8618 108.206 70.8651 108.371Z" fill="#263238"/>
<path d="M71.6338 104.74C71.4715 104.903 70.5233 104.142 69.1395 104.1C67.7557 104.057 66.7136 104.715 66.5769 104.535C66.4402 104.356 66.6794 104.168 67.1321 103.86C67.7427 103.462 68.4625 103.265 69.1908 103.297C69.9134 103.319 70.6102 103.571 71.1811 104.014C71.5825 104.356 71.7192 104.663 71.6338 104.74Z" fill="#263238"/>
<path d="M58.4193 108.704C58.4083 109.039 58.2678 109.358 58.0273 109.592C57.7868 109.826 57.4651 109.958 57.1295 109.96C56.9658 109.967 56.8024 109.941 56.6489 109.884C56.4954 109.826 56.3548 109.739 56.2355 109.627C56.1161 109.515 56.0204 109.38 55.9539 109.23C55.8874 109.081 55.8514 108.919 55.8481 108.755C55.8548 108.419 55.9925 108.099 56.2318 107.863C56.4712 107.627 56.7932 107.493 57.1295 107.491C57.2942 107.484 57.4587 107.51 57.6133 107.568C57.7678 107.625 57.9093 107.713 58.0295 107.826C58.1496 107.939 58.246 108.075 58.3129 108.226C58.3799 108.377 58.416 108.539 58.4193 108.704Z" fill="#263238"/>
<path d="M58.052 104.578C57.8812 104.74 56.933 103.98 55.5492 103.937C54.1654 103.895 53.1232 104.553 52.9866 104.373C52.8499 104.194 53.0891 104.006 53.5418 103.698C54.1562 103.302 54.8782 103.105 55.609 103.135C56.3287 103.159 57.0223 103.41 57.5907 103.852C57.9922 104.211 58.1289 104.518 58.052 104.578Z" fill="#263238"/>
<path d="M62.6562 115.401C63.3914 115.199 64.149 115.09 64.9113 115.076C65.2701 115.076 65.6117 114.991 65.6715 114.752C65.7149 114.39 65.6463 114.023 65.4751 113.701C65.1761 112.847 64.8515 111.924 64.5184 110.968C63.2029 107.081 62.2547 103.895 62.417 103.844C62.5793 103.792 63.7667 106.902 65.0907 110.78C65.4067 111.737 65.7142 112.651 65.9961 113.522C66.207 113.958 66.2555 114.454 66.1328 114.923C66.0794 115.047 65.9973 115.156 65.8934 115.242C65.7895 115.328 65.6666 115.389 65.5349 115.418C65.3363 115.465 65.1323 115.485 64.9284 115.478C64.1709 115.553 63.4069 115.527 62.6562 115.401Z" fill="#263238"/>
<path d="M58.6242 100.307C58.4192 100.657 57.0866 100.239 55.4551 100.145C53.8235 100.051 52.4482 100.264 52.2945 99.8886C52.2262 99.7177 52.5166 99.4102 53.0974 99.1369C53.8715 98.8119 54.7122 98.6772 55.549 98.7439C56.3859 98.7937 57.1993 99.0395 57.9237 99.4615C58.496 99.769 58.7352 100.111 58.6242 100.307Z" fill="#263238"/>
<path d="M71.8388 100.666C71.5484 100.973 70.4208 100.666 69.0712 100.589C67.7215 100.512 66.5598 100.751 66.3035 100.418C66.1925 100.256 66.3719 99.9399 66.8844 99.6495C67.5836 99.2938 68.3651 99.1316 69.148 99.1796C69.9277 99.1999 70.6869 99.4333 71.3433 99.8545C71.8217 100.188 71.9669 100.512 71.8388 100.666Z" fill="#263238"/>
<path d="M43.1547 109.191C43.001 109.123 37.0215 107.149 37.0044 113.317C36.9873 119.484 43.7783 118.442 43.7868 118.263C43.7954 118.083 43.1547 109.191 43.1547 109.191Z" fill="#FFBF9D"/>
<path d="M41.3179 115.683C41.3179 115.683 41.2154 115.76 41.0275 115.845C40.7702 115.951 40.4818 115.951 40.2246 115.845C39.828 115.598 39.5037 115.251 39.2847 114.839C39.0657 114.426 38.9596 113.963 38.9774 113.496C38.9593 112.967 39.0646 112.44 39.2849 111.959C39.3385 111.761 39.4398 111.58 39.5798 111.431C39.7198 111.282 39.8943 111.17 40.0879 111.104C40.2128 111.074 40.3444 111.087 40.4609 111.141C40.5774 111.195 40.6719 111.288 40.7285 111.403C40.8054 111.574 40.7285 111.702 40.7969 111.711C40.8652 111.719 40.9336 111.608 40.8823 111.352C40.8486 111.2 40.7642 111.065 40.6431 110.968C40.4711 110.841 40.2578 110.783 40.0452 110.805C39.7988 110.866 39.5716 110.987 39.3849 111.159C39.1983 111.331 39.0581 111.547 38.9774 111.788C38.7138 112.318 38.5847 112.904 38.6016 113.496C38.6016 114.743 39.2678 115.905 40.1562 116.161C40.3215 116.211 40.496 116.223 40.6663 116.194C40.8366 116.166 40.9982 116.099 41.1386 115.999C41.3094 115.862 41.3436 115.726 41.3179 115.683Z" fill="#FF9A6C"/>
<path d="M69.6351 90.629C70.6259 90.0737 67.6106 86.8619 65.1505 85.76C61.4347 84.1028 55.7542 83.1034 52.3374 84.0516C48.2287 85.2475 44.8204 87.3147 42.7788 91.0732C40.8135 94.9001 39.8997 99.1803 40.1308 103.476C40.0813 104.785 40.3759 106.084 40.985 107.243C41.8392 108.601 43.5476 109.447 43.4536 111.326C43.4312 111.667 43.4771 112.009 43.5886 112.332C43.7 112.654 43.8749 112.951 44.1028 113.206C45.2389 114.402 46.6142 113.265 47.2463 112.129C48.5874 109.703 48.7156 106.825 48.8181 104.049C48.9938 102.085 48.8495 100.106 48.391 98.1887C48.0834 97.1637 47.588 96.1899 47.3403 95.1563C47.1818 94.6427 47.1372 94.1008 47.2095 93.5683C47.2818 93.0357 47.4692 92.5253 47.7588 92.0726C47.9051 91.8845 48.0712 91.7126 48.2543 91.5601C49.1091 90.8034 50.1501 90.2882 51.2701 90.0675C52.3901 89.8468 53.5487 89.9286 54.6267 90.3044C58.1118 91.5088 64.0229 93.3112 65.5947 92.1238C66.695 91.3854 67.6289 90.4253 68.3367 89.305L69.6351 90.629Z" fill="#263238"/>
<path d="M58.3083 116.289C58.5218 116.289 58.5389 117.69 59.7604 118.681C60.982 119.672 62.4939 119.535 62.511 119.697C62.5281 119.86 62.1778 119.979 61.5372 120.005C60.7077 120.024 59.8979 119.752 59.2479 119.236C58.6256 118.739 58.2212 118.019 58.1204 117.229C58.0606 116.639 58.2143 116.281 58.3083 116.289Z" fill="#263238"/>
<path d="M87.3253 249.383L91.8868 249.819C91.8868 249.819 94.3896 234.716 92.741 224.192C91.0923 213.669 81.9267 167.789 81.9267 167.789L70.4291 140.651L68.3363 139.737L65.0391 136.252L79.7485 225.662L87.3253 249.383Z" fill="#455A64"/>
<g opacity="0.3">
<path d="M68.5752 149.851C68.5752 149.851 87.8205 214.882 89.0761 225.423C89.9024 233.482 90.293 241.58 90.2464 249.682L87.2908 249.4L78.279 221.117C78.279 221.117 72.0091 176.101 72.5216 176.255C73.0341 176.408 68.5752 149.851 68.5752 149.851Z" fill="black"/>
</g>
<path d="M78.6812 359.986L78.032 376.839C78.032 376.839 95.2101 383.143 95.398 386.236L62.1779 386.176L62.084 359.986H78.6812Z" fill="#263238"/>
<path d="M67.7646 375.43C67.4463 375.52 67.1734 375.726 66.9995 376.007C66.8256 376.289 66.7633 376.625 66.8249 376.95C66.9025 377.278 67.1045 377.563 67.3882 377.745C67.6719 377.926 68.0152 377.991 68.3454 377.924C68.6827 377.828 68.9716 377.609 69.1551 377.31C69.3386 377.011 69.4032 376.654 69.3363 376.31C69.2095 375.982 68.9612 375.715 68.643 375.566C68.3248 375.416 67.9613 375.395 67.6279 375.507" fill="#E0E0E0"/>
<path d="M62.1777 386.235L62.2717 383.579L94.0823 384.63C94.0823 384.63 95.5601 385.27 95.3978 386.295L62.1777 386.235Z" fill="#455A64"/>
<path d="M78.5699 376.694C78.5699 376.856 77.7584 376.925 76.9554 377.437C76.1525 377.95 75.7339 378.624 75.5802 378.556C75.4264 378.488 75.6741 377.574 76.6565 376.967C77.6388 376.361 78.604 376.549 78.5699 376.694Z" fill="white"/>
<path d="M82.055 378.12C82.055 378.274 81.3887 378.548 80.8335 379.222C80.2783 379.897 80.1245 380.615 79.9793 380.606C79.8341 380.598 79.7145 379.692 80.4149 378.898C81.1154 378.103 82.0465 377.967 82.055 378.12Z" fill="white"/>
<path d="M84.0283 382.195C83.8746 382.195 83.6525 381.435 84.071 380.564C84.4896 379.692 85.2498 379.342 85.3182 379.47C85.3865 379.598 84.9167 380.068 84.5835 380.794C84.2504 381.52 84.1821 382.195 84.0283 382.195Z" fill="white"/>
<path d="M78.2708 372.842C78.2025 372.987 77.4166 372.765 76.5624 372.842C75.7082 372.918 74.9309 373.183 74.854 373.047C74.7771 372.91 75.4605 372.338 76.5624 372.286C77.6644 372.235 78.3648 372.713 78.2708 372.842Z" fill="white"/>
<path d="M39.6268 361.284L38.7213 381.341L42.6507 397.426C42.7151 397.704 42.7213 397.992 42.6689 398.272C42.6165 398.553 42.5066 398.819 42.3461 399.055C42.1856 399.291 41.9781 399.491 41.7365 399.643C41.4949 399.795 41.2245 399.895 40.9423 399.937C40.614 399.993 40.2773 399.97 39.9596 399.87C39.6419 399.771 39.3522 399.598 39.1143 399.365C36.0648 396.358 25.2163 385.091 25.1651 383.989C25.0968 382.281 24.5928 362.506 24.5928 362.506L39.6268 361.284Z" fill="#263238"/>
<path d="M40.9679 399.954L25.1138 382.443V383.297C25.1108 384.032 25.3578 384.746 25.8142 385.322C27.0785 386.851 30.6576 390.993 39.0971 399.39C39.3422 399.631 39.6419 399.809 39.9707 399.909C40.2994 400.008 40.6475 400.027 40.9849 399.963L40.9679 399.954Z" fill="#455A64"/>
<g opacity="0.6">
<path d="M29.4438 376.053C29.5717 376.141 29.6811 376.253 29.7658 376.382C29.8504 376.512 29.9087 376.657 29.9373 376.81C29.9658 376.962 29.9641 377.118 29.9322 377.27C29.9003 377.422 29.8388 377.566 29.7513 377.693C29.6638 377.821 29.552 377.931 29.4222 378.015C29.2925 378.1 29.1473 378.158 28.995 378.187C28.8427 378.215 28.6863 378.214 28.5346 378.182C28.383 378.15 28.2391 378.088 28.1113 378.001C27.8584 377.804 27.6865 377.522 27.6283 377.207C27.57 376.892 27.6294 376.567 27.7952 376.293C28.0107 376.06 28.3053 375.916 28.6213 375.889C28.9373 375.862 29.252 375.954 29.5036 376.147" fill="white"/>
</g>
<path d="M36.5004 391.079C36.9985 390.453 37.6172 389.933 38.3199 389.55C39.0757 389.278 39.8744 389.145 40.6775 389.157C40.6775 389.106 40.4383 388.952 39.9685 388.875C39.3444 388.791 38.7094 388.885 38.1365 389.147C37.5637 389.408 37.0765 389.826 36.731 390.353C36.4833 390.737 36.415 391.062 36.5004 391.079Z" fill="white"/>
<path d="M37.8928 393.795C38.4822 393.475 39.0897 393.19 39.7123 392.941C40.3741 392.835 41.0415 392.766 41.7111 392.736C41.4013 392.536 41.0486 392.413 40.6819 392.376C40.3151 392.339 39.9448 392.389 39.6012 392.523C38.3883 392.864 37.7818 393.736 37.8928 393.795Z" fill="white"/>
<path d="M33.8521 387.568C34.7256 387.019 35.6361 386.531 36.577 386.107C37.5742 385.824 38.5904 385.613 39.6179 385.475C38.56 385.172 37.4291 385.251 36.4232 385.697C35.3699 385.993 34.4575 386.657 33.8521 387.568Z" fill="white"/>
<path d="M33.6299 381.443C33.6811 381.563 34.8172 381.127 36.2865 381.11C37.7557 381.093 38.9003 381.461 38.9516 381.332C38.1616 380.807 37.2136 380.571 36.2694 380.666C35.3259 380.61 34.3923 380.885 33.6299 381.443Z" fill="white"/>
<path d="M33.7411 375.549C34.6365 375.28 35.5651 375.136 36.5002 375.122C37.4254 375.244 38.3303 375.488 39.191 375.848C39.191 375.806 39.003 375.549 38.5418 375.276C37.9258 374.922 37.2353 374.717 36.5258 374.678C35.8148 374.639 35.1044 374.765 34.4501 375.046C33.9547 375.268 33.7155 375.498 33.7411 375.549Z" fill="white"/>
<path d="M36.4832 373.995C36.556 373.751 36.5735 373.494 36.5344 373.243C36.4785 372.543 36.284 371.86 35.9621 371.236C35.7629 370.757 35.4116 370.358 34.9627 370.099C34.8066 370.028 34.6327 370.006 34.4636 370.034C34.2945 370.063 34.138 370.143 34.0145 370.262C33.7939 370.508 33.6722 370.828 33.6729 371.159C33.708 371.845 33.9842 372.498 34.453 373.001C34.9217 373.504 35.5529 373.826 36.2355 373.909C36.9104 373.997 37.5962 373.882 38.2049 373.577C38.8137 373.273 39.3177 372.794 39.6523 372.201C39.7329 372.053 39.7814 371.89 39.7947 371.722C39.8079 371.554 39.7856 371.386 39.7292 371.227C39.6492 371.074 39.5248 370.949 39.3723 370.868C39.2198 370.787 39.0464 370.755 38.875 370.774C38.3726 370.871 37.9043 371.098 37.5168 371.432C36.9535 371.856 36.4705 372.376 36.0903 372.97C35.9352 373.173 35.822 373.405 35.7571 373.653C36.3078 372.907 36.9638 372.245 37.7047 371.688C38.0529 371.411 38.4634 371.224 38.9006 371.142C38.9942 371.126 39.0903 371.141 39.1748 371.184C39.2594 371.227 39.3279 371.296 39.3704 371.381C39.4244 371.598 39.3906 371.828 39.2764 372.021C38.97 372.518 38.5284 372.916 38.0034 373.171C37.4784 373.425 36.8917 373.524 36.3124 373.456C35.7415 373.374 35.2151 373.102 34.8182 372.683C34.4214 372.265 34.1774 371.725 34.1256 371.15C34.1201 370.921 34.1957 370.697 34.3391 370.518C34.4048 370.449 34.4902 370.403 34.5834 370.384C34.6767 370.366 34.7734 370.377 34.8602 370.416C35.236 370.636 35.5344 370.967 35.7144 371.364C36.1294 372.186 36.39 373.078 36.4832 373.995Z" fill="white"/>
<path d="M83.7212 222.313C83.7212 222.313 87.7188 234.17 87.3174 245.48C87.1636 249.853 80.347 370.894 80.347 370.894L60.1707 371.748L60.9566 258.139L59.3165 258.566C59.3165 258.566 50.39 307.35 49.8263 315.217C49.3223 322.29 42.2324 373.807 42.2324 373.807L23.8584 373.312L26.7712 306.906L30.8373 241.721L32.5969 222.724L83.7212 222.313Z" fill="#263238"/>
<path d="M58.5386 246.667C58.8055 246.842 59.0922 246.985 59.3928 247.094C60.2085 247.462 61.0707 247.718 61.9554 247.854C62.5725 247.941 63.2 247.918 63.809 247.786C64.5285 247.647 65.1911 247.299 65.7139 246.786C66.2564 246.204 66.6339 245.487 66.8073 244.71C66.9934 243.913 67.1388 243.106 67.2429 242.293C67.7469 238.996 68.0971 235.989 68.2167 233.811C68.2936 232.717 68.3449 231.838 68.3619 231.248C68.4024 230.931 68.4024 230.609 68.3619 230.292C68.2814 230.599 68.2328 230.914 68.2167 231.231L67.9348 233.794C67.6957 235.963 67.3369 238.919 66.8415 242.242C66.5852 243.873 66.4314 245.522 65.4491 246.513C64.9878 246.921 64.4436 247.225 63.8538 247.404C63.2641 247.582 62.6427 247.631 62.0323 247.546C61.1736 247.443 60.3305 247.236 59.5209 246.931C59.2053 246.804 58.8755 246.715 58.5386 246.667Z" fill="#455A64"/>
<path d="M63.9463 231.001C63.9463 231.001 63.8181 230.898 63.5277 230.89C63.1221 230.898 62.731 231.042 62.4172 231.3C62.1732 231.483 61.9752 231.72 61.8388 231.993C61.7024 232.266 61.6313 232.566 61.6313 232.871C61.6618 233.253 61.8094 233.617 62.054 233.912C62.2986 234.207 62.6283 234.419 62.9981 234.52C63.3602 234.654 63.7546 234.674 64.1286 234.578C64.5026 234.482 64.8383 234.274 65.0909 233.982C65.2716 233.741 65.3942 233.461 65.449 233.165C65.5038 232.868 65.4894 232.563 65.4069 232.273C65.3026 231.882 65.0712 231.537 64.7492 231.291C64.5186 231.137 64.3563 231.112 64.3477 231.137C64.728 231.443 64.9955 231.867 65.108 232.342C65.1602 232.586 65.1583 232.839 65.1022 233.083C65.0461 233.326 64.9373 233.554 64.7834 233.751C64.576 233.969 64.309 234.121 64.0157 234.188C63.7225 234.255 63.4161 234.234 63.1348 234.127C62.8492 234.051 62.5927 233.892 62.3979 233.67C62.2032 233.448 62.079 233.173 62.0414 232.88C62.0366 232.63 62.0869 232.381 62.1887 232.152C62.2906 231.924 62.4415 231.72 62.6308 231.556C62.9955 231.23 63.4583 231.035 63.9463 231.001Z" fill="#455A64"/>
<path d="M32.3232 240.542C32.5472 240.61 32.7818 240.636 33.0152 240.619C33.6477 240.649 34.2816 240.632 34.9115 240.568C36.9823 240.359 39.0034 239.805 40.8909 238.928C42.788 238.049 44.5213 236.853 46.0162 235.391C46.4668 234.954 46.8864 234.486 47.2718 233.99C47.5367 233.64 47.6733 233.435 47.6477 233.418C47.6221 233.401 46.9729 234.127 45.8112 235.178C42.7591 237.948 38.9428 239.734 34.8602 240.303C33.3141 240.482 32.3232 240.474 32.3232 240.542Z" fill="#455A64"/>
<path d="M41.1045 222.732C41.2315 222.808 41.3661 222.871 41.506 222.92L42.7019 223.407C43.744 223.825 45.2645 224.372 47.1694 224.996C49.0742 225.619 51.355 226.285 53.9261 226.926C56.4973 227.567 59.3503 228.148 62.3657 228.635C65.381 229.121 68.2768 229.403 70.9077 229.6C73.5387 229.796 75.9305 229.847 77.9379 229.83C79.9452 229.813 81.5512 229.762 82.6702 229.685L83.9515 229.591C84.1044 229.592 84.2566 229.572 84.4042 229.531C84.2536 229.519 84.1021 229.519 83.9515 229.531H82.6616C81.5512 229.531 79.9282 229.583 77.9379 229.531C75.9476 229.48 73.5643 229.412 70.9334 229.215C68.3024 229.019 65.4237 228.694 62.3913 228.224C59.3589 227.755 56.54 227.165 53.9774 226.559C51.4148 225.952 49.1169 225.312 47.2121 224.714C45.3072 224.116 43.7952 223.62 42.7189 223.244L41.5401 222.852C41.4014 222.791 41.2547 222.751 41.1045 222.732Z" fill="#263238"/>
<path d="M131.317 80.9934C131.184 81.1181 131.041 81.2323 130.89 81.3351C130.6 81.5486 130.156 81.8391 129.626 82.2576C128.094 83.3998 126.633 84.6351 125.252 85.9563C120.639 90.2998 116.994 95.5674 114.555 101.415C112.116 107.263 110.938 113.56 111.098 119.894C111.138 121.809 111.292 123.72 111.56 125.617C111.645 126.292 111.747 126.813 111.799 127.172C111.832 127.349 111.852 127.529 111.859 127.71C111.784 127.544 111.733 127.369 111.705 127.189C111.636 126.839 111.5 126.335 111.389 125.651C111.055 123.751 110.852 121.83 110.782 119.902C110.532 113.513 111.678 107.146 114.14 101.245C116.602 95.3442 120.322 90.0509 125.039 85.7343C126.448 84.424 127.946 83.2137 129.523 82.1124C130.079 81.7195 130.531 81.4547 130.839 81.2582C130.985 81.1483 131.146 81.0592 131.317 80.9934Z" fill="#263238"/>
<path d="M176.026 152.123C176.151 151.988 176.292 151.867 176.445 151.765C176.727 151.543 177.162 151.244 177.692 150.816C179.192 149.637 180.618 148.368 181.963 147.015C186.471 142.563 189.99 137.211 192.291 131.307C194.591 125.404 195.621 119.081 195.314 112.753C195.227 110.838 195.024 108.929 194.708 107.038C194.614 106.364 194.494 105.851 194.443 105.492C194.405 105.312 194.379 105.129 194.366 104.946C194.443 105.114 194.498 105.292 194.528 105.475C194.614 105.825 194.759 106.329 194.879 107.004C195.263 108.895 195.511 110.81 195.622 112.736C196.024 119.118 195.03 125.51 192.709 131.469C190.389 137.427 186.797 142.808 182.185 147.237C180.799 148.577 179.32 149.819 177.76 150.953C177.214 151.363 176.761 151.636 176.462 151.807C176.327 151.926 176.181 152.032 176.026 152.123Z" fill="#263238"/>
<path d="M203.839 110.822C203.901 110.96 203.942 111.107 203.959 111.258L204.198 112.514C204.33 113.174 204.424 113.841 204.48 114.512C204.557 115.298 204.694 116.221 204.702 117.186C204.702 117.682 204.702 118.203 204.762 118.741C204.822 119.279 204.762 119.851 204.762 120.449C204.762 121.628 204.625 122.867 204.514 124.174C204.169 127.008 203.583 129.809 202.763 132.545C201.873 135.274 200.747 137.921 199.397 140.455C198.757 141.599 198.159 142.701 197.493 143.666C197.168 144.153 196.878 144.632 196.561 145.076L195.63 146.323C195.05 147.135 194.443 147.801 193.922 148.399C193.494 148.922 193.038 149.421 192.555 149.894L191.641 150.791C191.541 150.9 191.43 150.997 191.308 151.081C191.385 150.951 191.477 150.831 191.581 150.722L192.436 149.774C192.812 149.364 193.29 148.86 193.743 148.245C194.195 147.63 194.819 146.955 195.374 146.135L196.28 144.879C196.587 144.435 196.869 143.948 197.185 143.461C197.834 142.496 198.407 141.403 199.039 140.258C200.331 137.743 201.414 135.126 202.276 132.434C203.088 129.724 203.68 126.953 204.044 124.148C204.172 122.849 204.318 121.585 204.335 120.458C204.335 119.877 204.395 119.322 204.386 118.749C204.377 118.177 204.386 117.69 204.386 117.195C204.386 116.204 204.292 115.324 204.241 114.538C204.19 113.752 204.104 113.086 204.027 112.539C203.95 111.993 203.908 111.608 203.865 111.266C203.845 111.119 203.836 110.971 203.839 110.822Z" fill="#263238"/>
<path d="M107.955 160.392L99.0282 169.609L98.6694 177.639L109.603 179.654L110.227 174.837L116.198 166.901L107.955 160.392Z" fill="#FFBF9D"/>
<path d="M70.4209 140.72C70.4209 140.72 79.7488 143.949 82.0466 148.621C84.3445 153.294 93.7407 174.341 93.7407 174.341L97.3113 177.527L98.2082 175.349L111.739 177.527C111.739 177.527 109.236 188.709 106.127 193.587C100.933 201.719 91.1439 200.42 88.1201 197.439C85.3951 194.714 83.2852 188.547 83.2852 188.547L70.4209 140.72Z" fill="#455A64"/>
<path d="M111.303 177.502L111.739 174.521L99.9848 172.112L99.1904 175.606L111.303 177.502Z" fill="#E0E0E0"/>
<path d="M77.1348 179.654C77.0525 179.111 77.0012 178.563 76.981 178.014C76.8956 176.963 76.7504 175.452 76.5283 173.572C76.0841 169.822 75.3495 164.654 74.2476 159C73.3694 154.16 72.1447 149.39 70.583 144.726C70.101 143.319 69.5009 141.956 68.7892 140.651C68.2596 139.746 67.8666 139.31 67.935 139.276C68.0467 139.366 68.1471 139.469 68.2339 139.583C68.4982 139.894 68.7408 140.222 68.96 140.566C69.7405 141.848 70.3928 143.204 70.9076 144.615C72.5634 149.263 73.8348 154.04 74.7088 158.897C75.8108 164.569 76.5027 169.754 76.87 173.521C77.0494 175.4 77.1519 176.938 77.186 177.989C77.186 178.518 77.186 178.928 77.186 179.21C77.1911 179.36 77.1738 179.509 77.1348 179.654Z" fill="#263238"/>
<path d="M80.159 149.937C80.2871 149.937 82.2689 161.494 84.5923 175.793C86.9157 190.093 88.7096 201.71 88.59 201.727C88.4704 201.744 86.4801 190.17 84.1567 175.87C81.8332 161.571 80.0394 149.962 80.159 149.937Z" fill="#263238"/>
<path d="M40.1733 137.32L43.6756 129.265L62.7842 141.924L64.877 136.859L72.1804 158.214L82.0294 200.651C82.337 201.812 84.3785 219.247 83.7379 222.356C83.2595 224.594 82.9776 225.995 80.919 226.994L78.9543 227.285L57.8469 227.977L43.4706 146.434L40.1733 137.32Z" fill="#F5F5F5"/>
<g opacity="0.3">
<path d="M30.8205 255.772C30.8205 255.772 58.0783 260.812 64.3396 258.993C70.6009 257.173 69.8578 251.023 69.8578 251.023C69.8578 251.023 69.1915 232.965 68.5765 226.2C67.8675 218.435 65.8601 197.456 65.8601 197.456L30.7607 251.271L30.8205 255.772Z" fill="black"/>
</g>
<path d="M63.3739 150.073L62.8955 159.76L68.7639 212.721C69.1398 214.079 77.2462 222.339 77.2462 222.339L81.5172 210.491L67.8499 158.171L64.9627 149.714L63.3739 150.073Z" fill="#68D64A"/>
<path d="M28.5818 141.924C17.6651 147.288 16.2471 156.847 19.7664 168.473C20.3473 170.395 20.7659 171.437 21.5774 173.692C25.1138 183.558 33.3825 200.745 32.9981 204.349C32.3745 210.893 26.6257 233.777 24.7208 244.941C23.8666 249.665 24.3706 252.1 24.3706 252.1C24.3706 252.1 60.9477 259.514 65.0394 255.986C69.131 252.458 65.2273 233.059 65.0394 222.1C64.8771 209.996 63.0491 189.683 60.6402 179.654C59.0258 172.966 56.6681 161.05 53.9689 153.003C51.7137 146.272 45.8112 135.389 42.42 130.965L39.2765 136.338C39.2765 136.338 32.1439 140.199 28.5818 141.924Z" fill="#455A64"/>
<path d="M33.8521 232.709C34.0085 232.699 34.1654 232.699 34.3219 232.709L35.5861 232.812L40.2244 233.23C44.1538 233.58 49.6207 234.084 55.8308 234.725L55.5745 234.896L58.3678 227.96L58.4959 227.627L58.7009 228.045C50.1588 227.191 42.471 226.456 37.4226 225.918L37.5764 225.824C36.4574 227.908 35.5519 229.6 34.8856 230.83L34.1425 232.197C34.0547 232.372 33.9577 232.543 33.8521 232.709C33.8521 232.709 33.9118 232.564 34.0571 232.256L34.7148 230.89L37.2774 225.645L37.3287 225.542H37.4397C42.5052 225.961 50.1674 226.653 58.7351 227.464H59.0853L58.9315 227.849L58.8034 228.173C57.8382 230.565 56.8985 232.897 56.0016 235.101L55.9333 235.289H55.7539C49.3986 234.605 43.8633 233.939 39.9682 233.469L35.4238 232.906L34.2279 232.752C34.1017 232.747 33.9761 232.733 33.8521 232.709Z" fill="#263238"/>
<g opacity="0.3">
<path d="M35.543 232.906L35.0049 235.05L57.0263 237.424L58.7091 227.797L55.7792 235.058L35.543 232.906Z" fill="black"/>
</g>
<path d="M60.9902 147.007L61.1696 147.365L63.3735 150.073L64.9623 149.689L65.2186 146.144L62.7841 141.924L60.9902 147.007Z" fill="#68D64A"/>
<path d="M100.353 106.099C102.029 97.705 105.663 89.8259 110.961 83.1032C116.259 76.3804 123.07 71.0041 130.839 67.4121C138.608 63.8202 147.116 62.1141 155.67 62.433C164.223 62.7519 172.58 65.0866 180.06 69.2471C187.541 73.4075 193.932 79.276 198.715 86.3746C203.497 93.4731 206.536 101.601 207.582 110.096C208.628 118.591 207.653 127.214 204.736 135.26C201.819 143.307 197.043 150.552 190.796 156.403C182.397 164.278 171.714 169.281 160.287 170.691C148.861 172.101 137.282 169.846 127.22 164.25C117.159 158.653 109.135 150.006 104.306 139.555C99.477 129.103 98.0926 117.388 100.353 106.099ZM203.353 126.651C205.704 114.805 203.747 102.508 197.833 91.9774C191.919 81.447 182.437 73.3758 171.098 69.2187C159.758 65.0616 147.307 65.0923 135.988 69.305C124.669 73.5178 115.227 81.6356 109.365 92.1949C103.503 102.754 101.605 115.061 104.015 126.895C106.425 138.73 112.984 149.314 122.508 156.74C132.033 164.166 143.897 167.946 155.962 167.397C168.027 166.848 179.499 162.007 188.31 153.746C196.031 146.507 201.291 137.032 203.353 126.651Z" fill="#455A64"/>
<path d="M100.353 106.099C102.029 97.705 105.663 89.8259 110.961 83.1032C116.259 76.3804 123.07 71.0041 130.839 67.4121C138.608 63.8202 147.116 62.1141 155.67 62.433C164.223 62.7519 172.58 65.0866 180.06 69.2471C187.541 73.4075 193.932 79.276 198.715 86.3746C203.497 93.4731 206.536 101.601 207.582 110.096C208.628 118.591 207.653 127.214 204.736 135.26C201.819 143.307 197.043 150.552 190.796 156.403C182.397 164.278 171.714 169.281 160.287 170.691C148.861 172.101 137.282 169.846 127.22 164.25C117.159 158.653 109.135 150.006 104.306 139.555C99.477 129.103 98.0926 117.388 100.353 106.099ZM203.353 126.651C205.704 114.805 203.747 102.508 197.833 91.9774C191.919 81.447 182.437 73.3758 171.098 69.2187C159.758 65.0616 147.307 65.0923 135.988 69.305C124.669 73.5178 115.227 81.6356 109.365 92.1949C103.503 102.754 101.605 115.061 104.015 126.895C106.425 138.73 112.984 149.314 122.508 156.74C132.033 164.166 143.897 167.946 155.962 167.397C168.027 166.848 179.499 162.007 188.31 153.746C196.031 146.507 201.291 137.032 203.353 126.651Z" fill="#263238"/>
<g opacity="0.3">
<path d="M100.352 106.098C102.028 97.7048 105.663 89.8257 110.961 83.1029C116.259 76.3802 123.07 71.0038 130.839 67.4119C138.608 63.8199 147.116 62.1139 155.669 62.4327C164.223 62.7516 172.58 65.0864 180.06 69.2468C187.54 73.4073 193.932 79.2758 198.714 86.3743C203.497 93.4729 206.535 101.601 207.582 110.096C208.628 118.591 207.653 127.213 204.736 135.26C201.819 143.307 197.042 150.551 190.795 156.403C182.396 164.277 171.713 169.281 160.287 170.691C148.86 172.101 137.281 169.846 127.22 164.249C117.158 158.653 109.134 150.006 104.305 139.554C99.4765 129.103 98.0921 117.388 100.352 106.098ZM203.352 126.651C205.704 114.804 203.746 102.508 197.832 91.9772C191.918 81.4468 182.437 73.3755 171.097 69.2185C159.758 65.0614 147.306 65.092 135.987 69.3048C124.668 73.5176 115.227 81.6353 109.364 92.1947C103.502 102.754 101.605 115.06 104.015 126.895C106.425 138.729 112.983 149.314 122.508 156.74C132.032 164.166 143.897 167.945 155.962 167.396C168.027 166.847 179.499 162.006 188.31 153.746C196.03 146.507 201.291 137.032 203.352 126.651Z" fill="black"/>
</g>
<path d="M99.0198 103.485C100.696 95.091 104.331 87.2119 109.629 80.4892C114.926 73.7664 121.737 68.3901 129.507 64.7981C137.276 61.2061 145.784 59.5001 154.337 59.819C162.89 60.1378 171.248 62.4726 178.728 66.633C186.208 70.7935 192.6 76.662 197.382 83.7605C202.165 90.8591 205.203 98.987 206.249 107.482C207.296 115.977 206.321 124.6 203.404 132.646C200.487 140.693 195.71 147.938 189.463 153.789C181.062 161.658 170.38 166.656 158.956 168.063C147.532 169.47 135.956 167.214 125.897 161.619C115.838 156.024 107.815 147.38 102.985 136.932C98.1543 126.484 96.766 114.772 99.0198 103.485ZM202.02 124.028C204.371 112.183 202.414 99.8863 196.5 89.3563C190.587 78.8262 181.106 70.755 169.767 66.5976C158.428 62.4402 145.977 62.47 134.658 66.6818C123.34 70.8935 113.898 79.01 108.035 89.5683C102.171 100.127 100.273 112.432 102.681 124.266C105.089 136.101 111.646 146.686 121.169 154.113C130.692 161.54 142.555 165.322 154.619 164.775C166.684 164.229 178.156 159.39 186.969 151.132C194.694 143.892 199.957 134.413 202.02 124.028Z" fill="#263238"/>
<path d="M52.2946 219.896L50.5862 218.187C49.0486 216.693 49.9114 213.284 51.5258 211.627L112.251 148.86L120.375 156.719L59.7262 219.392C57.6676 221.425 54.2764 221.809 52.2946 219.896Z" fill="#263238"/>
<path d="M111.79 156.206C111.956 156.061 112.153 155.955 112.366 155.898C112.58 155.84 112.803 155.832 113.02 155.873C113.392 156.016 113.723 156.248 113.985 156.548C115.975 158.587 117.096 161.319 117.112 164.168C117.112 165.372 116.796 166.73 115.719 167.303L114.506 166.594C114.122 166.107 112.994 165.295 112.849 164.697C112.217 162.135 113.122 162.28 111.542 157.906C111.404 157.632 111.353 157.321 111.397 157.017C111.442 156.713 111.579 156.43 111.79 156.206Z" fill="#FFBF9D"/>
<path d="M112.08 159.777C111.77 159.184 111.363 158.647 110.876 158.188C110.668 157.982 110.413 157.831 110.133 157.748C109.853 157.664 109.556 157.651 109.27 157.71C108.416 157.975 108.014 159.188 108.108 160.315C108.273 161.435 108.629 162.518 109.159 163.518L112.157 170.019L112.738 169.592C112.837 169.672 112.953 169.728 113.077 169.757C113.201 169.787 113.33 169.788 113.454 169.761C113.579 169.734 113.696 169.679 113.796 169.601C113.897 169.523 113.979 169.424 114.036 169.31C114.287 168.753 114.385 168.14 114.318 167.533C114.207 164.805 113.439 162.145 112.08 159.777Z" fill="#FFBF9D"/>
<path d="M110.611 166.269C109.838 164.768 108.822 163.406 107.604 162.237C107.232 161.779 106.754 161.419 106.212 161.186C105.937 161.073 105.633 161.057 105.347 161.139C105.062 161.221 104.813 161.397 104.64 161.639C104.551 161.904 104.525 162.186 104.562 162.463C104.599 162.74 104.699 163.004 104.854 163.236C106.35 166.376 108.062 169.407 109.979 172.308L111.773 170.497C112.627 169.028 111.303 167.789 110.611 166.269Z" fill="#FFBF9D"/>
<path d="M67.1661 186.24L68.7378 185.907L76.9724 178.885L81.4826 175.101C81.8576 174.783 82.3125 174.573 82.798 174.495L87.257 173.752C87.4365 174.337 87.4008 174.966 87.1564 175.527C86.912 176.088 86.475 176.543 85.9244 176.81L83.4814 178.04L81.2434 180.679L81.5338 181.252C81.5338 181.252 96.1834 183.532 97.0974 184.668C97.2473 184.839 97.3571 185.041 97.4187 185.259C97.4804 185.477 97.4925 185.707 97.454 185.93C97.4155 186.154 97.3274 186.366 97.1963 186.551C97.0651 186.736 96.8942 186.89 96.696 187C96.3367 187.124 95.9528 187.159 95.577 187.103C95.577 187.103 96.286 188.811 94.1504 190.255C94.1504 190.255 95.782 192.39 92.9375 193.407C92.4068 194.39 91.5393 195.148 90.4944 195.543C86.7629 196.25 82.9961 196.758 79.2104 197.063H68.7036L66.5938 197.405L67.1661 186.24Z" fill="#FFBF9D"/>
<path d="M95.9104 187.146C94.5835 187.453 93.2132 187.525 91.8615 187.359C90.5041 187.328 89.1558 187.13 87.8467 186.77C89.1947 186.681 90.5482 186.726 91.8871 186.907C93.2315 186.913 94.5746 186.993 95.9104 187.146Z" fill="#FF9A6C"/>
<path d="M94.151 190.272C94.151 190.34 93.7752 190.392 93.1601 190.468C92.5451 190.545 91.708 190.665 90.7513 190.725C89.9423 190.755 89.1323 190.738 88.3253 190.673C87.9867 190.688 87.6476 190.656 87.3174 190.58C87.3174 190.52 87.6932 190.392 88.3168 190.349C88.9404 190.306 89.8031 190.349 90.7257 190.263C91.6482 190.178 92.5195 190.135 93.1431 190.144C93.7666 190.152 94.151 190.212 94.151 190.272Z" fill="#FF9A6C"/>
<path d="M93.2279 193.356C91.9348 193.686 90.6074 193.864 89.273 193.885C88.3543 193.894 87.4418 194.038 86.5651 194.313C85.9245 194.552 85.6255 194.902 85.5743 194.842C85.523 194.782 85.7536 194.364 86.4285 193.988C87.3131 193.606 88.2665 193.408 89.2303 193.407C90.5563 193.235 91.8979 193.218 93.2279 193.356Z" fill="#FF9A6C"/>
<path d="M62.6392 186.702L65.0224 200.642L71.4802 198.746L69.5411 184.122L62.6392 186.702Z" fill="#E0E0E0"/>
<path d="M62.6389 186.701C62.7798 186.619 62.9286 186.55 63.0831 186.496L64.4242 185.95L69.4811 183.968L69.669 183.891V184.105C70.1815 187.838 70.8478 192.741 71.591 198.097C71.591 198.313 71.6166 198.518 71.6679 198.712V198.9L71.4885 198.959L65.0136 200.839L64.7915 200.907L64.7488 200.676C64.0654 196.559 63.5102 193.04 63.1258 190.58C62.955 189.392 62.8097 188.435 62.6987 187.709C62.6384 187.376 62.5984 187.04 62.5791 186.701C62.6819 187.052 62.7618 187.408 62.8183 187.769C62.9635 188.504 63.1429 189.478 63.3735 190.656C63.8348 193.125 64.4584 196.576 65.1674 200.608L64.9025 200.437L71.4372 198.541L71.2749 198.78L71.198 198.165C70.5061 192.8 69.874 187.914 69.3871 184.156L69.6092 184.284L64.6036 186.069L63.1941 186.548C63.0148 186.618 62.8287 186.669 62.6389 186.701Z" fill="#263238"/>
<path d="M29.6925 141.403C29.6925 141.403 18.9124 145.674 18.0924 155.796C17.4517 163.655 19.9631 187.257 20.3133 191.451C21.3298 203.871 25.0115 211.149 34.5017 212.635C41.0534 213.66 67.9097 200.813 67.9097 200.813L65.4667 185.437L40.6947 192.655L38.2944 163.108C38.2944 163.108 38.0637 160.794 37.4402 157.71" fill="#455A64"/>
<path d="M37.4058 157.727C37.4058 157.727 37.4656 157.932 37.551 158.333C37.6364 158.735 37.7645 159.341 37.9012 160.136C38.0379 160.93 38.2002 161.921 38.3454 163.091C38.4906 164.262 38.5589 165.611 38.6956 167.132C39.2081 173.214 39.9427 181.961 40.8397 192.655L40.6261 192.502L65.3981 185.258L65.6287 185.19V185.42L68.0803 200.796V200.958L67.9351 201.027C61.8104 203.905 55.3355 206.775 48.5275 209.355C45.4202 210.569 42.239 211.585 39.0031 212.396C38.2009 212.591 37.388 212.739 36.5686 212.84C35.7457 212.977 34.9058 212.977 34.0829 212.84C32.5027 212.562 30.9698 212.062 29.53 211.354C28.0987 210.629 26.8085 209.654 25.7202 208.475C24.6795 207.316 23.816 206.009 23.1576 204.597C21.9141 201.85 21.0713 198.939 20.6548 195.953C20.202 193.048 20.0654 190.204 19.8006 187.453C19.5358 184.703 19.3051 182.029 19.0745 179.441C18.6303 174.264 18.2801 169.438 18.0665 165.022C17.964 162.818 17.8957 160.751 17.9128 158.718C17.9128 157.727 17.964 156.753 18.0238 155.814C18.1164 154.903 18.2879 154.003 18.5363 153.123C18.7591 152.305 19.0447 151.505 19.3905 150.731C19.7483 150.026 20.1506 149.344 20.595 148.689C21.3648 147.557 22.2587 146.514 23.2601 145.58C24.6525 144.279 26.2021 143.157 27.8728 142.24C28.4451 141.933 28.8893 141.719 29.1968 141.582C29.5043 141.446 29.6666 141.403 29.6666 141.403L29.2139 141.625C28.9149 141.77 28.4793 141.992 27.9155 142.317C26.2669 143.247 24.7356 144.371 23.3541 145.666C21.787 147.132 20.4965 148.868 19.5443 150.791C19.1946 151.555 18.9088 152.346 18.6901 153.157C18.4584 154.025 18.2956 154.911 18.2032 155.805C18.152 156.736 18.1092 157.693 18.1178 158.692C18.1178 160.674 18.1861 162.775 18.2972 164.979C18.5278 169.378 18.9037 174.205 19.3564 179.373C19.5956 181.964 19.8433 184.634 20.0995 187.385C20.3985 190.136 20.5523 192.989 21.005 195.85C21.4136 198.801 22.245 201.678 23.4737 204.392C24.1399 205.769 25.0031 207.04 26.0363 208.168C27.0966 209.302 28.345 210.244 29.7264 210.953C31.1512 211.64 32.6672 212.121 34.2281 212.379C35.0087 212.507 35.8051 212.507 36.5857 212.379C37.3899 212.278 38.1882 212.136 38.9775 211.952C42.1953 211.14 45.3592 210.127 48.4506 208.92C55.233 206.357 61.7079 203.487 67.824 200.617L67.6959 200.847L65.27 185.472L65.5348 185.634L40.7628 192.818L40.5578 192.878V192.664C39.7036 181.961 39.0373 173.214 38.5589 167.132C38.4479 165.611 38.3454 164.262 38.2514 163.091C38.1575 161.921 37.9866 160.939 37.867 160.136C37.7474 159.333 37.6364 158.752 37.5595 158.325C37.4826 157.898 37.4058 157.727 37.4058 157.727Z" fill="#263238"/>
<path d="M59.6235 174.469C59.5366 174.355 59.4622 174.232 59.4014 174.102L58.8291 173.009C58.3593 172.052 57.6418 170.677 56.7278 168.994C54.9339 165.577 52.2603 161.05 49.3303 155.993C46.4004 150.936 43.8976 146.255 42.2831 142.778C41.4289 141.07 40.8481 139.618 40.4637 138.618C40.2843 138.157 40.1305 137.764 40.0109 137.465C39.9551 137.333 39.9122 137.196 39.8828 137.055C39.9707 137.17 40.0425 137.297 40.0964 137.431C40.233 137.739 40.4124 138.106 40.6174 138.55C41.0531 139.524 41.7194 140.925 42.565 142.642C44.2734 146.059 46.7763 150.714 49.7147 155.771C52.6532 160.828 55.2756 165.423 57.0096 168.849C57.8639 170.557 58.5558 171.949 58.9914 172.932L59.4783 174.068C59.5487 174.193 59.5977 174.328 59.6235 174.469Z" fill="#263238"/>
<path d="M36.8503 154.6C36.782 154.6 36.7478 153.943 36.5171 152.892C35.9432 150.182 34.4306 147.762 32.2461 146.058C31.7657 145.743 31.3037 145.401 30.8623 145.033C31.4318 145.183 31.966 145.444 32.434 145.802C33.6141 146.604 34.6172 147.639 35.3812 148.844C36.1452 150.049 36.6539 151.397 36.8759 152.806C36.9969 153.399 36.9881 154.011 36.8503 154.6Z" fill="#263238"/>
<path d="M36.7051 198.942C36.8347 197.517 37.3419 196.152 38.1743 194.987C38.8778 193.741 39.9049 192.708 41.147 191.998C40.2373 193.029 39.382 194.106 38.5843 195.226C37.8932 196.431 37.266 197.672 36.7051 198.942Z" fill="#263238"/>
<path d="M62.8951 142.24C62.8864 142.505 62.8375 142.767 62.7499 143.017C62.6218 143.513 62.3997 144.222 62.0836 145.093C61.4601 146.801 60.4777 149.185 59.2391 151.756L59.1281 151.986L58.9231 151.85C58.701 151.705 58.4618 151.568 58.2397 151.397C56.17 149.811 54.2174 148.079 52.3969 146.212L50.6885 144.555C50.4676 144.365 50.2698 144.15 50.0991 143.914C50.3545 144.057 50.5924 144.229 50.8081 144.427C51.2352 144.785 51.8417 145.281 52.5763 145.99C54.0712 147.305 55.9931 149.253 58.4618 151.03C58.6754 151.201 58.906 151.329 59.1195 151.474L58.8035 151.568C60.0421 149.005 61.0757 146.673 61.7676 144.982C62.4595 143.291 62.8268 142.223 62.8951 142.24Z" fill="#263238"/>
<path d="M68.5755 145.828C68.4788 146.157 68.3411 146.473 68.1654 146.767C67.8047 147.568 67.3969 148.347 66.9439 149.099L66.7646 149.373L66.5852 149.091C66.3204 148.681 66.047 148.237 65.7822 147.733C64.8773 146.243 64.1301 144.662 63.5527 143.017C64.5223 144.459 65.3955 145.962 66.1666 147.519C66.44 147.997 66.6962 148.459 66.9439 148.869H66.5937C67.166 148.014 67.576 147.16 67.9263 146.648C68.2765 146.135 68.5328 145.802 68.5755 145.828Z" fill="#263238"/>
<path fill-rule="evenodd" clip-rule="evenodd" d="M145.386 89.2024L136.468 104.92L133.905 104.356L138.834 111.412L149.332 110.558L147.462 109.652L152.8 100.99L155.26 105.338L158.677 111.386L168.689 105.287L159.113 89.5014L145.386 89.2024Z" fill="#68D64A"/>
<g opacity="0.3">
<path fill-rule="evenodd" clip-rule="evenodd" d="M159.07 89.5015L152.766 100.991L158.634 111.386L168.645 105.287L159.07 89.5015Z" fill="black"/>
</g>
<path fill-rule="evenodd" clip-rule="evenodd" d="M130.505 136.517L147.214 136.884L147.367 139.037L151.732 131.059L148.059 122.679L147.701 125.088L138.065 124.814L140.961 120.21L144.104 115.666L133.982 109.763L124.816 124.618L130.505 136.517Z" fill="#68D64A"/>
<g opacity="0.3">
<path fill-rule="evenodd" clip-rule="evenodd" d="M124.833 124.481L138.082 124.686L144.121 115.538L133.999 109.635L124.833 124.481Z" fill="black"/>
</g>
<path fill-rule="evenodd" clip-rule="evenodd" d="M179.776 126.42L171.311 110.6L174.053 108.977L164.358 109.088L158.216 117.511L161.077 116.563L165.852 126.352L160.864 126.104L153.936 125.754L153.74 137.474L172.199 137.824L179.776 126.42Z" fill="#68D64A"/>
<g opacity="0.3">
<path fill-rule="evenodd" clip-rule="evenodd" d="M172.199 137.696L165.86 126.215L153.936 125.626L153.739 137.337L172.199 137.696Z" fill="black"/>
</g>
</svg>
