<svg width="120" height="120" viewBox="0 0 120 120" fill="none" xmlns="http://www.w3.org/2000/svg">
<path d="M119.637 0.325195H0.237305V119.725H119.637V0.325195Z" fill="white" fill-opacity="0.2"/>
<path d="M62.4935 69.3198L95.4094 69.7698C95.1594 87.2716 80.4078 101.623 62.4935 101.623H62.2935L62.4935 69.3198Z" fill="white" fill-opacity="0.5"/>
<path d="M57.2804 64.6193L56.8178 96.9227C38.9285 96.6727 24.3145 82.1712 24.3145 64.6193C24.3145 47.0675 39.1785 32.316 57.2429 32.316C75.3073 32.316 90.1713 46.905 90.1713 64.6193H57.2804Z" fill="#3780EF"/>
<path d="M119.525 0.325195H0.237305V23.8151H119.525V0.325195Z" fill="#E0E0E0" fill-opacity="0.4"/>
<path d="M14.151 15.4518C16.0221 15.4518 17.5389 13.935 17.5389 12.0639C17.5389 10.1929 16.0221 8.67609 14.151 8.67609C12.28 8.67609 10.7632 10.1929 10.7632 12.0639C10.7632 13.935 12.28 15.4518 14.151 15.4518Z" fill="white"/>
<path d="M25.5646 15.4518C27.4357 15.4518 28.9525 13.935 28.9525 12.0639C28.9525 10.1929 27.4357 8.67609 25.5646 8.67609C23.6936 8.67609 22.1768 10.1929 22.1768 12.0639C22.1768 13.935 23.6936 15.4518 25.5646 15.4518Z" fill="white"/>
<path d="M40.3665 12.114C40.3665 12.7841 40.1678 13.4391 39.7956 13.9962C39.4233 14.5533 38.8942 14.9875 38.2751 15.244C37.6561 15.5004 36.9749 15.5675 36.3177 15.4368C35.6606 15.306 35.0569 14.9834 34.5831 14.5096C34.1093 14.0358 33.7866 13.4321 33.6559 12.7749C33.5252 12.1178 33.5923 11.4366 33.8487 10.8175C34.1051 10.1985 34.5394 9.66936 35.0965 9.2971C35.6536 8.92484 36.3086 8.72614 36.9787 8.72614C37.8772 8.72614 38.7389 9.08308 39.3743 9.71842C40.0096 10.3538 40.3665 11.2155 40.3665 12.114Z" fill="white"/>
</svg>
