<svg width="399" height="400" viewBox="0 0 399 400" fill="none" xmlns="http://www.w3.org/2000/svg">
<path d="M398.5 368.135C398.5 368.258 313.714 368.364 209.151 368.364C104.588 368.364 19.7847 368.258 19.7847 368.135C19.7847 368.012 104.553 367.907 209.151 367.907C313.749 367.907 398.5 368.003 398.5 368.135Z" fill="#263238"/>
<path d="M317.416 149.957V79.3573C317.417 77.1334 316.98 74.9311 316.13 72.8761C315.28 70.8212 314.033 68.9539 312.461 67.381C310.889 65.808 309.022 64.5602 306.968 63.7089C304.913 62.8576 302.711 62.4194 300.487 62.4194H278.961C278.259 62.4343 277.567 62.5873 276.924 62.8696C276.282 63.152 275.701 63.5583 275.215 64.0652C274.729 64.572 274.348 65.1697 274.094 65.8239C273.839 66.4781 273.716 67.176 273.731 67.8779V71.7893C273.759 73.2061 273.225 74.5763 272.244 75.5995C271.264 76.6227 269.918 77.2155 268.501 77.2477H226.539C225.837 77.2318 225.145 77.0777 224.503 76.7942C223.861 76.5108 223.28 76.1036 222.796 75.5959C222.311 75.0882 221.931 74.4899 221.677 73.8352C221.424 73.1806 221.301 72.4824 221.318 71.7805V67.8779C221.348 66.4596 220.815 65.0871 219.834 64.062C218.854 63.0369 217.506 62.4429 216.088 62.4106H189.692C185.199 62.4106 180.89 64.1949 177.712 67.3711C174.534 70.5473 172.748 74.8555 172.746 79.3485L172.693 351.04C172.693 355.531 174.476 359.839 177.65 363.017C180.825 366.194 185.13 367.982 189.622 367.986L300.434 368.048C302.659 368.049 304.861 367.612 306.917 366.762C308.972 365.912 310.84 364.665 312.414 363.093C313.987 361.521 315.236 359.655 316.088 357.6C316.941 355.545 317.38 353.343 317.381 351.119V150.018" fill="white"/>
<path d="M317.424 128.923V79.2254C317.392 74.7585 315.595 70.4854 312.426 67.3374C309.256 64.1894 304.971 62.4216 300.504 62.4194H278.978C278.276 62.4343 277.584 62.5873 276.941 62.8696C276.299 63.152 275.718 63.5583 275.232 64.0652C274.747 64.572 274.366 65.1697 274.111 65.8239C273.856 66.4781 273.733 67.176 273.748 67.8779V71.7893C273.776 73.2061 273.242 74.5763 272.261 75.5995C271.281 76.6227 269.935 77.2155 268.518 77.2477H226.556C225.854 77.2318 225.162 77.0777 224.52 76.7942C223.878 76.5108 223.298 76.1036 222.813 75.5959C222.328 75.0882 221.948 74.4899 221.694 73.8352C221.441 73.1806 221.319 72.4824 221.335 71.7805V67.8779C221.366 66.4596 220.832 65.0871 219.851 64.062C218.871 63.0369 217.523 62.4429 216.105 62.4106H189.692C185.199 62.4106 180.89 64.1949 177.712 67.3711C174.534 70.5473 172.747 74.8555 172.745 79.3485V128.984L317.424 128.923Z" fill="#F78D2F"/>
<path d="M207.141 94.2302H190.3C187.97 94.2302 186.081 96.1192 186.081 98.4493V115.29C186.081 117.621 187.97 119.51 190.3 119.51H207.141C209.471 119.51 211.36 117.621 211.36 115.29V98.4493C211.36 96.1192 209.471 94.2302 207.141 94.2302Z" fill="white"/>
<path d="M305.244 102.202C305.242 102.56 305.134 102.91 304.934 103.207C304.733 103.503 304.45 103.734 304.118 103.869C303.787 104.005 303.422 104.039 303.071 103.967C302.72 103.896 302.399 103.722 302.147 103.467C301.895 103.213 301.724 102.889 301.656 102.538C301.588 102.186 301.625 101.822 301.764 101.492C301.902 101.162 302.136 100.88 302.435 100.683C302.733 100.485 303.084 100.381 303.442 100.383C303.68 100.384 303.915 100.432 304.134 100.524C304.354 100.616 304.552 100.75 304.72 100.919C304.887 101.088 305.02 101.288 305.109 101.508C305.199 101.729 305.245 101.964 305.244 102.202Z" fill="white"/>
<path d="M305.218 108.698C305.218 109.058 305.11 109.41 304.909 109.709C304.707 110.008 304.422 110.24 304.088 110.375C303.754 110.511 303.387 110.543 303.034 110.469C302.682 110.395 302.359 110.217 302.108 109.958C301.857 109.7 301.689 109.372 301.625 109.018C301.561 108.663 301.605 108.297 301.75 107.968C301.895 107.638 302.136 107.359 302.44 107.166C302.745 106.974 303.1 106.877 303.46 106.887C303.695 106.887 303.928 106.934 304.145 107.026C304.362 107.118 304.558 107.252 304.722 107.421C304.886 107.59 305.015 107.79 305.1 108.009C305.185 108.228 305.225 108.463 305.218 108.698Z" fill="white"/>
<path d="M305.197 115.202C305.195 115.562 305.086 115.913 304.884 116.211C304.681 116.509 304.395 116.739 304.06 116.873C303.726 117.007 303.36 117.038 303.008 116.963C302.656 116.888 302.334 116.71 302.084 116.451C301.834 116.192 301.667 115.864 301.604 115.51C301.541 115.155 301.585 114.79 301.73 114.461C301.875 114.132 302.116 113.853 302.42 113.661C302.724 113.469 303.079 113.372 303.439 113.383C303.911 113.399 304.358 113.597 304.686 113.937C305.014 114.276 305.197 114.73 305.197 115.202Z" fill="white"/>
<path d="M223.19 146.968H194.254C191.647 146.968 189.534 149.082 189.534 151.688V180.624C189.534 183.231 191.647 185.344 194.254 185.344H223.19C225.797 185.344 227.91 183.231 227.91 180.624V151.688C227.91 149.082 225.797 146.968 223.19 146.968Z" fill="#E0E0E0"/>
<path d="M300.628 151.644H237.5V158.799H300.628V151.644Z" fill="#E0E0E0"/>
<path d="M279.005 165.005H237.5V172.16H279.005V165.005Z" fill="#E0E0E0"/>
<path d="M223.19 200.63H194.254C191.647 200.63 189.534 202.743 189.534 205.35V234.286C189.534 236.892 191.647 239.006 194.254 239.006H223.19C225.797 239.006 227.91 236.892 227.91 234.286V205.35C227.91 202.743 225.797 200.63 223.19 200.63Z" fill="#E0E0E0"/>
<path d="M300.628 205.305H237.5V212.46H300.628V205.305Z" fill="#E0E0E0"/>
<path d="M279.005 218.666H237.5V225.82H279.005V218.666Z" fill="#E0E0E0"/>
<path d="M223.464 321.682H194.528C191.921 321.682 189.808 323.795 189.808 326.402V355.338C189.808 357.944 191.921 360.058 194.528 360.058H223.464C226.07 360.058 228.184 357.944 228.184 355.338V326.402C228.184 323.795 226.07 321.682 223.464 321.682Z" fill="#E0E0E0"/>
<path d="M300.899 326.358H237.771V333.513H300.899V326.358Z" fill="#E0E0E0"/>
<path d="M279.276 339.719H237.771V346.874H279.276V339.719Z" fill="#E0E0E0"/>
<path d="M317.39 252.383H172.79V313.603H317.39V252.383Z" fill="#E0E0E0"/>
<path d="M254.647 280.88C255.28 281.247 255.806 281.774 256.171 282.408C256.537 283.042 256.729 283.761 256.729 284.492C256.729 285.224 256.537 285.943 256.171 286.577C255.806 287.211 255.28 287.738 254.647 288.105L247.167 292.465L239.696 296.781C239.061 297.146 238.342 297.338 237.61 297.337C236.878 297.337 236.159 297.144 235.525 296.778C234.891 296.412 234.365 295.886 233.998 295.252C233.632 294.619 233.439 293.9 233.438 293.168V275.861C233.436 275.128 233.628 274.407 233.993 273.772C234.359 273.137 234.886 272.61 235.521 272.243C236.156 271.877 236.876 271.684 237.609 271.685C238.342 271.686 239.062 271.88 239.696 272.248L247.167 276.564L254.647 280.88Z" fill="white"/>
<path d="M200.143 107.142C200.864 106.824 201.476 106.302 201.903 105.639C202.33 104.976 202.552 104.203 202.542 103.415C202.567 102.904 202.488 102.393 202.309 101.913C202.13 101.434 201.856 100.996 201.503 100.625C201.15 100.255 200.726 99.9598 200.255 99.7583C199.785 99.5568 199.279 99.4529 198.767 99.4529C198.255 99.4529 197.749 99.5568 197.279 99.7583C196.808 99.9598 196.384 100.255 196.031 100.625C195.678 100.996 195.404 101.434 195.225 101.913C195.047 102.393 194.967 102.904 194.992 103.415C194.976 104.21 195.196 104.992 195.625 105.661C196.054 106.331 196.671 106.858 197.4 107.177C191.59 108.056 191.854 114.367 191.854 114.367L205.592 114.437C205.592 114.437 205.909 108.012 200.143 107.142Z" fill="#F78D2F"/>
<path d="M275.49 105.445H222.417V111.949H275.49V105.445Z" fill="white"/>
<path d="M317.416 149.956C317.416 149.956 317.416 150.738 317.416 152.259C317.416 153.779 317.416 156.047 317.416 159.018C317.416 164.96 317.416 173.723 317.416 185.001C317.416 207.573 317.416 240.227 317.469 280.572C317.469 300.788 317.469 322.85 317.469 346.574V351.039C317.46 352.559 317.256 354.071 316.862 355.539C316.661 356.277 316.418 357.002 316.133 357.711C315.82 358.412 315.468 359.096 315.078 359.759C314.301 361.094 313.339 362.313 312.221 363.38C309.974 365.583 307.149 367.107 304.073 367.775C303.695 367.889 303.3 367.907 302.913 367.986C302.523 368.054 302.13 368.101 301.735 368.126C300.944 368.17 300.153 368.214 299.379 368.197H294.651H255.677H214.708H189.631L188.268 368.126C186.456 367.981 184.677 367.557 182.994 366.869C180.453 365.786 178.206 364.111 176.442 361.985C174.678 359.858 173.447 357.341 172.851 354.643C172.53 352.827 172.4 350.983 172.464 349.141C172.464 345.484 172.464 341.81 172.464 338.118V315.748C172.464 300.759 172.464 285.564 172.464 270.165C172.464 208.575 172.464 149.912 172.517 96.5582V81.6859C172.46 80.0481 172.531 78.4082 172.728 76.7813C172.951 75.1545 173.423 73.5716 174.125 72.0875C174.801 70.6068 175.689 69.2328 176.762 68.0091C178.897 65.573 181.676 63.7879 184.779 62.8583C186.312 62.4191 187.896 62.1826 189.49 62.1551H214.857C215.618 62.1206 216.38 62.1559 217.134 62.2606C217.89 62.4174 218.604 62.7337 219.229 63.1884C219.853 63.6431 220.374 64.2258 220.755 64.8975C221.134 65.5644 221.379 66.2989 221.476 67.0598C221.555 67.8245 221.476 68.5453 221.52 69.2836C221.573 70.7515 221.344 72.2545 221.854 73.573C222.088 74.2354 222.456 74.843 222.933 75.3584C223.411 75.8738 223.989 76.2862 224.631 76.5703C225.906 77.168 227.383 76.9219 228.806 76.9834H245.656H261.838H267.728C268.363 77.0155 269.001 76.9713 269.626 76.8516C270.85 76.5648 271.92 75.8272 272.623 74.786C273.321 73.7514 273.658 72.5156 273.581 71.2701C273.581 70.0044 273.581 68.765 273.581 67.4993C273.627 66.2042 274.114 64.9635 274.961 63.9834C275.794 63.0279 276.942 62.4038 278.196 62.2254C278.806 62.1642 279.42 62.1466 280.033 62.1727H281.835H295.855H299.239C300.354 62.1521 301.47 62.202 302.579 62.3221C305.763 62.7046 308.773 63.9807 311.262 66.0029C313.751 68.0251 315.616 70.7106 316.642 73.7488C317.249 75.637 317.546 77.6109 317.521 79.594C317.521 81.5277 317.521 83.4263 317.521 85.281C317.521 89.0078 317.521 92.5882 317.521 96.022C317.521 102.887 317.521 109.207 317.521 114.797C317.521 126.083 317.521 134.838 317.477 140.779C317.477 143.75 317.477 146.009 317.477 147.539C317.477 149.068 317.477 149.842 317.477 149.842C317.477 149.842 317.477 149.059 317.477 147.539C317.477 146.018 317.477 143.75 317.477 140.779C317.477 134.838 317.477 126.083 317.477 114.797C317.477 109.163 317.477 102.887 317.477 96.022C317.477 92.594 317.477 89.0137 317.477 85.281V79.7522C317.502 77.795 317.205 75.8471 316.599 73.9861C315.265 70.0465 312.51 66.746 308.872 64.7305C306.973 63.6677 304.882 62.9925 302.719 62.744C301.622 62.6263 300.518 62.5793 299.415 62.6034H280.051C279.464 62.5853 278.877 62.6059 278.293 62.6649C277.108 62.8394 276.027 63.4393 275.252 64.3526C274.458 65.2718 274.002 66.4348 273.959 67.6487C273.959 68.8793 273.959 70.145 273.959 71.4019C274.038 72.7115 273.679 74.0099 272.94 75.0936C272.195 76.2077 271.054 76.9965 269.749 77.2999C269.101 77.425 268.44 77.4722 267.78 77.4405H226.662C225.913 77.4515 225.17 77.3048 224.482 77.0098C223.795 76.7026 223.177 76.2602 222.665 75.709C222.154 75.1578 221.758 74.5091 221.502 73.8015C221.253 73.0902 221.131 72.3403 221.142 71.5865V69.3803C221.142 68.6507 221.142 67.8948 221.142 67.2004C221.054 66.4879 220.824 65.8004 220.465 65.1788C220.114 64.5359 219.627 63.9773 219.038 63.5416C218.449 63.106 217.772 62.8038 217.055 62.6561C216.324 62.5528 215.585 62.5204 214.848 62.5594H189.525C187.969 62.5854 186.424 62.8159 184.928 63.245C181.896 64.149 179.183 65.8956 177.105 68.2816C176.032 69.4695 175.143 70.8117 174.468 72.2633C173.785 73.7121 173.326 75.2561 173.106 76.8428C172.913 78.4495 172.849 80.069 172.912 81.6859V96.5582C172.912 149.912 172.912 208.575 172.912 270.165C172.912 285.553 172.912 300.747 172.912 315.748C172.912 323.243 172.912 330.682 172.912 338.065V349.088C172.84 350.898 172.964 352.71 173.282 354.493C173.862 357.12 175.06 359.571 176.776 361.643C178.493 363.714 180.679 365.346 183.153 366.404C184.794 367.074 186.528 367.489 188.295 367.634L189.622 367.704H193.63H214.796H255.765H294.738H299.467C300.25 367.704 301.023 367.704 301.797 367.643C302.18 367.623 302.562 367.576 302.939 367.502C303.321 367.457 303.699 367.39 304.073 367.3C305.569 366.96 307.014 366.425 308.371 365.709C309.702 364.972 310.934 364.068 312.037 363.02C313.127 361.983 314.068 360.8 314.832 359.504C315.213 358.859 315.556 358.193 315.86 357.508C316.141 356.815 316.379 356.104 316.572 355.381C317.451 352.507 317.126 349.483 317.179 346.521C317.179 322.789 317.179 300.7 317.223 280.519C317.223 240.174 317.293 207.52 317.31 184.948C317.31 173.671 317.31 164.907 317.363 158.965C317.363 155.994 317.363 153.692 317.363 152.206C317.363 150.721 317.416 149.956 317.416 149.956Z" fill="#263238"/>
<path d="M106.488 202.099C105.435 201.533 104.55 200.698 103.926 199.679C103.301 198.66 102.958 197.493 102.932 196.297C102.906 195.102 103.198 193.921 103.778 192.876C104.358 191.83 105.205 190.957 106.233 190.347L114.214 188.281C114.636 198.425 115.123 208.565 115.674 218.703C113.565 218.56 111.536 217.839 109.811 216.619C108.167 215.301 107.174 212.972 107.974 211.02C107.139 210.673 106.406 210.119 105.844 209.411C105.282 208.702 104.909 207.863 104.761 206.971C104.612 206.079 104.693 205.164 104.995 204.312C105.297 203.459 105.811 202.698 106.488 202.099Z" fill="#263238"/>
<path d="M145.126 198.89V195.286L123.362 191.858C116.673 191.357 109.668 198.266 109.457 204.973C109.22 212.426 109.229 221.533 110.283 227.053C112.402 238.154 120.998 239.306 120.998 239.306V250.345C121.13 256.788 126.597 258.037 133.04 257.913C136.064 257.85 138.946 256.615 141.077 254.469C143.209 252.322 144.424 249.432 144.467 246.408L145.126 198.89Z" fill="#FFBF9D"/>
<path d="M115.039 213.937C115.046 214.311 115.199 214.668 115.465 214.931C115.731 215.193 116.089 215.342 116.463 215.344C116.646 215.353 116.828 215.326 117 215.263C117.172 215.201 117.329 215.104 117.463 214.98C117.596 214.855 117.704 214.705 117.778 214.538C117.852 214.371 117.892 214.191 117.896 214.008C117.887 213.635 117.733 213.28 117.468 213.017C117.202 212.755 116.845 212.606 116.472 212.601C116.289 212.592 116.107 212.619 115.935 212.682C115.763 212.744 115.606 212.841 115.472 212.966C115.338 213.09 115.231 213.241 115.157 213.408C115.082 213.574 115.042 213.755 115.039 213.937Z" fill="#263238"/>
<path d="M112.229 208.963C112.404 209.148 113.468 208.304 115.006 208.26C116.544 208.216 117.705 208.954 117.863 208.761C118.021 208.568 117.749 208.339 117.248 207.996C116.564 207.561 115.764 207.343 114.953 207.372C114.153 207.395 113.38 207.672 112.747 208.163C112.281 208.559 112.132 208.902 112.229 208.963Z" fill="#263238"/>
<path d="M128.464 213.833C128.471 214.206 128.624 214.561 128.89 214.822C129.156 215.084 129.515 215.23 129.888 215.23C130.07 215.24 130.253 215.212 130.425 215.15C130.596 215.087 130.754 214.991 130.887 214.866C131.021 214.741 131.128 214.591 131.203 214.424C131.277 214.257 131.317 214.077 131.321 213.894C131.314 213.521 131.161 213.166 130.894 212.904C130.628 212.643 130.27 212.496 129.897 212.496C129.714 212.487 129.531 212.514 129.36 212.577C129.188 212.639 129.031 212.736 128.897 212.861C128.763 212.985 128.656 213.136 128.582 213.303C128.507 213.47 128.467 213.65 128.464 213.833Z" fill="#263238"/>
<path d="M127.285 208.858C127.469 209.042 128.533 208.207 130.071 208.163C131.609 208.119 132.761 208.849 132.919 208.656C133.077 208.462 132.813 208.242 132.304 207.9C131.626 207.456 130.827 207.234 130.018 207.267C129.215 207.289 128.439 207.566 127.803 208.058C127.346 208.436 127.197 208.779 127.285 208.858Z" fill="#263238"/>
<path d="M121.844 221.049C121.025 220.821 120.181 220.694 119.33 220.671C118.935 220.671 118.566 220.583 118.451 220.311C118.41 219.907 118.489 219.5 118.68 219.142C119.023 218.175 119.374 217.164 119.744 216.109C121.229 211.793 122.284 208.251 122.117 208.198C121.95 208.146 120.596 211.591 119.119 215.898C118.759 216.962 118.416 217.981 118.1 218.948C117.863 219.428 117.807 219.977 117.942 220.495C118.002 220.633 118.094 220.755 118.21 220.851C118.326 220.947 118.463 221.015 118.61 221.049C118.828 221.102 119.053 221.129 119.278 221.128C120.133 221.214 120.996 221.187 121.844 221.049Z" fill="#263238"/>
<path d="M120.972 239.34C126.358 239.257 131.619 237.704 136.187 234.849C136.187 234.849 132.565 242.953 120.98 242.294L120.972 239.34Z" fill="#FF9A6C"/>
<path d="M127.811 203.056C127.961 203.478 129.499 203.275 131.327 203.495C133.156 203.715 134.597 204.207 134.843 203.829C134.949 203.653 134.694 203.258 134.105 202.853C133.32 202.354 132.43 202.042 131.506 201.94C130.581 201.838 129.645 201.949 128.77 202.265C128.075 202.528 127.741 202.853 127.811 203.056Z" fill="#263238"/>
<path d="M112.616 204.05C112.941 204.375 114.083 203.927 115.499 203.795C116.914 203.663 118.136 203.795 118.364 203.444C118.478 203.259 118.259 202.916 117.714 202.635C116.97 202.282 116.141 202.145 115.323 202.239C114.505 202.313 113.724 202.618 113.073 203.118C112.607 203.523 112.457 203.892 112.616 204.05Z" fill="#263238"/>
<path d="M105.195 195.11C104.068 194.348 103.189 193.27 102.668 192.012C102.148 190.754 102.009 189.371 102.268 188.035C102.567 186.707 103.202 185.479 104.114 184.469C105.025 183.459 106.182 182.701 107.472 182.269C107.995 182.099 108.534 181.981 109.08 181.917C110.113 181.262 111.296 180.883 112.517 180.818C112.634 180.101 112.957 179.433 113.447 178.896C113.938 178.359 114.573 177.976 115.277 177.795C116.688 177.443 118.164 177.443 119.575 177.795C120.262 176.88 121.155 176.141 122.181 175.636C123.207 175.132 124.337 174.877 125.481 174.891C126.624 174.906 127.747 175.19 128.76 175.72C129.773 176.251 130.647 177.013 131.31 177.944C132.092 177.446 132.979 177.137 133.902 177.042C134.824 176.947 135.756 177.069 136.623 177.398C137.49 177.726 138.269 178.253 138.897 178.935C139.525 179.617 139.985 180.437 140.24 181.328C141.051 181.329 141.852 181.495 142.596 181.817C143.34 182.139 144.01 182.61 144.565 183.2C145.405 184.345 146.121 185.577 146.701 186.874C148.067 186.983 149.368 187.508 150.428 188.378C151.487 189.248 152.254 190.422 152.626 191.742C152.997 193.062 152.956 194.464 152.506 195.759C152.056 197.055 151.22 198.181 150.111 198.987C150.808 199.637 151.344 200.439 151.678 201.332C152.012 202.225 152.133 203.182 152.034 204.13C151.934 205.078 151.615 205.989 151.103 206.793C150.591 207.597 149.899 208.27 149.083 208.761C149.434 209.761 149.578 210.822 149.507 211.88C149.436 212.937 149.151 213.969 148.669 214.914C148.292 215.785 147.602 216.485 146.736 216.874C146.705 217.022 146.652 217.164 146.578 217.296C145.945 218.359 144.292 217.964 143.299 217.217C140.882 215.415 139.519 212.514 138.755 209.596C137.99 206.678 137.735 203.654 136.997 200.736C136.997 200.666 136.997 200.604 136.944 200.525C136.632 199.314 136.049 198.19 135.239 197.238C134.405 197.901 133.523 198.504 132.602 199.039C130.907 199.892 128.985 200.182 127.114 199.865C125.244 199.549 123.523 198.644 122.204 197.281C119.935 199.29 117.04 200.449 114.012 200.56C111.005 200.666 108.017 200.2 105.652 198.345C105.035 197.872 104.563 197.236 104.29 196.508C104.246 196.205 104.314 195.896 104.481 195.639C104.647 195.382 104.901 195.194 105.195 195.11Z" fill="#263238"/>
<path d="M143.802 213.701C143.943 213.622 149.718 211.222 150.192 217.331C150.667 223.44 144.435 222.658 144.418 222.482C144.4 222.306 143.802 213.701 143.802 213.701Z" fill="#FFBF9D"/>
<path d="M146.092 220.02C146.092 220.02 146.207 220.081 146.391 220.152C146.654 220.241 146.94 220.225 147.191 220.108C147.566 219.828 147.86 219.453 148.042 219.022C148.224 218.591 148.289 218.12 148.228 217.656C148.198 217.13 148.054 216.617 147.806 216.152C147.732 215.965 147.613 215.798 147.46 215.666C147.307 215.535 147.124 215.442 146.927 215.397C146.802 215.374 146.673 215.396 146.562 215.458C146.452 215.521 146.366 215.62 146.321 215.739C146.251 215.915 146.321 216.029 146.268 216.047C146.215 216.065 146.128 215.95 146.163 215.695C146.178 215.541 146.254 215.399 146.374 215.3C146.45 215.229 146.541 215.175 146.639 215.14C146.737 215.106 146.841 215.091 146.945 215.098C147.202 215.128 147.447 215.225 147.655 215.379C147.863 215.533 148.028 215.739 148.132 215.977C148.436 216.482 148.609 217.057 148.633 217.647C148.706 218.188 148.617 218.739 148.378 219.23C148.139 219.721 147.759 220.131 147.288 220.407C147.128 220.467 146.956 220.49 146.786 220.475C146.615 220.459 146.45 220.406 146.303 220.319C146.119 220.169 146.075 220.029 146.092 220.02Z" fill="#FF9A6C"/>
<path d="M102.548 186.989C102.548 186.989 102.548 187.042 102.496 187.138C102.46 187.286 102.434 187.436 102.417 187.587C102.336 188.174 102.375 188.772 102.531 189.345C102.752 190.242 103.239 191.051 103.928 191.665C104.846 192.468 106.032 192.898 107.251 192.869L107.145 192.773C107.551 194.739 108.515 196.546 109.923 197.976C110.707 198.8 111.656 199.447 112.709 199.875C113.829 200.303 115.042 200.427 116.225 200.235C117.389 200.064 118.521 199.72 119.583 199.216C120.599 198.774 121.527 198.155 122.325 197.387H122.141C123.63 198.724 125.452 199.635 127.415 200.024C128.971 200.236 130.555 200.026 132.003 199.418C132.944 199.029 133.812 198.482 134.57 197.8C134.833 197.563 135.027 197.37 135.15 197.238C135.273 197.106 135.334 197.027 135.325 197.018C135.317 197.009 135.053 197.291 134.517 197.739C133.742 198.378 132.873 198.894 131.941 199.268C130.517 199.839 128.967 200.021 127.45 199.796C125.545 199.406 123.778 198.514 122.334 197.211L122.237 197.132L122.15 197.22C121.381 197.957 120.488 198.552 119.513 198.978C118.473 199.464 117.369 199.796 116.234 199.963C115.088 200.16 113.91 200.045 112.824 199.629C111.808 199.21 110.89 198.588 110.125 197.8C108.757 196.403 107.805 194.653 107.374 192.746V192.65H107.277C106.111 192.691 104.972 192.293 104.087 191.533C103.406 190.954 102.919 190.182 102.689 189.318C102.532 188.77 102.472 188.199 102.513 187.631C102.513 187.226 102.566 186.989 102.548 186.989Z" fill="#455A64"/>
<path d="M145.856 186.611C146.133 187.283 146.354 187.977 146.515 188.686C146.89 190.543 146.649 192.471 145.829 194.179V194.267L145.908 194.329C146.697 194.958 147.304 195.786 147.666 196.728C148.074 197.763 148.153 198.899 147.895 199.981C147.544 201.378 146.677 202.59 145.469 203.373L145.355 203.435L145.425 203.549C146.082 204.697 146.402 206.007 146.348 207.329C146.315 208.369 146.07 209.392 145.627 210.335C145.216 211.172 144.673 211.938 144.019 212.603L144.098 212.48C144.243 212.363 144.381 212.236 144.511 212.102C144.996 211.602 145.399 211.03 145.706 210.405C146.187 209.448 146.46 208.399 146.506 207.329C146.586 205.966 146.281 204.607 145.627 203.409L145.583 203.584C146.852 202.783 147.765 201.524 148.132 200.068C148.409 198.932 148.327 197.737 147.895 196.649C147.507 195.669 146.863 194.81 146.031 194.162V194.311C146.856 192.553 147.067 190.569 146.629 188.677C146.51 188.15 146.336 187.638 146.111 187.147C146.031 186.972 145.961 186.849 145.917 186.761C145.903 186.708 145.883 186.658 145.856 186.611Z" fill="#455A64"/>
<path d="M147.614 222.069C147.716 222.424 147.778 222.789 147.799 223.159C147.801 223.546 147.667 223.923 147.421 224.222C147.268 224.392 147.076 224.52 146.861 224.595C146.646 224.671 146.415 224.69 146.19 224.653C145.972 224.594 145.777 224.472 145.63 224.301C145.482 224.13 145.39 223.919 145.364 223.695C145.308 223.305 145.356 222.908 145.504 222.543C145.768 221.91 146.014 221.541 145.97 221.515C145.693 221.787 145.474 222.113 145.329 222.473C145.135 222.862 145.058 223.298 145.109 223.73C145.142 223.995 145.245 224.247 145.408 224.459C145.582 224.699 145.839 224.865 146.129 224.925C146.401 224.974 146.682 224.95 146.943 224.856C147.204 224.762 147.435 224.601 147.614 224.389C147.894 224.043 148.032 223.603 148.001 223.159C148.008 222.76 147.871 222.373 147.614 222.069Z" fill="#263238"/>
<path d="M127.511 222.745C127.815 223.141 128.019 223.605 128.105 224.098C128.191 224.59 128.156 225.096 128.004 225.572C127.852 226.047 127.587 226.48 127.232 226.831C126.877 227.182 126.441 227.442 125.964 227.588C125.587 227.716 125.18 227.716 124.803 227.588C124.497 227.418 124.228 227.187 124.015 226.909C123.802 226.631 123.648 226.311 123.564 225.971C123.344 225.435 123.133 224.89 122.914 224.354C122.865 224.269 122.835 224.176 122.825 224.079C122.814 223.982 122.823 223.884 122.852 223.791C122.911 223.703 122.989 223.63 123.081 223.577C123.172 223.524 123.274 223.492 123.379 223.483L127.396 222.508" fill="#FF9A6C"/>
<path d="M124.893 227.422C125.509 227.508 126.137 227.429 126.713 227.193C127.389 226.978 127.96 226.517 128.313 225.901C128.518 225.519 128.604 225.084 128.559 224.653C128.533 224.209 128.426 223.774 128.242 223.37C128.06 222.975 127.804 222.62 127.486 222.324L127.381 222.227L127.249 222.28C124.612 223.212 122.511 223.686 122.529 223.8C124.199 223.699 125.842 223.334 127.398 222.719L127.161 222.675C127.426 222.927 127.644 223.225 127.803 223.554C127.977 223.844 128.084 224.169 128.116 224.505C128.148 224.841 128.104 225.18 127.988 225.497C127.871 225.814 127.685 226.101 127.443 226.337C127.202 226.573 126.91 226.751 126.59 226.859C125.588 227.272 124.876 227.316 124.893 227.422Z" fill="#263238"/>
<path d="M142.595 373.683L153.864 368.655L145.496 350.698L133.516 357.026L142.595 373.683Z" fill="#FFBF9D"/>
<path d="M137.347 355.672L120.11 363.583L111.32 364.075L113.333 399.982C113.333 399.982 117.253 400.333 118.106 397.969C118.959 395.604 126.896 378.552 126.896 378.552L143.245 372.267L137.347 355.672Z" fill="#455A64"/>
<path d="M138.376 352.895L133.55 355.488C133.227 355.662 132.979 355.949 132.855 356.295C132.73 356.64 132.736 357.019 132.873 357.36L139.395 373.331C139.533 373.665 139.786 373.938 140.11 374.1C140.433 374.262 140.804 374.301 141.153 374.21L145.803 372.847C146.002 372.789 146.186 372.69 146.343 372.556C146.501 372.422 146.629 372.257 146.719 372.07C146.81 371.884 146.86 371.681 146.867 371.475C146.874 371.268 146.838 371.062 146.761 370.87L139.773 353.405C139.717 353.278 139.635 353.164 139.534 353.07C139.432 352.975 139.313 352.902 139.182 352.854C139.052 352.807 138.913 352.786 138.775 352.793C138.636 352.8 138.501 352.834 138.376 352.895Z" fill="#E0E0E0"/>
<path d="M138.379 352.895C138.551 352.836 138.733 352.809 138.915 352.816C139.134 352.835 139.341 352.924 139.504 353.071C139.701 353.296 139.842 353.564 139.917 353.853C140.436 355.181 141.165 357.053 142.053 359.347C142.941 361.641 144.066 364.427 145.27 367.478C145.578 368.242 145.885 369.025 146.202 369.824L146.676 371.029C146.738 371.217 146.756 371.416 146.73 371.612C146.704 371.809 146.635 371.997 146.527 372.162C146.415 372.33 146.268 372.471 146.096 372.576C145.907 372.671 145.706 372.742 145.499 372.787L144.18 373.182L141.482 373.973C141.27 374.044 141.052 374.094 140.831 374.123C140.622 374.131 140.414 374.089 140.225 374C140.034 373.912 139.866 373.783 139.732 373.622C139.615 373.439 139.518 373.245 139.442 373.041L138.405 370.519C137.728 368.858 137.069 367.267 136.445 365.737L133.105 357.659C132.968 357.403 132.885 357.122 132.859 356.833C132.848 356.567 132.919 356.303 133.061 356.077C133.316 355.611 133.861 355.453 134.283 355.198L136.507 353.985L137.904 353.203C138.073 353.121 138.232 353.021 138.379 352.904L137.869 353.141L136.445 353.871L134.195 355.04L133.518 355.392C133.256 355.523 133.034 355.724 132.876 355.972C132.715 356.236 132.63 356.541 132.63 356.851C132.66 357.157 132.747 357.455 132.885 357.73L136.19 365.86L138.133 370.642C138.467 371.468 138.81 372.312 139.161 373.164C139.242 373.4 139.357 373.622 139.504 373.824C139.664 374.03 139.871 374.196 140.108 374.306C140.345 374.416 140.605 374.468 140.866 374.457C141 374.446 141.133 374.422 141.262 374.386L141.605 374.29L144.294 373.499L145.622 373.112C145.853 373.051 146.077 372.966 146.29 372.857C146.505 372.726 146.688 372.549 146.826 372.338C146.963 372.134 147.05 371.901 147.083 371.657C147.115 371.413 147.09 371.165 147.01 370.932C146.852 370.492 146.685 370.114 146.527 369.701C146.202 368.91 145.894 368.128 145.586 367.363C144.347 364.322 143.24 361.58 142.299 359.259C141.359 356.939 140.603 355.128 140.067 353.809C139.977 353.502 139.814 353.222 139.592 352.992C139.41 352.843 139.185 352.757 138.95 352.746C138.806 352.745 138.662 352.772 138.528 352.825L138.379 352.895Z" fill="#263238"/>
<path d="M134.016 359.346C134.882 358.335 136.003 357.573 137.262 357.139C138.521 356.704 139.873 356.614 141.179 356.876C139.896 356.951 138.625 357.169 137.391 357.527C136.202 358.007 135.07 358.617 134.016 359.346Z" fill="#263238"/>
<path d="M136.188 365.42C137.276 364.655 138.457 364.032 139.703 363.566C140.882 362.985 142.128 362.551 143.413 362.274C142.281 362.905 141.107 363.454 139.897 363.917C138.697 364.505 137.458 365.007 136.188 365.42Z" fill="#263238"/>
<path d="M138.948 371.662C140.239 371.361 141.479 370.876 142.631 370.22C143.708 369.455 144.664 368.533 145.47 367.487C145.385 367.882 145.204 368.25 144.943 368.559C144.384 369.358 143.673 370.039 142.851 370.563C142.029 371.089 141.112 371.45 140.152 371.627C139.759 371.731 139.347 371.743 138.948 371.662Z" fill="#263238"/>
<path d="M114.479 363.926L115.305 399.867L113.301 399.982L111.394 364.093L114.479 363.926Z" fill="#263238"/>
<path d="M119.206 385.567C119.527 385.428 119.876 385.362 120.226 385.376C120.576 385.39 120.918 385.482 121.228 385.646C122.318 386.077 122.845 386.921 122.74 386.982C122.634 387.044 122.028 386.446 121.061 386.103C120.094 385.761 119.224 385.708 119.206 385.567Z" fill="#263238"/>
<path d="M121.055 380.53C121.855 380.394 122.677 380.58 123.34 381.049C124.509 381.717 125.045 382.701 124.94 382.807C124.834 382.912 124.184 382.095 123.112 381.497C122.039 380.899 121.046 380.662 121.055 380.53Z" fill="#263238"/>
<path d="M125.132 375.326C125.22 375.247 125.906 375.845 126.372 376.847C126.727 377.422 126.861 378.106 126.75 378.772C126.432 378.212 126.167 377.623 125.959 377.014C125.528 376.109 125.036 375.414 125.132 375.326Z" fill="#263238"/>
<path d="M132.103 372.241C132.498 372.792 132.763 373.427 132.876 374.096C133.136 374.724 133.25 375.403 133.21 376.082C132.819 375.529 132.555 374.895 132.437 374.228C132.182 373.598 132.068 372.92 132.103 372.241Z" fill="#263238"/>
<path d="M132.972 375.406C132.296 376.094 131.746 376.894 131.346 377.771C131.167 378.218 131.04 378.684 130.968 379.16C130.92 379.406 130.92 379.66 130.968 379.907C131.03 380.153 131.161 380.285 131.337 380.258C131.573 380.163 131.769 379.989 131.891 379.766C132.063 379.513 132.219 379.249 132.357 378.975C132.646 378.391 132.841 377.765 132.937 377.12C132.995 376.766 133.018 376.407 133.007 376.048H133.455C133.572 376.604 133.858 377.111 134.273 377.498C134.676 377.866 135.115 378.193 135.583 378.474C135.811 378.615 136.048 378.764 136.119 378.711C136.189 378.659 136.224 378.492 136.119 378.298C135.957 377.917 135.728 377.569 135.442 377.27C134.839 376.682 134.089 376.266 133.271 376.066C133.503 376.031 133.741 376.049 133.965 376.118C134.509 376.251 135.017 376.505 135.449 376.861C135.881 377.217 136.227 377.666 136.462 378.175C136.516 378.309 136.543 378.453 136.541 378.597C136.541 378.696 136.512 378.793 136.46 378.877C136.407 378.961 136.331 379.029 136.242 379.072C136.155 379.1 136.063 379.11 135.973 379.101C135.882 379.092 135.794 379.064 135.714 379.019C135.588 378.959 135.464 378.891 135.345 378.817C134.839 378.535 134.367 378.196 133.939 377.806C133.449 377.362 133.114 376.774 132.981 376.127L133.438 376.083C133.468 377.169 133.226 378.244 132.735 379.212C132.589 379.521 132.416 379.815 132.216 380.091C132.035 380.41 131.734 380.644 131.381 380.742C131.275 380.758 131.166 380.749 131.064 380.715C130.961 380.682 130.868 380.625 130.792 380.548C130.67 380.412 130.588 380.245 130.555 380.065C130.499 379.775 130.499 379.476 130.555 379.186C130.646 378.683 130.8 378.192 131.012 377.727C131.318 377.063 131.751 376.466 132.286 375.969C132.673 375.521 132.954 375.38 132.972 375.406Z" fill="#263238"/>
<path d="M121.858 369.209C121.898 369.502 122.023 369.777 122.219 369.999C122.415 370.221 122.672 370.38 122.958 370.455C123.244 370.53 123.546 370.519 123.826 370.423C124.106 370.327 124.35 370.149 124.529 369.914C124.708 369.678 124.813 369.395 124.831 369.099C124.848 368.804 124.778 368.51 124.628 368.255C124.479 367.999 124.257 367.794 123.991 367.665C123.724 367.536 123.426 367.489 123.133 367.53C122.938 367.556 122.751 367.62 122.582 367.719C122.413 367.817 122.265 367.948 122.146 368.104C122.028 368.26 121.941 368.438 121.892 368.628C121.842 368.818 121.831 369.015 121.858 369.209Z" fill="#F5F5F5"/>
<path d="M95.043 333.365C95.043 333.365 78.1315 331.255 72.7434 332.354C67.3553 333.452 57.1943 339.825 58.17 349.503C59.1457 359.18 65.5446 366.115 73.3763 367.337C81.2079 368.559 124.981 372.998 141.936 372.769C156.281 372.576 164.078 368.937 162.443 366.704C162.443 366.704 177.552 360.956 179.143 360.288C180.365 359.76 202.568 348.764 204.897 344.721C207.227 340.678 212.738 326.966 203.06 320.11C193.383 313.254 176.849 317.903 173.913 320.11C172.472 321.191 169.897 321.938 164.719 325.717L159.762 322.351C159.419 322.615 119.646 325.392 103.903 326.113C101.231 326.21 95.043 333.365 95.043 333.365Z" fill="#263238"/>
<path d="M142.518 357.008C142.079 355.136 141.885 354.45 142.369 353.237C142.918 352.048 143.681 350.969 144.619 350.056C144.87 349.695 145.191 349.389 145.562 349.155C145.933 348.921 146.348 348.764 146.781 348.693C147.889 348.693 148.662 349.748 149.251 350.688C151.402 354.134 153.696 357.492 156.134 360.761C157.425 362.723 159.099 364.403 161.056 365.701C161.794 366.132 162.726 366.651 162.682 367.512C162.682 368.189 162.005 368.646 161.408 368.98C160.296 369.607 159.139 370.148 157.944 370.597C156.882 371.18 155.656 371.393 154.459 371.202C153.262 371.011 152.163 370.427 151.334 369.542C147.135 366.225 144.023 361.728 142.395 356.63" fill="#263238"/>
<path d="M142.395 356.631C142.419 356.682 142.439 356.735 142.457 356.789L142.624 357.246C142.764 357.651 142.984 358.248 143.309 359.004C144.219 361.107 145.401 363.081 146.825 364.876C147.818 366.112 148.906 367.27 150.077 368.339C150.71 368.91 151.378 369.491 152.099 370.027C152.819 370.601 153.676 370.977 154.586 371.117C155.552 371.179 156.52 371.023 157.417 370.66C158.377 370.309 159.316 369.904 160.229 369.447C160.695 369.209 161.17 368.963 161.609 368.691C161.832 368.585 162.027 368.429 162.18 368.235C162.332 368.042 162.438 367.816 162.488 367.574C162.479 367.329 162.407 367.091 162.277 366.883C162.148 366.675 161.966 366.504 161.75 366.388C161.328 366.08 160.818 365.834 160.353 365.509C158.605 364.189 157.093 362.584 155.879 360.762C154.63 359.075 153.461 357.422 152.363 355.822C151.264 354.223 150.279 352.685 149.374 351.225C148.989 350.508 148.49 349.858 147.897 349.3C147.614 349.065 147.27 348.916 146.904 348.87C146.554 348.847 146.205 348.93 145.902 349.107C145.333 349.484 144.826 349.946 144.399 350.478C143.98 350.927 143.587 351.4 143.221 351.893C142.609 352.648 142.228 353.564 142.123 354.53C142.145 355.15 142.231 355.765 142.377 356.367L142.474 356.851C142.474 356.956 142.474 357.018 142.474 357.018C142.474 357.018 142.474 356.965 142.421 356.86L142.29 356.385C142.113 355.778 142.01 355.153 141.982 354.522C142.053 353.513 142.423 352.549 143.045 351.753C143.41 351.245 143.803 350.757 144.223 350.294C144.666 349.743 145.187 349.26 145.77 348.861C146.115 348.658 146.513 348.563 146.913 348.588C147.326 348.636 147.716 348.801 148.038 349.063C148.665 349.63 149.191 350.299 149.594 351.041C150.473 352.491 151.51 354.021 152.6 355.611C153.69 357.202 154.868 358.846 156.116 360.534C157.317 362.319 158.801 363.895 160.511 365.201C160.959 365.509 161.46 365.746 161.926 366.08C162.167 366.245 162.378 366.45 162.55 366.687C162.737 366.94 162.825 367.252 162.796 367.566C162.743 367.857 162.623 368.132 162.446 368.37C162.269 368.608 162.04 368.802 161.776 368.937C161.311 369.227 160.845 369.464 160.37 369.701C159.444 370.167 158.49 370.575 157.513 370.923C156.57 371.299 155.555 371.458 154.542 371.389C153.576 371.243 152.666 370.842 151.906 370.229C151.195 369.679 150.514 369.093 149.866 368.471C148.687 367.391 147.599 366.215 146.614 364.955C145.169 363.14 143.985 361.131 143.098 358.987C142.858 358.413 142.649 357.826 142.474 357.229L142.342 356.754C142.395 356.631 142.386 356.631 142.395 356.631Z" fill="#455A64"/>
<path d="M182.973 321.771C182.973 321.771 182.815 321.771 182.516 321.815C182.083 321.888 181.654 321.987 181.233 322.114C180.134 322.43 178.596 322.993 176.627 323.652C175.669 323.995 174.57 324.381 173.454 324.733C172.352 325.365 171.358 326.169 170.51 327.115C168.549 328.996 166.414 331.079 164.19 333.268C159.733 337.663 155.822 341.803 153.079 344.861C151.708 346.382 150.618 347.639 149.862 348.509L148.983 349.511C148.889 349.633 148.783 349.745 148.667 349.845C148.667 349.845 148.746 349.705 148.931 349.467L149.748 348.43C150.469 347.551 151.506 346.25 152.886 344.703C155.585 341.6 159.478 337.452 163.935 333.03C166.159 330.824 168.33 328.75 170.281 326.878C171.157 325.913 172.184 325.096 173.322 324.46C174.509 324.091 175.546 323.749 176.531 323.414C178.473 322.755 180.046 322.254 181.189 321.973C181.616 321.858 182.051 321.775 182.49 321.727C182.606 321.709 182.725 321.709 182.842 321.727L182.973 321.771Z" fill="#455A64"/>
<path d="M124.235 353.405L123.795 353.212L122.565 352.605L118.056 350.311L111.393 346.874C108.723 345.392 105.953 344.097 103.104 342.998C101.616 342.483 100.078 342.124 98.516 341.926C97.7494 341.818 97.0047 341.59 96.3098 341.249C95.6723 340.866 95.1143 340.365 94.6661 339.772C93.8 338.769 92.6461 338.057 91.3612 337.733C90.2451 337.446 89.0938 337.318 87.9419 337.355C85.8148 337.425 84.092 337.671 82.8966 337.671C82.2989 337.671 81.8331 337.671 81.5166 337.627C81.3569 337.621 81.198 337.601 81.042 337.566H81.5254C81.8331 337.566 82.2989 337.566 82.8966 337.566C84.0832 337.566 85.7885 337.249 87.9332 337.144C89.1161 337.084 90.3015 337.202 91.4491 337.496C92.0885 337.664 92.7032 337.915 93.2773 338.243C93.8847 338.602 94.4283 339.059 94.8859 339.596C95.3156 340.156 95.8463 340.63 96.4504 340.994C97.1169 341.312 97.8284 341.526 98.56 341.627C100.142 341.832 101.7 342.194 103.21 342.708C106.071 343.815 108.85 345.125 111.525 346.628L118.161 350.144L122.618 352.535L123.822 353.194C123.966 353.251 124.104 353.322 124.235 353.405Z" fill="#455A64"/>
<path d="M132.452 374.931L120.867 372.566L124.972 354.038L137.489 357.474L132.452 374.931Z" fill="#FFBF9D"/>
<path d="M136.68 358.565L154.831 364.076L163.621 363.373L166.512 399.182C166.512 399.182 162.671 400.061 161.511 397.846C160.351 395.631 150.146 379.801 150.146 379.801L133.094 375.802L136.68 358.565Z" fill="#455A64"/>
<path d="M135.311 355.954L140.47 357.861C140.806 357.997 141.08 358.25 141.242 358.574C141.404 358.898 141.442 359.269 141.349 359.619L137.069 376.364C136.977 376.72 136.756 377.03 136.45 377.233C136.143 377.436 135.771 377.517 135.407 377.462L130.617 376.742C130.412 376.712 130.215 376.64 130.039 376.529C129.864 376.419 129.713 376.273 129.598 376.1C129.483 375.928 129.405 375.733 129.37 375.528C129.335 375.324 129.344 375.114 129.395 374.913L133.94 356.631C133.977 356.491 134.044 356.361 134.136 356.249C134.228 356.138 134.343 356.047 134.472 355.983C134.602 355.919 134.744 355.883 134.889 355.878C135.033 355.873 135.177 355.899 135.311 355.954Z" fill="#E0E0E0"/>
<path d="M135.31 355.954C135.13 355.922 134.946 355.922 134.765 355.954C134.551 355.999 134.358 356.117 134.221 356.288C134.054 356.538 133.951 356.824 133.922 357.123C133.588 358.503 133.122 360.454 132.542 362.854C131.962 365.254 131.25 368.128 130.467 371.345C130.262 372.136 130.06 372.953 129.861 373.797C129.755 374.21 129.659 374.623 129.553 375.054C129.518 375.249 129.527 375.449 129.58 375.639C129.633 375.829 129.729 376.005 129.861 376.153C129.994 376.304 130.159 376.424 130.344 376.504C130.543 376.575 130.75 376.619 130.96 376.636L132.322 376.838L135.099 377.26C135.32 377.302 135.544 377.32 135.768 377.313C135.977 377.298 136.179 377.232 136.356 377.12C136.53 377.002 136.677 376.849 136.787 376.671C136.886 376.481 136.954 376.276 136.989 376.065C137.227 375.186 137.455 374.307 137.675 373.428L138.967 368.427C139.846 365.254 140.549 362.388 141.182 359.971C141.282 359.689 141.327 359.391 141.314 359.092C141.289 358.825 141.185 358.571 141.015 358.362C140.69 357.941 140.136 357.861 139.679 357.659L137.315 356.78L135.82 356.2C135.644 356.138 135.474 356.062 135.31 355.972C135.492 356.012 135.672 356.065 135.847 356.13L137.358 356.657L139.749 357.536L140.47 357.8C140.746 357.891 140.99 358.058 141.173 358.283C141.373 358.521 141.501 358.811 141.542 359.118C141.557 359.437 141.513 359.756 141.411 360.059C140.804 362.476 140.074 365.333 139.266 368.532C138.862 370.123 138.44 371.802 137.991 373.534C137.772 374.413 137.543 375.292 137.315 376.17C137.271 376.414 137.188 376.648 137.068 376.865C136.937 377.093 136.753 377.285 136.532 377.427C136.311 377.565 136.062 377.649 135.803 377.674C135.671 377.691 135.538 377.691 135.407 377.674L135.056 377.621L132.278 377.208L130.916 376.997C130.675 376.976 130.439 376.923 130.212 376.838C129.867 376.694 129.582 376.435 129.404 376.106C129.227 375.776 129.167 375.396 129.237 375.028C129.333 374.58 129.448 374.149 129.544 373.753L130.168 371.301C130.968 368.119 131.698 365.254 132.313 362.828C132.928 360.402 133.438 358.503 133.79 357.123C133.835 356.806 133.955 356.505 134.141 356.244C134.301 356.069 134.515 355.952 134.748 355.91C134.889 355.874 135.037 355.874 135.179 355.91C135.266 355.934 135.31 355.948 135.31 355.954Z" fill="#263238"/>
<path d="M140.475 361.746C139.521 360.8 138.289 360.183 136.959 359.989C135.657 359.661 134.285 359.753 133.039 360.252C134.32 360.16 135.608 360.204 136.88 360.384C138.126 360.701 139.332 361.158 140.475 361.746Z" fill="#263238"/>
<path d="M139.194 368.058C138.021 367.456 136.778 367.002 135.493 366.704C134.247 366.286 132.954 366.023 131.644 365.922C132.865 366.395 134.12 366.78 135.397 367.073C136.638 367.488 137.907 367.817 139.194 368.058Z" fill="#263238"/>
<path d="M137.269 374.615C135.953 374.509 134.659 374.213 133.428 373.736C132.255 373.126 131.179 372.344 130.237 371.416C130.237 371.416 130.404 371.855 130.905 372.409C132.25 373.848 134.106 374.703 136.074 374.791C136.48 374.824 136.889 374.763 137.269 374.615Z" fill="#263238"/>
<path d="M160.458 363.628L164.537 399.349L166.532 399.182L163.544 363.373L160.458 363.628Z" fill="#263238"/>
<path d="M158.717 385.716C158.717 385.848 157.838 385.936 156.959 386.463C156.08 386.991 155.526 387.667 155.412 387.588C155.298 387.509 155.711 386.639 156.739 386.059C157.021 385.855 157.346 385.718 157.688 385.659C158.031 385.599 158.383 385.619 158.717 385.716Z" fill="#263238"/>
<path d="M156.202 380.97C156.202 381.101 155.253 381.4 154.286 382.156C153.319 382.912 152.774 383.774 152.651 383.712C152.837 382.919 153.326 382.231 154.014 381.796C154.306 381.52 154.65 381.305 155.025 381.163C155.401 381.021 155.801 380.956 156.202 380.97Z" fill="#263238"/>
<path d="M151.455 376.372C151.316 376.993 151.119 377.599 150.866 378.183C150.75 378.807 150.567 379.417 150.321 380.003C150.116 379.358 150.153 378.661 150.427 378.042C150.752 376.988 151.358 376.302 151.455 376.372Z" fill="#263238"/>
<path d="M144.099 374.263C144.228 374.93 144.21 375.616 144.047 376.276C144.026 376.954 143.849 377.619 143.528 378.218C143.417 376.873 143.612 375.521 144.099 374.263Z" fill="#263238"/>
<path d="M143.703 377.515C143.963 377.58 144.204 377.707 144.406 377.884C145.004 378.31 145.514 378.847 145.909 379.466C146.181 379.898 146.4 380.361 146.559 380.846C146.658 381.128 146.705 381.426 146.7 381.725C146.699 381.908 146.64 382.086 146.533 382.235C146.468 382.32 146.385 382.389 146.289 382.437C146.192 382.484 146.086 382.508 145.979 382.507C145.63 382.448 145.316 382.26 145.1 381.98C144.871 381.74 144.662 381.481 144.476 381.206C144.085 380.63 143.788 379.995 143.597 379.325C143.492 378.957 143.418 378.581 143.377 378.2H143.835C143.781 378.846 143.529 379.46 143.114 379.958C142.739 380.398 142.318 380.796 141.857 381.145C141.743 381.233 141.655 381.312 141.523 381.4C141.45 381.456 141.366 381.495 141.276 381.515C141.187 381.535 141.094 381.534 141.004 381.514C140.911 381.488 140.827 381.434 140.763 381.361C140.699 381.288 140.657 381.197 140.644 381.101C140.612 380.956 140.612 380.806 140.644 380.661C140.778 380.217 140.996 379.802 141.286 379.44C141.691 378.93 142.22 378.533 142.824 378.288C143.038 378.188 143.272 378.137 143.509 378.139C142.729 378.453 142.045 378.965 141.523 379.624C141.281 379.961 141.103 380.34 140.995 380.74C140.943 380.943 140.995 381.154 141.075 381.145C141.154 381.136 141.373 381.013 141.576 380.837C142.005 380.499 142.394 380.112 142.736 379.686C143.097 379.25 143.312 378.712 143.351 378.148H143.808C143.847 378.501 143.914 378.851 144.01 379.193C144.209 379.822 144.505 380.416 144.889 380.951C145.063 381.207 145.254 381.451 145.461 381.681C145.609 381.887 145.828 382.031 146.076 382.085C146.252 382.085 146.366 381.936 146.392 381.69C146.4 381.439 146.362 381.188 146.278 380.951C146.148 380.488 145.962 380.042 145.724 379.624C145.18 378.808 144.495 378.093 143.703 377.515Z" fill="#263238"/>
<path d="M153.863 369.86C153.865 370.156 153.779 370.446 153.615 370.693C153.452 370.94 153.219 371.133 152.945 371.247C152.672 371.361 152.371 371.392 152.08 371.334C151.789 371.277 151.522 371.134 151.313 370.925C151.103 370.715 150.961 370.448 150.903 370.158C150.846 369.867 150.876 369.566 150.99 369.292C151.105 369.019 151.297 368.786 151.545 368.622C151.792 368.459 152.082 368.372 152.378 368.374C152.771 368.376 153.148 368.534 153.426 368.812C153.704 369.09 153.861 369.466 153.863 369.86Z" fill="#F5F5F5"/>
<path d="M125.053 374.518C128.375 370.176 129.729 364.586 129.966 359.118C130.115 357.899 129.93 356.663 129.43 355.541C128.911 354.701 128.204 353.994 127.364 353.475C126.128 352.614 124.809 351.878 123.427 351.278C123.238 351.164 123.027 351.094 122.808 351.073C122.589 351.052 122.368 351.08 122.161 351.155C121.713 351.41 121.642 352.034 121.625 352.535C121.341 359.113 119.799 365.576 117.08 371.573C116.963 371.833 116.907 372.116 116.918 372.4C116.929 372.684 117.007 372.962 117.144 373.212C117.282 373.461 117.475 373.675 117.71 373.836C117.945 373.997 118.214 374.101 118.496 374.14L121.633 374.553C122.768 374.716 123.921 374.704 125.053 374.518Z" fill="#263238"/>
<path d="M125.052 374.518H124.894L124.446 374.589C123.862 374.652 123.274 374.67 122.688 374.641C121.923 374.641 121.009 374.465 119.936 374.342C119.391 374.263 118.838 374.228 118.178 374.105C117.845 374.014 117.544 373.835 117.305 373.586C117.067 373.336 116.901 373.027 116.825 372.69C116.736 372.329 116.757 371.949 116.886 371.6C117.018 371.248 117.168 370.932 117.317 370.589C117.598 369.912 117.888 369.2 118.196 368.453C118.792 366.866 119.309 365.249 119.743 363.61C120.749 359.848 121.338 355.987 121.501 352.096C121.524 351.81 121.611 351.534 121.756 351.287C121.841 351.158 121.956 351.051 122.09 350.975C122.225 350.898 122.375 350.855 122.529 350.847C123.064 350.896 123.583 351.057 124.05 351.322C124.959 351.746 125.839 352.228 126.687 352.764C127.527 353.262 128.298 353.868 128.981 354.565C129.626 355.275 130.021 356.177 130.106 357.132C130.184 358.009 130.184 358.892 130.106 359.769C130.053 360.648 129.965 361.448 129.86 362.239C129.672 363.723 129.378 365.192 128.981 366.634C128.418 368.716 127.569 370.709 126.458 372.558C126.155 373.06 125.824 373.544 125.465 374.008L125.184 374.369L125.087 374.483C125.087 374.483 125.087 374.43 125.166 374.342L125.421 373.964C125.641 373.648 125.966 373.147 126.3 372.488C127.361 370.631 128.171 368.642 128.709 366.572C129.099 365.146 129.393 363.696 129.588 362.23C129.684 361.439 129.763 360.622 129.807 359.778C129.891 358.915 129.891 358.047 129.807 357.185C129.729 356.291 129.358 355.448 128.752 354.785C128.087 354.105 127.337 353.515 126.52 353.027C125.673 352.499 124.792 352.026 123.883 351.612C123.466 351.368 123.001 351.215 122.521 351.164C122.072 351.164 121.844 351.63 121.809 352.113C121.656 356.02 121.067 359.897 120.051 363.672C119.576 365.43 119.04 367.038 118.468 368.532C118.178 369.28 117.88 369.991 117.59 370.677C117.44 371.011 117.273 371.354 117.15 371.67C117.038 371.974 117.017 372.304 117.088 372.62C117.153 372.918 117.298 373.194 117.507 373.417C117.716 373.64 117.981 373.802 118.275 373.885C118.846 374 119.444 374.061 119.972 374.14C121.035 374.281 121.958 374.448 122.705 374.492C123.29 374.532 123.878 374.532 124.463 374.492H124.92C124.999 374.518 125.043 374.509 125.052 374.518Z" fill="#455A64"/>
<path d="M123.198 350.627C123.119 350.671 122.566 349.661 121.502 348.166C118.708 344.253 114.963 341.116 110.62 339.051C108.959 338.269 107.878 337.909 107.904 337.821C108.174 337.843 108.44 337.899 108.695 337.988C109.401 338.192 110.094 338.439 110.77 338.726C112.993 339.684 115.066 340.96 116.923 342.515C118.793 344.071 120.419 345.899 121.748 347.938C122.157 348.548 122.524 349.185 122.847 349.845C123.006 350.085 123.125 350.349 123.198 350.627Z" fill="#455A64"/>
<path d="M154.207 336.045C153.697 336.743 153.136 337.401 152.528 338.014C151.482 339.21 150.076 340.897 148.661 342.866C147.245 344.835 146.103 346.707 145.312 348.087C144.929 348.86 144.485 349.601 143.984 350.302C144.229 349.469 144.568 348.667 144.995 347.912C145.947 346.053 147.034 344.267 148.247 342.567C149.466 340.868 150.812 339.264 152.273 337.768C152.848 337.12 153.497 336.542 154.207 336.045Z" fill="#455A64"/>
<path d="M84.8555 285.32C84.75 284.757 87.0705 270.21 91.3423 260.19C92.8981 256.525 94.0408 253.967 95.6317 252.385C97.1938 250.881 98.9936 249.645 100.958 248.728L121.104 244.184C121.104 244.184 119.716 251.295 132.9 250.433C142.727 249.8 144.415 242.637 144.415 242.637C144.415 242.637 163.884 244.825 168.604 249.15C173.324 253.474 177.869 278.683 177.869 278.683L159.56 284.01L157.38 310.696L163.436 323.959C163.436 323.959 145.136 337.742 132.575 337.091C120.014 336.441 98.0753 329.181 98.0753 329.181L106.118 312.26L101.029 287.086L84.8555 285.32Z" fill="#F78D2F"/>
<path d="M95.9302 265.218C96.035 265.502 96.1087 265.797 96.1499 266.097C96.2818 266.747 96.4488 267.565 96.6422 268.558C97.0553 270.624 97.653 273.489 98.4001 276.627C99.1472 279.765 99.868 282.595 100.422 284.635C100.677 285.61 100.896 286.393 101.063 287.061C101.154 287.348 101.222 287.642 101.266 287.94C101.123 287.66 101.011 287.365 100.932 287.061C100.738 286.507 100.483 285.689 100.176 284.67C99.5691 282.648 98.7956 279.818 98.0573 276.671C97.319 273.524 96.7652 270.65 96.4136 268.567C96.2378 267.521 96.1148 266.677 96.0357 266.088C95.977 265.801 95.9417 265.51 95.9302 265.218Z" fill="#263238"/>
<path d="M160.956 260.726C161.325 260.682 161.15 266.132 160.719 272.768C160.508 276.099 160.279 279.105 160.086 281.285C159.989 282.314 159.91 283.184 159.849 283.861C159.832 284.178 159.785 284.493 159.708 284.801C159.674 284.483 159.674 284.162 159.708 283.843C159.708 283.166 159.787 282.305 159.84 281.268C159.981 279.018 160.165 276.038 160.376 272.75C160.587 269.463 160.754 266.483 160.895 264.233C161.015 263.068 161.035 261.895 160.956 260.726Z" fill="#263238"/>
<path d="M146.06 309.737C145.72 309.936 145.364 310.107 144.996 310.247C144.654 310.405 144.232 310.59 143.731 310.783C143.23 310.977 142.658 311.205 141.973 311.416C140.472 311.927 138.947 312.362 137.402 312.717C135.506 313.142 133.586 313.453 131.654 313.649C129.72 313.833 127.777 313.903 125.835 313.86C124.25 313.81 122.669 313.681 121.097 313.473C120.429 313.394 119.831 313.271 119.339 313.183C118.847 313.095 118.363 312.998 117.994 312.91C117.608 312.837 117.226 312.74 116.852 312.62C117.245 312.642 117.636 312.694 118.021 312.779C118.39 312.849 118.838 312.928 119.374 312.99C119.91 313.051 120.508 313.165 121.132 313.227C122.468 313.385 124.068 313.491 125.843 313.534C127.771 313.559 129.699 313.482 131.618 313.306C133.537 313.114 135.444 312.821 137.332 312.427C139.09 312.04 140.61 311.618 141.894 311.205C142.535 311.012 143.107 310.792 143.652 310.625C144.196 310.458 144.592 310.291 144.935 310.15C145.299 309.984 145.675 309.846 146.06 309.737Z" fill="#263238"/>
<path d="M137.692 249.186L139.968 276.9C140.001 277.351 139.858 277.797 139.57 278.146C139.282 278.494 138.871 278.719 138.421 278.772L121.325 280.591C120.871 280.634 120.418 280.498 120.062 280.212C119.706 279.927 119.475 279.514 119.418 279.062L116.069 250.108C116.045 249.87 116.07 249.63 116.142 249.402C116.213 249.174 116.331 248.963 116.488 248.782C116.644 248.601 116.836 248.454 117.051 248.349C117.266 248.245 117.5 248.185 117.739 248.175L135.908 247.595C136.351 247.586 136.781 247.745 137.112 248.04C137.443 248.335 137.65 248.744 137.692 249.186Z" fill="#263238"/>
<path d="M129.886 263.943C130.352 263.943 140.434 265.78 140.434 265.78L153.671 273.365L160.8 284.089L153.847 297.071L150.331 286.585C148.262 286.671 146.189 286.627 144.126 286.453C141.04 286.154 131.266 285.407 131.266 285.407L126.221 282.612C126.221 282.612 124.604 279.975 124.604 279.228C124.594 279.019 124.642 278.811 124.743 278.627C124.843 278.443 124.992 278.29 125.172 278.184C125.353 278.078 125.56 278.024 125.769 278.026C125.979 278.029 126.183 278.089 126.361 278.2C127.39 278.789 134.448 278.938 136.206 278.2C136.206 278.2 125.922 277.461 124.595 275.774C123.267 274.086 123.716 272.759 125.333 272.759C126.95 272.759 132.831 273.638 134.589 273.497C136.347 273.356 138.562 273.348 138.984 272.469C139.405 271.59 138.105 270.851 138.105 270.851L136.188 269.383C136.188 269.383 128.691 268.056 128.278 266.439C128.181 266.169 128.148 265.88 128.181 265.595C128.213 265.309 128.311 265.036 128.467 264.794C128.622 264.553 128.831 264.351 129.077 264.203C129.323 264.055 129.6 263.966 129.886 263.943Z" fill="#FFBF9D"/>
<path d="M126.449 263.459C126.449 263.459 117.853 264.848 117.308 265.393C116.763 265.938 105.943 279.202 105.943 279.202L111.463 290.066L121.132 284.792C122.119 284.352 123.15 284.016 124.208 283.79C124.208 283.79 133.982 282.252 134.615 281.074C135.248 279.896 134.888 279.632 134.158 279.448C133.428 279.263 127.592 279.931 126.247 280.177C124.955 280.304 123.654 280.304 122.362 280.177C122.362 280.177 126.414 279.228 127.337 278.903C128.26 278.578 137.349 276.556 137.199 274.921C137.05 273.286 135.925 272.706 130.229 274.244C127.122 275.128 123.92 275.639 120.692 275.765L133.27 271.37C133.27 271.37 138.342 269.735 136.707 268.294C135.072 266.852 124.226 269.832 124.226 269.832L119.426 271.642L120.78 268.742C120.78 268.742 127.601 266.72 128.48 266.035C129.561 265.156 129.71 264.408 128.902 263.714C128.093 263.02 126.449 263.459 126.449 263.459Z" fill="#FFBF9D"/>
<path d="M85.8161 285.434L100.477 286.937L102.543 284.3L105.945 279.202L111.465 290.067C111.465 290.067 109.46 296.518 108.388 300.078C105.505 309.633 100.811 320.294 95.0453 319.776C88.1278 319.134 83.0649 310.933 83.1791 305.624C83.2846 300.755 85.8161 285.434 85.8161 285.434Z" fill="#FFBF9D"/>
<path d="M176.234 279.281L164.034 282.384L160.307 283.192L156.906 278.094L151.386 288.95C151.386 288.95 153.39 295.401 154.462 298.97C157.345 308.516 162.039 319.186 167.805 318.668C174.723 318.017 179.785 309.816 179.662 304.507C179.566 299.682 176.234 279.281 176.234 279.281Z" fill="#FFBF9D"/>
<path d="M105.943 279.167C105.943 279.167 106.031 279.035 106.233 278.78C106.435 278.525 106.734 278.156 107.112 277.673L110.531 273.436L115.954 266.791L116.772 265.815L117.203 265.314C117.393 265.169 117.612 265.064 117.844 265.007C118.723 264.752 119.602 264.558 120.534 264.365C122.397 263.987 124.357 263.635 126.432 263.293C126.954 263.177 127.492 263.153 128.023 263.222C128.306 263.254 128.579 263.347 128.823 263.495C129.066 263.655 129.271 263.868 129.42 264.119C129.493 264.252 129.538 264.399 129.553 264.549C129.568 264.7 129.553 264.853 129.508 264.998C129.406 265.278 129.244 265.533 129.034 265.745C128.833 265.959 128.602 266.142 128.348 266.29C128.095 266.426 127.834 266.546 127.566 266.65C125.447 267.529 123.171 268.18 120.833 268.892L120.929 268.812C120.516 269.691 120.05 270.702 119.576 271.704L119.382 271.493L124.173 269.674C126.23 269.12 128.348 268.619 130.537 268.215C131.644 268.006 132.762 267.856 133.885 267.767C134.47 267.717 135.059 267.717 135.643 267.767C135.946 267.791 136.242 267.862 136.522 267.977C136.679 268.042 136.82 268.14 136.935 268.265C137.05 268.389 137.138 268.537 137.19 268.698C137.224 268.868 137.215 269.044 137.164 269.209C137.113 269.375 137.023 269.525 136.9 269.648C136.693 269.874 136.457 270.073 136.197 270.236C135.696 270.552 135.17 270.825 134.624 271.054C133.525 271.52 132.4 271.854 131.284 272.258L124.472 274.64L120.771 275.932L120.71 275.589C123.712 275.455 126.691 274.999 129.596 274.227C131.012 273.824 132.45 273.501 133.903 273.26C134.633 273.133 135.379 273.133 136.109 273.26C136.503 273.33 136.857 273.543 137.103 273.858C137.319 274.187 137.435 274.571 137.437 274.965C137.418 275.184 137.317 275.388 137.155 275.537C137.024 275.671 136.88 275.792 136.725 275.897C136.426 276.095 136.111 276.269 135.784 276.416C135.152 276.71 134.503 276.969 133.842 277.189C132.541 277.646 131.205 278.015 129.948 278.367L128.032 278.877C127.407 279.044 126.783 279.264 126.151 279.404C124.902 279.729 123.672 280.019 122.468 280.283V279.984C123.879 280.152 125.306 280.134 126.713 279.932C128.111 279.729 129.464 279.58 130.792 279.448C131.46 279.387 132.119 279.325 132.769 279.29C133.094 279.29 133.42 279.29 133.745 279.246C133.912 279.246 134.07 279.246 134.255 279.246C134.419 279.285 134.579 279.344 134.729 279.422C134.817 279.462 134.895 279.521 134.959 279.593C135.023 279.666 135.07 279.751 135.098 279.844C135.147 280.016 135.147 280.199 135.098 280.371C135.056 280.529 134.997 280.682 134.923 280.828L134.817 281.039C134.776 281.122 134.716 281.195 134.641 281.25C134.125 281.596 133.554 281.854 132.954 282.015C130.808 282.617 128.631 283.101 126.432 283.465L124.938 283.72C124.463 283.783 123.993 283.88 123.531 284.01C122.659 284.194 121.814 284.489 121.017 284.889L113.986 288.633L112.131 289.609L111.656 289.855L111.489 289.934L111.639 289.838L112.104 289.565L113.942 288.554L120.903 284.731C122.626 283.928 124.471 283.418 126.361 283.219C128.546 282.843 130.709 282.347 132.84 281.733C133.408 281.585 133.948 281.344 134.439 281.021C134.487 280.983 134.525 280.935 134.554 280.881L134.659 280.687C134.719 280.554 134.769 280.416 134.808 280.274C134.896 279.984 134.808 279.738 134.589 279.615C134.457 279.552 134.318 279.505 134.176 279.474C134.026 279.461 133.876 279.461 133.727 279.474C133.411 279.474 133.094 279.474 132.769 279.518C132.119 279.518 131.468 279.615 130.809 279.685C129.482 279.817 128.119 279.975 126.739 280.178C125.31 280.39 123.859 280.414 122.424 280.248C122.383 280.244 122.346 280.224 122.32 280.193C122.294 280.162 122.281 280.122 122.283 280.081C122.286 280.05 122.298 280.02 122.319 279.997C122.339 279.973 122.367 279.956 122.397 279.949C123.601 279.659 124.832 279.369 126.071 279.07C126.704 278.921 127.302 278.71 127.944 278.534L129.86 278.024C131.143 277.673 132.444 277.295 133.736 276.846C134.385 276.626 135.022 276.371 135.643 276.082C135.948 275.936 136.242 275.769 136.522 275.581C136.777 275.405 137.085 275.15 137.085 274.921C137.074 274.609 136.98 274.306 136.812 274.042C136.613 273.792 136.328 273.623 136.013 273.568C135.323 273.449 134.619 273.449 133.929 273.568C132.492 273.808 131.069 274.128 129.666 274.526C126.733 275.306 123.724 275.769 120.692 275.906C120.669 275.907 120.647 275.904 120.625 275.896C120.604 275.888 120.585 275.876 120.568 275.86C120.552 275.844 120.539 275.826 120.53 275.805C120.521 275.784 120.516 275.762 120.516 275.739C120.513 275.702 120.522 275.665 120.543 275.635C120.564 275.604 120.595 275.582 120.631 275.572L124.34 274.28L131.152 271.906C132.268 271.502 133.402 271.159 134.466 270.711C134.995 270.493 135.504 270.229 135.986 269.92C136.218 269.77 136.43 269.593 136.619 269.393C136.705 269.314 136.771 269.215 136.809 269.104C136.848 268.994 136.858 268.875 136.839 268.76C136.698 268.303 136.136 268.127 135.591 268.083C135.032 268.039 134.471 268.039 133.912 268.083C132.803 268.174 131.7 268.323 130.607 268.531C128.427 268.927 126.309 269.41 124.27 269.973L119.488 271.801C119.449 271.816 119.407 271.814 119.369 271.798C119.331 271.782 119.301 271.751 119.286 271.713C119.277 271.694 119.272 271.673 119.272 271.652C119.272 271.63 119.277 271.609 119.286 271.59C119.752 270.579 120.217 269.595 120.639 268.698C120.662 268.66 120.696 268.63 120.736 268.61C123.074 267.907 125.351 267.213 127.451 266.395C127.706 266.29 127.97 266.184 128.199 266.061C128.426 265.924 128.634 265.756 128.814 265.56C129.012 265.416 129.155 265.209 129.219 264.972C129.283 264.735 129.264 264.484 129.165 264.259C129.042 264.045 128.869 263.863 128.661 263.729C128.453 263.594 128.216 263.511 127.97 263.486C127.475 263.421 126.972 263.445 126.485 263.556C124.419 263.89 122.45 264.233 120.595 264.602C119.672 264.787 118.767 264.971 117.958 265.226C117.762 265.273 117.574 265.353 117.405 265.464L116.983 265.956C116.71 266.281 116.429 266.606 116.165 266.931L110.689 273.533C109.186 275.343 108.052 276.75 107.217 277.725L106.338 278.806C106.057 279.053 105.943 279.167 105.943 279.167Z" fill="#FF9A6C"/>
<path d="M106.832 278.816C106.929 278.895 102.886 284.3 97.8052 290.902C92.7247 297.503 88.5232 302.785 88.4265 302.715C88.3298 302.645 92.3731 297.23 97.4536 290.629C102.534 284.028 106.736 278.745 106.832 278.816Z" fill="#FF9A6C"/>
<path d="M173.306 302.715C173.235 302.715 172.726 301.484 171.671 299.577C170.259 297.103 168.682 294.728 166.951 292.466C164.955 289.829 163.057 287.447 161.747 285.689C161.079 284.81 160.569 284.098 160.227 283.588C160.029 283.338 159.863 283.063 159.734 282.771C159.973 282.982 160.185 283.221 160.367 283.483C160.807 284.036 161.352 284.705 161.993 285.496C163.365 287.192 165.307 289.513 167.267 292.202C169.003 294.474 170.543 296.888 171.873 299.419C172.273 300.188 172.629 300.981 172.937 301.792C173.106 302.079 173.231 302.39 173.306 302.715Z" fill="#FF9A6C"/>
</svg>
