<svg width="925" height="653" viewBox="0 0 925 653" fill="none" xmlns="http://www.w3.org/2000/svg">
<path d="M681.624 510.027L747.578 443.767L714.415 382.859C681.253 340.389 611.038 343.12 611.038 343.12C576.398 340.766 541.599 342.902 507.508 349.477C451.734 360.401 456.234 397.234 456.234 397.234L448.763 533.927L440.745 645.235L646.429 649.386L681.624 510.114" fill="#E7E7E7"/>
<path d="M570.817 642.876L755.049 645.06C765.198 645.178 775.21 642.715 784.145 637.901C793.081 633.087 800.646 626.081 806.131 617.541C811.615 609.001 814.839 599.206 815.499 589.078C816.159 578.95 814.234 568.821 809.905 559.641L731.127 413.553L659.361 462.052L708.319 563.573L559.195 566.238L570.817 642.876Z" fill="#E7E7E7"/>
<path d="M462.742 374.95L314.907 603.202L401.157 608.839C401.157 608.839 452.671 527.679 451.513 529.339C449.46 532.398 462.742 374.95 462.742 374.95Z" fill="#E7E7E7"/>
<path d="M663.075 475.182C663.07 474.781 663.003 474.383 662.878 474.002C662.66 473.129 662.42 472.036 662.092 470.682C661.415 467.82 660.41 463.669 659.383 458.513C658.356 453.357 657.198 447.153 656.477 440.25C655.59 432.768 655.59 425.208 656.477 417.726C657.663 410.307 660.25 403.182 664.102 396.731C667.197 391.421 670.86 386.462 675.025 381.941C677.833 378.851 680.824 375.933 683.982 373.203C685.186 372.261 686.338 371.254 687.434 370.188C687.078 370.365 686.742 370.577 686.429 370.821C685.817 371.28 684.834 371.914 683.698 372.853C680.413 375.447 677.317 378.272 674.435 381.308C670.129 385.795 666.347 390.756 663.162 396.098C659.176 402.648 656.504 409.913 655.298 417.486C654.433 425.06 654.491 432.711 655.472 440.271C656.21 446.423 657.26 452.534 658.618 458.579C659.754 463.756 660.803 467.885 661.699 470.725C662.092 472.145 662.441 473.238 662.682 473.98C662.774 474.393 662.906 474.795 663.075 475.182Z" fill="#263238"/>
<path d="M669.018 483.047C669.333 484.185 669.757 485.29 670.285 486.346C671.159 488.531 672.469 491.458 674.152 495.084C677.494 502.49 682.235 512.671 687.696 523.813C693.158 534.954 698.314 544.938 702.137 552.213C704.059 555.796 705.632 558.767 706.746 560.668C707.278 561.726 707.892 562.741 708.582 563.704C708.189 562.589 707.707 561.508 707.14 560.471C706.025 558.286 704.584 555.359 702.77 551.842L688.636 523.441C683.283 512.365 678.412 502.359 674.785 494.866C673.081 491.349 671.683 488.421 670.591 486.127C670.153 485.058 669.627 484.028 669.018 483.047Z" fill="#263238"/>
<path d="M570.816 642.876C570.816 642.876 570.816 642.745 570.816 642.504C570.816 642.264 570.816 641.827 570.816 641.368C570.707 640.32 570.554 638.856 570.379 636.999C569.943 633.11 569.331 627.583 568.566 620.614C566.95 606.479 564.634 586.599 562.012 563.158L561.488 563.726H615.907L710.961 563.573L739.799 563.398L747.642 563.289H749.695H750.394C750.162 563.261 749.927 563.261 749.695 563.289H747.642L739.799 563.18L710.961 563.005L615.755 562.852H561.335H560.745V563.42C563.629 586.839 566.054 606.72 567.802 620.833C568.675 627.78 569.396 633.307 569.986 637.196C570.219 639.031 570.416 640.487 570.576 641.565L570.751 642.679C570.773 642.745 570.795 642.876 570.816 642.876Z" fill="#263238"/>
<path d="M707.03 565.189C708.349 563.732 709.575 562.192 710.7 560.58C716.588 553.188 723.879 547.033 732.153 542.469C733.921 541.614 735.642 540.666 737.309 539.629C735.37 540.083 733.508 540.819 731.782 541.814C723.164 546.071 715.711 552.362 710.067 560.143C708.826 561.677 707.804 563.375 707.03 565.189Z" fill="#263238"/>
<path d="M445.703 579.652C445.863 579.029 445.965 578.393 446.009 577.751C446.162 576.418 446.359 574.605 446.621 572.311C447.123 567.592 447.8 560.754 448.521 552.3C450.029 535.369 451.755 511.949 453.284 486.083C454.813 460.217 455.884 436.754 456.495 419.779C456.801 411.281 457.02 404.487 457.107 399.659C457.107 397.365 457.107 395.551 457.216 394.197C457.25 393.564 457.25 392.929 457.216 392.296C457.095 392.923 457.03 393.559 457.02 394.197C457.02 395.53 456.845 397.365 456.714 399.659C456.474 404.509 456.146 411.346 455.731 419.736C454.922 436.71 453.721 460.13 452.192 486.018C450.662 511.906 449.046 535.281 447.822 552.234C447.167 560.602 446.643 567.527 446.271 572.289C446.096 574.474 445.965 576.397 445.856 577.729C445.747 578.364 445.696 579.007 445.703 579.652Z" fill="#263238"/>
<path d="M610.163 455.455C610.154 454.453 610.073 453.453 609.923 452.462C609.661 450.387 609.333 447.612 608.918 444.204C607.957 436.995 606.733 427.12 605.117 415.672L604.286 416.197L618.421 426.093L632.796 436.099L633.823 436.82L633.648 435.575C631.9 424.236 630.415 414.449 629.279 407.174C628.711 403.832 628.274 401.079 627.924 399.025C627.807 398.041 627.602 397.068 627.313 396.12C627.311 397.116 627.399 398.11 627.575 399.091C627.837 401.145 628.165 403.897 628.601 407.283C629.585 414.449 630.961 424.258 632.534 435.684L633.364 435.159L619.011 425.11L604.854 415.257L603.828 414.536L604.002 415.782C605.685 427.186 607.148 437.06 608.197 444.182C608.743 447.568 609.18 450.343 609.508 452.396C609.634 453.433 609.854 454.457 610.163 455.455Z" fill="#E0E0E0"/>
<path d="M527.932 464.303C528.72 463.676 529.451 462.981 530.117 462.227C531.537 460.698 533.459 458.666 535.819 456.176L555.328 435.029L554.388 434.701C554.847 440.053 555.328 445.864 555.83 451.894C556.333 457.924 556.857 463.91 557.316 469.371L557.425 470.638L558.255 469.699L577.24 448.289L582.658 442.041C583.347 441.326 583.962 440.543 584.493 439.704C583.707 440.372 582.976 441.103 582.308 441.888L576.672 447.918L557.403 469.043L558.342 469.371C557.884 463.931 557.403 458.033 556.879 451.894C556.354 445.755 555.874 440.053 555.415 434.701L555.306 433.456L554.476 434.373L535.251 455.805L529.767 462.074C529.098 462.768 528.485 463.513 527.932 464.303Z" fill="#E0E0E0"/>
<path d="M486.555 461.375C486.962 462.296 487.459 463.174 488.04 463.997L492.41 471.031L508.008 495.237L508.532 494.407L491.579 491.479L474.321 488.574L473.075 488.355L473.665 489.295L489.613 513.02L494.419 519.88C494.953 520.719 495.552 521.516 496.211 522.261C495.78 521.367 495.283 520.505 494.725 519.683L490.356 512.692L474.736 488.661L474.19 489.491L491.448 492.484L508.467 495.368L509.712 495.565L509.013 494.538L493.087 470.507L488.412 463.625C487.838 462.839 487.218 462.087 486.555 461.375Z" fill="#E0E0E0"/>
<path d="M541.586 503.713C541.997 504.626 542.494 505.496 543.072 506.313L547.441 513.369L563.018 537.554L563.564 536.723L546.567 533.796L529.287 530.869L528.041 530.672L528.762 531.699L544.71 555.446L549.407 562.262C549.929 563.103 550.529 563.893 551.199 564.621C550.761 563.73 550.265 562.869 549.713 562.043C548.577 560.296 547.091 557.958 545.344 555.074L529.724 531.043L529.177 531.873L546.436 534.866L563.454 537.728L564.7 537.947L564.001 536.898L548.075 512.867C546.152 510.027 544.579 507.711 543.378 505.985C542.836 505.186 542.237 504.426 541.586 503.713Z" fill="#E0E0E0"/>
<path d="M422.678 460.895C423.111 461.795 423.607 462.664 424.163 463.494L428.533 470.551L444.109 494.735L444.655 493.905L427.659 490.977L410.378 488.05L409.133 487.853L409.832 488.88L425.802 512.627C427.724 515.423 429.297 517.717 430.499 519.421C431.016 520.272 431.616 521.07 432.29 521.802C431.849 520.909 431.346 520.047 430.783 519.225L426.413 512.256L410.793 488.224L410.247 489.055L427.506 492.026L444.524 494.909L445.748 495.128L445.07 494.079L429.144 470.048L424.447 463.167C423.933 462.353 423.34 461.592 422.678 460.895Z" fill="#E0E0E0"/>
<path d="M354.079 570.87C354.86 570.275 355.591 569.618 356.264 568.903L362.25 563.136L382.807 542.993L381.89 542.622C382.065 547.996 382.239 553.807 382.436 559.859C382.633 565.91 382.873 571.918 383.069 577.336V578.603L383.965 577.707L403.977 557.281L409.7 551.317C410.411 550.641 411.069 549.91 411.667 549.132C410.888 549.73 410.158 550.388 409.482 551.099L403.54 556.844L383.222 576.987L384.162 577.358C383.987 571.896 383.79 565.998 383.594 559.881C383.397 553.764 383.157 548.018 382.96 542.644V541.399L382.086 542.273L361.835 562.721L356.045 568.707C355.331 569.372 354.673 570.095 354.079 570.87Z" fill="#E0E0E0"/>
<path d="M701.111 425.809C701.539 426.713 702.035 427.582 702.597 428.409L706.966 435.465L722.543 459.671L723.089 458.841L706.092 455.892L688.812 452.986L687.566 452.768L688.266 453.816L704.235 477.541L708.91 484.358C709.441 485.192 710.04 485.982 710.702 486.717C710.283 485.823 709.786 484.967 709.216 484.161L704.847 477.17C700.893 471.119 695.475 462.817 689.227 453.139L688.681 453.969L705.939 456.962L722.958 459.846L724.181 460.042L723.504 459.016C717.103 449.403 711.598 441.102 707.578 434.985L702.881 428.103C702.352 427.293 701.761 426.526 701.111 425.809Z" fill="#E0E0E0"/>
<path d="M787.491 589.177C786.755 589.842 786.083 590.573 785.482 591.362L780.151 597.763L762.04 620.112L763.002 620.374C762.215 615.065 761.385 609.298 760.489 603.29C759.594 597.282 758.72 591.362 757.911 585.966L757.737 584.72L756.95 585.725L739.342 608.271L734.339 614.825C733.703 615.583 733.133 616.395 732.635 617.25C733.352 616.573 734.017 615.843 734.623 615.065L739.866 608.686L757.671 586.381L756.71 586.14C757.496 591.537 758.348 597.391 759.244 603.465C760.14 609.538 760.992 615.218 761.8 620.527L761.975 621.772L762.761 620.789L780.588 598.2L785.678 591.646C786.337 590.865 786.943 590.04 787.491 589.177Z" fill="#E0E0E0"/>
<path d="M590.217 483.396C591.195 483.606 592.189 483.737 593.188 483.789L601.49 484.51L630.196 486.695L629.846 485.778L617.263 497.575L604.526 509.59L603.609 510.464H604.876L633.429 512.037L641.687 512.387C642.676 512.472 643.67 512.472 644.658 512.387C643.685 512.191 642.7 512.067 641.709 512.015L633.473 511.36L604.941 509.394L605.269 510.311L618.049 498.339L630.589 486.498L631.507 485.625H630.261L601.533 483.899L593.232 483.484C592.23 483.379 591.223 483.349 590.217 483.396Z" fill="#E0E0E0"/>
<path d="M638.63 593.503C637.901 594.188 637.215 594.917 636.576 595.687L631.137 601.979L612.545 623.956L613.506 624.219C612.829 618.888 612.086 613.121 611.322 607.113C610.557 601.105 609.771 595.141 609.137 589.745L608.962 588.478L608.176 589.461L590.087 611.635L584.953 618.189C584.317 618.949 583.733 619.752 583.205 620.592C583.942 619.922 584.622 619.191 585.237 618.407L590.611 612.138L608.962 590.291L608.023 590.007C608.7 595.425 609.443 601.28 610.208 607.375C610.972 613.47 611.737 619.172 612.392 624.503L612.567 625.748L613.354 624.787L631.639 602.547L636.838 595.993C637.516 595.224 638.116 594.39 638.63 593.503Z" fill="#E0E0E0"/>
<path d="M725.164 512.758C726.141 512.972 727.135 513.104 728.135 513.151L736.415 513.85L765.121 516.035L764.793 515.095L752.188 526.914L739.451 538.93L738.534 539.804H739.801L768.354 541.377L776.612 541.726C777.579 541.808 778.551 541.808 779.518 541.726C778.547 541.517 777.561 541.393 776.569 541.355L768.332 540.699L739.801 538.711L740.129 539.651L752.909 527.679L765.471 515.838L766.366 514.964H765.121L736.393 513.217L728.091 512.823C727.118 512.728 726.14 512.706 725.164 512.758Z" fill="#E0E0E0"/>
<path d="M650.818 591.034C651.796 591.241 652.79 591.366 653.789 591.405L662.091 592.126L690.797 594.311L690.447 593.371L677.864 605.19L665.127 617.206L664.21 618.08H665.455L694.03 619.631L702.288 620.002C703.277 620.088 704.271 620.088 705.259 620.002C704.289 619.793 703.302 619.669 702.31 619.631L694.074 618.975L665.542 616.987L665.87 617.927L678.65 605.955L691.19 594.158L692.108 593.306H690.862L662.134 591.558L653.811 591.165C652.819 591.031 651.817 590.987 650.818 591.034Z" fill="#E0E0E0"/>
<path d="M483.018 391.882C483.996 392.091 484.99 392.223 485.989 392.275L494.291 392.974L522.975 395.159L522.648 394.241L510.064 406.038L497.328 418.054L496.41 418.928H497.655L526.23 420.501L534.488 420.85C535.477 420.936 536.471 420.936 537.459 420.85C536.489 420.641 535.502 420.517 534.51 420.479L526.274 419.823L497.721 417.857L498.07 418.775L510.807 406.825L523.347 394.984L524.264 394.11H523.019L494.291 392.362L485.967 391.969C484.988 391.866 484.002 391.837 483.018 391.882Z" fill="#E0E0E0"/>
<path d="M564.636 591.033C564.636 591.033 527.89 580.438 515.722 577.336C510.981 576.134 490.686 586.839 476.66 595.752C476.66 595.752 457.348 607.2 458.899 610.717C460.625 614.606 467.638 613.819 479.107 608.532C479.107 608.532 475.131 620.046 482.93 619.783C482.93 619.783 479.063 632.236 486.36 633.525C493.657 634.814 495.361 618.931 501.784 618.079C508.207 617.227 521.446 616.354 521.446 616.354C521.446 616.354 532.522 634.705 541.107 636.015C549.693 637.326 569.508 634.989 569.508 634.989L564.636 591.033Z" fill="#FFBE9D"/>
<path d="M501.914 593.568C498.317 595.17 494.879 597.108 491.646 599.357C488.216 601.297 484.982 603.565 481.99 606.13C489.027 602.605 495.7 598.398 501.914 593.568Z" fill="#EB996E"/>
<path d="M504.076 600.712C499.878 602.033 495.8 603.706 491.885 605.715C487.838 607.359 483.936 609.34 480.219 611.635C484.418 610.328 488.497 608.662 492.41 606.654C496.464 605.018 500.368 603.03 504.076 600.712Z" fill="#EB996E"/>
<path d="M500.144 617.774C494.594 617.753 489.067 618.488 483.715 619.958C489.265 619.974 494.791 619.239 500.144 617.774Z" fill="#EB996E"/>
<path d="M612.457 211.845C612.024 213.261 612.018 214.772 612.439 216.191C612.86 217.611 613.69 218.874 614.824 219.825C615.959 220.776 617.349 221.371 618.82 221.537C620.291 221.703 621.778 221.432 623.096 220.758C628.077 218.246 628.711 211.364 627.727 205.881C626.744 200.397 624.887 194.521 627.181 189.43C628.951 185.542 632.774 183.073 635.745 180.015C638.367 177.356 640.337 174.126 641.501 170.578C642.664 167.03 642.99 163.261 642.452 159.566C641.822 155.882 640.188 152.444 637.728 149.63C635.269 146.816 632.08 144.736 628.514 143.618C621.195 141.587 612.173 143.837 606.667 138.528C602.713 134.683 602.473 128.413 599.414 123.826C594.674 116.704 584.646 115.568 576.17 116.725C567.693 117.883 559.086 120.614 550.784 118.539C543.859 116.813 538.179 111.985 531.669 109.014C524.573 105.77 516.641 104.825 508.983 106.311C501.324 107.797 494.321 111.639 488.953 117.301C483.586 122.962 480.121 130.16 479.045 137.887C477.969 145.614 479.335 153.484 482.951 160.396C485.362 165.455 489.466 169.512 494.551 171.866" fill="#263238"/>
<path d="M570.294 392.318C564.723 392.307 559.21 391.191 554.073 389.033C548.937 386.876 544.28 383.72 540.373 379.749C536.465 375.779 533.384 371.072 531.309 365.902C529.234 360.732 528.205 355.201 528.283 349.63L528.83 309.477C528.83 309.477 495.099 306.09 492.87 272.665C490.642 239.24 492.237 162.1 492.237 162.1C510.797 152.893 531.477 148.802 552.144 150.25C572.812 151.698 592.719 158.631 609.814 170.337L614.97 173.898L612.458 350.723C612.326 361.812 607.823 372.401 599.928 380.189C592.033 387.978 581.384 392.336 570.294 392.318Z" fill="#FFBE9D"/>
<path d="M501.062 222.768C502.282 222.628 503.407 222.044 504.224 221.127C505.042 220.211 505.493 219.026 505.493 217.798C505.493 216.57 505.042 215.385 504.224 214.469C503.407 213.552 502.282 212.968 501.062 212.828C500.797 212.762 500.519 212.762 500.254 212.828C499.034 212.968 497.908 213.552 497.091 214.469C496.274 215.385 495.822 216.57 495.822 217.798C495.822 219.026 496.274 220.211 497.091 221.127C497.908 222.044 499.034 222.628 500.254 222.768C500.521 222.812 500.794 222.812 501.062 222.768Z" fill="#263238"/>
<path d="M494.509 211.976C495.055 212.544 498.201 209.791 502.81 209.551C507.42 209.311 510.894 211.473 511.352 210.862C511.811 210.25 511.025 209.573 509.495 208.546C507.452 207.235 505.042 206.614 502.619 206.775C500.196 206.937 497.89 207.871 496.038 209.442C494.662 210.665 494.225 211.845 494.509 211.976Z" fill="#263238"/>
<path d="M547.792 213.112C546.999 213.66 546.387 214.432 546.033 215.329C545.679 216.225 545.6 217.207 545.804 218.149C546.008 219.091 546.487 219.952 547.18 220.621C547.874 221.291 548.75 221.74 549.699 221.911C550.648 222.083 551.626 221.969 552.51 221.584C553.394 221.199 554.143 220.561 554.664 219.75C555.185 218.938 555.454 217.991 555.436 217.027C555.418 216.063 555.115 215.126 554.564 214.335C553.827 213.276 552.701 212.552 551.431 212.323C550.161 212.094 548.853 212.377 547.792 213.112Z" fill="#263238"/>
<path d="M544.754 213.309C545.322 213.877 548.468 211.124 553.056 210.884C557.644 210.643 561.139 212.806 561.62 212.194C561.86 211.91 561.27 210.905 559.763 209.879C557.719 208.567 555.309 207.947 552.886 208.108C550.464 208.269 548.157 209.204 546.305 210.774C544.929 211.998 544.492 213.068 544.754 213.309Z" fill="#263238"/>
<path d="M528.283 252.326C528.283 251.977 525.421 251.54 520.745 251.147C519.544 251.147 518.561 250.863 518.452 250.229C518.364 249.024 518.597 247.818 519.129 246.734C520.156 243.609 521.182 240.464 522.275 237.165C526.644 223.554 529.506 212.347 528.829 212.129C528.151 211.91 524.088 222.768 519.784 236.378C518.779 239.699 517.796 242.932 516.857 245.991C516.163 247.581 516.025 249.359 516.464 251.037C516.659 251.491 516.958 251.891 517.338 252.206C517.718 252.522 518.167 252.742 518.648 252.851C519.329 253.003 520.028 253.054 520.724 253.003C525.442 252.916 528.283 252.698 528.283 252.326Z" fill="#263238"/>
<path d="M543.574 256.608C536.553 260.213 529.07 262.837 521.335 264.407C523.03 266.737 525.465 268.424 528.242 269.193C531.018 269.963 533.974 269.77 536.627 268.646C546.48 264.429 543.574 256.608 543.574 256.608Z" fill="white"/>
<path d="M528.698 308.996C544.163 308.445 559.114 303.304 571.648 294.228C571.648 294.228 562.647 318.849 529.113 317.669L528.698 308.996Z" fill="#EB996E"/>
<path d="M491.951 170.555C491.951 170.555 512.159 180.823 538.921 168.108C556.398 159.763 576.868 155.896 581.281 159.501C585.694 163.105 586.284 181.019 603.412 186.59C603.412 186.59 601.555 220.802 615.231 219.841C628.907 218.879 621.391 165.727 621.391 165.727L588.338 148.774L552.051 141.193L517.643 145.366L490.946 152.117L491.951 170.555Z" fill="#263238"/>
<path d="M612.741 208.852C613.287 208.568 635.352 200.791 635.855 223.708C636.357 246.625 613.265 242.408 613.222 241.753C613.178 241.097 612.741 208.852 612.741 208.852Z" fill="#FFBE9D"/>
<path d="M620.037 232.905C620.037 232.905 620.452 233.189 621.129 233.473C622.089 233.863 623.163 233.863 624.122 233.473C626.525 232.534 628.492 228.645 628.492 224.516C628.494 222.548 628.07 220.602 627.246 218.814C627.011 218.104 626.608 217.462 626.072 216.941C625.536 216.42 624.882 216.036 624.166 215.821C623.704 215.737 623.227 215.804 622.805 216.013C622.384 216.221 622.042 216.56 621.828 216.979C621.544 217.612 621.697 218.071 621.588 218.115C621.479 218.159 621.086 217.744 621.239 216.804C621.359 216.232 621.666 215.717 622.112 215.34C622.731 214.854 623.514 214.627 624.297 214.707C625.243 214.87 626.131 215.273 626.877 215.877C627.623 216.482 628.201 217.267 628.557 218.159C629.566 220.126 630.09 222.305 630.086 224.516C630.086 229.126 627.771 233.517 624.494 234.543C623.881 234.73 623.234 234.78 622.6 234.69C621.966 234.599 621.359 234.37 620.823 234.019C620.037 233.473 620.037 232.949 620.037 232.905Z" fill="#EB996E"/>
<path d="M624.408 137.13C621.794 136.363 619.002 136.464 616.45 137.417C613.898 138.37 611.723 140.124 610.251 142.417C612.288 140.874 614.486 139.556 616.805 138.485C619.286 137.77 621.834 137.316 624.408 137.13Z" fill="#263238"/>
<path d="M610.622 123.41C610.207 123.41 610.841 128.238 610.054 133.962C609.374 137.403 608.297 140.754 606.843 143.946C606.843 143.946 607.804 143.138 608.765 141.434C609.999 139.166 610.813 136.694 611.168 134.137C611.805 130.566 611.618 126.898 610.622 123.41Z" fill="#263238"/>
<path d="M516.485 200.921C516.617 200.659 515.633 199.851 513.776 199.108C508.847 197.202 503.374 197.257 498.484 199.261C496.649 200.048 495.666 200.856 495.797 201.118C496.081 201.73 500.494 200.004 506.152 200.004C511.81 200.004 516.223 201.599 516.485 200.921Z" fill="#263238"/>
<path d="M567.607 196.159C567.738 195.897 566.755 195.11 564.898 194.346C562.453 193.401 559.85 192.934 557.229 192.969C554.598 192.969 551.992 193.489 549.561 194.499C547.726 195.285 546.765 196.093 546.874 196.377C546.983 196.661 551.571 195.263 557.251 195.241C562.931 195.22 567.301 196.771 567.607 196.159Z" fill="#263238"/>
<path d="M520.439 204.592C520.39 205.042 520.39 205.496 520.439 205.946C520.439 206.907 520.439 208.131 520.33 209.638C520.221 211.146 520.33 213.177 520.199 215.362C520.281 217.883 519.911 220.399 519.107 222.79C518.053 225.891 516.23 228.675 513.807 230.879C511.385 233.084 508.443 234.638 505.256 235.395C503.428 235.842 501.541 236.004 499.663 235.876C497.71 235.788 495.784 235.382 493.961 234.674C490.075 233.218 486.764 230.543 484.524 227.05C482.403 223.714 481.337 219.816 481.465 215.864C481.465 211.954 481.465 208.196 481.465 204.592L480.941 205.116L509.341 204.854L517.577 204.701H519.762H520.57C519.635 204.597 518.693 204.553 517.752 204.57L509.647 204.417L480.941 204.155H480.22V204.701C480.22 208.306 480.22 212.063 480.22 215.974C480.073 220.14 481.193 224.253 483.431 227.771C485.807 231.47 489.318 234.298 493.437 235.832C495.372 236.576 497.417 236.996 499.489 237.077C501.464 237.195 503.445 237.011 505.365 236.531C508.707 235.724 511.785 234.069 514.303 231.728C516.82 229.386 518.693 226.436 519.74 223.161C520.525 220.662 520.85 218.042 520.701 215.428C520.701 213.243 520.701 211.211 520.592 209.551C520.483 207.891 520.592 206.864 520.483 205.903C520.503 205.465 520.489 205.027 520.439 204.592Z" fill="#263238"/>
<path d="M573.986 203.456C573.986 203.456 573.986 203.958 573.986 204.81V208.502C573.986 210.119 573.986 212.041 573.876 214.248C573.934 216.768 573.564 219.279 572.784 221.676C571.778 224.552 570.126 227.16 567.956 229.3C565.45 231.736 562.333 233.449 558.933 234.259C555.175 235.165 551.23 234.914 547.617 233.538C543.742 232.084 540.439 229.417 538.201 225.936C536.073 222.602 534.999 218.704 535.121 214.75C535.121 210.84 535.121 207.06 535.121 203.456L534.596 203.98L562.997 203.718L571.211 203.587H573.396H574.204C573.276 203.483 572.342 203.44 571.408 203.456L563.303 203.325L534.596 203.062H534.072V203.587C534.072 207.191 534.072 210.971 534.072 214.881C533.94 219.049 535.067 223.16 537.305 226.679C539.68 230.364 543.182 233.184 547.289 234.718C549.225 235.46 551.269 235.88 553.341 235.963C555.323 236.08 557.312 235.896 559.239 235.417C562.809 234.538 566.072 232.703 568.677 230.108C570.93 227.844 572.621 225.083 573.614 222.047C574.399 219.548 574.724 216.928 574.575 214.313C574.575 212.129 574.575 210.097 574.444 208.437C574.313 206.776 574.444 205.75 574.444 204.788C574.365 204.322 574.21 203.872 573.986 203.456Z" fill="#263238"/>
<path d="M519.958 206.186C524.954 206.944 530.036 206.944 535.032 206.186C530.038 205.4 524.952 205.4 519.958 206.186Z" fill="#263238"/>
<path d="M615.667 206.471C608.722 205.892 601.75 205.68 594.782 205.837C587.809 205.639 580.831 205.807 573.875 206.34C580.819 206.946 587.792 207.157 594.76 206.973C601.733 207.196 608.713 207.028 615.667 206.471Z" fill="#263238"/>
<path d="M390.933 618.735C386.024 627.846 378.589 635.346 369.52 640.334C360.452 645.322 350.136 647.585 339.812 646.852C327.616 645.998 316.075 641.011 307.095 632.714C298.114 624.417 292.232 613.305 290.418 601.214L277.747 456.176L328.496 443.636L349.228 557.237C349.228 557.237 360.064 604.841 390.933 618.735Z" fill="#FFBE9D"/>
<path d="M328.954 454.144L327.272 428.693C327.272 428.693 320.084 371.586 320.084 365.994C320.084 359.571 317.004 357.998 314.623 358.173C310.931 358.413 308.309 362.979 308.069 368.506C308.069 370.407 308.244 400.598 308.244 400.598C306.498 397.745 304.548 395.022 302.411 392.45C298.041 386.792 287.468 383.558 276.697 383.908C265.927 384.257 262.978 385.306 262.912 389.479C262.95 390.276 263.166 391.055 263.544 391.758C263.922 392.461 264.453 393.071 265.097 393.542C267.084 395.199 269.611 396.07 272.197 395.989C289.434 395.683 294.043 404.88 294.043 404.88L294.262 408.223C294.262 408.223 283.797 400.73 275.452 403.854C274.219 404.31 273.09 405.008 272.131 405.907C269.782 405.917 267.475 406.54 265.441 407.716C263.406 408.892 261.714 410.579 260.533 412.61C259.352 414.642 258.722 416.946 258.706 419.296C258.691 421.646 259.29 423.959 260.444 426.006C260.893 427.056 261.653 427.943 262.621 428.549C263.59 429.154 264.721 429.448 265.862 429.392C267.017 429.045 268.063 428.406 268.898 427.535C269.387 427.12 269.906 426.74 270.449 426.399L272.372 435.64C272.372 435.64 277.812 456.176 279.166 465.395" fill="#FFBE9D"/>
<path d="M323.996 452.156C320.85 453.03 317.595 450.714 315.89 447.918C314.186 445.121 313.466 441.823 311.98 438.895C307.48 430.157 296.687 426.006 292.558 417.049C291.99 415.803 291.685 414.099 292.777 413.269C293.869 412.439 295.224 413.116 296.338 413.728L324.738 429.457" fill="#FFBE9D"/>
<path d="M324.762 429.414C323.877 428.63 322.902 427.955 321.856 427.404C319.934 426.203 317.115 424.542 313.62 422.511L301.277 415.454L297.716 413.444C296.389 412.395 294.699 411.915 293.019 412.112C292.5 412.28 292.044 412.601 291.712 413.035C291.381 413.468 291.189 413.992 291.162 414.537C291.105 415.434 291.262 416.333 291.621 417.158C292.278 418.616 293.098 419.994 294.067 421.265C298 426.377 303.09 429.589 306.76 433.325C308.545 435.015 310.062 436.967 311.261 439.114C312.331 441.124 313.008 443.221 313.838 445.122C314.349 446.708 315.2 448.164 316.332 449.386C317.464 450.609 318.85 451.569 320.392 452.2C322.73 452.899 324.041 452.2 323.953 452.069C322.822 452.104 321.694 451.918 320.633 451.523C319.266 450.825 318.06 449.851 317.09 448.663C316.119 447.474 315.407 446.097 314.996 444.619C314.297 442.503 313.487 440.425 312.571 438.393C311.366 436.067 309.795 433.95 307.918 432.123C304.161 428.191 299.18 424.892 295.509 420.151C294.645 419.006 293.912 417.768 293.325 416.459C292.779 415.214 292.866 413.969 293.565 413.838C294.264 413.706 295.64 414.296 296.842 414.974L300.468 416.94L312.987 423.756C316.569 425.656 319.54 427.142 321.507 428.125C322.525 428.706 323.621 429.14 324.762 429.414Z" fill="#EB996E"/>
<path d="M294.657 408.463C294.464 406.396 293.783 404.404 292.669 402.652C291.375 400.855 289.536 399.522 287.426 398.851C284.782 397.982 282.017 397.539 279.233 397.54C276.376 397.568 273.523 397.32 270.713 396.797C268.36 396.317 266.174 395.224 264.378 393.629C263.781 393.078 263.317 392.398 263.022 391.641C262.727 390.884 262.608 390.07 262.674 389.26C262.705 388.665 262.902 388.09 263.242 387.6C263.351 387.6 263.242 388.233 263.133 389.282C263.143 390.014 263.312 390.736 263.629 391.396C263.946 392.056 264.403 392.639 264.968 393.105C266.714 394.48 268.768 395.409 270.954 395.814C273.704 396.266 276.49 396.471 279.277 396.426C282.164 396.394 285.037 396.845 287.775 397.758C290.066 398.556 292.026 400.093 293.346 402.128C294.202 403.497 294.698 405.06 294.788 406.672C294.912 407.269 294.867 407.89 294.657 408.463Z" fill="#EB996E"/>
<path d="M308.222 366.365C308.408 368.364 308.408 370.375 308.222 372.373C308.222 376.48 308.222 381.396 308.069 386.813C307.916 392.231 308.069 397.147 308.069 401.254C308.2 403.257 308.157 405.267 307.938 407.262C307.46 405.302 307.218 403.293 307.217 401.276C306.955 397.584 306.78 392.537 306.802 386.813C306.824 381.09 307.042 376.021 307.305 372.329C307.396 370.314 307.703 368.315 308.222 366.365Z" fill="#EB996E"/>
<path d="M287.84 415.17C287.23 415.023 286.642 414.795 286.092 414.493C285.38 414.128 284.599 413.921 283.8 413.883C283.001 413.845 282.204 413.979 281.461 414.274C281.004 414.522 280.62 414.883 280.344 415.324C280.069 415.764 279.911 416.268 279.888 416.786C279.818 418.089 279.913 419.396 280.172 420.675C280.533 422.283 280.276 423.968 279.451 425.394C278.929 426.127 278.241 426.727 277.444 427.144C276.647 427.562 275.763 427.785 274.863 427.797C273.979 427.791 273.105 427.606 272.294 427.253C271.483 426.9 270.751 426.387 270.144 425.744C269.005 424.601 268.243 423.137 267.96 421.549C267.617 418.98 267.654 416.374 268.069 413.815C268.295 412.085 268.82 410.407 269.62 408.856C270.232 407.764 270.8 407.349 270.843 407.393C270.887 407.436 270.494 407.982 270.035 409.053C269.436 410.624 269.06 412.271 268.921 413.946C268.634 416.409 268.67 418.899 269.03 421.352C269.308 422.742 270.029 424.004 271.084 424.949C272.14 425.894 273.473 426.472 274.885 426.595C275.596 426.591 276.295 426.421 276.929 426.099C277.562 425.776 278.112 425.311 278.533 424.739C279.193 423.54 279.403 422.145 279.123 420.806C278.88 419.429 278.821 418.026 278.948 416.634C279.012 415.968 279.246 415.331 279.629 414.784C280.012 414.236 280.53 413.797 281.133 413.509C281.983 413.186 282.897 413.069 283.801 413.168C284.705 413.266 285.573 413.578 286.332 414.078C287.359 414.689 287.971 415.017 287.84 415.17Z" fill="#EB996E"/>
<path d="M270.647 424.826C270.8 425.396 270.738 426.003 270.472 426.53C270.165 427.279 269.69 427.949 269.084 428.486C268.478 429.024 267.757 429.416 266.977 429.632C265.8 429.885 264.578 429.829 263.429 429.469C262.281 429.109 261.245 428.458 260.423 427.579C258.453 425.415 257.396 422.573 257.473 419.648C257.473 416.759 258.375 413.941 260.051 411.587C261.42 409.667 263.285 408.157 265.447 407.218C266.866 406.578 268.393 406.215 269.948 406.147C271.04 406.147 271.63 406.147 271.63 406.322C269.614 406.582 267.648 407.142 265.797 407.982C263.857 408.946 262.189 410.381 260.947 412.155C259.495 414.358 258.734 416.944 258.762 419.583C258.69 422.203 259.593 424.757 261.297 426.748C261.989 427.533 262.87 428.127 263.856 428.475C264.843 428.823 265.902 428.913 266.933 428.736C267.621 428.582 268.267 428.282 268.829 427.856C269.391 427.43 269.854 426.889 270.188 426.268C270.494 425.438 270.494 424.826 270.647 424.826Z" fill="#EB996E"/>
<path d="M291.4 445.012C292.339 444.715 293.346 444.715 294.284 445.012C296.744 445.55 298.956 446.886 300.576 448.813L299.571 449.119C299.704 447.767 299.923 446.424 300.226 445.099C301.096 440.402 303.251 436.039 306.453 432.494C304.313 436.592 302.614 440.905 301.384 445.361C301.078 446.716 300.86 448.027 300.707 449.25L300.532 450.605L299.68 449.534C298.231 447.749 296.297 446.421 294.109 445.711C292.471 445.209 291.4 445.165 291.4 445.012Z" fill="#EB996E"/>
<path d="M290.856 393.651C291.14 393.782 289.982 395.836 287.316 397.081C284.651 398.326 282.292 397.605 282.401 397.3C282.51 396.994 284.586 397.016 286.77 395.989C288.955 394.962 290.572 393.433 290.856 393.651Z" fill="#EB996E"/>
<path d="M337.694 470.616L273.924 475.182C273.924 475.182 283.733 588.019 285.634 605.518C287.534 623.017 298.741 649.408 337.694 649.408C376.646 649.408 383.899 636.147 401.223 608.839C380.797 594.682 348.355 552.409 348.355 552.409L337.694 470.616Z" fill="#E7E7E7"/>
<path d="M307.634 485.8C307.962 486.751 308.356 487.678 308.813 488.574L312.374 496.089L324.958 522.065L325.591 521.3L309.054 516.385L292.254 511.447L291.03 511.098L291.62 512.212L304.728 537.663L308.595 544.982C309.023 545.876 309.527 546.731 310.102 547.538C309.768 546.603 309.374 545.691 308.923 544.807C308.005 542.928 306.738 540.438 305.34 537.357L292.647 511.731L292.013 512.496L308.792 517.477L325.351 522.327L326.553 522.676L325.985 521.562L312.942 495.849C311.348 492.812 310.059 490.322 309.097 488.465C308.685 487.537 308.196 486.645 307.634 485.8Z" fill="#E0E0E0"/>
<path d="M313.662 594.333C314.64 594.542 315.634 594.674 316.633 594.726L324.934 595.447L353.641 597.631L353.291 596.692L340.708 608.489L327.971 620.505L327.054 621.378H328.321L356.874 622.951L365.132 623.301C366.12 623.387 367.115 623.387 368.103 623.301C367.13 623.108 366.144 622.991 365.154 622.951L356.918 622.274L328.386 620.308L328.714 621.247L341.494 609.254L354.034 597.413L354.951 596.561H353.706L324.978 594.835L316.655 594.42C315.661 594.315 314.66 594.286 313.662 594.333Z" fill="#E0E0E0"/>
<path d="M381.209 461.397L453.717 640.713H584.468V648.818H195.011L115.337 461.397H381.209Z" fill="#263238"/>
<path d="M270.361 567.266C272.982 576.288 280.628 581.99 287.445 580.024C294.261 578.058 297.647 569.101 295.025 560.078C292.404 551.055 284.736 545.354 277.919 547.32C271.103 549.286 267.717 558.243 270.361 567.266Z" fill="#FAFAFA"/>
</svg>
