<svg width="492" height="435" viewBox="0 0 492 435" fill="none" xmlns="http://www.w3.org/2000/svg">
<path d="M287.486 98.2963L295.16 81.5731C289.711 67.8433 289.595 52.5721 294.833 38.7608C300.072 24.9495 310.286 13.5968 323.469 6.93387C336.653 0.270896 351.851 -1.22052 366.078 2.75271C380.305 6.72595 392.532 15.8765 400.355 28.4061C408.178 40.9357 411.033 55.9382 408.357 70.4652C405.681 84.9922 397.669 97.9932 385.895 106.913C374.121 115.833 359.436 120.027 344.727 118.671C330.019 117.314 316.349 110.505 306.405 99.5827L287.486 98.2963Z" fill="white"/>
<path d="M287.486 98.296H288.772L292.432 98.4956L306.449 99.2941L306.183 99.6933C306.151 99.6314 306.145 99.5596 306.166 99.4933C306.187 99.427 306.233 99.3714 306.294 99.3384C306.341 99.3006 306.4 99.28 306.46 99.28C306.52 99.28 306.579 99.3006 306.626 99.3384C313.236 106.516 321.518 111.949 330.735 115.152C340.818 118.643 351.662 119.319 362.1 117.107C372.538 114.895 382.176 109.879 389.976 102.599C399.906 93.4003 406.329 81.0361 408.145 67.6231C409.962 54.2102 407.059 40.5829 399.935 29.0744L397.983 26.0359L395.765 23.1969C394.289 21.3304 392.704 19.5529 391.019 17.8739C381.393 8.53516 368.861 2.77202 355.507 1.5425C342.152 0.31297 328.779 3.69112 317.61 11.1154C306.441 18.5396 298.15 29.5628 294.114 42.3524C290.078 55.142 290.541 68.9276 295.426 81.4176V81.6393C292.897 86.9623 290.99 91.0877 289.615 93.9267L288.062 97.1427C287.707 97.8746 287.508 98.2516 287.508 98.2516C287.508 98.2516 287.641 97.919 287.951 97.2092L289.349 94.0154C290.635 91.0877 292.52 86.8737 294.938 81.4176V81.6172C291.234 72.4869 289.884 62.5722 291.012 52.7841C292.83 37.5577 300.42 23.609 312.218 13.8127C324.015 4.01648 339.122 -0.880764 354.423 0.130436C368.513 1.20639 381.786 7.16821 391.95 16.9867C393.671 18.6978 395.286 20.5125 396.785 22.4207L399.003 25.3039L400.977 28.409C406.627 37.5149 409.714 47.9764 409.915 58.6906C410.116 69.4048 407.421 79.9747 402.116 89.2855C396.811 98.5964 389.092 106.303 379.773 111.594C370.454 116.884 359.88 119.561 349.166 119.344C342.77 119.266 336.431 118.135 330.403 115.995C321.103 112.686 312.777 107.105 306.183 99.7598L306.626 99.4493C306.659 99.5145 306.666 99.5897 306.645 99.6596C306.625 99.7296 306.578 99.7892 306.515 99.8264H306.36L292.188 98.6952L288.617 98.3847C288.238 98.3855 287.86 98.3558 287.486 98.296Z" fill="#263238"/>
<path d="M348.326 85.0993L317.231 64.3173L324.506 53.4494L345.354 67.4002L371.304 33.0667L381.706 40.9403L348.326 85.0993Z" fill="#3780EF"/>
<path d="M131.974 106.391C127.169 96.8709 123.184 86.9578 120.064 76.7599C116.958 66.5023 116.455 55.6329 118.6 45.1322C118.955 43.5575 122.437 32.8671 124.056 32.8228C125.209 32.8228 123.479 42.5595 124.167 43.491C130.821 52.2296 133.837 63.4523 134.347 74.4089C134.744 85.1248 133.949 95.8515 131.974 106.391Z" fill="#263238"/>
<path d="M202.349 189.032C201.484 181.557 197.314 144.163 197.381 144.163C197.448 144.163 222.665 138.285 221.113 112.691C220.359 100.315 216.677 74.9858 213.173 52.0524C211.347 40.1611 205.109 29.394 195.7 21.8966C186.291 14.3992 174.403 10.7219 162.404 11.5974L159.942 11.7748C133.327 15.3013 121.594 39.7651 125.853 66.1806L145.038 189.032L190.195 186.814L202.349 189.032Z" fill="#FFBF9D"/>
<path d="M197.379 144.052C185.555 144.889 173.74 142.318 163.333 136.644C163.333 136.644 172.715 155.053 198.088 150.861L197.379 144.052Z" fill="#FF9A6C"/>
<path d="M205.52 75.9178C205.601 76.868 205.308 77.8124 204.703 78.5498C204.098 79.2872 203.23 79.7593 202.282 79.8657C201.819 79.9408 201.346 79.9216 200.89 79.8094C200.435 79.6971 200.007 79.4941 199.632 79.2124C199.257 78.9307 198.943 78.5762 198.709 78.1701C198.474 77.764 198.324 77.3148 198.267 76.8493C198.18 75.8979 198.471 74.9504 199.077 74.2117C199.683 73.473 200.555 73.0023 201.506 72.9014C201.968 72.8263 202.442 72.8454 202.897 72.9577C203.352 73.0699 203.78 73.273 204.155 73.5547C204.53 73.8364 204.844 74.1909 205.079 74.597C205.313 75.003 205.463 75.4523 205.52 75.9178Z" fill="#263238"/>
<path d="M208.468 62.9651C208.046 63.4753 205.141 61.6344 201.215 61.9227C197.289 62.211 194.561 64.4067 194.073 63.9632C193.585 63.5196 194.251 62.8542 195.426 61.8562C197.047 60.553 199.029 59.7789 201.104 59.6382C203.15 59.4852 205.191 59.9819 206.937 61.0577C208.202 61.9005 208.69 62.7212 208.468 62.9651Z" fill="#263238"/>
<path d="M169.811 80.3536C169.891 81.3073 169.595 82.2547 168.986 82.9926C168.376 83.7306 167.502 84.2005 166.55 84.3015C166.09 84.3702 165.62 84.3463 165.168 84.2313C164.717 84.1162 164.293 83.9123 163.921 83.6315C163.549 83.3506 163.237 82.9984 163.003 82.5955C162.769 82.1926 162.618 81.7472 162.558 81.2851C162.471 80.3337 162.762 79.3862 163.368 78.6475C163.974 77.9088 164.846 77.4381 165.796 77.3372C166.259 77.2621 166.732 77.2812 167.188 77.3935C167.643 77.5057 168.071 77.7088 168.446 77.9905C168.821 78.2722 169.135 78.6267 169.369 79.0328C169.604 79.4388 169.754 79.8881 169.811 80.3536Z" fill="#263238"/>
<path d="M170.079 67.3782C169.657 67.8883 166.729 66.0474 162.804 66.3579C158.878 66.6685 156.15 68.8199 155.662 68.3763C155.174 67.9327 155.839 67.2895 157.037 66.2914C158.642 64.9745 160.621 64.1983 162.693 64.0735C164.74 63.9032 166.786 64.4012 168.526 65.4929C169.812 66.3357 170.278 67.1564 170.079 67.3782Z" fill="#263238"/>
<path d="M186.399 96.5665C188.423 95.7652 190.539 95.2212 192.698 94.9473C193.696 94.7699 194.628 94.5038 194.761 93.794C194.757 92.7526 194.448 91.735 193.874 90.8664L190.325 83.4364C185.401 72.8568 181.764 64.1182 182.185 63.9407C182.607 63.7633 186.954 72.1692 191.878 82.7487L195.293 90.2232C196.015 91.3882 196.306 92.7696 196.114 94.1267C195.991 94.4922 195.788 94.8255 195.519 95.1019C195.251 95.3783 194.923 95.5908 194.561 95.7236C194.017 95.9145 193.451 96.0338 192.876 96.0785C190.746 96.5146 188.57 96.6785 186.399 96.5665Z" fill="#263238"/>
<path d="M204.879 46.4191C204.302 47.395 201.508 46.7961 198.225 47.1288C194.942 47.4615 192.303 48.4152 191.571 47.5724C191.239 47.151 191.571 46.1973 192.658 45.2214C194.146 44.0041 195.975 43.276 197.892 43.1365C199.804 42.9448 201.727 43.3559 203.393 44.312C204.657 45.0883 205.167 45.9533 204.879 46.4191Z" fill="#263238"/>
<path d="M170.161 58.329C169.518 59.2605 166.745 58.5064 163.507 58.6616C160.269 58.8169 157.519 59.6375 156.853 58.6616C156.543 58.2402 156.853 57.3087 158.073 56.4437C159.615 55.3007 161.477 54.6722 163.396 54.6472C165.315 54.5603 167.214 55.0718 168.83 56.111C170.006 56.976 170.427 57.8632 170.161 58.329Z" fill="#263238"/>
<path d="M129.33 84.9662C128.887 84.8109 111.365 81.0627 113.206 98.5178C115.047 115.973 133.877 111.16 133.855 110.65C133.833 110.14 129.33 84.9662 129.33 84.9662Z" fill="#FFBF9D"/>
<path d="M126.14 103.975C126.14 103.975 125.873 104.219 125.385 104.507C124.705 104.867 123.917 104.97 123.168 104.795C121.26 104.307 119.397 101.535 118.976 98.4077C118.774 96.9178 118.911 95.4018 119.375 93.9718C119.479 93.4063 119.72 92.8746 120.075 92.4226C120.43 91.9705 120.89 91.6117 121.415 91.3768C121.756 91.2503 122.129 91.2453 122.473 91.3625C122.816 91.4797 123.109 91.712 123.301 92.02C123.589 92.4858 123.5 92.8629 123.611 92.8629C123.722 92.8629 123.944 92.5301 123.611 91.8426C123.474 91.4188 123.191 91.0574 122.813 90.8223C122.557 90.6629 122.272 90.5571 121.975 90.5114C121.678 90.4656 121.374 90.4809 121.083 90.5562C120.381 90.7713 119.747 91.164 119.242 91.6964C118.736 92.2288 118.377 92.8827 118.199 93.5947C117.615 95.1815 117.425 96.8864 117.645 98.5629C118.133 102.067 120.284 105.217 122.879 105.638C123.365 105.721 123.863 105.696 124.338 105.566C124.813 105.436 125.254 105.203 125.629 104.884C126.162 104.396 126.206 103.997 126.14 103.975Z" fill="#FF9A6C"/>
<path d="M198.506 24.3504C201.146 22.4651 191.631 14.3032 184.334 11.9522C173.244 8.3813 156.965 7.29448 147.605 11.1537C136.36 15.7891 127.355 22.6869 122.72 33.9318C118.336 45.3645 117.066 57.7558 119.038 69.8401C119.323 73.5653 120.594 77.1477 122.72 80.22C125.603 83.7909 130.549 85.6761 130.948 91.0213C131.046 92.9814 131.915 94.8232 133.366 96.1447C136.959 99.1611 140.485 95.5237 141.927 92.1303C144.966 84.8555 144.455 76.6048 143.901 68.7977C143.808 63.1854 142.796 57.6262 140.907 52.3406C139.709 49.5239 138.023 46.9289 137.003 44.0678C136.393 42.6619 136.096 41.1397 136.134 39.6074C136.173 38.0752 136.545 36.5697 137.225 35.1961C137.598 34.6271 138.021 34.0927 138.489 33.5992C140.673 31.197 143.459 29.421 146.558 28.4541C149.658 27.4872 152.959 27.3645 156.122 28.0987C166.346 30.4497 183.713 33.71 187.705 29.873C193.472 24.3504 194.603 21.0013 194.603 21.0013L198.506 24.3504Z" fill="#263238"/>
<path d="M189.175 107.08C188.976 106.459 185.871 107.08 182.633 105.705C179.394 104.329 177.62 101.779 177.021 102.067C176.755 102.2 176.822 103.11 177.531 104.285C178.535 105.875 180.008 107.115 181.745 107.834C183.481 108.55 185.399 108.698 187.224 108.255C188.599 107.967 189.286 107.368 189.175 107.08Z" fill="#263238"/>
<path d="M102.252 279.323L64.2806 277.371L100.3 247.563L71.4667 194.332C71.4667 194.332 11.0947 264.929 5.83817 274.976C-0.0393385 286.243 -5.02968 304.541 11.2499 313.502C22.5614 319.712 111.966 319.069 111.966 319.069L102.252 279.323Z" fill="#FFBF9D"/>
<path d="M153.861 419.296V433.336L264.069 434.955L267.041 389.421L153.861 419.296Z" fill="#263238"/>
<path d="M254.802 157.427C254.802 157.427 328.326 221.614 329.48 220.061C330.633 218.508 353.766 157.427 353.766 157.427L395.685 158.27C395.685 158.27 373.506 250.846 359.887 263.022C346.269 275.199 331.054 271.251 320.608 269.188C310.162 267.126 259.504 220.616 259.504 220.616L254.802 157.427Z" fill="#FFBF9D"/>
<path d="M141.372 156.229L82.442 176.19L95.3059 223.454L121.234 299.529L151.597 419.874L322.244 376.669L273.45 225.229L254.819 157.449L238.872 151.549L210.039 155.985L200.147 155.275C200.147 155.275 202.498 167.718 179.232 168.583C165.237 169.071 141.372 156.229 141.372 156.229Z" fill="#E0E0E0"/>
<path d="M269.481 240.043L290.241 253.018L313.685 202.427C313.685 202.427 268.018 155.54 253.091 152.369C238.164 149.197 232.73 153.833 232.73 153.833L269.481 240.043Z" fill="#E0E0E0"/>
<path d="M80.7636 275.687L28.5092 240.377C28.5092 240.377 63.1754 193.801 68.0992 188.101C72.3135 183.029 77.512 178.864 83.3808 175.858L104.784 250.779L80.7636 275.687Z" fill="#E0E0E0"/>
<path d="M90.7421 207.773C90.5203 207.773 95.5772 223.986 102.009 243.814C108.441 263.642 113.809 279.656 114.008 279.589C114.208 279.523 109.173 263.398 102.741 243.57C96.3091 223.742 90.9417 207.706 90.7421 207.773Z" fill="#263238"/>
<path d="M269.483 298.862L219.535 298.64V309.53L220.156 434.4L355.45 434.932L355.671 385.805C355.671 381.369 360.418 378.131 365.43 378.064C367.915 378.049 370.305 379.013 372.084 380.748C375.589 384.281 380.288 386.377 385.259 386.625C387.241 386.671 389.21 386.301 391.041 385.541C392.872 384.78 394.524 383.644 395.89 382.207C397.256 380.77 398.306 379.063 398.973 377.196C399.64 375.329 399.91 373.343 399.764 371.366C399.609 362.494 394.485 357.194 384.748 356.506C377.629 355.996 374.125 360.055 371.441 362.694C370.633 363.536 369.666 364.211 368.597 364.679C367.527 365.147 366.376 365.4 365.208 365.422C364.088 365.516 362.96 365.388 361.889 365.045C360.819 364.702 359.826 364.151 358.969 363.424C358.112 362.696 357.407 361.807 356.894 360.806C356.381 359.805 356.071 358.713 355.982 357.593V299.727H334.712L301.443 299.394C299.174 299.472 296.966 298.648 295.303 297.101C293.64 295.555 292.658 293.413 292.571 291.144C292.593 290.011 292.867 288.898 293.373 287.885C293.88 286.872 294.606 285.985 295.499 285.288C298.449 282.915 302.619 278.635 302.707 273.689C302.84 265.881 296.053 260.381 286.139 260.226C276.225 260.07 269.261 265.438 269.128 273.223C269.128 278.257 273.054 282.582 275.937 285.022C276.805 285.748 277.5 286.658 277.972 287.686C278.444 288.714 278.681 289.835 278.665 290.966C278.472 293.222 277.403 295.313 275.686 296.789C273.969 298.265 271.742 299.01 269.483 298.862Z" fill="#455A64"/>
<path d="M438.466 299.616C436.19 299.469 433.948 300.225 432.225 301.719C430.502 303.214 429.437 305.327 429.261 307.601C429.25 308.733 429.49 309.855 429.966 310.883C430.442 311.911 431.14 312.82 432.011 313.545C434.873 315.984 438.909 320.309 438.82 325.344C438.687 333.129 431.634 338.496 421.809 338.341C411.983 338.186 405.108 332.685 405.241 324.878C405.241 319.866 409.477 315.652 412.427 313.278C413.32 312.58 414.047 311.693 414.557 310.681C415.067 309.668 415.347 308.556 415.377 307.423C415.333 305.544 414.649 303.735 413.44 302.296C412.23 300.857 410.567 299.873 408.723 299.505L367.159 299.66L356.069 299.816L355.981 357.593C356.162 359.848 357.231 361.939 358.952 363.407C360.674 364.875 362.908 365.6 365.163 365.422C366.33 365.4 367.482 365.147 368.551 364.679C369.621 364.211 370.587 363.536 371.395 362.694C374.013 360.055 377.517 356.04 384.703 356.506C394.44 357.193 399.563 362.539 399.718 371.366C399.864 373.343 399.595 375.329 398.928 377.196C398.261 379.063 397.21 380.77 395.844 382.207C394.478 383.644 392.827 384.78 390.996 385.541C389.165 386.301 387.195 386.671 385.213 386.625C380.242 386.377 375.544 384.281 372.039 380.748C370.26 379.013 367.869 378.049 365.385 378.064C360.816 378.064 356.513 380.792 355.737 384.718C355.807 385.091 355.844 385.47 355.848 385.849L355.404 434.998L491.274 434.466L489.678 299.927L438.466 299.616Z" fill="#3780EF"/>
<path d="M437.822 300.15L489.678 299.839V289.482L489.057 164.635L355.537 164.102L355.293 213.229C355.293 217.665 350.613 220.903 345.668 220.97C343.231 220.961 340.894 220.007 339.147 218.308C335.713 214.773 331.071 212.666 326.15 212.409C317.566 212.542 311.689 218.841 311.822 227.668C311.955 236.495 317.034 241.841 326.66 242.55C333.691 243.061 337.128 238.98 339.746 236.34C340.532 235.499 341.478 234.824 342.53 234.356C343.581 233.887 344.716 233.634 345.867 233.612C348.111 233.447 350.328 234.179 352.033 235.647C353.738 237.114 354.79 239.198 354.961 241.441L356.047 299.751H376.009H406.217C407.342 299.706 408.465 299.885 409.521 300.276C410.577 300.667 411.545 301.263 412.369 302.03C413.194 302.797 413.859 303.719 414.325 304.744C414.792 305.769 415.052 306.876 415.089 308.002C414.932 309.157 414.532 310.265 413.917 311.255C413.302 312.245 412.484 313.094 411.518 313.746C409.684 315.144 408.162 316.91 407.051 318.93C405.939 320.951 405.262 323.181 405.064 325.479C404.931 333.264 411.717 338.786 421.432 338.942C431.146 339.097 438.732 333.508 438.865 325.634C438.865 320.599 434.917 315.942 432.078 313.502C431.22 312.842 430.526 311.992 430.053 311.018C429.579 310.044 429.339 308.973 429.35 307.891C429.371 306.817 429.611 305.76 430.054 304.782C430.496 303.804 431.133 302.927 431.926 302.203C432.718 301.479 433.649 300.924 434.663 300.571C435.677 300.218 436.752 300.075 437.822 300.15Z" fill="#455A64"/>
<g opacity="0.3">
<path d="M273.912 232.238C273.587 231.154 273.052 230.145 272.336 229.269C271.619 228.392 270.737 227.667 269.74 227.133C268.742 226.599 267.648 226.268 266.522 226.158C265.396 226.048 264.259 226.162 263.177 226.493C262.059 226.798 261.016 227.332 260.115 228.061C259.214 228.79 258.474 229.699 257.943 230.729C256.124 234.056 253.818 239.002 246.853 240.178C237.405 241.797 231.173 237.605 228.799 228.711C226.426 219.817 230.485 211.966 238.714 209.77C243.578 208.848 248.609 209.867 252.731 212.609C254.812 213.891 257.316 214.298 259.695 213.74C264.442 212.476 268.212 208.107 267.014 203.582L258.387 168.361L254.661 153.767L124.557 187.036L157.959 322.995L206.199 311.728C208.452 311.232 210.423 309.878 211.694 307.952C212.966 306.027 213.437 303.682 213.008 301.415C212.742 300.275 212.234 299.206 211.518 298.28C210.802 297.354 209.896 296.592 208.86 296.047C205.489 294.273 200.499 290.857 199.301 285.734C197.46 277.816 202.872 270.697 212.387 268.456C221.902 266.216 229.931 270.164 231.771 278.104C232.969 283.206 230.019 288.484 227.779 291.589C227.096 292.539 226.623 293.625 226.394 294.772C226.164 295.92 226.183 297.103 226.448 298.243C226.922 300.098 228.007 301.74 229.528 302.903C231.049 304.066 232.918 304.683 234.832 304.653L278.281 293.563L288.484 290.857L273.912 232.238Z" fill="black"/>
</g>
<g opacity="0.3">
<path d="M354.761 164.213C364.12 160.353 374.057 168.271 383.416 164.412C384.765 163.661 386.333 163.402 387.852 163.68C388.68 164.062 389.404 164.638 389.96 165.361C390.516 166.083 390.889 166.93 391.046 167.828C391.64 170.277 391.714 172.823 391.263 175.302C390.812 177.782 389.847 180.139 388.429 182.222C385.54 186.386 381.479 189.597 376.762 191.449C373.061 193.16 368.898 193.604 364.919 192.713C358.198 190.806 354.672 171.288 354.761 164.213Z" fill="black"/>
</g>
<path d="M352.948 157.981C354.319 157.22 355.425 156.059 356.12 154.654C357.207 151.66 365.524 150.218 365.524 150.218C366.838 149.489 368.202 148.852 369.605 148.311C371.823 147.535 376.259 150.64 376.259 150.64C381.027 148 382.491 149.353 385.352 151.216C386.58 151.875 387.739 152.656 388.812 153.545C389.082 153.237 389.432 153.009 389.824 152.888C390.215 152.767 390.633 152.756 391.03 152.858C392.318 153.03 393.527 153.575 394.508 154.426C395.49 155.278 396.2 156.398 396.553 157.648C397.851 161.483 398.736 165.447 399.192 169.47C399.059 172.841 394.756 181.114 394.756 181.114C394.756 181.114 390.986 183.465 388.524 182.378C386.062 181.291 388.879 173.706 388.879 173.706L386.772 163.437C386.772 163.437 383.289 185.86 381.559 188.5C379.829 191.139 374.285 190.718 374.285 190.718C368.762 195.464 366.145 191.316 366.145 191.316C366.145 191.316 365.457 192.071 363.017 190.984C360.578 189.897 356.208 164.103 356.208 164.103L348.778 165.012C348.824 163.583 349.23 162.19 349.959 160.96C350.688 159.731 351.716 158.706 352.948 157.981Z" fill="#FFBF9D"/>
<path d="M377.921 157.514C377.828 157.954 377.762 158.398 377.722 158.845C377.722 159.777 377.5 161.063 377.345 162.438C377.056 165.477 376.679 169.691 376.302 174.326C376.122 178.29 375.692 182.238 375.016 186.148C374.766 187.324 374.433 188.48 374.018 189.608C373.839 190.013 373.683 190.427 373.552 190.85C373.552 190.85 373.552 190.85 373.751 190.562C373.951 190.273 374.018 190.074 374.195 189.674C374.687 188.565 375.08 187.415 375.371 186.237C376.139 182.322 376.614 178.356 376.79 174.371C377.189 169.713 377.5 165.499 377.699 162.46L377.921 158.845C377.978 158.403 377.978 157.956 377.921 157.514Z" fill="#FF9A6C"/>
<path d="M367.076 157.471C366.975 157.915 366.923 158.369 366.92 158.824C366.92 159.771 366.854 160.991 366.721 162.484C366.566 165.567 366.388 169.848 366.211 174.572C366.033 179.296 365.922 183.443 365.856 186.659C365.856 188.123 365.856 189.365 365.856 190.319C365.809 190.769 365.809 191.222 365.856 191.672C365.957 191.228 366.009 190.774 366.011 190.319C366.011 189.358 366.078 188.138 366.211 186.659C366.366 183.576 366.543 179.296 366.721 174.572C366.898 169.848 367.009 165.589 367.076 162.484C367.076 161.02 367.076 159.778 367.076 158.824C367.123 158.375 367.123 157.921 367.076 157.471Z" fill="#FF9A6C"/>
<path d="M124.433 279.744L53.8138 277.504L44.6094 317.493L120.329 320.221L124.433 279.744Z" fill="#FFBF9D"/>
<path d="M22.1622 274.088C22.1622 274.221 24.6241 273.91 28.572 273.888C33.7634 273.942 38.9473 274.298 44.0975 274.953L59.4677 276.993C61.4417 277.237 63.0386 277.415 64.1476 277.503C64.7213 277.586 65.3038 277.586 65.8775 277.503C65.3297 277.326 64.7647 277.207 64.1919 277.149L59.5343 276.395C55.6307 275.774 50.219 274.864 44.1862 274.177C39.0387 273.516 33.8495 273.234 28.6607 273.334C27.6848 273.334 26.7755 273.445 25.977 273.511C25.1786 273.578 24.5132 273.644 23.9587 273.733C23.3464 273.768 22.7418 273.887 22.1622 274.088Z" fill="#FF9A6C"/>
<path d="M268.264 226.737C267.942 225.652 267.408 224.641 266.692 223.764C265.976 222.888 265.093 222.162 264.094 221.629C263.095 221.097 262.001 220.768 260.874 220.663C259.747 220.557 258.61 220.677 257.529 221.015C256.413 221.318 255.373 221.852 254.475 222.582C253.578 223.311 252.843 224.22 252.317 225.251C250.476 228.556 248.192 233.502 241.228 234.699C231.779 236.318 225.547 232.127 223.152 223.21C220.756 214.294 224.837 206.487 233.088 204.292C237.949 203.366 242.979 204.376 247.105 207.108C248.132 207.753 249.276 208.187 250.472 208.385C251.667 208.583 252.89 208.541 254.07 208.262C258.794 206.997 262.586 202.606 261.367 198.081L252.717 162.861L248.99 148.267L118.865 181.536L152.289 317.495L200.507 306.205C202.764 305.714 204.74 304.362 206.016 302.436C207.292 300.51 207.766 298.162 207.338 295.892C207.071 294.755 206.563 293.689 205.847 292.767C205.132 291.844 204.225 291.087 203.19 290.547C199.797 288.75 194.829 285.335 193.631 280.233C191.768 272.315 197.202 265.174 206.717 262.934C216.232 260.693 224.238 264.664 226.101 272.582C227.299 277.705 224.349 282.984 222.109 286.089C221.418 287.035 220.939 288.119 220.706 289.268C220.472 290.416 220.489 291.601 220.756 292.743C221.24 294.592 222.328 296.227 223.847 297.388C225.365 298.549 227.228 299.17 229.14 299.152L272.611 288.063L282.814 285.357L268.264 226.737Z" fill="#3780EF"/>
<path d="M102.714 290.833L121.944 265.039L137.07 253.772L137.225 261.534C137.225 261.534 167.145 258.518 171.492 259.56C174.132 260.204 177.969 267.634 172.113 269.319C173.508 269.901 174.752 270.792 175.751 271.926C176.75 273.06 177.478 274.406 177.88 275.862C178.789 280.476 176.483 282.649 171.005 284.424C171.005 284.424 177.126 287.662 175.884 291.676C175.372 292.961 174.596 294.124 173.607 295.091C172.617 296.057 171.436 296.806 170.14 297.287C170.14 297.287 173.422 303.476 170.45 305.782C165.416 309.062 159.922 311.574 154.148 313.234L134.054 317.227L121.478 320.82L102.714 290.833Z" fill="#FFBF9D"/>
<path d="M154.15 273.312C154.15 273.711 158.342 273.157 163.31 272.07C168.278 270.983 172.182 269.852 172.182 269.408C172.182 268.965 167.99 269.586 163.022 270.651C158.053 271.715 154.15 272.802 154.15 273.312Z" fill="#FF9A6C"/>
<path d="M156.367 287.728C156.367 288.127 159.738 287.728 163.753 286.952C167.767 286.176 170.917 285.155 170.85 284.734C170.784 284.313 167.457 284.734 163.464 285.51C159.472 286.287 156.367 287.351 156.367 287.728Z" fill="#FF9A6C"/>
<path d="M157.897 299.927C158.052 300.348 160.78 299.528 164.062 298.707C167.345 297.886 170.14 297.665 170.14 297.243C170.14 296.822 167.234 296.445 163.73 297.243C161.574 297.58 159.555 298.509 157.897 299.927Z" fill="#FF9A6C"/>
<path d="M133.676 262.888C133.676 263.287 137.779 262.688 142.725 261.867C147.671 261.047 151.597 260.337 151.597 259.916C151.597 259.494 147.449 259.605 142.481 260.448C137.513 261.291 133.587 262.511 133.676 262.888Z" fill="#FF9A6C"/>
</svg>
