<svg width="600" height="450" viewBox="0 0 600 450" fill="none" xmlns="http://www.w3.org/2000/svg">
<path d="M233.314 116.593L246.707 101.081C245.144 84.7026 249.762 68.3313 259.656 55.185C269.549 42.0388 284.002 33.0683 300.174 30.0368C316.345 27.0053 333.066 30.1319 347.049 38.8022C361.032 47.4725 371.267 61.0593 375.741 76.8923C380.216 92.7253 378.607 109.659 371.23 124.366C363.853 139.073 351.243 150.489 335.876 156.37C320.51 162.251 303.5 162.173 288.189 156.149C272.878 150.126 260.374 138.594 253.134 123.82L233.314 116.593Z" fill="white"/>
<path d="M233.314 116.593L234.538 117.088L238.281 118.5L253.063 124.055C253.119 124.079 253.183 124.08 253.24 124.058C253.297 124.036 253.343 123.993 253.369 123.937V123.796L252.922 123.937C257.712 133.814 264.888 142.341 273.801 148.747C276.575 150.754 279.512 152.525 282.581 154.043C285.877 155.659 289.293 157.02 292.796 158.115C305.525 162.033 319.138 162.032 331.866 158.111C344.594 154.19 355.848 146.532 364.166 136.13C370.659 127.937 375.128 118.327 377.21 108.081C379.291 97.8361 378.927 87.2442 376.147 77.1661L374.993 73.2351L373.487 69.4454L372.734 67.5623L371.816 65.7734L369.98 62.172C369.344 60.9951 368.567 59.8181 367.861 58.7824C367.198 57.6304 366.451 56.5288 365.625 55.4869C356.21 42.7343 342.535 33.7807 327.081 30.252C311.627 26.7233 295.42 28.8536 281.404 36.2559C274.262 40.0199 267.878 45.0713 262.573 51.1558C260.149 53.9216 257.945 56.873 255.982 59.9828C254.232 62.9309 252.66 65.9806 251.274 69.1158C247.046 79.2233 245.427 90.2316 246.566 101.128V100.964L236.657 112.733L234.162 115.722C233.597 116.381 233.361 116.711 233.361 116.711L234.279 115.699L236.892 112.733L246.896 101.128C246.909 101.103 246.915 101.075 246.915 101.046C246.915 101.017 246.909 100.989 246.896 100.964C245.925 90.1528 247.639 79.2696 251.886 69.2806C253.288 66.1908 254.859 63.1812 256.594 60.2654C258.566 57.2048 260.761 54.2937 263.161 51.556C271.903 41.6818 283.419 34.6725 296.205 31.4434C308.992 28.2142 322.454 28.9152 334.836 33.4548C344.288 36.9842 352.813 42.6189 359.764 49.9319C361.553 51.8085 363.219 53.7976 364.754 55.8871C365.556 56.9249 366.294 58.0096 366.967 59.1355C367.649 60.2653 368.426 61.3481 369.062 62.4779L370.85 66.0323L371.769 67.7977L372.498 69.6573L373.958 73.3763L375.111 77.2367C377.846 87.1565 378.206 97.5811 376.161 107.666C374.116 117.751 369.724 127.212 363.342 135.283C357.665 142.414 350.572 148.29 342.51 152.54C334.447 156.79 325.591 159.322 316.5 159.975C308.553 160.51 300.575 159.584 292.961 157.245C289.493 156.172 286.11 154.842 282.84 153.266C279.802 151.769 276.889 150.029 274.13 148.064C265.27 141.765 258.105 133.371 253.275 123.631C253.231 123.599 253.177 123.581 253.122 123.581C253.067 123.581 253.013 123.599 252.969 123.631C252.921 123.652 252.882 123.69 252.86 123.738C252.839 123.786 252.835 123.84 252.851 123.89L253.157 123.631C246.731 121.277 241.788 119.606 238.422 118.382L234.585 117.041L233.314 116.593Z" fill="#263238"/>
<path d="M312.098 137.778C333.6 137.778 351.031 120.347 351.031 98.845C351.031 77.343 333.6 59.9121 312.098 59.9121C290.596 59.9121 273.165 77.343 273.165 98.845C273.165 120.347 290.596 137.778 312.098 137.778Z" fill="#3780EF"/>
<g opacity="0.3">
<path d="M312.097 137.778C333.599 137.778 351.03 120.348 351.03 98.8455C351.03 77.3435 333.599 59.9126 312.097 59.9126C290.595 59.9126 273.164 77.3435 273.164 98.8455C273.164 120.348 290.595 137.778 312.097 137.778Z" fill="black"/>
</g>
<path d="M341.186 120.549C355.496 104.5 354.085 79.8894 338.036 65.58C321.987 51.2706 297.376 52.681 283.067 68.7302C268.757 84.7795 270.168 109.39 286.217 123.7C302.266 138.009 326.877 136.598 341.186 120.549Z" fill="#3780EF"/>
<path d="M338.179 94.5379C338.179 99.6962 336.65 104.739 333.784 109.028C330.918 113.317 326.845 116.659 322.079 118.633C317.313 120.607 312.069 121.124 307.01 120.118C301.951 119.111 297.304 116.627 293.656 112.98C290.009 109.332 287.525 104.685 286.519 99.626C285.512 94.5668 286.029 89.3228 288.003 84.5572C289.977 79.7915 293.32 75.7182 297.609 72.8524C301.898 69.9866 306.94 68.457 312.098 68.457C315.523 68.457 318.915 69.1316 322.079 70.4423C325.243 71.753 328.118 73.6741 330.54 76.096C332.962 78.5178 334.883 81.3929 336.194 84.5572C337.505 87.7214 338.179 91.1129 338.179 94.5379Z" fill="white"/>
<path d="M324.856 94.5378C324.856 97.061 324.108 99.5276 322.706 101.626C321.304 103.724 319.312 105.359 316.981 106.325C314.649 107.29 312.084 107.543 309.609 107.051C307.135 106.558 304.861 105.343 303.077 103.559C301.293 101.775 300.078 99.5015 299.585 97.0267C299.093 94.5519 299.346 91.9867 300.311 89.6555C301.277 87.3243 302.912 85.3317 305.01 83.9299C307.108 82.528 309.575 81.7798 312.098 81.7798C315.482 81.7798 318.727 83.124 321.12 85.5165C323.512 87.9091 324.856 91.1541 324.856 94.5378Z" fill="#3780EF"/>
<path d="M339.238 66.0325L338.179 57.7234L346.629 48.6846L347.241 57.6528L339.238 66.0325Z" fill="#455A64"/>
<path d="M357.362 59.4416L348.794 58.7354L340.202 66.9974L348.794 67.9155L357.362 59.4416Z" fill="#455A64"/>
<g opacity="0.3">
<path d="M313.792 94.3495L343.569 71.6347C342.457 70.0201 341.213 68.5006 339.849 67.0918L313.792 92.3252V94.3495Z" fill="black"/>
</g>
<path d="M347.571 56.405L335.473 68.5039L316.241 87.7349L311.816 92.1602C311.529 92.4505 311.369 92.8429 311.371 93.2513C311.373 93.6596 311.538 94.0503 311.828 94.3375C312.118 94.6247 312.511 94.7848 312.919 94.7826C313.327 94.7804 313.718 94.616 314.005 94.3257L326.128 82.2033L345.359 62.9723L349.76 58.547C351.173 57.1582 348.984 54.9927 347.571 56.405Z" fill="#263238"/>
<path d="M573.12 404.965C566.953 380.061 562.905 378.696 548.075 347.06H537.059L431.277 345.224L422.638 364.408C413.034 390.3 406.467 405.718 403.807 424.643C402.761 432.898 402.659 441.245 403.501 449.523H577.687C580.206 436.624 575.804 415.722 573.12 404.965Z" fill="#263238"/>
<path d="M457.899 58.4526C453.418 62.1241 449.89 66.8236 447.616 72.1514C445.341 77.4791 444.387 83.2773 444.835 89.0529C445.329 94.6551 446.93 101.034 443.328 105.342C439.727 109.649 432.689 109.555 429.205 113.933C425.18 119.112 428.664 126.691 427.275 133.094C426.53 136.081 424.743 138.704 422.236 140.49C419.728 142.277 416.666 143.11 413.599 142.839C420.85 148.629 429.556 152.31 438.762 153.478L445.682 144.416C444.514 146.119 443.951 148.165 444.083 150.226C444.215 152.288 445.035 154.245 446.412 155.785C449.251 158.814 452.918 160.942 456.957 161.905C466.424 164.727 476.414 165.323 486.149 163.644C495.884 161.966 505.098 158.06 513.073 152.231" fill="#263238"/>
<path d="M563.634 106.895C561.842 102.768 560.27 98.5488 558.927 94.2548C556.808 84.8393 561.28 74.0587 556.573 65.5612C553.23 59.5118 546.216 56.593 539.601 54.6393C532.987 52.6856 525.878 51.0144 520.912 46.2125C517.263 42.6817 515.145 37.8092 511.496 34.2784C506.318 29.2646 498.738 27.6169 491.535 27.2168C484.107 26.5701 476.638 27.8596 469.856 30.9594C466.49 32.5333 463.541 34.8765 461.247 37.8C458.953 40.7236 457.379 44.1455 456.651 47.7895C456.11 51.3674 456.651 55.1101 455.498 58.5467C454.344 61.9833 451.355 65.3023 449.566 68.8566C447.727 72.6728 447.214 76.9936 448.11 81.134C449.005 85.2745 451.258 88.9975 454.509 91.7126L505.965 156.821C516.675 160.751 542.473 155.62 550.688 147.664C558.903 139.708 567.283 117.605 563.634 106.895Z" fill="#263238"/>
<path d="M455.78 83.2622C457.733 68.3387 468.891 50.6377 483.696 53.2034L524.936 67.7031C525.944 67.8541 526.911 68.2055 527.78 68.7363C528.65 69.2672 529.404 69.9669 529.999 70.794C530.593 71.6212 531.016 72.5591 531.242 73.5524C531.468 74.5457 531.493 75.5742 531.315 76.5773L522.159 183.913L472.728 192.905L473.081 179.653C473.575 170.591 474.093 162.328 474.069 162.399C474.046 162.47 455.238 157.95 452.884 132.717C451.684 120.171 453.614 99.8334 455.78 83.2622Z" fill="#FFBF9D"/>
<path d="M458.416 107.13C458.344 107.966 458.605 108.797 459.143 109.441C459.681 110.084 460.452 110.489 461.288 110.567C461.692 110.627 462.104 110.605 462.499 110.502C462.895 110.4 463.266 110.22 463.59 109.972C463.915 109.724 464.187 109.414 464.39 109.059C464.593 108.704 464.722 108.313 464.771 107.907C464.837 107.073 464.573 106.246 464.036 105.603C463.5 104.961 462.733 104.554 461.9 104.471C461.496 104.411 461.084 104.433 460.688 104.535C460.293 104.638 459.922 104.818 459.597 105.066C459.272 105.314 459 105.624 458.798 105.979C458.595 106.333 458.465 106.725 458.416 107.13Z" fill="#263238"/>
<path d="M490.782 108.896C490.71 109.732 490.971 110.562 491.509 111.206C492.047 111.85 492.818 112.255 493.653 112.332C494.058 112.392 494.469 112.37 494.865 112.268C495.26 112.165 495.631 111.985 495.956 111.737C496.281 111.489 496.553 111.179 496.755 110.824C496.958 110.47 497.088 110.078 497.137 109.672C497.203 108.838 496.939 108.011 496.402 107.368C495.865 106.726 495.098 106.319 494.265 106.236C493.861 106.176 493.449 106.198 493.054 106.3C492.658 106.403 492.287 106.583 491.963 106.831C491.638 107.079 491.366 107.389 491.163 107.744C490.961 108.098 490.831 108.49 490.782 108.896Z" fill="#263238"/>
<path d="M457.921 95.62C458.274 96.2085 461.24 94.3018 464.983 94.7961C468.725 95.2905 471.126 97.8326 471.597 97.3619C472.068 96.8911 471.597 96.1378 470.491 95.008C469.134 93.5153 467.29 92.5555 465.289 92.3011C463.287 92.0594 461.263 92.5257 459.569 93.6192C458.274 94.4666 457.756 95.3611 457.921 95.62Z" fill="#263238"/>
<path d="M491.441 98.0677C491.888 98.5855 494.783 96.4435 498.785 96.5612C502.786 96.6789 505.682 98.915 506.129 98.4207C506.576 97.9264 505.917 97.2438 504.67 96.2081C502.991 94.8612 500.913 94.108 498.761 94.0661C496.649 94.0004 494.577 94.6471 492.877 95.9021C491.7 96.8907 491.205 97.8087 491.441 98.0677Z" fill="#263238"/>
<path d="M479.108 121.795C477.331 121.098 475.472 120.631 473.576 120.406C472.682 120.241 471.882 120.03 471.764 119.418C471.744 118.505 472.007 117.609 472.517 116.852L475.577 110.308C479.838 101.01 482.968 93.3603 482.639 93.172C482.309 92.9836 478.52 100.422 474.259 109.649C473.223 112.003 472.258 114.121 471.317 116.216C470.687 117.235 470.445 118.447 470.634 119.629C470.737 119.951 470.915 120.245 471.152 120.486C471.389 120.727 471.679 120.909 471.999 121.018C472.477 121.19 472.976 121.293 473.482 121.324C475.331 121.709 477.221 121.868 479.108 121.795Z" fill="#263238"/>
<path d="M473.976 162.328C485.719 163.299 497.501 160.993 508.012 155.667C508.012 155.667 498.432 172.615 473.599 168.613L473.976 162.328Z" fill="#FF9A6C"/>
<path d="M489.699 131.728C489.294 130.893 488.678 130.179 487.91 129.657C486.979 129.209 485.919 129.109 484.921 129.374C483.441 129.611 482.078 130.321 481.037 131.399C480.527 131.944 480.171 132.615 480.006 133.343C479.84 134.071 479.871 134.829 480.095 135.541C480.495 136.977 482.661 137.731 484.12 137.895C485.613 138.07 487.122 137.739 488.404 136.954C488.976 136.694 489.474 136.295 489.852 135.793C490.23 135.292 490.477 134.703 490.57 134.082C490.506 133.231 490.205 132.415 489.699 131.728Z" fill="#FF9A6C"/>
<path d="M488.947 127.021C488.382 127.021 488.123 130.669 484.757 133.117C481.391 135.565 477.413 134.882 477.343 135.471C477.272 136.059 478.19 136.271 479.861 136.412C482.052 136.584 484.233 135.985 486.028 134.718C486.916 134.099 487.668 133.307 488.238 132.388C488.809 131.469 489.186 130.444 489.347 129.374C489.559 127.844 489.206 126.879 488.947 127.021Z" fill="#263238"/>
<path d="M491.7 84.6507C491.982 85.6158 495.442 85.404 499.444 86.1573C503.446 86.9105 506.67 88.2286 507.259 87.4283C507.518 87.0517 507 86.1337 505.752 85.0744C504.076 83.8592 502.147 83.0377 500.11 82.6709C498.072 82.3041 495.978 82.4016 493.983 82.956C492.288 83.4503 491.488 84.1329 491.7 84.6507Z" fill="#263238"/>
<path d="M459.923 83.0035C460.559 83.8273 463.336 83.1918 466.608 83.3801C469.88 83.5684 472.587 84.3217 473.293 83.5449C473.599 83.1447 473.293 82.3445 472.045 81.5206C470.453 80.4828 468.602 79.912 466.702 79.8729C464.818 79.7633 462.942 80.1876 461.288 81.0969C460.088 81.8265 459.641 82.6033 459.923 83.0035Z" fill="#263238"/>
<path d="M539.649 71.6107C537.295 68.0799 533.152 66.291 529.197 64.8081C512.098 58.3977 494.295 54.0515 476.165 51.8618C473.952 55.6045 476.165 60.6182 479.507 63.3016C482.85 65.985 487.322 66.9972 491.277 68.4801C495.231 69.963 499.562 72.2462 501.257 76.2478C502.952 80.2494 501.634 85.5456 503.234 89.8767C506.012 97.3149 516.463 99.6217 519.193 107.107C521.241 112.733 518.017 118.876 517.263 124.761C516.872 127.792 517.131 130.871 518.024 133.793C518.916 136.716 520.422 139.414 522.44 141.709C524.459 144.003 526.943 145.841 529.728 147.099C532.512 148.358 535.533 149.008 538.589 149.006C539.625 127.539 540.653 106.079 541.673 84.6276C542.002 80.1552 542.12 75.2356 539.649 71.6107Z" fill="#263238"/>
<path d="M583.501 125.373C580.064 122.36 575.803 119.77 574.415 115.463C572.39 109.154 577.38 101.669 574.062 95.9258C571.025 90.7002 562.292 91.0533 559.397 85.7101C557.208 81.5437 559.656 77.801 558.785 74.129C557.914 70.457 552.665 67.2793 548.922 67.7501L519.946 110.543C517.357 124.808 514.697 132.411 517.828 140.72C519.897 145.132 521.475 149.757 522.535 154.513C523.242 159.221 522.065 164.823 518.157 167.719C535.67 168.919 552.006 159.574 567.071 150.583L583.03 141.026C584.778 140.173 586.283 138.894 587.408 137.307C589.715 133.352 586.819 128.362 583.501 125.373Z" fill="#263238"/>
<path d="M567.447 146.228C566.844 146.424 566.22 146.55 565.588 146.605C563.762 146.81 561.914 146.699 560.127 146.275C557.271 145.618 554.635 144.231 552.477 142.25C549.627 139.56 547.818 135.951 547.369 132.058C547.091 129.811 547.259 127.531 547.863 125.349C548.632 123.034 549.708 120.833 551.064 118.805C552.49 116.711 553.6 114.419 554.36 112.003C554.749 110.769 554.861 109.464 554.686 108.182C554.511 106.9 554.054 105.672 553.348 104.588C551.723 102.47 548.64 101.975 546.004 100.916C544.508 100.394 543.199 99.4446 542.237 98.1856C541.363 96.8186 540.928 95.217 540.99 93.5956C541.343 90.4991 541.982 87.4419 542.896 84.4626C543.238 82.9914 543.238 81.4614 542.896 79.9902C542.502 78.5454 541.599 77.2916 540.354 76.4594C537.652 74.8934 534.58 74.0806 531.457 74.1056C528.275 74.0278 525.166 73.1451 522.418 71.5399C519.774 69.9283 517.611 67.6357 516.157 64.902C514.944 62.2471 514.15 59.4203 513.803 56.5222C513.479 53.847 512.879 51.2123 512.014 48.6603C511.071 46.3305 509.642 44.2281 507.824 42.4932C504.805 39.6173 500.949 37.7772 496.814 37.2398C492.679 36.7023 488.481 37.4953 484.827 39.5038C482.302 40.8193 480.037 42.5819 478.142 44.7058C476.54 46.5484 475.158 48.5706 474.022 50.7317C474.067 50.5713 474.122 50.414 474.187 50.261C474.328 49.9785 474.493 49.5313 474.776 48.9663C476.983 44.746 480.39 41.2734 484.568 38.986C487.959 37.0893 491.822 36.1993 495.701 36.4203C500.434 36.7506 504.915 38.6756 508.412 41.8812C510.345 43.6876 511.856 45.8977 512.838 48.3543C513.757 50.9529 514.389 53.6446 514.721 56.381C515.095 59.1754 515.888 61.8973 517.075 64.4548C518.438 67.0278 520.482 69.1772 522.983 70.669C525.612 72.1627 528.574 72.9721 531.598 73.0228C534.891 72.9452 538.144 73.7585 541.013 75.3767C542.462 76.3417 543.514 77.7954 543.979 79.4724C544.355 81.0986 544.355 82.7893 543.979 84.4155C543.081 87.3337 542.451 90.3276 542.096 93.3602C542.026 94.779 542.396 96.1847 543.155 97.3853C544.007 98.4786 545.161 99.2972 546.474 99.7392C547.793 100.281 549.181 100.657 550.546 101.199C551.967 101.705 553.222 102.592 554.171 103.764C554.965 104.96 555.481 106.319 555.681 107.741C555.881 109.162 555.759 110.611 555.325 111.979C554.536 114.491 553.378 116.871 551.888 119.041C550.558 121.001 549.497 123.131 548.734 125.373C548.131 127.458 547.939 129.64 548.169 131.799C548.54 135.528 550.206 139.009 552.877 141.638C554.928 143.607 557.461 145.003 560.221 145.687C562.572 146.333 565.026 146.517 567.447 146.228Z" fill="#455A64"/>
<path d="M406.043 128.08C405.532 129.567 405.532 131.182 406.043 132.67C406.342 133.514 406.828 134.28 407.464 134.912C408.099 135.543 408.869 136.024 409.715 136.318C410.848 136.648 412.051 136.652 413.187 136.332C414.323 136.011 415.347 135.379 416.141 134.506C417.04 133.489 417.556 132.19 417.6 130.834C417.649 129.319 417.409 127.81 416.894 126.385C415.929 123.443 413.999 120.241 414.258 116.357C414.372 114.392 414.896 112.472 415.796 110.721C416.696 108.97 417.952 107.426 419.484 106.189C421.096 104.882 422.941 103.892 424.921 103.27C426.939 102.669 429.03 102.344 431.135 102.305C433.168 102.252 435.192 102.024 437.185 101.622C439.058 101.215 440.727 100.155 441.892 98.6329C442.924 97.0886 443.502 95.2868 443.564 93.4309C443.629 91.6191 443.455 89.8066 443.046 88.0405C442.053 84.7129 441.491 81.2717 441.374 77.8012C441.52 74.7189 442.586 71.751 444.434 69.2802C445.989 67.3042 447.907 65.6426 450.084 64.3842C451.671 63.4249 453.189 62.3551 454.627 61.1829C455.805 60.1512 456.765 58.8948 457.451 57.4873C457.451 57.4873 457.451 57.4873 457.451 57.7933C457.366 58.0881 457.247 58.3724 457.098 58.6407C456.578 59.7213 455.85 60.689 454.956 61.4889C453.555 62.7358 452.051 63.8619 450.46 64.8549C448.385 66.132 446.559 67.7749 445.07 69.7039C443.358 72.0838 442.392 74.9183 442.292 77.8482C442.46 81.2417 443.045 84.6016 444.034 87.8521C444.487 89.6993 444.678 91.6012 444.599 93.5015C444.54 95.5397 443.912 97.5208 442.787 99.2213C441.497 100.937 439.634 102.131 437.538 102.587C435.488 103.04 433.399 103.285 431.3 103.317C429.276 103.366 427.267 103.675 425.321 104.235C423.462 104.816 421.729 105.742 420.213 106.966C418.784 108.107 417.608 109.534 416.761 111.155C415.914 112.776 415.414 114.556 415.294 116.381C415.011 119.935 416.8 122.995 417.789 126.102C418.304 127.617 418.544 129.211 418.495 130.81C418.41 132.344 417.794 133.8 416.753 134.929C415.87 135.872 414.739 136.546 413.49 136.875C412.241 137.203 410.924 137.174 409.691 136.789C408.781 136.45 407.959 135.91 407.286 135.209C406.614 134.508 406.108 133.664 405.808 132.74C405.417 131.588 405.352 130.35 405.619 129.162C405.703 128.782 405.846 128.416 406.043 128.08Z" fill="#263238"/>
<path d="M436.125 179.935C419.107 182.901 403.642 195.988 395.827 216.232C388.765 234.568 380.55 251.916 381.374 251.893L421.39 272.607L424.261 266.557L429.722 333.242L412.822 373.258C412.822 373.258 450.884 394.772 482.331 394.984C511.755 395.196 565.846 379.755 565.846 379.755L551.723 340.163L562.41 272.371L562.528 277.267L600.001 269.97C600.001 269.97 594.634 228.236 585.854 207.052C577.898 188.221 547.322 179.982 547.322 179.982L521.923 173.391C521.923 173.391 516.721 188.574 494.312 187.35C471.904 186.126 473.669 172.309 473.669 172.309L436.125 179.935Z" fill="#3780EF"/>
<path d="M569.378 222.823C569.353 222.987 569.353 223.153 569.378 223.317C569.378 223.694 569.378 224.141 569.213 224.729C569.048 226 568.836 227.766 568.577 229.908C568.012 234.286 567.189 240.335 566.223 246.997C565.258 253.658 564.387 259.661 563.728 264.086C563.422 266.228 563.164 267.97 562.975 269.241C562.975 269.829 562.858 270.3 562.787 270.653C562.766 270.817 562.766 270.983 562.787 271.148C562.787 271.148 562.787 270.983 562.787 270.677C562.787 270.371 562.952 269.853 563.046 269.264C563.281 268.017 563.564 266.252 563.94 264.133C564.646 259.755 565.588 253.729 566.553 247.068C567.518 240.406 568.271 234.333 568.742 229.955C568.978 227.766 569.142 225.977 569.237 224.753C569.237 224.164 569.237 223.694 569.237 223.317C569.237 222.94 569.378 222.823 569.378 222.823Z" fill="#263238"/>
<path d="M425.179 221.175C425.166 221.348 425.166 221.521 425.179 221.693C425.179 222.093 425.179 222.588 425.014 223.223C425.014 224.518 424.755 226.424 424.614 228.778C424.332 233.486 424.12 240.006 424.19 247.209C424.261 254.412 424.661 260.932 425.061 265.616C425.25 267.97 425.438 269.877 425.579 271.195L425.767 272.701C425.745 272.873 425.745 273.047 425.767 273.219C425.783 273.039 425.783 272.858 425.767 272.678C425.767 272.301 425.767 271.783 425.767 271.171C425.767 269.806 425.532 267.923 425.367 265.593C425.061 260.885 424.732 254.388 424.638 247.209C424.543 240.03 424.638 233.51 424.944 228.802C424.944 226.448 425.155 224.588 425.202 223.223C425.202 222.611 425.202 222.093 425.202 221.717C425.225 221.536 425.217 221.353 425.179 221.175Z" fill="#263238"/>
<path d="M499.49 318.484C497.813 318.381 496.132 318.624 494.552 319.199C492.973 319.774 491.529 320.669 490.31 321.826C486.45 325.569 479.647 330.771 472.021 330.324C460.252 329.641 452.507 319.731 453.19 306.338C453.873 292.944 462.747 283.976 474.563 284.659C482.189 285.106 488.333 291.038 491.746 295.204C492.819 296.498 494.15 297.556 495.653 298.31C497.156 299.063 498.8 299.497 500.479 299.582C503.744 299.768 506.949 298.651 509.39 296.475C511.831 294.299 513.308 291.242 513.496 287.978L515.709 209.547L392.837 205.051L308.804 202.062L305.979 276.608C305.579 283.411 311.935 288.519 318.737 288.919C320.415 289.022 322.096 288.779 323.675 288.203C325.255 287.628 326.699 286.734 327.917 285.577C331.778 281.834 338.58 276.632 346.207 277.079C357.976 277.762 365.72 287.672 365.038 301.065C364.355 314.459 355.481 323.427 343.665 322.744C336.038 322.297 329.894 316.365 326.481 312.199C325.408 310.904 324.078 309.847 322.575 309.093C321.071 308.339 319.428 307.906 317.749 307.821C314.488 307.634 311.286 308.749 308.846 310.92C306.405 313.091 304.926 316.141 304.732 319.402L301.036 407.13L424.732 411.838L497.301 414.592L506.222 414.921L511.095 331.43C511.262 328.177 510.136 324.99 507.962 322.565C505.787 320.139 502.742 318.672 499.49 318.484Z" fill="#E0E0E0"/>
<path d="M499.491 318.484C500.077 318.489 500.66 318.552 501.233 318.672C502.93 318.986 504.537 319.669 505.941 320.673C508.255 322.353 509.919 324.781 510.649 327.546C511.104 329.321 511.224 331.165 511.002 332.984C511.002 334.914 510.79 336.985 510.649 339.174C509.66 356.781 508.295 382.486 506.412 415.016V415.369H506.058L301.037 407.742H300.496V407.13C301.178 389.947 301.908 372.199 302.661 353.98C303.038 344.847 303.414 335.604 303.791 326.252C303.791 323.898 303.979 321.544 304.097 319.19C304.207 317.312 304.728 315.481 305.622 313.826C306.516 312.171 307.762 310.731 309.272 309.609C310.782 308.488 312.519 307.71 314.362 307.332C316.205 306.954 318.109 306.984 319.939 307.421C322.411 307.989 324.658 309.284 326.388 311.14C327.889 313.008 329.542 314.748 331.331 316.342C334.781 319.651 339.275 321.656 344.042 322.015C346.43 322.131 348.817 321.775 351.067 320.967C353.316 320.159 355.385 318.915 357.153 317.307C360.709 313.978 363.068 309.567 363.862 304.761C364.331 302.359 364.497 299.907 364.356 297.464C364.249 295.008 363.781 292.581 362.967 290.261C361.377 285.584 358.047 281.698 353.669 279.41C351.462 278.303 349.053 277.658 346.589 277.512C344.124 277.366 341.656 277.724 339.334 278.562C336.992 279.428 334.781 280.617 332.767 282.093C331.755 282.846 330.766 283.623 329.825 284.447C328.883 285.271 328.012 286.212 326.859 287.013C324.975 288.376 322.751 289.19 320.433 289.367C318.157 289.51 315.879 289.132 313.771 288.26C311.605 287.496 309.687 286.157 308.224 284.387C306.76 282.616 305.805 280.481 305.462 278.209C305.297 275.855 305.462 273.831 305.462 271.642L305.698 265.169L306.192 252.317C306.851 235.259 307.494 218.453 308.122 201.897V201.309H308.711L515.709 208.888H516.204V209.382C515.686 226.644 515.199 243.121 514.744 258.813C514.509 266.66 514.289 274.271 514.085 281.646C514.085 283.506 514.085 285.342 513.92 287.154C513.896 289.024 513.479 290.869 512.696 292.568C511.929 294.197 510.825 295.646 509.457 296.818C508.09 297.99 506.489 298.859 504.762 299.369C503.034 299.878 501.218 300.015 499.433 299.772C497.648 299.529 495.936 298.911 494.407 297.958C492.978 297.017 491.72 295.839 490.688 294.475C489.637 293.239 488.504 292.075 487.298 290.991C485.007 288.84 482.332 287.139 479.413 285.977C476.591 284.915 473.542 284.599 470.562 285.059C467.756 285.45 465.077 286.475 462.727 288.058C460.378 289.641 458.42 291.739 457.004 294.192C454.415 298.699 453.173 303.854 453.426 309.045C453.467 313.709 454.892 318.256 457.522 322.109C459.727 325.218 462.829 327.579 466.414 328.875C469.998 330.171 473.893 330.34 477.577 329.359C480.387 328.52 483.037 327.215 485.415 325.498C487.299 324.144 489.085 322.657 490.758 321.05C492.078 319.949 493.619 319.146 495.278 318.696C496.265 318.41 497.287 318.267 498.314 318.272C498.666 318.236 499.021 318.236 499.374 318.272C497.998 318.249 496.627 318.424 495.301 318.79C493.693 319.258 492.201 320.06 490.923 321.144C489.257 322.782 487.471 324.292 485.58 325.663C483.188 327.428 480.514 328.773 477.671 329.641C473.905 330.678 469.911 330.532 466.231 329.223C462.551 327.913 459.362 325.504 457.098 322.321C454.407 318.393 452.933 313.759 452.861 308.998C452.588 303.69 453.838 298.414 456.463 293.792C457.932 291.264 459.956 289.103 462.382 287.472C464.808 285.841 467.573 284.783 470.468 284.376C473.566 283.92 476.73 284.244 479.672 285.318C482.679 286.513 485.44 288.252 487.816 290.449C489.04 291.555 490.195 292.734 491.276 293.98C492.243 295.291 493.439 296.415 494.807 297.299C496.239 298.195 497.845 298.776 499.518 299.005C501.192 299.233 502.894 299.104 504.514 298.626C506.134 298.147 507.634 297.331 508.914 296.229C510.195 295.128 511.227 293.768 511.943 292.238C513.497 289.108 512.979 285.318 513.214 281.646C513.426 274.255 513.614 266.628 513.826 258.813C514.266 243.121 514.721 226.644 515.191 209.382L515.686 209.9L308.546 202.533L309.181 201.944C308.554 218.468 307.918 235.283 307.275 252.387C307.102 256.64 306.937 260.924 306.78 265.24L306.545 271.689C306.545 273.808 306.263 276.114 306.404 278.092C306.735 280.138 307.611 282.058 308.941 283.648C310.27 285.239 312.004 286.442 313.96 287.13C315.907 287.921 318.006 288.267 320.103 288.143C322.184 288.003 324.187 287.295 325.894 286.095C326.884 285.319 327.835 284.494 328.742 283.623C329.731 282.752 330.743 281.952 331.802 281.269C333.91 279.723 336.223 278.479 338.675 277.574C341.15 276.681 343.782 276.302 346.408 276.46C349.034 276.618 351.601 277.309 353.952 278.492C358.632 280.899 362.187 285.037 363.862 290.026C364.711 292.451 365.195 294.99 365.297 297.558C365.45 300.103 365.284 302.657 364.803 305.161C363.963 310.219 361.481 314.859 357.742 318.366C353.922 321.788 348.905 323.565 343.783 323.309C338.743 322.926 333.992 320.804 330.343 317.307C328.515 315.697 326.83 313.933 325.305 312.034C323.742 310.339 321.696 309.165 319.444 308.668C317.224 308.15 314.9 308.288 312.757 309.065C310.613 309.842 308.741 311.225 307.369 313.047C305.992 314.851 305.174 317.02 305.015 319.284C305.015 321.638 304.803 323.992 304.709 326.346C304.317 335.761 303.932 344.996 303.556 354.051C302.802 372.301 302.065 390.018 301.343 407.201L300.802 406.613L505.988 414.616L505.611 414.945C507.588 382.415 509.142 356.734 510.319 339.127C510.46 336.938 510.578 334.867 510.696 332.937C510.929 331.153 510.833 329.342 510.413 327.593C509.821 325.389 508.626 323.394 506.963 321.83C505.3 320.267 503.234 319.198 500.998 318.743C500.08 318.531 499.468 318.531 499.491 318.484Z" fill="#263238"/>
<path d="M324.199 394.655C324.199 394.655 317.467 396.137 320.786 410.331C322.881 419.229 328.389 414.121 328.389 414.121C329.019 414.753 329.793 415.222 330.644 415.488C331.495 415.755 332.399 415.811 333.276 415.651C334.154 415.491 334.979 415.12 335.682 414.571C336.385 414.022 336.944 413.31 337.31 412.497L338.087 413.368C338.087 413.368 342.183 420.288 348.138 413.65C349.312 414.172 350.617 414.323 351.879 414.083C353.141 413.844 354.299 413.225 355.2 412.309C358.072 409.013 353.387 401.575 353.387 401.575C353.387 401.575 352.446 390.653 349.503 390.253C348.612 390.115 347.699 390.285 346.917 390.734C346.134 391.183 345.527 391.885 345.196 392.724C344.91 395.28 344.784 397.85 344.819 400.421C344.819 400.421 344.042 391.006 342.089 390.159C338.652 388.841 335.286 389.476 336.51 401.01C336.51 401.01 335.733 392.442 333.85 391.594C331.967 390.747 329.307 392.136 328.083 395.337C327.35 397.231 327.075 399.272 327.283 401.292C327.283 401.292 328.436 393.007 324.199 394.655Z" fill="#FFBF9D"/>
<path d="M328.413 413.674C328.524 411.073 328.429 408.468 328.131 405.883C328.17 403.277 328.013 400.673 327.66 398.091C326.62 403.268 326.879 408.622 328.413 413.674Z" fill="#FF9A6C"/>
<path d="M337.663 412.638C337.672 410.179 337.483 407.723 337.098 405.294C337.05 402.841 336.822 400.394 336.415 397.974C335.784 400.394 335.664 402.919 336.062 405.388C336.103 407.888 336.647 410.354 337.663 412.638Z" fill="#FF9A6C"/>
<path d="M348.632 413.792C348.914 413.65 347.267 410.496 346.278 406.283C345.29 402.07 345.313 398.539 344.984 398.515C344.362 401.168 344.46 403.939 345.266 406.542C345.717 409.217 346.88 411.721 348.632 413.792Z" fill="#FF9A6C"/>
<path d="M598.282 270.418L562.974 277.126L564.222 308.433L529.361 350.496L536.964 371.234C544.026 366.244 583.241 339.527 596.799 325.663C602.637 319.731 598.282 270.418 598.282 270.418Z" fill="#FFBF9D"/>
<path d="M584.866 311.093C584.866 311.093 583.83 310.175 582.041 309.021C581.022 308.355 579.933 307.802 578.793 307.374C577.44 306.88 576.034 306.548 574.603 306.385C573.19 306.259 571.766 306.314 570.366 306.55C569.197 306.758 568.053 307.089 566.953 307.538C565.07 308.315 563.987 309.115 563.94 309.021C564.173 308.803 564.425 308.606 564.693 308.433C564.983 308.205 565.29 308 565.611 307.821C565.988 307.632 566.388 307.374 566.883 307.162C567.982 306.664 569.135 306.293 570.319 306.055C571.747 305.791 573.204 305.72 574.65 305.844C576.11 306.012 577.542 306.368 578.911 306.903C580.071 307.363 581.169 307.964 582.183 308.692C582.592 308.967 582.985 309.266 583.36 309.586C583.689 309.845 583.972 310.128 584.207 310.339C584.455 310.564 584.677 310.817 584.866 311.093Z" fill="#FF9A6C"/>
<path d="M529.903 349.367C529.903 349.367 526.349 344.07 522.842 342.752C519.334 341.434 514.25 341.269 513.426 340.398C512.602 339.527 511.072 336.891 509.213 338.044C507.353 339.198 503.516 344.894 510.366 349.037L515.45 350.732C514.382 353.085 512.97 355.267 511.261 357.205C509.354 358.806 484.874 374.812 484.874 374.812C484.874 374.812 482.002 376.271 482.355 378.766C482.708 381.261 487.769 381.591 487.769 381.591C488.429 382.721 489.364 383.666 490.488 384.337C491.612 385.008 492.887 385.383 494.195 385.428C496.232 385.411 498.261 385.166 500.244 384.698C501.138 386.009 502.437 386.991 503.942 387.492C505.448 387.994 507.076 387.988 508.577 387.476C513.967 385.663 538.212 370.151 538.212 370.151L535.858 350.496L529.903 349.367Z" fill="#FFBF9D"/>
<path d="M505.588 373.706C503.184 375.918 500.39 377.666 497.349 378.861C494.406 380.352 491.215 381.293 487.934 381.638C487.934 381.379 492.053 380.226 496.879 378.037C501.704 375.848 505.447 373.494 505.588 373.706Z" fill="#FF9A6C"/>
<path d="M512.368 379.049C508.945 382.877 504.147 385.195 499.021 385.498C499.021 385.239 502.27 384.58 505.942 382.791C509.614 381.002 512.179 378.884 512.368 379.049Z" fill="#FF9A6C"/>
<path d="M224.394 394.208L60.3764 383.592L45.3823 449.5H228.466C230.035 430.97 228.661 412.308 224.394 394.208Z" fill="#263238"/>
<path d="M129.415 7.46783C130.685 5.47539 132.543 3.92708 134.731 3.03724C136.92 2.1474 139.331 1.96008 141.631 2.50121C144.547 0.606578 148.015 -0.251866 151.478 0.064095C154.941 0.380056 158.197 1.85202 160.721 4.24305C162.873 3.19894 165.254 2.71818 167.642 2.8458C170.029 2.97343 172.346 3.70527 174.374 4.97274C176.378 6.2862 178.015 8.0881 179.131 10.2088C180.247 12.3295 180.805 14.6993 180.753 17.0951C183.181 16.9408 185.597 17.5352 187.677 18.798C189.756 20.0608 191.398 21.9312 192.381 24.1567C193.292 26.4111 193.499 28.8888 192.973 31.263C192.448 33.6372 191.216 35.7965 189.438 37.4561C191.937 38.5839 193.957 40.5581 195.141 43.0302C196.325 45.5024 196.598 48.3135 195.912 50.9673C195.079 53.5787 193.341 55.8064 191.01 57.2482C188.679 58.6899 185.909 59.2507 183.201 58.8292L130.545 20.7437C129.003 18.9212 128.066 16.6644 127.864 14.2858C127.661 11.9073 128.203 9.52466 129.415 7.46783Z" fill="#263238"/>
<path d="M184.708 60.4298C184.641 48.5468 180.105 37.1239 172.002 28.432C163.899 19.7401 152.822 14.4158 140.973 13.5173L138.619 13.3525C112.209 12.9994 102.181 36.7499 102.534 63.3015L97.8265 161.552L136.995 200.861L151.306 174.71L156.249 148.653C156.249 148.653 181.812 146.511 183.931 121.136C184.802 108.872 184.896 83.4506 184.708 60.4298Z" fill="#AE7461"/>
<path d="M156.296 148.629C144.541 147.779 133.284 143.544 123.883 136.436C123.883 136.436 129.415 155.926 154.789 155.455L156.296 148.629Z" fill="#6F4439"/>
<path d="M175.692 81.7795C175.637 82.7244 175.215 83.6104 174.516 84.2482C173.816 84.886 172.895 85.2249 171.949 85.1926C171.486 85.1991 171.026 85.1119 170.597 84.9362C170.169 84.7604 169.78 84.4998 169.455 84.17C169.129 83.8402 168.874 83.4479 168.704 83.0169C168.534 82.5859 168.453 82.125 168.466 81.6618C168.52 80.7169 168.943 79.8309 169.642 79.1931C170.341 78.5553 171.262 78.2164 172.208 78.2487C172.671 78.2455 173.129 78.3349 173.556 78.5118C173.983 78.6887 174.371 78.9494 174.696 79.2786C175.02 79.6077 175.276 79.9986 175.447 80.4281C175.618 80.8577 175.701 81.3172 175.692 81.7795Z" fill="#263238"/>
<path d="M178.634 73.7996C178.163 74.2233 175.574 72.0106 171.572 71.7282C167.57 71.4457 164.699 73.2111 164.322 72.7167C163.945 72.2224 164.628 71.6575 165.946 70.8337C167.702 69.781 169.743 69.3036 171.784 69.4684C173.813 69.5994 175.746 70.384 177.292 71.7046C178.469 72.7168 178.798 73.5877 178.634 73.7996Z" fill="#263238"/>
<path d="M142.291 80.0611C142.231 80.9914 141.817 81.8635 141.134 82.4982C140.451 83.1329 139.551 83.4822 138.619 83.4742C138.156 83.4743 137.697 83.3819 137.269 83.2025C136.842 83.023 136.455 82.76 136.13 82.429C135.806 82.098 135.551 81.7056 135.38 81.2747C135.209 80.8439 135.126 80.3832 135.135 79.9198C135.196 78.9771 135.62 78.0946 136.318 77.458C137.016 76.8214 137.934 76.4805 138.878 76.5068C139.336 76.516 139.787 76.6152 140.206 76.7988C140.625 76.9824 141.004 77.2468 141.321 77.5768C141.638 77.9069 141.887 78.2962 142.053 78.7224C142.22 79.1487 142.3 79.6036 142.291 80.0611Z" fill="#263238"/>
<path d="M141.468 70.5276C140.974 70.9749 138.385 68.7387 134.407 68.4798C130.429 68.2208 127.557 69.9627 127.157 69.4449C126.757 68.927 127.486 68.4091 128.804 67.5853C130.558 66.5266 132.601 66.0488 134.642 66.2201C136.663 66.3561 138.587 67.1402 140.127 68.4562C141.351 69.4919 141.704 70.3864 141.468 70.5276Z" fill="#263238"/>
<path d="M152.178 100.446C154.265 99.9375 156.409 99.7002 158.557 99.7396C159.569 99.7396 160.511 99.5984 160.723 98.9158C160.883 97.897 160.727 96.8536 160.275 95.9264L157.922 88.1115C154.626 77.0013 152.319 67.9153 152.767 67.7741C153.214 67.6329 156.227 76.554 159.522 87.6407C160.322 90.3712 161.107 92.984 161.876 95.4791C162.419 96.7282 162.502 98.129 162.111 99.4336C161.954 99.7792 161.716 100.082 161.417 100.315C161.118 100.549 160.766 100.707 160.393 100.775C159.822 100.84 159.246 100.84 158.675 100.775C156.504 100.939 154.321 100.828 152.178 100.446Z" fill="#263238"/>
<path d="M140.55 102.329C141.185 102.329 140.879 106.566 144.269 109.838C147.659 113.109 152.202 112.968 152.178 113.557C152.155 114.145 151.119 114.31 149.212 114.216C146.741 114.076 144.398 113.067 142.598 111.368C140.887 109.709 139.87 107.463 139.75 105.083C139.726 103.294 140.267 102.282 140.55 102.329Z" fill="#263238"/>
<path d="M142.315 59.4413C141.773 60.4063 138.502 59.2529 134.429 59.0411C130.357 58.8292 126.921 59.4177 126.567 58.382C126.426 57.8877 127.179 57.0167 128.662 56.24C130.575 55.3261 132.693 54.9285 134.806 55.0866C136.897 55.1968 138.916 55.8809 140.644 57.0638C141.985 58.0054 142.55 58.9705 142.315 59.4413Z" fill="#263238"/>
<path d="M178.446 63.0189C177.787 63.9134 175.08 63.0189 171.855 63.0189C168.63 63.0189 165.923 63.678 165.288 62.76C165.005 62.3128 165.429 61.4183 166.606 60.5474C168.197 59.526 170.056 59.0008 171.946 59.0385C173.836 59.0762 175.673 59.6752 177.222 60.7592C178.375 61.6772 178.752 62.5717 178.446 63.0189Z" fill="#263238"/>
<path d="M183.106 48.6133C183.106 48.6133 177.598 32.1362 170.231 27.9463C161.31 22.7914 156.602 32.654 147.987 29.594C139.371 26.534 130.851 21.5438 121.364 27.758C110.984 34.5371 115.221 40.1158 113.785 51.2966C108.042 96.8439 98.8144 109.178 97.9906 87.4756C97.9906 85.1217 91.541 82.7678 91.2821 72.7168C90.9761 59.6999 91.6116 43.9761 95.1188 35.055C98.1083 27.4991 102.863 22.4618 111.149 17.1421C124.213 8.73881 141.278 9.75095 152.765 11.7517C164.252 13.7525 185.696 28.7702 183.106 48.6133Z" fill="#263238"/>
<path d="M102.865 87.1696C102.903 86.2384 102.752 85.3092 102.421 84.438C102.09 83.5668 101.586 82.7716 100.939 82.1006C100.293 81.4297 99.5165 80.8967 98.658 80.534C97.7995 80.1713 96.8764 79.9863 95.9445 79.9903C91.2367 80.108 85.7522 82.3442 85.3756 92.2304C84.6695 109.649 102.206 106.754 102.253 106.236C102.3 105.718 102.629 94.4666 102.865 87.1696Z" fill="#AE7461"/>
<path d="M98.7439 99.551C98.7439 99.551 98.4379 99.7393 97.92 99.9512C97.5481 100.11 97.1477 100.193 96.7431 100.193C96.3385 100.193 95.9381 100.11 95.5661 99.9512C94.4743 99.1891 93.6031 98.1521 93.041 96.9451C92.4788 95.7381 92.2456 94.404 92.3649 93.0778C92.3847 91.5827 92.7386 90.111 93.4006 88.7703C93.5764 88.2314 93.8837 87.7448 94.2946 87.3544C94.7056 86.964 95.2073 86.6821 95.7545 86.5341C96.1038 86.4512 96.4712 86.4957 96.7906 86.6597C97.1099 86.8237 97.3602 87.0964 97.4963 87.4286C97.7082 87.9229 97.4963 88.276 97.6846 88.2995C97.8729 88.323 98.0613 88.0171 97.9436 87.2874C97.8669 86.8559 97.6422 86.4646 97.3081 86.181C96.8443 85.8059 96.2553 85.6208 95.6603 85.6632C94.9413 85.7774 94.2641 86.0759 93.6949 86.5297C93.1256 86.9835 92.6836 87.577 92.412 88.2524C91.6209 89.6975 91.1928 91.313 91.1644 92.9602C91.1644 96.4674 92.7886 99.8334 95.2601 100.657C95.719 100.816 96.2085 100.867 96.6903 100.806C97.1721 100.745 97.6332 100.573 98.0377 100.304C98.6027 99.9747 98.791 99.5745 98.7439 99.551Z" fill="#6F4439"/>
<path d="M102.417 53.2975C104.408 55.1737 106.835 56.5247 109.479 57.2285C110.809 57.5356 112.206 57.3463 113.407 56.6961C114.608 56.046 115.529 54.9797 115.999 53.6977C116.305 52.4972 115.999 51.0613 116.964 50.1904C117.929 49.3195 119.695 49.6255 121.131 49.8844C123.641 50.2624 126.205 49.7674 128.394 48.4821C130.584 47.1968 132.266 45.1991 133.159 42.8229C133.882 43.7205 134.909 44.3217 136.046 44.5126C137.182 44.7035 138.349 44.4708 139.326 43.8586C141.22 42.5282 142.923 40.9442 144.387 39.1508C145.121 38.251 146.066 37.546 147.137 37.0985C148.209 36.6509 149.374 36.4746 150.53 36.5851C151.715 37.0973 152.955 37.4686 154.226 37.6914C156.58 37.6914 157.804 35.0551 158.322 32.8189C158.84 30.5828 159.263 27.97 161.288 26.8637C163.312 25.7573 165.407 26.6753 167.478 27.1461C169.55 27.6169 172.186 27.3109 172.963 25.2865C173.091 24.7425 173.106 24.1782 173.009 23.6278C172.912 23.0775 172.704 22.5527 172.398 22.0853C171.158 19.8827 169.205 18.1677 166.861 17.2223C164.516 16.2769 161.92 16.1573 159.499 16.8832C158.873 13.9356 157.384 11.2412 155.22 9.1441C153.057 7.04695 150.317 5.64218 147.351 5.10917C144.386 4.57616 141.328 4.93912 138.57 6.15163C135.811 7.36413 133.477 9.37121 131.864 11.9166C130.153 10.1103 128.029 8.74642 125.674 7.94217C123.32 7.13792 120.805 6.91732 118.346 7.29932C115.887 7.68132 113.558 8.65451 111.559 10.1353C109.559 11.616 107.949 13.5601 106.866 15.8005C104.781 15.0976 102.535 15.0231 100.407 15.5863C98.2795 16.1495 96.3644 17.3255 94.8998 18.9682C93.4352 20.6109 92.4856 22.6479 92.1691 24.8258C91.8526 27.0037 92.1832 29.2266 93.1197 31.2183C91.4515 31.9049 89.9846 33.0036 88.8567 34.4116C87.7287 35.8195 86.9764 37.4906 86.6701 39.2685C86.3406 42.8699 89.5654 46.7067 93.0962 46.0005C92.3399 47.3759 92.1092 48.9793 92.4469 50.5122C92.7847 52.0451 93.6679 53.403 94.9322 54.3332C96.2567 55.1752 97.8444 55.5014 99.3936 55.2497C100.943 54.998 102.346 54.186 103.335 52.968" fill="#263238"/>
<path d="M91.8474 45.7886C91.7344 46.3849 91.7517 46.9987 91.8979 47.5878C92.0442 48.1769 92.316 48.7274 92.6947 49.2017C93.4491 50.3814 94.6296 51.2245 95.9902 51.5556C96.8572 51.7655 97.7603 51.7771 98.6325 51.5896C99.5046 51.4022 100.323 51.0204 101.027 50.4728L100.298 50.308C101.087 52.0024 102.153 53.5535 103.452 54.898C104.298 55.8131 105.313 56.5564 106.441 57.0872C107.523 57.5847 108.716 57.7878 109.901 57.6756C110.899 57.6587 111.882 57.4246 112.78 56.9897C113.679 56.5547 114.471 55.9293 115.104 55.157C115.867 54.0926 116.426 52.8952 116.751 51.6262C116.915 51.1819 116.995 50.7109 116.987 50.2374C116.987 50.2374 116.728 50.6847 116.375 51.5085C115.94 52.6609 115.32 53.7343 114.539 54.6862C113.844 55.3726 113.014 55.9074 112.102 56.2568C111.19 56.6062 110.215 56.7627 109.24 56.7162C108.264 56.6698 107.309 56.4214 106.434 55.987C105.56 55.5525 104.784 54.9412 104.158 54.1919C102.952 52.9223 101.944 51.478 101.169 49.9078L100.957 49.3429L100.51 49.7196C99.9123 50.1824 99.2241 50.5139 98.49 50.6923C97.7558 50.8708 96.9921 50.8923 96.2491 50.7553C95.0518 50.5083 93.9828 49.8402 93.2361 48.8721C92.5833 47.9408 92.1122 46.8946 91.8474 45.7886Z" fill="#455A64"/>
<path d="M127.343 8.43297C127.725 8.6349 128.118 8.81566 128.52 8.97438C129.593 9.53231 130.471 10.4023 131.039 11.4695L131.227 11.8225L131.486 11.5165C133.862 8.72844 136.907 6.59012 140.337 5.30236C142.537 4.47698 144.888 4.13182 147.233 4.29014C149.825 4.48339 152.312 5.3965 154.413 6.92653C156.063 8.10482 157.443 9.62144 158.461 11.3753C159.39 13.0259 159.915 14.8732 159.991 16.7657V17.3071H160.533C162.978 16.8397 165.508 17.3374 167.594 18.6959C169.248 19.7839 170.516 21.3652 171.219 23.2152C171.818 24.8884 172.059 26.6687 171.925 28.4408C172.124 27.9962 172.228 27.5153 172.231 27.0285C172.355 25.6669 172.186 24.2946 171.737 23.0034C171.064 21.0035 169.769 19.2714 168.041 18.0603C165.781 16.5037 162.998 15.903 160.297 16.389L160.862 16.8363C160.808 14.7896 160.259 12.7865 159.262 10.9987C158.173 9.13659 156.695 7.53092 154.93 6.29094C152.689 4.65421 150.027 3.6907 147.257 3.5134C144.778 3.37216 142.297 3.76549 139.983 4.66677C136.451 6.04374 133.36 8.35433 131.039 11.3517H131.462C130.815 10.2192 129.803 9.33959 128.591 8.85665C128.211 8.6265 127.785 8.48194 127.343 8.43297Z" fill="#455A64"/>
<path d="M75.4408 395.667C75.8064 395.885 76.1927 396.067 76.5942 396.208L79.9602 397.574C82.9025 398.751 87.2337 400.304 92.6005 402.07C97.9673 403.835 104.487 405.718 111.737 407.53C118.987 409.343 127.108 410.991 135.653 412.356C144.197 413.721 152.389 414.545 159.874 415.086C167.359 415.628 174.115 415.793 179.764 415.745C185.413 415.698 190.027 415.557 193.181 415.322L196.83 415.063C197.251 415.064 197.671 415.009 198.077 414.898C197.654 414.863 197.229 414.863 196.806 414.898H193.157C190.003 414.898 185.437 415.039 179.764 414.898C174.091 414.757 167.406 414.545 159.944 414.004C152.483 413.462 144.338 412.521 135.817 411.203C127.296 409.884 119.34 408.19 111.996 406.495C104.652 404.8 98.2262 402.94 92.8358 401.246C87.4455 399.551 83.0908 398.162 80.125 397.103L76.6648 395.926C76.2701 395.786 75.8585 395.698 75.4408 395.667Z" fill="#263238"/>
<path d="M184.355 163.388L155.473 158.68C155.473 158.68 153.943 170.779 134.288 171.179C111.715 171.65 95.9203 152.348 95.9203 152.348C95.9203 152.348 45.8772 166.801 36.0145 174.192C26.1518 181.583 58.3526 335.879 58.3526 335.879L61.2715 381.85C61.2715 381.85 54.7276 390.041 54.7276 398.021C54.9235 402.386 53.5171 406.672 50.7732 410.073C110.914 426.95 175.952 442.015 230.867 425.702C230.867 425.702 229.502 398.586 226.324 391.195C223.147 383.804 223.735 383.121 223.735 383.121L214.72 302.666L206.081 224.4L184.355 163.388Z" fill="#455A64"/>
<path d="M184.355 163.388C184.355 163.388 198.619 167.742 206.905 176.734C215.191 185.726 233.527 216.938 233.527 216.938L217.568 268.535L194.476 257.354L184.355 163.388Z" fill="#455A64"/>
<path d="M202.173 221.693C202.893 224.06 203.405 226.486 203.703 228.943C204.503 233.439 205.468 239.676 206.434 246.573C207.399 253.47 208.175 259.755 208.623 264.298C208.973 266.745 209.107 269.218 209.023 271.689C208.416 269.292 207.992 266.853 207.752 264.392C207.046 259.519 206.175 253.446 205.233 246.738C204.292 240.029 203.515 233.957 202.879 229.06C202.447 226.627 202.211 224.164 202.173 221.693Z" fill="#263238"/>
<path d="M121.412 271.665C121.31 273.298 120.888 274.894 120.169 276.363C119.45 277.831 118.449 279.144 117.223 280.226C115.997 281.308 114.569 282.138 113.022 282.668C111.475 283.199 109.839 283.419 108.207 283.317C106.516 283.222 104.862 282.778 103.351 282.012C101.84 281.246 100.504 280.176 99.4271 278.868C95.9905 274.631 89.7998 268.605 82.1262 268.135C70.1921 267.381 61.271 276.42 60.4236 289.931C59.5762 303.443 67.3204 313.47 79.2545 314.247C86.9516 314.718 93.8249 309.539 97.7559 305.726C99.5769 304.026 101.866 302.911 104.327 302.526C106.788 302.141 109.308 302.502 111.562 303.564C113.815 304.626 115.698 306.34 116.967 308.484C118.237 310.627 118.834 313.102 118.682 315.589L113.386 399.88L300.965 407.884L305.037 319.237C305.144 317.621 305.571 316.042 306.294 314.592C307.017 313.143 308.021 311.851 309.248 310.793C310.475 309.735 311.9 308.932 313.44 308.429C314.98 307.927 316.604 307.736 318.219 307.868C319.857 307.987 321.451 308.457 322.892 309.244C324.334 310.032 325.59 311.12 326.575 312.434C330.012 316.648 334.508 323.097 344.323 322.791C357.764 322.344 365.178 314.506 366.026 300.995C366.873 287.483 359.129 277.456 347.195 276.679C339.498 276.208 332.601 281.081 328.693 284.847C327.48 286.06 326.031 287.011 324.436 287.642C322.841 288.274 321.134 288.572 319.419 288.519C312.569 288.095 306.167 282.893 306.591 276.044L309.792 200.72L124.001 192.929L121.412 271.665Z" fill="#3780EF"/>
<path d="M30.789 178.288C30.789 178.288 18.5725 204.698 17.4191 213.266C16.4304 220.139 8.82746 307.797 8.14484 320.673C7.46222 333.548 3.17818 360.43 19.4669 369.704C30.6949 376.106 87.3052 385.263 83.9392 384.745C89.6826 373.564 81.8914 366.408 92.2013 357.04L53.7156 329.288L61.2951 235.863L30.789 178.288Z" fill="#AE7461"/>
<path d="M32.3892 342.399C34.3639 338.484 37.4189 335.217 41.1926 332.984C44.7668 330.463 48.9727 328.987 53.3385 328.723C49.3156 330.031 45.448 331.776 41.8046 333.925C38.3565 336.386 35.1979 339.228 32.3892 342.399Z" fill="#6F4439"/>
<path d="M96.6965 357.111C96.6965 357.111 102.981 351.485 107.924 350.944C112.868 350.402 119.411 351.862 120.659 351.132C121.906 350.402 124.708 347.366 126.802 349.625C128.897 351.885 131.863 360.288 121.718 363.372L114.657 363.843C115.252 367.219 116.346 370.487 117.905 373.541C119.835 376.224 145.963 404.847 145.963 404.847C145.963 404.847 149.188 407.648 147.893 410.755C146.598 413.862 140.031 412.591 140.031 412.591C138.822 413.811 137.327 414.708 135.683 415.201C134.038 415.694 132.296 415.768 130.616 415.416C127.994 414.722 125.46 413.735 123.06 412.474C121.485 413.86 119.498 414.689 117.405 414.834C115.312 414.978 113.229 414.43 111.479 413.274C105.147 409.178 79.1132 381.261 79.1132 381.261L88.5286 356.805L96.6965 357.111Z" fill="#AE7461"/>
<path d="M120.07 394.208C120.353 393.973 124.284 398.539 129.768 403.459C135.253 408.378 140.337 411.697 140.125 411.98C138.874 411.541 137.704 410.896 136.665 410.073C133.98 408.347 131.431 406.419 129.038 404.306C126.659 402.174 124.433 399.877 122.377 397.433C121.449 396.481 120.671 395.394 120.07 394.208Z" fill="#6F4439"/>
<path d="M108.561 401.034C108.82 400.775 111.715 403.812 115.881 406.73C118.602 408.304 121.044 410.316 123.108 412.686C120.371 411.194 117.744 409.511 115.246 407.648C112.568 405.95 110.288 403.694 108.561 401.034Z" fill="#6F4439"/>
<path d="M0 271.242L57.1989 282.14L73.8408 229.084L60.2354 166.024C60.2354 166.024 29.7999 167.13 19.796 192.034C9.79208 216.938 0 271.242 0 271.242Z" fill="#455A64"/>
<path d="M286.913 210.512C286.913 210.512 293.669 209.029 290.326 194.835C288.231 185.938 282.747 191.069 282.747 191.069C282.116 190.437 281.342 189.967 280.49 189.699C279.639 189.431 278.735 189.373 277.856 189.53C276.977 189.688 276.149 190.055 275.443 190.602C274.737 191.149 274.174 191.858 273.802 192.67L273.049 191.799C273.049 191.799 268.929 184.878 262.998 191.516C261.824 190.995 260.519 190.843 259.257 191.083C257.995 191.323 256.837 191.942 255.936 192.858C253.064 196.154 257.725 203.592 257.725 203.592C257.725 203.592 258.69 214.514 261.609 214.937C262.504 215.073 263.418 214.9 264.201 214.447C264.984 213.993 265.589 213.286 265.916 212.442C266.221 209.888 266.355 207.317 266.317 204.745C266.317 204.745 267.093 214.278 269.024 215.032C272.484 216.326 275.85 215.691 274.602 204.157C274.602 204.157 275.403 212.748 277.262 213.572C279.122 214.396 281.829 213.031 283.053 209.829C283.786 207.944 284.06 205.91 283.853 203.898C283.853 203.898 282.747 212.066 286.913 210.512Z" fill="#AE7461"/>
<path d="M282.793 191.493C282.668 194.094 282.763 196.7 283.075 199.284C283.022 201.89 283.179 204.496 283.546 207.076C284.231 204.523 284.423 201.862 284.111 199.237C284.141 196.598 283.694 193.974 282.793 191.493Z" fill="#6F4439"/>
<path d="M273.518 192.529C273.539 194.988 273.735 197.442 274.107 199.873C274.139 202.327 274.367 204.775 274.789 207.193C275.691 202.28 275.252 197.214 273.518 192.529Z" fill="#6F4439"/>
<path d="M262.549 191.375C262.29 191.516 263.938 194.67 264.903 198.884C265.868 203.097 265.868 206.628 266.174 206.652C266.812 204.009 266.723 201.244 265.915 198.648C265.46 195.968 264.298 193.457 262.549 191.375Z" fill="#6F4439"/>
<path d="M59.0351 218.303C59.1944 219.141 59.2654 219.993 59.2469 220.845C59.2469 222.493 59.2469 224.894 59.2469 227.907C59.2469 233.792 59.0822 242.03 58.7526 250.928C58.4231 259.825 58.1406 267.734 57.9052 273.925C57.7875 276.656 57.6934 278.986 57.6227 280.987C57.6448 281.851 57.5498 282.714 57.3403 283.552C57.1824 282.707 57.1114 281.847 57.1285 280.987C57.1285 279.339 57.1285 276.962 57.1285 273.925C57.1285 268.04 57.2932 259.802 57.6227 250.904C57.9523 242.007 58.2348 234.098 58.4702 227.907C58.5879 225.176 58.682 222.846 58.7526 220.845C58.7261 219.989 58.8212 219.133 59.0351 218.303Z" fill="#263238"/>
</svg>
