<svg width="54" height="40" viewBox="0 0 54 40" fill="none" xmlns="http://www.w3.org/2000/svg">
<path d="M47.5008 32.5602C47.5008 32.5602 57.5566 30.3528 52.5813 9.22524C49.4629 -4.01891 41.2991 3.61923 41.2991 3.61923C40.3605 2.67823 39.2083 1.97849 37.9405 1.57962C36.6728 1.18075 35.3272 1.09466 34.0189 1.32877C32.7107 1.56288 31.4785 2.11013 30.4277 2.92389C29.377 3.73765 28.5389 4.79378 27.9849 6.00186L26.8637 4.70538C26.8637 4.70538 20.7323 -5.59561 11.9028 4.28495C10.1558 3.50813 8.21311 3.28319 6.33478 3.64008C4.45644 3.99696 2.73197 4.91869 1.3916 6.28211C-2.88297 11.1874 4.05426 22.2592 4.05426 22.2592C4.05426 22.2592 5.49088 38.5166 9.83553 39.1473C11.1673 39.3499 12.5286 39.0924 13.6943 38.4172C14.86 37.7419 15.7606 36.6894 16.2474 35.4333C16.7009 31.6317 16.8999 27.8041 16.843 23.976C16.843 23.976 17.9993 38.1662 20.8724 39.2874C26.0229 41.2145 31.0333 40.2684 29.1763 23.1C29.1763 23.1 30.3676 35.8887 33.1355 37.115C35.9035 38.3413 39.9326 36.3092 41.7546 31.5441C42.8462 28.737 43.2547 25.7106 42.946 22.7147C42.946 22.7147 41.2991 34.8727 47.5008 32.5602Z" fill="#AE7461"/>
<path d="M41.3695 4.25061C41.1843 8.12136 41.325 12.0008 41.7899 15.848C41.7104 19.7264 41.9448 23.6048 42.4907 27.4454C43.5112 23.6452 43.7966 19.6851 43.3316 15.7779C43.3764 11.8487 42.7117 7.9437 41.3695 4.25061Z" fill="#6F4439"/>
<path d="M27.5645 5.79187C27.5947 9.45202 27.8875 13.1054 28.4404 16.7236C28.4876 20.3772 28.8273 24.021 29.4564 27.6202C30.7985 20.3063 30.145 12.7658 27.5645 5.79187Z" fill="#6F4439"/>
<path d="M11.2368 4.0752C10.8514 4.28542 13.3041 8.98045 14.7406 15.2521C16.1771 21.5239 16.177 26.7794 16.6325 26.8145C17.5828 22.8817 17.4497 18.7649 16.2472 14.9018C15.5703 10.9113 13.8407 7.17384 11.2368 4.0752Z" fill="#6F4439"/>
</svg>
