<svg width="581" height="450" viewBox="0 0 581 450" fill="none" xmlns="http://www.w3.org/2000/svg">
<path d="M580.776 448.279C580.776 448.624 465.826 448.876 324.054 448.876C182.283 448.876 67.4473 448.624 67.4473 448.279C67.4473 447.935 182.374 447.683 324.169 447.683C465.964 447.683 580.776 447.935 580.776 448.279Z" fill="#263238"/>
<path d="M297.164 101.686L305.103 84.386C299.467 70.1828 299.346 54.3851 304.765 40.0975C310.184 25.8099 320.751 14.0658 334.389 7.17303C348.027 0.280296 363.75 -1.26255 378.467 2.84769C393.185 6.95794 405.833 16.4241 413.926 29.3857C422.019 42.3473 424.972 57.8672 422.204 72.8951C419.436 87.9231 411.147 101.372 398.967 110.6C386.787 119.827 371.596 124.166 356.38 122.763C341.164 121.36 327.023 114.316 316.736 103.017L297.164 101.686Z" fill="white"/>
<path d="M297.164 101.686H298.495L302.281 101.892L316.782 102.718L316.506 103.131C316.474 103.067 316.468 102.993 316.489 102.924C316.51 102.856 316.558 102.798 316.621 102.764C316.67 102.725 316.731 102.704 316.793 102.704C316.856 102.704 316.916 102.725 316.965 102.764C323.803 110.189 332.371 115.809 341.905 119.123C352.336 122.734 363.554 123.433 374.352 121.145C385.15 118.857 395.12 113.668 403.189 106.137C413.461 96.621 420.105 83.8305 421.985 69.955C423.864 56.0796 420.862 41.9823 413.491 30.077L411.472 26.9337L409.178 23.9969C407.651 22.0659 406.012 20.2271 404.268 18.4902C394.31 8.82948 381.346 2.86761 367.531 1.59569C353.716 0.323762 339.881 3.8184 328.327 11.4987C316.773 19.1789 308.196 30.5822 304.021 43.8128C299.846 57.0435 300.325 71.3045 305.378 84.2252V84.4545C302.763 89.9611 300.79 94.2288 299.367 97.1656L297.761 100.493C297.394 101.25 297.187 101.64 297.187 101.64C297.187 101.64 297.325 101.296 297.646 100.561L299.092 97.2574C300.423 94.2288 302.373 89.8694 304.874 84.2252V84.4316C301.042 74.9865 299.646 64.73 300.813 54.6043C302.693 38.8528 310.545 24.4231 322.75 14.289C334.954 4.15498 350.581 -0.911136 366.41 0.134934C380.986 1.24799 394.717 7.4154 405.231 17.5725C407.011 19.3425 408.682 21.2198 410.233 23.1938L412.527 26.1765L414.569 29.3887C420.414 38.8085 423.608 49.6308 423.816 60.7145C424.023 71.7982 421.236 82.7325 415.748 92.3644C410.26 101.996 402.275 109.969 392.634 115.442C382.994 120.914 372.055 123.684 360.972 123.46C354.355 123.379 347.797 122.208 341.561 119.995C331.941 116.571 323.328 110.798 316.506 103.2L316.965 102.879C316.999 102.946 317.006 103.024 316.985 103.096C316.963 103.169 316.915 103.23 316.85 103.269H316.69L302.029 102.099L298.335 101.777C297.943 101.778 297.551 101.747 297.164 101.686Z" fill="#263238"/>
<path d="M360.099 88.034L327.931 66.5353L335.457 55.2927L357.025 69.7245L383.869 34.207L394.63 42.3522L360.099 88.034Z" fill="#3780EF"/>
<path d="M136.28 110.06C131.309 100.211 127.187 89.9562 123.959 79.4066C120.747 68.7952 120.226 57.551 122.445 46.6883C122.812 45.0593 126.414 34.0002 128.089 33.9543C129.282 33.9543 127.493 44.0268 128.204 44.9905C135.087 54.0304 138.208 65.6402 138.735 76.9746C139.146 88.0599 138.323 99.1566 136.28 110.06Z" fill="#263238"/>
<path d="M209.081 195.55C208.186 187.818 203.872 149.134 203.941 149.134C204.01 149.134 230.097 143.054 228.491 116.576C227.711 103.773 223.903 77.5713 220.277 53.8471C218.389 41.5457 211.935 30.4073 202.202 22.6514C192.469 14.8954 180.171 11.0913 167.758 11.997L165.212 12.1806C137.679 15.8287 125.541 41.136 129.946 68.4625L149.793 195.55L196.507 193.255L209.081 195.55Z" fill="#FFBF9D"/>
<path d="M203.943 149.019C191.712 149.885 179.489 147.226 168.724 141.356C168.724 141.356 178.429 160.399 204.677 156.063L203.943 149.019Z" fill="#FF9A6C"/>
<path d="M212.363 78.5348C212.447 79.5178 212.144 80.4948 211.518 81.2576C210.893 82.0204 209.994 82.5088 209.013 82.6189C208.535 82.6966 208.045 82.6767 207.574 82.5606C207.103 82.4445 206.66 82.2344 206.273 81.943C205.885 81.6516 205.56 81.2849 205.317 80.8648C205.074 80.4447 204.919 79.9801 204.861 79.4985C204.771 78.5142 205.072 77.5341 205.698 76.7699C206.325 76.0057 207.228 75.5188 208.21 75.4145C208.689 75.3367 209.179 75.3565 209.65 75.4726C210.121 75.5888 210.564 75.7989 210.951 76.0903C211.339 76.3817 211.664 76.7484 211.907 77.1685C212.149 77.5885 212.305 78.0533 212.363 78.5348Z" fill="#263238"/>
<path d="M215.415 65.1355C214.979 65.6632 211.973 63.7588 207.912 64.0571C203.851 64.3554 201.029 66.6268 200.524 66.1679C200.02 65.709 200.708 65.0208 201.924 63.9883C203.601 62.6402 205.651 61.8393 207.798 61.6939C209.913 61.5355 212.025 62.0494 213.832 63.1622C215.14 64.0341 215.644 64.8831 215.415 65.1355Z" fill="#263238"/>
<path d="M175.423 83.1237C175.506 84.1103 175.2 85.0903 174.57 85.8538C173.939 86.6172 173.035 87.1033 172.05 87.2077C171.573 87.2788 171.087 87.2541 170.62 87.1351C170.153 87.0161 169.715 86.8052 169.33 86.5146C168.945 86.2241 168.623 85.8597 168.381 85.443C168.139 85.0262 167.982 84.5654 167.92 84.0874C167.83 83.1031 168.131 82.123 168.758 81.3588C169.385 80.5946 170.287 80.1077 171.27 80.0033C171.749 79.9256 172.238 79.9454 172.709 80.0615C173.18 80.1776 173.623 80.3878 174.011 80.6792C174.399 80.9706 174.724 81.3373 174.966 81.7573C175.209 82.1774 175.364 82.6421 175.423 83.1237Z" fill="#263238"/>
<path d="M175.699 69.7013C175.263 70.229 172.234 68.3246 168.173 68.6459C164.112 68.9671 161.29 71.1927 160.785 70.7338C160.28 70.2749 160.969 69.6095 162.208 68.577C163.868 67.2147 165.915 66.4117 168.059 66.2826C170.176 66.1064 172.293 66.6216 174.093 67.751C175.424 68.6229 175.905 69.4718 175.699 69.7013Z" fill="#263238"/>
<path d="M192.585 99.8957C194.678 99.0668 196.868 98.5041 199.101 98.2208C200.134 98.0372 201.097 97.7619 201.235 97.0277C201.231 95.9503 200.912 94.8976 200.317 93.9991L196.646 86.3128C191.553 75.3685 187.79 66.3285 188.226 66.1449C188.662 65.9614 193.159 74.6572 198.252 85.6015L201.786 93.3337C202.533 94.5389 202.833 95.9679 202.635 97.3718C202.508 97.7499 202.298 98.0947 202.02 98.3806C201.742 98.6666 201.403 98.8864 201.029 99.0238C200.466 99.2212 199.88 99.3446 199.285 99.3909C197.082 99.842 194.831 100.012 192.585 99.8957Z" fill="#263238"/>
<path d="M211.697 48.0192C211.101 49.0288 208.21 48.4092 204.814 48.7534C201.418 49.0975 198.688 50.0842 197.931 49.2123C197.587 48.7764 197.931 47.7898 199.055 46.7802C200.595 45.5209 202.486 44.7677 204.47 44.6235C206.447 44.4252 208.437 44.8504 210.16 45.8395C211.468 46.6426 211.995 47.5374 211.697 48.0192Z" fill="#263238"/>
<path d="M175.789 60.34C175.124 61.3037 172.256 60.5236 168.906 60.6842C165.556 60.8448 162.711 61.6937 162.023 60.6842C161.702 60.2482 162.023 59.2846 163.285 58.3898C164.88 57.2074 166.806 56.5572 168.792 56.5313C170.777 56.4414 172.741 56.9706 174.413 58.0456C175.629 58.9404 176.065 59.8582 175.789 60.34Z" fill="#263238"/>
<path d="M133.55 87.896C133.091 87.7354 114.965 83.8579 116.869 101.915C118.774 119.972 138.253 114.993 138.23 114.465C138.207 113.938 133.55 87.896 133.55 87.896Z" fill="#FFBF9D"/>
<path d="M130.246 107.559C130.246 107.559 129.971 107.812 129.466 108.11C128.762 108.483 127.947 108.589 127.171 108.408C125.198 107.904 123.271 105.036 122.835 101.8C122.627 100.259 122.768 98.691 123.248 97.2117C123.356 96.6267 123.605 96.0766 123.972 95.609C124.34 95.1414 124.816 94.7701 125.359 94.5272C125.711 94.3963 126.097 94.3911 126.452 94.5123C126.808 94.6336 127.11 94.8739 127.309 95.1926C127.607 95.6744 127.516 96.0645 127.63 96.0645C127.745 96.0645 127.974 95.7202 127.63 95.009C127.488 94.5706 127.196 94.1968 126.804 93.9536C126.54 93.7887 126.245 93.6792 125.938 93.6319C125.63 93.5846 125.316 93.6003 125.015 93.6783C124.289 93.9008 123.633 94.3071 123.11 94.8578C122.587 95.4086 122.216 96.085 122.032 96.8216C121.428 98.4631 121.231 100.227 121.458 101.961C121.963 105.586 124.189 108.844 126.873 109.28C127.376 109.366 127.891 109.341 128.382 109.206C128.874 109.071 129.33 108.83 129.718 108.5C130.269 107.995 130.315 107.582 130.246 107.559Z" fill="#FF9A6C"/>
<path d="M205.113 25.1898C207.843 23.2396 198 14.7962 190.451 12.3641C178.979 8.67008 162.138 7.54578 152.456 11.5381C140.823 16.3334 131.508 23.469 126.713 35.1017C122.178 46.9286 120.864 59.7472 122.904 72.2482C123.199 76.1019 124.513 79.8077 126.713 82.986C129.695 86.68 134.812 88.6303 135.225 94.1598C135.326 96.1875 136.225 98.0928 137.726 99.4599C141.443 102.58 145.091 98.8175 146.582 95.307C149.725 87.7813 149.198 79.2462 148.624 71.1698C148.528 65.364 147.481 59.6131 145.527 54.1453C144.288 51.2314 142.544 48.547 141.489 45.5872C140.857 44.1328 140.55 42.5581 140.59 40.973C140.629 39.3879 141.014 37.8305 141.718 36.4095C142.104 35.821 142.541 35.2681 143.026 34.7576C145.285 32.2726 148.167 30.4353 151.373 29.4351C154.58 28.4349 157.995 28.3079 161.266 29.0674C171.844 31.4995 189.809 34.8722 193.939 30.9029C199.904 25.1898 201.074 21.7252 201.074 21.7252L205.113 25.1898Z" fill="#263238"/>
<path d="M195.454 110.771C195.247 110.129 192.035 110.771 188.685 109.349C185.336 107.926 183.5 105.288 182.881 105.586C182.605 105.724 182.674 106.664 183.408 107.88C184.447 109.525 185.97 110.808 187.768 111.552C189.563 112.293 191.547 112.445 193.435 111.987C194.857 111.689 195.569 111.07 195.454 110.771Z" fill="#263238"/>
<path d="M147.753 65.1353C143.427 65.673 139.046 65.588 134.744 64.8829C127.608 64.1487 121.941 62.5885 122.055 62.1067C122.17 61.6249 127.791 62.9557 134.881 63.7128C141.971 64.47 147.753 64.7682 147.753 65.1353Z" fill="#EBEBEB"/>
<path d="M105.535 288.955L66.2548 286.936L103.516 256.099L73.6887 201.033C73.6887 201.033 11.2348 274.065 5.79704 284.458C-0.283152 296.114 -5.44558 315.043 11.3954 324.312C23.0969 330.736 115.585 330.071 115.585 330.071L105.535 288.955Z" fill="#FFBF9D"/>
<path d="M158.926 433.756V448.279L272.935 449.954L276.009 402.85L158.926 433.756Z" fill="#263238"/>
<path d="M263.345 162.855C263.345 162.855 339.405 229.255 340.598 227.649C341.791 226.043 365.722 162.855 365.722 162.855L409.086 163.727C409.086 163.727 386.142 259.495 372.054 272.092C357.966 284.688 342.227 280.604 331.42 278.47C320.613 276.336 268.209 228.222 268.209 228.222L263.345 162.855Z" fill="#FFBF9D"/>
<path d="M146.009 161.616L85.0465 182.265L98.3541 231.159L125.176 309.858L156.586 434.352L333.118 389.657L282.641 232.995L263.368 162.878L246.871 156.774L217.044 161.363L206.811 160.629C206.811 160.629 209.243 173.501 185.175 174.395C170.697 174.9 146.009 161.616 146.009 161.616Z" fill="#E0E0E0"/>
<path d="M278.535 248.321L300.01 261.743L324.262 209.408C324.262 209.408 277.02 160.904 261.579 157.623C246.138 154.342 240.516 159.137 240.516 159.137L278.535 248.321Z" fill="#E0E0E0"/>
<path d="M83.3028 285.192L29.2465 248.665C29.2465 248.665 65.1081 200.483 70.2017 194.586C74.5613 189.339 79.939 185.031 86.0102 181.921L108.151 259.426L83.3028 285.192Z" fill="#E0E0E0"/>
<path d="M93.6267 214.938C93.3972 214.938 98.6285 231.71 105.282 252.222C111.936 272.734 117.489 289.3 117.695 289.231C117.902 289.162 112.693 272.482 106.039 251.969C99.3856 231.457 93.8331 214.869 93.6267 214.938Z" fill="#263238"/>
<path d="M278.533 309.169L226.863 308.94V320.205L227.506 449.381L367.465 449.931L367.694 399.11C367.694 394.521 372.604 391.171 377.79 391.102C380.36 391.087 382.833 392.084 384.673 393.879C388.299 397.534 393.16 399.702 398.302 399.959C400.352 400.006 402.39 399.624 404.284 398.837C406.178 398.05 407.886 396.875 409.299 395.388C410.713 393.902 411.799 392.136 412.489 390.205C413.179 388.273 413.458 386.219 413.307 384.173C413.147 374.996 407.846 369.512 397.774 368.801C390.409 368.273 386.784 372.472 384.007 375.202C383.171 376.074 382.171 376.772 381.065 377.256C379.959 377.74 378.768 378.001 377.56 378.024C376.401 378.122 375.234 377.989 374.127 377.634C373.019 377.28 371.992 376.71 371.106 375.957C370.219 375.205 369.489 374.284 368.959 373.249C368.429 372.214 368.108 371.084 368.015 369.925V310.064H346.012L311.596 309.72C309.248 309.8 306.964 308.947 305.244 307.348C303.524 305.748 302.508 303.532 302.418 301.185C302.44 300.013 302.724 298.861 303.248 297.813C303.772 296.765 304.523 295.848 305.447 295.127C308.498 292.672 312.812 288.244 312.904 283.128C313.041 275.051 306.02 269.361 295.764 269.2C285.508 269.04 278.304 274.592 278.166 282.646C278.166 287.854 282.227 292.328 285.21 294.852C286.108 295.603 286.828 296.544 287.316 297.608C287.804 298.671 288.049 299.831 288.032 301.001C287.833 303.335 286.727 305.497 284.951 307.025C283.175 308.552 280.871 309.322 278.533 309.169Z" fill="#455A64"/>
<path d="M453.345 309.949C450.991 309.798 448.672 310.579 446.889 312.125C445.107 313.671 444.006 315.857 443.824 318.209C443.812 319.381 444.061 320.541 444.553 321.605C445.045 322.668 445.768 323.609 446.669 324.358C449.628 326.882 453.804 331.356 453.712 336.565C453.575 344.618 446.279 350.17 436.114 350.01C425.95 349.849 418.837 344.159 418.975 336.083C418.975 330.897 423.357 326.538 426.409 324.083C427.332 323.36 428.085 322.443 428.612 321.396C429.14 320.349 429.429 319.198 429.461 318.026C429.415 316.082 428.708 314.211 427.457 312.722C426.206 311.233 424.485 310.215 422.577 309.835L379.58 309.995L368.108 310.156L368.016 369.925C368.204 372.258 369.309 374.422 371.09 375.94C372.871 377.459 375.182 378.208 377.515 378.025C378.723 378.002 379.914 377.74 381.02 377.256C382.126 376.772 383.126 376.074 383.962 375.202C386.67 372.472 390.295 368.319 397.729 368.801C407.801 369.512 413.101 375.042 413.262 384.174C413.413 386.219 413.134 388.274 412.444 390.205C411.754 392.136 410.667 393.902 409.254 395.389C407.841 396.875 406.133 398.05 404.239 398.837C402.345 399.624 400.307 400.006 398.257 399.959C393.114 399.702 388.254 397.534 384.628 393.879C382.788 392.085 380.315 391.087 377.745 391.103C373.018 391.103 368.567 393.925 367.764 397.986C367.836 398.372 367.874 398.763 367.879 399.156L367.42 450L507.975 449.45L506.323 310.271L453.345 309.949Z" fill="#3780EF"/>
<path d="M452.68 310.5L506.323 310.179V299.464L505.68 170.311L367.557 169.761L367.305 220.582C367.305 225.171 362.463 228.521 357.347 228.589C354.827 228.58 352.408 227.593 350.601 225.836C347.049 222.179 342.247 219.999 337.156 219.733C328.277 219.871 322.196 226.387 322.334 235.519C322.472 244.65 327.726 250.18 337.684 250.914C344.957 251.442 348.513 247.22 351.221 244.49C352.034 243.62 353.013 242.922 354.101 242.437C355.189 241.952 356.363 241.691 357.553 241.668C359.874 241.497 362.168 242.254 363.932 243.772C365.695 245.29 366.784 247.446 366.96 249.767L368.085 310.087H388.734H419.984C421.148 310.041 422.31 310.226 423.402 310.63C424.494 311.035 425.496 311.652 426.349 312.445C427.202 313.238 427.89 314.192 428.372 315.253C428.855 316.313 429.123 317.458 429.162 318.622C429 319.817 428.587 320.964 427.95 321.988C427.313 323.012 426.467 323.89 425.468 324.565C423.571 326.011 421.997 327.837 420.847 329.928C419.697 332.018 418.997 334.325 418.791 336.702C418.653 344.755 425.674 350.469 435.724 350.629C445.773 350.79 453.62 345.008 453.758 336.863C453.758 331.654 449.674 326.836 446.737 324.312C445.849 323.63 445.132 322.75 444.642 321.742C444.152 320.735 443.903 319.627 443.915 318.507C443.937 317.397 444.185 316.303 444.643 315.292C445.101 314.28 445.76 313.372 446.579 312.623C447.399 311.875 448.363 311.3 449.411 310.935C450.46 310.57 451.572 310.422 452.68 310.5Z" fill="#455A64"/>
<g opacity="0.3">
<path d="M283.123 240.245C282.787 239.123 282.233 238.079 281.492 237.173C280.751 236.267 279.839 235.516 278.807 234.964C277.774 234.411 276.643 234.069 275.478 233.955C274.313 233.842 273.137 233.959 272.018 234.302C270.861 234.617 269.782 235.17 268.85 235.924C267.918 236.678 267.153 237.618 266.603 238.684C264.722 242.126 262.336 247.243 255.131 248.459C245.357 250.134 238.91 245.797 236.455 236.597C234 227.396 238.198 219.274 246.711 217.002C251.742 216.049 256.947 217.103 261.211 219.939C263.364 221.266 265.954 221.687 268.416 221.109C273.326 219.801 277.226 215.281 275.987 210.601L267.062 174.166L263.208 159.068L128.617 193.485L163.171 334.132L213.075 322.476C215.406 321.963 217.445 320.562 218.76 318.57C220.075 316.578 220.562 314.152 220.119 311.807C219.843 310.628 219.318 309.522 218.577 308.564C217.837 307.606 216.899 306.819 215.828 306.255C212.34 304.419 207.178 300.886 205.939 295.586C204.035 287.395 209.633 280.03 219.476 277.712C229.319 275.395 237.625 279.479 239.529 287.693C240.768 292.97 237.717 298.431 235.399 301.643C234.692 302.626 234.204 303.749 233.966 304.936C233.729 306.123 233.748 307.347 234.023 308.526C234.512 310.446 235.635 312.144 237.208 313.347C238.782 314.55 240.715 315.188 242.696 315.157L287.643 303.685L298.197 300.886L283.123 240.245Z" fill="black"/>
</g>
<g opacity="0.3">
<path d="M366.755 169.875C376.437 165.883 386.716 174.074 396.399 170.082C397.794 169.305 399.416 169.037 400.987 169.325C401.844 169.719 402.593 170.316 403.168 171.063C403.744 171.81 404.129 172.686 404.291 173.615C404.906 176.149 404.982 178.783 404.516 181.347C404.049 183.912 403.051 186.351 401.584 188.506C398.596 192.813 394.395 196.135 389.515 198.051C385.686 199.821 381.38 200.28 377.263 199.358C370.311 197.385 366.663 177.194 366.755 169.875Z" fill="black"/>
</g>
<path d="M364.872 163.428C366.29 162.641 367.435 161.44 368.153 159.987C369.278 156.889 377.882 155.398 377.882 155.398C379.242 154.643 380.652 153.984 382.103 153.425C384.398 152.621 388.987 155.834 388.987 155.834C393.92 153.103 395.434 154.503 398.394 156.43C399.664 157.112 400.863 157.919 401.973 158.839C402.252 158.52 402.615 158.285 403.02 158.159C403.425 158.034 403.857 158.023 404.267 158.128C405.6 158.306 406.85 158.87 407.866 159.751C408.881 160.632 409.616 161.79 409.981 163.084C411.324 167.051 412.239 171.151 412.711 175.313C412.573 178.801 408.122 187.359 408.122 187.359C408.122 187.359 404.222 189.791 401.675 188.667C399.128 187.542 402.042 179.696 402.042 179.696L399.862 169.072C399.862 169.072 396.26 192.269 394.47 194.999C392.681 197.73 386.945 197.294 386.945 197.294C381.232 202.204 378.524 197.913 378.524 197.913C378.524 197.913 377.813 198.693 375.289 197.569C372.765 196.445 368.245 169.761 368.245 169.761L360.559 170.701C360.606 169.224 361.026 167.782 361.781 166.51C362.535 165.239 363.598 164.178 364.872 163.428Z" fill="#FFBF9D"/>
<path d="M390.708 162.946C390.612 163.4 390.543 163.86 390.501 164.323C390.501 165.286 390.272 166.617 390.111 168.04C389.813 171.183 389.423 175.542 389.033 180.338C388.846 184.438 388.402 188.522 387.702 192.567C387.444 193.783 387.099 194.979 386.67 196.146C386.485 196.565 386.324 196.994 386.188 197.431C386.188 197.431 386.188 197.431 386.394 197.133C386.601 196.834 386.67 196.628 386.853 196.215C387.362 195.067 387.769 193.877 388.069 192.659C388.865 188.609 389.356 184.506 389.538 180.384C389.951 175.565 390.272 171.206 390.478 168.063L390.708 164.323C390.766 163.866 390.766 163.403 390.708 162.946Z" fill="#FF9A6C"/>
<path d="M379.488 162.9C379.384 163.36 379.33 163.829 379.328 164.3C379.328 165.279 379.259 166.541 379.121 168.086C378.961 171.275 378.777 175.703 378.593 180.59C378.41 185.477 378.295 189.768 378.226 193.095C378.226 194.609 378.226 195.894 378.226 196.881C378.178 197.346 378.178 197.815 378.226 198.28C378.33 197.821 378.384 197.352 378.387 196.881C378.387 195.886 378.456 194.624 378.593 193.095C378.754 189.906 378.938 185.477 379.121 180.59C379.305 175.703 379.419 171.298 379.488 168.086C379.488 166.571 379.488 165.287 379.488 164.3C379.537 163.835 379.537 163.366 379.488 162.9Z" fill="#FF9A6C"/>
<path d="M128.479 289.391L55.4254 287.074L45.9036 328.442L124.235 331.264L128.479 289.391Z" fill="#FFBF9D"/>
<path d="M22.6829 283.541C22.6829 283.678 25.2297 283.357 29.3137 283.334C34.6841 283.39 40.0468 283.757 45.3746 284.435L61.2749 286.546C63.3169 286.799 64.9689 286.982 66.1161 287.074C66.7096 287.159 67.3122 287.159 67.9057 287.074C67.3389 286.891 66.7545 286.768 66.162 286.707L61.3437 285.927C57.3055 285.284 51.7072 284.344 45.4664 283.632C40.1413 282.949 34.7732 282.657 29.4055 282.76C28.3959 282.76 27.4552 282.875 26.6293 282.944C25.8033 283.013 25.1149 283.082 24.5413 283.173C23.9079 283.21 23.2825 283.333 22.6829 283.541Z" fill="#FF9A6C"/>
<path d="M277.271 234.555C276.939 233.433 276.386 232.387 275.645 231.48C274.905 230.573 273.991 229.822 272.958 229.271C271.924 228.721 270.792 228.381 269.626 228.272C268.46 228.162 267.284 228.286 266.167 228.636C265.012 228.95 263.936 229.502 263.007 230.257C262.079 231.011 261.318 231.952 260.775 233.018C258.87 236.437 256.507 241.553 249.303 242.792C239.528 244.467 233.081 240.131 230.603 230.907C228.125 221.684 232.347 213.607 240.882 211.336C245.911 210.378 251.115 211.424 255.383 214.25C256.445 214.916 257.628 215.365 258.865 215.57C260.102 215.775 261.367 215.732 262.587 215.443C267.474 214.135 271.398 209.592 270.136 204.911L261.188 168.476L257.333 153.379L122.72 187.795L157.297 328.443L207.177 316.764C209.512 316.256 211.557 314.857 212.877 312.864C214.197 310.872 214.687 308.443 214.244 306.095C213.969 304.919 213.443 303.816 212.702 302.862C211.962 301.908 211.024 301.124 209.953 300.565C206.443 298.707 201.304 295.174 200.065 289.896C198.137 281.705 203.759 274.317 213.602 272C223.445 269.683 231.727 273.79 233.655 281.981C234.894 287.281 231.842 292.741 229.525 295.954C228.81 296.933 228.315 298.054 228.073 299.242C227.831 300.43 227.849 301.656 228.125 302.837C228.626 304.75 229.751 306.441 231.322 307.643C232.893 308.844 234.82 309.486 236.798 309.468L281.769 297.996L292.323 295.196L277.271 234.555Z" fill="#3780EF"/>
<path d="M106.017 300.863L125.91 274.179L141.558 262.524L141.718 270.554C141.718 270.554 172.67 267.434 177.167 268.512C179.897 269.177 183.867 276.864 177.809 278.608C179.252 279.209 180.539 280.131 181.572 281.304C182.606 282.477 183.359 283.869 183.775 285.376C184.715 290.148 182.329 292.397 176.662 294.232C176.662 294.232 182.995 297.582 181.71 301.735C181.18 303.064 180.378 304.268 179.354 305.268C178.331 306.268 177.109 307.042 175.767 307.54C175.767 307.54 179.163 313.941 176.089 316.328C170.881 319.721 165.198 322.319 159.225 324.037L138.437 328.167L125.428 331.884L106.017 300.863Z" fill="#FFBF9D"/>
<path d="M159.224 282.738C159.224 283.151 163.561 282.577 168.7 281.453C173.84 280.328 177.878 279.158 177.878 278.699C177.878 278.24 173.541 278.883 168.402 279.984C163.263 281.086 159.224 282.21 159.224 282.738Z" fill="#FF9A6C"/>
<path d="M161.518 297.651C161.518 298.064 165.006 297.651 169.159 296.848C173.312 296.045 176.57 294.99 176.501 294.554C176.432 294.118 172.99 294.554 168.86 295.357C164.73 296.16 161.518 297.261 161.518 297.651Z" fill="#FF9A6C"/>
<path d="M163.102 310.271C163.263 310.706 166.085 309.858 169.481 309.009C172.876 308.16 175.767 307.93 175.767 307.494C175.767 307.058 172.762 306.668 169.136 307.494C166.907 307.843 164.818 308.804 163.102 310.271Z" fill="#FF9A6C"/>
<path d="M138.046 271.954C138.046 272.367 142.291 271.747 147.407 270.898C152.524 270.05 156.585 269.315 156.585 268.879C156.585 268.443 152.294 268.558 147.155 269.43C142.015 270.302 137.954 271.564 138.046 271.954Z" fill="#FF9A6C"/>
</svg>
