<svg width="103" height="32" viewBox="0 0 103 32" fill="none" xmlns="http://www.w3.org/2000/svg">
<path d="M35.1148 10.3003H38.3114C39.2922 10.3003 40.1409 10.1188 40.857 9.75578C41.573 9.39241 42.1278 8.88424 42.5227 8.2293C42.9176 7.57515 43.1149 6.81842 43.1149 5.96029C43.1149 5.09151 42.9176 4.33241 42.5227 3.68299C42.1278 3.03397 41.573 2.52817 40.857 2.16519C40.1409 1.80182 39.2922 1.62033 38.3114 1.62033H35.1148V10.3003ZM33.5366 11.8784V0.0421619H38.6495C39.9432 0.0421619 41.0842 0.290329 42.0721 0.786268C43.0601 1.28221 43.8282 1.97542 44.3774 2.8659C44.9259 3.75638 45.2005 4.78771 45.2005 5.96029C45.2005 7.13287 44.9259 8.1642 44.3774 9.05468C43.8282 9.94556 43.0601 10.6384 42.0721 11.1347C41.0842 11.631 39.9432 11.8784 38.6495 11.8784H33.5366Z" fill="#3780EF"/>
<path d="M47.7407 0.0421619H49.3189V11.8784H47.7407V0.0421619Z" fill="#3780EF"/>
<path d="M61.1535 10.2954V5.96017H62.7316V10.512L61.1535 10.2954ZM58.3057 11.9395C57.3828 11.9395 56.5342 11.7923 55.7593 11.4976C54.984 11.2028 54.3121 10.7862 53.7424 10.2469C53.1723 9.70753 52.728 9.07705 52.4092 8.35425C52.0901 7.63184 51.9307 6.83645 51.9307 5.96964C51.9307 5.10283 52.0901 4.30783 52.4092 3.58503C52.728 2.86262 53.1754 2.23215 53.7511 1.69241C54.3259 1.15347 55.001 0.736437 55.7763 0.441714C56.5507 0.147386 57.4053 -0.000172615 58.34 -0.000172615C59.2857 -0.000172615 60.1513 0.150148 60.9377 0.450395C61.724 0.750641 62.3904 1.20042 62.9372 1.80091L61.8775 2.83461C61.3878 2.36787 60.8548 2.02619 60.2796 1.8092C59.7043 1.5922 59.0806 1.48409 58.4083 1.48409C57.7245 1.48409 57.0893 1.59536 56.5026 1.81788C55.9155 2.04 55.4086 2.3513 54.9813 2.75136C54.554 3.15182 54.2237 3.62725 53.9902 4.17684C53.7566 4.72762 53.6398 5.32496 53.6398 5.96964C53.6398 6.60327 53.7566 7.19548 53.9902 7.74547C54.2237 8.29586 54.554 8.77404 54.9813 9.17963C55.4086 9.58562 55.9128 9.89967 56.4939 10.1222C57.0751 10.3439 57.7075 10.4552 58.3913 10.4552C59.0293 10.4552 59.6412 10.3581 60.2283 10.1632C60.8154 9.96911 61.359 9.64401 61.8605 9.18792L62.835 10.4552C62.2424 10.9444 61.55 11.3141 60.7585 11.5642C59.9663 11.8144 59.1488 11.9395 58.3057 11.9395Z" fill="#3780EF"/>
<path d="M66.2827 0.0421619H67.8609V11.8784H66.2827V0.0421619Z" fill="#3780EF"/>
<path d="M73.7804 11.8784V1.62033H69.835V0.0421619H79.6985V1.62033H75.3585V11.8784H73.7804Z" fill="#3780EF"/>
<path d="M81.3274 8.72208L81.789 7.53846H88.5227L89.0186 8.72208H81.3274ZM78.9321 11.8784L84.4261 0.0421619H86.142L91.6529 11.8784H89.7343L84.9363 1.22579H85.6145L80.8169 11.8784H78.9321Z" fill="#3780EF"/>
<path d="M93.9009 11.8784V0.0421619H95.479V10.3003H101.792V11.8784H93.9009Z" fill="#3780EF"/>
<path d="M42.6114 30.4177V26.0821H44.1896V30.6343L42.6114 30.4177ZM39.8662 31.9497C38.9434 31.9497 38.0943 31.8025 37.3195 31.5078C36.5446 31.2135 35.8723 30.7965 35.3029 30.2575C34.7328 29.7182 34.2886 29.0873 33.9698 28.3645C33.6506 27.6421 33.4912 26.8471 33.4912 25.9803C33.4912 25.1131 33.6506 24.3181 33.9698 23.5957C34.2886 22.8729 34.736 22.242 35.3116 21.7031C35.8865 21.1637 36.5615 20.7467 37.3368 20.452C38.1113 20.1576 38.9659 20.0105 39.9001 20.0105C40.8459 20.0105 41.7119 20.1604 42.4982 20.4606C43.2845 20.7605 43.9509 21.2111 44.4977 21.8116L43.438 22.8453C42.9484 22.3785 42.4154 22.0364 41.8401 21.8195C41.2645 21.6028 40.6407 21.4943 39.9688 21.4943C39.2851 21.4943 38.6498 21.6056 38.0632 21.8281C37.4761 22.0503 36.9691 22.3616 36.5418 22.762C36.1145 23.1621 35.7839 23.6367 35.5507 24.1875C35.3172 24.7379 35.2004 25.3352 35.2004 25.9803C35.2004 26.6135 35.3172 27.2053 35.5507 27.7557C35.7839 28.3061 36.1145 28.7843 36.5418 29.1899C36.9691 29.5959 37.4733 29.9099 38.0545 30.1321C38.6356 30.3546 39.2681 30.4654 39.9514 30.4654C40.5894 30.4654 41.2017 30.3684 41.7888 30.1739C42.3755 29.9798 42.9196 29.6543 43.421 29.1982L44.3952 30.4654C43.803 30.9547 43.1105 31.3244 42.3187 31.5745C41.5265 31.8246 40.7094 31.9497 39.8662 31.9497Z" fill="#3780EF"/>
<path d="M51.6865 32V20.1637H53.2647V30.4218H59.9719V32H51.6865Z" fill="#3780EF"/>
<path d="M66.2827 20.1637H67.8609V32H66.2827V20.1637Z" fill="#3780EF"/>
<path d="M77.3291 30.4218H80.5261C81.5069 30.4218 82.3552 30.2403 83.0713 29.8774C83.7874 29.514 84.3425 29.0054 84.7371 28.3509C85.132 27.6967 85.3293 26.94 85.3293 26.0819C85.3293 25.2131 85.132 24.454 84.7371 23.8046C84.3425 23.1556 83.7874 22.6494 83.0713 22.2864C82.3552 21.9234 81.5069 21.7419 80.5261 21.7419H77.3291V30.4218ZM75.751 32V20.1637H80.8635C82.1572 20.1637 83.2986 20.4119 84.2861 20.9079C85.274 21.4042 86.0422 22.097 86.5914 22.9875C87.1398 23.8784 87.4144 24.9097 87.4144 26.0823C87.4144 27.2545 87.1398 28.2858 86.5914 29.1763C86.0422 30.0671 85.274 30.76 84.2861 31.2559C83.2986 31.7522 82.1572 32 80.8635 32H75.751Z" fill="#3780EF"/>
<path d="M94.69 25.2928H101.003V26.871H94.69V25.2928ZM95.0845 30.4218H102.186V32H93.5063V20.1637H101.792V21.7419H95.0845V30.4218Z" fill="#3780EF"/>
<path d="M10.3402 16.0485L0 26.4596V31.9517L15.7947 16.0485L0 0.144878V5.6369L10.3402 16.0485Z" fill="#3780EF"/>
<path d="M0 8.62308V11.3695L4.64691 16.0484L0 20.7272V23.4736L7.37438 16.0484L0 8.62308Z" fill="#3780EF"/>
<path d="M21.4744 16.0485L31.9594 5.6369V0.144878L15.9434 16.0485L31.9594 31.9517V26.4596L21.4744 16.0485Z" fill="#FF7A48"/>
<path d="M31.9602 23.4741V20.7273L27.2482 16.0488L31.9602 11.3696V8.62317L24.4824 16.0488L31.9602 23.4741Z" fill="#FF7A48"/>
</svg>
