<svg width="209" height="120" viewBox="0 0 209 120" fill="none" xmlns="http://www.w3.org/2000/svg">
<path d="M52.6927 113.677C52.8326 111.199 51.9861 108.767 50.3382 106.911C48.5908 105.077 46.6204 104.594 46.6204 101C46.7319 95.4478 51.2428 91.6557 57.5383 91.7796C63.8337 91.9035 68.2083 95.8692 68.0968 101.421C68.0348 105.003 63.6478 105.932 62.7679 108.311C62.1123 110.095 61.6956 111.958 61.5287 113.851C61.5139 114.611 61.649 115.366 61.9262 116.074C62.2035 116.782 62.6175 117.428 63.1446 117.976C63.6717 118.524 64.3015 118.962 64.9981 119.267C65.6947 119.571 66.4444 119.735 67.2045 119.75L104.06 119.403L103.986 61.6036L103.936 22.1579H68.8899C65.6926 22.1579 63.4124 25.1693 63.3504 28.3542C63.329 29.1432 63.471 29.9281 63.7675 30.6596C64.0639 31.3911 64.5084 32.0534 65.073 32.6049C66.9071 34.3522 69.46 37.4504 69.398 41.0319C69.2865 46.5838 64.7632 50.3883 58.4677 50.2644C52.1723 50.1404 47.8101 46.1624 47.9092 40.6105C47.9835 37.0291 50.6604 34.0301 52.5564 32.357C53.145 31.8307 53.6176 31.1875 53.944 30.4685C54.2705 29.7494 54.4437 28.9703 54.4525 28.1807C54.4673 27.4207 54.3322 26.6652 54.0549 25.9573C53.7777 25.2495 53.3637 24.6032 52.8366 24.0555C52.3095 23.5077 51.6797 23.0691 50.9831 22.7648C50.2865 22.4604 49.5367 22.2964 48.7767 22.2818L7.50928 22.1455V118.597L46.7939 119.39C47.557 119.405 48.3155 119.269 49.0257 118.989C49.7359 118.71 50.3838 118.292 50.9321 117.761C51.4804 117.23 51.9182 116.596 52.2204 115.895C52.5225 115.194 52.6831 114.441 52.6927 113.677Z" fill="#80A1D4"/>
<path d="M45.4188 113.677C45.4391 112.889 45.2954 112.106 44.9967 111.376C44.698 110.646 44.251 109.987 43.6839 109.439C41.8621 107.692 39.2969 104.594 39.3712 101C39.4827 95.4478 43.9937 91.6557 50.2891 91.7796C56.5846 91.9035 60.9592 95.8692 60.8476 101.421C60.7857 105.003 58.0965 108.002 56.2128 109.675C55.3566 110.45 54.752 111.463 54.4766 112.585C54.2012 113.706 54.2677 114.885 54.6675 115.968C55.0674 117.052 55.7822 117.991 56.7201 118.665C57.658 119.339 58.7761 119.717 59.9306 119.75L96.7862 119.403L96.811 61.6036L96.6623 22.1579H61.616C58.4187 22.1579 56.1384 25.1693 56.0765 28.3542C56.0544 29.1444 56.1973 29.9305 56.496 30.6624C56.7948 31.3942 57.2428 32.0558 57.8114 32.6049C59.6332 34.3522 62.1984 37.4504 62.1241 41.0319C62.0125 46.5838 57.4892 50.3883 51.1938 50.2644C44.8983 50.1404 40.5361 46.1624 40.6353 40.6105C40.7096 37.0291 43.3864 34.0301 45.2825 32.357C45.8711 31.8307 46.3437 31.1875 46.6701 30.4685C46.9966 29.7494 47.1697 28.9703 47.1786 28.1807C47.1934 27.4207 47.0583 26.6652 46.781 25.9573C46.5038 25.2495 46.0898 24.6032 45.5627 24.0555C45.0356 23.5077 44.4058 23.0691 43.7092 22.7648C43.0126 22.4604 42.2628 22.2964 41.5028 22.2818L0.235352 22.1455V118.597L39.5199 119.39C40.2831 119.405 41.0416 119.269 41.7518 118.989C42.462 118.71 43.1099 118.292 43.6582 117.761C44.2065 117.23 44.6443 116.596 44.9465 115.895C45.2486 115.194 45.4092 114.441 45.4188 113.677Z" fill="#A7C0E5"/>
<path d="M200.822 63.6732C198.864 63.6732 192.668 62.7809 191.305 64.2061C189.148 66.4491 189.619 71.2203 185.195 71.1335C178.342 70.9972 173.658 65.4329 173.819 57.6628C173.98 49.8926 178.862 44.5142 185.716 44.6505C190.127 44.7249 188.801 51.516 191.726 52.5942C193.461 53.2262 199.075 52.6685 201.045 52.7057C201.985 52.7288 202.92 52.5655 203.797 52.2255C204.673 51.8855 205.474 51.3753 206.153 50.7244C206.831 50.0736 207.374 49.2949 207.75 48.4332C208.126 47.5716 208.328 46.644 208.344 45.7039L207.911 0.247803L136.628 0.346927L87.9254 0.470861V43.6839C87.851 47.6248 91.6432 50.4503 95.5841 50.5247C96.5557 50.5497 97.522 50.3732 98.422 50.0063C99.3221 49.6395 100.136 49.0902 100.814 48.3931C102.97 46.1377 106.799 42.9775 111.211 43.0643C118.064 43.2006 122.749 48.7773 122.6 56.535C122.451 64.2928 117.544 69.6836 110.703 69.5597C106.279 69.4729 102.586 66.1641 100.516 63.8343C99.8679 63.1092 99.076 62.5266 98.1907 62.1234C97.3054 61.7202 96.346 61.5052 95.3734 61.4921C94.4365 61.4724 93.505 61.6376 92.6321 61.9784C91.7592 62.3191 90.9621 62.8287 90.2864 63.4779C89.6107 64.1272 89.0697 64.9033 88.6943 65.7619C88.3189 66.6205 88.1166 67.5447 88.0989 68.4815L87.9254 119.378H206.895L207.874 70.9352C207.89 69.9947 207.72 69.0603 207.374 68.1855C207.028 67.3108 206.513 66.5131 205.858 65.8382C205.202 65.1634 204.42 64.6247 203.556 64.2531C202.692 63.8816 201.763 63.6845 200.822 63.6732Z" fill="#80A2D4"/>
<path d="M193.312 63.6733C192.34 63.6499 191.373 63.8283 190.473 64.1973C189.573 64.5663 188.759 65.1179 188.083 65.8172C185.926 68.0603 182.11 71.2204 177.685 71.1336C170.832 70.9973 166.16 65.433 166.309 57.6629C166.458 49.8927 171.353 44.5143 178.206 44.6506C182.63 44.725 186.323 48.0338 188.38 50.3636C189.031 51.0897 189.825 51.6728 190.712 52.076C191.599 52.4791 192.561 52.6936 193.536 52.7058C194.472 52.7255 195.404 52.5603 196.277 52.2195C197.15 51.8788 197.947 51.3692 198.623 50.72C199.298 50.0707 199.839 49.2946 200.215 48.4361C200.59 47.5775 200.792 46.6533 200.81 45.7164L200.376 0.260254L129.094 0.359416L80.391 0.48335V43.6964C80.3166 47.6372 84.1087 50.4627 88.0496 50.5371C89.0229 50.5609 89.9907 50.3839 90.8926 50.0171C91.7945 49.6504 92.6111 49.1018 93.2917 48.4056C95.448 46.1501 99.2649 42.99 103.677 43.0768C110.53 43.2131 115.214 48.7897 115.066 56.5475C114.917 64.3053 110.022 69.6961 103.169 69.5722C98.7444 69.4854 95.0514 66.1766 92.9819 63.8468C92.3339 63.1211 91.5421 62.5381 90.6567 62.1348C89.7713 61.7316 88.8117 61.517 87.8389 61.5046C86.9021 61.4849 85.9705 61.6501 85.0977 61.9909C84.2248 62.3316 83.4276 62.8412 82.7519 63.4904C82.0762 64.1397 81.5352 64.9158 81.1599 65.7744C80.7845 66.633 80.5822 67.5571 80.5645 68.494L80.391 119.39H199.36L200.339 70.9477C200.357 70.0083 200.19 69.0744 199.846 68.1999C199.502 67.3253 198.989 66.5272 198.336 65.8514C197.684 65.1755 196.904 64.6352 196.042 64.2614C195.179 63.8877 194.252 63.6878 193.312 63.6733Z" fill="#BED7FC"/>
<path d="M193.313 63.6733C193.653 63.6649 193.994 63.6898 194.329 63.7476C195.329 63.8878 196.286 64.2475 197.13 64.801C198.525 65.7132 199.563 67.0789 200.067 68.6675C200.367 69.6837 200.477 70.7468 200.389 71.8028C200.389 72.9305 200.389 74.1326 200.327 75.4091C200.141 85.6082 199.869 100.517 199.522 119.39V119.576H199.336L80.3668 119.676H80.0818V119.39C80.0818 109.427 80.1107 99.1533 80.1685 88.57C80.1685 83.2908 80.1685 77.9248 80.1685 72.4596C80.1685 71.0964 80.1685 69.7333 80.1685 68.3701C80.209 66.9328 80.6653 65.5381 81.4822 64.3549C82.3038 63.1591 83.4572 62.2298 84.8005 61.6815C86.1437 61.1332 87.618 60.9899 89.0417 61.2691C90.4827 61.5409 91.8085 62.2405 92.8462 63.2767C93.7637 64.3205 94.7624 65.2902 95.8328 66.1766C97.8896 68.0083 100.517 69.0723 103.268 69.188C106.067 69.2312 108.768 68.1613 110.778 66.2137C112.775 64.2049 114.048 61.5893 114.397 58.7782C114.618 57.3764 114.659 55.9522 114.521 54.5399C114.419 53.1179 114.092 51.721 113.554 50.4008C112.543 47.7143 110.525 45.5274 107.928 44.3036C106.624 43.7071 105.211 43.3829 103.777 43.3509C102.343 43.319 100.918 43.5799 99.5878 44.1177C98.252 44.6767 97.0007 45.4191 95.87 46.3236C95.2999 46.7697 94.7422 47.253 94.2094 47.7487C93.6897 48.2958 93.1394 48.813 92.5612 49.2978C91.4978 50.106 90.2335 50.6074 88.9053 50.7478C87.5926 50.8737 86.2682 50.7087 85.0264 50.2645C83.8571 49.8062 82.8034 49.0953 81.9407 48.1825C81.0165 47.2239 80.4106 46.0035 80.2057 44.6878C80.1388 44.0498 80.114 43.4082 80.1314 42.7669V29.7175C80.1314 19.8034 80.1314 10.0587 80.1314 0.48333V0.173515H80.4412L200.426 0H200.687V0.260234C200.773 10.2487 200.86 19.8034 200.935 28.8748C200.935 33.3981 201.009 37.8223 201.046 42.0977C201.046 43.18 201.046 44.2458 201.046 45.295C201.067 46.3741 200.865 47.4458 200.451 48.4427C200.04 49.3974 199.431 50.2542 198.664 50.9565C197.898 51.6588 196.991 52.1907 196.004 52.5174C195.017 52.844 193.972 52.9579 192.938 52.8516C191.904 52.7452 190.904 52.421 190.004 51.9003C189.159 51.3885 188.409 50.7344 187.786 49.967C187.149 49.2817 186.47 48.6361 185.754 48.0338C184.377 46.8366 182.788 45.9077 181.069 45.295C179.406 44.7537 177.633 44.6386 175.914 44.9604C174.296 45.2468 172.765 45.8992 171.437 46.8679C170.11 47.8366 169.021 49.0959 168.255 50.5495C166.858 53.2157 166.252 56.2253 166.508 59.2243C166.651 61.9079 167.572 64.4917 169.16 66.6599C170.51 68.4088 172.363 69.7025 174.47 70.3671C176.576 71.0317 178.836 71.0354 180.945 70.3777C182.557 69.8273 184.065 69.0104 185.407 67.9611C186.469 67.1376 187.472 66.2389 188.406 65.2719C189.144 64.6159 190.015 64.1257 190.959 63.8344C191.527 63.6466 192.12 63.5423 192.718 63.5246C192.916 63.5081 193.115 63.5081 193.313 63.5246H192.718C192.128 63.5701 191.546 63.6866 190.983 63.8716C190.065 64.1758 189.22 64.6698 188.505 65.3215C187.578 66.3022 186.584 67.2174 185.531 68.0603C184.179 69.131 182.659 69.9687 181.032 70.5388C179.049 71.1812 176.922 71.2328 174.91 70.6875C172.548 70.0779 170.458 68.6949 168.974 66.759C167.359 64.6015 166.399 62.0243 166.21 59.3359C165.93 56.2718 166.536 53.1915 167.958 50.4627C168.746 48.9628 169.865 47.6621 171.231 46.6593C172.596 45.6565 174.172 44.9781 175.84 44.6754C177.619 44.3286 179.458 44.4438 181.181 45.01C182.948 45.63 184.583 46.5758 186.001 47.7983C186.737 48.4098 187.432 49.068 188.083 49.7688C188.678 50.5063 189.4 51.1316 190.215 51.6152C191.067 52.0986 192.011 52.3966 192.986 52.4897C193.961 52.5827 194.944 52.4687 195.872 52.1551C196.8 51.8416 197.651 51.3355 198.37 50.6701C199.088 50.0047 199.658 49.195 200.042 48.294C200.873 46.4351 200.488 44.254 200.55 42.0977C200.55 37.8223 200.451 33.4229 200.414 28.8748C200.315 19.8034 200.216 10.2859 200.104 0.260234L200.377 0.520507L80.3916 0.805512L80.7138 0.48333V42.7917C80.7005 43.404 80.7253 44.0166 80.7882 44.6258C81.0224 45.8093 81.5721 46.9074 82.3793 47.804C83.1865 48.7006 84.221 49.3623 85.3734 49.7192C86.5241 50.13 87.7503 50.2864 88.9673 50.1777C90.1768 50.0407 91.3277 49.5829 92.3009 48.8517C92.8571 48.3774 93.3867 47.8726 93.8872 47.3398C94.4325 46.8317 95.0025 46.336 95.5973 45.8775C96.7777 44.9305 98.0882 44.1583 99.4886 43.5848C100.897 43.0141 102.408 42.7373 103.927 42.7714C105.447 42.8055 106.943 43.1498 108.325 43.7831C111.079 45.0713 113.222 47.3833 114.298 50.2273C114.847 51.6062 115.186 53.0601 115.302 54.5399C115.442 56.0062 115.397 57.4845 115.165 58.9393C114.796 61.8838 113.457 64.6217 111.361 66.7218C109.23 68.7846 106.37 69.9206 103.405 69.882C100.514 69.7765 97.7479 68.678 95.5726 66.7714C94.4803 65.8789 93.4647 64.8964 92.5364 63.8344C91.5913 62.8868 90.3817 62.2474 89.0664 62.0003C88.0941 61.8092 87.0919 61.832 86.1292 62.0672C85.1666 62.3023 84.2667 62.7442 83.492 63.3621C82.7173 63.9799 82.0864 64.759 81.643 65.6452C81.1996 66.5314 80.9544 67.5035 80.9245 68.494C80.9245 69.8572 80.9245 71.2204 80.9245 72.5712C80.9245 77.9991 80.9038 83.3693 80.8625 88.6816C80.8625 99.2483 80.8254 109.518 80.751 119.49L80.4536 119.192L199.423 119.304L199.237 119.49C199.646 100.616 199.98 85.7074 200.216 75.4958C200.216 74.2566 200.216 73.0173 200.303 71.902C200.393 70.8639 200.292 69.818 200.005 68.8162C199.626 67.5499 198.901 66.4146 197.911 65.5387C196.922 64.6628 195.707 64.081 194.404 63.8591C193.66 63.6857 193.313 63.6981 193.313 63.6733Z" fill="#AAAAAA"/>
</svg>
