<svg width="520" height="746" viewBox="0 0 520 746" fill="none" xmlns="http://www.w3.org/2000/svg">
<path d="M1.47217 730.767C1.47217 730.933 117.434 731.055 260.438 731.055C403.442 731.055 519.459 730.933 519.459 730.767C519.459 730.601 403.519 730.479 260.438 730.479C117.356 730.479 1.47217 730.612 1.47217 730.767Z" fill="#263238"/>
<path d="M254.072 725.344C253.947 723.13 254.704 720.957 256.175 719.3C257.736 717.662 259.496 717.23 259.496 714.02C259.397 709.061 255.367 705.673 249.744 705.784C244.121 705.895 240.214 709.437 240.313 714.396C240.369 717.595 244.287 718.425 245.073 720.551C245.659 722.144 246.031 723.808 246.18 725.499C246.193 726.177 246.072 726.852 245.825 727.485C245.577 728.117 245.207 728.694 244.737 729.183C244.266 729.673 243.703 730.064 243.081 730.336C242.459 730.608 241.789 730.755 241.11 730.768L208.19 730.458L208.257 678.83L208.301 643.597H239.605C242.461 643.597 244.497 646.287 244.553 649.132C244.572 649.836 244.445 650.537 244.18 651.191C243.915 651.844 243.518 652.436 243.014 652.928C241.376 654.489 239.096 657.257 239.151 660.456C239.251 665.415 243.291 668.813 248.914 668.702C254.537 668.591 258.434 665.038 258.345 660.079C258.279 656.88 255.888 654.201 254.194 652.707C253.668 652.237 253.246 651.662 252.955 651.02C252.663 650.378 252.508 649.682 252.5 648.977C252.487 648.298 252.608 647.623 252.856 646.991C253.103 646.358 253.473 645.781 253.944 645.292C254.415 644.803 254.977 644.411 255.599 644.139C256.222 643.867 256.891 643.721 257.57 643.708L294.431 643.586V729.738L259.341 730.447C258.66 730.46 257.982 730.338 257.348 730.088C256.713 729.839 256.135 729.466 255.645 728.991C255.155 728.517 254.764 727.951 254.494 727.325C254.224 726.699 254.081 726.025 254.072 725.344Z" fill="#E0E0E0"/>
<g opacity="0.3">
<path d="M254.072 725.344C253.947 723.13 254.704 720.957 256.175 719.3C257.736 717.662 259.496 717.23 259.496 714.02C259.397 709.061 255.367 705.673 249.744 705.784C244.121 705.895 240.214 709.437 240.313 714.396C240.369 717.595 244.287 718.425 245.073 720.551C245.659 722.144 246.031 723.808 246.18 725.499C246.193 726.177 246.072 726.852 245.825 727.485C245.577 728.117 245.207 728.694 244.737 729.183C244.266 729.673 243.703 730.064 243.081 730.336C242.459 730.608 241.789 730.755 241.11 730.768L208.19 730.458L208.257 678.83L208.301 643.597H239.605C242.461 643.597 244.497 646.287 244.553 649.132C244.572 649.836 244.445 650.537 244.18 651.191C243.915 651.844 243.518 652.436 243.014 652.928C241.376 654.489 239.096 657.257 239.151 660.456C239.251 665.415 243.291 668.813 248.914 668.702C254.537 668.591 258.434 665.038 258.345 660.079C258.279 656.88 255.888 654.201 254.194 652.707C253.668 652.237 253.246 651.662 252.955 651.02C252.663 650.378 252.508 649.682 252.5 648.977C252.487 648.298 252.608 647.623 252.856 646.991C253.103 646.358 253.473 645.781 253.944 645.292C254.415 644.803 254.977 644.411 255.599 644.139C256.222 643.867 256.891 643.721 257.57 643.708L294.431 643.586V729.738L259.341 730.447C258.66 730.46 257.982 730.338 257.348 730.088C256.713 729.839 256.135 729.466 255.645 728.991C255.155 728.517 254.764 727.951 254.494 727.325C254.224 726.699 254.081 726.025 254.072 725.344Z" fill="black"/>
</g>
<path d="M260.57 725.344C260.552 724.64 260.68 723.94 260.947 723.288C261.214 722.636 261.613 722.047 262.12 721.558C263.747 719.997 266.038 717.23 265.972 714.02C265.872 709.061 261.843 705.673 256.22 705.784C250.596 705.895 246.689 709.437 246.789 714.396C246.844 717.595 249.246 720.274 250.928 721.768C251.693 722.461 252.233 723.366 252.479 724.368C252.725 725.37 252.666 726.422 252.309 727.39C251.952 728.358 251.313 729.197 250.475 729.798C249.638 730.4 248.639 730.738 247.608 730.768L214.688 730.458L214.666 678.83L214.798 643.597H246.102C248.958 643.597 250.995 646.287 251.05 649.132C251.07 649.837 250.942 650.54 250.675 651.193C250.409 651.847 250.008 652.438 249.501 652.928C247.873 654.489 245.582 657.257 245.648 660.456C245.748 665.415 249.788 668.813 255.412 668.702C261.035 668.591 264.931 665.038 264.843 660.079C264.776 656.88 262.385 654.201 260.692 652.707C260.166 652.237 259.744 651.662 259.452 651.02C259.161 650.378 259.006 649.682 258.998 648.977C258.985 648.298 259.105 647.623 259.353 646.991C259.601 646.358 259.971 645.781 260.441 645.292C260.912 644.803 261.475 644.411 262.097 644.139C262.719 643.867 263.389 643.721 264.068 643.708L300.928 643.586V729.738L265.839 730.447C265.157 730.46 264.48 730.338 263.845 730.088C263.211 729.839 262.632 729.466 262.142 728.991C261.653 728.517 261.262 727.951 260.992 727.325C260.722 726.699 260.578 726.025 260.57 725.344Z" fill="#EBEBEB"/>
<path d="M260.57 725.343C260.545 725.586 260.545 725.831 260.57 726.074C260.673 726.801 260.934 727.496 261.334 728.111C261.995 729.122 262.984 729.877 264.134 730.247C264.873 730.468 265.646 730.547 266.414 730.48H269.027L300.884 729.915H301.05V729.749C301.05 707.943 301.05 678.199 301.139 643.597V643.342H300.873H278.557H266.924H263.968C263.176 643.365 262.399 643.559 261.69 643.912C260.981 644.265 260.357 644.768 259.862 645.386C259.367 646.005 259.013 646.723 258.823 647.492C258.634 648.261 258.614 649.063 258.766 649.84C258.965 650.893 259.479 651.862 260.238 652.618C260.99 653.282 261.69 654.004 262.33 654.777C263.671 656.262 264.454 658.168 264.544 660.168C264.561 661.164 264.381 662.155 264.014 663.082C263.648 664.009 263.102 664.854 262.407 665.569C260.961 667.002 259.081 667.917 257.061 668.171C255.029 668.506 252.944 668.3 251.017 667.573C249.068 666.848 247.479 665.39 246.589 663.511C246.16 662.574 245.927 661.56 245.905 660.53C245.882 659.5 246.07 658.477 246.457 657.522C246.858 656.557 247.391 655.652 248.039 654.832C248.366 654.416 248.713 654.017 249.08 653.637C249.423 653.249 249.855 652.906 250.187 652.43C250.794 651.659 251.177 650.736 251.294 649.762C251.388 648.803 251.267 647.835 250.94 646.929C250.649 646.004 250.114 645.176 249.391 644.531C248.668 643.885 247.784 643.448 246.833 643.265C245.848 643.165 244.995 643.265 244.066 643.209H214.511V643.597C214.511 675.598 214.422 705.087 214.389 730.502V730.734H214.666L235.398 730.911L244.984 730.989H247.287C248.075 731.01 248.859 730.867 249.589 730.568C250.299 730.261 250.934 729.806 251.454 729.233C251.973 728.661 252.364 727.984 252.6 727.247C252.826 726.537 252.902 725.787 252.822 725.045C252.742 724.304 252.508 723.587 252.135 722.941C251.767 722.323 251.291 721.776 250.729 721.325C250.233 720.865 249.768 720.373 249.335 719.853C248.473 718.856 247.805 717.708 247.364 716.466C246.961 715.269 246.873 713.988 247.11 712.747C247.314 711.576 247.784 710.468 248.485 709.508C249.185 708.549 250.097 707.763 251.15 707.212C253.08 706.204 255.257 705.766 257.426 705.95C259.375 706.046 261.254 706.711 262.828 707.865C264.199 708.906 265.185 710.375 265.629 712.038C266.027 713.461 266 714.97 265.551 716.377C265.152 717.542 264.565 718.634 263.813 719.61C263.214 720.39 262.563 721.13 261.865 721.823C261.368 722.353 260.991 722.984 260.758 723.672C260.635 724.09 260.561 724.521 260.537 724.956C260.524 725.1 260.524 725.244 260.537 725.388C260.553 724.813 260.65 724.243 260.824 723.694C261.061 723.021 261.438 722.406 261.931 721.89C262.642 721.218 263.304 720.496 263.913 719.731C264.69 718.755 265.296 717.655 265.706 716.477C266.173 715.043 266.211 713.505 265.817 712.049C265.376 710.333 264.37 708.816 262.961 707.743C261.352 706.549 259.427 705.855 257.426 705.751C255.205 705.546 252.971 705.988 250.995 707.024C249.903 707.594 248.955 708.406 248.224 709.397C247.493 710.389 246.998 711.535 246.778 712.747C246.533 714.042 246.616 715.378 247.021 716.632C247.476 717.912 248.163 719.098 249.047 720.13C249.491 720.664 249.968 721.171 250.475 721.646C251.004 722.076 251.457 722.593 251.814 723.174C252.162 723.787 252.377 724.467 252.444 725.168C252.511 725.87 252.428 726.578 252.203 727.246C251.977 727.914 251.613 728.526 251.134 729.044C250.655 729.561 250.072 729.971 249.423 730.247C248.084 730.845 246.512 730.568 244.995 730.612L235.42 730.502L214.699 730.291L214.931 730.524C214.987 705.065 215.064 675.62 215.142 643.619L214.854 643.907H235.974C239.538 643.907 243.224 643.907 246.755 643.907C250.242 644.427 251.991 649.375 249.788 652.153C249.439 652.542 249.07 652.911 248.681 653.26C248.305 653.659 247.951 654.068 247.575 654.5C246.893 655.363 246.334 656.317 245.914 657.334C245.499 658.361 245.297 659.462 245.322 660.57C245.347 661.678 245.597 662.769 246.058 663.776C246.995 665.783 248.679 667.344 250.751 668.126C252.773 668.891 254.961 669.109 257.094 668.757C259.237 668.485 261.229 667.512 262.762 665.99C264.264 664.436 265.092 662.351 265.064 660.19C264.984 658.066 264.17 656.036 262.762 654.445C262.113 653.648 261.398 652.908 260.625 652.231C259.945 651.553 259.486 650.684 259.308 649.74C259.175 649.044 259.194 648.326 259.365 647.638C259.535 646.949 259.853 646.305 260.296 645.751C260.738 645.197 261.296 644.745 261.93 644.427C262.564 644.108 263.259 643.931 263.968 643.907H266.913H278.557L300.873 643.829L300.607 643.564C300.607 678.166 300.674 707.909 300.696 729.716L300.862 729.55L269.005 730.269L266.403 730.336C265.659 730.403 264.908 730.331 264.19 730.125C263.057 729.779 262.079 729.052 261.422 728.067C261.026 727.467 260.755 726.793 260.625 726.085C260.581 725.598 260.581 725.343 260.57 725.343Z" fill="#263238"/>
<path d="M131.746 672.488C131.756 673.226 131.911 673.954 132.203 674.632C132.496 675.31 132.919 675.923 133.448 676.437C133.978 676.952 134.603 677.356 135.289 677.628C135.975 677.9 136.708 678.034 137.446 678.022C138.211 678.014 138.966 677.848 139.663 677.534C140.361 677.219 140.985 676.764 141.498 676.196C143.136 674.369 146.047 671.768 149.523 671.768C154.914 671.691 158.744 675.952 158.832 682.052C158.921 688.151 155.224 692.534 149.833 692.612C146.357 692.667 143.368 690.165 141.686 688.383C140.9 687.58 139.892 687.031 138.791 686.807C137.69 686.582 136.547 686.693 135.509 687.124C134.472 687.555 133.587 688.287 132.97 689.226C132.352 690.165 132.03 691.267 132.045 692.39L132.642 730.491L47.9292 730.103V690.077C47.9131 688.953 47.5597 687.859 46.9148 686.938C46.2699 686.017 45.3633 685.311 44.3123 684.911C43.2614 684.512 42.1147 684.437 41.0207 684.697C39.9268 684.957 38.9362 685.539 38.1772 686.369C36.5389 688.195 33.6277 690.796 30.1519 690.796C24.7612 690.874 20.9313 686.623 20.8316 680.513C20.732 674.403 24.4402 670.03 29.8309 669.953C33.3067 669.897 36.3065 672.399 37.989 674.181C38.5207 674.733 39.1612 675.169 39.8701 675.46C40.5789 675.752 41.3405 675.893 42.1068 675.875C45.2061 675.875 48.1949 673.661 48.1506 670.528L48.3055 636.535L132.2 636.922L131.746 672.488Z" fill="#3780EF"/>
<g opacity="0.3">
<path d="M131.746 672.488C131.756 673.226 131.911 673.954 132.203 674.632C132.496 675.31 132.919 675.923 133.448 676.437C133.978 676.952 134.603 677.356 135.289 677.628C135.975 677.9 136.708 678.034 137.446 678.022C138.211 678.014 138.966 677.848 139.663 677.534C140.361 677.219 140.985 676.764 141.498 676.196C143.136 674.369 146.047 671.768 149.523 671.768C154.914 671.691 158.744 675.952 158.832 682.052C158.921 688.151 155.224 692.534 149.833 692.612C146.357 692.667 143.368 690.165 141.686 688.383C140.9 687.58 139.892 687.031 138.791 686.807C137.69 686.582 136.547 686.693 135.509 687.124C134.472 687.555 133.587 688.287 132.97 689.226C132.352 690.165 132.03 691.267 132.045 692.39L132.642 730.491L47.9292 730.103V690.077C47.9131 688.953 47.5597 687.859 46.9148 686.938C46.2699 686.017 45.3633 685.311 44.3123 684.911C43.2614 684.512 42.1147 684.437 41.0207 684.697C39.9268 684.957 38.9362 685.539 38.1772 686.369C36.5389 688.195 33.6277 690.796 30.1519 690.796C24.7612 690.874 20.9313 686.623 20.8316 680.513C20.732 674.403 24.4402 670.03 29.8309 669.953C33.3067 669.897 36.3065 672.399 37.989 674.181C38.5207 674.733 39.1612 675.169 39.8701 675.46C40.5789 675.752 41.3405 675.893 42.1068 675.875C45.2061 675.875 48.1949 673.661 48.1506 670.528L48.3055 636.535L132.2 636.922L131.746 672.488Z" fill="black"/>
</g>
<path d="M138 672.488C138.023 673.977 138.637 675.397 139.706 676.434C140.774 677.472 142.211 678.043 143.701 678.022C144.466 678.015 145.22 677.848 145.918 677.534C146.615 677.219 147.24 676.764 147.752 676.196C149.39 674.37 152.301 671.768 155.777 671.768C161.168 671.691 164.998 675.953 165.098 682.052C165.197 688.151 161.478 692.534 156.098 692.612C152.623 692.667 149.623 690.165 147.94 688.383C147.16 687.582 146.159 687.032 145.064 686.802C143.97 686.573 142.832 686.675 141.796 687.096C140.76 687.516 139.873 688.236 139.248 689.164C138.623 690.091 138.289 691.184 138.288 692.302L138.886 730.402L54.1724 730.015V689.988C54.1563 688.864 53.8029 687.771 53.158 686.85C52.5131 685.929 51.6064 685.223 50.5555 684.823C49.5046 684.423 48.3578 684.349 47.2639 684.608C46.17 684.868 45.1794 685.451 44.4204 686.28C42.7821 688.107 39.8709 690.708 36.3952 690.708C31.0044 690.785 27.1744 686.535 27.0748 680.424C26.9752 674.314 30.6945 669.942 36.0741 669.864C39.5499 669.809 42.5497 672.311 44.2322 674.093C44.7639 674.645 45.4044 675.08 46.1133 675.372C46.8221 675.664 47.5837 675.805 48.35 675.786C51.4494 675.786 54.4381 673.573 54.3938 670.44L54.5488 636.446L138.443 636.834L138 672.488Z" fill="#3780EF"/>
<path d="M138 672.488C138 672.488 138 672.288 138 671.89C138 671.491 138 670.894 138.055 670.119C138.055 668.536 138.122 666.222 138.188 663.2C138.288 657.123 138.443 648.235 138.631 636.922V636.767H138.476L54.5817 636.291H54.3271V636.535C54.3271 644.958 54.2386 653.747 54.1943 662.857C54.1943 665.138 54.1943 667.429 54.1943 669.753C54.2163 670.312 54.1867 670.872 54.1057 671.425C54 671.968 53.7934 672.486 53.4969 672.952C52.8689 673.889 51.9798 674.62 50.9399 675.056C49.8963 675.512 48.7515 675.688 47.6191 675.565C46.487 675.424 45.4328 674.915 44.6194 674.115C42.9875 672.266 40.9112 670.864 38.5866 670.041C37.9847 669.86 37.3649 669.745 36.7381 669.698C34.8347 669.595 32.9455 670.078 31.3252 671.082C29.1922 672.522 27.7065 674.738 27.1853 677.258C26.6319 679.77 26.7774 682.384 27.6059 684.819C28.0298 686.051 28.708 687.181 29.5967 688.134C30.4853 689.088 31.5645 689.844 32.7642 690.353C33.9916 690.842 35.3069 691.072 36.6273 691.029C37.9564 690.949 39.2504 690.571 40.413 689.922C41.5682 689.293 42.6332 688.511 43.5788 687.597C44.0548 687.154 44.5087 686.634 44.9293 686.202C45.5988 685.555 46.4276 685.096 47.3315 684.873C48.2355 684.649 49.1825 684.669 50.0765 684.929C51.2755 685.28 52.316 686.035 53.0209 687.066C53.7145 688.123 54.0376 689.381 53.9397 690.641V694.593C53.9397 706.636 53.9397 718.469 53.9397 730.015V730.302H54.1611L138.874 730.646H139.129V730.391C138.989 721.772 138.852 713.525 138.719 705.651C138.653 701.718 138.59 697.892 138.531 694.172C138.476 693.262 138.476 692.349 138.531 691.438C138.653 690.567 138.991 689.741 139.516 689.036C140.272 687.994 141.375 687.255 142.627 686.953C143.879 686.65 145.197 686.804 146.346 687.387C147.073 687.798 147.718 688.338 148.25 688.981C149.446 690.174 150.834 691.158 152.357 691.892C153.821 692.575 155.447 692.84 157.053 692.656C158.659 692.473 160.183 691.848 161.456 690.851C162.584 689.893 163.498 688.708 164.139 687.373C164.78 686.038 165.133 684.583 165.175 683.103C165.389 680.413 164.717 677.726 163.26 675.454C161.976 673.556 160 672.236 157.754 671.779C155.509 671.322 153.174 671.763 151.25 673.008C149.733 673.996 148.362 675.192 147.176 676.561C146.168 677.442 144.874 677.928 143.534 677.928C142.195 677.928 140.901 677.442 139.893 676.561C139.243 676.003 138.731 675.302 138.398 674.513C138.131 673.866 137.977 673.176 137.944 672.476C137.944 672.476 137.944 672.654 137.944 673.008C137.997 673.536 138.124 674.054 138.321 674.546C138.643 675.354 139.151 676.075 139.804 676.65C140.83 677.568 142.156 678.081 143.533 678.093C144.91 678.106 146.244 677.616 147.287 676.716C148.477 675.368 149.843 674.188 151.349 673.207C153.239 671.992 155.531 671.573 157.728 672.039C159.925 672.505 161.85 673.82 163.083 675.698C164.46 677.913 165.081 680.515 164.854 683.114C164.811 684.545 164.467 685.95 163.845 687.239C163.224 688.528 162.338 689.672 161.245 690.597C160.022 691.551 158.558 692.147 157.016 692.319C155.474 692.491 153.915 692.232 152.512 691.571C151.03 690.854 149.682 689.888 148.527 688.715C147.957 688.05 147.27 687.495 146.501 687.077C145.7 686.665 144.812 686.449 143.911 686.446C142.502 686.433 141.137 686.931 140.067 687.846C138.997 688.762 138.294 690.034 138.088 691.427C138.033 692.36 138.033 693.295 138.088 694.228C138.14 697.917 138.195 701.744 138.254 705.706C138.38 713.566 138.505 721.812 138.631 730.446L138.874 730.203L54.1611 729.782L54.4378 730.059C54.4378 718.536 54.4378 706.703 54.4931 694.637V690.696C54.5901 689.318 54.2324 687.945 53.4748 686.789C52.697 685.647 51.5436 684.813 50.215 684.433C48.8864 684.053 47.4666 684.15 46.2023 684.708C45.5759 684.972 45.0022 685.347 44.5087 685.815C44.0327 686.313 43.6342 686.767 43.1693 687.21C42.2575 688.08 41.2338 688.824 40.1252 689.424C39.0362 690.025 37.8254 690.373 36.5831 690.442C35.3459 690.484 34.1134 690.269 32.9634 689.811C31.8328 689.327 30.8173 688.609 29.9836 687.705C29.1499 686.801 28.517 685.73 28.1262 684.564C27.323 682.239 27.1812 679.737 27.7166 677.336C28.1949 674.954 29.5955 672.857 31.613 671.502C32.619 670.861 33.7519 670.446 34.9337 670.285C36.0986 670.096 37.2912 670.175 38.4206 670.517C40.6566 671.313 42.6529 672.665 44.2209 674.447C45.1213 675.332 46.2884 675.896 47.5416 676.052C48.7722 676.188 50.017 675.997 51.1502 675.498C52.288 675.019 53.2586 674.214 53.9397 673.185C54.2704 672.663 54.503 672.086 54.626 671.48C54.7131 670.887 54.7465 670.287 54.7256 669.687C54.7256 667.37 54.7256 665.075 54.7256 662.802C54.7256 653.692 54.792 644.903 54.8252 636.49L54.5817 636.734L138.476 637.011L138.288 636.955C138.166 648.279 138.066 657.168 137.989 663.245C137.989 666.267 137.989 668.58 137.989 670.163V671.934C137.989 672.288 138 672.488 138 672.488Z" fill="#263238"/>
<path d="M121.761 680.679C123.51 680.679 129.045 679.882 130.262 681.155C132.188 683.158 131.768 687.42 135.719 687.343C141.841 687.221 146.025 682.251 145.881 675.31C145.737 668.37 141.376 663.566 135.254 663.688C131.314 663.754 132.498 669.82 129.886 670.783C128.336 671.347 123.322 670.849 121.562 670.883C120.722 670.903 119.887 670.757 119.104 670.454C118.321 670.15 117.606 669.694 117 669.113C116.394 668.532 115.909 667.836 115.573 667.066C115.237 666.297 115.056 665.468 115.042 664.628L115.429 624.026L179.1 624.115L222.602 624.226V662.824C222.669 666.344 219.281 668.868 215.761 668.934C214.893 668.957 214.03 668.799 213.226 668.471C212.422 668.144 211.695 667.653 211.09 667.03C209.164 665.016 205.744 662.193 201.803 662.271C195.682 662.392 191.497 667.374 191.63 674.303C191.763 681.232 196.147 686.047 202.257 685.937C206.209 685.859 209.507 682.904 211.356 680.823C211.935 680.175 212.642 679.655 213.433 679.295C214.224 678.934 215.081 678.742 215.949 678.731C216.786 678.713 217.618 678.861 218.398 679.165C219.178 679.469 219.89 679.925 220.493 680.504C221.097 681.084 221.58 681.778 221.915 682.545C222.251 683.311 222.431 684.137 222.447 684.974L222.602 730.435H116.337L115.463 687.165C115.448 686.325 115.6 685.491 115.909 684.709C116.218 683.928 116.678 683.216 117.263 682.613C117.849 682.01 118.547 681.529 119.319 681.197C120.091 680.865 120.921 680.689 121.761 680.679Z" fill="#263238"/>
<path d="M128.469 680.679C129.338 680.658 130.201 680.818 131.005 681.147C131.809 681.477 132.536 681.969 133.14 682.594C135.066 684.598 138.476 687.42 142.427 687.343C148.549 687.221 152.722 682.251 152.589 675.31C152.456 668.37 148.084 663.566 141.962 663.688C138.011 663.754 134.712 666.71 132.875 668.791C132.294 669.439 131.584 669.96 130.792 670.32C129.999 670.68 129.14 670.872 128.27 670.883C127.433 670.9 126.601 670.753 125.821 670.448C125.041 670.144 124.33 669.689 123.726 669.109C123.122 668.529 122.639 667.836 122.304 667.069C121.969 666.302 121.788 665.477 121.772 664.64L122.159 624.038L185.83 624.126L229.332 624.237V662.835C229.399 666.355 226.011 668.879 222.491 668.946C221.622 668.967 220.758 668.809 219.952 668.481C219.146 668.154 218.417 667.664 217.809 667.042C215.883 665.027 212.474 662.204 208.533 662.282C202.412 662.404 198.228 667.385 198.36 674.314C198.493 681.244 202.866 686.059 208.987 685.948C212.939 685.871 216.237 682.915 218.086 680.834C218.665 680.186 219.372 679.665 220.163 679.305C220.954 678.945 221.811 678.753 222.68 678.742C223.516 678.724 224.348 678.872 225.128 679.176C225.908 679.481 226.62 679.936 227.223 680.516C227.827 681.096 228.31 681.789 228.645 682.556C228.981 683.323 229.161 684.148 229.177 684.985L229.332 730.447H123.067L122.193 687.177C122.177 686.338 122.326 685.503 122.633 684.722C122.94 683.941 123.398 683.228 123.982 682.625C124.565 682.021 125.261 681.538 126.031 681.204C126.801 680.871 127.63 680.692 128.469 680.679Z" fill="#455A64"/>
<path d="M128.469 680.679C128.165 680.672 127.861 680.694 127.561 680.746C126.668 680.871 125.814 681.192 125.06 681.686C123.814 682.501 122.887 683.721 122.436 685.14C122.168 686.048 122.07 686.997 122.148 687.941C122.148 688.948 122.148 690.022 122.204 691.162C122.37 700.272 122.613 713.588 122.923 730.447V730.613H123.089L229.354 730.701H229.609V730.447C229.609 721.547 229.583 712.37 229.531 702.917C229.531 698.202 229.531 693.409 229.531 688.527C229.531 687.31 229.531 686.092 229.531 684.874C229.495 683.591 229.088 682.345 228.358 681.288C227.624 680.22 226.594 679.39 225.394 678.9C224.194 678.41 222.877 678.282 221.606 678.532C220.319 678.774 219.134 679.399 218.208 680.325C217.388 681.257 216.496 682.123 215.54 682.915C213.703 684.551 211.356 685.502 208.898 685.605C206.399 685.643 203.986 684.688 202.19 682.948C200.406 681.154 199.269 678.818 198.958 676.307C198.761 675.055 198.724 673.783 198.847 672.521C198.939 671.251 199.23 670.003 199.711 668.824C200.614 666.424 202.417 664.471 204.736 663.378C205.901 662.845 207.163 662.555 208.444 662.527C209.725 662.498 210.998 662.731 212.186 663.212C213.379 663.711 214.497 664.374 215.507 665.182C216.016 665.581 216.514 666.012 216.99 666.455C217.454 666.944 217.946 667.406 218.462 667.839C219.412 668.561 220.541 669.008 221.728 669.134C222.9 669.246 224.083 669.099 225.192 668.702C226.237 668.293 227.178 667.658 227.948 666.843C228.774 665.986 229.315 664.896 229.498 663.721C229.558 663.151 229.58 662.578 229.565 662.005V650.349C229.565 641.494 229.565 632.79 229.565 624.237V623.96H229.288L122.115 623.805H121.883V624.038C121.805 632.959 121.728 641.494 121.661 649.597C121.661 653.637 121.595 657.589 121.562 661.407C121.562 662.374 121.562 663.326 121.562 664.263C121.543 665.227 121.724 666.184 122.093 667.075C122.461 667.928 123.005 668.693 123.689 669.32C124.374 669.948 125.184 670.423 126.065 670.714C126.947 671.006 127.88 671.108 128.804 671.013C129.728 670.918 130.621 670.628 131.424 670.163C132.179 669.706 132.85 669.122 133.406 668.436C133.975 667.824 134.581 667.248 135.221 666.71C136.451 665.64 137.87 664.811 139.405 664.263C140.891 663.78 142.474 663.677 144.01 663.964C145.456 664.22 146.823 664.803 148.009 665.668C149.194 666.534 150.167 667.658 150.851 668.957C152.099 671.338 152.64 674.026 152.412 676.705C152.284 679.102 151.461 681.41 150.043 683.347C148.837 684.909 147.182 686.064 145.3 686.658C143.418 687.252 141.4 687.255 139.516 686.668C138.076 686.176 136.729 685.446 135.531 684.509C134.582 683.773 133.687 682.971 132.852 682.107C132.193 681.521 131.415 681.083 130.572 680.823C130.064 680.655 129.535 680.562 129 680.546C128.823 680.532 128.646 680.532 128.469 680.546H129C129.527 680.587 130.048 680.691 130.55 680.856C131.371 681.128 132.125 681.569 132.764 682.151C133.592 683.027 134.479 683.845 135.42 684.598C136.627 685.554 137.985 686.302 139.439 686.811C141.21 687.385 143.11 687.431 144.907 686.944C147.017 686.4 148.883 685.164 150.209 683.435C151.652 681.508 152.509 679.206 152.677 676.805C152.928 674.068 152.387 671.317 151.117 668.879C150.413 667.539 149.413 666.378 148.193 665.482C146.974 664.586 145.566 663.98 144.077 663.71C142.487 663.4 140.844 663.503 139.306 664.009C137.727 664.563 136.267 665.407 135 666.499C134.343 667.046 133.722 667.633 133.14 668.259C132.609 668.918 131.964 669.477 131.236 669.909C130.475 670.34 129.632 670.607 128.761 670.69C127.89 670.773 127.012 670.671 126.183 670.391C125.354 670.111 124.594 669.659 123.952 669.065C123.31 668.47 122.801 667.747 122.458 666.942C121.717 665.282 122.06 663.334 122.004 661.407C122.004 657.589 122.093 653.659 122.126 649.597C122.215 641.494 122.303 632.993 122.403 624.038L122.159 624.27L229.332 624.525L229.044 624.237V662.027C229.056 662.574 229.034 663.121 228.978 663.666C228.769 664.723 228.278 665.704 227.557 666.504C226.836 667.305 225.912 667.896 224.882 668.215C223.854 668.582 222.759 668.722 221.672 668.625C220.592 668.502 219.564 668.093 218.695 667.44C218.198 667.017 217.725 666.566 217.278 666.09C216.791 665.636 216.281 665.193 215.75 664.784C214.696 663.938 213.525 663.248 212.274 662.736C211.016 662.226 209.667 661.979 208.31 662.009C206.953 662.04 205.616 662.347 204.382 662.913C201.922 664.064 200.008 666.129 199.047 668.669C198.556 669.901 198.254 671.199 198.15 672.521C198.024 673.831 198.065 675.151 198.272 676.451C198.602 679.081 199.797 681.526 201.67 683.402C203.573 685.245 206.128 686.259 208.777 686.225C211.359 686.131 213.829 685.149 215.772 683.446C216.748 682.649 217.655 681.772 218.484 680.823C219.328 679.977 220.409 679.406 221.584 679.185C222.452 679.014 223.347 679.034 224.207 679.245C225.067 679.455 225.871 679.849 226.563 680.401C227.255 680.953 227.818 681.649 228.214 682.44C228.61 683.232 228.829 684.1 228.856 684.985C228.856 686.203 228.856 687.42 228.856 688.627C228.856 693.475 228.875 698.272 228.912 703.017C228.912 712.455 228.945 721.628 229.011 730.535L229.277 730.269L123.012 730.369L123.178 730.535C122.813 713.677 122.514 700.36 122.303 691.239C122.303 690.132 122.303 689.025 122.226 688.029C122.145 687.102 122.235 686.168 122.492 685.273C122.83 684.142 123.478 683.128 124.362 682.345C125.246 681.563 126.331 681.043 127.495 680.845C128.159 680.69 128.469 680.701 128.469 680.679Z" fill="#263238"/>
<path d="M231.956 409.626C233.76 409.626 239.472 408.807 240.723 410.113C242.704 412.183 242.273 416.577 246.346 416.5C252.656 416.378 256.962 411.242 256.818 404.091C256.674 396.941 252.18 391.982 245.87 392.103C241.797 392.192 243.025 398.435 240.336 399.42C238.742 400.007 233.572 399.498 231.757 399.531C230.894 399.548 230.036 399.396 229.232 399.081C228.428 398.767 227.694 398.297 227.072 397.699C226.45 397.1 225.952 396.385 225.607 395.594C225.262 394.803 225.076 393.951 225.06 393.088L225.458 351.247L291.044 351.368L335.886 351.49V391.218C335.952 394.848 332.465 397.439 328.834 397.516C327.939 397.537 327.05 397.373 326.221 397.034C325.392 396.695 324.643 396.188 324.019 395.546C322.038 393.465 318.485 390.565 314.444 390.642C308.135 390.764 303.829 395.9 303.973 403.051C304.117 410.202 308.611 415.149 314.92 415.028C318.994 414.95 322.392 411.906 324.296 409.759C325.179 408.781 326.335 408.092 327.614 407.781C328.894 407.469 330.237 407.549 331.47 408.011C332.703 408.473 333.769 409.296 334.529 410.371C335.289 411.447 335.707 412.726 335.731 414.043L335.919 460.954H226.421L225.514 416.356C225.493 415.491 225.644 414.63 225.957 413.823C226.27 413.016 226.739 412.278 227.337 411.653C227.936 411.028 228.652 410.527 229.445 410.179C230.237 409.831 231.091 409.643 231.956 409.626Z" fill="#263238"/>
<path d="M239.483 409.626C240.378 409.605 241.268 409.769 242.097 410.108C242.925 410.447 243.675 410.954 244.298 411.596C246.28 413.666 249.833 416.577 253.873 416.5C260.172 416.378 264.489 411.242 264.345 404.091C264.201 396.941 259.696 391.982 253.397 392.103C249.324 392.192 245.925 395.236 244.022 397.383C243.423 398.049 242.693 398.583 241.877 398.953C241.062 399.322 240.179 399.519 239.284 399.531C238.421 399.548 237.563 399.396 236.759 399.081C235.955 398.767 235.221 398.297 234.599 397.699C233.977 397.1 233.479 396.385 233.134 395.594C232.789 394.803 232.603 393.951 232.587 393.088L232.985 351.247L298.604 351.335L343.446 351.457V391.218C343.512 394.848 340.025 397.439 336.395 397.516C335.498 397.537 334.606 397.373 333.776 397.034C332.946 396.695 332.194 396.189 331.568 395.546C329.587 393.465 326.034 390.565 322.005 390.642C315.695 390.764 311.389 395.9 311.522 403.051C311.655 410.202 316.171 415.149 322.481 415.028C326.554 414.95 329.952 411.906 331.856 409.759C332.739 408.781 333.895 408.092 335.174 407.781C336.454 407.469 337.797 407.549 339.031 408.011C340.264 408.473 341.329 409.296 342.089 410.371C342.849 411.447 343.268 412.726 343.291 414.043L343.446 460.954H233.937L233.041 416.356C233.02 415.491 233.171 414.63 233.484 413.823C233.797 413.016 234.266 412.278 234.864 411.653C235.463 411.028 236.179 410.527 236.972 410.179C237.764 409.831 238.618 409.643 239.483 409.626Z" fill="#455A64"/>
<path d="M239.483 409.626C239.168 409.618 238.853 409.641 238.542 409.692C237.624 409.828 236.747 410.164 235.974 410.678C234.686 411.51 233.731 412.767 233.273 414.231C232.99 415.166 232.888 416.147 232.974 417.12C232.974 418.149 232.974 419.256 232.974 420.441C233.151 429.838 233.395 443.564 233.716 460.932V461.098H233.882L343.39 461.198H343.645V460.954C343.645 451.789 343.619 442.332 343.567 432.584C343.567 427.721 343.567 422.791 343.567 417.795C343.567 416.544 343.567 415.293 343.567 414.032C343.519 412.711 343.101 411.43 342.361 410.334C341.597 409.241 340.533 408.392 339.298 407.889C338.063 407.387 336.708 407.252 335.398 407.501C334.075 407.758 332.858 408.401 331.9 409.349C331.061 410.313 330.142 411.205 329.155 412.017C327.246 413.71 324.809 414.692 322.259 414.795C319.68 414.831 317.19 413.848 315.33 412.061C313.501 410.204 312.334 407.796 312.009 405.209C311.811 403.916 311.774 402.604 311.898 401.302C311.997 399.995 312.296 398.711 312.784 397.494C313.716 395.014 315.584 392.999 317.986 391.882C319.185 391.331 320.484 391.031 321.803 391C323.123 390.97 324.434 391.21 325.657 391.705C326.891 392.221 328.049 392.903 329.1 393.73C329.631 394.151 330.14 394.594 330.627 395.048C331.106 395.555 331.612 396.035 332.144 396.487C333.115 397.214 334.26 397.673 335.465 397.815C336.675 397.926 337.896 397.771 339.04 397.361C340.18 396.956 341.21 396.293 342.051 395.424C342.902 394.541 343.459 393.416 343.645 392.203C343.705 391.615 343.727 391.023 343.711 390.432V378.355C343.711 369.249 343.711 360.283 343.711 351.457V351.169H343.435L232.974 351.014H232.742V351.247C232.653 360.441 232.576 369.219 232.509 377.58C232.465 381.765 232.428 385.823 232.399 389.757C232.399 390.742 232.399 391.727 232.399 392.701C232.369 393.691 232.55 394.676 232.93 395.59C233.307 396.47 233.865 397.26 234.568 397.909C235.271 398.558 236.104 399.051 237.011 399.356C237.918 399.662 238.879 399.772 239.831 399.68C240.784 399.588 241.706 399.295 242.538 398.822C243.316 398.352 244.006 397.749 244.575 397.04C245.161 396.404 245.79 395.809 246.457 395.258C247.723 394.154 249.188 393.301 250.774 392.745C252.304 392.238 253.938 392.127 255.522 392.424C257.012 392.692 258.422 393.296 259.644 394.189C260.865 395.083 261.867 396.244 262.574 397.583C263.86 400.039 264.417 402.812 264.179 405.575C264.059 408.064 263.208 410.463 261.732 412.471C260.408 414.221 258.532 415.473 256.408 416.024C254.594 416.538 252.668 416.503 250.873 415.924C249.394 415.421 248.009 414.673 246.778 413.711C245.799 412.949 244.875 412.12 244.01 411.231C243.334 410.623 242.533 410.17 241.664 409.903C241.14 409.737 240.596 409.641 240.048 409.615C239.863 409.6 239.678 409.6 239.494 409.615C239.494 409.615 239.682 409.615 240.048 409.615C240.59 409.656 241.125 409.764 241.642 409.936C242.497 410.211 243.282 410.668 243.944 411.275C244.796 412.179 245.714 413.019 246.689 413.788C247.933 414.749 249.329 415.498 250.818 416.002C252.645 416.603 254.61 416.649 256.463 416.135C258.637 415.58 260.559 414.309 261.92 412.526C263.429 410.519 264.318 408.114 264.477 405.608C264.731 402.79 264.17 399.958 262.861 397.45C262.138 396.067 261.11 394.868 259.853 393.944C258.597 393.019 257.146 392.393 255.611 392.114C253.973 391.805 252.283 391.911 250.696 392.424C249.075 393.001 247.574 393.872 246.268 394.992C245.593 395.557 244.953 396.163 244.354 396.808C243.806 397.487 243.143 398.065 242.394 398.512C241.609 398.959 240.739 399.234 239.84 399.32C238.941 399.406 238.034 399.301 237.179 399.011C236.324 398.721 235.539 398.254 234.878 397.64C234.216 397.025 233.692 396.278 233.34 395.446C232.565 393.742 232.93 391.727 232.875 389.768C232.875 385.827 232.915 381.768 232.996 377.591C233.085 369.23 233.177 360.449 233.273 351.247L233.041 351.479L343.501 351.734L343.213 351.457V390.399C343.231 390.964 343.208 391.53 343.147 392.092C342.92 393.183 342.401 394.192 341.647 395.013C340.893 395.833 339.931 396.434 338.863 396.752C337.801 397.136 336.667 397.279 335.542 397.173C334.426 397.05 333.363 396.629 332.465 395.955C331.956 395.579 331.524 395.048 331.004 394.572C330.484 394.096 329.974 393.642 329.432 393.21C328.341 392.35 327.139 391.642 325.857 391.107C324.56 390.581 323.169 390.326 321.77 390.357C320.371 390.387 318.993 390.703 317.721 391.284C315.172 392.464 313.186 394.593 312.186 397.217C311.679 398.484 311.366 399.82 311.256 401.18C311.13 402.53 311.171 403.891 311.378 405.231C311.729 407.94 312.958 410.459 314.876 412.404C316.843 414.295 319.476 415.333 322.204 415.293C324.885 415.195 327.449 414.166 329.454 412.382C330.462 411.562 331.399 410.659 332.255 409.681C333.126 408.808 334.241 408.218 335.454 407.988C336.349 407.812 337.273 407.834 338.159 408.051C339.046 408.268 339.875 408.676 340.588 409.246C341.301 409.816 341.881 410.534 342.289 411.351C342.696 412.168 342.921 413.064 342.948 413.976C342.948 415.238 342.948 416.489 342.948 417.729C342.948 422.725 342.948 427.658 342.948 432.528C342.948 442.255 342.981 451.708 343.047 460.888L343.313 460.633L233.804 460.722L233.982 460.888C233.594 443.509 233.284 429.783 233.074 420.396C233.074 419.223 233.019 418.116 232.996 417.076C232.909 416.118 233.003 415.153 233.273 414.231C233.713 412.791 234.64 411.55 235.897 410.722C236.655 410.207 237.516 409.864 238.42 409.715C239.162 409.637 239.483 409.648 239.483 409.626Z" fill="#263238"/>
<path d="M6.88454 409.626C8.68884 409.626 14.3895 408.807 15.6403 410.113C17.6328 412.183 17.2011 416.577 21.2746 416.5C27.573 416.378 31.89 411.242 31.7461 404.091C31.6022 396.941 27.097 391.982 20.7986 392.103C16.7251 392.192 17.9538 398.435 15.264 399.42C13.6811 400.007 8.50064 399.498 6.69635 399.531C5.83338 399.548 4.97543 399.396 4.17158 399.081C3.36772 398.767 2.63375 398.297 2.0117 397.699C1.38966 397.1 0.891754 396.385 0.546463 395.594C0.201172 394.803 0.0152893 393.951 -0.000549316 393.088L0.397934 351.247L66.0055 351.368L110.847 351.49V391.218C110.914 394.848 107.427 397.439 103.796 397.516C102.899 397.537 102.008 397.373 101.177 397.034C100.347 396.695 99.5955 396.189 98.9698 395.546C96.9884 393.465 93.4352 390.565 89.406 390.642C83.0965 390.764 78.7905 395.9 78.9234 403.051C79.0562 410.202 83.5725 415.149 89.8819 415.028C93.9444 414.95 97.3537 411.906 99.2576 409.759C100.14 408.781 101.296 408.092 102.576 407.781C103.855 407.469 105.199 407.549 106.432 408.011C107.665 408.473 108.731 409.296 109.491 410.371C110.25 411.447 110.669 412.726 110.692 414.043L110.847 460.954H1.33883L0.442215 416.356C0.421646 415.491 0.572128 414.63 0.885048 413.823C1.19798 413.016 1.66719 412.278 2.26574 411.653C2.86429 411.028 3.58041 410.527 4.37302 410.179C5.16563 409.831 6.01913 409.643 6.88454 409.626Z" fill="#263238"/>
<path d="M13.7917 409.626C14.6869 409.604 15.5771 409.767 16.4059 410.106C17.2347 410.445 17.9841 410.953 18.6069 411.596C20.5993 413.666 24.1415 416.577 28.1818 416.5C34.4913 416.378 38.7972 411.242 38.6644 404.091C38.5315 396.941 34.0153 391.982 27.7058 392.103C23.6323 392.192 20.234 395.236 18.3301 397.383C17.7322 398.05 17.0023 398.585 16.1868 398.955C15.3713 399.324 14.4878 399.52 13.5925 399.531C12.7295 399.548 11.8715 399.396 11.0677 399.081C10.2638 398.767 9.52988 398.297 8.90783 397.699C8.28578 397.1 7.78784 396.385 7.44255 395.594C7.09727 394.803 6.91138 393.951 6.89555 393.088L7.29405 351.247L72.9127 351.335L117.754 351.457V391.218C117.832 394.848 114.334 397.439 110.703 397.516C109.808 397.537 108.918 397.373 108.09 397.034C107.261 396.695 106.512 396.188 105.888 395.546C103.907 393.465 100.353 390.565 96.3131 390.642C90.0037 390.764 85.6977 395.9 85.8416 403.051C85.9855 410.202 90.4907 415.149 96.7891 415.028C100.863 414.95 104.261 411.906 106.165 409.759C107.047 408.781 108.204 408.092 109.483 407.781C110.762 407.469 112.106 407.549 113.339 408.011C114.572 408.473 115.638 409.296 116.398 410.371C117.157 411.447 117.576 412.726 117.599 414.043L117.754 460.954H8.25707L7.34939 416.356C7.32537 414.613 7.98737 412.931 9.19257 411.672C10.3978 410.413 12.0496 409.678 13.7917 409.626Z" fill="#455A64"/>
<path d="M13.7919 409.626C13.4805 409.618 13.1692 409.641 12.8621 409.692C11.9436 409.826 11.0663 410.163 10.294 410.678C8.99955 411.505 8.0391 412.764 7.58205 414.231C7.3097 415.168 7.20844 416.147 7.28316 417.12C7.28316 418.149 7.28317 419.256 7.33852 420.441C7.51563 429.838 7.77022 443.564 8.09122 460.932V461.098H8.25726L117.755 461.198H118.02V460.954C118.02 451.789 117.991 442.332 117.932 432.584C117.932 427.721 117.932 422.791 117.932 417.795C117.932 416.544 117.932 415.293 117.932 414.032C117.905 413.037 117.662 412.06 117.22 411.169C116.777 410.278 116.145 409.494 115.368 408.873C114.592 408.251 113.689 407.806 112.722 407.569C111.756 407.332 110.75 407.309 109.774 407.501C108.45 407.755 107.232 408.399 106.276 409.349C105.433 410.31 104.515 411.202 103.531 412.017C101.618 413.713 99.1774 414.694 96.6233 414.795C94.0467 414.833 91.5599 413.85 89.705 412.061C87.872 410.206 86.7044 407.797 86.3842 405.209C86.1831 403.917 86.1422 402.604 86.2624 401.302C86.3649 399.994 86.6673 398.71 87.159 397.494C88.0869 395.015 89.9512 393 92.3505 391.882C93.5516 391.331 94.8524 391.031 96.1733 391.001C97.4942 390.97 98.8075 391.21 100.033 391.705C101.263 392.222 102.417 392.903 103.464 393.73C103.995 394.151 104.505 394.594 104.992 395.048C105.479 395.502 105.921 396.044 106.508 396.487C107.48 397.213 108.625 397.671 109.829 397.815C111.036 397.927 112.253 397.772 113.393 397.361C114.533 396.956 115.563 396.293 116.404 395.424C117.256 394.541 117.813 393.416 117.998 392.203C118.064 391.615 118.086 391.023 118.064 390.432V351.169H117.777L7.31636 351.014H7.08392V351.247C7.01012 360.441 6.93265 369.219 6.85147 377.58C6.85147 381.765 6.81827 385.823 6.75185 389.757V392.701C6.72566 393.692 6.91055 394.676 7.29424 395.59C7.66974 396.469 8.22683 397.26 8.92902 397.908C9.63121 398.557 10.4626 399.051 11.3688 399.356C12.2749 399.661 13.2353 399.771 14.1871 399.679C15.1388 399.587 16.0603 399.295 16.8913 398.822C17.672 398.356 18.362 397.752 18.9281 397.04C19.5167 396.407 20.1452 395.811 20.8098 395.258C22.0791 394.158 23.5434 393.306 25.1268 392.745C26.657 392.238 28.291 392.127 29.8755 392.424C31.3655 392.692 32.7749 393.296 33.9967 394.189C35.2185 395.083 36.2205 396.244 36.9267 397.583C38.2131 400.039 38.77 402.812 38.5317 405.575C38.412 408.064 37.5611 410.463 36.0854 412.471C34.7656 414.22 32.8932 415.473 30.7722 416.024C28.9579 416.538 27.0321 416.503 25.2375 415.924C23.7546 415.421 22.3665 414.673 21.1308 413.711C20.1533 412.952 19.2322 412.123 18.3746 411.231C17.274 410.253 15.8712 409.683 14.4007 409.615C14.2165 409.6 14.0314 409.6 13.8472 409.615C13.8472 409.615 14.0354 409.615 14.4007 409.615C14.9469 409.655 15.486 409.763 16.0057 409.936C16.8561 410.214 17.6373 410.671 18.2971 411.275C19.1523 412.176 20.0696 413.016 21.0423 413.788C22.2905 414.749 23.6894 415.498 25.1822 416.002C27.0056 416.604 28.9667 416.65 30.8164 416.135C32.9924 415.586 34.9169 414.314 36.2736 412.526C37.7876 410.486 38.669 408.045 38.8085 405.508C39.0513 402.691 38.491 399.862 37.1924 397.35C36.4664 395.968 35.4353 394.769 34.1771 393.845C32.919 392.92 31.4669 392.295 29.9309 392.015C28.2925 391.705 26.6027 391.812 25.0162 392.325C23.3946 392.9 21.8934 393.771 20.5884 394.893C19.9077 395.452 19.2677 396.058 18.6734 396.708C18.1237 397.385 17.4609 397.962 16.7142 398.413C15.9403 398.849 15.0849 399.121 14.2013 399.213C13.3178 399.304 12.4248 399.213 11.578 398.944C10.7047 398.661 9.90263 398.194 9.22643 397.573C8.55022 396.952 8.01577 396.193 7.65951 395.347C6.88466 393.642 7.23888 391.627 7.18353 389.668C7.22781 385.727 7.27209 381.669 7.31636 377.492C7.40491 369.131 7.49349 360.349 7.58205 351.147L7.34957 351.379L117.81 351.634L117.533 351.357C117.533 360.168 117.533 369.138 117.533 378.267V390.299C117.554 390.864 117.536 391.43 117.478 391.993C117.259 393.084 116.749 394.096 116.003 394.922C115.257 395.748 114.302 396.357 113.238 396.686C112.176 397.071 111.042 397.214 109.917 397.107C108.8 396.987 107.737 396.566 106.84 395.889C106.325 395.455 105.834 394.993 105.368 394.505C104.867 394.025 104.343 393.571 103.796 393.144C102.706 392.283 101.503 391.576 100.221 391.041C98.9258 390.515 97.5372 390.26 96.1401 390.291C94.743 390.321 93.3668 390.637 92.0959 391.218C89.5453 392.394 87.5581 394.525 86.5613 397.151C86.0496 398.416 85.736 399.753 85.6315 401.114C85.5001 402.464 85.541 403.825 85.7533 405.165C86.0952 407.877 87.3251 410.399 89.2511 412.338C91.2148 414.226 93.8438 415.265 96.5679 415.227C99.2532 415.13 101.821 414.101 103.829 412.316C104.831 411.493 105.764 410.589 106.619 409.615C107.492 408.744 108.606 408.154 109.818 407.921C110.714 407.748 111.637 407.771 112.524 407.989C113.41 408.207 114.238 408.615 114.952 409.184C115.665 409.753 116.247 410.471 116.656 411.287C117.066 412.102 117.293 412.997 117.323 413.91C117.323 415.172 117.323 416.423 117.323 417.662C117.323 422.658 117.341 427.591 117.378 432.462C117.378 442.188 117.415 451.641 117.489 460.821L117.743 460.567L8.24618 460.655L8.41224 460.821C8.02482 443.443 7.72591 429.717 7.5156 420.33C7.5156 419.157 7.46028 418.05 7.43814 417.009C7.35288 416.053 7.4429 415.089 7.7038 414.164C8.14732 412.727 9.07415 411.487 10.3272 410.655C11.0894 410.14 11.9543 409.797 12.8621 409.648C13.4709 409.637 13.7919 409.648 13.7919 409.626Z" fill="#263238"/>
<path d="M441.287 392.989C441.319 394.722 442.035 396.373 443.28 397.579C444.524 398.786 446.195 399.452 447.929 399.431C448.825 399.42 449.709 399.223 450.525 398.851C451.34 398.479 452.07 397.942 452.666 397.273C454.57 395.125 457.968 392.081 462.042 392.004C468.34 391.882 472.857 396.841 472.989 403.992C473.122 411.143 468.827 416.268 462.518 416.39C458.444 416.478 454.924 413.567 452.943 411.497C452.333 410.865 451.599 410.364 450.789 410.025C449.978 409.686 449.106 409.517 448.227 409.527C447.364 409.542 446.513 409.728 445.722 410.074C444.931 410.419 444.216 410.917 443.617 411.539C443.019 412.161 442.549 412.895 442.235 413.699C441.92 414.503 441.768 415.361 441.785 416.224L442.682 460.822H343.523L343.368 413.965C343.336 412.232 342.62 410.582 341.376 409.375C340.131 408.168 338.46 407.502 336.727 407.523C335.826 407.541 334.94 407.747 334.124 408.129C333.308 408.51 332.581 409.058 331.989 409.737C330.085 411.884 326.687 414.928 322.613 415.006C316.315 415.128 311.799 410.169 311.666 403.018C311.533 395.867 315.839 390.742 322.137 390.62C326.211 390.532 329.731 393.443 331.712 395.513C332.334 396.158 333.084 396.666 333.913 397.005C334.742 397.344 335.632 397.507 336.527 397.483C340.158 397.417 343.656 394.816 343.579 391.185V351.369H441.686L441.287 392.989Z" fill="#455A64"/>
<path d="M441.287 392.989C441.287 392.989 441.287 392.756 441.287 392.291C441.287 391.827 441.287 391.118 441.287 390.21C441.287 388.373 441.354 385.65 441.398 382.119C441.586 375.012 441.675 364.651 441.83 351.368V351.213H441.675L343.468 351.114H343.224V351.368C343.224 361.227 343.224 371.496 343.224 382.174V390.244C343.253 390.906 343.22 391.569 343.125 392.225C343.005 392.862 342.764 393.471 342.416 394.018C341.684 395.126 340.64 395.992 339.417 396.509C338.195 397.055 336.851 397.269 335.52 397.129C334.181 396.973 332.931 396.378 331.967 395.435C330.056 393.289 327.629 391.666 324.916 390.72C324.195 390.505 323.452 390.372 322.702 390.321C321.962 390.29 321.221 390.327 320.488 390.432C319.024 390.642 317.623 391.167 316.382 391.97C313.902 393.658 312.182 396.248 311.589 399.188C310.95 402.132 311.133 405.196 312.12 408.043C312.616 409.486 313.411 410.809 314.452 411.924C315.494 413.04 316.758 413.924 318.164 414.519C319.592 415.082 321.123 415.342 322.658 415.282C324.212 415.196 325.726 414.757 327.085 413.998C328.425 413.253 329.661 412.333 330.76 411.264C331.314 410.744 331.867 410.157 332.332 409.626C332.854 409.118 333.461 408.706 334.126 408.408C335.472 407.814 336.985 407.709 338.4 408.114C339.816 408.518 341.045 409.406 341.874 410.622C342.701 411.862 343.09 413.342 342.981 414.829C342.981 416.367 342.981 417.917 342.981 419.455C342.981 433.558 343.07 447.416 343.125 460.899V461.187H343.402H442.56H442.815V460.932C442.601 450.837 442.398 441.184 442.206 431.975C442.11 427.385 442.014 422.909 441.918 418.548C441.851 417.479 441.851 416.407 441.918 415.338C442.041 414.315 442.422 413.339 443.025 412.504C443.613 411.679 444.39 411.007 445.292 410.545C446.193 410.083 447.192 409.843 448.205 409.847C449.194 409.845 450.169 410.076 451.05 410.523C451.487 410.738 451.895 411.006 452.268 411.32C452.633 411.629 452.965 412.006 453.375 412.36C454.772 413.754 456.397 414.9 458.179 415.747C459.895 416.535 461.795 416.834 463.67 416.611C465.545 416.389 467.322 415.653 468.805 414.485C470.172 413.363 471.253 411.933 471.96 410.312C472.621 408.761 472.996 407.104 473.067 405.42C473.327 402.28 472.549 399.142 470.853 396.487C469.347 394.271 467.03 392.737 464.403 392.213C461.775 391.689 459.047 392.218 456.806 393.686C455.037 394.853 453.438 396.262 452.058 397.87C450.871 398.897 449.354 399.462 447.785 399.462C446.216 399.462 444.699 398.897 443.512 397.87C442.748 397.219 442.149 396.396 441.763 395.468C441.446 394.712 441.263 393.907 441.221 393.088C441.221 393.088 441.221 393.299 441.221 393.708C441.286 394.324 441.435 394.927 441.664 395.502C442.089 396.417 442.717 397.223 443.501 397.859C444.712 398.918 446.265 399.502 447.873 399.502C449.482 399.502 451.035 398.918 452.246 397.859C453.628 396.272 455.222 394.883 456.983 393.73C459.174 392.305 461.837 391.797 464.398 392.317C466.96 392.837 469.214 394.342 470.676 396.509C472.349 399.104 473.126 402.175 472.89 405.254C472.852 406.942 472.459 408.603 471.737 410.129C471.014 411.654 469.977 413.011 468.695 414.109C467.258 415.225 465.543 415.927 463.736 416.137C461.93 416.348 460.099 416.06 458.445 415.304C456.704 414.471 455.117 413.348 453.751 411.984C453.397 411.652 453.076 411.275 452.644 410.932C452.249 410.596 451.814 410.31 451.349 410.08C450.413 409.604 449.377 409.358 448.327 409.36C446.692 409.349 445.109 409.93 443.869 410.997C442.63 412.063 441.819 413.542 441.586 415.161C441.523 416.267 441.523 417.375 441.586 418.481C441.675 422.843 441.763 427.322 441.852 431.919C442.029 441.122 442.217 450.774 442.416 460.877L442.66 460.622H343.501L343.789 460.91C343.789 447.416 343.7 433.569 343.656 419.455C343.656 417.917 343.656 416.378 343.656 414.84C343.759 413.239 343.335 411.649 342.45 410.312C341.542 408.985 340.197 408.018 338.649 407.581C337.102 407.144 335.45 407.265 333.982 407.921C333.253 408.241 332.589 408.691 332.022 409.25C331.469 409.825 331.004 410.357 330.451 410.877C329.393 411.918 328.198 412.808 326.897 413.522C325.619 414.235 324.196 414.651 322.735 414.74C321.28 414.797 319.829 414.552 318.474 414.02C317.141 413.457 315.943 412.618 314.957 411.559C313.971 410.501 313.219 409.246 312.751 407.877C311.804 405.144 311.628 402.203 312.242 399.376C312.8 396.577 314.433 394.11 316.791 392.502C317.968 391.747 319.293 391.252 320.676 391.052C321.362 390.954 322.054 390.917 322.746 390.941C323.433 390.994 324.112 391.12 324.772 391.317C327.404 392.233 329.756 393.811 331.602 395.9C332.655 396.917 334.011 397.562 335.465 397.738C336.896 397.891 338.343 397.666 339.66 397.084C340.984 396.523 342.109 395.578 342.892 394.372C343.274 393.766 343.541 393.094 343.678 392.391C343.78 391.702 343.817 391.006 343.789 390.31C343.789 387.602 343.789 384.912 343.789 382.241C343.789 371.585 343.789 361.316 343.789 351.435L343.534 351.689L441.741 351.59L441.586 351.435C441.486 364.718 441.409 375.101 441.365 382.207C441.365 385.738 441.365 388.461 441.365 390.299V392.325C441.276 392.756 441.287 392.989 441.287 392.989Z" fill="#263238"/>
<path d="M447.674 409.626C448.512 409.608 449.343 409.775 450.108 410.116C450.874 410.457 451.554 410.962 452.102 411.596C453.917 413.666 457.127 416.577 460.847 416.5C466.614 416.378 470.554 411.242 470.433 404.091C470.311 396.941 466.16 391.982 460.404 392.103C456.684 392.192 453.574 395.236 451.836 397.383C451.315 398.035 450.657 398.565 449.91 398.936C449.162 399.307 448.342 399.51 447.508 399.531C446.682 399.511 445.869 399.328 445.113 398.993C444.358 398.659 443.677 398.178 443.107 397.58C442.538 396.982 442.092 396.277 441.794 395.507C441.497 394.736 441.355 393.914 441.376 393.088L441.741 351.247L501.736 351.335L519.447 351.457V460.954H442.627L441.796 416.356C441.69 414.686 442.248 413.041 443.349 411.78C444.45 410.52 446.005 409.745 447.674 409.626Z" fill="#455A64"/>
<path d="M447.674 409.626H447.431C447.192 409.626 446.955 409.652 446.722 409.704C445.802 409.857 444.934 410.237 444.198 410.811C443 411.788 442.176 413.148 441.863 414.663C441.701 415.624 441.653 416.601 441.719 417.574C441.719 418.614 441.719 419.721 441.719 420.895C441.874 430.281 442.095 443.897 442.372 460.877V461.054H442.56L519.381 461.131H519.647V460.954C519.647 434.477 519.647 405.154 519.647 374.348V351.169H519.359C505.367 351.048 491.785 351.036 478.79 351.025H441.652H441.409V351.28C441.342 360.025 441.276 368.426 441.21 376.418C441.21 380.425 441.21 384.322 441.121 388.107C441.121 390.011 441.055 391.86 441.121 393.731C441.221 394.666 441.51 395.571 441.971 396.391C442.431 397.211 443.053 397.929 443.8 398.501C444.879 399.344 446.22 399.78 447.588 399.733C448.955 399.687 450.263 399.16 451.283 398.247C451.947 397.649 452.39 396.941 452.987 396.354C454.075 395.15 455.349 394.13 456.762 393.332C458.105 392.564 459.646 392.21 461.19 392.314C462.646 392.41 464.055 392.865 465.293 393.637C466.531 394.41 467.559 395.476 468.285 396.741C469.643 399.098 470.325 401.783 470.255 404.501C470.301 406.926 469.737 409.324 468.617 411.475C467.633 413.375 466.022 414.877 464.057 415.725C462.361 416.45 460.474 416.594 458.688 416.135C457.214 415.697 455.844 414.967 454.659 413.987C453.706 413.228 452.824 412.383 452.024 411.464C451.409 410.807 450.652 410.3 449.81 409.98C449.302 409.793 448.769 409.681 448.228 409.648C448.043 409.634 447.858 409.634 447.674 409.648C448.397 409.662 449.113 409.8 449.788 410.058C450.607 410.39 451.34 410.9 451.936 411.552C452.733 412.484 453.611 413.343 454.559 414.12C455.754 415.125 457.14 415.877 458.633 416.334C460.469 416.822 462.414 416.689 464.167 415.958C466.19 415.098 467.852 413.565 468.872 411.619C470.023 409.426 470.602 406.977 470.554 404.501C470.626 401.747 469.945 399.026 468.584 396.631C467.831 395.351 466.802 394.254 465.573 393.421C464.283 392.548 462.778 392.046 461.223 391.971C459.604 391.846 457.985 392.209 456.574 393.011C455.108 393.816 453.784 394.855 452.655 396.088C452.058 396.686 451.548 397.417 450.973 397.948C450.332 398.502 449.575 398.906 448.759 399.132C447.941 399.36 447.08 399.392 446.247 399.224C445.414 399.057 444.633 398.695 443.966 398.169C443.283 397.618 442.72 396.933 442.31 396.157C441.901 395.38 441.655 394.528 441.586 393.653C441.52 391.86 441.586 389.956 441.586 388.119C441.586 384.333 441.664 380.436 441.708 376.429C441.782 368.437 441.859 360.058 441.94 351.291L441.686 351.546L478.823 351.623C491.818 351.623 505.389 351.623 519.392 351.789L519.104 351.501V374.359C519.104 405.165 519.104 434.488 519.104 460.965L519.37 460.7L442.549 460.777L442.737 460.965C442.383 443.996 442.095 430.37 441.907 420.983C441.907 419.81 441.907 418.703 441.83 417.662C441.756 416.702 441.797 415.736 441.951 414.784C442.231 413.302 443.013 411.961 444.165 410.988C444.882 410.399 445.728 409.989 446.634 409.792C447.353 409.637 447.674 409.648 447.674 409.626Z" fill="#263238"/>
<path opacity="0.3" d="M441.708 460.954C441.708 460.954 435.465 393.211 432.509 384.576C429.554 375.942 403.098 368.083 403.098 368.083L396.058 361.763L393.424 355.542V351.369H372.957L370.366 460.954H441.708Z" fill="black"/>
<path d="M313.05 310.81L309.076 302.663C311.581 295.849 311.447 288.345 308.699 281.624C305.952 274.904 300.79 269.455 294.229 266.348C287.667 263.24 280.181 262.7 273.241 264.833C266.301 266.966 260.41 271.617 256.726 277.873C253.042 284.129 251.831 291.537 253.332 298.64C254.833 305.743 258.937 312.028 264.836 316.259C270.736 320.49 278.005 322.361 285.214 321.505C292.424 320.648 299.052 317.125 303.796 311.63L313.05 310.81Z" fill="white"/>
<path d="M313.05 310.811H312.419L310.637 310.955L303.774 311.53L303.895 311.707L304.305 310.877L303.685 311.574C300.536 315.177 296.548 317.948 292.073 319.644C286.521 321.73 280.459 322.049 274.718 320.558C268.977 319.068 263.836 315.839 260 311.315C256.164 306.79 253.82 301.191 253.288 295.284C252.756 289.376 254.062 283.448 257.028 278.311L257.936 276.795L258.943 275.4L259.452 274.692L260.039 274.039L261.246 272.777C265.992 267.926 272.284 264.888 279.034 264.187C283.876 263.728 288.755 264.499 293.219 266.43C297.683 268.36 301.587 271.387 304.569 275.23C307.55 279.073 309.512 283.606 310.273 288.41C311.034 293.214 310.569 298.132 308.921 302.708L311.932 308.663L312.718 310.213L313.005 310.755C313.005 310.755 312.939 310.589 312.773 310.246C312.607 309.903 312.363 309.361 312.054 308.696L309.187 302.664V302.763C310.879 298.236 311.408 293.357 310.725 288.572C309.65 281.134 305.756 274.393 299.848 269.746C293.941 265.1 286.472 262.903 278.99 263.611C272.104 264.317 265.68 267.401 260.825 272.334L259.641 273.662L259.054 274.326L258.523 275.057L257.416 276.496L256.486 278.046C254.305 281.804 252.99 286.001 252.636 290.332C252.282 294.662 252.897 299.017 254.438 303.08C255.978 307.143 258.405 310.811 261.541 313.818C264.678 316.825 268.445 319.095 272.569 320.463C278.056 322.298 283.966 322.449 289.539 320.897C295.112 319.344 300.093 316.159 303.84 311.752L303.641 311.619L303.552 311.818H303.763L310.692 311.076L312.441 310.888L313.05 310.811Z" fill="#263238"/>
<path d="M270 292.936L273.139 289.886L279.194 295.114L291.083 284L294 287.051L278.75 301L270 292.936Z" fill="#3780EF"/>
<path d="M344.608 692.39L345.538 716.798C345.538 716.798 321.042 725.93 320.765 730.458L368.153 730.358L368.275 692.28L344.608 692.39Z" fill="#263238"/>
<path d="M360.183 714.717C360.641 714.854 361.032 715.157 361.28 715.566C361.527 715.975 361.614 716.462 361.522 716.931C361.402 717.4 361.103 717.804 360.69 718.056C360.276 718.308 359.781 718.389 359.308 718.282C358.824 718.135 358.411 717.814 358.149 717.38C357.888 716.947 357.796 716.432 357.892 715.935C358.077 715.475 358.432 715.104 358.883 714.898C359.334 714.692 359.847 714.667 360.316 714.828" fill="#E0E0E0"/>
<path d="M368.153 730.358L368.02 726.528L322.636 728.056C322.636 728.056 320.533 728.975 320.765 730.458L368.153 730.358Z" fill="#455A64"/>
<path d="M344.763 716.555C344.763 716.787 345.925 716.887 347.066 717.662C348.206 718.437 348.814 719.378 349.036 719.289C349.257 719.2 348.892 717.861 347.497 716.987C346.102 716.112 344.719 716.345 344.763 716.555Z" fill="white"/>
<path d="M339.749 718.625C339.694 718.846 340.69 719.234 341.487 720.219C342.284 721.204 342.494 722.222 342.727 722.211C342.959 722.2 343.103 720.894 342.107 719.698C341.111 718.503 339.749 718.403 339.749 718.625Z" fill="white"/>
<path d="M336.993 724.58C337.203 724.58 337.524 723.473 336.926 722.2C336.329 720.927 335.244 720.44 335.144 720.628C335.045 720.817 335.72 721.492 336.196 722.543C336.672 723.595 336.76 724.558 336.993 724.58Z" fill="white"/>
<path d="M345.173 710.976C345.273 711.186 346.28 710.865 347.641 710.976C349.003 711.087 349.966 711.474 350.088 711.275C350.209 711.075 349.224 710.256 347.686 710.168C346.147 710.079 345.062 710.788 345.173 710.976Z" fill="white"/>
<path d="M402.612 689.07L405.18 718.503L400.497 742.379C400.417 742.787 400.421 743.206 400.509 743.612C400.598 744.017 400.769 744.4 401.012 744.737C401.255 745.073 401.565 745.356 401.922 745.567C402.279 745.779 402.676 745.915 403.088 745.966C403.566 746.026 404.051 745.971 404.504 745.806C404.956 745.64 405.363 745.369 405.689 745.014C409.906 740.409 425.359 723.396 425.049 721.248C424.695 718.769 424.407 690.022 424.407 690.022L402.612 689.07Z" fill="#263238"/>
<path d="M403.087 745.966L424.927 719.256L425.004 720.507C425.073 721.587 424.759 722.656 424.119 723.529C422.381 725.842 417.477 732.152 405.777 745.003C405.444 745.374 405.023 745.656 404.554 745.824C404.084 745.992 403.58 746.041 403.087 745.966Z" fill="#455A64"/>
<g opacity="0.6">
<path d="M418.264 710.135C417.916 710.425 417.689 710.833 417.626 711.281C417.562 711.729 417.667 712.184 417.92 712.559C418.198 712.912 418.6 713.145 419.044 713.213C419.488 713.281 419.941 713.178 420.311 712.924C420.677 712.616 420.916 712.182 420.981 711.708C421.047 711.234 420.934 710.752 420.666 710.356C420.338 710.014 419.891 709.813 419.418 709.794C418.946 709.776 418.484 709.941 418.131 710.256" fill="white"/>
</g>
<path d="M408.998 732.649C408.295 731.709 407.351 730.975 406.266 730.525C405.181 730.075 403.995 729.926 402.833 730.092C402.833 730.015 403.154 729.76 403.84 729.616C404.743 729.455 405.674 729.559 406.519 729.915C407.361 730.267 408.087 730.85 408.611 731.598C408.998 732.151 409.065 732.616 408.998 732.649Z" fill="white"/>
<path d="M407.15 736.734C406.276 736.312 405.378 735.942 404.46 735.627C403.494 735.511 402.522 735.448 401.549 735.439C401.987 735.129 402.492 734.928 403.023 734.851C403.554 734.774 404.096 734.823 404.604 734.996C406.375 735.395 407.271 736.645 407.15 736.734Z" fill="white"/>
<path d="M412.585 727.336C411.29 726.576 409.939 725.913 408.545 725.355C406.187 724.58 404.117 724.813 404.117 724.613C405.643 724.211 407.252 724.253 408.754 724.736C410.257 725.218 411.59 726.121 412.596 727.336H412.585Z" fill="white"/>
<path d="M412.552 718.326C412.485 718.503 410.814 717.927 408.688 717.983C406.563 718.038 404.914 718.658 404.836 718.481C405.949 717.676 407.307 717.285 408.677 717.374C410.041 717.221 411.414 717.559 412.552 718.326Z" fill="white"/>
<path d="M412.021 709.658C410.708 709.327 409.356 709.175 408.002 709.205C405.789 709.404 404.272 710.599 404.15 710.433C404.029 710.267 404.405 709.991 405.058 709.548C405.927 708.998 406.913 708.661 407.936 708.563C408.962 708.45 409.999 708.591 410.958 708.972C411.7 709.271 412.054 709.592 412.021 709.658Z" fill="white"/>
<path d="M407.947 707.556C407.83 707.199 407.792 706.822 407.836 706.449C407.868 705.42 408.105 704.408 408.533 703.471C408.789 702.761 409.271 702.154 409.906 701.744C410.126 701.625 410.378 701.578 410.626 701.61C410.874 701.642 411.106 701.751 411.29 701.922C411.63 702.273 411.827 702.739 411.843 703.228C411.839 704.222 411.489 705.184 410.853 705.947C410.216 706.711 409.333 707.229 408.356 707.412C407.385 707.575 406.388 707.445 405.491 707.039C404.594 706.633 403.838 705.969 403.32 705.132C403.191 704.921 403.109 704.686 403.079 704.442C403.048 704.198 403.07 703.95 403.143 703.715C403.242 703.484 403.413 703.291 403.63 703.163C403.847 703.036 404.099 702.981 404.349 703.006C405.085 703.117 405.78 703.419 406.364 703.881C407.209 704.484 407.94 705.234 408.522 706.095C408.762 706.384 408.939 706.719 409.042 707.08C408.201 706.022 407.214 705.091 406.109 704.313C405.585 703.932 404.978 703.682 404.338 703.582C404.201 703.568 404.062 703.598 403.943 703.668C403.824 703.737 403.729 703.843 403.674 703.969C403.639 704.128 403.636 704.293 403.667 704.453C403.697 704.612 403.76 704.764 403.851 704.899C404.323 705.614 404.993 706.177 405.779 706.519C406.565 706.861 407.433 706.967 408.279 706.825C409.104 706.664 409.85 706.228 410.397 705.589C410.943 704.95 411.258 704.145 411.29 703.305C411.284 702.969 411.163 702.644 410.946 702.386C410.847 702.29 410.72 702.227 410.584 702.205C410.447 702.184 410.307 702.204 410.183 702.265C409.648 702.615 409.235 703.121 408.998 703.715C408.427 704.924 408.072 706.224 407.947 707.556Z" fill="white"/>
<path d="M321.784 486.657C319.497 496.774 318.724 507.175 319.492 517.518C319.99 524.071 342.129 705.486 342.129 705.486H372.016L363.614 535.019L366.061 535.539C366.061 535.539 382.366 608.264 383.705 620.042C384.901 630.624 398.649 707.489 398.649 707.489L425.956 707.799L417.234 606.095L407.083 508.552L403.264 480.148L321.784 486.657Z" fill="#263238"/>
<path d="M364.688 523.407C364.688 523.407 364.633 523.496 364.5 523.617C364.282 523.779 364.033 523.896 363.769 523.961C363.276 524.062 362.767 524.054 362.278 523.938C361.788 523.821 361.33 523.598 360.936 523.285C360.375 522.803 359.915 522.214 359.582 521.553C359.25 520.892 359.051 520.171 358.998 519.433C358.788 517.806 358.755 516.057 358.633 514.209C358.434 510.523 358.279 507.18 358.201 504.755C358.096 503.451 358.096 502.141 358.201 500.837C358.436 502.124 358.572 503.426 358.611 504.733C358.799 507.146 359.01 510.489 359.209 514.175C359.331 516.013 359.353 517.795 359.53 519.356C359.6 520.727 360.195 522.019 361.19 522.964C361.537 523.261 361.941 523.482 362.377 523.616C362.813 523.749 363.272 523.791 363.725 523.739C364.058 523.666 364.381 523.555 364.688 523.407Z" fill="#455A64"/>
<path d="M408.644 505.873C408.385 506.024 408.099 506.125 407.803 506.172C407.022 506.372 406.226 506.505 405.423 506.571C402.739 506.806 400.038 506.405 397.538 505.401C395.037 504.398 392.809 502.819 391.033 500.793C390.495 500.19 390.01 499.541 389.583 498.856C389.406 498.615 389.271 498.345 389.185 498.059C389.273 498.059 389.937 499.077 391.332 500.516C393.149 502.39 395.335 503.868 397.752 504.855C400.175 505.818 402.773 506.263 405.379 506.161C407.405 506.084 408.622 505.774 408.644 505.873Z" fill="#455A64"/>
<path d="M333.683 498.28C333.693 499.297 333.539 500.31 333.229 501.28C332.603 503.644 331.59 505.888 330.23 507.921C328.867 509.969 327.177 511.779 325.226 513.279C324.451 513.933 323.582 514.467 322.647 514.862C322.503 514.707 326.632 512.349 329.743 507.6C331.542 504.722 332.872 501.576 333.683 498.28Z" fill="#455A64"/>
<path d="M336.55 304.966C335.194 305.031 333.862 304.596 332.807 303.743C331.751 302.89 331.045 301.679 330.824 300.34C330.603 299.001 330.881 297.628 331.606 296.481C332.331 295.333 333.452 294.493 334.757 294.118C333.95 293.212 333.451 292.073 333.332 290.865C333.214 289.658 333.481 288.443 334.096 287.397C334.712 286.351 335.643 285.528 336.756 285.045C337.869 284.562 339.107 284.444 340.291 284.709C340.4 283.526 340.814 282.391 341.493 281.415C342.172 280.439 343.092 279.656 344.163 279.142C345.235 278.628 346.422 278.4 347.607 278.482C348.793 278.563 349.938 278.951 350.929 279.606C352.32 278.59 354.011 278.067 355.733 278.119C357.455 278.171 359.11 278.796 360.437 279.894C361.596 279.765 362.766 280.004 363.78 280.579C364.794 281.153 365.601 282.033 366.086 283.093C366.57 284.153 366.708 285.339 366.479 286.482C366.25 287.625 365.666 288.667 364.81 289.458" fill="#263238"/>
<path d="M361.312 285.396L360.095 285.34C354.221 285.054 348.454 286.99 343.942 290.762C339.43 294.533 336.503 299.865 335.742 305.697C334.27 316.954 332.787 329.407 332.554 335.473C332.089 348.037 344.553 350.616 344.553 350.616L342.738 365.648L373.256 366.212L378.669 311.641C380.407 298.668 374.33 286.812 361.312 285.396Z" fill="#AE7461"/>
<path d="M344.409 350.594C350.241 350.884 356.033 349.497 361.102 346.598C361.102 346.598 356.785 355.453 344.309 353.682L344.409 350.594Z" fill="#6F4439"/>
<path d="M338.753 317.275C338.722 317.743 338.877 318.203 339.184 318.558C339.49 318.912 339.924 319.131 340.391 319.168C340.618 319.199 340.848 319.184 341.069 319.124C341.29 319.064 341.496 318.96 341.676 318.818C341.856 318.677 342.005 318.5 342.115 318.3C342.225 318.1 342.294 317.879 342.317 317.651C342.345 317.183 342.19 316.723 341.884 316.368C341.578 316.012 341.146 315.79 340.679 315.747C340.452 315.718 340.221 315.735 340 315.796C339.779 315.858 339.573 315.962 339.394 316.105C339.214 316.247 339.065 316.424 338.955 316.625C338.845 316.826 338.776 317.047 338.753 317.275Z" fill="#263238"/>
<path d="M338.099 311.973C338.31 312.216 339.716 311.275 341.653 311.375C343.59 311.475 344.973 312.482 345.162 312.294C345.35 312.106 345.062 311.751 344.475 311.275C343.668 310.657 342.691 310.301 341.675 310.257C340.67 310.204 339.674 310.472 338.83 311.021C338.221 311.452 338 311.862 338.099 311.973Z" fill="#263238"/>
<path d="M356.607 317.762C356.58 318.229 356.736 318.688 357.042 319.041C357.348 319.395 357.78 319.615 358.246 319.655C358.471 319.684 358.7 319.669 358.92 319.61C359.139 319.551 359.345 319.449 359.525 319.31C359.705 319.171 359.855 318.998 359.968 318.801C360.081 318.603 360.154 318.386 360.183 318.16C360.217 317.692 360.067 317.229 359.765 316.87C359.464 316.51 359.034 316.282 358.567 316.234C358.337 316.202 358.103 316.216 357.879 316.276C357.655 316.335 357.446 316.44 357.263 316.582C357.08 316.725 356.928 316.903 356.815 317.105C356.703 317.308 356.632 317.531 356.607 317.762Z" fill="#263238"/>
<path d="M357.05 313.268C357.261 313.523 358.666 312.582 360.592 312.681C362.519 312.781 363.913 313.788 364.112 313.589C364.312 313.39 364.013 313.058 363.415 312.582C362.613 311.962 361.639 311.606 360.626 311.563C359.62 311.505 358.622 311.773 357.781 312.327C357.172 312.748 356.94 313.168 357.05 313.268Z" fill="#263238"/>
<path d="M349.335 327.237C348.333 326.868 347.288 326.626 346.225 326.518C345.738 326.44 345.273 326.319 345.206 325.976C345.198 325.466 345.341 324.965 345.616 324.537C346.136 323.363 346.723 322.134 347.254 320.85C349.545 315.615 351.228 311.298 351.018 311.198C350.807 311.098 348.804 315.283 346.49 320.529L344.907 324.227C344.566 324.807 344.441 325.489 344.553 326.153C344.615 326.331 344.717 326.492 344.851 326.625C344.986 326.757 345.149 326.857 345.328 326.916C345.597 327.005 345.876 327.057 346.158 327.071C347.206 327.258 348.273 327.314 349.335 327.237Z" fill="#263238"/>
<path d="M355.744 305.763C355.976 306.272 357.648 305.763 359.696 305.852C361.743 305.94 363.426 306.317 363.636 305.852C363.736 305.608 363.393 305.154 362.673 304.745C361.751 304.225 360.71 303.951 359.651 303.948C358.605 303.934 357.574 304.198 356.663 304.712C355.965 305.077 355.644 305.531 355.744 305.763Z" fill="#263238"/>
<path d="M338.398 304.014C338.786 304.468 340.402 304.091 342.317 304.169C344.232 304.246 345.837 304.634 346.235 304.169C346.413 303.948 346.18 303.494 345.494 303.062C344.536 302.513 343.457 302.211 342.353 302.184C341.25 302.157 340.157 302.406 339.173 302.907C338.476 303.35 338.232 303.77 338.398 304.014Z" fill="#263238"/>
<path d="M337.203 299.996C337.203 299.996 340.9 292.247 344.785 290.653C349.49 288.661 351.206 293.797 355.644 292.79C360.083 291.782 364.566 289.867 368.872 293.476C373.577 297.417 371.152 299.896 371.186 305.486C371.285 328.134 375.093 334.72 376.798 324.149C376.986 323.042 380.262 322.223 380.982 317.319C381.923 310.965 382.554 303.228 381.358 298.623C380.34 294.738 378.303 291.982 374.54 288.893C368.607 283.99 360.15 283.469 354.36 283.768C348.571 284.067 337.17 290.122 337.203 299.996Z" fill="#263238"/>
<path d="M376.012 323.762C376.05 323.302 376.181 322.854 376.397 322.447C376.613 322.039 376.91 321.679 377.269 321.389C377.628 321.1 378.042 320.886 378.486 320.761C378.931 320.636 379.396 320.602 379.853 320.662C382.189 321.005 384.724 322.455 384.281 327.304C383.584 335.871 375.127 333.403 375.127 333.148C375.127 332.894 375.691 327.348 376.012 323.762Z" fill="#AE7461"/>
<path d="M377.307 330.071C377.307 330.071 377.44 330.182 377.683 330.326C378.025 330.503 378.421 330.542 378.79 330.436C379.72 330.182 380.605 328.809 380.772 327.26C380.858 326.513 380.775 325.756 380.528 325.046C380.468 324.772 380.344 324.516 380.165 324.3C379.985 324.084 379.757 323.915 379.499 323.806C379.329 323.748 379.145 323.751 378.978 323.814C378.811 323.876 378.67 323.995 378.58 324.149C378.447 324.382 378.491 324.548 378.447 324.559C378.403 324.57 378.27 324.404 378.369 324.061C378.432 323.852 378.565 323.672 378.746 323.551C378.87 323.47 379.01 323.414 379.156 323.387C379.303 323.36 379.453 323.364 379.598 323.396C379.944 323.496 380.259 323.683 380.513 323.939C380.767 324.194 380.951 324.511 381.048 324.858C381.345 325.629 381.455 326.46 381.369 327.282C381.17 329.008 380.152 330.602 378.89 330.802C378.654 330.851 378.41 330.847 378.177 330.79C377.943 330.732 377.725 330.623 377.539 330.47C377.307 330.337 377.274 330.082 377.307 330.071Z" fill="#6F4439"/>
<path d="M376.676 307.092C375.582 307.901 374.304 308.426 372.957 308.619C372.283 308.689 371.606 308.512 371.053 308.121C370.499 307.731 370.106 307.152 369.946 306.494C369.869 305.896 370.057 305.21 369.68 304.734C369.304 304.258 368.363 304.28 367.644 304.324C365.131 304.468 362.353 301.568 361.843 299.111C361.496 299.562 360.988 299.862 360.426 299.948C359.863 300.035 359.288 299.901 358.821 299.575C358.051 299.052 357.38 298.396 356.84 297.638C356.53 297.153 356.105 296.751 355.603 296.467C355.102 296.183 354.538 296.027 353.962 296.011C353.35 296.193 352.718 296.301 352.08 296.332C350.973 296.177 350.475 294.827 350.353 293.698C350.232 292.569 350.176 291.262 349.247 290.609C348.317 289.956 347.232 290.266 346.191 290.366C345.151 290.465 343.812 290.167 343.601 289.137C343.571 288.863 343.595 288.586 343.673 288.322C343.751 288.058 343.881 287.812 344.055 287.599C344.799 286.596 345.86 285.874 347.065 285.551C348.271 285.227 349.551 285.321 350.697 285.816C351.188 284.407 352.088 283.176 353.28 282.278C354.472 281.381 355.904 280.857 357.394 280.774C358.885 280.691 360.366 281.053 361.65 281.812C362.935 282.572 363.965 283.696 364.611 285.042C365.564 284.26 366.691 283.72 367.898 283.468C369.104 283.215 370.353 283.258 371.54 283.591C372.726 283.925 373.815 284.54 374.713 285.384C375.611 286.228 376.292 287.276 376.698 288.44C377.764 288.21 378.874 288.3 379.889 288.699C380.904 289.097 381.778 289.787 382.403 290.681C383.027 291.575 383.373 292.633 383.398 293.723C383.423 294.813 383.126 295.887 382.543 296.808C383.321 297.246 383.975 297.873 384.446 298.632C384.916 299.391 385.187 300.256 385.233 301.147C385.177 302.929 383.351 304.612 381.668 304.059C381.897 304.752 381.871 305.505 381.595 306.182C381.32 306.858 380.812 307.415 380.164 307.751C379.516 308.088 378.769 308.183 378.057 308.02C377.345 307.856 376.714 307.445 376.278 306.859" fill="#263238"/>
<path d="M349.966 288.273C349.966 288.273 349.966 288.273 349.966 288.439C349.966 288.606 349.966 288.694 349.966 288.893C350.051 289.484 350.234 290.057 350.508 290.587C350.945 291.424 351.57 292.148 352.335 292.701C353.328 293.465 354.546 293.882 355.8 293.886L355.667 293.686C355.517 294.067 355.445 294.473 355.454 294.882C355.464 295.291 355.555 295.693 355.722 296.066C356.06 296.869 356.52 297.616 357.084 298.28C357.349 298.655 357.653 299 357.991 299.31C358.383 299.61 358.843 299.808 359.331 299.885C359.833 299.984 360.352 299.958 360.843 299.809C361.333 299.66 361.779 299.394 362.142 299.033L361.821 298.922C361.895 299.821 362.157 300.694 362.59 301.486C363.023 302.277 363.617 302.969 364.334 303.516C365.112 304.176 366.083 304.564 367.101 304.623C368.059 304.626 369.01 304.465 369.913 304.147L369.691 304.036C370.086 305.097 370.736 306.043 371.584 306.792C371.975 307.161 372.443 307.439 372.954 307.605C373.465 307.772 374.007 307.823 374.54 307.755C375.451 307.606 376.297 307.192 376.976 306.567C377.655 305.941 378.135 305.131 378.359 304.235L378.159 304.313C379.04 304.843 380.077 305.05 381.093 304.899C381.849 304.796 382.569 304.515 383.196 304.08C383.586 303.804 383.927 303.463 384.203 303.073C384.306 302.942 384.388 302.797 384.447 302.641C384.087 303.157 383.637 303.603 383.119 303.959C382.502 304.357 381.801 304.607 381.071 304.689C380.107 304.812 379.13 304.601 378.303 304.091L378.148 303.992V304.169C377.941 305.016 377.488 305.784 376.846 306.375C376.204 306.965 375.402 307.353 374.54 307.49C374.054 307.545 373.562 307.492 373.099 307.335C372.636 307.178 372.213 306.921 371.861 306.582C371.058 305.874 370.445 304.976 370.079 303.97L370.012 303.815H369.846C368.984 304.11 368.079 304.264 367.168 304.269C366.23 304.22 365.334 303.871 364.611 303.272C363.932 302.759 363.369 302.108 362.959 301.362C362.549 300.616 362.301 299.792 362.231 298.944V298.546L361.954 298.845C361.629 299.159 361.233 299.391 360.8 299.522C360.367 299.653 359.909 299.679 359.463 299.597C359.035 299.526 358.629 299.356 358.279 299.099C357.961 298.806 357.676 298.479 357.427 298.125C356.848 297.502 356.369 296.793 356.01 296.022C355.856 295.687 355.769 295.325 355.756 294.956C355.743 294.587 355.803 294.22 355.932 293.874L356.01 293.675H355.788C354.591 293.675 353.426 293.287 352.468 292.568C351.729 292.037 351.117 291.349 350.674 290.554C350.297 289.845 350.056 289.071 349.966 288.273Z" fill="#455A64"/>
<path d="M349.424 333.857C349.49 333.536 351.582 334.089 353.53 332.684C355.479 331.278 355.844 329.009 356.143 329.064C356.276 329.064 356.419 329.673 356.198 330.614C355.891 331.839 355.162 332.917 354.139 333.658C353.157 334.374 351.934 334.679 350.73 334.51C349.833 334.366 349.379 334.001 349.424 333.857Z" fill="#263238"/>
<path d="M259.895 408.22L292.085 433.281C292.085 433.281 296.357 414.463 307.748 386.425C309.168 382.861 310.937 379.446 313.028 376.23C313.16 375.953 313.293 375.688 313.415 375.466C317.677 367.496 326.643 363.976 332.233 363.633C333.074 363.578 335.177 363.633 338.122 363.799L340.203 363.124L342.583 356.04L348.272 362.316L375.425 349.476L378.037 359.515L397.309 368.039C397.309 368.039 415.097 372.024 417.367 387.333C419.979 404.944 422.259 445.269 422.259 445.269L400.22 433.978L405.534 474.293L404.238 489.148L353.652 497.416C350.925 497.82 348.154 497.82 345.427 497.416L320.51 493.741L317.5 486.646L320.311 441.672V438.76C317.223 446.719 310.039 463.212 302.722 465.958C295.66 468.614 257.836 433.281 257.836 433.281L259.895 408.22Z" fill="#E0E0E0"/>
<path d="M375.403 349.476C375.403 349.476 372.37 350.361 364.566 354.523C356.929 358.597 348.25 362.272 348.25 362.272L348.903 374.614L377.816 360.102" fill="#E0E0E0"/>
<path d="M342.561 356.04L348.25 362.316L345.206 375.466L340.137 363.589" fill="#E0E0E0"/>
<g opacity="0.3">
<path d="M348.14 363.677C347.885 363.865 346.313 378.853 346.313 378.853L375.282 361.331L348.904 374.614L348.14 363.677Z" fill="black"/>
</g>
<path d="M348.339 419.6C348.77 408.143 346.966 378.898 346.966 378.898L343.192 378.289C338.379 399.1 335.138 420.242 333.495 441.539C332.388 455.641 332.388 471.968 332.388 471.968L339.982 488.251L348.405 472.024C348.405 472.024 347.807 433.525 348.339 419.6Z" fill="#455A64"/>
<path d="M403.021 371.548C403.021 371.603 402.235 372.245 401.062 373.463C397.984 376.62 395.855 380.578 394.918 384.886C394.553 386.525 394.475 387.576 394.409 387.565C394.368 387.32 394.368 387.069 394.409 386.823C394.44 386.15 394.521 385.481 394.652 384.82C395.061 382.629 395.808 380.516 396.866 378.555C397.923 376.587 399.282 374.797 400.896 373.253C401.374 372.782 401.884 372.346 402.423 371.946C402.602 371.786 402.804 371.652 403.021 371.548Z" fill="#263238"/>
<path d="M348.339 368.183L345.748 367.175L343.302 371.382L342.859 378.289L346.313 378.853L348.903 374.581L348.339 368.183Z" fill="#455A64"/>
<path d="M320.356 388.738C320.466 388.738 320.555 403.704 320.555 422.145C320.555 440.587 320.466 455.563 320.356 455.563C320.245 455.563 320.156 440.609 320.156 422.145C320.156 403.682 320.245 388.738 320.356 388.738Z" fill="#263238"/>
<path d="M348.516 362.216C348.571 362.216 347.962 363.179 347.044 364.718C346.125 366.257 344.918 368.404 343.723 370.873C343.623 371.072 343.535 371.282 343.446 371.47L343.269 371.858L343.081 371.47C342.141 369.486 341.335 367.441 340.668 365.349C340.413 364.552 340.236 363.899 340.125 363.445C340.05 363.216 340.006 362.978 339.993 362.737C340.048 362.737 340.358 363.689 340.922 365.26C341.662 367.312 342.505 369.326 343.446 371.293H343.07L343.347 370.695C344.339 368.571 345.478 366.518 346.756 364.552C347.254 363.799 347.675 363.202 347.973 362.803C348.272 362.405 348.494 362.194 348.516 362.216Z" fill="#263238"/>
<path d="M378.016 359.516C377.894 359.614 377.76 359.696 377.617 359.759L376.444 360.368L372.127 362.582C368.485 364.475 363.493 367.176 357.969 370.131C354.648 371.924 351.416 373.585 348.638 374.968L348.383 375.101V374.813C348.383 371.216 348.317 368.172 348.295 365.958V363.545C348.269 363.25 348.269 362.954 348.295 362.659C348.345 362.952 348.367 363.248 348.361 363.545C348.361 364.165 348.416 364.995 348.461 366.024C348.516 368.238 348.594 371.249 348.693 374.88L348.428 374.725C351.195 373.308 354.372 371.636 357.737 369.843C363.271 366.888 368.275 364.231 371.95 362.394C373.787 361.475 375.27 360.755 376.377 360.268L377.584 359.726C377.719 359.638 377.864 359.567 378.016 359.516Z" fill="#263238"/>
<path d="M323.853 368.969C323.909 368.969 323.455 369.777 322.868 371.083C321.333 374.503 320.646 378.243 320.865 381.986C320.942 383.425 321.097 384.3 321.031 384.311C320.964 384.322 320.942 384.1 320.854 383.713C320.725 383.151 320.632 382.582 320.577 382.008C320.205 378.2 320.911 374.365 322.614 370.939C322.865 370.423 323.15 369.924 323.466 369.445C323.687 369.135 323.831 368.946 323.853 368.969Z" fill="#263238"/>
<path d="M345.682 379.296C345.616 379.396 344.963 379.086 344.21 378.61C343.457 378.134 342.904 377.669 342.959 377.58C343.014 377.492 343.678 377.791 344.431 378.267C345.184 378.743 345.737 379.208 345.682 379.296Z" fill="#263238"/>
<path d="M346.922 377.613C346.221 376.505 345.631 375.329 345.162 374.105C344.579 372.936 344.115 371.713 343.778 370.452C344.481 371.556 345.071 372.727 345.538 373.95C346.124 375.12 346.588 376.348 346.922 377.613Z" fill="#263238"/>
<path d="M406.054 372.4C406.054 372.4 415.02 378.798 416.127 382.362C417.234 385.927 422.005 443.863 422.846 450.759C423.687 457.655 424.529 470.54 419.204 474.735C413.88 478.931 402.401 482.096 402.401 482.096L391.775 460.168L397.398 448.402L391.775 404.401L406.054 372.4Z" fill="#E0E0E0"/>
<path d="M404.969 481.322C404.778 481.296 404.585 481.296 404.394 481.322C403.842 481.319 403.291 481.282 402.744 481.211C400.688 481.018 398.715 480.306 397.01 479.141C394.451 477.264 392.521 474.655 391.476 471.658C390.117 467.87 389.435 463.872 389.461 459.847V460.002L397.697 448.601L397.763 448.512V448.402C397.763 448.114 397.686 447.793 397.641 447.472C396.059 435.141 394.631 423.972 393.579 415.825L392.339 406.228C392.195 405.121 392.074 404.268 391.996 403.626C391.973 403.321 391.928 403.018 391.863 402.719C391.851 402.796 391.851 402.874 391.863 402.951C391.863 403.106 391.863 403.328 391.863 403.638C391.919 404.28 391.996 405.154 392.096 406.25C392.317 408.53 392.693 411.784 393.203 415.869C394.155 423.983 395.527 435.185 397.11 447.549C397.11 447.859 397.188 448.18 397.221 448.468V448.269C394.332 452.298 391.553 456.15 389.018 459.692V459.759V459.847C389.032 463.936 389.782 467.99 391.232 471.813C392.312 474.87 394.301 477.524 396.933 479.418C397.95 480.098 399.072 480.606 400.254 480.923L400.995 481.133L401.682 481.244C402.079 481.326 402.483 481.374 402.888 481.388C403.444 481.437 404.004 481.437 404.56 481.388C404.698 481.376 404.835 481.353 404.969 481.322Z" fill="#263238"/>
<path d="M415.795 452.464C415.106 451.786 414.314 451.222 413.448 450.793C411.406 449.648 409.194 448.837 406.895 448.391C404.598 447.941 402.243 447.866 399.922 448.169C398.956 448.247 398.008 448.471 397.11 448.833C400.323 448.388 403.583 448.425 406.785 448.944C409.949 449.656 412.987 450.842 415.795 452.464Z" fill="#263238"/>
<path d="M363.692 421.891C363.852 423.721 364.733 425.413 366.14 426.594C367.548 427.775 369.367 428.349 371.197 428.189C372.138 428.112 373.052 427.842 373.883 427.394C374.713 426.946 375.442 426.331 376.023 425.588C377.872 423.186 381.237 419.743 385.51 419.378C392.151 418.802 397.221 423.695 397.885 431.2C398.549 438.705 394.365 444.417 387.746 444.992C383.462 445.369 379.565 442.557 377.329 440.565C376.628 439.93 375.802 439.449 374.904 439.152C374.007 438.855 373.057 438.748 372.116 438.838C371.21 438.916 370.328 439.172 369.522 439.59C368.715 440.009 367.998 440.583 367.413 441.279C366.828 441.975 366.386 442.78 366.113 443.647C365.839 444.513 365.738 445.426 365.817 446.332L369.935 493.177L265.585 500.161L262.109 450.903C262.031 449.996 261.775 449.113 261.356 448.305C260.936 447.497 260.362 446.779 259.665 446.193C258.968 445.607 258.162 445.164 257.294 444.89C256.425 444.615 255.512 444.515 254.604 444.594C253.661 444.67 252.744 444.942 251.911 445.392C251.079 445.841 250.348 446.459 249.767 447.206C247.919 449.597 244.565 453.04 240.292 453.416C233.65 453.992 228.569 449.088 227.916 441.583C227.263 434.078 231.425 428.377 238.056 427.791C242.329 427.425 246.236 430.226 248.472 432.274C249.173 432.906 249.997 433.386 250.892 433.683C251.788 433.98 252.735 434.088 253.675 434C257.493 433.668 260.98 430.68 260.648 426.872L257.837 385.041L361.113 378.067L363.692 421.891Z" fill="#3780EF"/>
<g opacity="0.4">
<path d="M363.692 421.891C363.853 423.721 364.733 425.413 366.141 426.594C367.548 427.775 369.367 428.349 371.197 428.189C372.138 428.112 373.052 427.842 373.883 427.394C374.714 426.946 375.442 426.331 376.024 425.588C377.872 423.186 381.237 419.743 385.51 419.378C392.151 418.802 397.221 423.695 397.885 431.2C398.55 438.705 394.365 444.417 387.746 444.992C383.462 445.369 379.566 442.557 377.33 440.565C376.628 439.93 375.802 439.449 374.905 439.152C374.007 438.855 373.057 438.748 372.116 438.838C371.21 438.916 370.329 439.172 369.522 439.59C368.715 440.009 367.999 440.583 367.414 441.279C366.829 441.975 366.387 442.78 366.113 443.647C365.839 444.513 365.739 445.426 365.818 446.332L369.935 493.177L265.585 500.161L262.11 450.903C262.032 449.996 261.776 449.113 261.356 448.305C260.937 447.497 260.362 446.779 259.665 446.193C258.968 445.607 258.162 445.164 257.294 444.89C256.426 444.615 255.512 444.515 254.605 444.594C253.661 444.67 252.744 444.942 251.912 445.392C251.079 445.841 250.349 446.459 249.767 447.206C247.919 449.597 244.565 453.04 240.292 453.416C233.651 453.992 228.57 449.088 227.917 441.583C227.264 434.078 231.426 428.377 238.056 427.791C242.329 427.425 246.236 430.226 248.472 432.274C249.173 432.906 249.997 433.386 250.892 433.683C251.788 433.98 252.735 434.088 253.675 434C257.494 433.668 260.981 430.68 260.649 426.872L257.837 385.041L361.113 378.067L363.692 421.891Z" fill="black"/>
</g>
<path d="M370.743 421.382C370.903 423.212 371.784 424.904 373.191 426.085C374.599 427.266 376.417 427.84 378.248 427.68C379.189 427.605 380.104 427.336 380.935 426.888C381.766 426.44 382.494 425.824 383.074 425.079C384.923 422.688 388.288 419.245 392.56 418.869C399.202 418.293 404.272 423.186 404.936 430.702C405.6 438.218 401.416 443.908 394.796 444.483C390.513 444.86 386.616 442.048 384.38 440.056C383.678 439.423 382.852 438.943 381.954 438.646C381.057 438.349 380.108 438.241 379.167 438.329C377.336 438.489 375.645 439.37 374.463 440.777C373.282 442.185 372.709 444.003 372.868 445.834L376.986 492.668L272.658 499.697L269.171 450.427C269.093 449.522 268.837 448.64 268.418 447.833C268 447.026 267.426 446.31 266.73 445.725C266.034 445.14 265.229 444.698 264.362 444.424C263.495 444.15 262.583 444.05 261.677 444.129C260.735 444.204 259.818 444.473 258.985 444.921C258.152 445.369 257.422 445.985 256.84 446.73C254.991 449.121 251.637 452.564 247.365 452.94C240.723 453.516 235.642 448.623 234.989 441.107C234.336 433.591 238.498 427.901 245.129 427.326C249.401 426.95 253.309 429.761 255.545 431.754C256.245 432.386 257.07 432.866 257.965 433.163C258.861 433.46 259.808 433.568 260.748 433.48C264.566 433.148 268.053 430.16 267.721 426.363L264.898 384.521L368.175 377.547L370.743 421.382Z" fill="#3780EF"/>
<path d="M370.743 421.382C370.743 421.382 370.743 421.127 370.743 420.64C370.743 420.153 370.743 419.411 370.632 418.426C370.533 416.489 370.378 413.622 370.179 409.903C369.769 402.42 369.16 391.472 368.385 377.525V377.37H368.23L264.943 384.233H264.688V384.477C265.382 394.852 266.12 405.652 266.902 416.876C267.09 419.688 267.279 422.511 267.467 425.366C267.538 426.062 267.538 426.763 267.467 427.459C267.384 428.137 267.173 428.795 266.847 429.396C266.157 430.617 265.121 431.607 263.869 432.24C262.615 432.9 261.211 433.22 259.796 433.17C258.375 433.091 257.019 432.551 255.933 431.632C253.766 429.523 251.1 428 248.184 427.204C247.432 427.036 246.663 426.95 245.893 426.949C245.122 426.964 244.354 427.056 243.601 427.226C242.08 427.549 240.646 428.194 239.395 429.119C236.91 431.069 235.285 433.913 234.868 437.045C234.414 440.173 234.827 443.367 236.063 446.276C236.685 447.757 237.611 449.09 238.782 450.188C239.953 451.287 241.343 452.126 242.86 452.652C244.403 453.141 246.032 453.303 247.642 453.128C249.261 452.928 250.813 452.36 252.18 451.468C253.542 450.596 254.778 449.542 255.855 448.335C256.397 447.76 256.962 447.084 257.394 446.498C257.908 445.927 258.519 445.451 259.198 445.092C260.573 444.362 262.161 444.138 263.685 444.46C265.208 444.781 266.57 445.628 267.533 446.852C268.488 448.105 269.002 449.638 268.994 451.213C269.105 452.829 269.227 454.445 269.337 456.073C270.444 470.894 271.418 485.462 272.426 499.652V499.929H272.702L376.986 492.856H377.241V492.601C376.296 481.997 375.4 471.857 374.551 462.183C374.115 457.357 373.699 452.656 373.3 448.081C373.166 446.96 373.095 445.833 373.09 444.705C373.158 443.615 373.501 442.56 374.086 441.638C374.649 440.729 375.421 439.968 376.337 439.418C377.254 438.867 378.288 438.543 379.355 438.472C380.399 438.406 381.444 438.58 382.41 438.982C382.884 439.18 383.334 439.433 383.749 439.734C384.148 440.033 384.524 440.41 384.934 440.753C386.503 442.118 388.292 443.207 390.225 443.974C392.083 444.679 394.099 444.857 396.052 444.49C398.005 444.123 399.819 443.224 401.294 441.893C402.656 440.615 403.695 439.034 404.327 437.277C404.915 435.603 405.2 433.837 405.168 432.063C405.196 428.74 404.139 425.499 402.158 422.832C400.414 420.613 397.87 419.167 395.073 418.802C392.275 418.438 389.445 419.185 387.192 420.883C385.414 422.239 383.831 423.833 382.488 425.621C381.321 426.794 379.768 427.505 378.117 427.621C376.467 427.737 374.83 427.25 373.51 426.252C372.657 425.624 371.966 424.8 371.496 423.85C371.105 423.077 370.854 422.242 370.754 421.382L370.821 422.035C370.933 422.676 371.134 423.298 371.418 423.883C371.89 424.85 372.585 425.693 373.444 426.341C374.623 427.249 376.063 427.753 377.551 427.78C378.488 427.797 379.42 427.627 380.29 427.279C381.161 426.931 381.953 426.413 382.62 425.754C383.962 423.984 385.541 422.409 387.314 421.072C389.518 419.418 392.283 418.694 395.015 419.056C397.747 419.418 400.228 420.838 401.925 423.009C403.858 425.629 404.884 428.808 404.847 432.063C404.879 433.801 404.594 435.531 404.006 437.166C403.385 438.853 402.377 440.369 401.062 441.594C399.634 442.879 397.878 443.745 395.989 444.094C394.1 444.444 392.151 444.264 390.358 443.575C388.467 442.821 386.719 441.751 385.188 440.41C384.79 440.078 384.425 439.701 383.982 439.38C383.546 439.052 383.07 438.78 382.565 438.572C381.546 438.138 380.438 437.952 379.333 438.03C378.202 438.098 377.104 438.434 376.13 439.012C375.156 439.59 374.334 440.391 373.732 441.351C373.082 442.343 372.701 443.487 372.625 444.671C372.618 445.818 372.685 446.964 372.824 448.103L374.064 462.227C374.905 471.894 375.791 482.034 376.72 492.646L376.942 492.38L272.658 499.376L272.957 499.641C271.961 485.462 270.931 470.861 269.88 456.062L269.537 451.202C269.539 449.513 268.983 447.871 267.954 446.531C266.905 445.202 265.424 444.283 263.767 443.933C262.111 443.583 260.385 443.825 258.888 444.616C258.15 445.01 257.487 445.531 256.929 446.155C256.397 446.797 255.944 447.394 255.401 447.981C254.361 449.149 253.165 450.17 251.848 451.014C250.554 451.86 249.086 452.401 247.553 452.597C246.022 452.764 244.472 452.609 243.004 452.143C241.561 451.643 240.241 450.845 239.129 449.799C238.017 448.754 237.138 447.486 236.55 446.077C235.37 443.265 234.987 440.182 235.443 437.166C235.832 434.179 237.378 431.464 239.749 429.606C240.931 428.723 242.291 428.107 243.734 427.802C244.461 427.64 245.203 427.551 245.948 427.536C246.674 427.54 247.398 427.622 248.107 427.78C250.938 428.568 253.524 430.061 255.623 432.119C256.795 433.12 258.267 433.703 259.807 433.779C261.322 433.841 262.827 433.502 264.168 432.794C265.51 432.105 266.622 431.039 267.367 429.728C267.727 429.066 267.956 428.34 268.042 427.591C268.115 426.855 268.115 426.114 268.042 425.378C267.854 422.533 267.655 419.699 267.467 416.898C266.729 405.689 265.991 394.889 265.253 384.499L265.02 384.764L368.297 377.702L368.131 377.558C368.972 391.506 369.625 402.453 370.079 409.936C370.311 413.655 370.488 416.511 370.61 418.448C370.677 419.411 370.721 420.131 370.754 420.662C370.787 421.193 370.743 421.382 370.743 421.382Z" fill="#263238"/>
<path d="M382.919 469.334C382.919 469.334 379.322 466.555 376.654 466.445C373.986 466.334 370.51 467.363 369.824 467.02C369.138 466.677 367.5 465.149 366.503 466.433C365.507 467.718 364.19 472.356 369.747 473.629H373.577C373.577 473.629 373.112 477.447 372.182 478.953C371.252 480.458 358.279 496.808 358.279 496.808C358.279 496.808 356.652 498.424 357.46 500.051C358.268 501.678 361.755 500.748 361.755 500.748C361.755 500.748 364.19 502.962 366.968 501.855C368.346 501.386 369.668 500.766 370.909 500.007C371.807 500.693 372.906 501.065 374.036 501.065C375.166 501.065 376.265 500.693 377.163 500.007C380.406 497.571 391.232 484.011 391.232 484.011L387.369 468.836L382.919 469.334Z" fill="#AE7461"/>
<path d="M394.132 460.368L382.875 469.334L391.144 484.056L407.637 478.067C407.637 478.067 407.161 460.689 394.132 460.368Z" fill="#AE7461"/>
<path d="M266.991 399.963C266.991 399.963 266.415 396.033 258.135 397.373C252.944 398.203 255.656 401.568 255.656 401.568C255.268 401.903 254.967 402.327 254.78 402.804C254.592 403.281 254.523 403.797 254.578 404.306C254.634 404.816 254.812 405.304 255.098 405.73C255.384 406.155 255.769 406.505 256.22 406.748L255.678 407.147C255.678 407.147 251.549 409.217 255.113 412.892C254.753 413.55 254.605 414.303 254.691 415.048C254.776 415.794 255.09 416.494 255.589 417.054C257.371 418.825 261.821 416.456 261.821 416.456C261.821 416.456 268.109 416.356 268.463 414.696C268.578 414.189 268.517 413.659 268.289 413.192C268.062 412.725 267.682 412.349 267.212 412.128C265.75 411.85 264.271 411.672 262.784 411.597C262.784 411.597 268.319 411.53 268.784 410.49C269.669 408.564 269.437 406.604 262.784 406.848C262.784 406.848 267.732 406.748 268.319 405.741C268.906 404.734 268.186 403.106 266.415 402.276C265.361 401.78 264.204 401.541 263.039 401.579C263.039 401.579 267.699 402.453 266.991 399.963Z" fill="#AE7461"/>
</svg>
