<svg width="327" height="552" viewBox="0 0 327 552" fill="none" xmlns="http://www.w3.org/2000/svg">
<path d="M277.868 88.5872L267.805 91.933C260.249 87.9554 251.479 86.9481 243.218 89.109C234.957 91.2699 227.804 96.4427 223.163 103.611C218.523 110.778 216.732 119.423 218.142 127.844C219.552 136.266 224.062 143.855 230.784 149.121C237.506 154.386 245.954 156.946 254.469 156.298C262.983 155.65 270.946 151.841 276.794 145.619C282.642 139.397 285.951 131.213 286.071 122.675C286.19 114.137 283.112 105.863 277.44 99.48L277.868 88.5872Z" fill="white"/>
<path d="M277.867 88.5871V89.2663C277.867 89.7569 277.867 90.4487 277.867 91.3418C277.867 93.2285 277.729 95.9832 277.616 99.5429C277.616 99.5796 277.601 99.6148 277.575 99.6407C277.549 99.6667 277.514 99.6812 277.477 99.6812H277.402L277.578 99.48C280.597 102.881 282.908 106.849 284.379 111.152C285.85 115.455 286.45 120.007 286.144 124.544C285.839 129.081 284.634 133.512 282.6 137.579C280.565 141.646 277.742 145.268 274.295 148.234C270.526 151.48 266.104 153.878 261.327 155.265C256.226 156.743 250.851 157.01 245.629 156.045C240.148 155.076 234.992 152.764 230.623 149.316L228.963 147.982L227.365 146.511L226.61 145.781L225.919 144.976L224.56 143.391C219.569 136.923 216.989 128.916 217.265 120.75C217.633 111.902 221.391 103.536 227.761 97.3837C234.13 91.2319 242.623 87.7668 251.478 87.7066C257.182 87.662 262.806 89.0549 267.83 91.7569H267.717L275.264 89.3292L277.188 88.7255L277.817 88.5368L277.138 88.7883L275.201 89.455L267.767 91.9707H267.654C260.783 88.3678 252.886 87.2259 245.276 88.735C237.666 90.244 230.802 94.313 225.826 100.265C220.85 106.217 218.062 113.694 217.925 121.45C217.789 129.207 220.312 136.777 225.076 142.901L226.409 144.46L227.088 145.24L227.831 145.957L229.327 147.404L230.95 148.661C235.735 152.394 241.436 154.771 247.456 155.544C253.475 156.317 259.592 155.458 265.165 153.056C270.738 150.653 275.563 146.797 279.134 141.89C282.706 136.984 284.892 131.207 285.465 125.165C285.843 121.544 285.622 117.885 284.811 114.335C283.555 108.838 280.962 103.736 277.264 99.48C277.25 99.4682 277.239 99.4537 277.232 99.4374C277.225 99.4211 277.221 99.4035 277.221 99.3856C277.221 99.3678 277.225 99.3502 277.232 99.3339C277.239 99.3176 277.25 99.3031 277.264 99.2913C277.288 99.2709 277.32 99.2597 277.352 99.2597C277.384 99.2597 277.415 99.2709 277.44 99.2913L277.226 99.3919C277.415 95.8826 277.553 93.1027 277.641 91.2915C277.641 90.3858 277.742 89.694 277.767 89.1783C277.792 88.6626 277.867 88.5871 277.867 88.5871Z" fill="#263238"/>
<path d="M244.674 107.568H236.184V134.096H244.674V107.568Z" fill="#3780EF"/>
<path d="M257.353 113.63H248.862V134.095H257.353V113.63Z" fill="#3780EF"/>
<path d="M269.087 121.945H260.597V134.096H269.087V121.945Z" fill="#3780EF"/>
<path d="M326.999 231.113L317.54 222.66C317.289 214.867 314.796 207.311 310.357 200.899C305.15 193.334 297.541 187.747 288.763 185.044C279.985 182.34 270.551 182.679 261.989 186.004C253.427 189.329 246.238 195.446 241.586 203.366C236.933 211.285 235.089 220.543 236.353 229.64C237.616 238.738 241.913 247.143 248.548 253.494C255.183 259.846 263.767 263.773 272.911 264.639C282.055 265.505 291.223 263.259 298.932 258.266C306.641 253.273 312.44 245.824 315.389 237.125L326.999 231.113Z" fill="white"/>
<path d="M326.999 231.113C326.999 231.113 326.773 231.251 326.282 231.503L324.081 232.672L315.415 237.238L315.251 237.326V237.138H315.452C313.293 243.569 309.567 249.361 304.61 253.993C303.067 255.441 301.41 256.762 299.654 257.942C297.757 259.19 295.768 260.292 293.704 261.238C288.544 263.605 282.947 264.871 277.271 264.954C271.594 265.038 265.963 263.937 260.735 261.723C255.508 259.508 250.799 256.229 246.91 252.093C243.02 247.958 240.035 243.057 238.146 237.704C235.906 231.481 235.24 224.8 236.209 218.258L236.397 217C236.573 216.17 236.737 215.339 236.913 214.484L237.529 212.082L237.944 210.899L238.775 208.56C239.089 207.792 239.466 207.05 239.806 206.308C240.131 205.551 240.505 204.816 240.925 204.107C241.711 202.68 242.589 201.306 243.554 199.994C248.797 192.733 256.28 187.394 264.851 184.799C273.423 182.204 282.61 182.496 291 185.629C295.672 187.347 299.99 189.904 303.742 193.176C305.446 194.683 307.031 196.319 308.484 198.069C309.791 199.739 310.997 201.487 312.094 203.302C315.503 209.154 317.397 215.765 317.603 222.534L324.622 228.823L326.408 230.459L326.987 230.999L326.345 230.446L324.521 228.836L317.465 222.622C317.203 215.909 315.28 209.366 311.868 203.579C310.773 201.785 309.572 200.059 308.27 198.409C306.822 196.678 305.245 195.06 303.553 193.566C297.383 188.195 289.74 184.805 281.617 183.836C273.494 182.867 265.267 184.364 258.007 188.132C252.477 191.082 247.69 195.25 244.007 200.321C243.054 201.623 242.184 202.984 241.403 204.396C240.989 205.091 240.623 205.814 240.309 206.56C239.969 207.302 239.592 208.031 239.278 208.786C238.963 209.541 238.737 210.333 238.46 211.113L238.045 212.27L237.743 213.528C237.542 214.321 237.341 215.126 237.127 215.931C236.913 216.736 236.875 217.578 236.737 218.446C235.818 224.875 236.488 231.43 238.686 237.54C240.753 243.425 244.154 248.75 248.623 253.1C252.693 257.015 257.531 260.042 262.831 261.991C268.132 263.94 273.779 264.767 279.415 264.42C284.331 264.113 289.149 262.907 293.629 260.861C295.674 259.928 297.646 258.844 299.528 257.615C301.279 256.452 302.932 255.147 304.471 253.716C309.411 249.133 313.141 243.399 315.327 237.025L315.578 236.308V237.062L315.427 236.962L324.056 232.547C325.037 232.056 325.779 231.666 326.308 231.415L326.999 231.113Z" fill="#263238"/>
<path d="M280.987 235.54C280.985 236.427 280.719 237.292 280.225 238.027C279.73 238.763 279.028 239.335 278.208 239.671C277.389 240.007 276.487 240.092 275.619 239.916C274.75 239.74 273.954 239.31 273.33 238.681C272.706 238.051 272.283 237.251 272.114 236.381C271.945 235.511 272.038 234.611 272.381 233.794C272.724 232.977 273.302 232.28 274.041 231.791C274.781 231.303 275.648 231.045 276.535 231.05C277.122 231.052 277.703 231.169 278.245 231.396C278.787 231.623 279.279 231.954 279.693 232.371C280.106 232.788 280.434 233.283 280.656 233.827C280.878 234.371 280.991 234.953 280.987 235.54Z" fill="#3780EF"/>
<path d="M267.617 229.792C268.758 228.564 270.135 227.581 271.667 226.901C273.199 226.221 274.852 225.859 276.528 225.837C278.203 225.815 279.866 226.132 281.415 226.771C282.965 227.41 284.368 228.356 285.541 229.553C287.818 231.855 291.39 228.295 289.101 226.018C287.461 224.36 285.505 223.048 283.349 222.158C281.193 221.269 278.881 220.82 276.549 220.839C274.217 220.858 271.912 221.343 269.771 222.268C267.63 223.192 265.696 224.536 264.082 226.22C261.856 228.559 265.34 232.144 267.617 229.792Z" fill="#3780EF"/>
<path d="M258.397 222.446C260.662 219.919 263.427 217.888 266.516 216.483C269.605 215.077 272.952 214.326 276.346 214.277C279.74 214.229 283.107 214.884 286.235 216.201C289.363 217.518 292.185 219.469 294.522 221.931C296.786 224.258 300.345 220.673 298.094 218.396C295.292 215.468 291.918 213.146 288.182 211.575C284.446 210.003 280.427 209.215 276.374 209.26C272.321 209.305 268.321 210.181 264.621 211.835C260.92 213.489 257.599 215.884 254.862 218.874C252.673 221.251 256.195 224.836 258.397 222.446Z" fill="#3780EF"/>
<path d="M294.361 373.487L293.493 358.809C299.649 352.203 303.768 343.962 305.355 335.073C307.25 324.609 305.559 313.812 300.555 304.429C295.551 295.046 287.527 287.626 277.781 283.37C268.036 279.114 257.139 278.272 246.856 280.979C236.572 283.686 227.503 289.784 221.115 298.286C214.728 306.789 211.398 317.198 211.662 327.829C211.926 338.459 215.77 348.69 222.572 356.864C229.373 365.039 238.734 370.679 249.14 372.872C259.546 375.064 270.387 373.681 279.909 368.947L294.361 373.487Z" fill="white"/>
<path d="M294.36 373.487L293.442 373.211L290.687 372.381L279.857 369.072L279.656 369.009L279.82 368.871L279.958 369.06C270.71 373.72 260.179 375.188 250.009 373.236C247.441 372.716 244.918 371.997 242.462 371.085C230.972 366.878 221.574 358.359 216.261 347.337C213.26 341.15 211.63 334.388 211.481 327.513C211.339 320.202 212.902 312.958 216.047 306.357C219.285 299.398 224.194 293.349 230.336 288.747L231.519 287.866L234.034 286.256L236.55 284.772L237.808 284.143L240.412 282.885C241.292 282.508 242.21 282.219 243.103 281.879C243.992 281.531 244.899 281.232 245.82 280.986C247.631 280.443 249.475 280.023 251.342 279.728C261.579 278.054 272.082 279.784 281.241 284.653C290.4 289.522 297.708 297.261 302.046 306.684C304.469 311.932 305.906 317.581 306.285 323.35C306.458 325.981 306.428 328.622 306.197 331.249C305.914 333.682 305.494 336.097 304.939 338.482C302.957 346.083 299.104 353.066 293.731 358.796V358.695C293.983 363.488 294.172 367.16 294.297 369.664C294.36 370.921 294.398 371.814 294.436 372.456V373.387C294.436 373.387 294.436 373.047 294.36 372.406C294.285 371.764 294.247 370.821 294.159 369.588C293.996 367.072 293.769 363.462 293.455 358.72C298.747 352.991 302.534 346.037 304.473 338.482C305.029 336.109 305.449 333.707 305.731 331.287C305.954 328.685 305.975 326.069 305.794 323.463C305.41 317.759 303.982 312.174 301.58 306.985C298.807 301.025 294.821 295.709 289.876 291.377C284.932 287.045 279.137 283.793 272.864 281.829C265.909 279.722 258.565 279.231 251.392 280.395C249.548 280.697 247.724 281.117 245.933 281.653C245.025 281.901 244.13 282.199 243.254 282.546C242.374 282.873 241.468 283.162 240.6 283.539L238.022 284.797L236.764 285.426L235.506 286.168L232.99 287.64C232.198 288.193 231.431 288.785 230.651 289.351C224.588 293.888 219.736 299.85 216.525 306.709C213.411 313.226 211.856 320.379 211.984 327.601C212.128 334.4 213.733 341.087 216.689 347.211C221.943 358.121 231.222 366.57 242.575 370.783C245.032 371.696 247.555 372.42 250.122 372.947C260.226 374.908 270.695 373.499 279.92 368.934L280.713 368.544L280.059 369.135V368.934L290.763 372.355L293.53 373.248C294.033 373.387 294.36 373.487 294.36 373.487Z" fill="#263238"/>
<path d="M239.57 333.211C240.367 333.223 241.157 333.06 241.884 332.733C242.128 332.622 242.386 332.545 242.651 332.507V344.142C242.651 344.552 242.814 344.946 243.105 345.236C243.395 345.526 243.788 345.689 244.199 345.689H256.299V344.318C256.3 344.002 256.236 343.69 256.11 343.4C255.829 342.709 255.701 341.964 255.735 341.219C255.77 340.473 255.966 339.744 256.311 339.082C256.656 338.42 257.14 337.841 257.731 337.385C258.322 336.929 259.005 336.607 259.733 336.441C260.461 336.276 261.216 336.271 261.946 336.426C262.676 336.582 263.364 336.894 263.961 337.342C264.558 337.79 265.051 338.362 265.404 339.02C265.758 339.677 265.965 340.403 266.009 341.148C266.07 342.014 265.905 342.881 265.532 343.664C265.373 344.003 265.287 344.371 265.28 344.746V345.714L277.531 345.79C278.036 345.79 278.521 345.59 278.879 345.234C279.237 344.878 279.44 344.395 279.443 343.89V333.111H280.563C281.497 333.787 282.599 334.192 283.749 334.284C284.899 334.376 286.051 334.149 287.081 333.63C288.111 333.111 288.978 332.318 289.587 331.339C290.197 330.36 290.526 329.232 290.537 328.079C290.534 326.984 290.245 325.909 289.699 324.96C289.153 324.011 288.368 323.221 287.423 322.668C286.477 322.115 285.404 321.819 284.309 321.808C283.214 321.798 282.135 322.073 281.179 322.608C281.012 322.626 280.843 322.626 280.676 322.608H279.594V310.57C279.594 310.065 279.394 309.581 279.039 309.223C278.683 308.864 278.2 308.662 277.695 308.658L244.224 308.558C243.812 308.558 243.417 308.72 243.125 309.01C242.833 309.3 242.667 309.693 242.664 310.105V322.356C242.457 322.302 242.255 322.23 242.06 322.142C240.986 321.61 239.77 321.434 238.589 321.639C237.171 321.889 235.897 322.661 235.018 323.801C234.14 324.942 233.719 326.37 233.838 327.805C233.958 329.24 234.61 330.578 235.665 331.557C236.721 332.537 238.105 333.086 239.545 333.098L239.57 333.211Z" fill="#3780EF"/>
<path d="M145.608 0.814941L142.463 15.5568C132.118 21.8984 124.518 31.8807 121.159 43.5411C117.801 55.2016 118.925 67.6967 124.312 78.5702C129.699 89.4436 138.958 97.9087 150.27 102.301C161.581 106.694 174.127 106.696 185.44 102.308C196.754 97.9193 206.016 89.4577 211.407 78.5863C216.798 67.7149 217.927 55.2201 214.572 43.5584C211.218 31.8967 203.622 21.9116 193.279 15.5662C182.935 9.22079 170.593 6.97403 158.677 9.26762L145.608 0.814941Z" fill="white"/>
<path d="M145.606 0.814941L146.436 1.31808L148.952 2.90295L158.763 9.12926C158.777 9.14106 158.787 9.15558 158.795 9.17184C158.802 9.18811 158.806 9.20575 158.806 9.2236C158.806 9.24144 158.802 9.25908 158.795 9.27535C158.787 9.29161 158.777 9.30613 158.763 9.31794L158.675 9.06637C166.593 7.49725 174.778 7.9296 182.486 10.3242C184.888 11.0724 187.227 12.0103 189.48 13.1292C191.878 14.3842 194.178 15.818 196.36 17.4184C206.571 24.7386 213.532 35.7462 215.769 48.1097C217.039 55.0393 216.799 62.1615 215.064 68.9898C213.201 76.2759 209.66 83.0256 204.725 88.7001C199.612 94.6852 193.094 99.3094 185.757 102.159C184.826 102.511 183.895 102.889 182.952 103.228L180.058 104.021L178.625 104.423L177.165 104.687L174.247 105.19C173.266 105.329 172.285 105.367 171.304 105.455C170.335 105.557 169.36 105.603 168.386 105.593C166.444 105.625 164.502 105.524 162.575 105.291C151.984 104.139 142.064 99.5422 134.339 92.2073C126.613 84.8724 121.508 75.2045 119.808 64.688C118.862 58.844 118.99 52.8764 120.185 47.0783C120.744 44.4339 121.5 41.8354 122.449 39.3048C123.41 36.9786 124.506 34.7106 125.732 32.5125C129.776 25.5414 135.501 19.6947 142.386 15.5065L142.323 15.5946C143.392 10.8022 144.223 7.10414 144.839 4.58846C145.116 3.33062 145.317 2.45013 145.468 1.79606C145.619 1.14198 145.694 0.877835 145.694 0.877835C145.694 0.877835 145.694 1.21745 145.506 1.85895C145.317 2.50045 145.166 3.46898 144.914 4.70166C144.399 7.21734 143.657 10.8777 142.65 15.6449C142.64 15.6805 142.618 15.7116 142.587 15.7329C135.777 19.9238 130.114 25.7417 126.11 32.6634C124.902 34.8483 123.827 37.1039 122.89 39.418C121.953 41.9271 121.213 44.505 120.676 47.1286C118.741 56.6552 119.726 66.5438 123.5 75.5021C127.275 84.4604 133.664 92.0718 141.833 97.3415C148.124 101.333 155.244 103.833 162.65 104.65C164.549 104.873 166.461 104.969 168.373 104.939C169.339 104.956 170.306 104.909 171.266 104.8C172.222 104.712 173.191 104.675 174.159 104.549L177.04 104.046L178.486 103.782L179.895 103.392L182.75 102.599C183.681 102.272 184.599 101.907 185.518 101.555C192.752 98.7375 199.181 94.1796 204.234 88.2851C209.097 82.6928 212.597 76.0494 214.46 68.8766C216.124 62.3722 216.417 55.5929 215.322 48.9691C214.226 42.3453 211.765 36.0216 208.096 30.3993C204.887 25.5089 200.812 21.246 196.071 17.8209C193.907 16.259 191.628 14.863 189.253 13.6449C187.026 12.5267 184.712 11.5887 182.335 10.8399C174.694 8.4271 166.575 7.93886 158.7 9.41856C158.683 9.42425 158.665 9.42609 158.646 9.42394C158.628 9.4218 158.611 9.41574 158.595 9.40616C158.58 9.39658 158.566 9.38372 158.556 9.36849C158.546 9.35325 158.54 9.336 158.537 9.31794C158.531 9.28798 158.535 9.25692 158.549 9.22962C158.563 9.20232 158.585 9.1803 158.612 9.16699V9.40598L148.977 3.11679L146.462 1.46902L145.606 0.814941Z" fill="#263238"/>
<path d="M185.857 52.3993C185.858 49.655 185.227 46.9474 184.011 44.4869C182.796 42.0264 181.029 39.8793 178.849 38.2125C176.669 36.5456 174.134 35.4039 171.441 34.8762C168.748 34.3484 165.97 34.4487 163.322 35.1693C160.673 35.89 158.227 37.2115 156.173 39.0312C154.119 40.851 152.512 43.1199 151.477 45.6616C150.442 48.2033 150.008 50.9495 150.207 53.6865C150.406 56.4236 151.233 59.0779 152.625 61.4432C153.304 62.6004 154.172 63.418 155.028 64.6381L165.392 78.3611C165.694 78.7597 166.083 79.083 166.531 79.3057C166.978 79.5283 167.471 79.6441 167.971 79.6441C168.47 79.6441 168.963 79.5283 169.411 79.3057C169.858 79.083 170.248 78.7597 170.549 78.3611L180.826 64.9022C181.725 63.7946 182.565 62.64 183.341 61.4432C184.978 58.7095 185.847 55.5853 185.857 52.3993ZM168.008 60.1853C166.454 60.1853 164.934 59.7243 163.641 58.8604C162.348 57.9966 161.34 56.7688 160.745 55.3323C160.15 53.8958 159.995 52.3151 160.298 50.7901C160.601 49.2652 161.35 47.8644 162.45 46.7649C163.549 45.6655 164.95 44.9167 166.475 44.6134C168 44.3101 169.58 44.4658 171.017 45.0608C172.453 45.6558 173.681 46.6634 174.545 47.9562C175.409 49.2491 175.87 50.769 175.87 52.3238C175.87 54.4088 175.042 56.4084 173.567 57.8828C172.093 59.3571 170.093 60.1853 168.008 60.1853Z" fill="#3780EF"/>
<path d="M90.8031 252.358C89.5453 239.905 87.6963 227.377 83.1429 215.717C78.5895 204.057 71.1054 193.227 60.5647 186.485L57.8478 189C56.9071 186.307 55.251 183.921 53.057 182.098C50.863 180.275 48.214 179.083 45.3942 178.651C42.5744 178.219 39.6902 178.564 37.0512 179.647C34.4121 180.73 32.1178 182.511 30.4143 184.799C27.3683 183.975 24.1434 184.1 21.1701 185.157C18.1969 186.213 15.6167 188.152 13.7741 190.714C11.9315 193.275 10.9141 196.338 10.8577 199.493C10.8013 202.648 11.7087 205.745 13.4586 208.371C10.6072 208.739 7.93404 209.962 5.79155 211.879C3.64905 213.796 2.13774 216.318 1.45678 219.111C0.775833 221.904 0.95719 224.838 1.97698 227.526C2.99676 230.214 4.80711 232.531 7.16942 234.169C4.02367 236.885 1.76869 240.486 0.698196 244.501C-0.372302 248.517 -0.20872 252.762 1.16766 256.684C2.54404 260.605 5.06941 264.021 8.41486 266.487C11.7603 268.953 15.7708 270.354 19.9239 270.508C18.9816 274.13 19.31 277.965 20.8545 281.374C22.399 284.783 25.0661 287.559 28.4104 289.238C31.7547 290.918 35.574 291.4 39.2306 290.603C42.8871 289.806 46.1597 287.779 48.502 284.86C47.9234 292.319 53.8855 299.376 61.1559 301.149C68.4262 302.923 76.338 299.992 81.6335 294.709C86.929 289.426 89.8472 282.131 90.9792 274.735C92.1113 267.338 91.5201 259.804 90.8031 252.358Z" fill="#263238"/>
<path d="M57.2561 197.164C50.0109 199.503 48.5267 205.377 47.0172 210.27C43.7846 220.798 47.4323 236.383 53.3064 245.691C59.1806 254.999 65.6584 259.728 76.5639 261.301C76.9245 244.622 77.2976 227.897 77.6834 211.126L57.2561 197.164Z" fill="#3780EF"/>
<path d="M53.1689 225.943C50.7839 222.646 49.6323 218.616 49.915 214.556C50.1978 210.496 51.8969 206.665 54.716 203.73C51.5336 199.742 52.6783 193.604 55.8983 189.654C59.1184 185.705 63.9234 183.441 68.5396 181.302C71.0553 169.642 84.1746 161.441 95.7845 164.233C101.835 155.353 114.715 153.957 125.029 156.963C127.49 157.883 130.069 158.446 132.689 158.636C134.612 158.497 136.524 158.233 138.413 157.844C148.916 156.435 159.33 163.818 163.418 173.592C163.962 175.201 164.715 176.732 165.657 178.145C167.016 179.894 169.079 180.925 170.84 182.283C172.74 183.767 174.298 185.642 175.408 187.783C176.517 189.923 177.151 192.278 177.267 194.686C177.431 198.761 176.135 203.088 177.858 206.786C178.714 208.648 180.273 210.145 180.94 212.082C182.877 217.679 176.676 223.402 177.821 229.226C178.06 230.408 178.588 231.515 178.928 232.672C179.595 235.082 179.367 237.651 178.286 239.905C177.469 241.628 176.123 243.201 176.009 245.113C176.116 246.556 176.403 247.98 176.865 249.351C177.569 252.823 170.085 266.206 167.079 268.093L77.4451 268.898C74.054 268.136 70.9841 266.337 68.6605 263.752C66.337 261.167 64.8749 257.924 64.4768 254.471C64.5178 253.316 64.2299 252.173 63.6466 251.175C62.9453 250.486 62.1107 249.946 61.1939 249.59C55.4204 246.484 54.7286 238.559 55.3323 231.981C55.4959 231.074 55.4959 230.145 55.3323 229.239C54.8394 228.006 54.1037 226.885 53.1689 225.943Z" fill="#263238"/>
<path d="M78.8532 226.069C78.589 210.208 88.5385 191.981 104.299 184.221C114.224 179.328 121.984 179.302 127.204 178.686C134.536 177.988 141.906 179.536 148.336 183.126C153.28 184.283 171.392 200.862 172.336 218.849C173.38 238.836 173.858 263.276 171.33 278.156C166.298 308.067 143.242 311.64 143.242 311.64L145.393 361.362L101.167 397.6L83.9726 340.042L78.8532 226.069Z" fill="#FFBF9D"/>
<path d="M143.242 311.64C129.086 311.717 115.187 307.863 103.092 300.508C103.092 300.508 113.557 321.816 143.581 319.3L143.242 311.64Z" fill="#FF9A6C"/>
<path d="M83.3702 254.521C83.3702 252.295 80.8545 246.974 78.6659 246.634C72.7918 245.653 62.1756 246.018 61.924 260.961C61.5718 281.388 82.1501 277.527 82.2004 276.948C82.2507 276.37 83.3073 262.231 83.3702 254.521Z" fill="#FFBF9D"/>
<path d="M76.689 269.389C76.601 269.313 76.3243 269.628 75.7205 269.892C74.8697 270.238 73.9173 270.238 73.0664 269.892C70.9155 269.062 69.1546 265.603 69.1294 261.917C69.1087 260.18 69.4783 258.461 70.2112 256.886C70.413 256.252 70.7657 255.678 71.239 255.211C71.7123 254.744 72.292 254.399 72.9281 254.207C73.3389 254.101 73.7738 254.144 74.1558 254.329C74.5379 254.513 74.8426 254.826 75.0161 255.213C75.2803 255.791 75.1419 256.194 75.2551 256.232C75.3683 256.269 75.6953 255.905 75.5444 255.049C75.4336 254.554 75.1588 254.111 74.7645 253.791C74.2071 253.359 73.5034 253.161 72.8023 253.238C71.9611 253.392 71.1732 253.759 70.5129 254.302C69.8527 254.846 69.3419 255.549 69.0288 256.345C68.1364 258.102 67.6792 260.047 67.6955 262.018C67.7584 266.131 69.7961 270.03 72.7268 270.936C73.2716 271.106 73.8478 271.15 74.4121 271.065C74.9764 270.98 75.5141 270.768 75.9846 270.445C76.6513 269.879 76.7645 269.426 76.689 269.389Z" fill="#FF9A6C"/>
<path d="M176.713 215.83C176.059 208.409 173.103 201.365 169.53 194.837C167.207 190.221 164.081 186.055 160.298 182.535C156.939 179.828 153.228 177.59 149.267 175.881C139.028 171.026 127.619 166.9 116.563 169.39C110.626 170.736 105.242 173.881 100.098 177.038C96.0273 179.322 92.2294 182.06 88.7772 185.201C85.9021 188.119 83.4277 191.405 81.4188 194.975C76.3106 203.31 73.1943 212.71 72.3121 222.446C71.6454 232.169 64.2871 240.773 69.9977 248.672C70.4379 249.288 80.5887 251.389 81.3182 251.666C82.966 252.332 84.7773 250.534 84.7647 248.76C84.6725 247.878 84.4019 247.024 83.9695 246.25C83.537 245.476 82.9517 244.798 82.249 244.257C84.7647 244.169 86.5131 241.364 86.3496 238.836C86.1861 236.307 84.7018 234.094 83.205 232.056C82.9853 231.805 82.8337 231.502 82.7647 231.175C82.6515 230.32 83.6326 229.779 84.3748 229.339C85.2326 228.753 85.9463 227.98 86.4621 227.078C86.9779 226.176 87.2824 225.169 87.3527 224.133C87.4229 223.096 87.257 222.057 86.8676 221.094C86.4781 220.131 85.8752 219.268 85.1043 218.572C86.2953 218.237 87.4067 217.666 88.3723 216.892C89.3379 216.119 90.138 215.159 90.7248 214.07C91.3117 212.98 91.6733 211.784 91.7882 210.552C91.9031 209.32 91.7688 208.078 91.3935 206.899C91.1935 206.557 91.0637 206.178 91.0119 205.785C90.96 205.392 90.9872 204.992 91.0916 204.61C91.4312 203.931 92.274 203.717 93.0035 203.503C95.6815 202.618 97.9499 200.795 99.3919 198.371C100.834 195.947 101.353 193.084 100.852 190.308C103.682 190.6 106.538 190.473 109.33 189.931C110.727 189.657 112.047 189.084 113.202 188.253C114.357 187.422 115.319 186.351 116.022 185.113C116.933 186.749 118.244 188.128 119.833 189.119C121.422 190.11 123.236 190.682 125.106 190.781C126.976 190.881 128.84 190.504 130.525 189.687C132.21 188.869 133.659 187.637 134.739 186.107C139.521 186.566 144.342 185.823 148.764 183.944C149.329 186.161 150.442 188.202 152 189.879C153.558 191.555 155.511 192.815 157.682 193.541C158.524 193.818 159.493 194.082 159.895 194.874C160.111 195.4 160.176 195.974 160.084 196.535C159.933 199.377 161.883 200.597 163.455 202.987C165.027 205.377 167.769 208.912 170.512 208.132C170.21 212.987 172.813 216.522 176.914 219.151L176.713 215.83Z" fill="#263238"/>
<path d="M180.94 212.082C180.697 211.296 180.332 210.553 179.858 209.881C179.43 209.189 178.827 208.396 178.261 207.365C177.633 206.198 177.256 204.913 177.154 203.591C177.056 201.914 177.098 200.231 177.28 198.56C177.52 196.54 177.487 194.496 177.179 192.485C176.758 190.154 175.859 187.935 174.537 185.969C173.813 184.904 172.969 183.925 172.022 183.051C171.017 182.16 169.945 181.348 168.814 180.623C167.647 179.896 166.606 178.982 165.733 177.919C164.938 176.718 164.3 175.42 163.833 174.057C161.405 167.983 156.88 162.98 151.079 159.957C149.516 159.152 147.871 158.515 146.173 158.058C144.42 157.624 142.621 157.405 140.815 157.404C139.894 157.421 138.974 157.488 138.06 157.605C137.142 157.731 136.236 157.919 135.331 158.07C133.531 158.454 131.671 158.454 129.872 158.07C128.048 157.693 126.262 157.014 124.375 156.536C122.48 156.015 120.544 155.653 118.589 155.454C116.599 155.256 114.597 155.223 112.601 155.353C110.571 155.506 108.562 155.86 106.602 156.41C102.54 157.505 98.9246 159.845 96.2621 163.102L95.4948 164.108L95.8219 163.982C89.8827 162.789 83.712 163.917 78.5789 167.134C73.4458 170.351 69.7405 175.412 68.2249 181.277L68.3884 181.076C65.9109 182.177 63.5076 183.437 61.1936 184.85C58.9251 186.2 56.9252 187.956 55.2943 190.032C53.7634 192.084 52.8237 194.515 52.5773 197.063C52.3003 199.527 52.9802 202.004 54.4767 203.981V203.579C51.714 206.401 50.0196 210.097 49.6843 214.031C49.3172 217.549 50.0325 221.095 51.7346 224.195C52.1274 224.906 52.5731 225.588 53.0679 226.233C53.5584 226.861 54.0616 227.49 54.4641 228.069C54.8603 228.672 55.1022 229.363 55.1685 230.082C55.2062 230.787 55.181 231.494 55.093 232.195C54.8423 234.779 54.8929 237.383 55.244 239.956C55.5171 242.033 56.183 244.039 57.2062 245.867C57.9824 247.214 59.0638 248.36 60.3634 249.213C61.4074 249.918 62.3382 250.194 62.8791 250.584C63.1426 250.769 63.3908 250.976 63.6212 251.201C63.4397 250.929 63.2042 250.698 62.9293 250.521C62.4136 250.106 61.4828 249.804 60.4137 249.087C59.1642 248.22 58.1278 247.08 57.3823 245.754C56.3915 243.946 55.7554 241.965 55.5081 239.918C55.1924 237.367 55.1629 234.789 55.42 232.232C55.5172 231.507 55.5509 230.775 55.5207 230.044C55.4513 229.268 55.1921 228.52 54.766 227.868C54.3289 227.215 53.8587 226.585 53.3572 225.981C50.7735 222.581 49.6141 218.309 50.1245 214.069C50.4752 210.273 52.1337 206.716 54.8163 204.007L54.9798 203.843L54.8414 203.667C53.4281 201.788 52.7929 199.436 53.0679 197.101C53.3191 194.655 54.2323 192.324 55.7094 190.359C57.301 188.344 59.2495 186.638 61.4577 185.328C63.7578 183.959 66.1395 182.732 68.5896 181.655H68.728V181.504C70.2053 175.766 73.8266 170.814 78.846 167.667C83.8654 164.519 89.9006 163.417 95.7086 164.586H95.9099L96.0357 164.41C96.2872 164.095 96.5262 163.768 96.7778 163.441C99.3744 160.283 102.892 158.014 106.841 156.951C108.761 156.42 110.728 156.075 112.715 155.919C114.672 155.789 116.637 155.823 118.589 156.02C120.492 156.203 122.377 156.544 124.224 157.039C126.073 157.504 127.872 158.183 129.758 158.573C130.697 158.773 131.654 158.878 132.614 158.888C133.559 158.872 134.501 158.78 135.431 158.611C136.349 158.448 137.242 158.259 138.136 158.133C139.029 158.007 139.922 157.932 140.815 157.932C142.574 157.93 144.327 158.141 146.035 158.561C147.694 158.999 149.3 159.615 150.827 160.397C156.534 163.364 160.994 168.271 163.406 174.233C163.887 175.635 164.551 176.967 165.38 178.196C166.286 179.294 167.365 180.237 168.575 180.988C169.697 181.69 170.761 182.481 171.758 183.353C172.672 184.204 173.49 185.153 174.198 186.183C175.488 188.08 176.378 190.22 176.814 192.472C177.131 194.452 177.182 196.466 176.965 198.459C176.791 200.152 176.766 201.857 176.89 203.554C176.999 204.923 177.402 206.253 178.072 207.453C178.663 208.484 179.33 209.264 179.732 209.969C180.079 210.468 180.386 210.994 180.65 211.541C180.827 211.881 180.927 212.082 180.94 212.082Z" fill="#455A64"/>
<path d="M105.358 159.831C105.358 159.831 105.911 159.516 106.905 159.038C108.311 158.369 109.821 157.943 111.37 157.781C113.657 157.521 115.971 157.877 118.074 158.812C120.635 159.985 122.758 161.94 124.137 164.397C124.563 165.126 124.901 165.903 125.143 166.711C125.276 167.06 125.328 167.435 125.298 167.807C125.267 168.179 125.154 168.539 124.967 168.862L124.464 169.554L125.294 169.328C127.416 168.77 129.671 169.058 131.584 170.133C133.104 170.989 134.308 172.312 135.017 173.906C135.494 174.968 135.754 176.114 135.785 177.277C135.785 178.095 135.785 178.535 135.785 178.535C135.785 178.535 135.785 178.434 135.885 178.22C135.948 177.905 135.986 177.586 135.999 177.265C136.049 175.738 135.691 174.225 134.962 172.882C134.232 171.54 133.157 170.417 131.848 169.629C129.812 168.44 127.388 168.105 125.106 168.699L125.433 169.164C125.674 168.77 125.824 168.328 125.872 167.868C125.92 167.409 125.864 166.945 125.709 166.51C125.455 165.634 125.101 164.789 124.653 163.994C123.211 161.422 120.973 159.387 118.276 158.196C116.443 157.406 114.454 157.043 112.46 157.134C110.466 157.226 108.519 157.769 106.766 158.724C106.385 158.932 106.019 159.167 105.672 159.428C105.521 159.705 105.358 159.806 105.358 159.831Z" fill="#455A64"/>
<path d="M72.0739 183.025C72.0739 183.025 72.2877 183.315 72.7782 183.755C73.4883 184.373 74.2596 184.916 75.0801 185.378C76.3259 186.089 77.7129 186.519 79.1429 186.635C80.9479 186.78 82.7421 186.247 84.1743 185.139L83.7214 185.063L84.3126 185.906C84.5264 186.183 84.7654 186.447 85.0044 186.723C86.3951 188.19 88.122 189.295 90.0358 189.944C91.5966 190.473 93.2462 190.691 94.891 190.585C95.9973 190.51 97.0865 190.272 98.1237 189.881C98.5073 189.749 98.868 189.558 99.1929 189.315C97.7951 189.773 96.3459 190.056 94.8785 190.157C93.2901 190.19 91.709 189.934 90.2119 189.403C88.387 188.762 86.7403 187.697 85.407 186.296C85.1805 186.044 84.9541 185.793 84.7529 185.541L84.1869 184.749L83.9856 184.459L83.734 184.673C82.4054 185.703 80.7446 186.209 79.0674 186.095C77.704 186.01 76.3724 185.646 75.1555 185.025C73.1933 183.944 72.1367 182.937 72.0739 183.025Z" fill="#455A64"/>
<path d="M61.131 201.881C61.131 201.881 61.131 202.019 61.131 202.258C61.2215 202.611 61.3703 202.947 61.5712 203.252C62.3486 204.37 63.5144 205.159 64.8416 205.465C66.8076 205.834 68.8381 205.629 70.6906 204.874C71.7909 204.516 72.8702 204.096 73.9232 203.616C75.1343 203.134 76.1395 202.244 76.7659 201.101C76.7659 200.988 76.854 200.874 76.8917 200.774L76.4137 200.912C78.226 202.436 80.2571 203.678 82.4388 204.598C84.2543 205.339 86.2401 205.561 88.1745 205.239C89.4749 205.029 90.6978 204.483 91.7216 203.654C92.0042 203.44 92.2541 203.186 92.4638 202.899C92.6147 202.711 92.6902 202.61 92.665 202.598C92.6399 202.585 92.3002 202.95 91.5833 203.465C90.5519 204.188 89.3607 204.65 88.1116 204.811C86.2583 205.058 84.3727 204.802 82.6526 204.069C80.5344 203.145 78.5602 201.921 76.7911 200.434L76.4766 200.17L76.3131 200.572L76.1999 200.849C75.6457 201.867 74.7571 202.662 73.6842 203.101C72.6402 203.604 71.5459 203.981 70.527 204.359C68.7735 205.099 66.8489 205.338 64.9674 205.05C63.7159 204.806 62.5922 204.123 61.7976 203.126C61.5362 202.733 61.313 202.316 61.131 201.881Z" fill="#455A64"/>
<path d="M127.104 244.459C127.149 245.445 126.805 246.41 126.146 247.146C125.488 247.882 124.567 248.331 123.582 248.396C123.1 248.448 122.613 248.403 122.149 248.264C121.684 248.125 121.253 247.894 120.879 247.586C120.505 247.278 120.197 246.898 119.972 246.469C119.747 246.04 119.61 245.57 119.569 245.087C119.524 244.101 119.868 243.136 120.526 242.4C121.185 241.664 122.106 241.215 123.091 241.15C123.573 241.098 124.06 241.143 124.524 241.282C124.988 241.421 125.42 241.652 125.794 241.96C126.168 242.268 126.476 242.648 126.701 243.077C126.926 243.506 127.063 243.976 127.104 244.459Z" fill="#263238"/>
<path d="M162.651 242.37C162.693 243.355 162.347 244.317 161.689 245.05C161.031 245.783 160.112 246.23 159.129 246.295C158.65 246.349 158.164 246.306 157.702 246.169C157.239 246.032 156.809 245.804 156.436 245.498C156.063 245.192 155.755 244.814 155.531 244.387C155.306 243.96 155.17 243.493 155.129 243.012C155.087 242.03 155.431 241.07 156.086 240.337C156.742 239.604 157.658 239.155 158.638 239.088C159.119 239.034 159.605 239.076 160.068 239.213C160.531 239.35 160.962 239.578 161.336 239.884C161.71 240.19 162.019 240.567 162.245 240.994C162.471 241.421 162.609 241.889 162.651 242.37Z" fill="#263238"/>
<path d="M165.204 229.83C164.751 230.346 161.821 228.308 157.758 228.459C153.695 228.61 150.777 230.723 150.324 230.245C150.098 230.031 150.55 229.126 151.821 228.132C153.539 226.859 155.608 226.148 157.745 226.094C159.86 226.016 161.944 226.616 163.695 227.805C164.978 228.736 165.431 229.604 165.204 229.83Z" fill="#263238"/>
<path d="M124.776 231.855C124.273 232.32 121.556 230.006 117.506 229.729C113.456 229.452 110.336 231.263 109.959 230.735C109.77 230.509 110.299 229.653 111.67 228.798C113.511 227.702 115.647 227.206 117.783 227.377C119.892 227.518 121.902 228.328 123.519 229.691C124.663 230.735 125.015 231.653 124.776 231.855Z" fill="#263238"/>
<path d="M139.933 262.383C139.933 262.156 142.448 261.628 146.499 260.974C147.53 260.836 148.511 260.597 148.662 259.88C148.718 258.807 148.441 257.744 147.87 256.836L144.549 249.024C139.92 237.905 136.537 228.748 137.002 228.572C137.467 228.396 141.568 237.251 146.184 248.37C147.3 251.112 148.365 253.729 149.379 256.219C150.079 257.451 150.32 258.89 150.058 260.282C149.916 260.651 149.694 260.984 149.406 261.256C149.119 261.528 148.774 261.733 148.398 261.854C147.826 262.029 147.234 262.13 146.637 262.156C142.511 262.508 139.958 262.609 139.933 262.383Z" fill="#263238"/>
<path d="M133.646 268.42C132.871 268.517 132.123 268.768 131.447 269.159C130.771 269.55 130.18 270.073 129.709 270.697C128.816 271.955 128.175 274.961 129.055 276.118C129.936 277.275 133.168 277.099 135.483 276.81C136.007 276.745 136.503 276.534 136.912 276.2C137.321 275.866 137.628 275.424 137.797 274.923L138.715 272.294C138.842 271.939 138.896 271.561 138.876 271.184C138.855 270.807 138.759 270.438 138.594 270.099C138.429 269.759 138.198 269.456 137.914 269.206C137.63 268.957 137.3 268.767 136.942 268.647C135.872 268.336 134.748 268.259 133.646 268.42Z" fill="#FF9A6C"/>
<path d="M126.488 215.667C125.884 216.686 121.997 215.39 117.205 215.038C112.412 214.686 108.4 215.239 107.934 214.145C107.746 213.616 108.614 212.723 110.337 211.969C112.628 211.078 115.091 210.721 117.541 210.924C119.99 211.126 122.362 211.884 124.475 213.138C126.06 214.17 126.739 215.189 126.488 215.667Z" fill="#263238"/>
<path d="M164.474 221.654C163.808 222.698 160.449 222.27 156.588 222.836C152.726 223.402 149.569 224.597 148.663 223.767C148.261 223.364 148.663 222.358 149.921 221.251C151.705 219.869 153.831 218.999 156.072 218.735C158.299 218.399 160.577 218.686 162.651 219.566C164.147 220.283 164.751 221.188 164.474 221.654Z" fill="#263238"/>
<path d="M138.299 276.345C138.211 276.345 138.299 276.068 138.424 275.69C138.638 275.207 138.778 274.694 138.839 274.168C138.839 273.577 138.626 272.848 138.034 272.722C137.617 272.664 137.194 272.664 136.777 272.722C136.273 272.722 135.745 272.722 135.204 272.81C130.865 273.137 127.456 274.257 127.318 273.904C127.179 273.552 130.525 271.854 135.104 271.502C135.67 271.502 136.223 271.439 136.751 271.439C137.329 271.399 137.909 271.467 138.462 271.64C138.752 271.744 139.015 271.91 139.233 272.128C139.45 272.345 139.617 272.608 139.72 272.898C139.874 273.36 139.9 273.856 139.795 274.332C139.643 274.951 139.331 275.519 138.89 275.98C138.563 276.269 138.374 276.395 138.299 276.345Z" fill="#263238"/>
<path d="M34.4384 411.122L67.834 501.158L49.872 552H217.869C217.869 552 207.555 504.781 206.926 494.139C206.297 483.498 206.926 422.92 201.895 402.128C196.863 381.336 182.36 336.721 182.36 336.721L139.782 329.966C120.261 340.457 104.928 338.696 83.9343 326.532L45.3312 345.5L34.4384 411.122Z" fill="#3780EF"/>
<path d="M181.291 336.759C181.291 336.759 194.209 339.513 203.467 358.293C212.574 376.884 247.768 458.782 249.139 472.517C250.51 486.253 239.366 504.743 229.655 507.297L199.694 463.385L200.612 456.97L175.518 373.299L181.291 336.759Z" fill="#3780EF"/>
<path d="M187.819 367.89L187.995 368.079L188.486 368.645C188.888 369.173 189.555 369.903 190.285 370.922C192.4 373.776 194.261 376.81 195.844 379.991C198.191 384.71 200.033 389.664 201.341 394.77C202.934 401.032 203.899 407.436 204.222 413.889C204.609 425.593 203.838 437.306 201.92 448.857C201.253 453.297 200.662 456.882 200.209 459.348C199.995 460.605 199.819 461.511 199.706 462.203C199.643 462.492 199.593 462.744 199.555 462.932C199.544 463.02 199.518 463.105 199.479 463.184C199.474 463.1 199.474 463.016 199.479 462.932C199.479 462.731 199.479 462.48 199.568 462.178L199.983 459.322C200.347 456.807 200.876 453.209 201.517 448.807C202.712 439.927 204.335 427.562 203.655 413.889C203.339 407.473 202.396 401.103 200.838 394.871C199.565 389.785 197.77 384.845 195.48 380.129C193.938 376.94 192.133 373.886 190.083 370.997C189.392 369.953 188.75 369.223 188.373 368.683L187.933 368.079C187.857 367.966 187.807 367.903 187.819 367.89Z" fill="#263238"/>
<path d="M232.838 460.064C232.407 460.011 231.985 459.906 231.58 459.75L228.284 458.731C224.699 457.547 221.003 456.73 217.253 456.291C213.503 455.886 209.711 456.316 206.146 457.549C204.698 458.131 203.298 458.824 201.958 459.624C202.245 459.306 202.581 459.035 202.951 458.819C203.908 458.169 204.933 457.625 206.008 457.196C209.612 455.819 213.493 455.319 217.328 455.737C221.12 456.169 224.847 457.043 228.435 458.341C229.806 458.819 230.951 459.234 231.668 459.524C232.077 459.659 232.469 459.841 232.838 460.064Z" fill="#263238"/>
<path d="M229.203 440.593C228.803 440.796 228.381 440.952 227.946 441.058C227.141 441.31 225.996 441.712 224.612 442.253C217.323 445.076 210.716 449.415 205.229 454.982C204.172 456.052 203.355 456.932 202.801 457.561C202.534 457.907 202.23 458.223 201.896 458.504C202.094 458.117 202.344 457.757 202.638 457.435C203.141 456.756 203.896 455.825 204.952 454.718C210.338 448.942 217.033 444.546 224.474 441.901C225.591 441.493 226.729 441.144 227.883 440.857C228.312 440.721 228.755 440.632 229.203 440.593Z" fill="#263238"/>
<g opacity="0.3">
<path d="M198.563 387.223C205.684 405.786 207.67 425.926 204.312 445.524L220.412 439.511C216 445.587 210.284 450.598 203.683 454.177C208.022 452.92 212.487 451.662 216.978 451.951C221.468 452.24 226.148 454.467 228.173 458.454C222.915 457.498 217.557 456.53 212.249 457.196C206.94 457.863 201.569 460.265 198.714 464.743C202.683 447.589 204.203 429.96 203.23 412.379" fill="black"/>
</g>
<g opacity="0.3">
<path d="M205.242 500.429L85.2312 512.252C93.8851 512.076 100.539 519.397 108.023 523.724C121.859 531.749 139.167 529.497 154.991 527.007L194.324 520.831C197.632 520.303 201.154 519.686 203.594 517.384C207.971 513.271 206.764 506.164 205.242 500.429Z" fill="black"/>
</g>
<path d="M113.584 490.504L93.4582 471.096C92.4913 470.174 91.3365 469.472 90.073 469.037C88.8095 468.603 87.467 468.447 86.1375 468.58C80.4018 469.121 70.6787 470.127 68.6787 470.907C65.8108 472.027 63.0939 473.624 62.3015 475.058C60.8079 478.739 59.5805 482.522 58.6286 486.379C58.6195 487.748 58.7247 489.115 58.943 490.467C58.9979 490.927 59.1647 491.367 59.4288 491.749C59.6929 492.13 60.0463 492.441 60.4581 492.654C60.87 492.868 61.3278 492.977 61.7916 492.973C62.2554 492.969 62.7112 492.851 63.1191 492.63C63.9032 492.224 64.5571 491.605 65.0058 490.844C66.2637 488.454 66.1253 487.486 66.1253 487.486C66.1253 487.486 65.4838 496.114 72.5151 496.29C72.5151 496.29 69.2825 503.636 78.3264 506.668C78.3264 506.668 77.9867 511.46 85.5463 512.089C90.348 512.468 95.1721 512.468 99.9738 512.089C99.9738 512.089 113.81 522.026 123.546 522.667C133.281 523.309 155.092 519.045 155.092 519.045L157.721 478.882L113.584 490.504Z" fill="#FFBF9D"/>
<path d="M86.3625 478.19C85.3302 478.731 84.2528 479.182 83.1425 479.536C81.1174 480.291 78.3124 481.297 75.1301 482.153C73.5452 482.593 71.9603 482.844 70.6396 483.209C69.476 483.59 68.4976 484.394 67.8975 485.461C67.4566 486.188 66.9736 486.89 66.451 487.561C66.0485 488.027 65.7717 488.228 65.7466 488.203C65.9087 487.938 66.0851 487.682 66.2749 487.436C66.627 486.945 67.017 486.178 67.5327 485.247C67.8441 484.727 68.2157 484.246 68.6396 483.813C69.1466 483.313 69.7686 482.946 70.4509 482.744C71.8597 482.329 73.3691 482.077 74.9539 481.624C78.1111 480.782 80.9287 479.838 82.979 479.184C84.0799 478.767 85.2111 478.435 86.3625 478.19Z" fill="#FF9A6C"/>
<path d="M89.0047 490.504C88.3058 490.935 87.5585 491.281 86.7783 491.536C85.3695 492.102 83.3947 492.794 81.2061 493.574C79.0174 494.353 76.9923 494.907 75.5206 495.297C74.7423 495.563 73.9363 495.74 73.1182 495.825C73.8458 495.443 74.6136 495.144 75.4074 494.932L81.03 493.058L86.6399 491.184C87.4014 490.873 88.1942 490.645 89.0047 490.504Z" fill="#FF9A6C"/>
<path d="M93.9107 501.95C93.9107 502.114 90.4139 502.479 86.2379 503.623C82.0619 504.768 78.8293 506.139 78.7538 506.038C79.385 505.586 80.0747 505.223 80.8041 504.957C82.5192 504.202 84.2895 503.58 86.0996 503.095C87.9042 502.612 89.7412 502.259 91.5963 502.038C92.3605 501.907 93.1387 501.878 93.9107 501.95Z" fill="#FF9A6C"/>
<path d="M140.451 521.56L229.355 506.114C229.355 506.114 218.89 462.605 203.255 462.605C200.966 462.605 123.583 491.536 123.583 491.536L140.451 521.56Z" fill="#FFBF9D"/>
<path d="M124.853 502.089C124.11 501.505 123.412 500.866 122.765 500.177L117.935 495.397C116.048 493.523 114.35 491.787 113.168 490.492C112.488 489.833 111.881 489.103 111.357 488.315C112.1 488.899 112.798 489.538 113.445 490.227L118.312 495.02C120.212 496.894 121.897 498.63 123.08 499.925C123.749 500.578 124.344 501.304 124.853 502.089Z" fill="#FF9A6C"/>
<path d="M47.1177 344.457C47.1177 344.457 17.307 361.852 25.0049 393.902C33.6589 429.99 114.161 483.963 114.161 483.963C110.387 461.649 113.33 440.291 125.557 420.279L83.9347 381.726" fill="#3780EF"/>
<path d="M83.8723 381.726C83.8723 381.726 84.1364 381.94 84.627 382.393C85.1175 382.846 85.8848 383.513 86.8282 384.38L95.2054 392.066L125.633 420.128L125.758 420.241L125.67 420.392C120.314 429.155 116.538 438.789 114.513 448.857C112.333 460.449 112.282 472.341 114.362 483.951L114.463 484.555L113.947 484.215C105.482 478.429 96.9035 472.127 88.2873 465.423C71.4574 452.228 56.0615 438.795 43.722 424.883C42.1497 423.172 40.7284 421.374 39.2693 419.65C37.8102 417.927 36.4643 416.153 35.2065 414.342C32.6664 410.916 30.4075 407.29 28.4519 403.5C24.8631 396.676 23.1855 389.01 23.5966 381.311C23.9672 374.985 25.7923 368.83 28.9299 363.324C31.2817 359.165 34.2029 355.355 37.6089 352.004C39.7375 349.881 42.0343 347.933 44.4768 346.18C45.3195 345.576 45.9862 345.148 46.4264 344.922C46.8666 344.696 47.1182 344.52 47.1182 344.52L46.4641 344.972C46.0239 345.262 45.3698 345.702 44.5522 346.318C42.1321 348.098 39.8567 350.066 37.7473 352.205C34.3868 355.565 31.5083 359.375 29.194 363.525C26.1041 369.012 24.3221 375.137 23.9865 381.425C23.6141 389.057 25.3089 396.649 28.8921 403.399C30.8454 407.164 33.1001 410.765 35.6342 414.166C36.892 415.965 38.3133 417.663 39.6844 419.449C41.0554 421.235 42.5648 422.946 44.1246 424.656C56.4137 438.493 71.797 451.914 88.6143 465.071C97.218 471.763 105.796 478.077 114.249 483.85L113.834 484.115C111.75 472.44 111.819 460.482 114.035 448.832C116.107 438.725 119.939 429.06 125.356 420.279V420.531L95.0545 392.255L86.7527 384.481L84.5892 382.443L83.8723 381.726Z" fill="#263238"/>
<path d="M114.16 482.819C114.16 482.819 133.028 498.165 152.235 489.008C155.317 487.549 159.191 483.712 161.53 477.322C173.794 443.7 175.228 354.947 175.228 354.947L141.619 352.67L125.481 420.279C113.934 436.858 110.299 457.775 114.16 482.819Z" fill="#FFBF9D"/>
<path d="M165.947 461.436C165.957 461.651 165.935 461.867 165.884 462.077C165.821 462.492 165.733 463.108 165.582 463.888C165.293 465.473 164.84 467.737 164.073 470.505C163.202 473.761 161.996 476.918 160.475 479.926C158.672 483.69 155.876 486.891 152.387 489.183C148.757 491.237 144.647 492.292 140.476 492.24C137.1 492.241 133.743 491.74 130.514 490.756C128.342 490.118 126.236 489.276 124.224 488.24C123.507 487.9 122.967 487.548 122.614 487.347C122.421 487.251 122.24 487.132 122.073 486.995C122.073 486.995 122.878 487.372 124.325 488.051C126.352 489.006 128.456 489.789 130.614 490.391C133.82 491.309 137.141 491.762 140.476 491.737C144.551 491.764 148.563 490.723 152.111 488.718C155.517 486.476 158.255 483.356 160.035 479.687C161.564 476.722 162.794 473.612 163.708 470.404C164.513 467.662 165.029 465.373 165.368 463.851C165.544 463.108 165.67 462.517 165.771 462.052C165.808 461.841 165.867 461.634 165.947 461.436Z" fill="#FF9A6C"/>
<path d="M124.413 420.77C122.59 421.114 120.798 421.606 119.055 422.242C114.915 423.96 111.214 426.587 108.225 429.927C105.264 433.298 102.659 436.965 100.451 440.87L98.3757 444.392C98.1479 444.839 97.8739 445.26 97.5581 445.65C97.735 445.179 97.9452 444.72 98.187 444.279C98.6273 443.424 99.2813 442.178 100.112 440.669C102.25 436.678 104.842 432.947 107.835 429.55C110.866 426.144 114.665 423.51 118.916 421.864C120.208 421.395 121.544 421.058 122.904 420.858C123.274 420.803 123.648 420.769 124.023 420.757L124.413 420.77Z" fill="#263238"/>
<path d="M142.776 343.828C142.034 341.312 137.845 318.432 136.147 313.111C133.745 305.564 114.223 292.156 114.223 292.156C114.223 292.156 117.279 285.099 125.543 288.772C135.392 293.112 140.248 300.42 142.726 298.935C145.203 297.451 160.675 281.703 164.889 282.206C169.102 282.709 170.033 287.024 168.536 288.759C167.375 290.217 166.32 291.755 165.379 293.363C165.379 293.363 174.31 290.671 172.574 300.445C172.574 300.445 182.737 294.156 181.744 307.489C181.744 307.489 188.448 304.772 189.932 309.476C191.416 314.18 187.002 319.639 184.775 323.312C182.549 326.985 175.304 348.607 175.304 348.607L174.536 361.853L139.744 360.368L142.776 343.828Z" fill="#FFBF9D"/>
<path d="M174.978 363.11C174.978 363.11 174.978 362.783 174.978 362.154C174.978 361.525 174.978 360.582 174.978 359.374C174.978 356.859 175.091 353.299 175.192 348.645C177.028 343.236 179.355 336.205 182.512 328.042C183.272 325.888 184.268 323.825 185.481 321.891C186.859 319.902 188.063 317.798 189.078 315.602C189.58 314.461 189.89 313.246 189.996 312.004C190.118 310.747 189.817 309.486 189.141 308.419C188.957 308.17 188.741 307.946 188.5 307.753C188.241 307.574 187.962 307.426 187.669 307.312C187.068 307.079 186.427 306.964 185.783 306.973C184.434 306.985 183.1 307.245 181.846 307.74L181.506 307.866V307.501C181.598 306.244 181.573 304.98 181.43 303.728C181.322 302.455 180.816 301.249 179.984 300.281C179.516 299.845 178.947 299.529 178.329 299.362C177.711 299.196 177.061 299.183 176.437 299.325C175.103 299.55 173.822 300.023 172.663 300.721L172.21 300.986V300.47L172.399 298.96C172.399 298.445 172.399 297.942 172.399 297.426C172.324 296.41 171.943 295.44 171.305 294.646C170.573 293.902 169.592 293.454 168.55 293.388C167.472 293.289 166.385 293.387 165.343 293.677L164.714 293.841L165.041 293.288C165.657 292.256 166.299 291.237 167.003 290.244C167.368 289.74 167.733 289.25 168.122 288.772C168.502 288.349 168.736 287.816 168.789 287.25C168.854 286.672 168.796 286.087 168.621 285.532C168.445 284.977 168.156 284.466 167.77 284.03C166.961 283.149 165.844 282.613 164.651 282.533C164.059 282.55 163.478 282.7 162.953 282.973C162.39 283.232 161.844 283.526 161.318 283.854C160.235 284.521 159.189 285.248 158.186 286.03C156.148 287.577 154.173 289.25 152.211 290.973L147.632 295.049C146.11 296.407 144.664 297.791 143.041 299.036C142.819 299.22 142.556 299.351 142.274 299.416C141.993 299.482 141.7 299.481 141.419 299.413C140.905 299.257 140.423 299.01 139.997 298.684C139.18 298.08 138.45 297.426 137.708 296.747C136.249 295.413 134.79 294.13 133.243 292.973C131.709 291.825 130.09 290.795 128.4 289.891C126.784 288.964 125.023 288.314 123.192 287.967C121.414 287.631 119.574 287.878 117.947 288.671C116.382 289.483 115.104 290.757 114.287 292.319L114.199 292.017C119.501 295.556 124.533 299.483 129.255 303.765C131.422 305.733 133.359 307.94 135.029 310.344C135.425 310.938 135.762 311.57 136.035 312.231C136.161 312.558 136.324 312.872 136.425 313.212L136.702 314.205C137.041 315.526 137.343 316.834 137.632 318.105C139.897 328.369 141.406 337.148 142.941 343.79C141.922 349.11 141.142 353.249 140.601 356.054C140.337 357.437 140.123 358.494 139.985 359.236C139.846 359.978 139.746 360.305 139.746 360.305C139.746 360.305 139.746 359.94 139.909 359.223C140.073 358.506 140.224 357.425 140.463 356.029C140.978 353.211 141.72 349.073 142.676 343.739C141.092 337.06 139.532 328.318 137.23 318.08C136.588 315.564 136.236 312.759 134.714 310.457C133.051 308.089 131.132 305.913 128.991 303.967C124.34 299.703 119.383 295.785 114.161 292.244L113.973 292.118L114.073 291.929C114.92 290.225 116.303 288.847 118.01 288.006C119.717 287.165 121.653 286.908 123.52 287.275C125.408 287.627 127.224 288.294 128.89 289.25C130.604 290.157 132.244 291.195 133.796 292.357C135.363 293.538 136.871 294.798 138.312 296.13C139.041 296.784 139.771 297.464 140.551 298.042C141.331 298.621 142.249 299.036 142.966 298.382C144.525 297.187 145.997 295.778 147.519 294.432L152.098 290.357C154.06 288.634 156.047 286.948 158.098 285.388C159.117 284.602 160.175 283.867 161.267 283.187C161.817 282.844 162.388 282.537 162.978 282.269C163.583 281.961 164.249 281.793 164.928 281.778C166.259 281.871 167.503 282.475 168.399 283.464C168.839 283.956 169.169 284.535 169.369 285.164C169.568 285.792 169.632 286.456 169.556 287.112C169.481 287.774 169.205 288.397 168.764 288.898C168.387 289.35 168.022 289.841 167.682 290.332C166.99 291.313 166.336 292.319 165.733 293.338L165.431 292.961C166.539 292.654 167.694 292.552 168.839 292.659C170.007 292.735 171.105 293.241 171.921 294.08C172.644 294.956 173.083 296.03 173.179 297.162C173.179 297.703 173.179 298.243 173.179 298.772L172.99 300.344L172.6 300.08C173.814 299.351 175.154 298.856 176.55 298.621C177.252 298.504 177.97 298.525 178.663 298.684C179.362 298.852 180.002 299.208 180.512 299.715C181.428 300.772 181.979 302.095 182.085 303.489C182.216 304.789 182.216 306.1 182.085 307.401L181.757 307.162C183.071 306.658 184.464 306.39 185.871 306.369C186.576 306.361 187.276 306.489 187.933 306.746C188.263 306.876 188.575 307.045 188.864 307.25C189.142 307.47 189.388 307.728 189.594 308.017C190.329 309.168 190.657 310.532 190.525 311.891C190.415 313.194 190.088 314.47 189.556 315.664C188.524 317.86 187.308 319.964 185.921 321.954C184.702 323.854 183.706 325.888 182.952 328.016C179.758 336.155 177.393 343.111 175.519 348.557C175.368 353.198 175.254 356.808 175.179 359.274C175.179 360.532 175.104 361.412 175.078 362.066C175.053 362.72 174.978 363.11 174.978 363.11Z" fill="#FF9A6C"/>
<path d="M165.405 293.602C164.047 295.026 162.606 296.37 161.091 297.627C159.693 299.016 158.219 300.326 156.676 301.552C157.838 299.948 159.199 298.498 160.726 297.237C162.128 295.835 163.7 294.614 165.405 293.602Z" fill="#FF9A6C"/>
<path d="M173.355 299.916C172.305 302.792 170.383 305.268 167.858 306.998C167.757 306.872 169.229 305.501 170.738 303.552C172.248 301.602 173.204 299.841 173.355 299.916Z" fill="#FF9A6C"/>
<path d="M181.657 306.998C181.199 308.108 180.571 309.139 179.795 310.055C179.165 311.072 178.389 311.991 177.493 312.784C177.959 311.682 178.586 310.656 179.355 309.74C179.988 308.721 180.763 307.798 181.657 306.998Z" fill="#FF9A6C"/>
</svg>
