<svg width="44" height="33" viewBox="0 0 44 33" fill="none" xmlns="http://www.w3.org/2000/svg">
<path d="M5.68015 6.84737C5.68015 6.84737 -2.33978 8.61391 1.61409 25.523C4.10979 36.1227 10.6715 30.0377 10.6715 30.0377C11.4218 30.7902 12.3436 31.3492 13.3577 31.6667C14.3718 31.9841 15.4478 32.0505 16.4932 31.8602C17.5387 31.6698 18.5224 31.2284 19.3595 30.574C20.1966 29.9195 20.8622 29.0715 21.2992 28.1029L22.2246 29.1404C22.2246 29.1404 27.1039 37.3846 34.1984 29.4769C35.5966 30.0986 37.1512 30.2787 38.6545 29.9931C40.1578 29.7074 41.5381 28.9698 42.6109 27.8786C46.032 23.9527 40.4516 15.0916 40.4516 15.0916C40.4516 15.0916 39.3301 2.08022 35.8249 1.60352C34.7624 1.43944 33.6756 1.64158 32.7431 2.17662C31.8106 2.71166 31.0877 3.54786 30.6932 4.54794C30.3523 7.5921 30.2024 10.6546 30.2444 13.7175C30.2444 13.7175 29.3191 2.50091 26.9917 1.49141C22.8976 -0.0789167 18.8877 0.678165 20.3458 14.4185C20.3458 14.4185 19.4205 4.21141 17.1771 3.20191C14.9338 2.19241 11.7651 3.84685 10.3069 7.66051C9.43298 9.91679 9.10635 12.3481 9.3536 14.755C9.3536 14.755 10.7276 4.88446 5.68015 6.84737Z" fill="#FFBF9D"/>
<path d="M10.6996 29.5044C10.8311 26.4065 10.7186 23.303 10.3631 20.2227C10.4099 17.1191 10.2224 14.0163 9.80226 10.9409C8.56361 17.1079 8.87192 23.4857 10.6996 29.5044Z" fill="#FF9A6C"/>
<path d="M21.7194 28.2702C21.7304 25.3406 21.5054 22.4148 21.0465 19.5213C20.9898 16.5983 20.718 13.6834 20.2333 10.8003C19.4812 13.6835 19.3378 16.6918 19.8126 19.6335C19.8612 22.6113 20.5097 25.5487 21.7194 28.2702Z" fill="#FF9A6C"/>
<path d="M34.7875 29.6451C35.124 29.4769 33.1611 25.7194 31.9834 20.6999C30.8056 15.6805 30.8337 11.4742 30.4411 11.4462C29.7011 14.6068 29.8173 17.9076 30.7776 21.0084C31.3148 24.195 32.6999 27.1783 34.7875 29.6451Z" fill="#FF9A6C"/>
</svg>
