<svg width="168" height="160" viewBox="0 0 168 160" fill="none" xmlns="http://www.w3.org/2000/svg">
<path d="M152.893 15.6313H13.5193V145.823H152.893V15.6313Z" fill="white" fill-opacity="0.7"/>
<path d="M152.893 15.6313H13.5193V24.6029H152.893V15.6313Z" fill="#3780EF"/>
<path opacity="0.5" d="M152.893 15.6313H13.5193V24.6029H152.893V15.6313Z" fill="white"/>
<path d="M19.9659 20.8264C19.9524 21.0808 19.8646 21.3256 19.7134 21.5306C19.5622 21.7356 19.3542 21.8917 19.1151 21.9797C18.8761 22.0677 18.6165 22.0836 18.3684 22.0256C18.1204 21.9675 17.8949 21.838 17.7197 21.653C17.5445 21.4681 17.4275 21.2358 17.383 20.985C17.3384 20.7342 17.3685 20.4759 17.4693 20.2419C17.5701 20.008 17.7373 19.8088 17.9502 19.6689C18.1631 19.5291 18.4124 19.4547 18.6671 19.4551C18.8424 19.4598 19.0151 19.499 19.1753 19.5705C19.3355 19.6419 19.48 19.7443 19.6006 19.8716C19.7213 19.999 19.8156 20.1488 19.8783 20.3127C19.9409 20.4765 19.9707 20.6511 19.9659 20.8264Z" fill="#3780EF"/>
<path d="M24.6712 20.8264C24.6577 21.0808 24.5699 21.3256 24.4187 21.5306C24.2675 21.7356 24.0595 21.8917 23.8204 21.9797C23.5814 22.0677 23.3218 22.0836 23.0738 22.0256C22.8257 21.9675 22.6002 21.838 22.425 21.653C22.2499 21.4681 22.1328 21.2358 22.0883 20.985C22.0438 20.7342 22.0738 20.4759 22.1746 20.2419C22.2754 20.008 22.4427 19.8088 22.6556 19.6689C22.8685 19.5291 23.1177 19.4547 23.3724 19.4551C23.5478 19.4598 23.7205 19.499 23.8806 19.5705C24.0408 19.6419 24.1853 19.7443 24.306 19.8716C24.4266 19.999 24.5209 20.1488 24.5836 20.3127C24.6462 20.4765 24.676 20.6511 24.6712 20.8264Z" fill="#3780EF"/>
<path d="M28.9918 19.8577C29.2366 20.1209 29.3727 20.4669 29.3727 20.8263C29.3727 21.1857 29.2366 21.5318 28.9918 21.795C28.8747 21.9213 28.7327 22.0222 28.5747 22.0911C28.4168 22.16 28.2463 22.1956 28.074 22.1956C27.9017 22.1956 27.7312 22.16 27.5732 22.0911C27.4153 22.0222 27.2733 21.9213 27.1562 21.795C26.9114 21.5318 26.7753 21.1857 26.7753 20.8263C26.7753 20.4669 26.9114 20.1209 27.1562 19.8577C27.2733 19.7313 27.4153 19.6305 27.5732 19.5616C27.7312 19.4926 27.9017 19.457 28.074 19.457C28.2463 19.457 28.4168 19.4926 28.5747 19.5616C28.7327 19.6305 28.8747 19.7313 28.9918 19.8577Z" fill="#3780EF"/>
<path d="M152.893 145.826C152.893 145.141 152.86 93.876 152.813 15.6313L152.893 15.7148H13.5301L13.6244 15.6204C13.6244 63.1122 13.6244 107.731 13.6244 145.815L13.541 145.732L152.914 145.815L13.5192 145.899H13.4358V145.815C13.4358 107.723 13.4358 63.1013 13.4358 15.6204V15.5261H13.541H152.903H152.987V15.6059C152.925 93.876 152.893 145.141 152.893 145.826Z" fill="#263238"/>
<path d="M119.405 126.642H109.084V136.963H119.405V126.642Z" fill="#3780EF"/>
<path d="M132.563 126.642H122.242V136.963H132.563V126.642Z" fill="#3780EF"/>
<path d="M145.721 126.642H135.4V136.963H145.721V126.642Z" fill="#3780EF"/>
<path opacity="0.4" d="M145.721 126.642H135.4V136.963H145.721V126.642Z" fill="white"/>
<path opacity="0.2" d="M119.405 126.642H109.084V136.963H119.405V126.642Z" fill="black"/>
</svg>
