<svg width="320" height="200" viewBox="0 0 320 200" fill="none" xmlns="http://www.w3.org/2000/svg">
<path d="M231.055 111.685C226.959 111.61 223.049 109.963 220.134 107.085C217.219 104.208 215.522 100.319 215.394 96.2248C215.176 89.1404 215.012 82.3105 215.012 82.3105C215.012 82.3105 201.998 81.101 201.043 68.2234C200.088 55.3459 200.498 25.6166 200.498 25.6166C207.631 22.0163 215.596 20.3854 223.571 20.8921C231.545 21.3989 239.24 24.0251 245.86 28.4995L247.861 29.8546L247.306 95.8792C247.286 97.9869 246.849 100.07 246.019 102.007C245.19 103.945 243.985 105.699 242.474 107.169C240.963 108.638 239.176 109.794 237.216 110.569C235.256 111.344 233.162 111.724 231.055 111.685Z" fill="#B78876"/>
<path d="M214.694 60.2753C214.694 60.1298 213.584 59.9752 211.784 59.8388C211.311 59.8388 210.947 59.7387 210.874 59.4932C210.835 59.0268 210.923 58.5584 211.129 58.1381L212.329 54.4731C213.948 49.2166 215.058 44.8877 214.776 44.8059C214.494 44.724 212.957 48.9165 211.356 54.173C210.974 55.4553 210.61 56.683 210.256 57.8926C209.991 58.507 209.943 59.1934 210.119 59.8388C210.198 60.011 210.315 60.1629 210.462 60.2828C210.608 60.4026 210.781 60.4872 210.965 60.5299C211.229 60.5817 211.497 60.6 211.765 60.5845C213.566 60.5117 214.685 60.4117 214.694 60.2753Z" fill="#263238"/>
<path d="M220.578 61.8755C217.845 63.1966 214.98 64.2239 212.03 64.9403C212.689 65.8359 213.632 66.4817 214.706 66.7724C215.779 67.0631 216.92 66.9815 217.941 66.5409C221.706 64.8857 220.578 61.8755 220.578 61.8755Z" fill="white"/>
<path d="M214.985 82.1106C220.943 81.8562 226.689 79.8331 231.492 76.2993C231.492 76.2993 228.09 85.8211 215.122 85.4482L214.985 82.1106Z" fill="#A36957"/>
<path d="M247.143 45.7608C247.139 45.2644 247.326 44.7855 247.664 44.422C248.002 44.0585 248.466 43.838 248.961 43.8055C251.371 43.7419 255.328 44.715 255.673 51.3265C256.201 60.8119 247.079 58.4474 247.052 58.1746C247.024 57.9017 247.115 49.444 247.143 45.7608Z" fill="#B78876"/>
<path d="M249.18 54.4731C249.18 54.4731 249.344 54.5823 249.635 54.6914C250.032 54.8503 250.475 54.8503 250.871 54.6914C251.854 54.264 252.609 52.627 252.554 50.9173C252.537 50.1033 252.335 49.304 251.963 48.58C251.859 48.2884 251.685 48.0266 251.457 47.8174C251.229 47.6082 250.953 47.4579 250.653 47.3796C250.46 47.3395 250.258 47.3685 250.084 47.4615C249.909 47.5545 249.773 47.7057 249.698 47.8889C249.589 48.1617 249.698 48.3436 249.607 48.3618C249.516 48.3799 249.398 48.2162 249.453 47.8161C249.493 47.581 249.612 47.3664 249.789 47.2068C249.914 47.1004 250.059 47.0199 250.215 46.97C250.371 46.92 250.535 46.9016 250.699 46.9158C251.094 46.9696 251.469 47.1241 251.788 47.3646C252.106 47.6051 252.358 47.9234 252.518 48.289C252.963 49.0667 253.216 49.9399 253.254 50.8354C253.3 52.7452 252.418 54.5914 251.072 55.0643C250.822 55.1518 250.555 55.1818 250.292 55.1519C250.029 55.122 249.777 55.0329 249.553 54.8915C249.207 54.6732 249.144 54.4731 249.18 54.4731Z" fill="#A36957"/>
<path d="M204.536 47.434C204.566 47.8899 204.773 48.316 205.113 48.6217C205.453 48.9274 205.898 49.0886 206.355 49.071C206.578 49.0735 206.799 49.0311 207.006 48.9463C207.212 48.8614 207.4 48.736 207.556 48.5773C207.713 48.4186 207.837 48.23 207.92 48.0227C208.002 47.8153 208.042 47.5935 208.037 47.3704C208.011 46.912 207.806 46.4822 207.466 46.1741C207.125 45.866 206.677 45.7044 206.218 45.7243C205.995 45.723 205.773 45.7666 205.567 45.8524C205.36 45.9382 205.173 46.0645 205.016 46.2239C204.859 46.3833 204.736 46.5725 204.654 46.7804C204.571 46.9882 204.531 47.2105 204.536 47.434Z" fill="#263238"/>
<path d="M201.562 45.6789C201.798 45.8881 203.053 44.7695 204.927 44.6876C206.8 44.6058 208.255 45.397 208.437 45.1605C208.619 44.9241 208.283 44.6512 207.655 44.2511C206.799 43.7461 205.808 43.5174 204.818 43.5963C203.841 43.656 202.91 44.0292 202.162 44.6603C201.617 45.1605 201.416 45.5789 201.562 45.6789Z" fill="#263238"/>
<path d="M223.243 47.1067C223.271 47.5635 223.477 47.991 223.817 48.2971C224.158 48.6033 224.604 48.7636 225.062 48.7437C225.285 48.7462 225.507 48.7038 225.714 48.6191C225.921 48.5344 226.109 48.409 226.266 48.2505C226.424 48.092 226.548 47.9035 226.632 47.6961C226.716 47.4887 226.757 47.2666 226.753 47.0431C226.723 46.5871 226.516 46.161 226.176 45.8554C225.836 45.5497 225.391 45.3885 224.934 45.4061C224.711 45.4049 224.49 45.4481 224.283 45.5332C224.077 45.6184 223.89 45.7437 223.732 45.902C223.575 46.0603 223.45 46.2483 223.366 46.4552C223.282 46.662 223.24 46.8835 223.243 47.1067Z" fill="#263238"/>
<path d="M220.633 45.6788C220.869 45.888 222.124 44.7694 223.998 44.6875C225.871 44.6057 227.317 45.3969 227.508 45.1604C227.699 44.9239 227.353 44.6511 226.717 44.251C225.865 43.745 224.876 43.5162 223.889 43.5962C222.912 43.6559 221.981 44.0291 221.233 44.6602C220.687 45.1604 220.515 45.5787 220.633 45.6788Z" fill="#263238"/>
<path d="M233.065 21.1516C232.214 23.1592 231.964 25.3706 232.345 27.5175C232.726 29.6645 233.722 31.6548 235.211 33.2471C236.475 34.5566 238.076 35.557 239.176 37.0212C241.45 40.0496 241.077 44.2148 241.441 47.9798C241.605 49.7259 242.014 51.6176 243.26 52.7725C244.506 53.9275 246.943 54.0457 247.807 52.5452C248.05 52.0695 248.21 51.5559 248.28 51.0264C249.074 46.8249 249.862 42.6263 250.644 38.4308C251.236 35.2751 251.836 32.0648 251.29 28.8818C250.971 27.0305 250.269 25.2664 249.227 23.7029C248.186 22.1395 246.829 20.8114 245.243 19.804C243.658 18.7967 241.879 18.1323 240.021 17.8538C238.163 17.5753 236.268 17.6888 234.456 18.1869" fill="#263238"/>
<path d="M235.065 18.4868C230.691 17.6502 228.235 16.2496 225.143 14.8491C222.09 13.3329 218.601 12.937 215.285 13.7305C213.084 14.3489 211.002 15.6767 208.737 15.6494C206.473 15.6221 204.463 14.2944 202.317 13.6123C200.848 13.1588 199.302 13.0056 197.773 13.1619C196.243 13.3181 194.76 13.7806 193.413 14.5217C191.294 15.6858 189.394 17.7684 189.212 20.3148C189.03 22.8612 191.303 25.4895 193.586 24.7619C191.203 25.5895 190.239 29.0999 191.422 31.4371C192.04 32.5359 192.982 33.4167 194.12 33.9589C195.258 34.501 196.536 34.678 197.779 34.4655C200.295 33.9101 202.555 32.5307 204.199 30.5459C204.254 33.3833 207.1 35.375 209.738 35.2931C212.375 35.2113 214.758 33.6289 216.931 32.001C219.105 30.3731 221.306 28.5997 223.888 28.0268C225.707 27.6266 227.526 27.8449 229.345 27.6266C231.164 27.4084 233.119 26.6171 234.001 24.8983C234.883 23.1795 238.376 21.1606 236.548 21.106" fill="#263238"/>
<path d="M209.147 32.4466C209.462 32.6364 209.786 32.8095 210.12 32.965C211.067 33.2799 212.091 33.2799 213.039 32.965C213.697 32.7729 214.327 32.4947 214.912 32.1374C215.549 31.7554 216.195 31.228 216.886 30.7642C217.605 30.2169 218.369 29.7302 219.169 29.3091C220.054 28.8565 221.03 28.6108 222.024 28.5906C224.052 28.5906 225.88 29.0999 227.535 28.9544C228.264 28.9101 228.974 28.7064 229.615 28.3575C230.256 28.0086 230.813 27.5232 231.246 26.9355C231.859 26.1449 232.243 25.2011 232.355 24.2072C232.428 23.4978 232.355 23.0977 232.401 23.0977C232.446 23.0977 232.446 23.1886 232.483 23.3796C232.53 23.6558 232.548 23.9362 232.537 24.2163C232.496 25.2663 232.141 26.28 231.519 27.1264C231.1 27.7248 230.565 28.2322 229.945 28.6179C229.229 29.0563 228.418 29.3181 227.581 29.3818C225.816 29.5546 223.943 29.0181 222.042 29.0544C220.142 29.0908 218.505 30.1366 217.141 31.1097C216.44 31.6008 215.785 32.0828 215.113 32.4648C214.491 32.8285 213.82 33.101 213.121 33.2742C212.111 33.582 211.026 33.5339 210.047 33.1378C209.788 33.0165 209.549 32.8571 209.338 32.6649C209.204 32.5315 209.141 32.4587 209.147 32.4466Z" fill="#263238"/>
<path d="M233.71 13.9941C233.719 15.0059 233.807 16.0154 233.974 17.0134C234.292 17.9758 234.691 18.9098 235.165 19.8054C234.356 19.1033 233.782 18.1689 233.521 17.1293C233.261 16.0896 233.327 14.995 233.71 13.9941Z" fill="#263238"/>
<path d="M238.558 13.7944C238.658 13.8945 237.485 15.004 236.612 16.7501C235.739 18.4962 235.493 20.0786 235.357 20.0513C235.258 18.8205 235.547 17.5895 236.184 16.5318C236.678 15.3988 237.506 14.4438 238.558 13.7944Z" fill="#263238"/>
<path d="M299.371 148.645L319.17 199.582H288.867L274.744 163.314L299.371 148.645Z" fill="#B78876"/>
<path d="M192.058 107.284C192.058 107.284 165.949 134.157 154.672 134.157C150.979 134.157 148.087 89.3951 148.042 76.4903C148.64 74.824 149.497 73.262 150.579 71.8613C151.534 70.5293 152.635 69.309 153.862 68.2235C155.412 66.8962 157.134 65.7856 158.982 64.9223C160.747 64.3039 160.892 61.8939 159.283 61.4119C157.673 60.9299 152.78 62.5214 148.369 66.6775C143.959 70.8336 145.296 61.5301 145.714 58.1379C146.132 54.7458 146.923 44.1691 145.978 43.2415C144.595 41.8773 142.84 43.1414 142.494 46.5427C142.149 49.944 140.485 60.1114 138.666 59.8477C136.847 59.5839 139.266 42.3139 139.266 42.3139C139.266 42.3139 140.366 38.6761 138.357 38.3123C134.646 37.6485 133.491 56.1645 133.427 57.9288C133.427 59.1565 131.427 58.9473 131.545 57.6287C131.663 56.31 134.273 40.4404 130.535 39.722C127.653 39.1763 129.444 54.9549 127.071 57.9833C124.697 61.0117 126.934 45.8424 124.151 45.4332C123.115 45.2877 122.332 45.315 122.332 54.1728C122.332 58.9382 124.151 66.1318 123.442 75.2989C124.642 102.364 123.315 178.365 153.453 169.361C186.566 159.449 209.192 137.759 209.192 137.759L192.058 107.284Z" fill="#B78876"/>
<path d="M265.158 131.366C265.293 131.712 265.39 132.072 265.449 132.439C265.613 133.13 265.822 134.14 266.059 135.395C266.522 137.905 267.077 141.388 267.505 145.253C267.932 149.118 268.15 152.637 268.241 155.184C268.241 156.457 268.305 157.494 268.296 158.203C268.324 158.574 268.306 158.946 268.241 159.313C268.164 158.951 268.121 158.582 268.114 158.212C268.059 157.403 267.987 156.393 267.905 155.202C267.732 152.665 267.459 149.163 266.995 145.307C266.532 141.451 266.086 137.968 265.686 135.449C265.504 134.267 265.358 133.276 265.231 132.475C265.164 132.109 265.139 131.737 265.158 131.366Z" fill="#263238"/>
<path d="M187.639 199.582L271.052 200L268.242 182.394C268.978 174.038 268.938 165.632 268.123 157.284L272.352 168.734L306.829 151.455C306.829 151.455 294.297 118.042 283.802 106.72C270.552 92.4145 246.697 93.8423 246.697 93.8423L230.582 104.755L215.749 94.3061C207.793 95.2393 200.047 97.4922 192.832 100.972L192.068 101.19V101.354C183.319 105.901 170.833 117.06 158.946 127.873L172.67 141.233L187.866 155.393C188.727 155.265 189.599 155.228 190.467 155.283C190.722 156.848 187.639 199.582 187.639 199.582Z" fill="#455A64"/>
<path opacity="0.2" d="M265.558 126.027L276.899 166.46L272.352 168.734L268.132 157.284C268.132 157.284 264.012 133.311 265.558 126.027Z" fill="black"/>
<path d="M214.821 94.1877V89.8225C214.821 89.8225 227.844 88.813 230.482 104.201C230.482 104.201 234.729 89.8225 247.37 88.3765L249.189 95.0972C249.189 95.0972 243.196 113.822 242.332 113.986C241.468 114.15 230.509 117.342 230.509 117.342L224.143 115.905L217.095 107.875L214.821 94.1877Z" fill="#455A64"/>
<path d="M249.471 94.5879C249.256 94.8644 249.012 95.1174 248.743 95.3427C248.271 95.8247 247.579 96.4977 246.761 97.3799C244.636 99.6593 242.744 102.145 241.113 104.801C240.713 105.456 240.349 106.101 240.004 106.729L239.795 107.111L239.595 106.729C238.149 104.001 236.866 101.636 235.884 99.7898C235.672 99.4339 235.391 99.1245 235.056 98.8804C234.787 98.6945 234.473 98.5845 234.147 98.5621C233.877 98.5583 233.609 98.6045 233.356 98.6985C233.356 98.6985 233.565 98.4075 234.156 98.3984C234.51 98.3931 234.858 98.4911 235.157 98.6803C235.545 98.9342 235.874 99.2693 236.121 99.6625C237.148 101.381 238.458 103.791 239.976 106.547H239.613C239.958 105.91 240.322 105.246 240.731 104.592C242.367 101.899 244.318 99.4109 246.543 97.1798C247.397 96.3249 248.125 95.6792 248.643 95.2427C248.886 94.9859 249.165 94.7654 249.471 94.5879Z" fill="#263238"/>
<path d="M213.976 95.3975C214.209 95.5879 214.417 95.808 214.594 96.0523C214.976 96.4979 215.503 97.1436 216.149 97.953C217.45 99.5627 219.214 101.809 221.142 104.319L221.451 104.719H221.051C221.751 103.437 221.806 101.991 222.124 100.663C222.327 99.4578 222.976 98.3731 223.943 97.6256C224.285 97.3989 224.674 97.254 225.081 97.2019C225.488 97.1499 225.901 97.1921 226.289 97.3255C226.493 97.4113 226.681 97.5313 226.844 97.6801C226.944 97.7984 226.98 97.862 226.971 97.8711C226.74 97.7202 226.493 97.5952 226.235 97.4982C225.875 97.4085 225.5 97.3978 225.136 97.4669C224.772 97.5359 224.427 97.6832 224.125 97.8984C223.274 98.631 222.72 99.6502 222.57 100.763C222.401 102.2 222.037 103.608 221.487 104.946L221.315 105.265L221.096 104.974L220.787 104.574C218.859 102.073 217.149 99.79 215.904 98.1258C215.294 97.2982 214.803 96.6161 214.467 96.1432C214.272 95.9166 214.107 95.666 213.976 95.3975Z" fill="#263238"/>
<path d="M223.243 199.582C223.231 199.497 223.231 199.412 223.243 199.327C223.243 199.145 223.243 198.9 223.243 198.609C223.243 197.936 223.325 197.008 223.389 195.826C223.543 193.38 223.771 189.896 224.034 185.613C224.635 176.955 225.453 165.06 226.353 151.919L228.8 118.27C229.136 113.986 229.409 110.512 229.6 108.066C229.7 106.884 229.782 105.956 229.846 105.292C229.846 104.992 229.9 104.756 229.918 104.565C229.908 104.486 229.908 104.407 229.918 104.328C229.934 104.409 229.934 104.493 229.918 104.574V105.292C229.918 105.965 229.827 106.893 229.764 108.075C229.609 110.521 229.391 114.004 229.118 118.288C228.527 126.946 227.708 138.841 226.808 151.982C225.908 165.124 224.989 177.019 224.353 185.631C224.016 189.915 223.752 193.389 223.561 195.835C223.452 197.017 223.37 197.945 223.316 198.618C223.316 198.909 223.261 199.145 223.243 199.336C223.256 199.418 223.256 199.501 223.243 199.582Z" fill="#263238"/>
<path d="M193.295 118.679C193.311 119.162 193.283 119.646 193.213 120.125C193.141 121.134 193.031 122.453 192.904 124.053C192.659 127.364 192.404 131.956 192.122 137.031C191.84 142.106 191.531 146.689 191.213 150.009C191.049 151.664 190.885 153.01 190.749 153.928C190.705 154.411 190.616 154.889 190.485 155.356C190.47 154.873 190.497 154.389 190.567 153.91C190.649 152.901 190.749 151.573 190.876 149.981C191.131 146.662 191.376 142.069 191.667 137.004C191.958 131.938 192.249 127.336 192.577 124.017C192.74 122.362 192.904 121.025 193.041 120.097C193.085 119.618 193.171 119.144 193.295 118.679Z" fill="#263238"/>
<path d="M229.609 102C229.609 102 225.134 107.848 225.789 108.721L229.609 113.823H232.337C232.337 113.823 234.883 106.674 234.229 105.765C233.574 104.856 229.609 102 229.609 102Z" fill="#87B7FF"/>
<path d="M236.429 100.426L231.491 104.282L233.383 107.911L238.457 104.164L236.429 100.426Z" fill="#87B7FF"/>
<path d="M221.924 102.864L226.426 106.62L228.918 102.864L223.234 98.5439L221.924 102.864Z" fill="#87B7FF"/>
<path d="M229.554 113.813L222.688 175.346L229.445 196.735L238.457 175.537L232.528 113.086L229.554 113.813Z" fill="#87B7FF"/>
<path d="M277.6 102.382C277.316 102.151 277.011 101.947 276.69 101.772C275.802 101.361 274.791 101.302 273.862 101.609C272.5 102.131 271.291 102.984 270.342 104.091C269.091 105.382 268.009 106.828 267.123 108.393C265.525 111.256 264.592 114.442 264.395 117.715C264.249 120.234 264.567 121.789 264.467 121.798C264.355 121.446 264.275 121.083 264.231 120.716C264.091 119.719 264.037 118.712 264.067 117.706C264.164 114.355 265.072 111.078 266.714 108.157C267.617 106.555 268.734 105.083 270.033 103.782C271.041 102.64 272.329 101.781 273.771 101.29C274.268 101.139 274.791 101.089 275.308 101.144C275.825 101.199 276.326 101.357 276.781 101.609C277.023 101.749 277.241 101.927 277.427 102.136C277.563 102.282 277.609 102.373 277.6 102.382Z" fill="#263238"/>
<path d="M69.5091 3.50342C64.0723 6.83674 60.2979 12.4092 58.0588 18.3719C55.8196 24.3345 54.9714 30.7297 54.3099 37.0317C52.5574 53.7843 51.9708 70.6385 52.5541 87.4725C73.1054 90.0679 93.8177 92.6803 114.471 91.2723C110.883 67.6677 108.61 44.0885 111.485 20.382" fill="#263238"/>
<path d="M115.675 199.66L100.688 169.398L106.404 147.26C107.074 151.951 107.668 156.022 107.668 156.022L139.771 154.326C140.054 154.311 140.33 154.237 140.583 154.11C140.835 153.982 141.059 153.803 141.238 153.585C141.418 153.366 141.55 153.112 141.626 152.84C141.702 152.567 141.72 152.282 141.68 152.002L135.463 107.727C135.463 107.727 133.452 87.1842 114.004 79.5507H113.91C113.13 79.2454 112.316 78.9739 111.476 78.7025C85.2592 69.6101 60.7046 69.6695 33.385 78.9909C33.385 78.9909 21.2477 82.2564 15.3614 98.0917C9.47504 113.927 3.48694 137.201 3.48694 137.201L30.7133 146.845L30.8914 142.239L36.9134 165.275L23.7074 198.829L69.8055 199.966L115.675 199.66Z" fill="#3780EF"/>
<path d="M3.5124 136.904L0.450507 151.323C-2.17883 163.748 7.02385 176.505 19.6447 177.938L86.7436 184.826C90.2793 185.224 93.859 184.911 97.272 183.905C100.685 182.899 103.862 181.22 106.616 178.967C109.371 176.715 111.647 173.934 113.31 170.789C114.974 167.643 115.991 164.197 116.302 160.653L31.7057 152.595L32.2315 144.47L3.5124 136.904Z" fill="#3780EF"/>
<path d="M87.4221 151.654L92.6299 150.687C92.6299 150.687 104.979 137.176 107.295 136.989C109.203 136.828 119.712 136.93 123.41 136.989C123.745 136.994 124.064 137.13 124.299 137.368C124.534 137.606 124.665 137.927 124.665 138.261C124.666 138.592 124.537 138.909 124.308 139.146C124.078 139.384 123.766 139.523 123.435 139.534L111.027 140.017L110.967 141.018L123.393 141.179C124.665 141.281 125.471 143.283 121.425 143.647L111.027 144.012V144.657L121.569 146.132C122.104 146.209 123.503 146.48 123.512 147.023C123.512 147.023 124.156 148.338 121.145 148.719C120.119 148.846 110.967 148.541 110.967 148.541L111.315 149.389L120.798 151.433C121.129 151.505 121.421 151.7 121.615 151.979C121.809 152.257 121.889 152.599 121.841 152.935C121.794 153.278 121.616 153.591 121.344 153.806C121.072 154.021 120.727 154.122 120.382 154.088L110.263 153.155L100.323 161.086H87.0065L87.4221 151.654Z" fill="#FFBE9D"/>
<path d="M54.4453 72.4602C54.4453 72.4602 67.5156 139.296 72.1212 138.813C76.7268 138.329 98.3297 74.7503 98.3297 74.7503C98.3297 74.7503 70.7217 66.3449 54.4453 72.4602Z" fill="#FAFAFA"/>
<path d="M112.282 137.159C112.163 137.159 112.061 132.545 112.061 126.862C112.061 121.179 112.163 116.574 112.282 116.574C112.4 116.574 112.502 121.179 112.502 126.862C112.502 132.545 112.409 137.159 112.282 137.159Z" fill="#263238"/>
<path d="M32.0449 137.591C32.0637 136.599 32.1544 135.61 32.3163 134.631C32.5453 132.799 32.8846 130.289 33.2917 127.515C33.6989 124.742 34.0805 122.223 34.3859 120.416C34.5081 119.427 34.7038 118.449 34.9711 117.49C34.9525 118.485 34.8618 119.477 34.6997 120.458C34.4707 122.282 34.1314 124.801 33.7243 127.575C33.3172 130.348 32.9355 132.85 32.6302 134.665C32.5079 135.654 32.3123 136.632 32.0449 137.591Z" fill="#263238"/>
<path d="M69.8055 199.924C69.7818 199.718 69.7818 199.51 69.8055 199.304C69.8055 198.855 69.8055 198.27 69.8055 197.532C69.8055 195.988 69.8056 193.757 69.8649 191.001C69.9667 185.488 70.2636 177.88 70.6452 169.483C71.0269 161.086 71.3662 153.478 71.5528 147.965C71.6291 145.25 71.697 143.037 71.7479 141.442C71.7479 140.713 71.7479 140.119 71.7988 139.669C71.7938 139.462 71.8109 139.254 71.8496 139.05C71.8679 139.256 71.8679 139.463 71.8496 139.669C71.8496 140.116 71.8496 140.71 71.8496 141.451C71.8496 142.986 71.8496 145.216 71.7988 147.973C71.697 153.486 71.3916 161.094 71.0184 169.5C70.6452 177.905 70.289 185.505 70.1109 191.009C70.0261 193.732 69.9582 195.946 69.9158 197.532C69.9158 198.27 69.9158 198.863 69.8564 199.304C69.8522 199.512 69.8352 199.718 69.8055 199.924Z" fill="#263238"/>
<path d="M98.2193 74.6396C98.2193 74.6396 98.2617 74.928 98.3635 75.4878C98.5094 76.2772 98.7339 77.0501 99.0336 77.7949C99.5113 78.9675 100.078 80.1017 100.73 81.1875C101.608 82.637 102.41 84.1318 103.13 85.6659C104.052 87.5483 104.406 89.6586 104.148 91.7388C103.938 92.8936 103.472 93.9864 102.782 94.9364C102.066 95.9246 101.265 96.8497 100.391 97.7015C98.5233 99.4906 96.8201 101.444 95.3016 103.537C93.6828 105.78 92.7702 108.456 92.6808 111.221C92.6819 112.611 92.9889 113.984 93.5798 115.242C94.201 116.478 94.7503 117.75 95.2253 119.05C95.4395 119.712 95.5287 120.408 95.4882 121.103C95.439 121.795 95.2206 122.465 94.8521 123.053C94.082 124.102 93.1244 124.999 92.0277 125.7L81.4001 133.537L74.216 138.778L72.2483 140.195L71.7309 140.551L71.5443 140.661C71.5443 140.661 71.5952 140.602 71.7054 140.509L72.1974 140.119L74.1143 138.643L81.1795 133.274L91.7478 125.369C92.7999 124.696 93.7175 123.833 94.4534 122.824C94.7879 122.296 94.986 121.693 95.0302 121.069C95.0622 120.422 94.976 119.776 94.7757 119.16C94.3043 117.879 93.7577 116.628 93.1388 115.411C92.5229 114.1 92.2043 112.67 92.2058 111.221C92.2947 108.369 93.2372 105.61 94.9115 103.299C96.445 101.182 98.1713 99.2118 100.068 97.4131C101.807 95.7167 103.41 93.8423 103.749 91.671C104.015 89.6618 103.688 87.6188 102.808 85.7931C102.111 84.2569 101.333 82.7591 100.475 81.3063C99.8414 80.1938 99.2941 79.034 98.8385 77.8373C98.5517 77.0764 98.3525 76.2853 98.2448 75.4793C98.2139 75.2713 98.194 75.0618 98.1854 74.8517C98.1851 74.7796 98.1965 74.708 98.2193 74.6396Z" fill="#263238"/>
<path d="M72.0703 138.126H71.8667L71.2645 138.015C70.4976 137.856 69.7413 137.649 68.9999 137.396C66.2668 136.471 63.736 135.032 61.5444 133.155C58.2684 130.338 55.8889 126.623 54.6997 122.468C53.9987 120.028 53.712 117.488 53.8515 114.953C53.921 113.618 54.0997 112.29 54.3859 110.984C54.71 109.685 54.7476 108.33 54.4961 107.015C54.3199 106.391 53.9627 105.833 53.4698 105.412C52.9428 105.027 52.3511 104.739 51.7226 104.563C51.0949 104.351 50.4419 104.182 49.8057 103.919C49.174 103.657 48.5981 103.277 48.1094 102.799C47.1904 101.832 46.5819 100.612 46.3622 99.2962C46.1269 98.0699 46.0584 96.8174 46.1586 95.5727C46.5552 91.3131 47.49 87.1208 48.9406 83.0961C49.9089 80.3869 51.1004 77.7627 52.5029 75.2505C53.0033 74.4024 53.4104 73.6899 53.7073 73.2489L54.0381 72.74C54.0715 72.6772 54.1144 72.6199 54.1653 72.5703C54.1653 72.5703 54.1653 72.6382 54.0805 72.7569L53.7837 73.2913C53.5122 73.7493 53.1305 74.4448 52.6471 75.3354C51.3201 77.8672 50.1859 80.4955 49.2544 83.1979C47.8702 87.2093 46.9731 91.3726 46.5827 95.5982C46.5003 96.8071 46.5744 98.0215 46.8032 99.2114C47.0133 100.441 47.5795 101.583 48.4317 102.494C48.8924 102.929 49.4303 103.274 50.0178 103.512C50.6115 103.758 51.2561 103.927 51.9092 104.148C52.5903 104.345 53.2288 104.667 53.7921 105.098C54.3556 105.575 54.7633 106.21 54.9626 106.921C55.2355 108.3 55.2008 109.722 54.8608 111.086C54.5813 112.376 54.4027 113.686 54.3265 115.004C54.201 117.494 54.4876 119.987 55.1747 122.383C56.3271 126.473 58.6397 130.141 61.8328 132.943C63.9831 134.829 66.4612 136.304 69.1441 137.294C70.094 137.634 70.8404 137.854 71.3748 137.99L71.96 138.143C71.9964 138.135 72.0332 138.129 72.0703 138.126Z" fill="#263238"/>
<path d="M107.371 151.747L51.1627 149.932L51.2475 168.592L88.4654 176.768L114.648 180.95C130.916 180.95 143.936 166.013 141.417 149.941H141.349L107.371 151.747Z" fill="#3780EF"/>
<path d="M122.842 151.391C122.601 151.429 122.356 151.446 122.112 151.442L120.026 151.501L112.341 151.637C105.853 151.739 96.8876 151.849 86.981 151.747C77.0743 151.645 68.1091 151.298 61.6291 150.899C58.3891 150.678 55.7767 150.475 53.9956 150.288L51.9175 150.076C51.6719 150.063 51.4279 150.029 51.1881 149.974C51.4308 149.954 51.6748 149.954 51.9175 149.974L54.004 150.102C55.8191 150.229 58.44 150.39 61.6376 150.568C68.1176 150.924 77.0743 151.238 86.981 151.331C96.8876 151.425 105.836 151.331 112.324 151.331H120.017H122.104C122.351 151.333 122.598 151.353 122.842 151.391Z" fill="#263238"/>
<path d="M50.6878 151.654L45.4801 150.687C45.4801 150.687 33.1307 137.176 30.8067 136.989C28.9068 136.828 18.3979 136.93 14.7338 136.989C14.3993 136.994 14.0801 137.13 13.8451 137.368C13.6102 137.606 13.4785 137.927 13.4785 138.261C13.4783 138.59 13.6053 138.906 13.833 139.143C14.0607 139.381 14.3714 139.52 14.6999 139.534L27.1171 140.017L27.1765 141.018L14.7423 141.179C13.4785 141.281 12.6643 143.283 16.7185 143.647L27.1171 144.012V144.657L16.5743 146.132C16.04 146.209 14.6405 146.48 14.6236 147.023C14.6236 147.023 13.9874 148.338 16.99 148.719C18.0247 148.846 27.168 148.541 27.168 148.541L26.8118 149.389L17.3377 151.433C17.0065 151.507 16.7147 151.702 16.5201 151.98C16.3254 152.258 16.2419 152.598 16.286 152.935C16.3346 153.277 16.5132 153.588 16.7848 153.803C17.0563 154.018 17.4001 154.12 17.7448 154.088L27.872 153.155L37.8126 161.086H51.095L50.6878 151.654Z" fill="#FFBE9D"/>
<path d="M113.648 180.644C113.436 180.668 113.223 180.668 113.011 180.644L111.196 180.449C109.61 180.271 107.337 179.982 104.521 179.601C98.8893 178.82 91.137 177.591 82.6298 175.928C74.1227 174.266 66.5146 172.468 60.9675 171.06C58.2195 170.364 55.9972 169.77 54.4705 169.363L52.7148 168.854C52.5065 168.802 52.3024 168.734 52.1041 168.651C52.3169 168.668 52.5273 168.708 52.7318 168.77L54.5129 169.194L61.0439 170.788C66.5655 172.111 74.216 173.85 82.7147 175.521C91.2134 177.192 98.9572 178.464 104.564 179.321L111.213 180.313L113.02 180.593C113.23 180.598 113.439 180.615 113.648 180.644Z" fill="#263238"/>
<path d="M51.7567 168.668C51.5093 167.801 51.3445 166.912 51.2648 166.014C51.0443 164.317 50.8068 162.061 50.6711 159.525C50.5354 156.989 50.5439 154.674 50.5948 153.003C50.5826 152.102 50.6536 151.202 50.8068 150.314C50.9073 151.209 50.9413 152.111 50.9086 153.011C50.9086 154.707 50.9849 156.964 51.1121 159.5C51.2393 162.036 51.4344 164.317 51.5786 165.971C51.6977 166.865 51.7572 167.766 51.7567 168.668Z" fill="#263238"/>
<path d="M57.8969 169.397C57.784 169.172 57.7014 168.932 57.651 168.685C57.5238 168.227 57.3541 167.548 57.1845 166.709C56.2813 162.308 55.9959 157.804 56.3363 153.324C56.4042 152.476 56.489 151.772 56.5653 151.297C56.5791 151.048 56.6306 150.802 56.718 150.568C56.7497 151.493 56.727 152.419 56.6501 153.341C56.5823 155.038 56.5568 157.413 56.718 160.016C56.8792 162.62 57.1845 164.961 57.4559 166.649C57.6598 167.555 57.8071 168.473 57.8969 169.397Z" fill="#263238"/>
<path d="M52.7061 153.299C52.757 153.35 52.4347 153.579 52.4432 154.148C52.443 154.292 52.4732 154.434 52.5316 154.565C52.5901 154.697 52.6755 154.815 52.7824 154.911C52.9218 155.004 53.0856 155.054 53.2532 155.054C53.4207 155.054 53.5845 155.004 53.7239 154.911C53.8758 154.832 54 154.708 54.0802 154.557C54.1605 154.405 54.193 154.233 54.1735 154.063C54.1453 153.922 54.0876 153.789 54.0043 153.672C53.921 153.555 53.8139 153.457 53.69 153.384C53.2405 153.113 52.8418 153.274 52.8418 153.206C52.8418 153.138 53.1896 152.841 53.8257 153.113C54.007 153.187 54.1687 153.302 54.2982 153.45C54.4277 153.597 54.5214 153.772 54.5721 153.961C54.6022 154.213 54.5575 154.467 54.4437 154.694C54.3299 154.92 54.152 155.108 53.9321 155.233C53.7123 155.359 53.4603 155.417 53.2075 155.401C52.9548 155.384 52.7126 155.293 52.511 155.14C52.3658 155.004 52.2547 154.835 52.1869 154.648C52.1191 154.461 52.0965 154.26 52.1209 154.063C52.2226 153.41 52.7061 153.24 52.7061 153.299Z" fill="#263238"/>
<path d="M62.9269 172.154C62.7354 172.178 62.5417 172.178 62.3502 172.154C61.9685 172.154 61.4172 172.154 60.6962 172.154C58.6755 172.207 56.6608 172.397 54.6657 172.722C51.7085 173.224 48.7786 173.875 45.8872 174.673C42.6047 175.521 39.0254 176.581 35.1832 177.421C31.5696 178.264 27.8672 178.665 24.157 178.617C21.1243 178.539 18.1247 177.966 15.2766 176.921C13.3657 176.197 11.5755 175.187 9.96706 173.927C9.53456 173.582 9.12381 173.211 8.7372 172.816C8.59151 172.689 8.46062 172.547 8.34705 172.391C8.34705 172.391 8.93228 172.934 10.0434 173.791C11.6676 174.986 13.4559 175.94 15.353 176.624C18.1932 177.632 21.1777 178.173 24.1909 178.227C27.8593 178.25 31.5176 177.84 35.0899 177.006C38.9067 176.157 42.4944 175.14 45.7854 174.291C48.6958 173.511 51.646 172.889 54.6233 172.425C56.6339 172.13 58.6641 171.988 60.6962 172.001C61.4172 172.001 61.977 172.001 62.3502 172.078C62.5444 172.085 62.7375 172.11 62.9269 172.154Z" fill="#263238"/>
<path d="M87.651 80.331C88.9826 72.8841 90.5263 65.0639 90.5263 65.0639C90.5263 65.0639 100.416 65.1572 104.614 52.9775C108.618 41.3575 111.51 13.4017 111.51 13.4017C105.175 9.4638 97.7867 7.55725 90.337 7.93777C82.8872 8.31829 75.732 10.9677 69.8309 15.5306L59.9751 76.2428C58.8301 83.2912 63.9785 89.8899 71.5357 91.0519C79.1608 92.2309 86.3787 87.4726 87.651 80.331Z" fill="#FFBE9D"/>
<path d="M104.156 34.3346C104.087 34.754 103.857 35.1298 103.515 35.3818C103.172 35.6338 102.745 35.7419 102.324 35.6832C102.116 35.6654 101.914 35.6057 101.729 35.5078C101.545 35.4099 101.382 35.2758 101.25 35.1134C101.119 34.9511 101.021 34.7639 100.964 34.563C100.907 34.3621 100.89 34.1517 100.916 33.9444C100.987 33.5243 101.219 33.1484 101.563 32.8966C101.907 32.6448 102.335 32.5369 102.757 32.5958C102.964 32.6158 103.165 32.677 103.348 32.7757C103.531 32.8744 103.692 33.0087 103.822 33.1707C103.953 33.3327 104.05 33.5191 104.107 33.7189C104.164 33.9188 104.181 34.1281 104.156 34.3346Z" fill="#263238"/>
<path d="M107.083 32.9947C106.845 33.1728 105.785 32.0533 104.055 31.7564C102.324 31.4595 100.908 32.0957 100.755 31.8497C100.679 31.7479 100.95 31.4002 101.603 31.0948C102.444 30.7105 103.382 30.5921 104.292 30.7556C105.193 30.9147 106.021 31.354 106.659 32.0108C107.083 32.5113 107.193 32.9184 107.083 32.9947Z" fill="#263238"/>
<path d="M86.3956 31.4933C86.3246 31.9117 86.0939 32.2862 85.7521 32.5378C85.4103 32.7894 84.9842 32.8984 84.5635 32.8419C84.1521 32.8032 83.7728 32.6028 83.5088 32.2848C83.2449 31.9668 83.1178 31.5571 83.1556 31.1455C83.2266 30.7248 83.4582 30.3482 83.8016 30.095C84.145 29.8418 84.5733 29.7319 84.9961 29.7884C85.4068 29.8313 85.784 30.0343 86.0459 30.3535C86.3079 30.6726 86.4335 31.0821 86.3956 31.4933Z" fill="#263238"/>
<path d="M88.9235 30.4498C88.686 30.6194 87.6258 29.5083 85.8955 29.2029C84.1653 28.8976 82.7488 29.5507 82.5962 29.3047C82.5198 29.1945 82.7828 28.8467 83.4443 28.5414C84.2849 28.1562 85.2241 28.0406 86.133 28.2106C87.0345 28.3635 87.8636 28.8003 88.4994 29.4574C88.9235 29.9578 89.0338 30.3734 88.9235 30.4498Z" fill="#263238"/>
<path d="M92.9349 44.3769C93.8984 44.2612 94.8722 44.2612 95.8357 44.3769C96.2852 44.3769 96.6839 44.3769 96.845 44.1055C96.9629 43.6575 96.9422 43.1843 96.7856 42.7484C96.5566 41.6034 96.3192 40.4074 96.0732 39.1521C95.0978 34.0631 94.4786 29.8731 94.6907 29.8222C94.9027 29.7714 95.8442 33.8935 96.8196 38.9995C97.0486 40.2632 97.2691 41.4592 97.4727 42.6042C97.6541 43.186 97.6271 43.8128 97.3963 44.3769C97.3048 44.523 97.1805 44.6458 97.0333 44.7356C96.8861 44.8254 96.72 44.8798 96.5482 44.8943C96.2921 44.9296 96.0324 44.9296 95.7763 44.8943C94.8108 44.8451 93.8558 44.6712 92.9349 44.3769Z" fill="#263238"/>
<path d="M90.5096 65.0639C84.5929 64.1088 79.0563 61.5342 74.5131 57.6255C74.5131 57.6255 77.0576 66.9554 89.7802 67.9902L90.5096 65.0639Z" fill="#EB996E"/>
<path d="M91.4763 48.4566C91.2237 47.9765 90.8528 47.5687 90.3986 47.2718C89.9445 46.975 89.4221 46.7989 88.8809 46.7603C88.4936 46.7274 88.1036 46.7736 87.7347 46.896C87.3659 47.0185 87.0257 47.2147 86.735 47.4728C86.4513 47.7187 86.2509 48.0465 86.1613 48.411C86.0716 48.7756 86.0972 49.159 86.2346 49.5084C86.4576 49.8672 86.7824 50.1516 87.1675 50.3253C87.5527 50.499 87.9808 50.5542 88.3974 50.4838C89.2649 50.3356 90.0948 50.0186 90.8402 49.5508C91.0599 49.4469 91.2583 49.3031 91.4254 49.1267C91.5069 49.043 91.561 48.9366 91.5807 48.8215C91.6004 48.7064 91.5847 48.5881 91.5357 48.4821" fill="#EB996E"/>
<path d="M87.6427 44.6821C87.9226 44.6821 87.5918 46.5905 88.9658 48.2105C90.3399 49.8305 92.3585 49.9662 92.3585 50.2376C92.3585 50.3564 91.8496 50.5175 91.0014 50.3903C89.9003 50.2158 88.8967 49.6569 88.1685 48.8127C87.4587 48.0166 87.0822 46.978 87.1168 45.9119C87.2186 45.0638 87.5155 44.6482 87.6427 44.6821Z" fill="#263238"/>
<path d="M78.3041 6.57396C81.6544 13.9615 92.511 22.9522 100.891 26.1413C100.128 24.6146 95.4202 20.3228 94.6569 18.8046C98.0496 22.4772 102.927 27.4644 108.092 28.7113C108.689 28.9123 109.332 28.9329 109.941 28.7706C110.277 28.5902 110.567 28.335 110.789 28.0247C111.011 27.7145 111.159 27.3574 111.222 26.981C112.22 23.2532 112.811 19.4283 112.986 15.5731C113.174 12.326 112.112 9.12998 110.017 6.64181C107.159 3.42724 102.494 1.89205 98.0071 0.933619C94.2412 0.136337 90.3057 -0.372564 86.5907 0.339901C82.8757 1.05237 79.4152 3.18975 78.3041 6.33647" fill="#263238"/>
<path d="M58.3214 34.3939C58.2544 31.526 58.362 28.6567 58.6437 25.8019C59.4919 19.2794 61.519 -4.44395 83.4104 1.66289L81.0864 7.74428C81.0864 7.74428 82.7827 23.0114 71.5275 31.2047C71.5275 31.2047 71.5784 46.4718 63.7921 51.9425C63.7921 51.9425 58.3638 41.6118 58.3214 34.4023" fill="#263238"/>
<path d="M71.9938 30.1618C70.7004 29.6424 69.2895 29.4869 67.9141 29.7123C66.5429 29.9594 65.3241 30.7364 64.5214 31.8752C63.7775 33.0649 63.5137 34.493 63.7835 35.8701C64.0593 37.2393 64.639 38.5291 65.4798 39.6444C66.0215 40.4771 66.7506 41.1713 67.6087 41.6715C68.0447 41.9168 68.5346 42.0506 69.0347 42.0609C69.5348 42.0713 70.0298 41.9579 70.4756 41.7309" fill="#FFBE9D"/>
<path d="M69.8222 38.1599C69.9663 38.2362 69.2454 38.9487 68.0749 38.3974C67.7677 38.2301 67.4965 38.0039 67.2768 37.7317C67.057 37.4596 66.8931 37.1468 66.7942 36.8113C66.5462 36.0574 66.4538 35.261 66.5228 34.4703C66.5672 33.6232 66.9132 32.82 67.4982 32.2057C67.7465 31.9439 68.0513 31.7421 68.3893 31.6158C68.7274 31.4894 69.0898 31.4417 69.449 31.4763C70.7128 31.6714 70.9502 32.6128 70.7976 32.6128C70.6449 32.6128 70.2717 32.1633 69.415 32.2142C68.8764 32.3174 68.3927 32.6104 68.0518 33.04C67.711 33.4695 67.5356 34.0072 67.5575 34.5552C67.4642 35.9631 67.7696 37.3202 68.4481 37.7612C69.1267 38.2023 69.7628 38.0327 69.8222 38.1599Z" fill="#EB996E"/>
<path d="M69.8058 41.7222C66.4131 62.002 69.1696 82.7313 69.8058 103.291C69.8651 105.259 69.8821 107.32 68.9576 109.076C67.609 111.73 64.4538 113.028 61.4767 113.206C58.4996 113.384 55.5395 112.697 52.5794 112.451C52.2571 110.483 51.9433 108.507 51.6209 106.514C50.6286 108.787 49.6362 111.052 48.6523 113.299C49.9585 98.8805 51.3891 84.4616 52.9441 70.0427" fill="#263238"/>
</svg>
