<svg width="106" height="57" viewBox="0 0 106 57" fill="none" xmlns="http://www.w3.org/2000/svg">
<path d="M103.634 56.1742C107.306 47.5916 105.074 38.6438 99.0379 31.5221C95.9601 27.9932 91.9814 25.3666 87.527 23.9229C83.0725 22.4791 78.3095 22.2725 73.7468 23.3251C72.5293 16.4765 68.8299 10.3171 63.3562 6.02479C57.8824 1.73252 51.0185 -0.391315 44.0772 0.0594706C37.1358 0.510256 30.6042 3.50403 25.7316 8.46821C20.859 13.4324 17.9874 20.0186 17.6659 26.9671C14.5493 27.4905 11.5893 28.7049 9.00321 30.5214C6.4171 32.3378 4.2704 34.7101 2.72062 37.4643C1.17084 40.2185 0.257274 43.2847 0.0469452 46.438C-0.163384 49.5912 0.334856 52.7516 1.50512 55.6872L103.634 56.1742Z" fill="#3780EF"/>
<path d="M44.489 56V31.4942H37.2861L48.131 16.1855L58.9759 31.3927H51.9049V56H44.489Z" fill="white"/>
</svg>
