<svg width="128" height="80" viewBox="0 0 128 80" fill="none" xmlns="http://www.w3.org/2000/svg">
<path d="M127.785 0H0V80H127.785V0Z" fill="#3780EF"/>
<path opacity="0.8" d="M112.979 10.0164H76.3696V46.6254H112.979V10.0164Z" fill="white"/>
<path d="M107.972 51.781C107.972 51.8618 102.009 51.931 94.662 51.931C87.3148 51.931 81.3633 51.8618 81.3633 51.781C81.3633 51.7003 87.3148 51.6195 94.662 51.6195C102.009 51.6195 107.972 51.6887 107.972 51.781Z" fill="white"/>
<path d="M115.954 54.8031C115.954 54.8954 106.427 54.9646 94.697 54.9646C82.9669 54.9646 73.4282 54.8954 73.4282 54.8031C73.4282 54.7108 82.9438 54.6531 94.697 54.6531C106.45 54.6531 115.954 54.7223 115.954 54.8031Z" fill="white"/>
<path d="M115.954 58.5171C115.954 58.6094 106.427 58.6786 94.697 58.6786C82.9669 58.6786 73.4282 58.6094 73.4282 58.5171C73.4282 58.4249 82.9438 58.3672 94.697 58.3672C106.45 58.3672 115.954 58.4018 115.954 58.5171Z" fill="white"/>
<path d="M115.954 62.2427C115.954 62.3235 106.427 62.3927 94.697 62.3927C82.9669 62.3927 73.4282 62.3235 73.4282 62.2427C73.4282 62.162 82.9438 62.0812 94.697 62.0812C106.45 62.0812 115.954 62.1504 115.954 62.2427Z" fill="white"/>
<path d="M115.954 65.9568C115.954 66.0375 106.427 66.1067 94.697 66.1067C82.9669 66.1067 73.4282 66.0375 73.4282 65.9568C73.4282 65.876 82.9438 65.7953 94.697 65.7953C106.45 65.7953 115.954 65.8645 115.954 65.9568Z" fill="white"/>
<path d="M115.954 69.6703C115.954 69.751 106.427 69.8202 94.697 69.8202C82.9669 69.8202 73.4282 69.751 73.4282 69.6703C73.4282 69.5895 82.9438 69.5203 94.697 69.5203C106.45 69.5203 115.954 69.5895 115.954 69.6703Z" fill="white"/>
<path opacity="0.8" d="M51.5138 10.0164H14.9048V46.6254H51.5138V10.0164Z" fill="white"/>
<path d="M46.5076 51.781C46.5076 51.8618 40.5561 51.931 33.2089 51.931C25.8617 51.931 19.9102 51.8618 19.9102 51.781C19.9102 51.7003 25.8617 51.6195 33.2089 51.6195C40.5561 51.6195 46.5076 51.6887 46.5076 51.781Z" fill="white"/>
<path d="M54.4666 54.8031C54.4666 54.8954 44.951 54.9646 33.2094 54.9646C21.4678 54.9646 11.9407 54.8954 11.9407 54.8031C11.9407 54.7108 21.4678 54.6531 33.2094 54.6531C44.951 54.6531 54.4666 54.7223 54.4666 54.8031Z" fill="white"/>
<path d="M54.4666 58.5171C54.4666 58.6094 44.951 58.6786 33.2094 58.6786C21.4678 58.6786 11.9407 58.6094 11.9407 58.5171C11.9407 58.4249 21.4678 58.3672 33.2094 58.3672C44.951 58.3672 54.4666 58.4018 54.4666 58.5171Z" fill="white"/>
<path d="M54.4666 62.2427C54.4666 62.3235 44.951 62.3927 33.2094 62.3927C21.4678 62.3927 11.9407 62.3235 11.9407 62.2427C11.9407 62.162 21.4678 62.0812 33.2094 62.0812C44.951 62.0812 54.4666 62.1504 54.4666 62.2427Z" fill="white"/>
<path d="M54.4666 65.9568C54.4666 66.0375 44.951 66.1067 33.2094 66.1067C21.4678 66.1067 11.9407 66.0375 11.9407 65.9568C11.9407 65.876 21.4678 65.7953 33.2094 65.7953C44.951 65.7953 54.4666 65.8645 54.4666 65.9568Z" fill="white"/>
<path d="M54.4666 69.6703C54.4666 69.751 44.951 69.8202 33.2094 69.8202C21.4678 69.8202 11.9407 69.751 11.9407 69.6703C11.9407 69.5895 21.4678 69.5203 33.2094 69.5203C44.951 69.5203 54.4666 69.5895 54.4666 69.6703Z" fill="white"/>
<path d="M112.125 33.9151L111.94 33.7651L111.41 33.2807L109.46 31.4237L102.621 24.8262H102.817L95.7925 32.8193L95.5157 33.1307L95.4119 33.2461L95.2966 33.1538L90.9598 29.5667H91.1559L81.6749 38.0327L78.8952 40.4779L78.1339 41.1238L77.8687 41.3314C77.8687 41.3314 77.9379 41.2392 78.0993 41.0777L78.826 40.3972L81.548 37.8943L90.9598 29.3476L91.0521 29.2553L91.1559 29.3361C92.5284 30.4895 93.9817 31.6428 95.4926 32.9116H95.2735L95.5619 32.5886L102.609 24.6186L102.701 24.5148L102.805 24.6186L109.576 31.2968L111.479 33.2115L111.963 33.719C112.079 33.8459 112.136 33.9151 112.125 33.9151Z" fill="white"/>
<path d="M88.9989 21.7699C88.9989 21.7699 88.8028 21.47 88.376 21.0432C87.7508 20.4328 86.9382 20.0509 86.0692 19.959C85.571 19.8981 85.0656 19.9369 84.5825 20.0732C84.0995 20.2095 83.6483 20.4406 83.2554 20.7529C82.8625 21.0653 82.5357 21.4528 82.2941 21.8927C82.0524 22.3326 81.9007 22.8163 81.8478 23.3154C81.757 24.1164 81.9269 24.9254 82.3322 25.6222C82.7369 26.3123 83.3453 26.8603 84.0738 27.1909C84.7543 27.4926 85.5091 27.585 86.2422 27.4561C86.8656 27.3492 87.4526 27.0887 87.95 26.698C88.4474 26.3073 88.8396 25.7988 89.0912 25.2185C89.4359 24.4219 89.5049 23.5329 89.2872 22.6926C89.1373 22.1043 88.9412 21.8045 88.9758 21.7929C89.0104 21.7814 89.0335 21.8621 89.1142 22.0005C89.2403 22.2053 89.3374 22.4265 89.4026 22.658C89.6766 23.5236 89.6399 24.4578 89.2988 25.2993C89.0123 25.9976 88.5357 26.6016 87.9232 27.0427C87.3108 27.4838 86.5869 27.7444 85.8338 27.7948C85.0807 27.8453 84.3285 27.6836 83.6627 27.3281C82.9968 26.9726 82.444 26.4376 82.0669 25.7837C81.6853 25.1316 81.4948 24.3853 81.5174 23.63C81.54 22.8748 81.7747 22.1412 82.1947 21.5131C82.6146 20.885 83.2028 20.3877 83.8921 20.0782C84.5814 19.7687 85.3439 19.6595 86.0923 19.7629C86.9789 19.8932 87.7935 20.325 88.3991 20.9855C88.567 21.1602 88.7141 21.3537 88.8374 21.5622C88.9758 21.6891 89.0104 21.7583 88.9989 21.7699Z" fill="white"/>
</svg>
