<svg width="117" height="72" viewBox="0 0 117 72" fill="none" xmlns="http://www.w3.org/2000/svg">
<path d="M106.071 0H17.4464C11.8507 0 7.31445 4.53624 7.31445 10.132V61.868C7.31445 67.4637 11.8507 72 17.4464 72H106.071C111.667 72 116.203 67.4637 116.203 61.868V10.132C116.203 4.53624 111.667 0 106.071 0Z" fill="#F39966"/>
<path d="M98.7567 0H10.132C4.53625 0 0 4.53624 0 10.132V61.868C0 67.4637 4.53625 72 10.132 72H98.7567C104.352 72 108.889 67.4637 108.889 61.868V10.132C108.889 4.53624 104.352 0 98.7567 0Z" fill="#F39966"/>
<path d="M42.6803 31.9563L27.845 37.2158L42.6803 42.4752V49.2702L19.708 40.8067V33.649L42.6803 25.1855V31.9563Z" fill="white"/>
<path d="M59.0505 14.3281H66.9094L51.5543 58.1447H43.6953L59.0505 14.3281Z" fill="white"/>
<path d="M90.318 31.6361V38.7938L67.3457 47.2573V40.4623L82.1931 35.2028L67.3457 29.9434V23.1484L90.318 31.6361Z" fill="white"/>
</svg>
