<svg width="142" height="140" viewBox="0 0 142 140" fill="none" xmlns="http://www.w3.org/2000/svg">
<path d="M94.0576 27.1968C94.0576 27.1968 93.9995 27.175 93.8977 27.1204L93.4615 26.866L91.873 25.8991L86.6714 22.6604L81.4916 19.3889L79.9286 18.3857L79.5033 18.0912C79.4088 18.0331 79.3579 17.9967 79.3615 17.9895C79.4177 18.0051 79.4715 18.0284 79.5214 18.0585C79.6269 18.1094 79.7759 18.1966 79.9649 18.3057C80.3466 18.5238 80.8918 18.8473 81.5607 19.2544C82.902 20.0686 84.7449 21.21 86.7732 22.4859C88.8015 23.7618 90.6262 24.9213 91.9457 25.7573L93.5087 26.8151L93.9267 27.0986C93.9731 27.1276 94.0169 27.1604 94.0576 27.1968Z" fill="#263238"/>
<path d="M139.545 26.8692C139.545 26.9201 135.845 27.0836 131.276 27.2327C126.707 27.3817 122.999 27.4544 122.999 27.4035C122.999 27.3526 126.699 27.189 131.269 27.04C135.838 26.891 139.542 26.8146 139.545 26.8692Z" fill="#263238"/>
<path d="M122.657 43.6345L122.413 43.7835L121.686 44.2197L118.851 45.8773L108.411 51.9512L108.375 51.9731L108.339 51.9512L94.028 43.7108L93.9844 43.6854V43.6345C93.9844 38.5274 93.9844 32.9441 93.9844 27.1209V27.0664L94.0316 27.0373L108.339 18.786L108.382 18.7605L108.426 18.786L122.719 27.0591L122.755 27.0809V27.1209C122.755 32.2098 122.73 36.3464 122.719 39.2108C122.719 40.632 122.719 41.7552 122.7 42.4822C122.7 42.8457 122.7 43.1329 122.7 43.3328C122.7 43.5327 122.7 43.6199 122.7 43.6199C122.7 43.6199 122.7 43.5182 122.7 43.3219C122.7 43.1256 122.7 42.8348 122.7 42.4604C122.7 41.7007 122.7 40.592 122.682 39.1671C122.682 36.3101 122.682 32.188 122.65 27.1064L122.686 27.1682L108.313 18.9387H108.411L94.1152 27.2009L94.1625 27.1209C94.1625 32.9368 94.1625 38.5274 94.1625 43.6345L94.1189 43.5582L108.411 51.8313H108.339L118.804 45.83C120.04 45.1212 120.985 44.5723 121.665 44.1979L122.413 43.7763C122.566 43.6781 122.657 43.6345 122.657 43.6345Z" fill="#263238"/>
<path d="M79.8561 19.8725C80.6611 19.8725 81.3137 19.2199 81.3137 18.4148C81.3137 17.6098 80.6611 16.9572 79.8561 16.9572C79.051 16.9572 78.3984 17.6098 78.3984 18.4148C78.3984 19.2199 79.051 19.8725 79.8561 19.8725Z" fill="#455A64"/>
<path d="M96.3115 27.1966C96.3122 27.6434 96.1803 28.0803 95.9326 28.4521C95.6848 28.8239 95.3323 29.1137 94.9197 29.285C94.5071 29.4563 94.0529 29.5014 93.6147 29.4144C93.1765 29.3274 92.7739 29.1123 92.458 28.7964C92.1421 28.4805 91.9271 28.078 91.8401 27.6398C91.7531 27.2015 91.7981 26.7474 91.9694 26.3348C92.1407 25.9221 92.4306 25.5696 92.8024 25.3219C93.1741 25.0741 93.6111 24.9422 94.0578 24.943C94.6555 24.943 95.2288 25.1804 95.6514 25.6031C96.074 26.0257 96.3115 26.5989 96.3115 27.1966Z" fill="#455A64"/>
<path d="M124.714 27.1966C124.714 27.6424 124.582 28.0781 124.335 28.4487C124.087 28.8193 123.735 29.1082 123.323 29.2787C122.911 29.4493 122.458 29.494 122.021 29.407C121.584 29.32 121.182 29.1054 120.867 28.7902C120.552 28.475 120.337 28.0735 120.25 27.6363C120.163 27.1991 120.208 26.746 120.379 26.3342C120.549 25.9224 120.838 25.5704 121.209 25.3228C121.579 25.0751 122.015 24.943 122.461 24.943C123.058 24.943 123.632 25.1804 124.054 25.603C124.477 26.0257 124.714 26.5989 124.714 27.1966Z" fill="#455A64"/>
<path d="M124.714 44.2004C124.714 44.6461 124.582 45.0818 124.335 45.4524C124.087 45.823 123.735 46.1119 123.323 46.2825C122.911 46.453 122.458 46.4977 122.021 46.4107C121.584 46.3238 121.182 46.1091 120.867 45.7939C120.552 45.4788 120.337 45.0772 120.25 44.64C120.163 44.2029 120.208 43.7497 120.379 43.3379C120.549 42.9261 120.838 42.5741 121.209 42.3265C121.579 42.0789 122.015 41.9467 122.461 41.9467C123.058 41.9476 123.631 42.1854 124.053 42.6078C124.476 43.0303 124.713 43.6029 124.714 44.2004Z" fill="#455A64"/>
<path d="M139.546 28.3818C140.477 28.3818 141.232 27.6267 141.232 26.6952C141.232 25.7637 140.477 25.0086 139.546 25.0086C138.614 25.0086 137.859 25.7637 137.859 26.6952C137.859 27.6267 138.614 28.3818 139.546 28.3818Z" fill="#455A64"/>
<path d="M108.337 54.2702C109.581 54.2702 110.59 53.2612 110.59 52.0166C110.59 50.7719 109.581 49.7629 108.337 49.7629C107.092 49.7629 106.083 50.7719 106.083 52.0166C106.083 53.2612 107.092 54.2702 108.337 54.2702Z" fill="#455A64"/>
<path d="M96.6167 43.4019C96.6174 43.8485 96.4856 44.2853 96.238 44.657C95.9904 45.0287 95.6381 45.3186 95.2257 45.49C94.8133 45.6614 94.3593 45.7066 93.9212 45.6199C93.4831 45.5332 93.0805 45.3185 92.7645 45.003C92.4484 44.6874 92.2331 44.2852 92.1457 43.8473C92.0583 43.4093 92.1028 42.9552 92.2735 42.5426C92.4443 42.1299 92.7336 41.7771 93.1049 41.5289C93.4762 41.2807 93.9127 41.1482 94.3594 41.1482C94.9574 41.1482 95.531 41.3856 95.9542 41.8081C96.3774 42.2306 96.6157 42.8039 96.6167 43.4019Z" fill="#455A64"/>
<path d="M108.358 2.46094C108.409 2.46094 108.453 6.03046 108.453 10.436C108.453 14.8416 108.409 18.4329 108.358 18.4329C108.307 18.4329 108.264 14.8634 108.264 10.436C108.264 6.00865 108.307 2.46094 108.358 2.46094Z" fill="#263238"/>
<path d="M110.612 18.8623C110.612 19.308 110.48 19.7437 110.232 20.1143C109.984 20.4849 109.632 20.7738 109.221 20.9444C108.809 21.115 108.356 21.1596 107.918 21.0726C107.481 20.9857 107.08 20.771 106.765 20.4558C106.449 20.1407 106.235 19.7391 106.148 19.3019C106.061 18.8648 106.105 18.4116 106.276 17.9998C106.447 17.588 106.735 17.236 107.106 16.9884C107.477 16.7408 107.912 16.6086 108.358 16.6086C108.956 16.6086 109.529 16.846 109.952 17.2687C110.374 17.6913 110.612 18.2646 110.612 18.8623Z" fill="#455A64"/>
<path d="M110.193 1.83565C110.19 2.19431 110.08 2.5439 109.878 2.84038C109.676 3.13686 109.391 3.36698 109.059 3.50176C108.727 3.63654 108.362 3.66995 108.01 3.59778C107.659 3.52561 107.337 3.3511 107.085 3.09621C106.832 2.84133 106.661 2.51746 106.592 2.16541C106.524 1.81336 106.561 1.44887 106.699 1.11782C106.837 0.786782 107.07 0.503998 107.368 0.305083C107.667 0.106169 108.017 1.7937e-05 108.376 2.27214e-09C108.616 -1.20086e-05 108.854 0.0475945 109.076 0.140065C109.297 0.232537 109.499 0.368038 109.668 0.538736C109.837 0.709434 109.97 0.91194 110.06 1.13455C110.151 1.35716 110.196 1.59545 110.193 1.83565Z" fill="#455A64"/>
<path d="M9.40024 43.0263C9.37116 43.0699 7.58277 41.8922 5.37635 40.3946C3.16994 38.897 1.4288 37.6466 1.45788 37.6029C1.48696 37.5593 3.27535 38.737 5.4854 40.2383C7.69545 41.7395 9.43296 42.9827 9.40024 43.0263Z" fill="#263238"/>
<path d="M52.401 67.8459C52.3756 67.8932 49.086 66.1811 45.0584 64.022C41.0309 61.8628 37.7885 60.078 37.8067 60.0235C37.8249 59.969 41.1182 61.7101 45.1638 63.8584C49.2095 66.0066 52.4337 67.8023 52.401 67.8459Z" fill="#263238"/>
<path d="M38.0041 59.4642C38.0041 59.4642 37.9242 59.5188 37.7606 59.6169L37.0336 60.0495L34.1983 61.707L23.7406 67.781L23.7042 67.8028L23.6679 67.781L9.3571 59.5297L9.31348 59.5042V59.4533C9.31348 54.3644 9.31348 48.7629 9.31348 42.9434V42.8889L9.36073 42.8598L23.6679 34.6085L23.7115 34.583L23.7551 34.6085L38.0477 42.8816L38.0841 42.9034V42.9434C38.0841 48.0323 38.055 52.1689 38.0477 55.0332C38.0477 56.4545 38.0477 57.5777 38.0477 58.3047C38.0477 58.6682 38.0477 58.959 38.0477 59.1553C38.0477 59.3515 38.0477 59.4424 38.0477 59.4424C38.0477 59.4424 38.0477 59.3406 38.0477 59.1444C38.0477 58.9481 38.0477 58.6573 38.0477 58.2865C38.0477 57.5268 38.0477 56.4145 38.0296 54.9896C38.0296 52.1325 38.0114 48.0105 37.9969 42.9289L38.0332 42.9906L23.7224 34.7502H23.8097L9.50977 43.0125L9.55702 42.9289C9.55702 48.7448 9.55702 54.3353 9.55702 59.4388L9.5134 59.3624L23.806 67.6356H23.7333L34.1983 61.6343L37.059 60.0022L37.8078 59.5805L38.0041 59.4642Z" fill="#263238"/>
<path d="M1.45761 39.0609C2.26263 39.0609 2.91523 38.4083 2.91523 37.6033C2.91523 36.7983 2.26263 36.1457 1.45761 36.1457C0.652594 36.1457 0 36.7983 0 37.6033C0 38.4083 0.652594 39.0609 1.45761 39.0609Z" fill="#455A64"/>
<path d="M11.6538 43.0273C11.6538 43.473 11.5216 43.9088 11.274 44.2794C11.0264 44.65 10.6744 44.9388 10.2626 45.1094C9.85079 45.28 9.39765 45.3246 8.96048 45.2377C8.52332 45.1507 8.12175 44.9361 7.80657 44.6209C7.49139 44.3057 7.27675 43.9041 7.18979 43.467C7.10283 43.0298 7.14746 42.5767 7.31804 42.1649C7.48861 41.7531 7.77747 41.4011 8.14808 41.1535C8.5187 40.9058 8.95442 40.7736 9.40015 40.7736C9.69624 40.7732 9.98952 40.8311 10.2632 40.9442C10.5368 41.0573 10.7854 41.2233 10.9948 41.4327C11.2042 41.642 11.3702 41.8907 11.4832 42.1643C11.5963 42.4379 11.6543 42.7312 11.6538 43.0273Z" fill="#455A64"/>
<path d="M40.0751 43.0273C40.0759 43.4741 39.944 43.911 39.6962 44.2828C39.4485 44.6545 39.096 44.9444 38.6834 45.1157C38.2707 45.287 37.8166 45.332 37.3784 45.245C36.9401 45.1581 36.5376 44.943 36.2217 44.6271C35.9058 44.3112 35.6907 43.9086 35.6037 43.4704C35.5168 43.0322 35.5618 42.578 35.7331 42.1654C35.9044 41.7528 36.1943 41.4003 36.566 41.1526C36.9378 40.9048 37.3747 40.7729 37.8215 40.7736C38.4192 40.7736 38.9924 41.0111 39.4151 41.4337C39.8377 41.8564 40.0751 42.4296 40.0751 43.0273Z" fill="#455A64"/>
<path d="M37.8074 62.2888C39.052 62.2888 40.061 61.2798 40.061 60.0351C40.061 58.7904 39.052 57.7814 37.8074 57.7814C36.5627 57.7814 35.5537 58.7904 35.5537 60.0351C35.5537 61.2798 36.5627 62.2888 37.8074 62.2888Z" fill="#455A64"/>
<path d="M54.0851 67.8467C54.0859 68.1805 53.9875 68.5071 53.8024 68.7851C53.6174 69.063 53.354 69.2797 53.0456 69.4078C52.7373 69.5359 52.3979 69.5696 52.0704 69.5047C51.7429 69.4397 51.442 69.279 51.2059 69.0429C50.9698 68.8068 50.8091 68.5059 50.7441 68.1784C50.6792 67.8509 50.7129 67.5115 50.841 67.2032C50.9691 66.8948 51.1858 66.6315 51.4638 66.4464C51.7417 66.2614 52.0683 66.163 52.4022 66.1637C52.8485 66.1637 53.2766 66.341 53.5922 66.6566C53.9078 66.9722 54.0851 67.4003 54.0851 67.8467Z" fill="#455A64"/>
<path d="M25.9351 67.8459C25.9351 68.2916 25.8029 68.7273 25.5553 69.0979C25.3076 69.4685 24.9556 69.7574 24.5438 69.928C24.132 70.0986 23.6789 70.1432 23.2417 70.0562C22.8046 69.9693 22.403 69.7546 22.0878 69.4394C21.7726 69.1243 21.558 68.7227 21.471 68.2855C21.3841 67.8484 21.4287 67.3952 21.5993 66.9834C21.7699 66.5716 22.0587 66.2196 22.4293 65.972C22.7999 65.7244 23.2357 65.5922 23.6814 65.5922C24.2791 65.5922 24.8523 65.8296 25.275 66.2523C25.6976 66.6749 25.9351 67.2482 25.9351 67.8459Z" fill="#455A64"/>
<path d="M11.9585 59.2312C11.9585 59.6769 11.8263 60.1127 11.5787 60.4833C11.3311 60.8539 10.9791 61.1428 10.5673 61.3133C10.1555 61.4839 9.70234 61.5285 9.26517 61.4416C8.828 61.3546 8.42644 61.14 8.11126 60.8248C7.79607 60.5096 7.58143 60.108 7.49448 59.6709C7.40752 59.2337 7.45215 58.7806 7.62273 58.3688C7.7933 57.957 8.08216 57.605 8.45277 57.3574C8.82338 57.1097 9.25911 56.9775 9.70484 56.9775C10.0009 56.9771 10.2942 57.035 10.5678 57.1481C10.8415 57.2612 11.0901 57.4272 11.2995 57.6366C11.5089 57.8459 11.6748 58.0946 11.7879 58.3682C11.901 58.6418 11.959 58.9351 11.9585 59.2312Z" fill="#455A64"/>
<path d="M23.718 18.2916C23.7689 18.2916 23.8125 21.8648 23.8125 26.2885C23.8125 30.7122 23.7689 34.2636 23.718 34.2636C23.6672 34.2636 23.6235 30.694 23.6235 26.2885C23.6235 21.8829 23.649 18.2916 23.718 18.2916Z" fill="#263238"/>
<path d="M25.957 34.6916C25.957 35.1373 25.8249 35.573 25.5772 35.9436C25.3296 36.3142 24.9776 36.6031 24.5658 36.7737C24.154 36.9443 23.7009 36.9889 23.2637 36.9019C22.8265 36.815 22.425 36.6003 22.1098 36.2851C21.7946 35.97 21.58 35.5684 21.493 35.1312C21.4061 34.6941 21.4507 34.2409 21.6213 33.8291C21.7918 33.4173 22.0807 33.0653 22.4513 32.8177C22.8219 32.5701 23.2576 32.4379 23.7034 32.4379C24.3008 32.4389 24.8735 32.6766 25.2959 33.099C25.7183 33.5215 25.9561 34.0941 25.957 34.6916Z" fill="#455A64"/>
<path d="M23.7038 19.502C24.7176 19.502 25.5395 18.6801 25.5395 17.6663C25.5395 16.6525 24.7176 15.8307 23.7038 15.8307C22.69 15.8307 21.8682 16.6525 21.8682 17.6663C21.8682 18.6801 22.69 19.502 23.7038 19.502Z" fill="#455A64"/>
<path d="M68.965 129.411C69.0214 129.431 69.0752 129.458 69.125 129.491L69.5612 129.746L71.1496 130.709L76.3512 133.951L81.531 137.223L83.0941 138.222L83.5157 138.499C83.5682 138.526 83.617 138.561 83.6611 138.6C83.6611 138.6 83.603 138.6 83.4976 138.531C83.3921 138.462 83.2467 138.397 83.0541 138.288C82.6906 138.07 82.1308 137.742 81.4584 137.335C80.1171 136.521 78.2778 135.38 76.2495 134.107C74.2212 132.835 72.3964 131.668 71.0769 130.818L69.5175 129.807L69.0995 129.524C69.0087 129.455 68.9614 129.418 68.965 129.411Z" fill="#263238"/>
<path d="M25.9684 104.603C25.9939 104.559 29.2799 106.271 33.311 108.427C37.3422 110.582 40.5809 112.371 40.5627 112.425C40.5445 112.48 37.2513 110.761 33.2201 108.601C29.189 106.442 25.943 104.639 25.9684 104.603Z" fill="#263238"/>
<path d="M40.363 112.963C40.363 112.963 40.443 112.908 40.6065 112.81L41.3335 112.377L44.1688 110.72L54.6156 104.657H54.652H54.6847L68.9955 112.897L69.0427 112.923V112.963C69.0427 118.052 69.0427 123.653 69.0427 129.473V129.527L68.9955 129.553L54.7101 137.826L54.6665 137.851L54.6193 137.826L40.3303 129.549L40.2939 129.531V129.491C40.2939 124.402 40.3194 120.262 40.3267 117.397C40.3267 115.976 40.3267 114.871 40.3448 114.126C40.3448 113.762 40.3448 113.472 40.3448 113.272C40.3448 113.072 40.3448 112.988 40.3448 112.988C40.3448 112.988 40.3448 113.09 40.3448 113.283C40.3448 113.475 40.3448 113.77 40.3448 114.144C40.3448 114.904 40.3448 116.012 40.363 117.437C40.363 120.298 40.3848 124.416 40.3994 129.502L40.363 129.44L54.7101 137.68H54.6156L68.9155 129.418L68.8683 129.502C68.8683 123.686 68.8683 118.095 68.8683 112.992L68.9119 113.068L54.6156 104.78H54.6847L44.2379 110.782L41.3735 112.414L40.6247 112.835L40.363 112.963Z" fill="#263238"/>
<path d="M81.7061 138.193C81.7061 137.906 81.7913 137.625 81.9511 137.385C82.1109 137.146 82.3379 136.96 82.6036 136.85C82.8693 136.74 83.1616 136.711 83.4437 136.767C83.7257 136.823 83.9848 136.962 84.1882 137.165C84.3915 137.368 84.53 137.628 84.5861 137.91C84.6422 138.192 84.6134 138.484 84.5033 138.75C84.3933 139.015 84.2069 139.242 83.9678 139.402C83.7287 139.562 83.4476 139.647 83.16 139.647C82.7744 139.647 82.4046 139.494 82.1319 139.221C81.8592 138.949 81.7061 138.579 81.7061 138.193Z" fill="#455A64"/>
<path d="M66.7119 129.412C66.7119 128.966 66.8441 128.53 67.0917 128.16C67.3394 127.789 67.6913 127.5 68.1031 127.33C68.5149 127.159 68.9681 127.114 69.4053 127.201C69.8424 127.288 70.244 127.503 70.5592 127.818C70.8744 128.133 71.089 128.535 71.176 128.972C71.2629 129.409 71.2183 129.862 71.0477 130.274C70.8771 130.686 70.5883 131.038 70.2177 131.286C69.847 131.533 69.4113 131.665 68.9656 131.665C68.3682 131.664 67.7955 131.427 67.3731 131.004C66.9506 130.582 66.7129 130.009 66.7119 129.412Z" fill="#455A64"/>
<path d="M38.3086 129.412C38.3086 128.966 38.4408 128.53 38.6884 128.16C38.936 127.789 39.288 127.5 39.6998 127.33C40.1116 127.159 40.5648 127.114 41.0019 127.201C41.4391 127.288 41.8407 127.503 42.1558 127.818C42.471 128.133 42.6857 128.535 42.7726 128.972C42.8596 129.409 42.8149 129.862 42.6444 130.274C42.4738 130.686 42.1849 131.038 41.8143 131.286C41.4437 131.533 41.008 131.665 40.5623 131.665C39.9648 131.664 39.3922 131.427 38.9697 131.004C38.5473 130.582 38.3096 130.009 38.3086 129.412Z" fill="#455A64"/>
<path d="M40.5623 114.66C41.8069 114.66 42.8159 113.651 42.8159 112.407C42.8159 111.162 41.8069 110.153 40.5623 110.153C39.3176 110.153 38.3086 111.162 38.3086 112.407C38.3086 113.651 39.3176 114.66 40.5623 114.66Z" fill="#455A64"/>
<path d="M25.9679 106.279C26.8994 106.279 27.6545 105.524 27.6545 104.592C27.6545 103.661 26.8994 102.905 25.9679 102.905C25.0364 102.905 24.2812 103.661 24.2812 104.592C24.2812 105.524 25.0364 106.279 25.9679 106.279Z" fill="#455A64"/>
<path d="M52.4346 104.603C52.4353 104.158 52.5681 103.722 52.8161 103.352C53.0642 102.982 53.4165 102.694 53.8283 102.524C54.2402 102.354 54.6932 102.309 55.1301 102.397C55.5671 102.484 55.9683 102.699 56.2831 103.014C56.5979 103.33 56.8122 103.731 56.8989 104.168C56.9855 104.606 56.9407 105.058 56.77 105.47C56.5993 105.882 56.3105 106.233 55.9399 106.481C55.5694 106.728 55.1338 106.86 54.6882 106.86C54.392 106.86 54.0986 106.802 53.825 106.689C53.5513 106.575 53.3027 106.409 53.0934 106.199C52.8841 105.989 52.7181 105.741 52.6051 105.467C52.492 105.193 52.4341 104.899 52.4346 104.603Z" fill="#455A64"/>
<path d="M66.4072 113.207C66.4079 112.761 66.5407 112.326 66.7888 111.956C67.0369 111.586 67.3891 111.297 67.801 111.127C68.2128 110.957 68.6659 110.913 69.1028 111.001C69.5397 111.088 69.9409 111.303 70.2558 111.618C70.5706 111.934 70.7849 112.335 70.8715 112.772C70.9582 113.209 70.9133 113.662 70.7427 114.074C70.572 114.485 70.2831 114.837 69.9126 115.085C69.5421 115.332 69.1065 115.464 68.6609 115.464C68.0629 115.463 67.4896 115.225 67.0671 114.802C66.6446 114.379 66.4072 113.805 66.4072 113.207Z" fill="#455A64"/>
<path d="M52.4126 137.746C52.4126 137.3 52.5448 136.865 52.7924 136.494C53.04 136.123 53.392 135.835 53.8038 135.664C54.2156 135.493 54.6688 135.449 55.1059 135.536C55.5431 135.623 55.9447 135.837 56.2598 136.152C56.575 136.468 56.7897 136.869 56.8766 137.306C56.9636 137.744 56.919 138.197 56.7484 138.609C56.5778 139.02 56.2889 139.372 55.9183 139.62C55.5477 139.868 55.112 140 54.6663 140C54.0686 140 53.4953 139.762 53.0727 139.34C52.65 138.917 52.4126 138.344 52.4126 137.746Z" fill="#455A64"/>
<path d="M64.4989 96.5849C63.9827 97.1047 68.4355 99.9908 70.3148 102.401C72.194 104.811 78.9187 117.282 82.5464 116.366C86.1741 115.45 83.4769 105.825 83.4769 105.825C83.4769 105.825 85.0945 95.2835 84.4402 95.3526C83.7859 95.4217 66.051 95.0037 64.4989 96.5849Z" fill="#EEBABA"/>
<g opacity="0.3">
<path d="M64.4993 96.5839C63.9832 97.1037 68.436 99.9898 70.3153 102.4C72.1945 104.81 78.9192 117.281 82.5469 116.365C86.1745 115.449 83.4774 105.824 83.4774 105.824C83.4774 105.824 85.095 95.2826 84.4407 95.3516C83.7864 95.4207 66.0515 95.0027 64.4993 96.5839Z" fill="black"/>
</g>
<path d="M17.8661 74.1097C17.8661 74.1097 18.1314 83.2334 28.9745 85.2144L38.4944 86.1413C38.4944 86.1413 38.7598 99.2271 54.2301 99.4961L66.2654 98.0422C66.2654 98.0422 84.7782 97.5187 96.679 98.5729C100.074 98.8709 105.018 99.3544 109.91 97.635C114.803 95.9157 131.458 80.1873 114.665 60.6204C114.665 60.6204 116.119 51.7584 107.126 49.6428C107.126 49.6428 103.16 37.4767 89.9362 37.6111C89.9362 37.6111 85.5742 32.1878 78.9586 34.4378C78.9586 34.4378 66.2654 28.7164 56.611 33.889C56.611 33.889 45.1064 31.3954 36.5134 40.7954C36.5134 40.7954 27.2551 43.7033 24.8815 50.7115C24.8815 50.7115 13.5078 58.0541 16.9464 66.549C16.3289 67.0828 15.8585 67.7662 15.5804 68.5337C15.3023 69.3012 15.2257 70.1272 15.358 70.9327C15.7505 73.8443 17.8661 74.1097 17.8661 74.1097Z" fill="#EEBABA"/>
<path d="M86.3694 64.3672C85.8906 64.5157 85.4484 64.7634 85.0717 65.0942C84.629 65.4944 84.2855 65.9922 84.0684 66.5482C83.7656 67.3027 83.7424 68.1407 84.003 68.9109L84.0357 69.0054L83.9376 68.9799C82.4736 68.5786 80.9815 68.2882 79.4739 68.1112C73.0224 67.4019 66.5198 68.8832 61.012 72.3168L60.9756 72.3423H60.932C60.0019 72.0492 59.0502 71.8292 58.0858 71.6843C55.9237 71.3277 53.7247 71.2507 51.5429 71.4553C50.5109 71.5516 49.4963 71.7851 48.5259 72.1496C47.5879 72.4806 46.6815 72.8955 45.8179 73.3891C45.0111 73.8825 44.2572 74.4574 43.5679 75.1048C42.8953 75.693 42.2569 76.3193 41.6559 76.9805C40.6088 78.1977 39.7589 79.5714 39.1369 81.0516C38.8685 81.6965 38.6592 82.3644 38.5117 83.0472C38.3876 83.6573 38.3267 84.2785 38.3299 84.901C38.3488 85.9011 38.4793 86.896 38.7188 87.8671C38.9115 88.6668 39.1114 89.2775 39.2532 89.6846L39.4167 90.1499C39.4531 90.2553 39.4676 90.3098 39.4676 90.3098C39.1246 89.5246 38.8509 88.7109 38.6498 87.878C38.3919 86.9045 38.2491 85.9041 38.2245 84.8974C38.2158 84.2667 38.2731 83.6369 38.3953 83.0181C38.5372 82.3265 38.7441 81.6498 39.0133 80.9971C39.6335 79.4996 40.4847 78.1087 41.5359 76.875C42.1391 76.2066 42.7799 75.5731 43.4552 74.9776C44.1521 74.3214 44.9132 73.7368 45.727 73.2328C46.6003 72.7342 47.5163 72.3145 48.4641 71.9788C49.4459 71.6003 50.4741 71.3558 51.5211 71.2518C53.7149 71.047 55.9258 71.1227 58.1004 71.4771C59.0756 71.6268 60.038 71.8504 60.9793 72.146H60.8993C66.4391 68.6899 72.9873 67.215 79.4739 67.9622C80.9878 68.1476 82.485 68.4502 83.9521 68.8673L83.8867 68.9363C83.6239 68.1411 83.6561 67.2779 83.9776 66.5045C84.2042 65.9363 84.5616 65.4294 85.0208 65.0251C85.3086 64.7808 85.6338 64.5844 85.9841 64.4435C86.2385 64.3963 86.3694 64.3672 86.3694 64.3672Z" fill="#263238"/>
<path d="M102.894 63.1395C102.894 63.1395 102.894 63.194 102.85 63.3067C102.806 63.4193 102.759 63.5829 102.694 63.7937C102.566 64.2227 102.33 64.8406 102.014 65.633C101.609 66.5866 101.148 67.5152 100.633 68.4138C100.342 68.9481 99.982 69.4861 99.6112 70.064C99.2405 70.642 98.8006 71.2236 98.3172 71.8124C96.0748 74.6141 93.2828 76.9273 90.1131 78.6098C88.2342 79.581 86.2465 80.3253 84.1918 80.8271C81.9824 81.3519 79.7158 81.5961 77.4453 81.5541C76.1861 81.5305 74.93 81.4176 73.6868 81.216C72.4882 81.0147 71.3042 80.7342 70.1427 80.3764H70.2263C68.4414 81.7084 66.3551 82.5789 64.1527 82.9105C61.9504 83.2422 59.7002 83.0247 57.6021 82.2774H57.6748C56.909 82.8555 56.0612 83.3162 55.1595 83.6442C54.3567 83.9422 53.5184 84.134 52.6659 84.2149C52.4681 84.2384 52.269 84.2493 52.0698 84.2476C51.8771 84.2476 51.6881 84.2476 51.5027 84.2476C51.1392 84.2258 50.7757 84.2476 50.4122 84.1822L49.9106 84.124L49.4344 84.0295C49.1398 83.9747 48.8485 83.9031 48.562 83.815C47.7233 83.5678 46.9214 83.2096 46.1775 82.75C45.9194 82.5901 45.7413 82.4447 45.6141 82.3574L45.4287 82.2157L45.6286 82.3392C45.7595 82.4192 45.9412 82.5573 46.1993 82.7027C46.947 83.1451 47.7484 83.4897 48.5838 83.7278C48.8694 83.8117 49.1595 83.8797 49.4526 83.9314L49.9251 84.0186L50.4231 84.0731C50.7612 84.1204 51.1174 84.1095 51.4882 84.1276L52.0516 84.1058C52.2463 84.1026 52.4405 84.0868 52.6332 84.0586C53.4748 83.9701 54.3018 83.7746 55.094 83.477C55.9806 83.1501 56.8137 82.6932 57.5658 82.1211L57.5985 82.0957H57.6349C59.7089 82.8249 61.9306 83.0323 64.1038 82.6994C66.2769 82.3666 68.3347 81.5039 70.0955 80.1874L70.1354 80.1583H70.1791C71.3339 80.5107 72.5105 80.7876 73.7013 80.987C74.9349 81.1873 76.1812 81.2991 77.4308 81.3215C79.6855 81.3617 81.9364 81.1175 84.13 80.5945C89.6832 79.2788 94.6349 76.1393 98.1936 71.6779C98.6771 71.0927 99.0951 70.5039 99.4949 69.9477C99.8948 69.3916 100.222 68.8391 100.524 68.312C101.044 67.4196 101.514 66.4985 101.93 65.5531C102.254 64.7679 102.501 64.1536 102.639 63.7356C102.715 63.532 102.77 63.3721 102.814 63.2558C102.857 63.1395 102.894 63.1395 102.894 63.1395Z" fill="#263238"/>
<path d="M47.4364 91.6807C47.4067 91.562 47.3969 91.4392 47.4074 91.3173C47.4074 91.0883 47.4074 90.7611 47.4074 90.354C47.4224 89.2855 47.6229 88.2278 47.9998 87.2279C48.3976 86.2191 49.1254 85.3747 50.0645 84.8325C50.3501 84.6766 50.6577 84.5651 50.9769 84.5017C51.0953 84.4703 51.2184 84.4605 51.3404 84.4726C50.9215 84.582 50.5175 84.7419 50.1372 84.9488C49.2514 85.5044 48.5663 86.3284 48.1816 87.3006C47.8154 88.2825 47.6021 89.3147 47.5491 90.3613C47.5352 90.8028 47.4975 91.2432 47.4364 91.6807Z" fill="#263238"/>
<path d="M99.6122 89.2409C99.5738 89.2386 99.5359 89.2313 99.4995 89.2191L99.1796 89.1428L97.9437 88.8229C97.6748 88.7538 97.3767 88.6702 97.0495 88.5939L95.9772 88.354L94.7486 88.0777L93.3601 87.8233C91.0759 87.4044 88.7702 87.1132 86.4537 86.9509C83.6217 86.7393 80.7784 86.7235 77.9443 86.9036C74.3847 87.1111 70.8488 87.6169 67.3738 88.4158C64.8604 89.0063 62.3813 89.7344 59.9476 90.5967L59.9803 90.5568C59.9333 91.0509 59.7874 91.5305 59.5514 91.9671C59.3619 92.2835 59.1154 92.562 58.8244 92.7886C58.5922 92.9818 58.3385 93.1477 58.0684 93.283C58.128 93.2346 58.1911 93.1909 58.2574 93.1521C58.4415 93.0274 58.6187 92.8927 58.7881 92.7486C59.0647 92.5194 59.2964 92.2408 59.4714 91.9271C59.6958 91.4968 59.8318 91.0259 59.8713 90.5422V90.5131H59.9004C62.332 89.6095 64.8154 88.8521 67.3375 88.2449C70.8183 87.4262 74.3635 86.9106 77.9333 86.7037C83.1011 86.3865 88.2882 86.715 93.3746 87.6815L94.7632 87.9505L95.9918 88.2413L97.0604 88.4921C97.3876 88.5757 97.682 88.6666 97.951 88.7393L99.176 89.1028L99.4959 89.1973L99.6122 89.2409Z" fill="#263238"/>
<path d="M109.38 83.9749C109.38 83.9749 109.409 83.9494 109.478 83.9058L109.772 83.7132C110.027 83.5459 110.405 83.2951 110.863 82.9425C112.188 81.9603 113.343 80.7681 114.283 79.413C114.927 78.4785 115.432 77.4563 115.784 76.3778C116.186 75.1384 116.362 73.8372 116.304 72.5357C116.245 71.0975 115.837 69.6953 115.116 68.45C114.324 67.124 113.18 66.0432 111.811 65.3276C110.965 64.887 110.037 64.6224 109.085 64.5497H108.947L109.009 64.4225C109.659 63.2121 109.977 61.8516 109.932 60.4786C109.842 59.2118 109.434 57.988 108.747 56.92C108.206 56.0046 107.476 55.2153 106.605 54.6047C105.734 53.9942 104.743 53.5765 103.698 53.3795C102.903 53.2198 102.092 53.1539 101.281 53.1832C100.554 53.2014 99.9542 53.2632 99.4635 53.3068L98.3149 53.4122L98.0168 53.434C97.9831 53.4388 97.9488 53.4388 97.915 53.434H98.0168L98.3112 53.3977L99.4563 53.2596C99.9579 53.2014 100.569 53.1287 101.274 53.1033C102.092 53.0626 102.912 53.12 103.716 53.2741C105.416 53.6278 106.957 54.5207 108.109 55.82C109.261 57.1193 109.963 58.7557 110.11 60.4858C110.159 61.8922 109.835 63.2865 109.172 64.5279L109.096 64.3898C110.072 64.4659 111.023 64.7379 111.891 65.1895C113.293 65.919 114.462 67.0257 115.268 68.3846C116.005 69.6562 116.42 71.0889 116.475 72.5575C116.529 73.8786 116.345 75.1987 115.93 76.4542C115.568 77.5452 115.049 78.5776 114.389 79.5184C113.434 80.8778 112.255 82.0651 110.903 83.0298C110.419 83.3823 109.91 83.6983 109.38 83.9749Z" fill="#263238"/>
<path d="M76.3301 67.5261C76.3301 67.5261 76.2284 67.5261 76.0466 67.4897C75.9364 67.4702 75.8282 67.441 75.7231 67.4025C75.5815 67.3586 75.4431 67.3052 75.3087 67.2425C74.9566 67.0802 74.6257 66.8751 74.3237 66.6319C73.9585 66.3276 73.6346 65.9769 73.3604 65.5886C73.0918 65.1953 72.8778 64.7673 72.7243 64.3164C72.6016 63.9481 72.5259 63.5659 72.4989 63.1787C72.4899 63.031 72.4899 62.8829 72.4989 62.7352C72.5006 62.623 72.5116 62.5112 72.5316 62.4008C72.5385 62.3046 72.5605 62.2101 72.5971 62.1209C72.637 62.1209 72.568 62.528 72.637 63.1678C72.682 63.5394 72.7673 63.9051 72.8915 64.2582C73.2007 65.1284 73.735 65.901 74.44 66.4974C74.7253 66.7396 75.0375 66.9482 75.3705 67.1189C75.9412 67.4097 76.3411 67.4861 76.3301 67.5261Z" fill="#263238"/>
<path d="M62.9322 66.6353C63.0547 66.9132 63.1237 67.2116 63.1357 67.515C63.2007 68.2496 63.1092 68.9897 62.8674 69.6864C62.6255 70.3831 62.2388 71.0207 61.7326 71.5571C61.5346 71.7895 61.294 71.9819 61.0238 72.1241C61.0056 72.0987 61.2746 71.8842 61.6308 71.4698C62.0936 70.9257 62.4522 70.301 62.6886 69.6269C62.9193 68.9513 63.0252 68.2394 63.0012 67.5259C62.9758 66.977 62.8995 66.6426 62.9322 66.6353Z" fill="#263238"/>
<path d="M51.3435 71.3578C51.2958 71.3691 51.2471 71.3752 51.1981 71.376C51.0572 71.3852 50.9157 71.3778 50.7764 71.3542C50.2609 71.256 49.7877 71.0023 49.4206 70.6272C48.8699 70.0749 48.4987 69.3693 48.3556 68.6026C48.2138 67.6743 48.2052 66.7306 48.3301 65.8C48.442 64.8825 48.4784 63.9573 48.4392 63.0338C48.398 62.2802 48.2947 61.5313 48.1302 60.7947C47.9884 60.1658 47.8321 59.6679 47.7195 59.3407C47.6513 59.1655 47.5954 58.9857 47.5522 58.8027C47.5522 58.8027 47.5813 58.8427 47.6249 58.93C47.6686 59.0172 47.7231 59.1444 47.7885 59.3153C47.9781 59.7889 48.1359 60.2746 48.2611 60.7692C48.4497 61.5092 48.5714 62.2647 48.6245 63.0265C48.6747 63.9593 48.6431 64.8946 48.53 65.8218C48.4042 66.7347 48.4042 67.6606 48.53 68.5735C48.6604 69.3104 49.0042 69.9929 49.5188 70.5363C49.8619 70.9066 50.3051 71.1693 50.7946 71.2924C51.1363 71.3578 51.3435 71.336 51.3435 71.3578Z" fill="#263238"/>
<path d="M42.805 75.7087C43.0759 75.2853 43.2635 74.814 43.3575 74.3202C43.4351 73.722 43.3927 73.1144 43.2329 72.5327C43.0732 71.9511 42.7992 71.4071 42.427 70.9324C41.6411 70.0008 40.6851 69.2274 39.6099 68.6533L38.6394 68.1044C38.5109 68.0446 38.3891 67.9715 38.2759 67.8863C38.4087 67.9221 38.5368 67.9733 38.6576 68.039C38.8975 68.148 39.2428 68.3152 39.6608 68.537C40.7779 69.0864 41.7683 69.8626 42.5688 70.8161C42.9573 71.309 43.2393 71.8772 43.397 72.4848C43.5547 73.0923 43.5846 73.7259 43.4848 74.3456C43.4139 74.7188 43.2707 75.0744 43.0631 75.3925C42.9942 75.5108 42.9071 75.6175 42.805 75.7087Z" fill="#263238"/>
<path d="M38.5306 82.4774C38.4399 82.4862 38.3486 82.4862 38.2579 82.4774H37.4692C37.1275 82.4556 36.7095 82.4193 36.226 82.3647C35.6865 82.2957 35.1513 82.1962 34.623 82.0667C33.232 81.7032 31.9011 81.14 30.6718 80.3946C29.16 79.4847 27.8171 78.3201 26.7024 76.9523C25.5929 75.5767 24.7497 74.0062 24.2161 72.3214C23.9878 71.5839 23.8654 70.8178 23.8526 70.0459C23.8473 69.6935 23.8778 69.3416 23.9435 68.9954C24.0109 68.6804 24.1008 68.3706 24.2125 68.0685C24.5386 67.1489 25.0138 66.2892 25.6192 65.524C25.7857 65.3182 25.9747 65.1317 26.1826 64.9679C26.2533 64.9092 26.3316 64.8602 26.4153 64.8225C26.3487 64.885 26.2783 64.9433 26.2045 64.9969C26.0121 65.1711 25.8358 65.3621 25.6774 65.5676C25.102 66.3412 24.6507 67.1996 24.3397 68.1121C24.2351 68.4103 24.1501 68.7151 24.0853 69.0245C24.0279 69.3606 24.0024 69.7013 24.009 70.0422C24.0261 70.7983 24.1485 71.5482 24.3724 72.2705C24.9075 73.9292 25.7429 75.4756 26.8369 76.8323C28.8517 79.2997 31.5802 81.0835 34.6484 81.9394C35.1746 82.0894 35.7085 82.2108 36.2478 82.3029C36.724 82.3684 37.1384 82.412 37.4764 82.4483L38.2616 82.4774C38.3511 82.4692 38.4411 82.4692 38.5306 82.4774Z" fill="#263238"/>
<path d="M29.498 56.5492C29.433 56.5588 29.3668 56.5588 29.3018 56.5492L28.7529 56.4838C28.0785 56.4045 27.4 56.3657 26.721 56.3675C25.7185 56.3633 24.7231 56.5355 23.7803 56.8763C22.6221 57.2805 21.6328 58.0612 20.9705 59.0937C20.6518 59.6087 20.4535 60.189 20.3906 60.7914C20.3277 61.3937 20.4016 62.0025 20.607 62.5723C21.0065 63.4903 21.7428 64.2202 22.6644 64.6115C23.2828 64.8858 23.9359 65.0741 24.6054 65.1713C25.078 65.2404 25.3324 65.2513 25.3324 65.2694C25.2672 65.2772 25.2013 65.2772 25.1361 65.2694C25.0101 65.2694 24.8247 65.2585 24.58 65.2367C23.8965 65.1659 23.2275 64.9932 22.5953 64.7242C22.155 64.5372 21.7475 64.2807 21.3885 63.9645C20.971 63.5989 20.6427 63.1426 20.4289 62.6305C20.2101 62.0366 20.1291 61.4009 20.1921 60.7711C20.2551 60.1414 20.4603 59.5343 20.7924 58.9955C21.4754 57.9274 22.5006 57.1227 23.7003 56.7128C24.6629 56.3738 25.6788 56.2113 26.6991 56.233C27.3823 56.2436 28.0637 56.3031 28.7383 56.4111L29.2872 56.5092C29.3589 56.514 29.4296 56.5275 29.498 56.5492Z" fill="#263238"/>
<path d="M60.1364 43.049C60.1364 43.049 60.1037 43.049 60.0492 42.9872C59.9947 42.9254 59.9038 42.8745 59.802 42.7945C59.5875 42.6237 59.2677 42.3693 58.846 42.0676C57.6647 41.1855 56.3262 40.5366 54.9021 40.1556C53.9149 39.919 52.9038 39.797 51.8887 39.7921C50.7243 39.765 49.5621 39.9083 48.4392 40.2174C47.2019 40.569 46.028 41.1137 44.9605 41.8313C43.8285 42.6218 42.8515 43.6137 42.078 44.7574C41.8999 45.0155 41.7363 45.2808 41.5909 45.528L41.5618 45.5753H41.5073C38.9271 45.5308 36.4106 46.3782 34.3828 47.9743C33.5067 48.6607 32.7449 49.4814 32.1255 50.4061C30.8175 52.3901 30.1652 54.7346 30.2608 57.109C30.2608 57.3561 30.2862 57.5742 30.3044 57.7633C30.3226 57.9523 30.3371 58.1268 30.3589 58.2431C30.3807 58.3594 30.388 58.4575 30.3989 58.5339C30.4054 58.5675 30.4054 58.602 30.3989 58.6356C30.2797 58.1357 30.2067 57.6259 30.1808 57.1126C30.0942 55.6993 30.2805 54.2825 30.7297 52.9397C31.0366 52.0089 31.4631 51.1218 31.9983 50.3007C32.6236 49.3591 33.394 48.5224 34.281 47.8217C36.3367 46.1814 38.8996 45.3087 41.5291 45.3535L41.4455 45.4008C41.5945 45.1464 41.7618 44.881 41.9399 44.6193C42.7265 43.4562 43.721 42.4482 44.8733 41.6459C45.9594 40.9208 47.153 40.3712 48.4101 40.0174C49.5504 39.7088 50.7296 39.568 51.9105 39.5994C52.9371 39.6162 53.9581 39.7529 54.953 40.0065C56.3892 40.4009 57.7332 41.0754 58.9078 41.9912C59.3258 42.3075 59.6348 42.5692 59.8456 42.7509L60.0783 42.9581C60.1021 42.9853 60.1217 43.016 60.1364 43.049Z" fill="#263238"/>
<path d="M37.196 50.6965C37.2502 50.6876 37.3054 50.6876 37.3596 50.6965C37.5136 50.7164 37.6665 50.7443 37.8176 50.7801C38.3795 50.9184 38.9149 51.148 39.4024 51.4599C40.1291 51.9262 40.7365 52.5561 41.1763 53.2991C41.701 54.2221 41.946 55.2777 41.8815 56.3374C41.8169 57.3972 41.4456 58.4153 40.8128 59.2677C40.2846 59.9512 39.6037 60.5015 38.8245 60.8744C38.3012 61.1207 37.7414 61.2803 37.1669 61.3469C37.0124 61.3638 36.8571 61.3723 36.7017 61.3724H36.5381C36.5381 61.3505 36.7598 61.3505 37.156 61.2851C37.7145 61.189 38.2558 61.0114 38.7627 60.7581C39.5108 60.3782 40.1632 59.8339 40.671 59.1659C41.2762 58.3381 41.6319 57.3545 41.6963 56.3311C41.7607 55.3077 41.5311 54.2872 41.0345 53.39C40.6145 52.664 40.0353 52.0426 39.3406 51.5725C38.8686 51.257 38.3531 51.0121 37.8103 50.8455C37.4141 50.7438 37.1924 50.7147 37.196 50.6965Z" fill="#263238"/>
<path d="M49.039 47.4797C49.1069 47.6198 49.1582 47.7674 49.1917 47.9195C49.3022 48.3313 49.3644 48.7546 49.3771 49.1808C49.4418 50.6096 49.0049 52.016 48.1419 53.1565C47.2789 54.297 46.0442 55.0997 44.6516 55.4257C44.2379 55.5303 43.8134 55.5864 43.3867 55.5929C43.231 55.6023 43.0747 55.5925 42.9214 55.5638C43.4938 55.5218 44.0616 55.4319 44.6189 55.2948C45.9617 54.9403 47.1468 54.1455 47.9844 53.0377C48.8221 51.9299 49.2638 50.5731 49.2389 49.1845C49.2183 48.6118 49.1515 48.0416 49.039 47.4797Z" fill="#263238"/>
<path d="M57.2439 63.9533C57.2456 63.7564 57.2589 63.5597 57.2839 63.3644C57.3255 62.8321 57.3255 62.2973 57.2839 61.765C57.1522 60.0033 56.5349 58.3126 55.5006 56.8804C54.4662 55.4483 53.0553 54.3307 51.4243 53.6518C50.9332 53.4428 50.4264 53.2726 49.9086 53.1429C49.7154 53.1051 49.5248 53.0554 49.3379 52.9939C49.3896 52.9843 49.4425 52.9843 49.4942 52.9939C49.5923 52.9939 49.7414 53.0193 49.9268 53.0593C50.4558 53.1645 50.9741 53.3178 51.4752 53.5173C53.1506 54.1748 54.6017 55.3002 55.6554 56.7593C56.7091 58.2184 57.3211 59.9497 57.4184 61.7469C57.4508 62.2853 57.4338 62.8255 57.3675 63.3608C57.3457 63.5534 57.313 63.6952 57.2948 63.797C57.2766 63.8987 57.2512 63.9569 57.2439 63.9533Z" fill="#263238"/>
<path d="M53.3462 44.3174C53.498 44.3789 53.642 44.4582 53.7751 44.5537C54.147 44.7984 54.4865 45.089 54.7856 45.4188C55.7937 46.5095 56.3667 47.9322 56.3959 49.4172C56.3962 50.2328 56.2279 51.0397 55.9016 51.7872C55.6405 52.3969 55.2807 52.9594 54.8365 53.452C54.5391 53.7849 54.2022 54.0803 53.8333 54.3317C53.7016 54.4283 53.5588 54.5088 53.408 54.5716C53.8888 54.2139 54.3332 53.8096 54.7347 53.3648C55.692 52.2734 56.2159 50.869 56.2072 49.4173C56.1985 47.9657 55.6578 46.5676 54.6875 45.4878C54.2792 45.0553 53.83 44.6634 53.3462 44.3174Z" fill="#263238"/>
<path d="M58.4795 44.5965C58.3599 45.3319 58.0875 46.034 57.6798 46.6576C57.3266 47.3143 56.8415 47.891 56.2549 48.3514C56.2113 48.3115 56.9055 47.6063 57.5162 46.563C58.1269 45.5198 58.4249 44.5784 58.4795 44.5965Z" fill="#263238"/>
<path d="M65.5193 31.85C65.6199 31.8892 65.7182 31.9341 65.8137 31.9845L66.1772 32.1626L66.6352 32.4425C67.5948 33.0679 68.4293 33.8667 69.0961 34.798C70.1035 36.1754 70.7304 37.794 70.9136 39.4907C71.1066 41.5847 70.581 43.682 69.4232 45.4374C68.2607 47.2581 66.5214 48.6365 64.4833 49.3523L64.5379 49.2432C65.2121 51.4582 65.4152 53.7897 65.134 56.0878C65.0551 56.7409 64.9336 57.388 64.7705 58.0253C64.716 58.247 64.6615 58.4142 64.6287 58.5305C64.6162 58.5884 64.5967 58.6446 64.5706 58.6977C64.5717 58.6382 64.5827 58.5792 64.6033 58.5233L64.716 58.0144C64.8568 57.375 64.9611 56.7281 65.0286 56.0769C65.2715 53.7948 65.0477 51.487 64.3707 49.2941L64.3452 49.2141L64.4252 49.1851C66.412 48.4757 68.1081 47.1285 69.2488 45.3538C70.3784 43.6354 70.897 41.5868 70.7209 39.5379C70.5447 37.867 69.9386 36.2703 68.9616 34.9034C68.311 33.978 67.5011 33.1755 66.5698 32.5334L66.1227 32.2389L65.7847 32.0463C65.6895 31.9904 65.6006 31.9246 65.5193 31.85Z" fill="#263238"/>
<path d="M59.2822 33.0449C59.4051 33.1092 59.5178 33.1912 59.6166 33.2885C59.8982 33.5373 60.143 33.8249 60.3436 34.1427C60.6533 34.6125 60.875 35.1348 60.9979 35.6839C61.1528 36.3585 61.1528 37.0594 60.9979 37.734C60.8308 38.407 60.5153 39.0342 60.0746 39.5697C59.7178 40.0064 59.2857 40.3757 58.7988 40.6601C58.4737 40.8521 58.1239 40.9988 57.7592 41.0963C57.6274 41.1379 57.4902 41.1599 57.3521 41.1618C57.8322 41.0075 58.2941 40.8015 58.7297 40.5475C59.2496 40.2358 59.7018 39.8232 60.0596 39.3339C60.4174 38.8446 60.6734 38.2886 60.8127 37.6986C60.952 37.1087 60.9716 36.4968 60.8704 35.8992C60.7693 35.3015 60.5493 34.7302 60.2237 34.219C59.9534 33.7946 59.6377 33.401 59.2822 33.0449Z" fill="#263238"/>
<path d="M89.8045 37.0798C89.7061 37.0968 89.6063 37.1053 89.5064 37.1052C89.3138 37.1052 89.0266 37.1379 88.6631 37.1816C87.6302 37.2979 86.6126 37.5246 85.6279 37.8577C84.949 38.0836 84.292 38.3707 83.6651 38.7155C82.9542 39.129 82.2739 39.593 81.6295 40.1041C80.1188 41.2377 78.8383 42.649 77.8564 44.2624C76.8713 46.0181 75.9808 47.7156 75.2611 49.3041C74.6168 50.7054 74.0845 52.1554 73.669 53.6406C73.3921 54.6432 73.1904 55.665 73.0656 56.6976C73.011 57.0611 73.0001 57.3482 72.9783 57.5409C72.9725 57.6399 72.9591 57.7383 72.9383 57.8353C72.9288 57.7374 72.9288 57.6388 72.9383 57.5409C72.9383 57.3446 72.9383 57.0574 72.9892 56.6903C73.0885 55.6494 73.2733 54.6185 73.5417 53.6079C73.9415 52.1137 74.463 50.6549 75.1011 49.2459C75.8281 47.6466 76.7041 45.9454 77.6928 44.1825C78.6827 42.5439 79.98 41.1122 81.5132 39.9659C82.1663 39.4522 82.8577 38.9892 83.5815 38.581C84.2208 38.232 84.8913 37.9436 85.5843 37.7195C86.5807 37.3943 87.6114 37.1857 88.6558 37.098C89.0193 37.0652 89.3101 37.058 89.5064 37.058C89.6062 37.0559 89.706 37.0632 89.8045 37.0798Z" fill="#263238"/>
<path d="M78.2131 34.1396C78.2131 34.1759 77.7006 34.1687 76.9009 34.3104C76.434 34.3952 75.9746 34.5168 75.5269 34.6739C74.4273 35.0654 73.4174 35.6735 72.5571 36.4623C72.206 36.7833 71.8814 37.1322 71.5866 37.5055C71.0886 38.1453 70.8596 38.596 70.8232 38.596C70.8553 38.481 70.903 38.3709 70.965 38.2689C71.0259 38.1432 71.0951 38.0218 71.1722 37.9054C71.2671 37.7451 71.3702 37.5898 71.4812 37.4401C71.7667 37.0488 72.0866 36.6839 72.4372 36.3496C73.3066 35.5347 74.3402 34.915 75.4687 34.5322C75.9273 34.3766 76.3995 34.2646 76.8791 34.1977C77.0632 34.1678 77.2489 34.1484 77.4352 34.1396C77.5744 34.129 77.7141 34.129 77.8532 34.1396C77.9725 34.122 78.0938 34.122 78.2131 34.1396Z" fill="#263238"/>
<path d="M81.2739 58.781C81.2739 58.7628 81.4266 58.7555 81.6774 58.6646C82.0311 58.5303 82.3476 58.3135 82.6007 58.0322C82.9713 57.6113 83.2466 57.1153 83.4076 56.5782C83.6119 55.914 83.7806 55.2393 83.9129 54.5572C84.158 53.3203 84.3039 52.0659 84.3491 50.8059C84.3709 50.3188 84.3709 49.9262 84.3745 49.6536C84.3636 49.5116 84.3697 49.3689 84.3927 49.2283C84.4286 49.366 84.447 49.5077 84.4472 49.65C84.4654 49.9226 84.4872 50.3188 84.4836 50.8059C84.4778 52.0827 84.3488 53.356 84.0983 54.608C83.9658 55.2994 83.7898 55.9817 83.5712 56.6509C83.398 57.2088 83.0996 57.7198 82.6988 58.1448C82.4234 58.4298 82.0791 58.6389 81.6992 58.7519C81.5972 58.7809 81.4924 58.7992 81.3866 58.8064C81.3139 58.8028 81.2739 58.8028 81.2739 58.781Z" fill="#263238"/>
<path d="M92.3888 64.2846C92.6294 63.609 92.7523 62.8972 92.7523 62.18C92.7369 61.4044 92.5715 60.6391 92.2652 59.9263C91.8945 59.0521 91.3389 58.2684 90.6368 57.629C89.9195 57.0012 89.0943 56.5086 88.2013 56.1751C87.4705 55.9052 86.7104 55.7222 85.9368 55.6298C85.4147 55.5645 84.889 55.533 84.3628 55.5353C84.1693 55.55 83.9748 55.55 83.7812 55.5353C83.8292 55.5186 83.8795 55.51 83.9303 55.5099C84.0284 55.5099 84.1738 55.4771 84.3628 55.4699C84.8936 55.4375 85.426 55.4485 85.955 55.5026C86.7417 55.5776 87.5159 55.751 88.2595 56.0188C89.1772 56.3418 90.0256 56.835 90.7604 57.4727C91.487 58.127 92.0561 58.9373 92.4252 59.8427C92.7328 60.577 92.8898 61.3657 92.8868 62.1618C92.8871 62.6979 92.7961 63.2302 92.6178 63.7358C92.5701 63.8722 92.5142 64.0058 92.4506 64.1356C92.4366 64.1878 92.4158 64.2379 92.3888 64.2846Z" fill="#263238"/>
<path d="M83.8945 44.7534C83.9666 44.7198 84.0422 44.6942 84.1199 44.6771C84.2726 44.631 84.4943 44.5765 84.7851 44.5135C85.6114 44.346 86.454 44.2729 87.2968 44.2954C88.5488 44.3278 89.7828 44.6006 90.9318 45.0987C92.3499 45.7195 93.5643 46.7273 94.4359 48.0067C95.33 49.2799 95.7751 50.8145 95.7008 52.3686C95.6129 53.6308 95.1609 54.8404 94.3995 55.8509C93.892 56.5313 93.2403 57.0911 92.4912 57.4903C92.2873 57.5955 92.0759 57.6854 91.8587 57.7592C91.7854 57.7906 91.7085 57.8126 91.6297 57.8247C91.6983 57.785 91.77 57.7509 91.8442 57.7229C92.054 57.637 92.258 57.5374 92.4548 57.4248C93.1769 57.0097 93.8026 56.446 94.2905 55.7709C95.0184 54.7738 95.4471 53.5898 95.5264 52.3577C95.5876 50.8441 95.1496 49.3523 94.2796 48.1121C93.4263 46.8625 92.2437 45.8736 90.8627 45.255C89.7307 44.7599 88.5167 44.4789 87.2823 44.4263C86.4478 44.3938 85.6122 44.4474 84.7887 44.5862C84.218 44.6843 83.8982 44.7716 83.8945 44.7534Z" fill="#263238"/>
<path d="M94.8939 48.4497C94.8576 48.4497 95.0102 47.8827 95.0393 46.9594C95.0553 46.71 95.0553 46.4599 95.0393 46.2106C95.0224 45.9232 94.9909 45.6369 94.9448 45.3527C94.7276 44.0426 94.2141 42.7994 93.4436 41.7178C93.2749 41.4843 93.0942 41.2598 92.902 41.0453C92.7407 40.8537 92.567 40.6728 92.3822 40.5037C91.7097 39.8749 91.2045 39.5877 91.2263 39.5514C91.355 39.6001 91.4772 39.6648 91.5898 39.744C91.7289 39.8215 91.8614 39.9102 91.986 40.0094C92.1588 40.1311 92.3239 40.2634 92.4803 40.4056C92.6737 40.5714 92.8559 40.7499 93.0256 40.9399C93.2271 41.1544 93.4165 41.3802 93.5926 41.616C93.9884 42.1608 94.3212 42.7485 94.585 43.3681C94.8361 43.993 95.0166 44.6441 95.1229 45.3091C95.1661 45.5994 95.1928 45.8919 95.2029 46.1851C95.2195 46.4405 95.2195 46.6967 95.2029 46.9521C95.1917 47.1629 95.1686 47.3728 95.1338 47.581C95.1147 47.738 95.0844 47.8935 95.043 48.0462C95.0122 48.187 94.9621 48.3228 94.8939 48.4497Z" fill="#263238"/>
<path d="M106.853 49.0247C106.853 49.061 106.286 48.9483 105.37 48.9556C104.836 48.9619 104.303 49.0142 103.778 49.1119C103.137 49.2364 102.509 49.4201 101.903 49.6608C101.299 49.9117 100.721 50.2196 100.176 50.5804C99.7328 50.879 99.3157 51.2146 98.9292 51.5837C98.2713 52.2161 97.9441 52.6741 97.915 52.6741C97.9712 52.5513 98.0434 52.4365 98.1295 52.3325C98.2173 52.2052 98.3132 52.0838 98.4167 51.969C98.5464 51.8066 98.686 51.6525 98.8347 51.5073C99.2144 51.117 99.6307 50.764 100.078 50.4532C101.177 49.6911 102.43 49.181 103.749 48.9592C104.284 48.8676 104.827 48.8287 105.37 48.8429C105.579 48.8419 105.788 48.8552 105.996 48.8829C106.152 48.8937 106.307 48.9156 106.461 48.9483C106.594 48.9564 106.726 48.9821 106.853 49.0247Z" fill="#263238"/>
<path d="M113.912 80.0557C113.947 80.1082 113.974 80.1658 113.992 80.2265C114.055 80.3987 114.107 80.5748 114.148 80.7536C114.29 81.4136 114.332 82.0913 114.272 82.7637C114.183 83.7626 113.919 84.7381 113.494 85.6462C112.975 86.7567 112.285 87.7795 111.451 88.6778C110.628 89.5896 109.634 90.3307 108.525 90.8587C107.615 91.2816 106.638 91.5435 105.639 91.633C104.97 91.688 104.299 91.7001 103.629 91.6693C103.393 91.6693 103.211 91.6693 103.087 91.6693C103.023 91.6779 102.958 91.6779 102.895 91.6693C102.955 91.6456 103.019 91.6309 103.084 91.6257C103.264 91.6039 103.447 91.593 103.629 91.593C104.295 91.5956 104.961 91.5629 105.624 91.4948C106.605 91.3888 107.561 91.1197 108.452 90.6988C109.535 90.1688 110.507 89.4358 111.313 88.5396C112.131 87.6525 112.813 86.6493 113.338 85.5626C113.762 84.6733 114.033 83.7182 114.137 82.7383C114.21 82.0783 114.189 81.4114 114.076 80.7572C114.045 80.5784 114.005 80.4013 113.956 80.2265C113.935 80.1713 113.92 80.114 113.912 80.0557Z" fill="#263238"/>
<g opacity="0.3">
<path d="M85.4708 64.6184C83.9269 65.1676 82.5152 66.0344 81.327 67.1628C78.3592 66.1497 75.2174 65.7464 72.09 65.9768C68.9626 66.2073 65.9139 67.0669 63.1268 68.5041C62.1526 69.0166 61.1966 69.5946 60.1316 69.8854C58.8048 70.2489 57.4054 70.0962 56.0386 70.0199C52.9453 69.8491 49.7974 70.0381 46.8531 70.9977C43.9088 71.9573 41.168 73.7057 39.416 76.2502C37.664 78.7947 36.9988 82.1715 38.0202 85.094L38.3837 85.6029C38.1147 82.4405 39.4742 79.3072 41.8151 76.73C44.156 74.1528 47.3475 71.8883 50.7934 71.4157C54.2393 70.9432 57.5471 71.6229 60.9712 72.259C67.9903 68.4278 76.1144 67.1301 83.8714 69.053C83.5583 68.2452 83.5477 67.3515 83.8416 66.5365C84.1355 65.7216 84.7141 65.0403 85.4708 64.6184Z" fill="black"/>
</g>
<g opacity="0.3">
<path d="M70.1742 80.2931C68.3623 81.5011 66.3076 82.2974 64.1548 82.6258C62.002 82.9543 59.8034 82.8069 57.7136 82.1942C51.6615 85.3166 49.8404 84.117 47.0342 83.1938C48.4227 84.8949 50.9963 85.8182 53.1881 85.9236C54.2889 85.9695 55.3872 85.7868 56.4139 85.387C57.4405 84.9872 58.3732 84.3791 59.1531 83.6009C62.1774 84.6914 65.5179 84.3279 68.7166 83.9644L76.7135 83.0084C79.6615 82.6449 82.6312 82.3032 85.4665 81.4126C88.3017 80.5221 91.017 79.0463 92.9436 76.7854C86.2407 81.3145 77.9785 82.4668 70.1742 80.2931Z" fill="black"/>
</g>
<g opacity="0.3">
<path d="M36.8364 61.3471C38.1195 61.7615 39.977 61.3871 41.162 60.7437C41.7534 60.4158 42.2733 59.9729 42.691 59.4411C43.1086 58.9092 43.4156 58.2991 43.5937 57.6467C43.6364 57.288 43.7916 56.952 44.0372 56.6871C44.3679 56.4994 44.7506 56.4241 45.1277 56.4726C45.7563 56.4587 46.374 56.3058 46.9365 56.0249C47.499 55.744 47.9924 55.3421 48.3812 54.848C48.77 54.3539 49.0446 53.7799 49.1854 53.1671C49.3261 52.5543 49.3295 51.9179 49.1952 51.3037C48.1229 54.168 44.677 55.9019 41.7363 55.0513C41.6381 57.5958 40.8821 60.5946 36.8291 61.3471" fill="black"/>
</g>
<g opacity="0.3">
<path d="M60.7236 41.9685C59.5615 40.3988 57.9981 39.171 56.1975 38.4143C54.397 37.6577 52.4258 37.4 50.4912 37.6684C48.5158 37.9464 46.6234 38.6468 44.943 39.7219C43.2626 40.797 41.8336 42.2216 40.7532 43.8987C38.738 43.9065 36.7434 44.304 34.8792 45.0691C33.0062 45.8456 31.4456 47.2245 30.4445 48.9876C29.6278 50.4599 29.1954 52.1143 29.1871 53.7979C29.1789 55.4815 29.5951 57.14 30.3973 58.6202C29.8084 54.9598 30.5645 51.8956 32.5528 49.5329C34.5411 47.1701 38.714 45.2436 41.7965 45.3999C42.3084 44.166 43.1004 43.0681 44.1098 42.1931C45.1192 41.3181 46.3183 40.6899 47.6124 40.3582C50.3475 39.555 53.2558 39.555 55.9909 40.3582C58.6481 41.2052 62.4393 45.2218 62.443 45.8107C62.5811 44.5239 61.9559 43.6479 60.7236 41.9685Z" fill="black"/>
</g>
<g opacity="0.3">
<path d="M88.457 37.0552C83.5789 36.3282 78.5809 39.0108 75.7347 43.0456C72.8885 47.0804 72.5614 51.704 72.9358 56.6258C72.9358 56.6258 74.7533 48.2872 77.6867 44.3542C81.2744 39.567 87.2829 36.3355 88.457 37.0552Z" fill="black"/>
</g>
<g opacity="0.3">
<path d="M84.4691 50.4416C85.0011 51.6631 85.1872 53.0073 85.007 54.3274C87.5333 54.3274 89.8452 55.9522 91.2155 58.075C90.2107 57.0663 88.97 56.3242 87.606 55.9158C86.2538 55.5087 85.0325 55.3015 83.793 55.7123C84.0983 53.8221 84.5927 52.0119 84.4218 50.3107" fill="black"/>
</g>
<g opacity="0.3">
<path d="M118.053 71.3609C117.453 69.4913 116.162 67.921 114.444 66.9699C117.156 70.9466 116.734 76.2318 113.913 80.0557C114.76 83.0437 114.117 86.7622 109.159 90.4371C112.136 89.9392 115.364 86.7041 115.749 83.7089C115.905 82.4621 115.749 81.1644 116.112 79.9685C116.432 78.9107 117.141 78.0202 117.628 77.0315C118.488 75.2647 118.64 73.2362 118.053 71.3609Z" fill="black"/>
</g>
<g opacity="0.3">
<path d="M20.1797 61.2306C20.1797 61.2778 20.2051 61.3215 20.216 61.3687C20.216 61.2924 20.2451 61.2197 20.2669 61.1434L20.1797 61.2306Z" fill="black"/>
</g>
<g opacity="0.3">
<path d="M25.2736 74.1494C24.7121 73.3888 24.29 72.5347 24.0268 71.6268C23.507 69.4458 24.6084 67.2648 25.6734 65.3129C23.129 65.5709 20.948 64.2878 20.221 61.3689C19.7921 63.3609 20.341 65.7091 21.9803 66.8977C21.6198 68.4103 21.5771 69.9813 21.8551 71.5112C22.133 73.0411 22.7255 74.4967 23.5951 75.7858C24.4646 77.075 25.5923 78.1695 26.9067 79.0003C28.2212 79.8311 29.6937 80.3801 31.2313 80.6124C28.9321 78.7694 26.9237 76.5907 25.2736 74.1494Z" fill="black"/>
</g>
<path d="M79.1983 97.1477C78.9003 97.6747 75.1745 100.808 76.3922 104.665C77.977 109.681 85.5595 109.852 91.5245 108.692C100.288 106.987 104.443 103.24 104.443 98.2272C104.443 94.1888 79.1983 97.1477 79.1983 97.1477Z" fill="#EEBABA"/>
<path d="M104.443 98.2272C104.344 98.2231 104.245 98.2097 104.148 98.1872L103.312 98.0345C102.949 97.9618 102.509 97.8891 101.993 97.8092C101.477 97.7292 100.902 97.6347 100.237 97.5584C98.9322 97.3766 97.3728 97.2421 95.6353 97.1258C93.8978 97.0095 92.0003 96.9659 89.9829 96.9586C85.9663 96.9586 82.3314 97.1512 79.7033 97.2966L76.5882 97.4784L75.7412 97.5256C75.6433 97.5352 75.5447 97.5352 75.4468 97.5256C75.5442 97.5072 75.6424 97.4938 75.7412 97.4857L76.5845 97.4057C77.3115 97.3403 78.3802 97.2567 79.6924 97.1621C82.3205 96.984 85.959 96.7659 89.9829 96.7696C91.9931 96.7696 93.9087 96.835 95.6462 96.9513C97.3837 97.0676 98.9503 97.2276 100.255 97.4239C100.906 97.5111 101.495 97.6092 102.011 97.7074C102.527 97.8055 102.971 97.8782 103.327 97.9618L104.156 98.1509C104.253 98.1678 104.349 98.1933 104.443 98.2272Z" fill="#263238"/>
<g opacity="0.3">
<path d="M104.441 98.3032C95.5757 96.1223 86.2448 97.0165 77.1211 97.4418C86.7682 98.3323 95.9792 98.3469 104.441 98.3032Z" fill="black"/>
</g>
<g opacity="0.3">
<path d="M65.6795 88.7257C64.1419 89.1764 61.3176 90.0306 59.9436 90.5431C59.7328 91.6954 59.2711 92.6623 58.2533 93.2112C57.0632 93.7497 55.7463 93.9448 54.4512 93.7746C55.9815 94.069 57.57 94.3308 59.0821 93.9709C60.5942 93.611 62.0337 92.4733 62.2663 90.9357C70.964 87.9914 80.1537 86.7775 89.3176 87.3626C81.5352 85.7886 73.2984 86.4865 65.6795 88.7257Z" fill="black"/>
</g>
<g opacity="0.3">
<path d="M94.1862 55.9853L94.2589 55.9453C95.2538 55.3587 96.0196 54.4512 96.4305 53.3718C96.8414 52.2925 96.8729 51.1054 96.5198 50.0058C96.3572 49.6547 96.2493 49.2808 96.1999 48.8971C96.2184 48.5022 96.2968 48.1125 96.4326 47.7412C96.6964 46.6226 96.5672 45.4474 96.0668 44.4128C95.5664 43.3782 94.7252 42.5474 93.6846 42.0598C94.1898 42.6414 95.8001 44.9932 94.7751 48.8862C94.7751 48.8862 96.04 51.1508 95.5348 53.1136" fill="black"/>
</g>
<g opacity="0.3">
<path d="M57.2797 63.7198C58.3702 62.6875 58.4065 60.5247 58.0067 59.0708C57.6068 57.6168 56.6436 56.3809 55.6258 55.2686C56.1571 54.8744 56.5997 54.373 56.9249 53.7968C57.2501 53.2207 57.4508 52.5827 57.5138 51.9241C57.5769 51.2656 57.5009 50.6011 57.2909 49.9737C57.0809 49.3464 56.7415 48.7701 56.2946 48.2822C56.1347 49.529 56.1238 51.0775 55.5676 52.208C55.1038 53.2422 54.2958 54.0836 53.2812 54.5889C56.1347 56.0138 57.476 60.074 57.3706 62.7239L57.2797 63.7198Z" fill="black"/>
</g>
<path d="M105.388 82.0082C105.529 81.3485 105.55 80.6688 105.45 80.0017C105.322 79.284 105.054 78.5984 104.661 77.9843C104.169 77.2394 103.534 76.5994 102.793 76.1014C102.048 75.6051 101.242 75.2091 100.394 74.9237C99.6998 74.6843 98.9906 74.4924 98.2708 74.3494C97.6528 74.2294 97.1512 74.1567 96.8168 74.1022C96.6351 74.0803 96.4553 74.0451 96.2788 73.9968C96.4623 73.9878 96.6462 73.9976 96.8277 74.0258C97.1912 74.0622 97.6855 74.1131 98.3071 74.2185C99.0388 74.3417 99.7596 74.5228 100.463 74.7601C101.332 75.0387 102.158 75.4376 102.916 75.9451C103.678 76.4586 104.327 77.1215 104.825 77.8934C105.222 78.5299 105.484 79.2413 105.595 79.9835C105.671 80.4821 105.66 80.99 105.562 81.4848C105.537 81.618 105.502 81.7492 105.457 81.8773C105.439 81.9236 105.416 81.9675 105.388 82.0082Z" fill="#263238"/>
<g opacity="0.3">
<path d="M100.801 72.4268C101.559 70.488 101.871 68.4032 101.713 66.3273C100.382 69.2349 98.519 71.8681 96.2207 74.0916C99.1723 74.2624 102.182 75.3675 104.294 77.4357C104.253 76.3538 103.902 75.3063 103.283 74.4181C102.664 73.53 101.802 72.8388 100.801 72.4268Z" fill="black"/>
</g>
<path d="M12.5694 95.7806C8.75629 95.7806 6.46264 95.1663 6.05553 93.8759C5.10681 90.877 14.1651 85.8281 21.9293 82.1204L22.0856 82.4512C11.4498 87.5401 5.72838 91.6513 6.40085 93.7668C7.85483 98.3432 38.0249 93.0689 72.2988 82.2513C106.573 71.4337 134.318 58.4388 132.875 53.8587C132.199 51.7286 125.042 51.6487 113.246 53.6443L113.185 53.2808C121.803 51.8268 132.275 50.7363 133.231 53.746C134.787 58.675 108.074 71.3464 72.4188 82.5966C46.0909 90.9061 23.3143 95.7769 12.5694 95.7806Z" fill="#EEBABA"/>
<g opacity="0.6">
<path d="M12.5684 95.781C8.75533 95.781 6.46167 95.1666 6.05456 93.8762C5.10947 90.8883 14.1641 85.8357 21.9284 82.1208L22.0847 82.4516C11.4525 87.5405 5.72741 91.6626 6.39988 93.7672C7.85386 98.3436 38.0239 93.0693 72.2978 82.2517C106.572 71.4341 134.317 58.4391 132.874 53.8591C132.202 51.7327 125.041 51.6563 113.246 53.6446L113.184 53.2811C121.806 51.8272 132.278 50.7367 133.23 53.7464C134.786 58.6754 108.073 71.3468 72.4178 82.597C46.0899 90.9065 23.3133 95.7773 12.5684 95.781Z" fill="black"/>
</g>
<path d="M53.7825 115.465C53.7825 115.732 53.7031 115.994 53.5544 116.216C53.4056 116.439 53.1942 116.612 52.9469 116.714C52.6996 116.816 52.4276 116.843 52.1652 116.79C51.9028 116.738 51.6618 116.609 51.4729 116.419C51.2839 116.23 51.1554 115.989 51.1037 115.726C51.0519 115.464 51.0792 115.192 51.1821 114.945C51.285 114.697 51.4589 114.487 51.6817 114.338C51.9046 114.19 52.1664 114.112 52.434 114.112C52.6114 114.112 52.787 114.147 52.9509 114.215C53.1147 114.283 53.2636 114.383 53.3888 114.509C53.5141 114.634 53.6134 114.783 53.6809 114.947C53.7485 115.111 53.783 115.287 53.7825 115.465Z" fill="#EEBABA"/>
<path d="M114.53 101.547C114.53 101.814 114.45 102.076 114.301 102.298C114.153 102.521 113.941 102.694 113.694 102.796C113.447 102.898 113.175 102.925 112.912 102.872C112.65 102.82 112.409 102.691 112.22 102.501C112.031 102.312 111.902 102.071 111.851 101.808C111.799 101.546 111.826 101.274 111.929 101.027C112.032 100.78 112.206 100.569 112.429 100.42C112.652 100.272 112.913 100.194 113.181 100.194C113.358 100.194 113.534 100.229 113.698 100.297C113.862 100.365 114.011 100.465 114.136 100.591C114.261 100.716 114.36 100.865 114.428 101.029C114.496 101.193 114.53 101.369 114.53 101.547Z" fill="#EEBABA"/>
<path d="M113.778 38.5124C113.778 38.6892 113.725 38.8621 113.627 39.0092C113.529 39.1562 113.389 39.2708 113.226 39.3385C113.062 39.4062 112.882 39.4239 112.709 39.3894C112.536 39.3549 112.376 39.2697 112.251 39.1447C112.126 39.0196 112.041 38.8603 112.006 38.6868C111.972 38.5134 111.99 38.3336 112.057 38.1702C112.125 38.0068 112.24 37.8671 112.387 37.7689C112.534 37.6706 112.707 37.6182 112.883 37.6182C113.121 37.6182 113.348 37.7124 113.516 37.8801C113.683 38.0478 113.778 38.2752 113.778 38.5124Z" fill="#EEBABA"/>
<path d="M110.216 112.872C110.963 112.872 111.568 112.267 111.568 111.52C111.568 110.773 110.963 110.168 110.216 110.168C109.469 110.168 108.864 110.773 108.864 111.52C108.864 112.267 109.469 112.872 110.216 112.872Z" fill="#EEBABA"/>
<path d="M61.2047 116.413C61.2047 116.864 61.071 117.305 60.8206 117.68C60.5702 118.054 60.2142 118.346 59.7978 118.519C59.3813 118.691 58.9231 118.737 58.481 118.649C58.0389 118.561 57.6328 118.344 57.314 118.025C56.9953 117.706 56.7782 117.3 56.6903 116.858C56.6023 116.416 56.6475 115.958 56.82 115.541C56.9925 115.125 57.2846 114.769 57.6594 114.518C58.0342 114.268 58.4748 114.134 58.9256 114.134C59.5301 114.134 60.1098 114.374 60.5372 114.802C60.9646 115.229 61.2047 115.809 61.2047 116.413Z" fill="#EEBABA"/>
<path d="M130.437 106.144C130.437 106.595 130.303 107.036 130.053 107.411C129.802 107.785 129.446 108.077 129.03 108.25C128.613 108.422 128.155 108.468 127.713 108.38C127.271 108.292 126.865 108.075 126.546 107.756C126.227 107.437 126.01 107.031 125.922 106.589C125.834 106.147 125.879 105.689 126.052 105.272C126.224 104.856 126.517 104.5 126.891 104.249C127.266 103.999 127.707 103.865 128.158 103.865C128.762 103.865 129.342 104.105 129.769 104.533C130.197 104.96 130.437 105.54 130.437 106.144Z" fill="#EEBABA"/>
<path d="M107.27 39.4248C108.102 39.4248 108.775 38.751 108.775 37.9199C108.775 37.0888 108.102 36.415 107.27 36.415C106.439 36.415 105.766 37.0888 105.766 37.9199C105.766 38.751 106.439 39.4248 107.27 39.4248Z" fill="#EEBABA"/>
<path d="M72.0225 25.6124C72.0225 26.0393 71.8957 26.4567 71.6582 26.8114C71.4207 27.1662 71.0832 27.4425 70.6884 27.6052C70.2937 27.7679 69.8596 27.8097 69.4411 27.7254C69.0225 27.641 68.6385 27.4343 68.3376 27.1314C68.0367 26.8285 67.8326 26.443 67.7511 26.0239C67.6696 25.6049 67.7143 25.171 67.8797 24.7774C68.0451 24.3838 68.3236 24.0482 68.68 23.8131C69.0364 23.578 69.4546 23.454 69.8815 23.4569C70.4504 23.4617 70.9943 23.6908 71.3952 24.0944C71.7961 24.498 72.0215 25.0435 72.0225 25.6124Z" fill="#EEBABA"/>
<path d="M8.00779 77.6754C9.01959 77.6754 9.83981 76.8551 9.83981 75.8433C9.83981 74.8315 9.01959 74.0113 8.00779 74.0113C6.996 74.0113 6.17578 74.8315 6.17578 75.8433C6.17578 76.8551 6.996 77.6754 8.00779 77.6754Z" fill="#EEBABA"/>
<path d="M42.2886 20.0211C43.3004 20.0211 44.1206 19.2008 44.1206 18.189C44.1206 17.1773 43.3004 16.357 42.2886 16.357C41.2768 16.357 40.4565 17.1773 40.4565 18.189C40.4565 19.2008 41.2768 20.0211 42.2886 20.0211Z" fill="#EEBABA"/>
<path d="M63.5205 25.4519C63.5205 25.6978 63.4476 25.9382 63.311 26.1426C63.1744 26.347 62.9802 26.5064 62.7531 26.6005C62.5259 26.6946 62.276 26.7192 62.0348 26.6712C61.7937 26.6232 61.5721 26.5048 61.3983 26.331C61.2244 26.1571 61.106 25.9356 61.0581 25.6945C61.0101 25.4533 61.0347 25.2034 61.1288 24.9762C61.2229 24.749 61.3822 24.5549 61.5867 24.4183C61.7911 24.2817 62.0315 24.2088 62.2773 24.2088C62.4406 24.2088 62.6022 24.2409 62.7531 24.3034C62.9039 24.3659 63.0409 24.4575 63.1564 24.5729C63.2718 24.6883 63.3634 24.8254 63.4259 24.9762C63.4883 25.127 63.5205 25.2887 63.5205 25.4519Z" fill="#EEBABA"/>
<path d="M87.3584 27.135C87.3584 27.3808 87.2855 27.6212 87.1489 27.8256C87.0123 28.03 86.8181 28.1894 86.591 28.2835C86.3638 28.3776 86.1138 28.4022 85.8727 28.3542C85.6315 28.3062 85.41 28.1878 85.2362 28.014C85.0623 27.8401 84.9439 27.6186 84.896 27.3775C84.848 27.1363 84.8726 26.8864 84.9667 26.6592C85.0608 26.4321 85.2201 26.2379 85.4246 26.1013C85.629 25.9647 85.8693 25.8918 86.1152 25.8918C86.4449 25.8918 86.7611 26.0228 86.9943 26.2559C87.2274 26.489 87.3584 26.8052 87.3584 27.135Z" fill="#EEBABA"/>
<path d="M39.5342 23.4558C39.5342 23.7017 39.4612 23.9421 39.3246 24.1465C39.188 24.3509 38.9939 24.5103 38.7667 24.6044C38.5396 24.6985 38.2896 24.7231 38.0485 24.6751C37.8073 24.6271 37.5858 24.5087 37.412 24.3349C37.2381 24.161 37.1197 23.9395 37.0717 23.6984C37.0238 23.4572 37.0484 23.2073 37.1425 22.9801C37.2366 22.753 37.3959 22.5588 37.6003 22.4222C37.8048 22.2856 38.0451 22.2127 38.291 22.2127C38.6207 22.2127 38.9369 22.3437 39.17 22.5768C39.4032 22.8099 39.5342 23.1261 39.5342 23.4558Z" fill="#EEBABA"/>
<path d="M70.4883 19.807C70.4875 19.9304 70.45 20.0508 70.3806 20.1528C70.3112 20.2548 70.213 20.3339 70.0986 20.3799C69.9841 20.426 69.8585 20.4369 69.7378 20.4113C69.6171 20.3857 69.5067 20.3247 69.4207 20.2362C69.3348 20.1477 69.2771 20.0356 69.2551 19.9142C69.2331 19.7927 69.2477 19.6675 69.2971 19.5544C69.3464 19.4414 69.4284 19.3455 69.5324 19.2792C69.6364 19.2128 69.7579 19.1789 69.8812 19.1818C70.0442 19.1856 70.1991 19.2533 70.3126 19.3702C70.4262 19.4872 70.4893 19.644 70.4883 19.807Z" fill="#EEBABA"/>
<path d="M57.563 13.2899C57.563 13.4129 57.5265 13.533 57.4582 13.6353C57.3899 13.7375 57.2928 13.8171 57.1793 13.8642C57.0657 13.9112 56.9407 13.9235 56.8201 13.8996C56.6996 13.8756 56.5888 13.8164 56.5019 13.7295C56.415 13.6425 56.3558 13.5318 56.3318 13.4112C56.3078 13.2906 56.3201 13.1656 56.3671 13.0521C56.4142 12.9385 56.4939 12.8414 56.5961 12.7731C56.6983 12.7048 56.8185 12.6684 56.9414 12.6684C57.1062 12.6684 57.2644 12.7338 57.3809 12.8504C57.4975 12.967 57.563 13.1251 57.563 13.2899Z" fill="#EEBABA"/>
<path d="M47.3637 26.6952C47.3637 26.8182 47.3273 26.9383 47.259 27.0405C47.1907 27.1428 47.0936 27.2224 46.98 27.2695C46.8665 27.3165 46.7415 27.3288 46.6209 27.3048C46.5003 27.2809 46.3896 27.2217 46.3027 27.1347C46.2157 27.0478 46.1565 26.9371 46.1326 26.8165C46.1086 26.6959 46.1209 26.5709 46.1679 26.4573C46.215 26.3438 46.2946 26.2467 46.3969 26.1784C46.4991 26.1101 46.6192 26.0736 46.7422 26.0736C46.907 26.0736 47.0651 26.1391 47.1817 26.2557C47.2983 26.3723 47.3637 26.5304 47.3637 26.6952Z" fill="#EEBABA"/>
<path d="M130.437 72.4997C131.065 72.4997 131.574 71.9903 131.574 71.362C131.574 70.7336 131.065 70.2242 130.437 70.2242C129.808 70.2242 129.299 70.7336 129.299 71.362C129.299 71.9903 129.808 72.4997 130.437 72.4997Z" fill="#EEBABA"/>
<path d="M127.11 76.635C127.11 76.9026 127.031 77.1642 126.882 77.3866C126.733 77.6091 126.522 77.7824 126.275 77.8846C126.027 77.9869 125.755 78.0134 125.493 77.961C125.23 77.9085 124.989 77.7793 124.801 77.5899C124.612 77.4004 124.483 77.1591 124.431 76.8966C124.38 76.634 124.407 76.362 124.51 76.115C124.613 75.868 124.787 75.6571 125.009 75.5089C125.232 75.3608 125.494 75.2821 125.762 75.2828C125.939 75.2828 126.115 75.3178 126.279 75.3858C126.442 75.4538 126.591 75.5535 126.716 75.6791C126.842 75.8047 126.941 75.9538 127.009 76.1178C127.076 76.2819 127.111 76.4576 127.11 76.635Z" fill="#EEBABA"/>
<path d="M124.646 66.5305C124.577 66.4413 124.536 66.3336 124.528 66.2209C124.52 66.1083 124.545 65.9958 124.601 65.8977C124.657 65.7996 124.741 65.7204 124.842 65.67C124.943 65.6196 125.057 65.6003 125.169 65.6145C125.281 65.6288 125.386 65.676 125.472 65.7501C125.557 65.8242 125.618 65.9219 125.648 66.0309C125.677 66.1399 125.674 66.2552 125.638 66.3622C125.602 66.4693 125.535 66.5633 125.446 66.6323C125.326 66.7247 125.175 66.7658 125.025 66.7468C124.875 66.7277 124.739 66.6499 124.646 66.5305Z" fill="#EEBABA"/>
<path d="M106.813 42.7219C107.066 42.7219 107.271 42.5168 107.271 42.2639C107.271 42.0109 107.066 41.8059 106.813 41.8059C106.56 41.8059 106.355 42.0109 106.355 42.2639C106.355 42.5168 106.56 42.7219 106.813 42.7219Z" fill="#EEBABA"/>
<path d="M118.928 99.8735C119.309 99.8735 119.619 99.5643 119.619 99.1828C119.619 98.8014 119.309 98.4922 118.928 98.4922C118.547 98.4922 118.237 98.8014 118.237 99.1828C118.237 99.5643 118.547 99.8735 118.928 99.8735Z" fill="#EEBABA"/>
<path d="M42.8741 104.312C43.9722 104.312 44.8624 103.422 44.8624 102.323C44.8624 101.225 43.9722 100.335 42.8741 100.335C41.7759 100.335 40.8857 101.225 40.8857 102.323C40.8857 103.422 41.7759 104.312 42.8741 104.312Z" fill="#EEBABA"/>
<path d="M40.1328 108.281C40.5484 108.281 40.8852 107.944 40.8852 107.528C40.8852 107.113 40.5484 106.776 40.1328 106.776C39.7172 106.776 39.3804 107.113 39.3804 107.528C39.3804 107.944 39.7172 108.281 40.1328 108.281Z" fill="#EEBABA"/>
</svg>
