<svg width="88" height="100" viewBox="0 0 88 100" fill="none" xmlns="http://www.w3.org/2000/svg">
<path d="M87.8493 25.8742C87.8493 25.8742 81.4365 72.3572 70.8857 82.8136C58.2287 95.403 49.0415 93.5331 43.9247 100C38.8146 93.5196 29.6274 95.3625 16.9569 82.8068C6.4061 72.364 0 25.8742 0 25.8742C27.7845 13.6763 43.9247 0 43.9247 0C44.4242 0.425273 60.4901 13.872 87.8493 25.8742Z" fill="#3780EF"/>
<path opacity="0.1" d="M43.9247 0.00674666V100C38.8146 93.5196 29.6274 95.3625 16.9569 82.8068C6.4061 72.364 0 25.8742 0 25.8742C27.7845 13.6763 43.9247 0 43.9247 0V0.00674666Z" fill="black"/>
<path d="M81.0519 29.6274C81.0519 29.6274 75.6516 68.8875 66.7277 77.7305C56.0216 88.3421 48.2586 86.7828 43.9384 92.2505C39.6182 86.7828 31.8552 88.3421 21.1491 77.7305C12.1982 68.8875 6.79785 29.6274 6.79785 29.6274C30.2689 19.3128 43.9249 7.75616 43.9249 7.75616C43.9249 7.75616 57.5606 19.3128 81.0519 29.6274Z" fill="#3780EF"/>
<path opacity="0.08" d="M81.0517 29.6274C81.0517 29.6274 75.6514 68.8875 66.7274 77.7305C56.0348 88.3354 48.2719 86.7895 43.9517 92.2371V7.76965C44.3432 8.12067 57.9249 19.4748 81.0517 29.6274Z" fill="black"/>
<path d="M47.4011 46.9016L50.837 63.2105H36.2495L39.6854 46.9016C38.3396 46.0634 37.3034 44.8097 36.7336 43.3301C36.1638 41.8506 36.0914 40.2258 36.5273 38.7014C36.9632 37.177 37.8837 35.8361 39.1496 34.8815C40.4154 33.9268 41.9578 33.4105 43.5432 33.4105C45.1287 33.4105 46.6711 33.9268 47.9369 34.8815C49.2028 35.8361 50.1233 37.177 50.5592 38.7014C50.9951 40.2258 50.9226 41.8506 50.3528 43.3301C49.783 44.8097 48.7469 46.0634 47.4011 46.9016Z" fill="#263238"/>
</svg>
