<svg width="186" height="100" viewBox="0 0 186 100" fill="none" xmlns="http://www.w3.org/2000/svg">
<path d="M134.64 23.5059C134.506 21.6259 134.856 19.7429 135.657 18.0366C136.011 17.3066 136.198 16.5065 136.204 15.695V13.6184H109.413C108.322 13.6184 107.277 14.0514 106.506 14.8223C105.735 15.5932 105.302 16.6387 105.302 17.7289V44.4091H103.49C102.653 44.4012 101.829 44.2024 101.08 43.828C99.4011 43.0194 97.5455 42.6463 95.6842 42.7429C93.8229 42.8396 92.0159 43.403 90.4295 44.3812C88.8431 45.3594 87.5283 46.721 86.6061 48.3407C85.6839 49.9603 85.184 51.7859 85.1525 53.6494C85.1209 55.5129 85.5587 57.3544 86.4254 59.0043C87.2922 60.6543 88.5602 62.0596 90.1125 63.091C91.6649 64.1224 93.4518 64.7467 95.3087 64.9064C97.1656 65.066 99.0329 64.756 100.739 64.0047C101.445 63.6835 102.21 63.5146 102.986 63.5091H105.336V89.5227C105.335 90.0632 105.441 90.5987 105.647 91.0984C105.853 91.5981 106.155 92.0522 106.537 92.4348C106.919 92.8174 107.372 93.121 107.872 93.3281C108.371 93.5352 108.906 93.6418 109.447 93.6418H181.822C182.71 93.6418 183.562 93.2889 184.19 92.6606C184.819 92.0324 185.172 91.1803 185.172 90.2918V16.9683C185.173 16.5281 185.087 16.092 184.919 15.685C184.751 15.2781 184.504 14.9083 184.193 14.597C183.882 14.2857 183.512 14.039 183.105 13.8711C182.698 13.7031 182.262 13.6172 181.822 13.6184H155.671V16.5838C155.669 17.2698 155.802 17.9495 156.064 18.5835C156.676 20.0743 156.957 21.6804 156.886 23.2904C156.815 24.9004 156.395 26.4758 155.655 27.9071C154.914 29.3385 153.871 30.5916 152.598 31.5796C151.325 32.5676 149.852 33.2667 148.281 33.6285C146.711 33.9903 145.081 34.0062 143.504 33.6749C141.926 33.3437 140.44 32.6733 139.148 31.7102C137.856 30.7472 136.789 29.5145 136.021 28.0978C135.253 26.6811 134.802 25.1142 134.7 23.5059H134.64Z" fill="#49CD7E"/>
<path d="M70.1359 49.5025C72.0159 49.3687 73.8989 49.7188 75.6052 50.5195C76.3321 50.8742 77.1294 51.0611 77.9383 51.0664H80.0234V24.2751C80.0234 23.7346 79.9168 23.1994 79.7097 22.7001C79.5026 22.2008 79.1991 21.7473 78.8165 21.3655C78.4339 20.9837 77.9797 20.6811 77.48 20.475C76.9803 20.2689 76.4449 20.1634 75.9043 20.1646H49.2242V18.3528C49.2329 17.5131 49.4315 16.6863 49.8053 15.9344C50.8213 13.8511 51.1504 11.4994 50.7453 9.21731C50.2711 6.47403 48.7843 4.00878 46.579 2.30954C44.3738 0.610291 41.611 -0.199082 38.8375 0.0416276C36.064 0.282337 33.4819 1.55558 31.6024 3.60933C29.7229 5.66308 28.683 8.34764 28.6884 11.1316C28.6883 12.6714 29.0115 14.1941 29.637 15.6011C29.9534 16.3057 30.1221 17.0677 30.1327 17.8401V20.1646H4.11056C3.02037 20.1646 1.97483 20.5976 1.20395 21.3685C0.433073 22.1394 0 23.1849 0 24.2751V96.65C0 97.0899 0.0866441 97.5256 0.254996 97.932C0.423348 98.3384 0.670104 98.7077 0.981178 99.0188C1.29225 99.3299 1.66155 99.5766 2.06799 99.745C2.47443 99.9133 2.91005 100 3.34998 100H76.6735C77.5612 99.9977 78.412 99.6441 79.0398 99.0163C79.6675 98.3886 80.0212 97.5378 80.0234 96.65V70.4911H77.058C76.3723 70.492 75.6933 70.6255 75.0583 70.8842C73.7452 71.4202 72.3404 71.696 70.9221 71.6961C67.9756 71.8004 65.1085 70.7299 62.9513 68.7201C60.7941 66.7104 59.5236 63.926 59.4194 60.9796C59.3151 58.0331 60.3856 55.1659 62.3953 53.0088C64.4051 50.8516 67.1894 49.5811 70.1359 49.4769V49.5025Z" fill="#9CC3FF"/>
</svg>
