<svg width="105" height="100" viewBox="0 0 105 100" fill="none" xmlns="http://www.w3.org/2000/svg">
<path d="M101.205 85.5061L89.4006 96.9696C88.8192 97.5334 88.0411 97.8487 87.2312 97.8487C86.4212 97.8487 85.6432 97.5334 85.0617 96.9696L3.78501 19.2502C3.4875 18.9681 3.24877 18.6299 3.08258 18.2552C2.91639 17.8804 2.82604 17.4764 2.81672 17.0665C2.8074 16.6567 2.87932 16.249 3.02831 15.8671C3.17729 15.4851 3.40041 15.1364 3.6848 14.8411L16.0001 1.97474C16.2847 1.67526 16.626 1.43535 17.0041 1.26898C17.3823 1.1026 17.7898 1.01309 18.2028 1.00564C18.6159 0.998175 19.0264 1.07291 19.4103 1.22552C19.7942 1.37813 20.1439 1.60556 20.4392 1.89457L101.205 81.0569C101.499 81.3477 101.733 81.6941 101.893 82.076C102.052 82.4579 102.134 82.8676 102.134 83.2815C102.134 83.6954 102.052 84.1051 101.893 84.487C101.733 84.8689 101.499 85.2153 101.205 85.5061Z" fill="#EFBB37"/>
<path d="M25.5294 7.13527C24.5579 8.48513 23.4608 9.73995 22.2527 10.8829C21.164 12.1399 19.9521 13.2846 18.6353 14.3C19.5975 12.9457 20.6918 11.6904 21.902 10.5523C22.9955 9.29646 24.2105 8.15188 25.5294 7.13527Z" fill="#263238"/>
<path d="M38.4962 19.5807C37.5302 20.932 36.4363 22.1871 35.2295 23.3285C34.136 24.5843 32.9209 25.7289 31.6021 26.7455C32.5655 25.3891 33.6597 24.1306 34.8687 22.9878C35.9606 21.7334 37.1759 20.5919 38.4962 19.5807Z" fill="#263238"/>
<path d="M31.6924 12.7969C30.3376 14.5796 28.8468 16.2547 27.2332 17.8071C25.7458 19.4571 24.1381 20.9944 22.4233 22.4066C23.7853 20.6517 25.2758 19.0004 26.8825 17.4664C28.3752 15.7999 29.9824 14.2396 31.6924 12.7969Z" fill="#263238"/>
<path d="M44.9695 26.1042C43.5995 27.8586 42.106 29.5128 40.5003 31.0543C39.0071 32.6986 37.3998 34.2356 35.6904 35.6538C37.0506 33.8943 38.5412 32.2396 40.1496 30.7036C41.6402 29.0533 43.2512 27.5159 44.9695 26.1042Z" fill="#263238"/>
<path d="M51.0721 32.2067C50.1116 33.5653 49.0172 34.8242 47.8054 35.9644C46.7126 37.2144 45.5011 38.3554 44.188 39.3714C45.1502 38.0172 46.2445 36.7618 47.4547 35.6237C48.5463 34.3695 49.7578 33.2251 51.0721 32.2067Z" fill="#263238"/>
<path d="M57.6052 38.7401C56.2343 40.4905 54.7408 42.1414 53.136 43.6802C51.6519 45.3333 50.0439 46.8709 48.3262 48.2797C49.6916 46.5277 51.1819 44.8766 52.7853 43.3395C54.2743 41.6876 55.8854 40.1501 57.6052 38.7401Z" fill="#263238"/>
<path d="M63.7076 44.8627C62.7379 46.211 61.6443 47.4657 60.4409 48.6103C59.3474 49.8662 58.1323 51.0107 56.8135 52.0274C57.774 50.6687 58.8684 49.4098 60.0802 48.2697C61.172 47.0152 62.3873 45.8738 63.7076 44.8627Z" fill="#263238"/>
<path d="M70.2309 51.366C68.8655 53.118 67.3753 54.7691 65.7718 56.3062C64.2802 57.9551 62.6728 59.4955 60.9619 60.9156C62.3221 59.1561 63.8127 57.5014 65.4211 55.9655C66.9085 54.3155 68.5161 52.7782 70.2309 51.366Z" fill="#263238"/>
<path d="M76.3338 57.4685C75.3733 58.8272 74.2789 60.0861 73.0671 61.2262C71.9743 62.4762 70.7628 63.6172 69.4497 64.6333C70.412 63.279 71.5062 62.0236 72.7164 60.8855C73.808 59.6314 75.0196 58.4869 76.3338 57.4685Z" fill="#263238"/>
<path d="M82.8569 63.9919C81.4997 65.7539 80.0089 67.4088 78.3978 68.942C76.9136 70.5951 75.3057 72.1327 73.5879 73.5415C74.9533 71.7895 76.4436 70.1384 78.047 68.6013C79.5419 66.9555 81.149 65.4153 82.8569 63.9919Z" fill="#263238"/>
<path d="M88.9698 70.1045C87.9983 71.4543 86.9012 72.7091 85.6931 73.8521C84.6044 75.1091 83.3926 76.2538 82.0757 77.2692C83.0362 75.9105 84.1306 74.6516 85.3424 73.5114C86.4342 72.257 87.6495 71.1156 88.9698 70.1045Z" fill="#263238"/>
<path d="M60.8018 35.8943C61.0823 36.3853 72.1651 46.5261 72.1651 46.5261L79.3598 39.5117C79.3598 39.5117 91.6651 43.2895 99.5813 34.5916C104.211 29.4912 104.972 22.8976 104.922 18.8593C104.88 16.66 104.092 14.5401 102.688 12.847L91.3845 26.8758L80.1715 15.6628L91.9957 3.39763C91.9957 3.39763 90.7532 0.471633 89.3904 0.501695C85.2719 0.571839 77.3657 3.14714 71.3534 9.96111C64.2388 17.9776 67.9163 28.6093 67.9163 28.6093L60.8018 35.8943Z" fill="#263238"/>
<path d="M58.3066 33.5895L69.69 44.2614L77.3657 36.736C77.3657 36.736 89.671 40.5137 97.6173 31.8359C104.812 23.9397 102.628 12.4361 102.628 12.4361L89.3804 24.1201L78.1674 12.9071L89.9916 0.651968C86.286 -0.310248 82.3839 -0.205571 78.7352 0.953933C75.0864 2.11344 71.8397 4.28056 69.3693 7.20542C62.2547 15.2219 65.9223 25.8637 65.9223 25.8637L58.3066 33.5895Z" fill="#455A64"/>
<path d="M46.312 66.7777C46.0315 66.2766 34.9487 56.1358 34.9487 56.1358L27.754 63.1502C27.754 63.1502 14.2262 60.4647 7.5325 68.0703C2.42202 73.9223 0.137332 81.6582 0.357784 85.456C0.45799 87.1895 2.49216 87.5102 2.49216 87.5102L15.7293 75.8262L26.9423 87.0392L12.9937 97.2401C14.6662 98.8904 16.8895 99.8647 19.2365 99.9758C22.3562 100.129 25.4691 99.5597 28.3332 98.3137C31.1974 97.0676 33.7355 95.1777 35.7504 92.791C42.865 84.7746 39.1874 74.1327 39.1874 74.1327L46.312 66.7777Z" fill="#263238"/>
<path d="M44.1777 64.7134C43.8972 64.2224 32.8144 54.0816 32.8144 54.0816L25.6197 61.096C25.6197 61.096 12.0919 58.4004 5.40822 66.006C-2.09718 74.5235 0.397939 85.4158 0.397939 85.4158L13.6351 73.7218L24.818 84.9449L12.9938 97.21C16.7003 98.1723 20.6034 98.0667 24.2524 96.9053C27.9014 95.7439 31.1476 93.5742 33.6161 90.6466C40.7307 82.6301 37.0531 71.9983 37.0531 71.9983L44.1777 64.7134Z" fill="#455A64"/>
</svg>
