<svg width="90" height="140" viewBox="0 0 90 140" fill="none" xmlns="http://www.w3.org/2000/svg">
<path d="M54.2092 91.5896C54.1169 90.2919 54.3585 88.9922 54.9111 87.8144C55.1559 87.3105 55.2849 86.7583 55.2886 86.1982V84.7648H36.7962C36.0437 84.7648 35.322 85.0637 34.7899 85.5958C34.2579 86.1279 33.9589 86.8496 33.9589 87.6021V106.018H32.7084C32.1306 106.012 31.5617 105.875 31.045 105.617C29.8859 105.059 28.605 104.801 27.3203 104.868C26.0356 104.934 24.7883 105.323 23.6933 105.999C22.5983 106.674 21.6908 107.614 21.0543 108.732C20.4177 109.849 20.0727 111.11 20.0509 112.396C20.0291 113.682 20.3313 114.953 20.9296 116.092C21.5278 117.231 22.403 118.201 23.4745 118.913C24.546 119.625 25.7794 120.056 27.0612 120.166C28.3429 120.276 29.6317 120.062 30.809 119.544C31.2964 119.322 31.825 119.205 32.3604 119.201H33.9825V137.157C33.9818 137.53 34.0546 137.9 34.1968 138.245C34.339 138.59 34.5479 138.903 34.8115 139.167C35.075 139.431 35.388 139.641 35.7327 139.784C36.0773 139.927 36.4467 140 36.8198 140H86.7759C87.3892 140 87.9773 139.757 88.411 139.323C88.8446 138.889 89.0882 138.301 89.0882 137.688V87.0771C89.089 86.7732 89.0297 86.4722 88.9138 86.1913C88.7979 85.9104 88.6276 85.6552 88.4127 85.4403C88.1978 85.2254 87.9426 85.0551 87.6617 84.9392C87.3808 84.8233 87.0798 84.764 86.7759 84.7648H68.7259V86.8116C68.724 87.2851 68.8162 87.7543 68.9972 88.1919C69.4197 89.2209 69.6132 90.3295 69.5643 91.4408C69.5155 92.5521 69.2254 93.6395 68.7143 94.6275C68.2032 95.6154 67.4833 96.4804 66.6045 97.1624C65.7257 97.8443 64.709 98.3269 63.6251 98.5766C62.5411 98.8264 61.4158 98.8373 60.3272 98.6086C59.2386 98.38 58.2127 97.9173 57.3209 97.2525C56.429 96.5878 55.6924 95.737 55.1622 94.7591C54.632 93.7812 54.3209 92.6997 54.2505 91.5896H54.2092Z" fill="#3B7ADB"/>
<path d="M7.00056 35.0993C5.70335 35.1981 4.40244 34.963 3.22189 34.4164C2.71892 34.1741 2.16796 34.0478 1.60967 34.047L0.170401 34.0543L0.263713 52.5465C0.265592 52.9195 0.34104 53.2886 0.485733 53.6325C0.630426 53.9764 0.841522 54.2884 1.10694 54.5506C1.37236 54.8128 1.68688 55.0201 2.03251 55.1606C2.37814 55.3011 2.74809 55.372 3.12117 55.3693L21.5367 55.2764L21.543 56.5269C21.5399 57.1065 21.4057 57.6779 21.1503 58.1983C20.4563 59.6397 20.2373 61.2641 20.5249 62.8379C20.8617 64.7297 21.8966 66.4261 23.4246 67.5913C24.9526 68.7565 26.8624 69.3055 28.776 69.1297C30.6895 68.9539 32.4673 68.0661 33.7575 66.642C35.0476 65.2179 35.756 63.3613 35.7425 61.4397C35.7373 60.3769 35.5089 59.327 35.0722 58.3581C34.8514 57.8728 34.7323 57.3474 34.7223 56.8144L34.7142 55.2099L52.6755 55.1193C53.428 55.1155 54.1482 54.8129 54.6776 54.2782C55.207 53.7434 55.5023 53.0202 55.4985 52.2677L55.2464 2.31226C55.2448 2.00861 55.1835 1.70824 55.0659 1.42829C54.9483 1.14834 54.7767 0.894301 54.5609 0.680666C54.3451 0.467038 54.0893 0.298 53.8082 0.183214C53.5271 0.0684274 53.2261 0.0101309 52.9225 0.0116632L2.31223 0.267044C1.69946 0.271693 1.11347 0.51877 0.68236 0.954255C0.251252 1.38973 0.0101002 1.9782 0.0116359 2.59098L0.102746 20.6467L2.14957 20.6363C2.62285 20.6334 3.09109 20.5389 3.52848 20.358C4.43297 19.9835 5.40163 19.7883 6.38059 19.7833C8.41397 19.701 10.3967 20.4299 11.8927 21.8096C13.3886 23.1893 14.2752 25.1067 14.3575 27.1401C14.4397 29.1735 13.7108 31.1562 12.3311 32.6522C10.9514 34.1481 9.03403 35.0347 7.00065 35.117L7.00056 35.0993Z" fill="#A3C7FF"/>
</svg>
