<svg width="347" height="321" viewBox="0 0 347 321" fill="none" xmlns="http://www.w3.org/2000/svg">
<path d="M346.779 320.445C346.779 320.534 284.406 320.611 207.487 320.611C130.569 320.611 68.1895 320.509 68.1895 320.445C68.1895 320.381 130.543 320.278 207.487 320.278C284.431 320.278 346.779 320.349 346.779 320.445Z" fill="black"/>
<path d="M291.127 133.493L299.162 132.211C304.429 136.46 311.095 138.586 317.849 138.17C324.603 137.754 330.958 134.826 335.663 129.963C340.368 125.099 343.084 118.651 343.276 111.887C343.469 105.123 341.124 98.5309 336.702 93.4078C332.281 88.2847 326.103 85.0007 319.384 84.2015C312.664 83.4023 305.888 85.1456 300.389 89.0888C294.889 93.032 291.063 98.8898 289.664 105.511C288.264 112.131 289.392 119.036 292.825 124.868L291.127 133.493Z" fill="white"/>
<path d="M291.128 133.492C291.128 133.492 291.128 133.313 291.217 132.948L291.525 131.307C291.8 129.834 292.211 127.674 292.742 124.855C292.744 124.846 292.747 124.837 292.752 124.829C292.757 124.821 292.764 124.815 292.772 124.81C292.78 124.805 292.789 124.802 292.798 124.801C292.807 124.8 292.817 124.801 292.826 124.804C292.832 124.8 292.838 124.798 292.845 124.798C292.852 124.798 292.858 124.8 292.864 124.804L292.749 124.893C290.456 121.023 289.159 116.643 288.975 112.148C288.918 110.749 288.971 109.348 289.135 107.958C289.325 106.469 289.629 104.997 290.045 103.556C291.558 98.3278 294.606 93.6749 298.795 90.1995C302.983 86.7241 308.118 84.5864 313.535 84.0632C317.786 83.662 322.071 84.2694 326.042 85.836C330.014 87.4026 333.56 89.8841 336.392 93.0788L337.481 94.3604C337.821 94.8089 338.122 95.2767 338.455 95.7252C339.088 96.6371 339.664 97.5873 340.179 98.5703C340.461 99.0445 340.64 99.5699 340.877 100.063C341.114 100.557 341.358 101.05 341.518 101.576C341.898 102.593 342.212 103.633 342.46 104.69C343.446 108.797 343.479 113.076 342.556 117.198C341.32 122.558 338.487 127.417 334.432 131.133C330.376 134.849 325.288 137.247 319.841 138.01C318.344 138.213 316.834 138.301 315.323 138.273C313.921 138.206 312.524 138.056 311.139 137.824C306.73 137.003 302.598 135.091 299.118 132.262H299.176L293.165 133.166L291.634 133.39L291.128 133.46L291.659 133.364L293.204 133.108L299.15 132.121H299.208C302.684 134.903 306.797 136.777 311.177 137.574C312.551 137.803 313.938 137.946 315.33 138.004C316.83 138.028 318.329 137.936 319.815 137.728C325.197 136.949 330.218 134.563 334.22 130.881C338.222 127.199 341.018 122.394 342.242 117.095C343.147 113.02 343.11 108.793 342.133 104.735C341.882 103.692 341.572 102.666 341.204 101.659C341.044 101.14 340.775 100.666 340.563 100.166C340.352 99.666 340.147 99.1598 339.871 98.692C339.364 97.721 338.794 96.7835 338.167 95.8854C337.846 95.4369 337.526 94.9755 337.206 94.5334L336.129 93.2519C333.332 90.096 329.83 87.6433 325.908 86.0926C321.986 84.5418 317.754 83.9366 313.555 84.3259C309.837 84.6932 306.236 85.8276 302.979 87.6573C299.722 89.4871 296.88 91.9724 294.633 94.9563C292.674 97.5667 291.21 100.514 290.314 103.652C289.9 105.079 289.594 106.536 289.398 108.009C289.228 109.388 289.168 110.779 289.218 112.168C289.375 116.631 290.632 120.987 292.877 124.848C292.889 124.861 292.896 124.879 292.896 124.896C292.896 124.914 292.889 124.931 292.877 124.945C292.864 124.955 292.848 124.961 292.832 124.961C292.816 124.961 292.8 124.955 292.787 124.945L292.903 124.906C292.339 127.693 291.903 129.834 291.621 131.314C291.474 132.038 291.358 132.595 291.281 132.967C291.205 133.339 291.128 133.492 291.128 133.492Z" fill="#263238"/>
<path d="M324.378 111.924C324.376 111.38 324.537 110.847 324.838 110.394C325.14 109.941 325.569 109.588 326.072 109.379C326.574 109.17 327.127 109.115 327.661 109.221C328.195 109.327 328.686 109.589 329.07 109.974C329.455 110.359 329.717 110.849 329.823 111.383C329.929 111.917 329.874 112.47 329.665 112.973C329.456 113.475 329.103 113.904 328.65 114.206C328.197 114.507 327.664 114.668 327.12 114.667C326.393 114.665 325.697 114.375 325.183 113.861C324.669 113.347 324.379 112.651 324.378 111.924Z" fill="#263238"/>
<path d="M313.381 111.924C313.38 111.38 313.54 110.848 313.842 110.395C314.143 109.942 314.572 109.589 315.074 109.38C315.576 109.171 316.129 109.115 316.663 109.221C317.196 109.326 317.687 109.587 318.072 109.972C318.457 110.356 318.719 110.846 318.826 111.379C318.932 111.912 318.878 112.465 318.671 112.968C318.463 113.471 318.11 113.9 317.658 114.203C317.206 114.505 316.674 114.667 316.13 114.667C315.402 114.667 314.704 114.378 314.189 113.864C313.673 113.35 313.383 112.652 313.381 111.924Z" fill="#263238"/>
<path d="M302.418 113.295C302.146 112.825 302.02 112.284 302.055 111.741C302.091 111.199 302.287 110.679 302.618 110.247C302.948 109.816 303.4 109.493 303.915 109.318C304.43 109.143 304.985 109.125 305.51 109.266C306.035 109.406 306.507 109.7 306.865 110.108C307.224 110.517 307.453 111.023 307.524 111.562C307.595 112.101 307.504 112.649 307.264 113.137C307.023 113.624 306.644 114.03 306.173 114.301C305.541 114.664 304.791 114.762 304.088 114.574C303.384 114.385 302.784 113.925 302.418 113.295Z" fill="#263238"/>
<path d="M110.441 210.296C108.756 209.495 105.917 207.822 104.162 207.169C102.426 206.426 100.49 206.295 98.6703 206.797C97.6386 207.143 96.607 207.97 96.6006 209.059L103.489 214.14L110.441 212.308V210.296Z" fill="#FF9A6C"/>
<path d="M102.906 210.225C102.906 210.225 90.5326 207.54 88.4693 206.483C86.406 205.425 75.6538 200.043 73.8532 200.043C72.0526 200.043 70.5148 200.53 70.188 202.324L72.5396 204.15L72.8408 205.086L76.8649 207.181L77.5761 208.501L87.8285 213.973C87.8285 213.973 98.5807 219.433 100.375 219.74C102.169 220.048 111.127 220.798 114.959 224.059L130.337 217.741C130.337 217.741 125.897 211.436 122.475 209.879C119.425 208.495 114.305 208.495 110.723 209.962L102.906 210.225Z" fill="#FFBF9D"/>
<path d="M113.197 220.548C113.197 220.548 132.772 263.236 135.925 271.81C135.925 271.81 157.807 268.209 158.557 256.066L130.363 217.62L113.197 220.548Z" fill="#FFBF9D"/>
<path d="M95.0182 211.193C95.0182 211.193 94.9413 211.193 94.8067 211.193C94.6065 211.173 94.409 211.132 94.2172 211.071C93.5154 210.857 92.8336 210.583 92.1795 210.251C91.3465 209.847 90.379 209.315 89.3153 208.719C88.7834 208.425 88.226 208.111 87.6429 207.809C87.0598 207.508 86.4254 207.246 85.7782 206.964C84.5799 206.421 83.3417 205.971 82.0745 205.618C80.9147 205.33 79.7998 205.112 78.9604 205.394C78.6348 205.524 78.3394 205.72 78.0925 205.969C77.8456 206.218 77.6525 206.515 77.525 206.842C77.4304 207.092 77.3213 207.335 77.1982 207.572C77.1982 207.572 77.1982 207.495 77.2303 207.367C77.2731 207.171 77.331 206.978 77.4033 206.791C77.5165 206.492 77.6695 206.209 77.8582 205.951C78.1076 205.598 78.4552 205.326 78.8578 205.169C79.3546 205.003 79.8823 204.95 80.4021 205.016C80.9834 205.073 81.5595 205.174 82.1258 205.317C83.42 205.658 84.6844 206.104 85.9064 206.65C86.5471 206.932 87.1879 207.194 87.7838 207.508C88.3797 207.822 88.9308 208.149 89.4627 208.45C90.5199 209.059 91.4683 209.61 92.2821 210.033C92.9126 210.377 93.5655 210.679 94.2364 210.936C94.7362 211.122 95.0182 211.161 95.0182 211.193Z" fill="#FF9A6C"/>
<path d="M83.215 205.054C82.6117 204.932 82.0276 204.73 81.4785 204.452C80.1569 203.828 78.798 203.287 77.4096 202.831C76.6498 202.615 75.8559 202.548 75.0707 202.632C74.7575 202.641 74.4494 202.715 74.1652 202.847C73.881 202.979 73.6266 203.167 73.4175 203.401C73.1669 203.748 73.0022 204.15 72.937 204.574C72.9311 204.738 72.8987 204.9 72.8408 205.054C72.8109 204.891 72.8109 204.724 72.8408 204.561C72.8648 204.103 73.0108 203.661 73.2638 203.279C73.4599 203.012 73.714 202.793 74.007 202.638C74.3422 202.479 74.7018 202.377 75.0707 202.337C75.8972 202.233 76.7361 202.296 77.5377 202.523C78.9459 202.975 80.3099 203.554 81.613 204.253C82.161 204.491 82.6957 204.759 83.215 205.054Z" fill="#FF9A6C"/>
<path d="M114.099 209.014C114.099 209.014 113.926 209.116 113.6 209.232C113.131 209.401 112.654 209.547 112.171 209.668C110.58 210.081 108.95 210.324 107.307 210.392C105.665 210.463 104.02 210.364 102.399 210.097C101.758 209.988 101.284 209.879 100.944 209.783C100.763 209.756 100.587 209.697 100.425 209.61C100.425 209.559 101.194 209.706 102.437 209.86C104.048 210.059 105.673 210.125 107.294 210.058C108.917 209.975 110.531 209.76 112.119 209.418C113.305 209.187 114.055 208.969 114.099 209.014Z" fill="#FF9A6C"/>
<path d="M296.362 183.672L267.886 177.776L260.837 172.49L223.224 179.744C222.622 180.846 216.528 189.355 216.528 189.355L201.713 194.385C195.417 196.04 189.797 199.625 185.643 204.638C181.693 209.516 178.456 214.931 176.031 220.721C169.367 236.362 159.749 254.432 159.749 254.432L153.719 244.718L128.306 256.688C128.306 256.688 143.191 286.695 148.119 290.982C153.597 295.743 166.195 296.294 174.903 287.413C180.151 282.056 195.318 260.885 198.477 255.586L203.168 277.744L207.48 303.035L200.509 320.445H302.263L298.054 303.99C298.054 303.99 302.199 261.103 303.346 253.119C306.044 234.286 296.362 183.672 296.362 183.672Z" fill="#3780EF"/>
<path d="M296.362 183.672C296.362 183.672 316.739 189.387 321.224 209.642C323.941 221.913 333.168 256.893 336.417 285.689C338.339 302.811 338.288 318.631 338.339 320.445H307.069L293.818 189.387L296.362 183.672Z" fill="#3780EF"/>
<path d="M244.101 201.062C244.101 201.062 244.101 201.139 244.017 201.274L243.729 201.863C243.473 202.382 243.088 203.145 242.672 204.112C241.768 206.034 240.704 208.886 238.987 212.071L238.904 212.231L238.763 212.109C236.648 210.308 234.354 208.143 231.984 205.804C227.786 201.639 224.108 197.762 221.392 195.013L218.156 191.764L217.265 190.887C217.157 190.79 217.058 190.682 216.97 190.566C217.094 190.644 217.208 190.737 217.31 190.842L218.233 191.675C219.027 192.405 220.155 193.488 221.545 194.847C224.307 197.557 228.017 201.408 232.201 205.567C234.572 207.906 236.853 210.052 238.942 211.885L238.712 211.923C240.442 208.783 241.544 205.945 242.492 204.035C242.96 203.068 243.351 202.324 243.633 201.818C243.761 201.594 243.87 201.402 243.96 201.254C244 201.185 244.047 201.121 244.101 201.062Z" fill="black"/>
<path d="M268.283 178.5C268.281 178.652 268.262 178.802 268.226 178.949C268.162 179.269 268.085 179.692 267.989 180.231C267.758 181.333 267.348 182.922 266.823 184.857C265.714 188.702 263.92 194.014 261.696 199.749C260.524 202.786 259.37 205.656 258.294 208.2L258.211 208.399L258.05 208.258C255.148 205.695 252.546 203.676 250.784 202.177C249.9 201.427 249.208 200.825 248.74 200.402L248.221 199.915C248.099 199.8 248.041 199.742 248.048 199.736C248.122 199.774 248.19 199.822 248.253 199.877L248.804 200.332L250.899 202.036C252.7 203.497 255.321 205.477 258.255 208.027L258.012 208.085C259.069 205.522 260.216 202.664 261.382 199.633C263.58 193.866 265.406 188.644 266.566 184.793C267.143 182.871 267.566 181.294 267.848 180.199C267.969 179.68 268.072 179.263 268.149 178.917C268.183 178.775 268.228 178.636 268.283 178.5Z" fill="black"/>
<path d="M202.367 274.905C202.34 274.861 202.32 274.814 202.309 274.764L202.174 274.328C202.059 273.901 201.899 273.337 201.694 272.637C201.476 271.906 201.265 271.003 201.008 269.952C200.752 268.901 200.476 267.696 200.201 266.363C198.783 259.411 197.786 252.38 197.215 245.308C196.491 237.022 196.331 229.493 196.369 224.053C196.369 221.33 196.44 219.126 196.516 217.607C196.555 216.864 196.581 216.28 196.6 215.851C196.6 215.672 196.6 215.518 196.632 215.396C196.625 215.345 196.625 215.293 196.632 215.242C196.637 215.296 196.637 215.349 196.632 215.403V215.858C196.632 216.287 196.632 216.87 196.632 217.607C196.632 219.132 196.581 221.33 196.593 224.053C196.593 229.487 196.811 237.01 197.535 245.276C198.112 252.337 199.074 259.362 200.419 266.319C200.681 267.651 200.925 268.882 201.175 269.907C201.425 270.932 201.611 271.874 201.816 272.605L202.239 274.309L202.335 274.751C202.367 274.854 202.373 274.905 202.367 274.905Z" fill="black"/>
<path d="M298.053 206.137C298.092 206.193 298.122 206.253 298.143 206.317C298.201 206.451 298.278 206.624 298.367 206.842C298.573 207.329 298.848 208.015 299.207 208.88C299.386 209.328 299.598 209.815 299.803 210.36L300.412 212.154C300.629 212.795 300.86 213.493 301.11 214.224C301.36 214.954 301.526 215.755 301.751 216.582C303.673 223.175 304.634 232.716 304.083 243.155C303.532 253.593 302.302 263.019 301.52 269.785C301.129 273.169 300.809 275.917 300.585 277.84C300.476 278.769 300.386 279.506 300.322 280.025L300.245 280.595C300.24 280.661 300.227 280.725 300.206 280.787C300.198 280.724 300.198 280.659 300.206 280.595L300.251 280.018C300.303 279.493 300.373 278.737 300.456 277.827C300.636 275.905 300.918 273.162 301.283 269.76C301.981 262.955 303.16 253.561 303.724 243.142C304.288 232.723 303.34 223.233 301.501 216.639L300.86 214.281L300.219 212.218C300.014 211.577 299.822 210.969 299.643 210.418C299.463 209.867 299.245 209.373 299.072 208.925C298.739 208.047 298.483 207.361 298.291 206.868C298.214 206.643 298.15 206.47 298.098 206.329C298.074 206.268 298.058 206.203 298.053 206.137Z" fill="black"/>
<path d="M159.916 276.25C159.826 276.25 159.717 271.368 159.679 265.357C159.64 259.347 159.679 254.464 159.775 254.464C159.871 254.464 159.973 259.347 160.012 265.357C160.05 271.368 160.012 276.25 159.916 276.25Z" fill="black"/>
<path d="M252.379 305.822V305.553C252.379 305.361 252.43 305.105 252.468 304.772C252.558 304.067 252.68 303.061 252.84 301.766C252.923 301.126 253.013 300.389 253.116 299.6C253.218 298.812 253.295 297.941 253.391 297.037C253.577 295.179 253.833 293.071 254.032 290.726C254.128 289.56 254.224 288.329 254.333 287.054C254.442 285.779 254.493 284.446 254.577 283.069C254.769 280.313 254.852 277.359 254.961 274.258C255.102 268.049 255.083 261.218 254.762 254.061C254.442 246.903 253.788 240.098 253.064 233.928C252.661 230.845 252.308 227.917 251.853 225.194C251.642 223.829 251.456 222.509 251.213 221.247C250.969 219.984 250.77 218.773 250.572 217.613C250.181 215.3 249.732 213.224 249.367 211.392C249.181 210.475 249.015 209.623 248.854 208.828C248.694 208.034 248.521 207.335 248.374 206.695L247.733 203.741C247.669 203.414 247.611 203.158 247.573 202.972C247.534 202.786 247.528 202.703 247.528 202.703C247.561 202.786 247.586 202.872 247.605 202.959L247.804 203.721L248.515 206.669L249.021 208.796C249.188 209.578 249.367 210.424 249.566 211.359C249.944 213.186 250.412 215.262 250.815 217.575C251.029 218.733 251.242 219.944 251.456 221.208C251.687 222.49 251.873 223.771 252.097 225.155C252.558 227.885 252.923 230.813 253.34 233.896C254.077 240.073 254.705 246.884 255.064 254.048C255.422 261.212 255.397 268.055 255.237 274.271C255.115 277.378 255.025 280.332 254.82 283.088C254.73 284.465 254.666 285.798 254.557 287.08C254.448 288.361 254.333 289.585 254.231 290.758C254.051 293.103 253.776 295.243 253.59 297.063C253.481 297.992 253.378 298.857 253.289 299.626C253.199 300.395 253.077 301.138 252.981 301.792C252.795 303.073 252.648 304.086 252.552 304.784L252.43 305.566C252.42 305.653 252.403 305.739 252.379 305.822Z" fill="black"/>
<path d="M265.926 236.657H266.054L266.457 236.612L268.027 236.433L274.031 235.792L295.401 233.575H295.561V233.735C295.722 240.201 295.914 247.518 296.112 255.278V255.348L296.068 255.393L293.504 258.168L284.162 268.151L284.079 268.241L283.97 268.183L268.226 260.366L268.155 260.334V260.276C267.47 253.131 266.874 247.223 266.509 243.078C266.316 241.04 266.169 239.438 266.067 238.33C266.022 237.798 265.983 237.388 265.958 237.086C265.932 236.785 265.958 236.676 265.958 236.676C265.958 236.676 265.958 236.83 266.015 237.112C266.073 237.394 266.099 237.836 266.163 238.394C266.278 239.515 266.451 241.123 266.675 243.174C267.105 247.288 267.713 253.163 268.457 260.27L268.38 260.161L284.143 267.933L283.957 267.965L293.28 257.944L295.843 255.175L295.798 255.291C295.613 247.531 295.433 240.22 295.279 233.748L295.446 233.889L274.14 235.927L268.098 236.49L266.489 236.631L266.073 236.67L265.926 236.657Z" fill="black"/>
<path d="M295.599 241.168C295.236 241.269 294.865 241.339 294.491 241.379C293.773 241.495 292.735 241.642 291.447 241.809C288.884 242.135 285.302 242.514 281.361 242.892L271.263 243.878L268.206 244.199C267.835 244.258 267.46 244.286 267.085 244.282C267.448 244.181 267.819 244.11 268.193 244.071C268.911 243.955 269.949 243.808 271.237 243.641C273.8 243.314 277.382 242.936 281.329 242.558L291.421 241.572L294.478 241.251C294.849 241.192 295.224 241.164 295.599 241.168Z" fill="black"/>
<g opacity="0.3">
<path d="M301.788 266.37L302.865 279.461C305.242 268.247 308.978 256.194 308.395 244.75C307.812 233.306 306.735 222.355 300.289 211.994C303.092 219.795 304.377 228.059 304.076 236.343C303.487 249.735 301.788 266.37 301.788 266.37Z" fill="black"/>
</g>
<path d="M155.673 242.001C155.327 241.212 154.715 240.571 153.943 240.188C153.046 239.88 152.072 240.316 151.22 240.739L127.973 252.311C126.441 253.074 124.769 253.977 124.205 255.579C123.468 257.63 124.846 259.795 126.127 261.558C128.267 264.499 130.83 267.703 134.457 268.119L154.456 254.407C156.897 254.048 158.416 251.324 158.3 248.857C158.185 246.39 156.916 244.141 155.673 242.001Z" fill="#3780EF"/>
<path d="M158.198 250.382C158.139 250.465 158.07 250.54 157.993 250.607L157.353 251.203C156.801 251.715 155.988 252.439 154.969 253.311C152.925 255.06 150.022 257.386 146.639 259.757C143.256 262.128 140.161 264.082 137.809 265.402C136.643 266.075 135.688 266.6 135.022 266.946L134.253 267.337C134.073 267.427 133.977 267.466 133.971 267.453C134.045 267.383 134.129 267.324 134.221 267.28L134.958 266.831L137.687 265.197C139.988 263.813 143.121 261.827 146.466 259.462C149.811 257.098 152.733 254.81 154.796 253.112L157.25 251.081L157.891 250.536C158.109 250.434 158.192 250.37 158.198 250.382Z" fill="black"/>
<g opacity="0.3">
<path d="M267.983 179.968C265.247 189.054 261.415 199.332 258.179 208.162C255.424 205.823 251.566 202.728 248.804 200.383C251.181 205.098 254.035 209.558 257.32 213.692C257.705 214.173 258.217 214.698 258.813 214.583C259.409 214.467 259.678 213.852 259.883 213.301L264.926 199.954C267.284 193.713 269.559 186.433 267.983 179.968Z" fill="black"/>
</g>
<path d="M224.729 81.1158C233.059 78.7193 240.851 81.1158 248.534 85.1014C256.217 89.087 262.413 95.6677 266.424 103.325C270.653 111.392 272.524 120.792 270.993 129.77C269.461 138.747 264.387 147.205 256.787 152.197C246.4 159.04 232.085 158.681 221.391 152.344C210.696 146.007 203.654 134.326 201.789 122.029C200.508 113.558 201.546 104.626 205.499 97.039C209.453 89.4522 216.444 83.3008 224.723 81.1093" fill="#263238"/>
<path d="M252.077 107.188C250.469 104.093 250.54 100.422 249.662 97.0386C247.739 89.5992 240.947 84.2231 233.565 82.0765C226.703 80.0709 218.764 81.5767 211.138 85.0241C205.923 87.3885 201.174 91.0153 198.06 95.8211C196.023 99.0423 194.786 102.704 194.452 106.5C194.117 110.297 194.696 114.118 196.138 117.646L234.193 107.637C238.153 110.2 242.21 112.846 246.791 114.045C248.124 114.457 249.54 114.521 250.905 114.231C251.582 114.07 252.199 113.719 252.682 113.218C253.165 112.717 253.493 112.087 253.628 111.405C253.788 109.88 252.776 108.54 252.077 107.188Z" fill="#263238"/>
<path d="M261.158 174.668L251.335 105.58C250.899 102.312 249.412 98.9802 246.125 99.134L211.523 95.802C200.681 96.3018 195.594 110.54 196.555 121.324C197.625 133.332 199.4 147.948 202.162 156.611C207.717 174.021 221.744 174.201 221.744 174.201C221.744 174.201 222.596 177.661 223.666 184.133L246.093 199.05L261.158 174.668Z" fill="#FFBF9D"/>
<path d="M204.917 134.467C205.003 135.064 205.319 135.604 205.798 135.972C206.277 136.339 206.881 136.505 207.48 136.434C207.775 136.413 208.062 136.333 208.326 136.199C208.589 136.065 208.823 135.88 209.014 135.654C209.204 135.428 209.348 135.167 209.435 134.885C209.523 134.602 209.553 134.306 209.524 134.012C209.437 133.414 209.12 132.875 208.642 132.506C208.164 132.138 207.561 131.97 206.961 132.038C206.666 132.06 206.379 132.142 206.116 132.276C205.853 132.411 205.62 132.597 205.429 132.823C205.239 133.049 205.096 133.311 205.008 133.593C204.92 133.875 204.889 134.172 204.917 134.467Z" fill="#263238"/>
<path d="M200.88 128.411C201.207 128.668 202.745 127.13 205.211 126.752C207.678 126.374 209.665 127.341 209.889 126.995C209.998 126.841 209.626 126.354 208.755 125.893C207.576 125.321 206.25 125.124 204.955 125.329C203.673 125.519 202.486 126.114 201.565 127.027C200.893 127.719 200.72 128.277 200.88 128.411Z" fill="#263238"/>
<path d="M227.683 130.763C227.768 131.361 228.084 131.903 228.563 132.272C229.042 132.641 229.646 132.808 230.247 132.736C230.541 132.715 230.829 132.636 231.092 132.502C231.356 132.368 231.589 132.183 231.78 131.957C231.971 131.731 232.114 131.469 232.202 131.187C232.289 130.905 232.32 130.608 232.291 130.314C232.206 129.715 231.89 129.174 231.411 128.805C230.932 128.436 230.328 128.269 229.727 128.341C229.433 128.362 229.146 128.443 228.883 128.577C228.62 128.711 228.386 128.896 228.196 129.122C228.006 129.347 227.862 129.609 227.774 129.891C227.686 130.172 227.655 130.469 227.683 130.763Z" fill="#263238"/>
<path d="M224.313 125.149C224.64 125.406 226.184 123.868 228.645 123.49C231.105 123.112 233.098 124.079 233.322 123.733C233.431 123.579 233.06 123.092 232.188 122.631C231.007 122.058 229.679 121.861 228.382 122.067C227.084 122.259 225.882 122.863 224.954 123.791C224.313 124.432 224.14 125.072 224.313 125.149Z" fill="#263238"/>
<path d="M219.007 144.802C219.007 144.661 217.425 144.629 214.9 144.693C214.259 144.693 213.618 144.693 213.471 144.277C213.324 143.86 213.413 143.13 213.606 142.354C213.964 140.744 214.343 139.054 214.74 137.286C216.278 130.071 217.303 124.182 217.002 124.124C216.701 124.067 215.227 129.891 213.683 137.068C213.317 138.843 212.965 140.541 212.638 142.162C212.51 142.912 212.222 143.783 212.689 144.674C212.812 144.883 212.982 145.061 213.186 145.194C213.389 145.326 213.621 145.409 213.862 145.437C214.223 145.486 214.59 145.486 214.951 145.437C217.47 145.167 219.02 144.937 219.007 144.802Z" fill="#263238"/>
<path d="M221.75 174.201C230.175 173.043 238.113 169.566 244.677 164.16C244.677 164.16 239.083 178.161 222.891 179.57L221.75 174.201Z" fill="#FF9A6C"/>
<path d="M220.956 150.582C221.334 149.921 221.874 149.367 222.525 148.973C223.176 148.578 223.917 148.356 224.678 148.327C225.232 148.295 225.785 148.375 226.306 148.564C226.827 148.752 227.305 149.044 227.709 149.422C228.101 149.783 228.373 150.256 228.487 150.776C228.602 151.296 228.554 151.839 228.35 152.331C227.831 153.363 226.473 153.792 225.249 153.613C224.023 153.38 222.855 152.905 221.814 152.216C221.504 152.057 221.228 151.839 221 151.575C220.889 151.454 220.816 151.302 220.791 151.139C220.766 150.975 220.79 150.809 220.859 150.659" fill="#FF9A6C"/>
<path d="M226.518 145.398C226.108 145.436 226.518 148.115 224.512 150.358C222.506 152.6 219.629 152.748 219.661 153.119C219.661 153.299 220.379 153.542 221.584 153.395C223.154 153.177 224.597 152.412 225.659 151.235C226.678 150.108 227.218 148.628 227.165 147.109C227.094 145.975 226.697 145.359 226.518 145.398Z" fill="#263238"/>
<path d="M223.608 117.793C223.954 118.434 226.364 117.736 229.305 117.64C232.246 117.543 234.707 117.979 234.995 117.319C235.123 117.005 234.623 116.441 233.579 115.935C232.2 115.333 230.703 115.053 229.199 115.115C227.696 115.177 226.227 115.58 224.903 116.294C223.91 116.883 223.455 117.492 223.608 117.793Z" fill="#263238"/>
<path d="M199.964 117.537C200.483 118.031 202.091 117.191 204.129 116.852C206.166 116.512 207.973 116.653 208.255 116.006C208.39 115.692 208.031 115.179 207.198 114.763C206.087 114.285 204.859 114.146 203.67 114.365C202.48 114.584 201.382 115.151 200.515 115.993C199.868 116.679 199.72 117.294 199.964 117.537Z" fill="#263238"/>
<path d="M257.679 101.275C253.014 91.381 236.136 79.0973 225.422 81.2952L209.537 93.9569C210.491 96.83 212.203 99.3922 214.493 101.373C216.783 103.353 219.565 104.679 222.545 105.209C225.717 105.734 229.433 105.497 231.599 107.881C233.765 110.265 233.246 114.366 235.341 116.897C238.244 120.408 244.754 119.357 247.1 123.266C248.131 124.97 248.009 127.187 249.06 128.879C250.47 131.128 256.935 133.364 259.313 132.224C261.69 131.083 261.152 126.829 261.671 124.477C262.561 120.472 261.716 118.569 260.972 116.493C259.236 111.572 259.909 105.991 257.679 101.275Z" fill="#263238"/>
<path d="M252.219 135.325C252.02 133.992 253.077 130.628 254.359 130.199C257.781 129.122 264.143 128.436 265.56 137.33C267.482 149.505 254.897 148.922 254.814 148.576C254.731 148.23 252.911 139.9 252.219 135.325Z" fill="#FFBF9D"/>
<path d="M257.793 143.386C257.845 143.335 258.03 143.501 258.434 143.604C258.972 143.743 259.543 143.665 260.023 143.386C261.228 142.713 261.984 140.503 261.696 138.298C261.56 137.252 261.192 136.249 260.619 135.364C260.445 135.002 260.186 134.687 259.863 134.448C259.541 134.209 259.164 134.053 258.767 133.992C258.514 133.966 258.259 134.03 258.048 134.173C257.837 134.316 257.684 134.529 257.614 134.774C257.505 135.139 257.614 135.37 257.556 135.415C257.499 135.46 257.268 135.255 257.281 134.736C257.302 134.425 257.429 134.131 257.64 133.903C257.933 133.594 258.336 133.415 258.761 133.403C259.709 133.319 260.683 134.044 261.273 134.934C261.959 135.906 262.399 137.029 262.554 138.209C262.868 140.669 261.978 143.162 260.299 143.976C259.989 144.123 259.649 144.2 259.306 144.2C258.962 144.2 258.623 144.123 258.312 143.976C257.864 143.655 257.755 143.412 257.793 143.386Z" fill="#FF9A6C"/>
<path d="M212.663 89.8622C212.106 94.9883 205.269 102.197 202.411 106.445C196.919 114.551 195.945 117.146 197.881 133.653C194.241 128.289 191.319 122.958 190.832 116.493C190.345 110.027 191.973 103.318 195.92 98.1794C199.867 93.0404 206.217 89.6571 212.695 89.8493" fill="#263238"/>
<path d="M241.697 72.478C244.261 69.6522 247.964 67.8132 251.809 66.8521C257.287 65.4808 263.304 65.8525 268.29 68.2361C273.275 70.6198 277.132 75.0924 278.138 80.2186C278.633 82.8519 278.4 85.5702 277.465 88.0811C276.531 90.5921 274.929 92.8007 272.833 94.4694C275.683 97.2331 279.158 99.2685 282.963 100.403C281.925 101.96 280.009 102.87 278.074 103.197C276.129 103.44 274.16 103.427 272.218 103.158C273.543 105.139 275.527 106.587 277.818 107.246C274.664 107.974 271.376 107.866 268.277 106.932C265.246 106.014 262.345 104.711 259.646 103.056C250.271 97.6156 245.1 92.8483 238.769 84.4733C237.943 80.8594 239.115 75.3103 241.697 72.478Z" fill="#263238"/>
<path d="M261.907 98.1601C255.025 88.1064 246.266 82.7303 238.34 81.0579L261.907 98.1601Z" fill="#263238"/>
<path d="M238.34 81.0579C238.703 81.2033 239.078 81.3169 239.461 81.3975C240.185 81.6025 241.229 81.9165 242.485 82.3971C245.755 83.6673 248.829 85.3931 251.616 87.5233C254.404 89.6483 256.945 92.0792 259.19 94.7704C260.036 95.8149 260.722 96.6927 261.164 97.2694C261.384 97.5963 261.633 97.9029 261.907 98.1857C261.722 97.8353 261.508 97.5009 261.266 97.1861C260.856 96.5454 260.203 95.6803 259.376 94.623C257.187 91.851 254.664 89.3589 251.866 87.2029C249.046 85.0513 245.912 83.3442 242.575 82.1408C241.569 81.7827 240.542 81.4852 239.499 81.2501C239.119 81.1552 238.731 81.0909 238.34 81.0579Z" fill="#455A64"/>
<path d="M270.11 106.727L269.956 106.779L269.507 106.958C269.123 107.125 268.546 107.342 267.79 107.599C265.653 108.314 263.437 108.766 261.19 108.944C257.859 109.192 254.51 108.977 251.239 108.304C247.232 107.462 243.314 106.241 239.538 104.658C235.501 103.011 231.695 101.319 228.306 99.6595C225.295 98.2028 222.397 96.5236 219.636 94.6359C217.78 93.3574 216.027 91.9347 214.394 90.3811C213.805 89.8365 213.382 89.3815 213.113 89.0996L212.773 88.76C212.696 88.6895 212.658 88.651 212.651 88.6574C212.645 88.6638 212.651 88.7023 212.748 88.7856L213.062 89.1508C213.337 89.4712 213.747 89.939 214.343 90.5029C215.949 92.1018 217.687 93.5616 219.54 94.8665C222.291 96.7994 225.19 98.5134 228.209 99.9927C231.606 101.678 235.405 103.382 239.449 105.036C243.248 106.623 247.192 107.84 251.226 108.669C254.53 109.328 257.911 109.514 261.267 109.22C263.51 109.015 265.719 108.528 267.841 107.772C268.591 107.483 269.161 107.246 269.539 107.054L269.969 106.843C270.065 106.759 270.116 106.734 270.11 106.727Z" fill="#455A64"/>
<path d="M233.803 167.069L232.644 164.801C232.727 164.756 240.775 160.629 243.87 158.028C251.162 151.902 257.864 142.117 257.935 142.009L260.049 143.45C259.768 143.867 253.084 153.626 245.517 159.982C242.185 162.763 234.143 166.896 233.803 167.069Z" fill="#455A64"/>
<path d="M239.794 159.989C239.794 159.989 228.799 164.897 228.799 165.986C228.799 167.075 230.541 169.254 231.849 169.145C233.156 169.036 236.936 166.909 237.616 166.037C238.295 165.166 239.5 162.923 240.82 161.834L239.794 159.989Z" fill="#263238"/>
<path d="M259.96 126.995L257.397 126.873C257.49 119.482 256.217 112.138 253.642 105.209C248.08 90.8811 237.385 83.1918 221.866 82.346C220.454 82.2841 219.04 82.3809 217.649 82.6344L218.771 81.5707C219.314 81.0578 219.946 80.6475 220.635 80.3596C221.58 79.9646 222.608 79.8062 223.628 79.8983C243.223 81.5963 252.078 94.053 256.057 104.357C258.768 111.591 260.092 119.271 259.96 126.995Z" fill="#455A64"/>
<path d="M258.678 150.3C263.162 150.3 266.797 145.073 266.797 138.625C266.797 132.177 263.162 126.95 258.678 126.95C254.195 126.95 250.56 132.177 250.56 138.625C250.56 145.073 254.195 150.3 258.678 150.3Z" fill="#455A64"/>
<path d="M266.796 138.625C266.788 138.572 266.788 138.518 266.796 138.465C266.796 138.337 266.796 138.183 266.758 137.991C266.729 137.386 266.667 136.782 266.572 136.184C266.241 133.976 265.381 131.881 264.066 130.077C263.624 129.494 263.112 128.967 262.541 128.507C261.92 128.018 261.22 127.639 260.472 127.386C259.67 127.126 258.822 127.045 257.985 127.149C257.101 127.282 256.254 127.598 255.499 128.078C253.9 129.191 252.665 130.751 251.949 132.563C251.149 134.493 250.737 136.562 250.737 138.651C250.737 140.74 251.149 142.808 251.949 144.738C252.664 146.551 253.899 148.111 255.499 149.224C256.254 149.703 257.101 150.02 257.985 150.153C258.822 150.253 259.67 150.172 260.472 149.916C261.22 149.663 261.92 149.283 262.541 148.794C263.11 148.333 263.622 147.806 264.066 147.224C265.381 145.42 266.241 143.325 266.572 141.118C266.667 140.519 266.729 139.916 266.758 139.311C266.758 139.119 266.758 138.965 266.796 138.837C266.788 138.784 266.788 138.729 266.796 138.676C266.806 138.729 266.806 138.784 266.796 138.837V139.311C266.789 139.922 266.747 140.531 266.668 141.137C266.381 143.384 265.54 145.524 264.22 147.365C263.771 147.969 263.251 148.515 262.67 148.993C262.029 149.51 261.302 149.912 260.523 150.178C259.683 150.454 258.793 150.544 257.915 150.441C256.988 150.308 256.099 149.981 255.307 149.48C253.649 148.352 252.366 146.754 251.623 144.892C250.798 142.924 250.373 140.811 250.373 138.676C250.373 136.542 250.798 134.429 251.623 132.461C252.366 130.599 253.649 129.001 255.307 127.873C256.099 127.372 256.988 127.045 257.915 126.912C258.793 126.809 259.683 126.899 260.523 127.175C261.302 127.441 262.029 127.842 262.67 128.36C263.252 128.836 263.773 129.382 264.22 129.988C265.542 131.827 266.383 133.968 266.668 136.216C266.746 136.819 266.789 137.427 266.796 138.036V138.516C266.8 138.552 266.8 138.589 266.796 138.625Z" fill="#263238"/>
<path d="M259.927 145.405C262.783 145.405 265.098 142.077 265.098 137.972C265.098 133.866 262.783 130.539 259.927 130.539C257.071 130.539 254.756 133.866 254.756 137.972C254.756 142.077 257.071 145.405 259.927 145.405Z" fill="#455A64"/>
<path d="M265.099 137.972C265.061 137.972 265.099 137.408 264.913 136.414C264.699 135.022 264.149 133.702 263.311 132.57C262.742 131.793 261.951 131.206 261.043 130.885C260.539 130.722 260.005 130.672 259.479 130.737C258.925 130.82 258.394 131.018 257.922 131.32C256.917 132.021 256.139 133.001 255.686 134.14C255.179 135.358 254.92 136.665 254.923 137.984C254.917 139.304 255.176 140.612 255.686 141.829C256.139 142.968 256.917 143.948 257.922 144.648C258.394 144.95 258.925 145.149 259.479 145.231C260.005 145.297 260.539 145.246 261.043 145.084C261.951 144.763 262.742 144.176 263.311 143.399C264.149 142.266 264.699 140.947 264.913 139.554C265.073 138.561 265.061 137.997 265.099 138.004C265.107 138.138 265.107 138.273 265.099 138.407C265.098 138.797 265.072 139.187 265.022 139.573C264.852 141.011 264.321 142.382 263.478 143.559C262.891 144.389 262.063 145.02 261.107 145.366C260.568 145.549 259.994 145.611 259.428 145.545C258.828 145.452 258.254 145.234 257.743 144.905C256.678 144.182 255.852 143.158 255.372 141.964C254.843 140.702 254.571 139.349 254.571 137.981C254.571 136.614 254.843 135.26 255.372 133.999C255.852 132.804 256.678 131.78 257.743 131.058C258.252 130.729 258.824 130.511 259.422 130.417C259.99 130.352 260.565 130.413 261.107 130.596C262.063 130.942 262.891 131.573 263.478 132.403C264.321 133.58 264.852 134.951 265.022 136.389C265.072 136.776 265.098 137.165 265.099 137.555C265.108 137.694 265.108 137.833 265.099 137.972Z" fill="#263238"/>
<path d="M260.286 143.315C262.338 143.315 264.002 140.923 264.002 137.971C264.002 135.02 262.338 132.627 260.286 132.627C258.233 132.627 256.569 135.02 256.569 137.971C256.569 140.923 258.233 143.315 260.286 143.315Z" fill="#455A64"/>
<path d="M264.002 137.971C263.97 137.971 263.97 137.568 263.855 136.856C263.69 135.856 263.29 134.91 262.689 134.095C262.284 133.542 261.721 133.124 261.074 132.896C260.706 132.778 260.316 132.746 259.933 132.8C259.55 132.854 259.184 132.995 258.863 133.21C257.473 134.127 256.736 136.049 256.73 137.965C256.723 139.881 257.473 141.809 258.863 142.726C259.184 142.941 259.55 143.082 259.933 143.136C260.316 143.19 260.706 143.158 261.074 143.04C261.721 142.812 262.284 142.394 262.689 141.841C263.29 141.026 263.69 140.08 263.855 139.08C263.97 138.368 263.97 137.965 264.002 137.971C264.018 138.067 264.018 138.164 264.002 138.26C264.006 138.54 263.991 138.82 263.958 139.099C263.842 140.14 263.463 141.135 262.855 141.989C262.423 142.58 261.822 143.026 261.132 143.27C260.738 143.403 260.321 143.449 259.908 143.405C259.471 143.345 259.051 143.192 258.678 142.956C257.902 142.431 257.302 141.686 256.954 140.816C256.568 139.904 256.37 138.923 256.37 137.933C256.37 136.942 256.568 135.962 256.954 135.049C257.302 134.18 257.902 133.434 258.678 132.909C259.051 132.674 259.471 132.521 259.908 132.461C260.321 132.417 260.738 132.463 261.132 132.595C261.822 132.839 262.423 133.286 262.855 133.877C263.463 134.73 263.842 135.725 263.958 136.767C263.991 137.045 264.006 137.325 264.002 137.606C264.025 137.727 264.025 137.851 264.002 137.971Z" fill="#263238"/>
<path d="M147.333 41.5301C146.859 42.8855 146.23 44.1821 145.46 45.3943C141.938 51.1122 136.354 55.2582 129.861 56.9753C126.832 57.8496 123.63 57.9393 120.556 57.2361C118.891 56.8156 117.351 56.0027 116.064 54.8653C114.691 53.6762 113.721 52.0897 113.29 50.3254C112.85 48.4245 113.159 46.4273 114.151 44.7476C115.144 43.0679 116.744 41.8343 118.622 41.3026C120.499 40.7708 122.509 40.9815 124.235 41.8911C125.961 42.8007 127.271 44.3394 127.893 46.1885C128.439 47.9146 128.484 49.76 128.024 51.5108C127.608 53.1826 126.941 54.7814 126.044 56.2522C122.904 61.2387 118.133 64.9833 112.543 66.8493C110.43 67.5931 108.224 68.0438 105.988 68.1888C104.309 68.3203 102.62 68.2766 100.95 68.0584C99.8955 67.9123 98.8534 67.6864 97.8328 67.3827L97.0386 67.1338C96.9483 67.1125 96.8607 67.0807 96.7778 67.039C96.872 67.0235 96.9681 67.0235 97.0623 67.039L97.8684 67.2286C98.8911 67.478 99.9283 67.6641 100.974 67.7858C104.839 68.1724 108.741 67.6988 112.401 66.3989C117.854 64.5109 122.498 60.8131 125.558 55.9203C126.416 54.517 127.052 52.9897 127.443 51.3923C127.878 49.7553 127.837 48.0282 127.324 46.4137C126.746 44.7201 125.541 43.3126 123.956 42.4808C122.372 41.649 120.529 41.4563 118.807 41.9423C117.084 42.4283 115.614 43.5561 114.698 45.0935C113.782 46.6309 113.49 48.4609 113.883 50.2069C114.276 51.8552 115.176 53.339 116.455 54.4505C117.673 55.5378 119.131 56.3217 120.71 56.7382C123.687 57.4229 126.788 57.3536 129.731 56.5367C132.319 55.8712 134.79 54.8118 137.056 53.3955C140.346 51.3297 143.146 48.5708 145.259 45.3114C145.588 44.7926 145.885 44.2543 146.148 43.6993C146.409 43.237 146.634 42.8458 146.776 42.5139L147.144 41.779C147.194 41.687 147.258 41.603 147.333 41.5301Z" fill="white"/>
<path d="M162.553 69.5524C162.553 69.671 161 69.991 158.618 70.9512C157.231 71.5201 155.888 72.1896 154.599 72.9544C153.035 73.9134 151.552 74.9997 150.166 76.2023C148.806 77.4369 147.552 78.7852 146.421 80.2325C145.506 81.4237 144.686 82.684 143.967 84.0019C142.781 86.2541 142.224 87.7714 142.118 87.7358C142.161 87.3608 142.257 86.9936 142.402 86.6453C142.716 85.6613 143.112 84.7056 143.588 83.7886C144.263 82.4221 145.056 81.1172 145.958 79.8888C148.184 76.871 151.009 74.3449 154.256 72.4684C155.576 71.7004 156.965 71.0575 158.404 70.5481C159.368 70.1869 160.359 69.9054 161.368 69.7065C161.754 69.5985 162.153 69.5466 162.553 69.5524Z" fill="white"/>
<path d="M136.878 22.0432C134.862 22.7762 132.702 23.024 130.573 22.7666C128.443 22.5092 126.405 21.7538 124.622 20.5615C126.583 21.266 128.601 21.7975 130.655 22.1499C132.729 22.2981 134.811 22.2624 136.878 22.0432Z" fill="white"/>
<path d="M155.785 90.3911H105.763C104.103 90.3911 102.511 89.7317 101.337 88.558C100.163 87.3843 99.5039 85.7923 99.5039 84.1324V14.8957C99.5024 14.0733 99.6632 13.2588 99.9771 12.4987C100.291 11.7387 100.752 11.0481 101.334 10.4666C101.915 9.88513 102.606 9.42418 103.366 9.11021C104.126 8.79623 104.94 8.63541 105.763 8.63697H137.483L162.043 33.9444V84.1324C162.04 85.7914 161.38 87.3815 160.207 88.5545C159.034 89.7276 157.444 90.388 155.785 90.3911Z" fill="#3780EF"/>
<path d="M137.483 8.63696V28.1717C137.483 29.7153 138.097 31.1956 139.188 32.2871C140.28 33.3786 141.76 33.9918 143.304 33.9918H162.044L137.483 8.63696Z" fill="#3780EF"/>
<path opacity="0.2" d="M137.743 29.8308C137.754 31.3062 138.27 32.7334 139.203 33.876C140.136 35.0186 141.432 35.8079 142.876 36.1132C143.078 36.1692 143.284 36.2127 143.492 36.2436C145.934 36.6822 162.043 39.5507 162.043 39.1833V33.944H143.302C143.302 33.944 138.62 33.7781 137.743 29.8308Z" fill="black"/>
<path d="M155.785 90.3908C155.785 90.3908 156.153 90.3908 156.864 90.2605C157.904 90.0694 158.879 89.6166 159.697 88.9447C160.356 88.4029 160.895 87.7302 161.281 86.9691C161.667 86.2081 161.89 85.3752 161.937 84.5233C161.937 82.5082 161.937 80.1612 161.937 77.5416C161.937 67.063 161.937 52.0682 161.866 33.9441V34.0626L137.341 8.77892H137.483H107.174C106.382 8.75213 105.59 8.78383 104.803 8.87375C104.02 9.00504 103.27 9.28931 102.597 9.71031C101.924 10.1313 101.34 10.6808 100.879 11.3274C100.228 12.2263 99.8416 13.29 99.765 14.3975C99.765 15.5118 99.765 16.6734 99.765 17.7995V37.8083C99.765 46.4733 99.765 54.8182 99.765 62.772C99.765 66.7232 99.765 70.5993 99.765 74.4004V82.6979C99.7221 83.5765 99.7579 84.4571 99.8717 85.3294C100.04 86.1603 100.379 86.9474 100.866 87.641C101.354 88.3347 101.98 88.9198 102.705 89.3596C103.414 89.7814 104.199 90.0593 105.016 90.1775C105.837 90.2191 106.66 90.2191 107.482 90.1775H116.965L145.413 90.2486H116.965H107.482C106.664 90.2486 105.834 90.2486 104.969 90.1775C104.109 90.0639 103.281 89.7733 102.539 89.324C101.77 88.8641 101.106 88.2493 100.587 87.5188C100.069 86.7882 99.7082 85.9579 99.528 85.0804C99.406 84.1851 99.3663 83.2804 99.4094 82.3778C99.4094 81.477 99.4094 80.5761 99.4094 79.6634V74.4004C99.4094 70.6309 99.4094 66.7548 99.4094 62.772C99.4094 54.8182 99.4094 46.4733 99.4094 37.8083V17.8588C99.4094 16.6734 99.4094 15.5947 99.4094 14.4331C99.4899 13.2457 99.9005 12.1044 100.595 11.1378C101.56 9.77105 103.017 8.83194 104.661 8.51814C105.483 8.42237 106.311 8.39067 107.138 8.42332H137.531H137.59C146.433 17.5387 154.706 26.0852 162.127 33.7544H162.186V33.8255C162.186 51.9497 162.127 66.9445 162.103 77.423C162.103 80.0427 162.103 82.3778 162.103 84.4166C162.006 85.8273 161.438 87.1645 160.49 88.2136C159.542 89.2626 158.269 89.9626 156.876 90.2012C156.605 90.2472 156.332 90.271 156.058 90.2723L155.785 90.3908Z" fill="#263238"/>
<path d="M162.043 33.9444H161.557H160.182H155.109H147.582H143.125C141.874 33.9105 140.664 33.4868 139.665 32.7324C138.667 31.978 137.928 30.9306 137.554 29.7364C137.325 28.9682 137.233 28.1658 137.281 27.3657C137.281 25.8247 137.281 24.343 137.281 22.9206C137.281 20.0994 137.281 17.5509 137.281 15.3936C137.281 13.2362 137.34 11.5649 137.352 10.3202C137.352 9.75127 137.352 9.30083 137.352 8.93337C137.34 8.77556 137.34 8.61704 137.352 8.45923C137.364 8.61704 137.364 8.77556 137.352 8.93337C137.352 9.30083 137.352 9.75127 137.352 10.3202C137.352 11.5056 137.352 13.2955 137.423 15.3936C137.494 17.4917 137.423 20.135 137.423 22.9206C137.423 24.343 137.423 25.8247 137.423 27.3657C137.383 28.1304 137.475 28.8964 137.696 29.6297C138.048 30.7388 138.735 31.7116 139.663 32.4142C140.59 33.1168 141.713 33.5147 142.876 33.5533H147.321H154.848L159.921 33.6244H161.296C161.558 33.6982 161.809 33.8058 162.043 33.9444Z" fill="#263238"/>
<path d="M136.535 26.0256C136.535 26.1323 130.608 26.2271 123.342 26.2271C116.076 26.2271 110.149 26.1323 110.149 26.0256C110.149 25.9189 116.076 25.8123 123.342 25.8123C130.608 25.8123 136.535 25.9071 136.535 26.0256Z" fill="#263238"/>
<path d="M149.064 35.7461C149.064 35.8528 140.352 35.9476 129.601 35.9476C118.849 35.9476 110.149 35.8528 110.149 35.7461C110.149 35.6394 118.861 35.5327 129.601 35.5327C140.34 35.5327 149.064 35.6275 149.064 35.7461Z" fill="#263238"/>
<path d="M149.064 45.466C149.064 45.5846 140.352 45.6794 129.601 45.6794C118.849 45.6794 110.149 45.5846 110.149 45.466C110.149 45.3475 118.861 45.2527 129.601 45.2527C140.34 45.2527 149.064 45.3475 149.064 45.466Z" fill="#263238"/>
<path d="M149.064 55.1858C149.064 55.3043 140.352 55.3991 129.601 55.3991C118.849 55.3991 110.149 55.3043 110.149 55.1858C110.149 55.0672 118.861 54.9724 129.601 54.9724C140.34 54.9724 149.064 55.0672 149.064 55.1858Z" fill="#263238"/>
<path d="M149.064 64.9172C149.064 65.0358 140.352 65.1306 129.601 65.1306C118.849 65.1306 110.149 65.0358 110.149 64.9172C110.149 64.7987 118.861 64.7039 129.601 64.7039C140.34 64.7039 149.064 64.7868 149.064 64.9172Z" fill="#263238"/>
<path d="M149.064 74.6256C149.064 74.7441 140.352 74.839 129.601 74.839C118.849 74.839 110.149 74.7441 110.149 74.6256C110.149 74.5071 118.885 74.4004 129.553 74.4004C140.221 74.4004 149.064 74.5071 149.064 74.6256Z" fill="#263238"/>
<path d="M167.484 99.2928C167.484 99.0794 170.673 98.9016 174.596 98.9016L174.288 99.2928V97.5148C174.288 96.9458 174.288 96.3887 174.288 95.8316C174.288 94.8596 174.288 93.9113 174.359 92.9985C174.324 92.1199 174.396 91.2403 174.572 90.3789C174.749 91.2403 174.821 92.1199 174.786 92.9985C174.786 93.9113 174.786 94.8596 174.857 95.8316C174.857 96.3887 174.857 96.9458 174.857 97.5148C174.857 97.8111 174.857 98.1074 174.857 98.4038V99.2928C174.715 99.4587 175.165 98.9016 174.549 99.684C170.673 99.6366 167.484 99.4587 167.484 99.2928Z" fill="#263238"/>
<path d="M137.068 99.293C137.068 99.0797 140.482 98.9019 144.678 98.9019C148.875 98.9019 152.277 99.0797 152.277 99.293C152.277 99.5064 148.875 99.6842 144.678 99.6842C140.482 99.6842 137.068 99.459 137.068 99.293Z" fill="#263238"/>
<path d="M106.664 99.293C106.664 99.0797 110.066 98.9019 114.262 98.9019C118.458 98.9019 121.872 99.0797 121.872 99.293C121.872 99.5064 118.458 99.6842 114.262 99.6842C110.066 99.6842 106.664 99.459 106.664 99.293Z" fill="#263238"/>
<path d="M84.3429 90.3079C84.6482 93.2766 84.7512 96.2627 84.6511 99.2455C84.0347 98.475 84.4852 99.0321 84.3429 98.8543H85.7772H87.1048L89.3688 98.9373C90.075 98.9009 90.7819 98.9933 91.4551 99.2099C90.7819 99.4265 90.075 99.5189 89.3688 99.4825L87.1048 99.5655H85.7772H84.3429L84.0347 99.1743C83.9379 96.2153 84.0408 93.2531 84.3429 90.3079Z" fill="#263238"/>
<path d="M84.3437 58.1611C84.6488 60.8284 84.7518 63.515 84.6519 66.1979C84.7515 68.8807 84.6485 71.5673 84.3437 74.2346C84.0388 71.5673 83.9358 68.8807 84.0355 66.1979C83.9355 63.515 84.0385 60.8284 84.3437 58.1611Z" fill="#263238"/>
<path d="M84.3435 26.0142C84.6487 28.6815 84.7517 31.368 84.6517 34.0509C84.7514 36.7337 84.6484 39.4203 84.3435 42.0876C84.0411 39.436 83.9381 36.7654 84.0354 34.0983C83.933 31.3997 84.036 28.6972 84.3435 26.0142Z" fill="#263238"/>
<path d="M91.4556 1.00313C91.4556 1.2165 88.2669 1.38245 84.3434 1.38245L84.6516 1.00313V2.78117C84.6516 3.35014 84.6516 3.90726 84.6516 4.45253C84.6516 5.43637 84.6516 6.37281 84.5805 7.29738C84.6153 8.17601 84.5437 9.05562 84.3671 9.91703C84.1895 9.05568 84.1139 8.17641 84.1419 7.29738C84.1419 6.37281 84.1419 5.43637 84.1419 4.45253C84.1419 3.90726 84.1419 3.35014 84.1419 2.78117V1.02684C84.2723 0.849034 83.8337 1.40615 84.4501 0.635672C88.2669 0.611965 91.4556 0.78977 91.4556 1.00313Z" fill="#263238"/>
<path d="M121.872 1.00299C121.872 1.21635 118.458 1.3823 114.262 1.3823C110.066 1.3823 106.664 1.21635 106.664 1.00299C106.664 0.789622 110.066 0.611816 114.262 0.611816C118.458 0.611816 121.872 0.789622 121.872 1.00299Z" fill="#263238"/>
<path d="M152.277 1.00299C152.277 1.21635 148.875 1.3823 144.678 1.3823C140.482 1.3823 137.068 1.21635 137.068 1.00299C137.068 0.789622 140.47 0.611816 144.678 0.611816C148.886 0.611816 152.277 0.789622 152.277 1.00299Z" fill="#263238"/>
<path d="M174.596 9.94064C174.291 6.97185 174.188 3.98579 174.288 1.00304L174.596 1.38236H173.162H171.822L169.57 1.29938C168.864 1.33574 168.157 1.24335 167.484 1.02675C168.157 0.810144 168.864 0.717764 169.57 0.754115L171.822 0.671141H173.162H174.596C174.726 0.848945 174.288 0.279975 174.904 1.06231C175.001 4.02532 174.898 6.99149 174.596 9.94064Z" fill="#263238"/>
<path d="M174.596 42.0876C174.292 39.4203 174.189 36.7337 174.288 34.0509C174.188 31.368 174.291 28.6815 174.596 26.0142C174.901 28.6815 175.005 31.368 174.905 34.0509C175.004 36.7337 174.901 39.4203 174.596 42.0876Z" fill="#263238"/>
<path d="M174.596 74.2346C174.292 71.5673 174.189 68.8807 174.288 66.1979C174.188 63.515 174.291 60.8284 174.596 58.1611C174.901 60.8284 175.005 63.515 174.905 66.1979C175.004 68.8807 174.901 71.5673 174.596 74.2346Z" fill="#263238"/>
<path d="M62.343 186.689C61.4495 188.889 60.3668 191.007 59.107 193.019C58.0174 195.133 56.7525 197.151 55.3257 199.053C56.2203 196.85 57.303 194.728 58.5617 192.711C59.646 190.598 60.9111 188.584 62.343 186.689Z" fill="#263238"/>
<path d="M76.3899 161.951C75.4964 164.151 74.4136 166.269 73.1538 168.281C72.0643 170.394 70.7994 172.413 69.3726 174.314C70.2686 172.11 71.3554 169.988 72.6204 167.973C73.6983 165.859 74.9596 163.844 76.3899 161.951Z" fill="#263238"/>
<path d="M90.4364 137.225C89.5356 139.423 88.4491 141.541 87.1885 143.554C86.1041 145.671 84.839 147.689 83.4072 149.588C84.3092 147.386 85.3957 145.265 86.6551 143.246C87.7291 141.128 88.9948 139.112 90.4364 137.225Z" fill="#263238"/>
<path d="M104.494 112.474C103.593 114.673 102.507 116.79 101.246 118.804C100.162 120.92 98.8966 122.939 97.4648 124.837C98.3668 122.636 99.4533 120.514 100.713 118.496C101.787 116.377 103.052 114.362 104.494 112.474Z" fill="#263238"/>
<path d="M58.9174 196.99C59.0116 197.523 58.946 198.071 58.7288 198.567C58.5115 199.062 58.1525 199.482 57.6968 199.773C57.2412 200.065 56.7095 200.215 56.1687 200.205C55.6279 200.194 55.1023 200.024 54.6581 199.715C54.214 199.406 53.8713 198.973 53.6732 198.47C53.4751 197.967 53.4305 197.416 53.545 196.887C53.6595 196.359 53.928 195.876 54.3167 195.499C54.7054 195.123 55.1967 194.871 55.7288 194.773C56.0838 194.708 56.4481 194.714 56.8009 194.791C57.1536 194.867 57.4877 195.013 57.784 195.219C58.0804 195.425 58.333 195.687 58.5275 195.991C58.7221 196.295 58.8546 196.635 58.9174 196.99Z" fill="#263238"/>
<path d="M113.064 114.004C112.732 112.684 112.506 111.341 112.389 109.985C112.045 107.484 111.618 104.058 111.203 100.182L111.654 100.419L111.334 100.585C107.778 102.387 104.613 103.975 102.277 105.101C101.042 105.761 99.7626 106.335 98.4487 106.82C99.5991 106.024 100.812 105.322 102.076 104.722C104.364 103.537 107.529 101.83 111.049 99.9807L111.369 99.8148L111.772 99.6133V100.052C112.211 103.892 112.566 107.366 112.792 109.878C112.984 111.245 113.075 112.624 113.064 114.004Z" fill="#263238"/>
<path d="M56.2742 272.924H6.27579C5.45345 272.926 4.63889 272.765 3.87885 272.451C3.1188 272.137 2.42823 271.676 1.84674 271.095C1.26526 270.513 0.804308 269.823 0.490333 269.063C0.176357 268.303 0.0155392 267.488 0.0171011 266.666V197.429C0.0155392 196.607 0.176357 195.792 0.490333 195.032C0.804308 194.272 1.26526 193.581 1.84674 193C2.42823 192.418 3.1188 191.957 3.87885 191.643C4.63889 191.329 5.45345 191.169 6.27579 191.17H37.9723L62.5329 216.478V266.666C62.5329 267.488 62.371 268.301 62.0565 269.061C61.7419 269.82 61.2809 270.51 60.6998 271.091C60.1186 271.672 59.4286 272.133 58.6693 272.448C57.91 272.762 57.0961 272.924 56.2742 272.924Z" fill="#3780EF"/>
<path d="M37.9717 191.17V210.717C37.9717 212.26 38.5849 213.741 39.6764 214.832C40.7678 215.924 42.2482 216.537 43.7918 216.537H62.5323L37.9717 191.17Z" fill="#3780EF"/>
<path opacity="0.2" d="M38.2808 212.365C38.2948 213.841 38.8124 215.268 39.7478 216.411C40.6832 217.553 41.9806 218.342 43.4252 218.647C43.6278 218.703 43.8337 218.746 44.0416 218.777C46.4834 219.216 62.5925 222.084 62.5925 221.717V216.478H43.7927C43.7927 216.478 39.1105 216.324 38.2808 212.365Z" fill="black"/>
<path d="M56.274 272.924C56.274 272.924 56.6414 272.924 57.3526 272.794C58.7196 272.546 59.9633 271.845 60.8836 270.805C61.8038 269.764 62.3471 268.444 62.426 267.057C62.426 265.042 62.426 262.695 62.426 260.087C62.426 249.596 62.426 234.602 62.3548 216.478V216.596L37.8298 191.312L37.972 191.372H7.66241C6.8712 191.341 6.07881 191.369 5.29169 191.455C4.5082 191.585 3.75818 191.868 3.08481 192.29C2.41143 192.711 1.82802 193.261 1.36816 193.908C0.716542 194.807 0.330467 195.871 0.253916 196.978C0.253916 198.093 0.253916 199.254 0.253916 200.38V220.342C0.253916 228.995 0.253916 237.34 0.253916 245.294C0.253916 249.276 0.253916 253.153 0.253916 256.922V265.219C0.211043 266.098 0.246751 266.979 0.360603 267.851C0.528978 268.682 0.867617 269.469 1.3552 270.163C1.84278 270.856 2.46873 271.441 3.19361 271.881C3.92085 272.31 4.72715 272.589 5.56433 272.699C6.38565 272.741 7.20855 272.741 8.02987 272.699H17.5127L45.9613 272.77L17.5127 272.841H8.02987C7.19155 272.864 6.35259 272.841 5.51691 272.77C4.67715 272.649 3.87069 272.358 3.14619 271.917C2.37756 271.457 1.71298 270.842 1.19466 270.111C0.676345 269.381 0.315617 268.551 0.135382 267.673C0.0134098 266.778 -0.0262662 265.873 0.016848 264.971C0.016848 264.07 0.016848 263.169 0.016848 262.256V256.946C0.016848 253.176 0.016848 249.3 0.016848 245.317C0.016848 237.364 0.016848 229.019 0.016848 220.366V200.392C0.016848 199.207 0.016848 198.14 0.016848 196.967C0.11697 195.517 0.702507 194.144 1.67893 193.069C2.65535 191.994 3.96568 191.279 5.39838 191.04C6.22045 190.944 7.04876 190.912 7.87577 190.945H38.055C46.8978 200.06 55.1716 208.607 62.5919 216.276V216.347C62.5919 234.471 62.5919 249.466 62.5089 259.956C62.5089 262.576 62.5089 264.899 62.5089 266.938C62.4185 268.351 61.8526 269.691 60.9035 270.742C59.9544 271.792 58.6778 272.49 57.2815 272.723C57.0112 272.768 56.7377 272.792 56.4636 272.794L56.274 272.924Z" fill="#263238"/>
<path d="M62.5326 216.478C62.3712 216.498 62.208 216.498 62.0466 216.478H60.6716L55.5864 216.549H48.0594H43.6143C42.3645 216.51 41.1576 216.084 40.1598 215.33C39.162 214.577 38.4225 213.532 38.0431 212.341C37.8128 211.573 37.7166 210.771 37.7586 209.97C37.7586 208.429 37.7586 206.947 37.7586 205.525C37.7586 202.704 37.7586 200.155 37.7586 197.998C37.7586 195.84 37.7586 194.181 37.8297 192.924C37.8297 192.356 37.8297 191.905 37.8297 191.538C37.8099 191.38 37.8099 191.221 37.8297 191.063C37.842 191.221 37.842 191.38 37.8297 191.538C37.8297 191.905 37.8297 192.356 37.8297 192.924C37.8297 194.181 37.8297 195.9 37.9009 197.998C37.972 200.096 37.9009 202.739 37.9009 205.525C37.9009 206.947 37.9009 208.429 37.9009 209.97C37.8623 210.734 37.9504 211.499 38.1616 212.234C38.519 213.342 39.2091 214.313 40.1381 215.015C41.0671 215.717 42.1898 216.116 43.3535 216.158H47.7867H55.3138L60.399 216.229H61.774C62.0364 216.279 62.2914 216.363 62.5326 216.478Z" fill="#263238"/>
<path d="M37.0238 208.559C37.0238 208.678 31.097 208.773 23.8307 208.773C16.5645 208.773 10.6377 208.678 10.6377 208.559C10.6377 208.441 16.5645 208.346 23.8307 208.346C31.097 208.346 37.0238 208.441 37.0238 208.559Z" fill="#263238"/>
<path d="M49.553 218.279C49.553 218.398 40.8406 218.493 30.0894 218.493C19.3382 218.493 10.6377 218.398 10.6377 218.279C10.6377 218.161 19.3382 218.066 30.0894 218.066C40.8406 218.066 49.553 218.161 49.553 218.279Z" fill="#263238"/>
<path d="M49.553 227.999C49.553 228.118 40.8406 228.212 30.0894 228.212C19.3382 228.212 10.6377 228.118 10.6377 227.999C10.6377 227.88 19.3382 227.786 30.0894 227.786C40.8406 227.786 49.553 227.88 49.553 227.999Z" fill="#263238"/>
<path d="M49.553 237.719C49.553 237.838 40.8406 237.932 30.0894 237.932C19.3382 237.932 10.6377 237.838 10.6377 237.719C10.6377 237.6 19.3382 237.506 30.0894 237.506C40.8406 237.506 49.553 237.6 49.553 237.719Z" fill="#263238"/>
<path d="M49.553 247.463C49.553 247.581 40.8406 247.676 30.0894 247.676C19.3382 247.676 10.6377 247.581 10.6377 247.463C10.6377 247.344 19.3382 247.249 30.0894 247.249C40.8406 247.249 49.553 247.32 49.553 247.463Z" fill="#263238"/>
<path d="M49.553 257.159C49.553 257.278 40.8406 257.373 30.0894 257.373C19.3382 257.373 10.6377 257.278 10.6377 257.159C10.6377 257.041 19.3145 256.946 30.0894 256.946C40.8643 256.946 49.553 257.041 49.553 257.159Z" fill="#263238"/>
</svg>
