<svg width="77" height="100" viewBox="0 0 77 100" fill="none" xmlns="http://www.w3.org/2000/svg">
<path d="M68.7227 99.9997H7.64552C6.64097 100.002 5.64592 99.8052 4.71746 99.4216C3.789 99.0381 2.9454 98.475 2.23507 97.7647C1.52474 97.0543 0.961653 96.2107 0.578106 95.2823C0.194559 94.3538 -0.00189423 93.3588 1.37658e-05 92.3542V7.77571C-0.00189423 6.77115 0.194559 5.77611 0.578106 4.84765C0.961653 3.91919 1.52474 3.07561 2.23507 2.36528C2.9454 1.65495 3.789 1.09184 4.71746 0.708294C5.64592 0.324747 6.64097 0.128294 7.64552 0.130202H46.3654L76.3682 31.0453V92.3542C76.3682 93.3582 76.1705 94.3524 75.7863 95.28C75.402 96.2076 74.8389 97.0505 74.1289 97.7604C73.419 98.4704 72.5761 99.0335 71.6486 99.4178C70.721 99.802 69.7268 99.9997 68.7227 99.9997Z" fill="white" fill-opacity="0.5"/>
<path d="M46.3662 0.130188V24.0079C46.3662 25.8936 47.1153 27.702 48.4486 29.0353C49.782 30.3686 51.5903 31.1177 53.476 31.1177H76.3691L46.3662 0.130188Z" fill="white" fill-opacity="0.5"/>
<path opacity="0.2" d="M46.7412 26.0196C46.7584 27.8232 47.3906 29.5669 48.5333 30.9624C49.676 32.3579 51.2608 33.3215 53.0256 33.6941C53.2731 33.7624 53.5246 33.8156 53.7786 33.8534C56.7615 34.3891 76.44 37.8933 76.44 37.4444V31.0442H53.4745C53.4745 31.0442 47.7548 30.856 46.7412 26.0196Z" fill="black"/>
<path d="M76.369 31.0454C76.1718 31.0701 75.9724 31.0701 75.7753 31.0454H74.0956L67.8836 31.1323H58.6887H53.2587C51.7319 31.0845 50.2576 30.5645 49.0387 29.6439C47.8199 28.7232 46.9165 27.4473 46.453 25.9918C46.1717 25.0536 46.0541 24.0739 46.1055 23.0958C46.1055 21.2134 46.1055 19.4034 46.1055 17.6658C46.1055 14.2195 46.1055 11.1063 46.1055 8.47089C46.1055 5.8355 46.1055 3.80829 46.1924 2.27339C46.1924 1.57835 46.1924 1.0281 46.1924 0.579219C46.1681 0.38691 46.1681 0.192308 46.1924 0C46.2073 0.19278 46.2073 0.386439 46.1924 0.579219C46.1924 1.0281 46.1924 1.57835 46.1924 2.27339C46.1924 3.80829 46.1923 5.9079 46.2792 8.47089C46.3661 11.0339 46.2792 14.2629 46.2792 17.6658C46.2792 19.4034 46.2792 21.2134 46.2792 23.0958C46.2322 24.029 46.3398 24.9635 46.5978 25.8615C47.0343 27.2153 47.8774 28.4017 49.0122 29.2593C50.147 30.1169 51.5185 30.6041 52.9401 30.6544H58.3557H67.5506L73.7625 30.7413H75.4422C75.7628 30.8027 76.0743 30.9049 76.369 31.0454Z" fill="#263238"/>
<path d="M45.2079 21.3714C45.2079 21.5162 37.9678 21.6321 29.0915 21.6321C20.2152 21.6321 12.9751 21.5162 12.9751 21.3714C12.9751 21.2266 20.2152 21.1108 29.0915 21.1108C37.9678 21.1108 45.2079 21.2266 45.2079 21.3714Z" fill="#263238"/>
<path d="M60.5134 33.2464C60.5134 33.3912 49.8705 33.507 36.737 33.507C23.6035 33.507 12.9751 33.3912 12.9751 33.2464C12.9751 33.1016 23.6035 32.9857 36.737 32.9857C49.8705 32.9857 60.5134 33.1016 60.5134 33.2464Z" fill="#263238"/>
<path d="M60.5134 45.1189C60.5134 45.2637 49.8705 45.3796 36.737 45.3796C23.6035 45.3796 12.9751 45.2637 12.9751 45.1189C12.9751 44.9741 23.6035 44.8583 36.737 44.8583C49.8705 44.8583 60.5134 44.9741 60.5134 45.1189Z" fill="#263238"/>
<path d="M60.5134 56.9938C60.5134 57.1386 49.8705 57.2545 36.737 57.2545C23.6035 57.2545 12.9751 57.1386 12.9751 56.9938C12.9751 56.849 23.6035 56.7332 36.737 56.7332C49.8705 56.7332 60.5134 56.849 60.5134 56.9938Z" fill="#263238"/>
<path d="M60.5134 68.8957C60.5134 69.0405 49.8705 69.1563 36.737 69.1563C23.6035 69.1563 12.9751 69.0405 12.9751 68.8957C12.9751 68.7509 23.6035 68.6351 36.737 68.6351C49.8705 68.6351 60.5134 68.7219 60.5134 68.8957Z" fill="#263238"/>
<path d="M60.5134 80.7413C60.5134 80.8861 49.8705 81.002 36.737 81.002C23.6035 81.002 12.9751 80.8861 12.9751 80.7413C12.9751 80.5965 23.5746 80.4807 36.737 80.4807C49.8994 80.4807 60.5134 80.5965 60.5134 80.7413Z" fill="#263238"/>
</svg>
