<svg width="302" height="300" viewBox="0 0 302 300" fill="none" xmlns="http://www.w3.org/2000/svg">
<path d="M218.758 74.0627C216.677 63.9965 206.421 31.2831 162.191 33.1472C140.221 34.0691 128.088 44.4674 121.77 53.0288C117.659 58.5573 114.747 64.8835 113.222 71.6021L113.175 71.88H88.6702V71.5411C88.6702 71.4394 88.6702 61.5088 89.7412 56.5265L90.419 56.6621C89.4904 61.0614 89.3751 69.4194 89.3616 71.2022H112.626C114.206 64.4999 117.13 58.1882 121.221 52.6492C127.6 43.959 139.91 33.4048 162.17 32.4693C180.303 31.7101 194.816 36.6585 205.282 47.1856C214.738 56.6757 218.202 68.023 219.422 73.9272L218.758 74.0627Z" fill="#3780EF"/>
<path d="M178.093 231.123H141.414V126.658L141.814 126.732C176.46 132.833 191.495 117.486 197.399 107.793C204.34 96.344 205.533 82.5293 200.652 70.843C197.595 63.6306 188.071 46.9078 164.882 47.301C153.535 47.4975 138.289 51.0766 130.067 67.0131C127.054 73.0072 125.353 79.5747 125.078 86.2778V86.6168H79.065V86.2846C79.0243 82.4073 79.065 69.2568 79.065 69.128V68.7484L84.7386 69.3449V77.8046L117.954 77.7571C119.387 70.811 122.149 64.2073 126.088 58.3094C132.074 49.4294 143.563 38.8955 164.204 38.8955H164.882C179.998 39.0582 192.471 44.3726 200.958 54.2693C210.102 64.9321 212.868 79.0112 211.546 88.2436C211.546 88.4199 210.678 109.664 194.714 123.811C183.577 133.687 167.898 137.843 148.105 136.161V168.638H154.938V142.696L155.304 142.73C161.493 143.057 167.699 142.588 173.769 141.334C183.082 139.422 195.935 134.724 204.272 123.18C219.219 102.424 219.382 90.6907 219.497 82.1226C219.497 81.4447 219.497 80.7668 219.497 80.089L219.422 78.3808H229.59V78.6858C229.59 78.9027 231.217 100.065 213.579 123.811C202.605 138.581 189.746 148.099 177.375 150.593L177.246 149.915C189.447 147.455 202.157 138.032 213.037 123.391C229.353 101.428 229.055 81.7294 228.933 79.0451H220.121L220.161 80.0687C220.161 80.7465 220.161 81.4244 220.161 82.1022C220.039 90.7585 219.877 102.621 204.815 123.547C196.368 135.273 183.34 140.039 173.897 141.978C167.88 143.211 161.731 143.689 155.595 143.401V169.316H147.434V135.423L147.8 135.457C167.566 137.199 183.204 133.111 194.267 123.309C210.014 109.359 210.875 88.3995 210.881 88.1894C212.183 79.0722 209.458 65.21 200.456 54.71C192.098 44.9759 179.795 39.7428 164.882 39.5801C144.099 39.3565 132.623 49.8429 126.644 58.6754C122.674 64.572 119.91 71.1951 118.51 78.1639L118.462 78.4486L84.0201 78.496V69.9482L79.7021 69.4941C79.7021 71.6158 79.7021 82.109 79.7021 85.9321H124.387C124.715 79.2457 126.433 72.701 129.43 66.7148C134.087 57.7468 143.983 46.9756 164.882 46.6231H165.709C188.682 46.6231 198.205 63.3391 201.249 70.5922C206.238 82.4818 205.004 96.5271 197.948 108.159C192.918 116.449 181.306 128.813 156.822 128.82C151.882 128.79 146.954 128.336 142.092 127.465V230.445H178.093V231.123Z" fill="#3780EF"/>
<path d="M187.583 230.784H186.906V169.777L187.156 169.709C187.319 169.668 203.242 165.445 218.948 152.722C233.434 140.981 250.699 119.405 250.699 83.2275C250.699 54.8049 239.175 31.9814 217.484 17.2041C199.527 5.0026 177.944 0.67108 164.923 0.67108C145.705 0.67108 99.3669 5.56522 84.1218 50.8665C82.8988 55.0033 81.9678 59.221 81.3358 63.4883L80.658 63.3934C81.2909 59.0989 82.2241 54.8542 83.4507 50.6903C98.8381 4.94159 145.536 0 164.882 0C177.998 0 199.737 4.36541 217.829 16.6482C239.765 31.5611 251.363 54.6083 251.363 83.2343C251.363 119.683 233.949 141.435 219.341 153.257C209.924 160.892 199.142 166.671 187.57 170.285L187.583 230.784Z" fill="#3780EF"/>
<path d="M182.54 191.556H181.862L181.91 164.286L182.194 164.238C182.269 164.238 189.881 163.005 199.751 157.677C208.861 152.755 221.808 143.238 231.78 125.817C246.015 100.947 243.418 81.804 243.391 81.6142C241.71 57.0622 232.051 37.9533 214.691 24.7825C196.558 11.022 175.66 8.10043 164.821 7.57848C156.348 7.17176 141.597 8.59527 127.932 13.9571C109.406 21.2238 97.1094 33.5337 91.3883 50.5615L90.7104 50.3446C96.4994 33.1338 108.931 20.6883 127.647 13.3471C141.414 7.92419 156.28 6.51424 164.821 6.92096C175.734 7.44291 196.789 10.3984 215.07 24.2674C232.593 37.5602 242.334 56.8385 244.029 81.56C244.029 81.7295 246.679 101.089 232.329 126.17C222.276 143.76 209.207 153.359 200.015 158.321C191.128 163.12 184.038 164.618 182.554 164.896L182.54 191.556Z" fill="#3780EF"/>
<path d="M182.486 224.961H155.283V224.283H181.808L181.842 203.208H182.52L182.486 224.961Z" fill="#3780EF"/>
<path d="M155.283 224.961H147.996V177.05H155.622V218.935H154.944V177.728H148.674V224.283H155.283V224.961Z" fill="#3780EF"/>
<path d="M108.22 63.7867H96.0657V63.4342C96.4588 50.6701 101.719 42.3053 106.064 37.54C108.631 34.6635 111.671 32.2471 115.053 30.3953L108.62 24.8233L109.06 24.3149L116.307 30.558L115.825 30.7749C115.649 30.8631 97.679 39.3702 96.7842 63.1088H107.942C108.477 60.7363 112.761 43.6068 124.4 39.099L120.604 35.0997C119.187 35.5335 109.697 39.038 104.43 56.5268L103.753 56.3302C109.582 37.1333 120.191 34.5167 120.638 34.4218L120.828 34.3811L125.62 39.3905L125.125 39.5668C112.687 43.9118 108.62 63.3189 108.552 63.5155L108.498 63.7867H108.22Z" fill="#3780EF"/>
<path d="M128.65 35.2148L113.527 21.156L113.988 20.6544L128.644 34.2861C130.554 32.6782 132.655 31.3122 134.9 30.219C141.153 27.1926 147.942 25.4326 154.877 25.0401C173.179 23.7522 186.201 27.2093 191.983 30.6325L197.006 22.2202C193.128 20.5188 157.303 5.63304 128.04 22.5795L127.701 21.9898C158.835 3.9655 197.25 21.5763 197.636 21.7593L197.975 21.9152L192.213 31.6018L191.922 31.4188C186.384 27.9888 173.375 24.4504 154.924 25.7519C137.354 26.9653 128.955 34.9098 128.881 34.9911L128.65 35.2148Z" fill="#3780EF"/>
<path d="M175.809 215.959H175.131L176.161 158.199H176.494C195.935 158.056 223.096 130.284 230.871 108.498C241.717 78.096 232.905 56.8044 223.591 44.2979C217.464 36.1369 209.705 29.3407 200.808 24.3418L195.874 33.2963C199.202 34.7062 224.405 46.3044 224.615 73.5204L235.311 73.6018V74.2796L223.944 74.1915V73.8526C223.944 45.091 195.562 33.8928 195.277 33.7776L194.911 33.642L200.537 23.4741L200.808 23.5758C209.921 28.6066 217.862 35.5149 224.106 43.8438C233.522 56.4858 242.449 78.0011 231.495 108.701C227.116 120.971 218.04 133.782 206.584 143.753C195.982 153.02 184.892 158.632 176.819 158.843L175.809 215.959Z" fill="#3780EF"/>
<path d="M170.122 216.291H160.869L160.876 215.946L161.953 156.294L161.926 152.322H170.278V208.767H169.6V153H162.604L162.631 156.301L161.56 215.613H170.122V216.291Z" fill="#3780EF"/>
<path d="M229.089 143.557C228.513 142.879 224.784 139.09 223.856 138.134L223.761 138.032L223.659 137.938C223.608 137.901 223.572 137.848 223.556 137.787C223.54 137.727 223.545 137.662 223.571 137.605L223.829 137.368C223.903 137.368 223.951 137.368 224.113 137.483L224.303 137.68C224.656 138.005 225.3 138.663 226.587 139.971C228.296 141.706 229.299 142.764 229.597 143.123L229.089 143.557Z" fill="#3780EF"/>
<path d="M207.575 11.4656L203.407 16.751L203.939 17.1707L208.108 11.8854L207.575 11.4656Z" fill="#3780EF"/>
<path d="M205.377 83.5665C204.835 83.5665 204.313 83.5665 203.859 83.5665V82.8886C204.937 82.9293 206.326 82.8886 207.675 82.8886C209.024 82.8886 210.434 82.8547 211.525 82.8886V83.5665C210.448 83.5326 209.051 83.5665 207.702 83.5665H205.377Z" fill="#3780EF"/>
<path d="M100.411 78.2183H99.7329V85.973H100.411V78.2183Z" fill="#3780EF"/>
<path d="M163.181 39.7563H162.503V46.4265H163.181V39.7563Z" fill="#3780EF"/>
<path d="M224.028 122.939L223.756 123.56L231.525 126.96L231.796 126.339L224.028 122.939Z" fill="#3780EF"/>
<path d="M191.946 134.758L191.407 135.169L196.354 141.644L196.892 141.232L191.946 134.758Z" fill="#3780EF"/>
<path d="M247.683 57.6727L239.728 59.8833L239.91 60.5364L247.864 58.3258L247.683 57.6727Z" fill="#3780EF"/>
<path d="M188.133 283.989H141.292V248.354H141.97V283.311H187.455V240.87H141.631V240.192H188.133V283.989Z" fill="#3780EF"/>
<path d="M182.52 276.607H147.996V255.614H175.809V268.141H155.283V262.101H168.732V262.779H155.961V267.463H175.131V256.292H148.674V275.929H181.842V248.95H141.631V248.272H182.52V276.607Z" fill="#3780EF"/>
<path d="M156.693 276.268H156.015V283.643H156.693V276.268Z" fill="#3780EF"/>
<path d="M187.794 260.027H182.181V260.705H187.794V260.027Z" fill="#3780EF"/>
<path d="M161.554 255.953H160.876V262.094H161.554V255.953Z" fill="#3780EF"/>
<path d="M148.335 265.992H141.631V266.67H148.335V265.992Z" fill="#3780EF"/>
<path d="M108.355 73.7783L105.983 74.3681L105 75.2425L106.308 75.5747L109.189 74.7477L108.355 73.7783Z" fill="#455A64"/>
<path d="M116.957 74.8834L113.365 70.5044H109.704L107.386 73.2158C107.401 73.3692 107.449 73.5173 107.528 73.6497C107.103 73.5295 106.648 73.5806 106.261 73.792L108.369 79.3776L112.382 83.3973L117.459 81.9805L116.957 74.8834ZM111.426 76.9169L109.548 76.029C109.27 75.2383 108.805 74.5266 108.193 73.9547C108.256 73.9613 108.319 73.9613 108.382 73.9547C108.632 73.9135 108.872 73.831 109.094 73.7107C110.701 72.9108 111.128 72.7346 111.128 72.7346L112.151 74.6054L111.426 76.9169Z" fill="#FFBE9D"/>
<path d="M114.165 73.5408C113.676 73.1659 113.258 72.7068 112.931 72.1851C112.518 71.7209 112.196 71.1827 111.982 70.5989C112.056 70.5379 112.612 71.1547 113.216 71.9546C113.632 72.4166 113.954 72.9554 114.165 73.5408Z" fill="#EB996E"/>
<path d="M111.426 76.9302C110.727 76.822 110.043 76.6262 109.393 76.3472H109.318V76.2591C109.209 75.8834 109.061 75.5199 108.877 75.1745C108.719 74.8384 108.495 74.5371 108.22 74.2881C107.944 74.039 107.621 73.8473 107.271 73.7239C106.96 73.6937 106.646 73.7144 106.342 73.7849C106.342 73.7849 106.397 73.69 106.559 73.6086C106.79 73.4935 107.048 73.4465 107.305 73.4731C107.714 73.571 108.095 73.7595 108.421 74.0246C108.748 74.2898 109.01 74.6248 109.189 75.005C109.389 75.3748 109.539 75.769 109.637 76.1777L109.535 76.0625C110.196 76.2789 110.831 76.57 111.426 76.9302Z" fill="#EB996E"/>
<path d="M108.932 74.8154L117.296 72.5988C117.375 72.5778 117.448 72.5413 117.512 72.4914C117.575 72.4415 117.628 72.3792 117.668 72.3084C117.707 72.2375 117.731 72.1595 117.74 72.079C117.748 71.9985 117.74 71.917 117.717 71.8396C117.673 71.7008 117.58 71.5828 117.455 71.5079C117.33 71.4329 117.182 71.4063 117.039 71.4329L108.132 73.8461C108.449 74.124 108.719 74.4513 108.932 74.8154Z" fill="#455A64"/>
<path d="M44.901 179.517L49.9714 176.772L50.1612 178.656L47.6125 188.241C46.7931 186.89 46.1334 185.447 45.6467 183.944C45.6467 183.944 44.8333 180.378 44.8333 180.121C44.8362 179.917 44.8635 179.714 44.9146 179.517" fill="#FFBE9D"/>
<path d="M86.4131 279.264L87.274 299.668L98.2892 299.424L97.469 278.979L86.4131 279.264Z" fill="#455A64"/>
<path d="M92.6833 298.787C92.7782 298.787 92.6087 294.313 92.3037 288.809C91.9987 283.305 91.6801 278.844 91.592 278.851C91.5038 278.858 91.6665 283.318 91.9716 288.829C92.2766 294.34 92.5952 298.787 92.6833 298.787Z" fill="#263238"/>
<path d="M87.2197 298.265L98.2349 297.98L98.2892 299.424L87.274 299.668L87.2197 298.265Z" fill="#263238"/>
<path d="M98.0316 292.889C97.954 292.729 97.851 292.583 97.7266 292.456C96.9455 291.543 95.9674 290.82 94.866 290.341C94.0474 289.989 93.1599 289.827 92.2698 289.866C91.4644 289.901 90.6751 290.103 89.9517 290.459C89.2283 290.815 88.5866 291.317 88.0671 291.934C87.7586 292.307 87.5053 292.722 87.3147 293.167C87.231 293.325 87.1802 293.498 87.1655 293.676C87.4776 293.116 87.8382 292.586 88.2433 292.089C89.296 290.947 90.7587 290.27 92.3105 290.205C93.8544 290.181 95.3596 290.689 96.5742 291.642C97.5096 292.347 97.9842 292.93 98.0316 292.889Z" fill="#263238"/>
<g opacity="0.3">
<path d="M86.6775 287.507L86.8402 289.324H97.8825L97.8147 287.507H86.6775Z" fill="black"/>
</g>
<path d="M49.2732 280.695L48.88 292.93C48.88 292.93 36.5701 297.587 36.4888 299.891L60.5392 299.586L61.1018 280.484L49.2732 280.695Z" fill="#455A64"/>
<path d="M56.1534 291.757C56.3886 291.824 56.5911 291.975 56.7223 292.181C56.8535 292.387 56.9044 292.635 56.8652 292.876C56.807 293.113 56.66 293.319 56.4545 293.452C56.249 293.584 56.0005 293.633 55.7603 293.588C55.511 293.518 55.2967 293.357 55.1589 293.138C55.0211 292.919 54.9697 292.656 55.0146 292.401C55.101 292.161 55.2765 291.963 55.5049 291.848C55.7332 291.733 55.997 291.71 56.2416 291.785" fill="#E0E0E0"/>
<path d="M60.5391 299.587V298.041L37.1733 298.787C36.963 298.923 36.7828 299.101 36.6441 299.31C36.5053 299.518 36.4109 299.753 36.3667 300L60.5391 299.587Z" fill="#263238"/>
<path d="M48.6631 293.011C48.6631 293.133 49.2664 293.174 49.8561 293.54C50.4459 293.906 50.7712 294.394 50.8797 294.347C50.9882 294.299 50.7916 293.615 50.0663 293.188C49.341 292.761 48.636 292.903 48.6631 293.011Z" fill="#263238"/>
<path d="M46.1414 294.123C46.1414 294.238 46.6362 294.428 47.0497 294.923C47.4632 295.418 47.592 295.94 47.7275 295.933C47.8631 295.926 47.9106 295.255 47.3818 294.652C46.8531 294.049 46.1414 294.042 46.1414 294.123Z" fill="#263238"/>
<path d="M44.7655 297.208C44.874 297.208 45.0231 296.631 44.7045 295.994C44.3859 295.357 43.8233 295.106 43.7758 295.201C43.7284 295.296 44.0809 295.642 44.3384 296.177C44.596 296.713 44.6503 297.201 44.7655 297.208Z" fill="#263238"/>
<path d="M48.8123 290.144C48.8597 290.252 49.402 290.076 50.0731 290.103C50.7442 290.13 51.2729 290.334 51.3339 290.232C51.3949 290.13 50.8798 289.717 50.0867 289.697C49.2936 289.676 48.7513 290.056 48.8123 290.144Z" fill="#263238"/>
<path d="M48.2903 287.48C48.6902 287.58 49.11 287.569 49.5037 287.446C49.9397 287.359 50.3632 287.217 50.7645 287.026C50.9987 286.912 51.2252 286.783 51.4423 286.639C51.5784 286.561 51.7 286.461 51.8016 286.341C51.8774 286.255 51.9225 286.147 51.9299 286.033C51.9373 285.919 51.9064 285.805 51.8423 285.711C51.7799 285.632 51.7006 285.568 51.6103 285.523C51.5201 285.478 51.421 285.455 51.3203 285.453C51.164 285.458 51.009 285.483 50.8594 285.528C50.6027 285.597 50.353 285.69 50.1137 285.806C49.706 285.996 49.3326 286.252 49.0088 286.565C48.4597 287.1 48.2767 287.548 48.331 287.568C48.3852 287.588 48.6495 287.229 49.2122 286.789C49.54 286.531 49.9 286.316 50.2832 286.151C50.5013 286.053 50.7283 285.976 50.961 285.921C51.2186 285.846 51.4355 285.84 51.5033 285.921C51.5711 286.002 51.5033 285.982 51.5033 286.063C51.4243 286.144 51.3355 286.215 51.239 286.273C51.0343 286.414 50.8215 286.543 50.6018 286.66C50.2294 286.855 49.839 287.014 49.4359 287.134C49.0466 287.223 48.6638 287.339 48.2903 287.48Z" fill="#263238"/>
<g opacity="0.3">
<path d="M60.8914 287.656L60.8101 290.476L48.9543 290.659L49.0628 288.104L60.8914 287.656Z" fill="black"/>
</g>
<path d="M55.9027 83.6682L61.7323 108.342L75.6013 106.499L74.5845 98.6286C74.5845 98.6286 79.6413 98.7099 80.082 93.9513C80.2243 92.3652 78.9906 85.3561 77.7772 78.9978C77.4993 77.5439 76.9356 76.1597 76.1188 74.9254C75.3019 73.691 74.2482 72.6311 73.0187 71.807C71.7892 70.9829 70.4083 70.411 68.9561 70.1246C67.504 69.8381 66.0094 69.8427 64.559 70.1382C63.0909 70.4367 61.6978 71.0272 60.4623 71.8746C59.2268 72.7219 58.1741 73.8088 57.3667 75.0708C56.5593 76.3327 56.0137 77.744 55.7622 79.2209C55.5107 80.6978 55.5585 82.2101 55.9027 83.6682Z" fill="#FFBE9D"/>
<path d="M68.7006 69.257C69.8937 69.6908 69.5886 70.2806 69.8394 70.8161C70.0902 71.3516 71.1341 71.3109 72.1645 71.7176C73.1948 72.1243 75.5538 74.0156 76.1842 75.195C76.8146 76.3745 76.435 76.5169 76.3198 77.1812C76.2045 77.8455 77.1535 81.1738 77.2891 81.7635C77.5467 82.882 78.0415 86.1764 78.0415 86.1764L77.0451 86.6983C77.0451 86.6983 76.5231 83.0921 75.3504 83.1124C74.1777 83.1328 73.8862 84.3597 73.832 84.6919C73.4836 85.1991 73.2266 85.7635 73.0728 86.3594C72.8152 87.932 72.9305 90.23 72.8152 91.6738C72.6322 93.904 70.1851 97.2051 70.1851 97.2051L59.3394 98.2084C59.3394 98.2084 54.4249 87.0915 54.1063 84.1902C53.7877 81.289 54.8994 77.4116 56.5263 74.7951C57.3205 73.6726 58.2911 72.686 59.4004 71.8735C60.1889 71.3284 61.0133 70.837 61.8678 70.4026C63.7406 69.4791 65.8243 69.0675 67.9075 69.2096L68.7006 69.257Z" fill="#263238"/>
<path d="M77.113 90.264C77.113 90.264 77.113 90.4402 76.8757 90.6639C76.5676 90.9704 76.1512 91.1433 75.7166 91.1452C75.3937 91.1371 75.0762 91.0603 74.7852 90.9201C74.4942 90.7799 74.2363 90.5793 74.0287 90.3318C73.5446 89.7273 73.2478 88.9946 73.1746 88.2236C72.9668 86.8566 73.1821 85.4587 73.7915 84.2175C73.986 83.8397 74.2787 83.5212 74.6388 83.2956C74.7631 83.2044 74.9118 83.1525 75.0659 83.1465C74.615 83.4418 74.2502 83.851 74.0084 84.3327C73.4978 85.5453 73.3313 86.8752 73.5271 88.1762C73.5893 88.8806 73.8503 89.5529 74.2795 90.1149C74.4521 90.3372 74.6689 90.5212 74.9163 90.6554C75.1637 90.7896 75.4362 90.871 75.7166 90.8944C76.1012 90.9101 76.4794 90.7928 76.7876 90.5623C77.0045 90.3928 77.0859 90.2504 77.113 90.264Z" fill="#EB996E"/>
<path d="M75.8113 88.6503C75.8452 88.6503 75.5809 88.8536 75.208 88.6503C75.0058 88.4975 74.8435 88.2982 74.7349 88.0692C74.6264 87.8403 74.5747 87.5885 74.5844 87.3352C74.5777 86.8426 74.7431 86.3632 75.0521 85.9795C75.2894 85.688 75.5063 85.5999 75.5334 85.6338C75.1914 86.1371 74.988 86.7216 74.9437 87.3285C74.9328 87.5316 74.9632 87.7349 75.0331 87.926C75.103 88.117 75.211 88.292 75.3504 88.4401C75.5809 88.6096 75.8046 88.5757 75.8113 88.6503Z" fill="#EB996E"/>
<path d="M51.9237 169.553L46.8262 190.763V289.859L62.1051 290.313L63.4608 231.394L71.141 194.932L78.211 232.404L85.3082 288.808L98.9128 288.415C98.9128 288.415 96.6013 264.541 97.0081 257.871C97.4148 251.201 94.6288 230.18 94.6288 230.18C94.6288 230.18 95.0626 195.088 94.3373 190.865C93.5171 186.12 92.8257 170.719 92.8257 170.115L51.9237 169.553Z" fill="#263238"/>
<path d="M71.1205 195.142C70.3063 195.368 69.4803 195.549 68.6463 195.684C67.1211 195.996 65.0198 196.477 62.7354 197.142C60.451 197.806 58.4107 198.497 56.9533 199.08C55.4959 199.663 54.5943 199.996 54.574 199.948C54.758 199.813 54.9585 199.701 55.1705 199.616C55.5569 199.419 56.1398 199.155 56.8584 198.85C58.7426 198.061 60.671 197.382 62.6337 196.816C64.5973 196.253 66.5911 195.8 68.6057 195.461C69.3784 195.332 70.0088 195.251 70.4426 195.203C70.6642 195.148 70.8928 195.128 71.1205 195.142Z" fill="#455A64"/>
<path d="M86.3928 193.271C86.2206 193.384 86.0335 193.473 85.837 193.535C85.4777 193.684 84.9354 193.874 84.2643 194.091C80.7571 195.178 77.0855 195.637 73.4186 195.447C72.7407 195.413 72.151 195.359 71.7578 195.305C71.5516 195.295 71.3481 195.254 71.1545 195.183C71.9132 195.143 72.6735 195.143 73.4321 195.183C75.2446 195.197 77.0561 195.093 78.855 194.871C80.6617 194.638 82.4507 194.285 84.2101 193.813C84.9278 193.595 85.6563 193.414 86.3928 193.271Z" fill="#455A64"/>
<path d="M85.2744 209.479C85.2067 209.547 81.9868 206.442 78.0756 202.544C74.1643 198.647 71.053 195.427 71.1275 195.359C71.2021 195.291 74.4151 198.396 78.3264 202.293C82.2376 206.191 85.349 209.411 85.2744 209.479Z" fill="#455A64"/>
<path d="M51.0085 173.342L57.5363 173.111L58.3362 169.641L51.9237 169.553L51.0085 173.342Z" fill="#455A64"/>
<path d="M60.4104 169.668L59.8071 173.342H82.7323L82.7933 169.973L60.4104 169.668Z" fill="#455A64"/>
<path d="M84.759 170V173.342H92.9543L92.812 170.116L84.759 170Z" fill="#455A64"/>
<path d="M56.7092 246.47C56.6143 246.47 55.4348 242.843 54.0791 238.336C52.7234 233.828 51.6863 230.1 51.7812 230.072C51.8761 230.045 53.0555 233.699 54.418 238.207C55.7805 242.714 56.8041 246.443 56.7092 246.47Z" fill="#455A64"/>
<path d="M88.4536 243.114C87.2536 241.6 86.1445 240.015 85.1321 238.369C84.0226 236.78 83.0107 235.126 82.1021 233.414C83.3076 234.926 84.4191 236.511 85.4303 238.159C86.5363 239.749 87.5458 241.404 88.4536 243.114Z" fill="#455A64"/>
<path d="M53.7132 111.454C53.7132 111.454 44.8604 115.148 43.7351 119.059C42.4946 123.397 41.2203 132.942 41.2203 132.942V158.077C41.2203 158.077 39.3155 166.55 39.6747 170.116C40.034 173.681 43.891 180.005 43.891 180.005L50.1341 176.975L52.0863 168.129L52.4524 141.144L51.7745 127.77L53.7132 111.454Z" fill="#3780EF"/>
<path d="M53.7133 111.454L59.5971 106.75L59.8818 102.743L75.032 100.174L76.7605 103.564L83.5391 105.401L88.0943 104.045L89.206 106.641L94.8729 124.015L90.5888 149.509C90.5888 149.509 93.1308 163.066 92.8054 170.102L51.917 169.54C50.8595 168.245 50.6968 165.933 50.907 163.202L50.3579 128.943L53.7133 111.454Z" fill="#3780EF"/>
<path d="M87.5314 109.732C87.4217 109.781 87.3051 109.813 87.1857 109.827L86.1689 110.044L82.4407 110.783C79.2886 111.413 74.9842 112.322 70.185 113.44C65.3857 114.558 61.122 115.684 58.0242 116.524L54.3909 117.521L53.3876 117.778C53.2747 117.82 53.1556 117.843 53.0352 117.846C53.141 117.79 53.2523 117.744 53.3673 117.711L54.3502 117.385C55.2043 117.107 56.4516 116.707 57.9903 116.28C61.0746 115.379 65.3586 114.247 70.1375 113.094C74.9164 111.942 79.2615 111.101 82.4271 110.539C84.0065 110.254 85.2877 110.037 86.1824 109.908L87.206 109.759C87.3131 109.738 87.4223 109.729 87.5314 109.732Z" fill="#263238"/>
<path d="M60.8647 148.865C61.1408 148.575 61.4376 148.305 61.7527 148.058L64.2134 145.936C66.2808 144.14 69.094 141.605 72.0698 138.67C75.0456 135.735 77.6282 132.955 79.4516 130.915L81.6072 128.488C81.8578 128.176 82.132 127.884 82.4274 127.614C82.2123 127.95 81.9745 128.272 81.7157 128.576C81.2412 129.18 80.5362 130.034 79.6414 131.078C77.8587 133.165 75.3031 135.979 72.3206 138.92C69.338 141.862 66.4842 144.377 64.3693 146.126C63.3186 147.007 62.4509 147.699 61.8341 148.16C61.5304 148.42 61.2063 148.656 60.8647 148.865Z" fill="#263238"/>
<path d="M88.1686 139.592C88.1075 139.691 88.0371 139.784 87.9585 139.87L87.3213 140.615C86.7587 141.293 85.9182 142.181 84.8607 143.286C79.3186 149.033 73.1474 154.137 66.4636 158.504C65.1825 159.338 64.125 159.988 63.3861 160.422C63.0404 160.612 62.7625 160.775 62.532 160.91C62.4367 160.976 62.3314 161.027 62.2202 161.059C62.2202 161.059 62.3083 160.978 62.4914 160.849L63.3116 160.3C64.0301 159.839 65.0604 159.155 66.3213 158.301C68.8497 156.586 72.2729 154.111 75.8655 151.142C79.4582 148.173 82.5221 145.272 84.6777 143.11C85.7555 142.025 86.6231 141.144 87.2129 140.527L87.8907 139.849C88.067 139.666 88.1551 139.585 88.1686 139.592Z" fill="#263238"/>
<path d="M80.0886 166.536C81.1275 165.053 82.0694 163.504 82.9085 161.9C83.6366 160.243 84.2548 158.54 84.7591 156.802C84.7604 157.342 84.6828 157.878 84.5286 158.395C84.2259 159.658 83.7896 160.885 83.2271 162.056C82.6695 163.226 81.9877 164.332 81.1935 165.357C80.8844 165.801 80.5122 166.199 80.0886 166.536Z" fill="#263238"/>
<path d="M88.2839 105.218L103.59 104.594L111.046 101.028L111.88 90.5554L111.202 83.1464L117.642 81.2349C117.642 81.2349 122.99 94.9615 122.814 99.9573C122.753 101.638 122.651 103.292 122.55 104.757C122.437 106.266 121.942 107.723 121.112 108.989C120.282 110.256 119.144 111.29 117.805 111.996L94.8456 124.028L88.2839 105.218Z" fill="#3780EF"/>
<path d="M51.6795 134.474C51.2688 133.501 50.9708 132.484 50.7915 131.444C50.4931 130.428 50.3089 129.382 50.2424 128.326C50.6536 129.299 50.9538 130.315 51.1372 131.356C51.433 132.372 51.6149 133.418 51.6795 134.474Z" fill="#263238"/>
<path d="M51.5508 129.444C51.582 129.577 51.5979 129.714 51.5983 129.851C51.5983 130.162 51.6322 130.528 51.6593 131.03C51.6999 132.101 51.7474 133.565 51.8152 135.362C51.9101 139.063 52.0457 144.092 52.1948 149.658C52.3409 152.286 52.2752 154.923 51.9982 157.541C51.8423 158.754 51.4966 159.873 51.3203 160.93C51.2409 161.437 51.2046 161.95 51.2119 162.462C51.2119 162.957 51.1441 163.438 51.1102 163.899C50.9573 165.328 50.9961 166.771 51.2254 168.19C51.3024 168.569 51.4496 168.93 51.6593 169.255C51.822 169.458 51.9304 169.553 51.9236 169.566C51.9169 169.58 51.9236 169.566 51.8355 169.505C51.7498 169.446 51.6723 169.375 51.605 169.295C51.36 168.979 51.1865 168.614 51.0967 168.224C50.8024 166.798 50.7224 165.336 50.8594 163.886C50.8594 163.425 50.9136 162.95 50.934 162.449C50.9231 161.925 50.9548 161.401 51.0289 160.883C51.2051 159.798 51.5305 158.707 51.6728 157.494C51.9304 154.89 51.9871 152.27 51.8423 149.658C51.7338 144.092 51.6389 139.063 51.5644 135.362C51.5644 133.565 51.5644 132.094 51.5237 131.03C51.5237 130.549 51.5237 130.156 51.5237 129.851C51.52 129.714 51.529 129.578 51.5508 129.444Z" fill="#263238"/>
<path d="M93.0697 118.395C92.7795 117.857 92.539 117.295 92.3512 116.714C91.9512 115.656 91.4361 114.185 90.9073 112.545C90.3786 110.904 89.938 109.406 89.6465 108.315C89.4543 107.733 89.3204 107.134 89.2466 106.525C89.5131 107.075 89.7264 107.65 89.8838 108.24C90.2702 109.427 90.7311 110.857 91.2395 112.436C91.7479 114.016 92.2088 115.439 92.5952 116.625C92.8111 117.198 92.9701 117.791 93.0697 118.395Z" fill="#263238"/>
<path d="M47.0837 162.727C46.0774 162.325 45.1892 161.674 44.5018 160.836C43.8144 159.998 43.3501 159 43.1521 157.935C43.6112 158.884 44.1533 159.792 44.7722 160.646C45.4814 161.405 46.2547 162.101 47.0837 162.727Z" fill="#263238"/>
<path d="M51.9169 173.139C51.6787 173.601 51.3543 174.012 50.9611 174.352C50.0512 175.227 48.9665 175.899 47.7784 176.324C46.5902 176.749 45.3254 176.918 44.0673 176.819C43.5464 176.804 43.0332 176.689 42.5557 176.481C42.5557 176.426 43.1454 176.548 44.0808 176.569C46.5378 176.628 48.9293 175.773 50.7916 174.169C51.4966 173.559 51.8694 173.098 51.9169 173.139Z" fill="#263238"/>
<path d="M118.984 85.1936C118.984 85.2953 117.303 85.5461 115.317 86.2172C113.331 86.8883 111.833 87.6949 111.779 87.5729C113.9 86.096 116.401 85.2606 118.984 85.1665V85.1936Z" fill="#263238"/>
<path d="M116.985 82.4414C116.985 82.4889 116.842 82.5499 116.788 82.7532C116.767 82.8047 116.76 82.8608 116.768 82.9159C116.776 82.971 116.798 83.0229 116.833 83.0664C116.868 83.1098 116.913 83.1432 116.965 83.163C117.017 83.1829 117.074 83.1884 117.128 83.1792C117.183 83.1699 117.235 83.1462 117.277 83.1104C117.32 83.0746 117.352 83.028 117.37 82.9756C117.389 82.9232 117.393 82.8667 117.383 82.8121C117.372 82.7575 117.347 82.7068 117.31 82.6651C117.188 82.4956 117.025 82.4821 117.019 82.4346C117.012 82.3872 117.222 82.2787 117.486 82.4956C117.564 82.5582 117.625 82.6395 117.663 82.732C117.701 82.8245 117.715 82.9251 117.703 83.0244C117.684 83.1526 117.623 83.271 117.53 83.3615C117.437 83.4521 117.317 83.5098 117.188 83.526C117.076 83.5527 116.958 83.5455 116.85 83.5053C116.741 83.465 116.648 83.3935 116.58 83.2998C116.513 83.2061 116.474 83.0945 116.47 82.9791C116.466 82.8637 116.497 82.7497 116.558 82.6515C116.754 82.3601 116.991 82.394 116.985 82.4414Z" fill="#263238"/>
<path d="M76.8012 103.564C76.5849 103.654 76.3566 103.714 76.1233 103.74L74.2863 104.085L68.2263 105.19L62.1662 106.336L60.3292 106.668C60.1074 106.723 59.8798 106.75 59.6514 106.749C59.8658 106.645 60.0941 106.572 60.3292 106.533C60.7563 106.417 61.3731 106.268 62.1459 106.092C63.6846 105.733 65.8199 105.285 68.1856 104.845C70.5513 104.404 72.7069 104.058 74.2863 103.841C75.0659 103.733 75.7031 103.652 76.1437 103.604C76.3606 103.566 76.5812 103.552 76.8012 103.564Z" fill="#263238"/>
<path d="M49.3477 127.492C49.272 127.324 49.2196 127.146 49.1918 126.963C49.0966 126.478 49.0332 125.986 49.002 125.492C48.9227 123.864 48.9793 122.231 49.1715 120.612C49.3681 118.721 49.6257 117.012 49.7951 115.785C49.85 115.114 49.9542 114.448 50.1069 113.792C50.158 114.471 50.1352 115.153 50.0392 115.826C49.9375 117.067 49.7206 118.775 49.524 120.659C49.3361 122.263 49.2455 123.877 49.2528 125.492C49.2732 126.719 49.4087 127.478 49.3477 127.492Z" fill="#263238"/>
<path d="M66.0502 140.1C65.9621 140.052 68.138 135.755 70.9037 130.488C73.6693 125.221 75.9876 120.998 76.0757 121.045C76.1639 121.093 73.9879 125.39 71.2155 130.657C68.443 135.924 66.1383 140.168 66.0502 140.1Z" fill="#263238"/>
<path d="M97.9232 115.853C97.7746 116.367 97.5794 116.866 97.3403 117.344C96.9607 118.253 96.459 119.52 95.9845 120.951C95.51 122.381 95.1847 123.662 94.961 124.658C94.8723 125.184 94.7385 125.701 94.561 126.204C94.5403 125.666 94.5928 125.128 94.7169 124.604C94.9391 123.33 95.2494 122.073 95.6456 120.842C96.0419 119.608 96.529 118.405 97.103 117.243C97.3146 116.746 97.5903 116.278 97.9232 115.853Z" fill="#263238"/>
<path d="M48.1207 124.042C47.8372 124.14 47.5473 124.219 47.2531 124.279C46.7176 124.414 45.9787 124.604 45.1653 124.848C44.3518 125.092 43.6333 125.329 43.1317 125.526C42.854 125.639 42.5686 125.732 42.2776 125.804C42.5373 125.652 42.8122 125.527 43.0978 125.431C43.613 125.228 44.3383 124.963 45.1314 124.753C45.9245 124.543 46.6904 124.333 47.2395 124.225C47.5273 124.138 47.8222 124.077 48.1207 124.042Z" fill="#E0E0E0"/>
<path d="M73.2559 125.411C73.2559 125.444 68.4499 126.868 62.4983 128.583C56.5467 130.298 51.6797 131.66 51.6797 131.627C51.6797 131.593 56.4857 130.162 62.4441 128.447C68.4025 126.732 73.2424 125.37 73.2559 125.411Z" fill="#E0E0E0"/>
<path d="M92.8798 119.69C92.8798 119.724 88.5822 121.317 83.261 123.242C77.9398 125.167 73.6083 126.699 73.5948 126.665C73.5812 126.631 77.8856 125.038 83.2136 123.106C88.5415 121.174 92.8663 119.649 92.8798 119.69Z" fill="#E0E0E0"/>
<path d="M91.0834 112.742L90.6631 112.864L89.4498 113.189L84.9759 114.369C81.2002 115.358 75.9739 116.714 70.185 118.144C64.3961 119.575 59.1427 120.808 55.3331 121.656L50.8118 122.632L49.5781 122.882C49.2934 122.943 49.1443 122.964 49.1443 122.964L49.5713 122.855L50.7983 122.577L55.306 121.554C59.1156 120.686 64.369 119.439 70.1511 118.009L84.9488 114.274L89.4362 113.135L90.6564 112.837L91.0834 112.742Z" fill="#E0E0E0"/>
<path d="M82.6103 104.919C82.6103 104.96 76.1775 106.594 68.2262 108.566C60.2749 110.539 53.8149 112.111 53.8081 112.071C53.8013 112.03 60.2342 110.403 68.1923 108.431C76.1503 106.458 82.6036 104.879 82.6103 104.919Z" fill="#E0E0E0"/>
<path d="M97.13 105.19C97.1361 105.233 97.1361 105.277 97.13 105.319L97.1774 105.685C97.2113 105.997 97.252 106.458 97.2859 107.041C97.374 108.524 97.374 110.011 97.2859 111.495C97.1867 112.978 96.9966 114.454 96.7165 115.914C96.608 116.477 96.5131 116.924 96.4318 117.27C96.4318 117.392 96.3708 117.514 96.3436 117.629C96.3165 117.744 96.303 117.751 96.303 117.744C96.303 117.738 96.303 117.704 96.303 117.622L96.364 117.256C96.4363 116.863 96.5176 116.423 96.608 115.934C96.7978 114.809 97.0147 113.223 97.13 111.522C97.2231 110.044 97.2412 108.562 97.1842 107.082C97.1842 106.58 97.1367 106.139 97.1164 105.726V105.36C97.1133 105.303 97.1179 105.246 97.13 105.19Z" fill="#E0E0E0"/>
<path d="M107.623 116.917C107.623 116.917 107.623 116.877 107.623 116.788L107.569 116.422C107.528 116.097 107.467 115.636 107.372 115.067C107.139 113.579 106.81 112.107 106.389 110.661C105.958 109.216 105.44 107.799 104.837 106.417C104.6 105.888 104.403 105.461 104.261 105.17L104.105 104.831C104.087 104.791 104.071 104.751 104.058 104.709C104.058 104.709 104.092 104.709 104.132 104.817C104.173 104.926 104.247 105.034 104.315 105.143C104.471 105.428 104.681 105.821 104.925 106.377C105.563 107.749 106.098 109.168 106.525 110.62C106.947 112.073 107.264 113.555 107.474 115.053C107.555 115.629 107.603 116.097 107.623 116.409C107.623 116.538 107.623 116.66 107.623 116.782C107.628 116.827 107.628 116.872 107.623 116.917Z" fill="#E0E0E0"/>
<path d="M116.32 111.698C116.253 111.554 116.194 111.407 116.144 111.257L115.697 110.044C115.303 109.02 114.727 107.631 113.982 106.133C113.236 104.635 112.47 103.34 111.887 102.418C111.636 102.018 111.399 101.652 111.209 101.327C111.119 101.197 111.037 101.061 110.965 100.92C111.07 101.038 111.168 101.162 111.257 101.293C111.44 101.537 111.69 101.903 111.995 102.364C112.779 103.557 113.492 104.795 114.131 106.072C114.769 107.35 115.33 108.665 115.812 110.01C115.995 110.525 116.13 110.945 116.218 111.237C116.266 111.387 116.3 111.541 116.32 111.698Z" fill="#E0E0E0"/>
<path d="M122.177 97.7881C122.035 97.787 121.894 97.7687 121.757 97.7339L120.625 97.5305C119.669 97.3611 118.347 97.1442 116.883 96.9408C115.419 96.7374 114.083 96.6019 113.121 96.507L111.975 96.3985C111.834 96.3898 111.694 96.3717 111.555 96.3443C111.694 96.3266 111.836 96.3266 111.975 96.3443C112.246 96.3443 112.653 96.3443 113.128 96.4053C114.097 96.4731 115.432 96.6019 116.903 96.8052C118.374 97.0086 119.696 97.2391 120.645 97.4356C121.12 97.5305 121.506 97.6119 121.77 97.6797C121.908 97.7059 122.044 97.7422 122.177 97.7881Z" fill="#E0E0E0"/>
<path d="M120.55 88.5422H120.211C119.994 88.5422 119.682 88.5422 119.296 88.5422C118.287 88.5462 117.281 88.6324 116.286 88.7998C115.295 88.9681 114.318 89.2129 113.365 89.5319L112.504 89.8301C112.4 89.8792 112.291 89.9156 112.178 89.9386C112.273 89.8739 112.376 89.8216 112.484 89.7827C112.68 89.6878 112.972 89.5726 113.338 89.437C114.29 89.0864 115.272 88.8254 116.273 88.6574C117.274 88.4938 118.288 88.4213 119.303 88.4405C119.611 88.4432 119.918 88.4613 120.225 88.4948C120.335 88.4957 120.444 88.5116 120.55 88.5422Z" fill="#E0E0E0"/>
<path d="M66.9789 136.778C66.9789 136.819 63.6371 137.599 59.5225 138.527C55.4079 139.456 51.9982 140.168 51.9915 140.168C51.9847 140.168 55.3333 139.347 59.4479 138.419C63.5625 137.49 66.9721 136.778 66.9789 136.778Z" fill="#E0E0E0"/>
<path d="M71.7241 138.487C70.9323 138.51 70.1399 138.483 69.3516 138.406C68.559 138.382 67.7688 138.307 66.9858 138.182C67.7776 138.167 68.5695 138.194 69.3583 138.263C70.1503 138.296 70.94 138.371 71.7241 138.487Z" fill="#E0E0E0"/>
<path d="M93.5714 130.142C93.5714 130.142 89.7008 131.213 84.9084 132.454C80.1159 133.694 76.2182 134.67 76.2114 134.63C76.2047 134.589 80.0752 133.559 84.8745 132.318C89.6737 131.078 93.5578 130.102 93.5714 130.142Z" fill="#E0E0E0"/>
<path d="M61.095 148.085C61.095 148.126 59.1563 148.506 56.7432 148.933C54.33 149.36 52.3574 149.658 52.3574 149.658C52.3574 149.658 54.3029 149.244 56.7161 148.817C59.1292 148.39 61.0882 148.051 61.095 148.085Z" fill="#E0E0E0"/>
<path d="M84.2169 142.879C84.2169 142.913 79.804 143.652 74.3472 144.52C68.8905 145.387 64.4573 146.065 64.4573 146.025C64.4573 145.984 68.8701 145.252 74.3269 144.384C79.7837 143.517 84.2169 142.879 84.2169 142.879Z" fill="#E0E0E0"/>
<path d="M91.8292 143.557C91.7305 143.588 91.6277 143.604 91.5242 143.605L90.704 143.679C90.0261 143.74 89.0568 143.828 87.9926 143.964C86.9283 144.099 85.959 144.242 85.2811 144.35L84.4677 144.486C84.3688 144.501 84.2683 144.501 84.1694 144.486L84.4609 144.404C84.6507 144.357 84.9219 144.296 85.2676 144.228C85.9454 144.093 86.9012 143.93 87.979 143.794C89.0568 143.659 90.0126 143.584 90.6904 143.55C91.0429 143.55 91.3209 143.55 91.5174 143.55C91.6213 143.541 91.7259 143.543 91.8292 143.557Z" fill="#E0E0E0"/>
<path d="M68.6262 156.538C68.5743 156.568 68.5199 156.593 68.4635 156.613L67.989 156.816C67.5755 156.985 66.9654 157.216 66.213 157.494C62.2613 158.868 58.1446 159.711 53.9709 160.002C53.171 160.056 52.527 160.083 52.0729 160.09H51.395H51.5713H52.0864C52.5338 160.09 53.1778 160.022 53.9777 159.961C56.0536 159.783 58.1176 159.487 60.1597 159.073C62.2004 158.651 64.2148 158.11 66.1927 157.453C66.9519 157.202 67.5484 156.985 67.9822 156.83L68.4635 156.653L68.6262 156.538Z" fill="#E0E0E0"/>
<path d="M91.8023 152.695C91.723 152.732 91.6415 152.763 91.5582 152.79L90.8465 153.034C90.2228 153.251 89.3213 153.542 88.2028 153.888C85.9591 154.566 82.841 155.454 79.3907 156.267C75.9404 157.081 72.7137 157.657 70.4023 158.023C69.2431 158.213 68.3009 158.348 67.6501 158.43L66.9045 158.524C66.8164 158.529 66.7282 158.529 66.6401 158.524L66.8977 158.477L67.6434 158.355L70.3548 157.908C72.6663 157.514 75.8455 156.918 79.3297 156.104C82.8138 155.291 85.932 154.437 88.1825 153.766L90.8329 152.966L91.5582 152.742L91.8023 152.695Z" fill="#E0E0E0"/>
<path d="M81.3426 164.178L81.0443 164.239L80.1835 164.388C79.431 164.51 78.3397 164.679 76.9907 164.856C74.2793 165.222 70.5511 165.628 66.4026 165.852C62.2541 166.076 58.4852 166.083 55.767 166.008C54.4113 165.974 53.3064 165.927 52.5471 165.879L51.6659 165.832H51.3677H51.6795H52.5539C53.3131 165.832 54.4113 165.893 55.7738 165.913C58.4852 165.961 62.2541 165.913 66.4026 165.716C70.5511 165.52 74.2861 165.106 76.984 164.767C78.3397 164.598 79.4242 164.449 80.1767 164.34L81.0511 164.218L81.3426 164.178Z" fill="#E0E0E0"/>
<path d="M92.2019 162.598C92.0781 162.613 91.953 162.613 91.8291 162.598H90.8123C89.9514 162.598 88.7788 162.598 87.4569 162.598C86.1351 162.598 84.9624 162.666 84.1015 162.713L83.0847 162.761C82.9608 162.774 82.8358 162.774 82.7119 162.761C82.8346 162.733 82.9592 162.715 83.0847 162.707L84.0948 162.612C84.9556 162.544 86.1283 162.476 87.484 162.456C88.8398 162.436 89.9853 162.456 90.8733 162.49L91.8901 162.551L92.2019 162.598Z" fill="#E0E0E0"/>
<path d="M51.7474 135.531C51.7474 135.565 49.3274 136.033 46.3245 136.568C43.3216 137.104 40.9016 137.51 40.9016 137.47C40.9016 137.429 43.3216 136.968 46.3245 136.433C49.3274 135.897 51.7406 135.49 51.7474 135.531Z" fill="#E0E0E0"/>
<path d="M51.3814 146.167C51.3814 146.201 49.1242 146.458 46.3314 146.729C43.5386 147 41.261 147.19 41.261 147.15C41.261 147.109 43.5183 146.858 46.3178 146.587C49.1174 146.316 51.3814 146.126 51.3814 146.167Z" fill="#E0E0E0"/>
<path d="M52.2965 154.715C52.2965 154.755 49.9511 154.857 47.0498 154.945C44.1486 155.033 41.8032 155.074 41.8032 155.033C41.8032 154.992 44.1486 154.891 47.0498 154.803C49.9511 154.715 52.2965 154.674 52.2965 154.715Z" fill="#E0E0E0"/>
<path d="M50.3239 165.249C50.1954 165.26 50.0661 165.26 49.9375 165.249C49.6935 165.249 49.3342 165.249 48.8936 165.181C46.5834 164.974 44.3206 164.402 42.1896 163.486C41.7829 163.31 41.4575 163.161 41.2406 163.046C41.1215 162.999 41.0096 162.935 40.9084 162.856C41.0299 162.893 41.1478 162.941 41.2609 162.998C41.4914 163.093 41.8168 163.236 42.2303 163.398C43.2956 163.822 44.3869 164.178 45.4975 164.462C46.6131 164.741 47.7451 164.95 48.8868 165.086L49.924 165.195C50.0586 165.201 50.1925 165.219 50.3239 165.249Z" fill="#E0E0E0"/>
<path d="M50.873 168.177C50.765 168.278 50.6494 168.371 50.5273 168.455C50.2968 168.631 49.9579 168.868 49.5308 169.133C48.4175 169.87 47.2532 170.527 46.0466 171.098C44.8381 171.671 43.5898 172.156 42.3116 172.549C41.8168 172.691 41.4168 172.807 41.1389 172.868C40.9963 172.908 40.8514 172.939 40.7051 172.962C40.8405 172.9 40.9812 172.851 41.1254 172.813C41.4033 172.732 41.8032 172.61 42.2777 172.447C44.8075 171.618 47.2254 170.479 49.4766 169.058C49.9104 168.787 50.2561 168.556 50.4934 168.38C50.6135 168.301 50.7406 168.233 50.873 168.177Z" fill="#E0E0E0"/>
<path d="M58.0311 170.237C58.0311 170.237 58.0311 170.054 58.0311 169.702C58.0311 169.349 58.065 168.794 58.0853 168.15C58.1328 166.794 58.1938 164.828 58.2683 162.449C58.4039 157.636 58.5191 150.986 58.4649 143.638C58.4107 136.29 58.2073 129.641 58.004 124.828C57.8955 122.448 57.8006 120.517 57.7396 119.134C57.7396 118.49 57.6854 117.975 57.665 117.581C57.6447 117.188 57.665 117.046 57.665 117.046C57.665 117.046 57.665 117.229 57.7057 117.581C57.7464 117.934 57.7803 118.476 57.7803 119.154C57.8684 120.51 57.9769 122.448 58.0853 124.855C58.3158 129.661 58.5395 136.317 58.5937 143.665C58.6479 151.013 58.5124 157.67 58.3565 162.483C58.2751 164.889 58.1938 166.835 58.126 168.177L58.0446 169.729C58.0514 170.054 58.0311 170.237 58.0311 170.237Z" fill="#E0E0E0"/>
<path d="M70.0224 132.345C69.9817 132.345 69.453 128.38 68.8429 123.485C68.2328 118.591 67.7719 114.619 67.8126 114.612C67.8532 114.606 68.3752 118.571 68.9852 123.472C69.5953 128.373 70.0563 132.338 70.0224 132.345Z" fill="#E0E0E0"/>
<path d="M68.931 140.371C68.7298 139.495 68.5759 138.608 68.4701 137.714C68.2599 136.243 68.1176 135.043 68.1515 135.037C68.3519 135.914 68.5058 136.801 68.6124 137.694C68.7677 138.58 68.874 139.474 68.931 140.371Z" fill="#E0E0E0"/>
<path d="M71.7037 154.945C71.663 154.945 71.602 151.522 71.5681 147.299C71.5343 143.076 71.5343 139.646 71.5681 139.646C71.602 139.646 71.6698 143.069 71.7105 147.299C71.7512 151.529 71.7444 154.945 71.7037 154.945Z" fill="#E0E0E0"/>
<path d="M71.4867 170.027C71.4528 170.027 70.9986 166.93 70.4767 163.106C69.9547 159.283 69.5616 156.179 69.6023 156.172C69.6429 156.165 70.0971 159.263 70.619 163.086C71.141 166.909 71.5274 169.993 71.4867 170.027Z" fill="#E0E0E0"/>
<path d="M84.8947 140.845C84.854 140.845 83.8169 134.494 82.5696 126.658C81.3224 118.822 80.3395 112.423 80.3801 112.423C80.4208 112.423 81.4579 118.768 82.7052 126.61C83.9524 134.453 84.8947 140.845 84.8947 140.845Z" fill="#E0E0E0"/>
<path d="M83.2 159.324C83.1661 159.324 82.8136 156.504 82.4137 153.02C82.0138 149.536 81.7358 146.695 81.7358 146.695C81.7358 146.695 82.129 149.515 82.5289 152.999C82.9289 156.484 83.2407 159.324 83.2 159.324Z" fill="#E0E0E0"/>
<path d="M113.155 104.187C112.302 104.968 111.396 105.688 110.443 106.343C109.402 107.063 108.317 107.719 107.196 108.308C105.829 109.026 104.416 109.653 102.966 110.186C101.51 110.699 100.023 111.118 98.5128 111.44C97.2779 111.698 96.0283 111.879 94.7711 111.982C93.6129 112.089 92.4489 112.119 91.2869 112.071H91.5309H92.2088C92.8053 112.071 93.6797 112.023 94.7439 111.921C95.9963 111.801 97.241 111.611 98.4722 111.352C99.9746 111.021 101.455 110.598 102.905 110.084C104.348 109.554 105.756 108.934 107.122 108.227C108.235 107.641 109.314 106.994 110.355 106.288C111.243 105.685 111.941 105.163 112.389 104.784L112.931 104.356L113.155 104.187Z" fill="#E0E0E0"/>
<path d="M113.216 104.201C113.205 104.142 113.205 104.083 113.216 104.024C113.216 103.868 113.249 103.699 113.263 103.516C113.317 102.994 113.385 102.364 113.46 101.638C113.609 100.052 113.792 97.8626 113.9 95.4359C114.009 93.0091 114.029 90.8129 114.015 89.2199C114.015 88.4878 114.015 87.8642 114.015 87.3355C114.015 87.1524 114.015 86.983 114.015 86.8271C114.015 86.6712 114.015 86.644 114.015 86.644C114.024 86.7025 114.024 86.7619 114.015 86.8203C114.015 86.983 114.015 87.1457 114.049 87.3355C114.049 87.7828 114.097 88.4268 114.117 89.2199C114.117 90.8129 114.117 93.0159 114.043 95.4427C113.968 97.8694 113.738 100.066 113.554 101.645C113.466 102.438 113.385 103.075 113.317 103.523C113.317 103.706 113.263 103.868 113.243 104.024C113.222 104.18 113.216 104.201 113.216 104.201Z" fill="#E0E0E0"/>
<path d="M118.903 86.1694C118.903 86.1694 118.944 86.3321 119.005 86.6439C119.066 86.9557 119.167 87.4167 119.31 87.9997C119.588 89.1791 120.076 90.8534 120.632 92.948C121.355 95.3895 121.663 97.9355 121.54 100.479C121.465 102.047 121.037 103.579 120.288 104.959C119.54 106.339 118.489 107.533 117.215 108.451C115.918 109.42 114.559 110.306 113.148 111.101C111.792 111.901 110.518 112.66 109.277 113.372C106.796 114.802 104.532 116.043 102.621 117.059C100.709 118.076 99.1502 118.869 98.0724 119.412L96.8251 120.035L96.3845 120.239L96.8116 120.008L98.0453 119.33C99.1231 118.774 100.675 117.975 102.573 116.937C104.471 115.9 106.735 114.66 109.21 113.23C110.45 112.511 111.745 111.752 113.08 110.945C114.474 110.148 115.816 109.265 117.1 108.302C118.357 107.396 119.395 106.219 120.135 104.858C120.876 103.496 121.3 101.986 121.377 100.438C121.501 97.9082 121.206 95.3749 120.503 92.9412C119.96 90.8467 119.486 89.1588 119.222 87.9793C118.957 86.7998 118.903 86.1694 118.903 86.1694Z" fill="#E0E0E0"/>
<path d="M43.8435 158.016C43.8435 158.016 43.8435 157.867 43.8435 157.595C43.8435 157.324 43.8977 156.918 43.9384 156.396L44.2977 151.99C44.5891 148.268 44.9755 143.123 45.2873 137.436C45.5992 131.749 45.8093 126.59 45.9652 122.855C46.0262 121.025 46.0737 119.527 46.1076 118.436C46.1076 117.947 46.1211 117.548 46.1482 117.236C46.1482 117.514 46.1482 117.947 46.1482 118.436C46.1482 119.527 46.094 121.025 46.0533 122.862C45.9584 126.59 45.7618 131.749 45.4433 137.443C45.1247 143.137 44.7654 148.288 44.4129 151.996C44.2502 153.82 44.1079 155.318 44.013 156.402C43.9587 156.89 43.9181 157.29 43.891 157.595C43.8638 157.9 43.8435 158.016 43.8435 158.016Z" fill="#E0E0E0"/>
<path d="M45.6264 177.45C45.6264 177.45 45.6264 177.396 45.5586 177.287C45.4908 177.179 45.4637 176.982 45.4095 176.806C45.2807 176.386 45.1045 175.776 44.9147 175.016C44.4185 173.03 44.045 171.016 43.7962 168.984C43.5533 166.959 43.4401 164.922 43.4573 162.883C43.4573 162.096 43.4573 161.459 43.5115 161.019C43.5115 160.836 43.5115 160.673 43.5115 160.517V160.341C43.5192 160.399 43.5192 160.459 43.5115 160.517V161.025C43.5115 161.459 43.5115 162.096 43.5115 162.883C43.5299 164.922 43.6589 166.958 43.8979 168.984C44.1443 171.008 44.5018 173.018 44.9689 175.003C45.1519 175.769 45.3078 176.359 45.4231 176.806C45.4728 176.982 45.5134 177.145 45.5451 177.294L45.6264 177.45Z" fill="#E0E0E0"/>
<path d="M49.958 175.416C49.958 175.416 49.958 175.254 49.958 174.942C49.958 174.63 49.958 174.142 49.958 173.586C49.958 172.359 49.958 170.658 50.0054 168.57C50.0054 164.34 50.0597 158.49 50.0054 152.03C49.9512 145.57 49.8563 139.713 49.7614 135.484C49.7072 133.396 49.6733 131.694 49.6394 130.467C49.6394 129.905 49.6394 129.451 49.6394 129.112C49.6394 128.773 49.6394 128.637 49.6394 128.637C49.6394 128.637 49.6394 128.8 49.6394 129.112C49.6394 129.424 49.6394 129.912 49.7004 130.467C49.7004 131.694 49.7885 133.396 49.8563 135.484C49.9783 139.713 50.1003 145.563 50.1478 152.03C50.1952 158.497 50.1478 164.34 50.0936 168.577C50.0936 170.658 50.0326 172.366 50.0054 173.586C50.0054 174.149 50.0055 174.603 49.9716 174.942C49.9377 175.281 49.958 175.416 49.958 175.416Z" fill="#E0E0E0"/>
<path d="M58.3431 116.626C58.3024 116.626 58.1736 114.714 58.0516 112.355C57.9296 109.996 57.8686 108.085 57.9093 108.078C57.9499 108.071 58.0787 109.99 58.194 112.349C58.3092 114.708 58.3838 116.619 58.3431 116.626Z" fill="#E0E0E0"/>
<path d="M68.3822 113.806C68.3415 113.806 68.1517 111.86 67.9551 109.454C67.7586 107.047 67.6365 105.088 67.6704 105.088C67.7043 105.088 67.9009 107.034 68.0975 109.44C68.2941 111.847 68.4161 113.799 68.3822 113.806Z" fill="#E0E0E0"/>
<path d="M79.3024 111.318C79.2617 111.318 78.7126 109.549 78.0754 107.346C77.4383 105.143 76.9502 103.347 76.9841 103.333C77.018 103.32 77.5738 105.102 78.211 107.305C78.8482 109.508 79.3363 111.305 79.3024 111.318Z" fill="#E0E0E0"/>
<path d="M75.6893 101.415C75.6374 101.437 75.5826 101.45 75.5266 101.455L75.0521 101.544L73.3032 101.849C71.8323 102.106 69.7987 102.486 67.5685 102.953C65.3384 103.421 63.3184 103.889 61.8677 104.241L60.146 104.662L59.6783 104.77C59.6223 104.781 59.5648 104.781 59.5088 104.77L59.6715 104.716L60.1324 104.58L61.8406 104.119C63.2912 103.74 65.3045 103.252 67.5414 102.764C69.7783 102.276 71.8119 101.937 73.2897 101.699L75.0385 101.442L75.5198 101.381C75.5776 101.384 75.6346 101.396 75.6893 101.415Z" fill="#E0E0E0"/>
<path d="M62.383 106.315C62.3232 105.671 62.3096 105.023 62.3423 104.377C62.3303 103.731 62.362 103.086 62.4372 102.445C62.5015 103.089 62.5173 103.737 62.4847 104.384C62.4973 105.029 62.4633 105.675 62.383 106.315Z" fill="#E0E0E0"/>
<path d="M72.3273 104.56C72.1555 103.989 72.0242 103.407 71.9341 102.818C71.7991 102.236 71.7129 101.644 71.6765 101.048C71.9929 102.199 72.2195 103.373 72.3544 104.56H72.3273Z" fill="#E0E0E0"/>
<path d="M301.397 299.681C301.397 299.776 234.506 299.857 152.01 299.857C69.515 299.857 2.61035 299.776 2.61035 299.681C2.61035 299.586 69.4879 299.505 152.01 299.505C234.533 299.505 301.397 299.579 301.397 299.681Z" fill="#263238"/>
<path d="M26.1923 50.8392C26.0907 50.8316 25.9888 50.8316 25.8872 50.8392H24.9789C24.4834 50.8476 23.9892 50.8952 23.5012 50.9816C23.2165 51.029 22.8979 51.0561 22.5725 51.1239L21.5218 51.3815C17.3087 52.4857 13.6734 55.1515 11.354 58.838C9.7267 61.3601 8.7916 64.2659 8.64252 67.2637C8.43843 70.7121 9.27186 74.1426 11.0354 77.113C12.9761 80.4079 15.9358 82.9822 19.4679 84.4475C21.3266 85.2188 23.3071 85.6548 25.3178 85.7354C27.381 85.8647 29.4501 85.6072 31.4186 84.9762L31.5948 84.922H31.4525L41.6814 88.4672L42.0949 88.6095L41.9661 88.1893C41.0509 85.2473 40.163 82.4003 39.3089 79.6753L39.2682 79.8787C41.077 77.8446 42.3864 75.4167 43.0924 72.7879C43.7985 70.1591 43.8816 67.4019 43.3353 64.7353C42.8878 62.4785 41.9911 60.3346 40.6985 58.4312C39.588 56.8063 38.2133 55.3789 36.6313 54.2082C35.9538 53.7114 35.2451 53.2586 34.5096 52.8525C33.8506 52.5051 33.1716 52.1973 32.476 51.9306C31.9077 51.7068 31.3258 51.5189 30.7339 51.368C30.2163 51.2201 29.6884 51.1114 29.1545 51.0426C28.6732 50.9748 28.253 50.907 27.8869 50.8731H26.9583H26.3889C26.3235 50.8657 26.2576 50.8657 26.1923 50.8731C26.2573 50.8844 26.3238 50.8844 26.3889 50.8731L26.9515 50.9206L27.8734 50.9884C28.2394 51.029 28.6597 51.1104 29.1274 51.1849C29.6547 51.269 30.1756 51.3891 30.6865 51.5442C31.3031 51.7058 31.9078 51.9096 32.4964 52.1543C33.1912 52.4278 33.8701 52.7401 34.5299 53.0897C35.2492 53.4975 35.942 53.9504 36.6042 54.4454C38.1393 55.6169 39.472 57.032 40.5493 58.6346C41.8027 60.5096 42.6692 62.616 43.0981 64.8302C43.6138 67.4422 43.5148 70.1383 42.8089 72.7053C42.103 75.2724 40.8096 77.6401 39.0309 79.6211L38.9496 79.7092V79.8245C39.7992 82.5359 40.6781 85.3784 41.5865 88.3519L41.8712 88.074L31.649 84.522H31.5813H31.5067L31.344 84.583C29.4186 85.1969 27.3958 85.4475 25.3788 85.3219C23.4205 85.2411 21.4912 84.819 19.6781 84.0746C16.2323 82.647 13.3408 80.1431 11.4353 76.9368C9.83077 74.2201 9.00138 71.1156 9.03724 67.9606C9.07309 64.8057 9.97281 61.7209 11.6387 59.0413C13.9054 55.4008 17.453 52.7407 21.5828 51.5849L22.6132 51.3137C22.9386 51.2324 23.2504 51.1985 23.5419 51.151C24.0217 51.0484 24.5091 50.9849 24.9993 50.9612L25.9008 50.8935C25.9993 50.8835 26.0968 50.8654 26.1923 50.8392Z" fill="#263238"/>
<path d="M32.5438 68.0909C32.5289 67.0307 32.2295 65.994 31.6768 65.0892C31.1241 64.1844 30.3384 63.4447 29.402 62.9475C28.4655 62.4502 27.4127 62.2137 26.3536 62.2627C25.2944 62.3116 24.2679 62.6442 23.3813 63.2256C22.4947 63.8071 21.7806 64.6161 21.3137 65.568C20.8468 66.5199 20.6442 67.5798 20.7271 68.6368C20.81 69.6939 21.1754 70.7092 21.785 71.5766C22.3947 72.4441 23.2262 73.1319 24.1926 73.568C24.1926 74.2458 24.1926 75.0593 24.1926 75.0593L29.3782 74.9847C29.3782 74.9847 29.3782 74.1442 29.3782 73.3985C30.3437 72.8914 31.1503 72.1274 31.7089 71.1908C32.2675 70.2541 32.5565 69.1814 32.5438 68.0909Z" fill="#FAFAFA"/>
<path d="M32.5439 68.0907C32.5653 68.239 32.5653 68.3897 32.5439 68.5381C32.5298 68.9728 32.4684 69.4046 32.3609 69.826C32.192 70.4972 31.9051 71.133 31.5136 71.7037C30.9838 72.4588 30.2882 73.0826 29.48 73.5271L29.5478 73.4119C29.5478 73.9135 29.5478 74.4422 29.5478 74.9981V75.1336H29.4054L24.2266 75.2421H24.0571V75.093C24.0571 74.6185 24.0571 74.1169 24.0571 73.6017L24.152 73.7508C23.3253 73.378 22.5922 72.8256 22.0059 72.1337C21.4196 71.4419 20.9949 70.6281 20.7627 69.7514C20.4052 68.3959 20.5298 66.9581 21.1152 65.6843C21.649 64.51 22.5381 63.5331 23.6572 62.8915C24.1868 62.6086 24.7523 62.3988 25.3383 62.2679C25.8912 62.1563 26.4564 62.1176 27.0194 62.1526C28.03 62.2244 29.0065 62.5483 29.8596 63.0949C31.0971 63.8898 31.9938 65.1176 32.3744 66.5384C32.5228 67.0486 32.5801 67.5809 32.5439 68.111C32.4799 67.5941 32.3802 67.0822 32.2456 66.5791C31.8968 65.4372 31.2074 64.4292 30.2697 63.6902C29.3319 62.9512 28.1908 62.5164 26.999 62.4441C26.4624 62.4172 25.9246 62.4605 25.3993 62.5729C24.8485 62.7035 24.3174 62.9064 23.8199 63.1762C22.7548 63.7846 21.91 64.7149 21.4067 65.8334C20.8575 67.0313 20.7425 68.3831 21.0813 69.6565C21.2989 70.4819 21.6969 71.2487 22.2467 71.9016C22.7964 72.5545 23.4842 73.0773 24.2605 73.4322L24.3621 73.4797V73.5881C24.3621 74.1033 24.3621 74.6117 24.3621 75.0794L24.1927 74.9167L29.3783 74.8625L29.236 74.9981C29.236 74.449 29.236 73.9135 29.236 73.4187V73.3373H29.3037C30.6893 72.5971 31.727 71.3402 32.1914 69.8396C32.3644 69.2692 32.4824 68.6835 32.5439 68.0907Z" fill="#263238"/>
<path d="M27.521 74.9846C27.5196 74.9598 27.5196 74.9349 27.521 74.9101V74.6999C27.521 74.5101 27.5684 74.2322 27.6159 73.8797C27.6633 73.5272 27.7311 73.0866 27.8328 72.5918C27.9485 72.0245 28.1211 71.4704 28.348 70.9378C28.4728 70.6243 28.6295 70.3245 28.8157 70.043C28.9178 69.889 29.0548 69.7612 29.2156 69.6702C29.3025 69.6251 29.399 69.6015 29.4969 69.6015C29.5949 69.6015 29.6914 69.6251 29.7783 69.6702C29.8238 69.6938 29.8641 69.7264 29.8968 69.766C29.9294 69.8056 29.9536 69.8514 29.9681 69.9007C30.0083 69.9984 30.0083 70.108 29.9681 70.2057C29.8737 70.3899 29.7143 70.5325 29.5207 70.6057C29.3157 70.6774 29.0983 70.7072 28.8816 70.6933C28.6648 70.6794 28.4531 70.6221 28.2589 70.5247C28.0648 70.4273 27.8922 70.2918 27.7515 70.1264C27.6107 69.961 27.5047 69.769 27.4396 69.5617C27.3596 69.3449 27.3431 69.1097 27.3922 68.8839C27.4175 68.7632 27.4841 68.6551 27.5807 68.5783C27.6773 68.5016 27.7976 68.461 27.9209 68.4636C27.9851 68.4677 28.0472 68.4887 28.1007 68.5244C28.1543 68.5601 28.1975 68.6093 28.226 68.667C28.2877 68.776 28.307 68.9039 28.2802 69.0262C28.212 69.2635 28.0694 69.4726 27.8735 69.6228C27.6892 69.7833 27.4734 69.9036 27.24 69.976C27.0065 70.0484 26.7605 70.0712 26.5177 70.043C26.2712 70.0092 26.0366 69.9155 25.8346 69.7702C25.6325 69.6248 25.4691 69.4323 25.3586 69.2093C25.3014 69.0994 25.2671 68.9791 25.2578 68.8556C25.2485 68.732 25.2643 68.6079 25.3044 68.4907C25.3523 68.3723 25.4448 68.2774 25.562 68.2264C25.6197 68.2014 25.682 68.1885 25.745 68.1885C25.8079 68.1885 25.8702 68.2014 25.928 68.2264C26.0356 68.2851 26.123 68.3748 26.1788 68.484C26.2361 68.5881 26.2686 68.7041 26.2737 68.8229C26.303 69.1596 26.234 69.4976 26.0752 69.7959C25.9164 70.0942 25.6746 70.3402 25.3789 70.504C25.0072 70.7089 24.5752 70.7761 24.1588 70.6938C23.9521 70.6643 23.7612 70.5664 23.6165 70.4159C23.5478 70.3387 23.5066 70.2411 23.4992 70.1381C23.4919 70.0351 23.5188 69.9325 23.5758 69.8464C23.6448 69.772 23.7391 69.7261 23.8402 69.7177C23.9377 69.7056 24.0366 69.7221 24.1249 69.7651C24.2865 69.8559 24.4148 69.9961 24.4909 70.165C24.6469 70.4836 24.7689 70.7955 24.8977 71.0937C25.3857 72.2732 25.7382 73.2561 25.9755 73.9339C26.0907 74.2661 26.1788 74.5305 26.2398 74.7135L26.3008 74.9168V74.9914V74.9236L26.2263 74.7203C26.1653 74.5372 26.0704 74.2729 25.9551 73.9407C25.7111 73.2629 25.3518 72.2935 24.857 71.114C24.7282 70.8158 24.5994 70.504 24.4503 70.1922C24.3787 70.0336 24.2573 69.9027 24.1046 69.8193C24.0288 69.7779 23.9416 69.7621 23.856 69.7743C23.7705 69.7865 23.6912 69.8261 23.6301 69.8871C23.5824 69.9629 23.5605 70.0521 23.5679 70.1413C23.5752 70.2306 23.6113 70.315 23.6707 70.382C23.8099 70.5165 23.9877 70.6042 24.1791 70.6328C24.5794 70.7103 24.9942 70.6456 25.3518 70.4497C25.7255 70.2358 26.0059 69.8902 26.1381 69.4804C26.2112 69.2624 26.2367 69.0312 26.2127 68.8025C26.2052 68.7042 26.175 68.6089 26.1244 68.5242C26.0738 68.4395 26.0043 68.3677 25.9212 68.3145C25.8738 68.2912 25.8216 68.279 25.7687 68.279C25.7158 68.279 25.6637 68.2912 25.6162 68.3145C25.566 68.3339 25.5207 68.364 25.4832 68.4026C25.4458 68.4412 25.4172 68.4875 25.3993 68.5382C25.358 68.6482 25.3414 68.766 25.3508 68.8832C25.3601 69.0003 25.3952 69.114 25.4535 69.216C25.5578 69.4285 25.7123 69.6124 25.9037 69.7518C26.095 69.8911 26.3174 69.9818 26.5516 70.0159C26.7871 70.0447 27.026 70.0234 27.2527 69.9533C27.4794 69.8832 27.6886 69.7659 27.8667 69.6092C28.0515 69.4699 28.1869 69.2751 28.2531 69.0534C28.2744 68.9471 28.2576 68.8367 28.2056 68.7415C28.1822 68.6939 28.1467 68.6532 28.1027 68.6235C28.0587 68.5938 28.0077 68.5761 27.9548 68.5721C27.8484 68.5684 27.7444 68.6047 27.6633 68.6738C27.5832 68.7431 27.5264 68.8354 27.5006 68.9381C27.4502 69.1634 27.4643 69.3984 27.5413 69.616C27.6075 69.8183 27.7136 70.0054 27.8533 70.1661C27.993 70.3267 28.1635 70.4578 28.3547 70.5514C28.7238 70.7279 29.1474 70.7522 29.5342 70.6192C29.7137 70.5515 29.8628 70.4216 29.9545 70.2532C29.9934 70.1736 30.0004 70.0822 29.9739 69.9977C29.9474 69.9132 29.8895 69.8421 29.8121 69.799C29.7333 69.7591 29.6463 69.7383 29.5579 69.7383C29.4696 69.7383 29.3825 69.7591 29.3037 69.799C29.1498 69.883 29.0193 70.0042 28.9241 70.1515C28.7407 70.4298 28.5841 70.7248 28.4564 71.0327C28.2277 71.5606 28.0529 72.1102 27.9345 72.6731C27.826 73.168 27.7582 73.6018 27.704 73.9543C27.6498 74.3068 27.6227 74.5847 27.5955 74.7745C27.5684 74.9643 27.5955 74.9372 27.5955 74.9914C27.5705 74.9913 27.5456 74.989 27.521 74.9846Z" fill="#263238"/>
<path d="M29.0123 75.9471L24.5655 76.0149C24.5217 76.0167 24.4779 76.0096 24.4368 75.9941C24.3958 75.9786 24.3583 75.9549 24.3266 75.9245C24.295 75.8941 24.2698 75.8576 24.2526 75.8172C24.2354 75.7768 24.2266 75.7334 24.2266 75.6895C24.2248 75.6456 24.2318 75.6019 24.2474 75.5608C24.2629 75.5198 24.2866 75.4823 24.317 75.4506C24.3474 75.419 24.3839 75.3938 24.4242 75.3766C24.4646 75.3594 24.5081 75.3505 24.552 75.3506L29.0055 75.2828C29.0491 75.2819 29.0925 75.2896 29.1331 75.3055C29.1738 75.3213 29.2109 75.345 29.2424 75.3753C29.2738 75.4055 29.2991 75.4416 29.3166 75.4816C29.3341 75.5215 29.3436 75.5645 29.3444 75.6082C29.3453 75.6523 29.3374 75.6963 29.3211 75.7374C29.3048 75.7784 29.2805 75.8159 29.2496 75.8474C29.2186 75.879 29.1817 75.9041 29.141 75.9212C29.1002 75.9383 29.0565 75.9471 29.0123 75.9471Z" fill="#263238"/>
<path d="M29.019 76.2388L24.5654 76.3065C24.5218 76.3074 24.4788 76.3169 24.4388 76.3344C24.3989 76.3519 24.3628 76.3771 24.3325 76.4086C24.3023 76.4401 24.2786 76.4772 24.2627 76.5179C24.2469 76.5585 24.2392 76.6019 24.2401 76.6455C24.2418 76.7342 24.2783 76.8187 24.3417 76.8808C24.4051 76.9429 24.4903 76.9777 24.579 76.9776H25.067L25.7449 78.1978C25.7818 78.2676 25.8376 78.3256 25.9059 78.3652C25.9743 78.4047 26.0524 78.4243 26.1313 78.4215H27.7243C27.8028 78.4191 27.8792 78.395 27.945 78.3519C28.0108 78.3089 28.0634 78.2485 28.0971 78.1774L28.7072 76.937H29.0461C29.136 76.937 29.2222 76.9012 29.2857 76.8377C29.3493 76.7741 29.385 76.6879 29.385 76.598C29.385 76.5081 29.3493 76.4219 29.2857 76.3584C29.2222 76.2948 29.136 76.2591 29.0461 76.2591L29.019 76.2388Z" fill="#263238"/>
<g opacity="0.2">
<path d="M22.7694 64.464C23.1127 64.1335 23.5091 63.8631 23.9421 63.6641C24.2293 63.5253 24.5353 63.4293 24.8504 63.3794C25.0741 63.3794 25.2029 63.3794 25.2164 63.4201C25.23 63.4607 24.7962 63.698 24.1996 64.0979C23.4259 64.618 22.8093 65.34 22.4169 66.1857C22.0547 67.0406 21.9282 67.9769 22.0508 68.8972C22.1457 69.6225 22.322 70.0631 22.2271 70.1105C22.1322 70.158 22.0779 70.0563 21.9492 69.8733C21.774 69.6077 21.6393 69.3175 21.5492 69.0124C21.415 68.5525 21.3532 68.0746 21.3662 67.5957C21.3859 67.0048 21.517 66.4229 21.7526 65.8807" fill="white"/>
</g>
<g opacity="0.2">
<path d="M26.6397 63.6573C26.2669 63.6573 25.9618 63.5624 25.894 63.3658C25.8263 63.1692 25.9415 63.1557 26.0771 63.0743C26.2465 62.9784 26.4383 62.9293 26.6329 62.932C26.8287 62.9223 27.0234 62.9668 27.1955 63.0608C27.3311 63.1421 27.3989 63.2506 27.3853 63.3455" fill="white"/>
</g>
<path d="M28.0022 78.2586C28.0022 78.2586 27.887 78.2179 27.6971 78.1705C27.4499 78.1039 27.1937 78.0765 26.9379 78.0891C26.6833 78.1011 26.4319 78.1513 26.1923 78.2383C26.0093 78.306 25.9008 78.3603 25.894 78.3535C25.9771 78.2843 26.071 78.2294 26.172 78.1908C26.4144 78.0858 26.674 78.026 26.9379 78.0146C27.2 78.0021 27.4621 78.0389 27.7107 78.123C27.816 78.1482 27.9151 78.1943 28.0022 78.2586Z" fill="#455A64"/>
<path d="M28.7072 76.9302C28.7072 76.9302 27.9005 76.9776 26.9108 76.9912C25.9212 77.0048 25.1145 76.9912 25.1145 76.9912C25.1145 76.9912 25.9144 76.9437 26.9108 76.9234C27.9073 76.9031 28.7072 76.9099 28.7072 76.9302Z" fill="#455A64"/>
<path d="M28.4363 77.4585C28.2919 77.493 28.1441 77.5112 27.9957 77.5127C27.7245 77.5127 27.3178 77.5534 26.9382 77.5669C26.5586 77.5805 26.1451 77.5669 25.874 77.5669C25.7275 77.5817 25.5798 77.5817 25.4333 77.5669H25.874H26.9382H27.9957C28.1402 77.522 28.2873 77.4858 28.4363 77.4585Z" fill="#455A64"/>
<path d="M22.0034 62.3017C21.922 62.3628 21.6034 62.0781 21.2781 61.6713C20.9527 61.2646 20.7629 60.8579 20.8374 60.8579C20.912 60.8579 21.2374 61.0748 21.556 61.4883C21.8746 61.9018 22.0779 62.2136 22.0034 62.3017Z" fill="#263238"/>
<path d="M26.1585 60.6276C25.9361 60.0784 25.821 59.4916 25.8196 58.8991C25.7057 58.3149 25.7057 57.7141 25.8196 57.1299C26.0488 57.6794 26.1641 58.2698 26.1585 58.8652C26.2804 59.4463 26.2804 60.0465 26.1585 60.6276Z" fill="#263238"/>
<path d="M30.6119 60.1394C30.6932 60.1936 30.5644 60.5325 30.3272 60.885C30.0899 61.2375 29.8323 61.4883 29.751 61.4341C29.6696 61.3799 29.7984 61.0477 30.0357 60.6884C30.2729 60.3292 30.5305 60.0851 30.6119 60.1394Z" fill="#263238"/>
<path d="M231.91 76.8827C231.468 76.5103 230.953 76.2337 230.399 76.0704C229.845 75.907 229.263 75.8605 228.69 75.9337L220.277 75.8117C218.97 75.8764 217.676 75.5226 216.583 74.8017C215.51 74.0884 214.697 73.0467 214.265 71.8326L213.926 70.7413C213.248 68.545 212.53 66.2742 211.675 64.1186C211.188 62.8617 210.627 61.6349 209.994 60.4446C209.689 59.8549 209.316 59.2922 208.978 58.7161C208.639 58.1399 208.252 57.5705 207.893 57.0485C202.168 48.6545 193.967 42.2564 184.432 38.7463C175.933 35.7221 166.836 34.7648 157.894 35.9536C153.895 36.4715 149.956 37.3796 146.133 38.665L143.422 39.6343C142.852 39.858 142.29 40.0885 141.741 40.3122L140.832 40.685C139.17 41.3979 137.559 42.2269 136.013 43.166C133.143 44.9026 130.542 47.0492 128.292 49.5378C127.263 50.6782 126.316 51.8901 125.459 53.1644C124.74 54.2422 124.035 55.4081 123.242 56.8384C122.232 58.655 121.344 60.37 120.49 62.0308L119.676 63.6034L119.1 64.7015C118.349 66.2269 117.491 67.6971 116.531 69.1009C113.881 72.802 111.04 74.0492 109.929 74.4153C109.631 74.5281 109.325 74.6187 109.014 74.6864L108.722 74.7542L108.329 74.822C108.157 74.8549 107.982 74.8775 107.807 74.8898L107.034 74.9508C106.969 74.956 106.908 74.9866 106.865 75.036C106.822 75.0854 106.8 75.1497 106.804 75.2151C106.806 75.2805 106.833 75.3425 106.88 75.3881C106.927 75.4337 106.989 75.4592 107.055 75.4592H107.834C108.032 75.4443 108.229 75.4195 108.424 75.3846L108.824 75.3236L109.122 75.2558C109.459 75.1886 109.79 75.0957 110.112 74.9779C111.271 74.6118 114.254 73.3375 117.026 69.5008C118.016 68.0741 118.9 66.5765 119.67 65.0201C119.859 64.6677 120.049 64.3016 120.246 63.9288C120.524 63.4068 120.802 62.8713 121.086 62.329C121.94 60.6818 122.822 58.9872 123.798 57.1977C124.591 55.7877 125.289 54.6353 125.994 53.5779C126.838 52.3343 127.769 51.1519 128.78 50.0395C130.999 47.5769 133.572 45.4571 136.413 43.7489C137.935 42.8286 139.521 42.0176 141.158 41.3222L142.059 40.9494C142.608 40.7189 143.157 40.4884 143.713 40.2715L146.384 39.3157C150.162 38.064 154.054 37.1831 158.003 36.6856C166.822 35.5281 175.79 36.483 184.168 39.4716C193.539 42.9424 201.594 49.2474 207.215 57.5095C207.547 57.9975 207.927 58.5602 208.273 59.1499C208.618 59.7396 208.95 60.2616 209.269 60.831C209.883 61.9958 210.428 63.1954 210.903 64.4236C211.743 66.5453 212.414 68.7009 213.126 70.9853L213.479 72.097C213.967 73.4827 214.892 74.6721 216.115 75.4863C217.347 76.3044 218.807 76.7103 220.284 76.6454L228.744 76.7674C229.202 76.7077 229.668 76.7411 230.113 76.8657C230.558 76.9904 230.973 77.2037 231.333 77.4927C231.643 77.8411 231.874 78.252 232.011 78.6977C232.148 79.1433 232.187 79.6132 232.126 80.0754L232.086 81.1939C232.086 81.8717 232.038 82.5496 231.998 83.2274C231.964 83.607 231.937 83.9934 231.903 84.373C231.848 85.0509 231.794 85.7287 231.72 86.4066C231.234 90.7021 230.397 94.9507 229.218 99.1097C226.756 107.724 223.047 115.931 218.21 123.472C215.407 127.926 212.174 132.094 208.557 135.917C206.779 137.792 204.874 139.543 202.856 141.157C200.851 142.74 198.743 144.187 196.546 145.489C192.178 147.989 187.564 150.033 182.778 151.59L181.802 151.908C180.962 152.186 180.094 152.471 179.233 152.722L177.457 153.257C176.827 153.438 176.225 153.705 175.668 154.05C174.551 154.755 173.676 155.783 173.159 156.999C172.903 157.603 172.743 158.243 172.685 158.897C172.651 159.351 172.651 159.785 172.685 160.205V160.754C172.685 174.61 172.366 187.679 172.055 200.321C171.933 205.296 171.811 210.156 171.716 214.874C171.699 215.936 171.806 216.996 172.034 218.033C172.227 219.127 172.769 220.128 173.58 220.887C174.038 221.238 174.586 221.452 175.16 221.505C175.735 221.558 176.312 221.447 176.827 221.185C177.323 220.941 177.758 220.589 178.101 220.155C178.435 219.736 178.696 219.264 178.874 218.759C179.385 217.102 179.625 215.374 179.586 213.641V212.902C179.626 211.072 179.586 209.262 179.586 207.479V206.706C179.586 205.012 179.586 203.405 179.586 201.799V201.548C179.576 199.901 179.712 198.256 179.992 196.633C180.06 196.266 180.196 195.914 180.392 195.596C180.64 195.322 180.946 195.107 181.287 194.966C181.599 194.801 181.945 194.711 182.298 194.702C182.651 194.694 183.001 194.768 183.321 194.918C183.596 195.147 183.817 195.434 183.967 195.759C184.117 196.084 184.193 196.438 184.188 196.796C184.219 197.349 184.219 197.903 184.188 198.457C184.188 198.694 184.188 198.938 184.188 199.175L183.795 230.709C183.711 231.455 183.711 232.207 183.795 232.953C183.842 233.706 184.116 234.427 184.581 235.02C184.856 235.319 185.224 235.515 185.625 235.576C185.971 235.617 186.303 235.658 186.588 235.664C187.198 235.698 187.788 235.712 188.398 235.712H188.811C190.797 235.712 192.512 235.658 193.909 235.61L197.752 235.447C198.552 235.407 198.966 235.373 198.966 235.373C199.031 235.368 199.092 235.337 199.135 235.288C199.178 235.238 199.2 235.174 199.196 235.108C199.188 235.044 199.158 234.985 199.111 234.94C199.064 234.895 199.003 234.869 198.938 234.864C198.938 234.864 198.532 234.864 197.732 234.905L193.753 235.027C192.295 235.068 190.486 235.115 188.398 235.095C187.781 235.095 187.218 235.095 186.635 235.041H186.351C186.119 235.061 185.885 235.034 185.664 234.962C185.442 234.89 185.238 234.774 185.063 234.62C184.679 234.126 184.461 233.524 184.439 232.899C184.366 232.186 184.378 231.467 184.473 230.757L184.954 199.202C184.954 198.965 184.954 198.728 184.954 198.491C184.988 197.908 184.988 197.324 184.954 196.742C184.916 196.298 184.813 195.861 184.649 195.447C184.481 194.981 184.164 194.583 183.748 194.315C183.326 194.046 182.83 193.92 182.331 193.956C181.862 193.992 181.404 194.109 180.975 194.301C180.52 194.489 180.116 194.782 179.796 195.155C179.52 195.564 179.333 196.026 179.247 196.511C178.957 198.163 178.812 199.837 178.813 201.514V201.853C178.779 203.5 178.813 205.127 178.813 206.855V207.533C178.813 209.282 178.813 211.092 178.813 212.902V213.58C178.85 215.243 178.621 216.903 178.135 218.494C178.004 218.918 177.787 219.311 177.497 219.648C177.208 219.985 176.853 220.259 176.454 220.453C176.075 220.651 175.648 220.737 175.222 220.702C174.796 220.668 174.389 220.513 174.047 220.257C173.384 219.601 172.941 218.755 172.78 217.837C172.568 216.864 172.47 215.87 172.488 214.874C172.583 210.258 172.705 205.513 172.827 200.639C173.153 187.896 173.505 174.718 173.505 160.727V160.178C173.505 159.764 173.505 159.337 173.505 158.944C173.556 158.379 173.696 157.826 173.919 157.304C174.365 156.246 175.128 155.351 176.101 154.742C176.592 154.44 177.124 154.212 177.681 154.064L179.457 153.528C180.324 153.271 181.206 152.986 182.053 152.708L183.022 152.389C187.869 150.831 192.544 148.78 196.973 146.268C199.204 144.941 201.346 143.47 203.385 141.862C205.432 140.223 207.366 138.447 209.174 136.548C212.829 132.685 216.096 128.474 218.929 123.974C223.809 116.358 227.552 108.071 230.039 99.374C231.231 95.1707 232.076 90.8768 232.567 86.5354C232.642 85.8575 232.696 85.1797 232.75 84.5018C232.75 84.1222 232.811 83.7426 232.845 83.3562C232.886 82.6784 232.913 82.0005 232.933 81.3226L232.974 80.1974C233.053 79.6006 232.998 78.9936 232.814 78.4204C232.63 77.8472 232.321 77.322 231.91 76.8827Z" fill="#455A64"/>
</svg>
