<svg width="160" height="160" viewBox="0 0 160 160" fill="none" xmlns="http://www.w3.org/2000/svg">
<path d="M120 120C142.091 97.9086 142.091 62.0914 120 40C97.9086 17.9086 62.0914 17.9086 40 40C17.9086 62.0914 17.9086 97.9086 40 120C62.0914 142.091 97.9086 142.091 120 120Z" fill="#EBEBEB" fill-opacity="0.6"/>
<path d="M114.638 117.633C134.13 98.141 134.13 66.5376 114.638 47.0452C95.1453 27.5528 63.5419 27.5528 44.0495 47.0452C24.5571 66.5376 24.5571 98.141 44.0495 117.633C63.5419 137.126 95.1453 137.126 114.638 117.633Z" fill="#3780EF"/>
<g opacity="0.3">
<path d="M114.636 117.636C134.129 98.1437 134.129 66.5403 114.636 47.0479C95.1439 27.5555 63.5404 27.5555 44.048 47.0479C24.5556 66.5403 24.5556 98.1437 44.048 117.636C63.5404 137.128 95.1439 137.128 114.636 117.636Z" fill="#7291C0"/>
</g>
<path d="M102.94 120.882C127.271 107.923 136.49 77.6945 123.531 53.3638C110.573 29.0332 80.3437 19.8143 56.0131 32.7729C31.6824 45.7316 22.4635 75.9605 35.4222 100.291C48.3808 124.622 78.6098 133.841 102.94 120.882Z" fill="#3780EF"/>
<path d="M101.932 101.605C115.607 89.2055 116.64 68.0682 104.241 54.3935C91.8414 40.7188 70.7041 39.685 57.0293 52.0844C43.3546 64.4839 42.3208 85.6213 54.7203 99.296C67.1198 112.971 88.2571 114.004 101.932 101.605Z" fill="white" fill-opacity="0.6"/>
<path d="M95.8323 77.2425C95.7494 80.4761 94.7096 83.6125 92.8444 86.2552C90.9793 88.8979 88.3724 90.9282 85.3534 92.0895C82.3345 93.2509 79.039 93.491 75.8835 92.7796C72.7281 92.0683 69.8544 90.4373 67.6258 88.0929C65.3972 85.7485 63.9137 82.796 63.3629 79.6086C62.8121 76.4212 63.2187 73.1421 64.5313 70.1858C65.8439 67.2294 68.0036 64.7287 70.7373 62.9996C73.471 61.2705 76.656 60.3908 79.8896 60.4716C82.0378 60.5253 84.1544 61.0018 86.1184 61.8738C88.0824 62.7458 89.8553 63.9963 91.3359 65.5537C92.8164 67.1112 93.9756 68.9451 94.7471 70.9507C95.5186 72.9563 95.8874 75.0943 95.8323 77.2425Z" fill="#3780EF"/>
<path d="M115.16 41.1714L114.066 30.4937L125.202 19.1652L125.69 30.6711L115.16 41.1714Z" fill="#455A64"/>
<path d="M138.632 33.2889L127.658 32.1205L116.374 42.4434L127.377 43.8927L138.632 33.2889Z" fill="#455A64"/>
<g opacity="0.3">
<path d="M81.6641 76.6504L120.545 48.4771C119.166 46.3819 117.618 44.4034 115.916 42.5614L81.738 74.0475L81.6641 76.6504Z" fill="#7291C0"/>
</g>
<path d="M126.179 29.0747L110.251 44.2336L85.0059 68.266L79.1937 73.7823C77.3599 75.5275 80.0959 78.367 81.9297 76.6219L97.8576 61.4778L123.103 37.4454L128.915 31.8994C130.749 30.1543 128.013 27.3148 126.179 29.0599V29.0747Z" fill="#495464"/>
</svg>
