<svg width="160" height="160" viewBox="0 0 160 160" fill="none" xmlns="http://www.w3.org/2000/svg">
<path d="M1.07181 139.866L25.8049 138.427C40.3725 151.985 59.4844 159.604 79.3841 159.787C99.2839 159.969 118.532 152.702 133.346 139.414C148.16 126.126 157.469 107.777 159.441 87.9744C161.414 68.1718 155.909 48.3474 144.008 32.3976C132.106 16.4479 114.67 5.52628 95.125 1.77943C75.5803 -1.96741 55.341 1.73147 38.3849 12.1491C21.4288 22.5667 8.98241 38.9496 3.49188 58.0778C-1.99865 77.2061 -0.136169 97.6962 8.71325 115.521L1.07181 139.866Z" fill="white" fill-opacity="0.5"/>
<path d="M42.2871 85.3243L52.5864 75.025L72.4651 92.6889L111.484 55.1462L121.045 65.4455L70.9886 112.568L42.2871 85.3243Z" fill="#3780EF"/>
</svg>
