<svg width="101" height="98" viewBox="0 0 101 98" fill="none" xmlns="http://www.w3.org/2000/svg">
<path d="M0.66748 92.3024L10.8361 74.3265C4.53251 64.0904 2.28548 51.8666 4.53676 40.0579C6.78804 28.2492 13.3748 17.7096 23.0023 10.5107C32.6299 3.31178 44.6019 -0.025747 56.5652 1.15411C68.5286 2.33396 79.618 7.94587 87.6538 16.8868C95.6896 25.8277 100.091 37.4509 99.9917 49.4719C99.8929 61.4929 95.3013 73.0422 87.1195 81.8497C78.9378 90.6573 67.7576 96.086 55.7764 97.0689C43.7953 98.0519 31.8798 94.5179 22.3719 87.1616L0.66748 92.3024Z" fill="#FAFAFA"/>
<path d="M0.66715 92.3024L22.3829 87.0712L22.3038 87.3084C22.2894 87.2957 22.2778 87.2801 22.2699 87.2625C22.262 87.245 22.2579 87.226 22.2579 87.2067C22.2579 87.1875 22.262 87.1685 22.2699 87.151C22.2778 87.1334 22.2894 87.1178 22.3038 87.1051C22.3287 87.0828 22.3608 87.0705 22.3942 87.0705C22.4275 87.0705 22.4597 87.0828 22.4846 87.1051C25.5276 89.439 28.8344 91.4072 32.3369 92.969C36.508 94.8144 40.9213 96.0547 45.4432 96.6523C47.9432 96.9968 50.469 97.1178 52.9906 97.0139C54.2899 96.9348 55.6118 96.9009 56.9451 96.7766L60.9673 96.1552C72.9518 93.7576 83.5753 86.8907 90.6824 76.9477C94.63 71.4598 97.3611 65.1927 98.693 58.565C100.064 51.5586 99.8671 44.3356 98.1169 37.4142C96.3275 30.187 92.8417 23.4904 87.9482 17.879L86.0048 15.7436C85.3721 15.0205 84.6151 14.433 83.9146 13.7664C83.2141 13.0998 82.5475 12.4445 81.7679 11.8908L79.5082 10.1848C78.7628 9.60435 77.9733 9.08303 77.1468 8.62556L74.7402 7.15675L72.2094 5.92522C71.3843 5.50017 70.5355 5.12293 69.6672 4.79536C62.901 2.11384 55.6179 0.990093 48.3582 1.5075C41.4927 1.96787 34.8121 3.93114 28.7891 7.25844C17.9546 13.2694 9.84146 23.2107 6.12432 35.0302C4.63158 40.0558 3.90782 45.2783 3.97761 50.5205C4.08859 55.0794 4.84949 59.5991 6.23731 63.9431C7.41192 67.5492 9.00055 71.007 10.9714 74.2473C10.9855 74.2692 10.993 74.2947 10.993 74.3208C10.993 74.3468 10.9855 74.3723 10.9714 74.3942L0.644531 92.3024L10.7228 74.2247V74.3603C6.26385 67.1796 3.78462 58.9468 3.53695 50.4979C3.44111 45.2091 4.14973 39.9365 5.63849 34.8607C9.38124 22.9374 17.5647 12.9093 28.4954 6.85169C34.5785 3.46769 41.334 1.4692 48.2791 0.999062C55.6217 0.454062 62.9929 1.56612 69.8479 4.25304C70.73 4.57393 71.5905 4.95133 72.424 5.38289L74.9775 6.61443L77.418 8.12843C78.2558 8.59346 79.0566 9.12229 79.8132 9.71022L82.0729 11.4276C82.8638 11.9925 83.5304 12.7043 84.2535 13.337C84.9767 13.9698 85.7337 14.6025 86.3777 15.3256L88.3436 17.4836C93.2992 23.1717 96.8311 29.9567 98.6479 37.2786C100.41 44.2828 100.606 51.5891 99.2241 58.678C97.8641 65.3811 95.0909 71.7172 91.0892 77.264C83.8821 87.2817 73.1328 94.1812 61.0238 96.5619L56.9564 97.172C55.6118 97.285 54.2786 97.3189 52.968 97.3867C50.4232 97.4889 47.8744 97.3603 45.3528 97.0025C40.8191 96.3825 36.3978 95.1155 32.2239 93.2402C28.7017 91.6477 25.3795 89.6453 22.3264 87.2745L22.5298 87.0712C22.556 87.0985 22.5706 87.1349 22.5706 87.1728C22.5706 87.2107 22.556 87.2472 22.5298 87.2745L0.66715 92.3024Z" fill="#263238"/>
<path d="M68.2097 31.4371H36.5739C35.5318 31.4371 34.687 32.2819 34.687 33.324V64.9598C34.687 66.0019 35.5318 66.8467 36.5739 66.8467H68.2097C69.2518 66.8467 70.0966 66.0019 70.0966 64.9598V33.324C70.0966 32.2819 69.2518 31.4371 68.2097 31.4371Z" fill="#3780EF"/>
<path d="M64.6957 70.3718C65.159 70.335 65.5965 70.144 65.9386 69.8294C66.7521 69.2193 66.4244 67.7392 66.4696 66.0105C66.4696 62.4628 66.4131 57.4124 66.3792 51.1756C66.3792 48.0459 66.3792 44.6111 66.3792 40.9391V38.1258C66.3792 37.6625 66.3792 37.188 66.3792 36.7135C66.3651 36.497 66.3079 36.2855 66.2109 36.0915C66.1139 35.8974 65.979 35.7248 65.8143 35.5836C65.6508 35.4422 65.4605 35.3353 65.2547 35.2693C65.0489 35.2033 64.8319 35.1795 64.6167 35.1995H60.0973H33.1616C32.908 35.2016 32.6585 35.2631 32.4329 35.3788C32.2073 35.4945 32.0119 35.6614 31.8622 35.8661C31.5872 36.3238 31.4831 36.8642 31.5685 37.3914V40.9052C31.5685 43.2327 31.5685 45.5263 31.5685 47.786C31.5685 52.3054 31.5685 56.6328 31.5685 60.768C31.5685 62.8469 31.5685 64.8581 31.5685 66.824V68.2815C31.5295 68.7006 31.6532 69.1185 31.9141 69.4488C32.1749 69.779 32.5528 69.9963 32.9695 70.0554C33.365 70.0554 33.8847 70.0554 34.3253 70.0554H44.5731L59.3967 70.1458H63.4303H64.4811C64.5976 70.1355 64.7148 70.1355 64.8313 70.1458C64.715 70.1609 64.5973 70.1609 64.4811 70.1458H63.4303H59.3967L44.5731 70.2475H34.3253C33.8508 70.2475 33.4327 70.2475 32.9017 70.2475C32.366 70.1791 31.8768 69.9083 31.5346 69.4905C31.1972 69.0643 31.0247 68.5308 31.0487 67.9878V66.5303C31.0487 64.5643 31.0487 62.5532 31.0487 60.4742C31.0487 56.339 31.0487 51.9891 31.0487 47.4923V37.0976C31.0326 36.789 31.0326 36.4797 31.0487 36.1711C31.1001 35.8324 31.2318 35.5108 31.4329 35.2334C31.6387 34.9552 31.9058 34.728 32.2133 34.5693C32.5209 34.4106 32.8607 34.3247 33.2068 34.3182H60.1424H64.6618C65.2222 34.2984 65.7699 34.4877 66.1984 34.8492C66.6223 35.2124 66.8861 35.7279 66.9328 36.2841C66.9328 36.8152 66.9328 37.2558 66.9328 37.7416V40.555C66.9328 44.227 66.9328 47.6617 66.9328 50.7914C66.9328 57.0282 66.8651 62.0899 66.8425 65.6264C66.8425 66.4964 66.8425 67.276 66.8425 67.9539C66.8588 68.2498 66.8083 68.5456 66.6949 68.8194C66.5815 69.0932 66.4079 69.338 66.1871 69.5357C66.0437 69.8024 65.8273 70.0227 65.5631 70.1707C65.299 70.3188 64.9981 70.3885 64.6957 70.3718Z" fill="#3780EF"/>
<path d="M52.3923 57.3899C52.0949 54.6514 51.9967 51.8948 52.0986 49.142C51.9966 46.3855 52.0947 43.6252 52.3923 40.8828C52.6832 43.6256 52.7813 46.3855 52.6861 49.142C52.7811 51.8948 52.683 54.6509 52.3923 57.3899Z" fill="white"/>
<path d="M61.0576 49.1425C58.1787 49.4335 55.2836 49.5316 52.3916 49.4363C49.4959 49.5314 46.597 49.4332 43.7144 49.1425C46.5966 48.845 49.4959 48.7469 52.3916 48.8488C55.2836 48.7466 58.1791 48.8448 61.0576 49.1425Z" fill="white"/>
</svg>
