<svg width="650" height="707" viewBox="0 0 650 707" fill="none" xmlns="http://www.w3.org/2000/svg">
<path d="M590.938 670.751C590.938 670.978 469.981 671.145 320.802 671.145C171.624 671.145 50.6367 670.978 50.6367 670.751C50.6367 670.523 171.578 670.356 320.802 670.356C470.027 670.356 590.938 670.614 590.938 670.751Z" fill="#263238"/>
<path d="M456.59 286.241C456.59 286.241 456.591 285.452 456.484 283.905C456.378 282.359 456.484 280.038 456.181 277.021C455.601 268.214 454.221 259.478 452.056 250.921C450.492 244.729 448.511 238.649 446.127 232.723C443.328 225.684 439.955 218.888 436.042 212.402C426.525 196.517 414.07 182.59 399.342 171.365C381.463 157.756 360.648 148.517 338.561 144.387C319.841 140.93 300.628 141.156 281.995 145.054C275.448 146.463 268.999 148.297 262.69 150.544C235.848 160.33 212.503 177.843 195.6 200.877C191.186 206.872 187.251 213.205 183.832 219.818C182.057 223.124 180.541 226.566 178.979 230.024C177.417 233.482 176.158 237.045 175.006 240.64C172.566 247.917 170.73 255.384 169.516 262.962C166.998 278.344 166.998 294.032 169.516 309.413C170.738 316.991 172.573 324.456 175.006 331.736C176.158 335.376 177.599 338.894 178.994 342.352C180.389 345.809 182.027 349.252 183.832 352.558C187.255 359.168 191.19 365.501 195.6 371.499C212.498 394.555 235.841 412.095 262.69 421.908C268.997 424.166 275.446 426.005 281.995 427.412C300.628 431.313 319.843 431.534 338.561 428.065C360.652 423.941 381.472 414.708 399.358 401.101C414.069 389.869 426.517 375.95 436.042 360.08C439.941 353.581 443.304 346.774 446.096 339.728C451.798 325.606 455.193 310.66 456.151 295.461C456.424 292.428 456.363 290.138 456.454 288.591C456.545 287.045 456.56 286.241 456.56 286.241C456.56 286.241 456.56 287.045 456.56 288.591C456.56 290.138 456.56 292.459 456.333 295.476C455.463 310.707 452.134 325.697 446.475 339.865C443.696 346.94 440.343 353.777 436.451 360.307C426.91 376.271 414.42 390.275 399.646 401.571C383.039 414.163 363.926 423.05 343.595 427.633C323.264 432.217 302.186 432.389 281.783 428.14C275.202 426.733 268.722 424.889 262.387 422.62C235.39 412.813 211.91 395.217 194.917 372.06C190.475 366.035 186.519 359.666 183.089 353.013C181.299 349.691 179.767 346.219 178.205 342.761C176.643 339.303 175.354 335.694 174.202 332.039C171.753 324.716 169.906 317.204 168.682 309.58C166.154 294.113 166.154 278.338 168.682 262.872C169.913 255.252 171.764 247.746 174.217 240.427C175.37 236.772 176.825 233.239 178.221 229.705C179.616 226.172 181.254 222.775 183.089 219.454C186.532 212.837 190.487 206.499 194.917 200.498C211.92 177.351 235.397 159.757 262.387 149.937C268.743 147.66 275.243 145.806 281.843 144.387C300.569 140.48 319.878 140.273 338.682 143.78C360.84 147.949 381.717 157.239 399.646 170.911C414.406 182.204 426.877 196.209 436.391 212.175C440.29 218.703 443.648 225.54 446.43 232.617C452.091 246.789 455.42 261.784 456.287 277.021C456.545 280.054 456.454 282.343 456.515 283.905C456.575 285.467 456.59 286.241 456.59 286.241Z" fill="#263238"/>
<path d="M124.111 455.119C123.959 454.967 140.868 437.618 161.887 416.402C182.906 395.186 200.073 378.08 200.224 378.232C200.376 378.384 183.467 395.717 162.448 416.948C141.429 438.179 124.263 455.27 124.111 455.119Z" fill="#263238"/>
<path d="M135.911 485.555C161.615 485.555 182.453 464.718 182.453 439.014C182.453 413.31 161.615 392.472 135.911 392.472C110.207 392.472 89.3696 413.31 89.3696 439.014C89.3696 464.718 110.207 485.555 135.911 485.555Z" fill="#3780EF"/>
<path d="M182.453 439.014C182.415 438.762 182.389 438.509 182.377 438.255C182.377 437.725 182.286 436.997 182.225 436.041C182.225 435.556 182.225 435.01 182.119 434.419C182.013 433.827 181.937 433.175 181.831 432.477C181.62 430.858 181.291 429.256 180.845 427.685C179.763 423.337 178.024 419.18 175.689 415.356C172.634 410.272 168.634 405.82 163.906 402.238C158.183 397.886 151.519 394.936 144.449 393.625C142.521 393.265 140.57 393.037 138.611 392.942C137.61 392.942 136.609 392.821 135.578 392.836L132.545 392.988C132.044 392.988 131.529 392.988 131.028 393.094L129.512 393.336C128.48 393.503 127.434 393.625 126.479 393.837C124.389 394.303 122.332 394.906 120.322 395.641C118.241 396.385 116.214 397.272 114.256 398.295C113.285 398.826 112.36 399.433 111.389 400.009C110.413 400.581 109.48 401.225 108.599 401.935C106.761 403.302 105.014 404.786 103.367 406.378C101.73 408.057 100.21 409.845 98.8176 411.732C95.9515 415.587 93.7241 419.878 92.2208 424.44C89.0467 433.886 89.0467 444.111 92.2208 453.557C93.7177 458.127 95.9455 462.424 98.8176 466.28C101.503 470.063 104.799 473.374 108.569 476.077C109.45 476.787 110.383 477.431 111.359 478.003C112.314 478.579 113.255 479.186 114.225 479.717C116.184 480.74 118.21 481.627 120.291 482.37C122.302 483.106 124.359 483.709 126.448 484.175C127.495 484.387 128.541 484.509 129.481 484.691L130.998 484.918C131.513 484.994 132.029 484.994 132.514 485.024L135.547 485.176C136.563 485.176 137.564 485.1 138.58 485.07C140.54 484.975 142.49 484.747 144.419 484.387C150.866 483.177 156.983 480.615 162.367 476.869C167.752 473.123 172.282 468.279 175.659 462.656C177.994 458.832 179.733 454.674 180.815 450.327C181.26 448.756 181.59 447.154 181.801 445.535C181.907 444.837 182.028 444.185 182.089 443.593C182.15 443.002 182.165 442.456 182.195 441.971C182.195 441.031 182.301 440.287 182.347 439.757C182.358 439.508 182.384 439.26 182.423 439.014C182.423 439.014 182.423 439.256 182.423 439.757L182.347 441.971C182.347 442.471 182.347 443.017 182.347 443.609C182.347 444.2 182.18 444.867 182.089 445.565C181.906 447.198 181.602 448.815 181.179 450.403C180.13 454.797 178.417 459.005 176.099 462.883C172.716 468.596 168.159 473.525 162.729 477.344C157.299 481.164 151.12 483.787 144.601 485.04C142.642 485.404 140.661 485.637 138.671 485.737C137.67 485.737 136.654 485.874 135.638 485.874L132.605 485.722C132.09 485.722 131.559 485.722 131.089 485.616L129.572 485.388C128.526 485.206 127.464 485.085 126.418 484.873C124.293 484.404 122.2 483.796 120.155 483.053C118.072 482.301 116.045 481.404 114.089 480.369C113.103 479.838 112.148 479.216 111.162 478.64C110.178 478.052 109.236 477.399 108.341 476.684C106.467 475.282 104.684 473.762 103.003 472.134C101.367 470.423 99.847 468.604 98.4536 466.69C95.4129 462.794 93.0355 458.423 91.417 453.754C88.182 444.147 88.182 433.744 91.417 424.137C92.9362 419.492 95.2056 415.127 98.1351 411.216C99.5285 409.302 101.048 407.483 102.685 405.772C104.366 404.144 106.149 402.624 108.023 401.222C108.92 400.503 109.868 399.85 110.859 399.266C111.829 398.69 112.785 398.068 113.77 397.537C115.727 396.501 117.754 395.604 119.836 394.853C121.882 394.11 123.974 393.502 126.1 393.033C127.146 392.821 128.207 392.699 129.254 392.533L130.77 392.29C131.286 392.29 131.817 392.29 132.287 392.199L135.32 392.047C136.336 392.047 137.367 392.123 138.353 392.169C140.343 392.269 142.324 392.502 144.282 392.866C150.802 394.119 156.981 396.742 162.411 400.562C167.841 404.381 172.398 409.31 175.78 415.022C178.098 418.9 179.811 423.109 180.861 427.503C181.283 429.091 181.587 430.708 181.77 432.341C181.861 433.054 181.983 433.691 182.028 434.297C182.074 434.904 182.028 435.435 182.028 435.935C182.028 436.875 182.028 437.618 182.104 438.149C182.18 438.68 182.453 439.014 182.453 439.014Z" fill="#263238"/>
<path d="M442.744 224.443C442.638 224.261 456.392 215.981 473.438 205.957C490.483 195.933 504.42 187.971 504.526 188.153C504.632 188.335 490.878 196.615 473.832 206.639C456.787 216.663 442.865 224.625 442.744 224.443Z" fill="#263238"/>
<path d="M513.809 226.384C539.513 226.384 560.351 205.547 560.351 179.842C560.351 154.138 539.513 133.301 513.809 133.301C488.105 133.301 467.268 154.138 467.268 179.842C467.268 205.547 488.105 226.384 513.809 226.384Z" fill="#3780EF"/>
<path d="M467.268 179.843C467.268 179.843 467.268 179.585 467.268 179.085C467.268 178.584 467.268 177.826 467.343 176.87C467.343 176.385 467.343 175.839 467.343 175.233C467.343 174.626 467.51 173.989 467.601 173.276C467.784 171.643 468.088 170.026 468.511 168.439C469.558 164.048 471.272 159.844 473.591 155.973C476.969 150.24 481.531 145.293 486.974 141.465C492.416 137.636 498.613 135.013 505.15 133.771C507.107 133.394 509.089 133.156 511.079 133.059C512.08 133.059 513.112 132.922 514.112 132.937L517.221 133.089C517.737 133.089 518.268 133.089 518.738 133.18L520.254 133.422C521.301 133.589 522.362 133.711 523.409 133.923C525.532 134.399 527.624 135.007 529.672 135.743C531.749 136.507 533.775 137.404 535.738 138.427C536.724 138.958 537.679 139.58 538.65 140.171C539.643 140.744 540.591 141.393 541.485 142.112C545.325 144.855 548.682 148.217 551.419 152.06C554.342 155.975 556.611 160.339 558.137 164.981C561.372 174.588 561.372 184.991 558.137 194.598C556.615 199.246 554.345 203.616 551.419 207.534C550.021 209.44 548.501 211.254 546.869 212.963C545.195 214.599 543.411 216.119 541.531 217.513C540.64 218.228 539.697 218.877 538.71 219.454C537.724 220.03 536.769 220.667 535.783 221.198C533.821 222.221 531.795 223.118 529.717 223.882C527.669 224.618 525.578 225.226 523.454 225.702C522.408 225.914 521.346 226.036 520.3 226.202L518.783 226.445C518.268 226.445 517.737 226.445 517.267 226.536L514.158 226.688C513.127 226.688 512.111 226.597 511.125 226.566C509.134 226.469 507.153 226.231 505.195 225.854C498.673 224.609 492.49 221.989 487.059 218.169C481.628 214.349 477.073 209.415 473.698 203.697C471.378 199.826 469.664 195.622 468.617 191.232C468.195 189.644 467.89 188.027 467.707 186.394C467.616 185.681 467.495 185.029 467.45 184.438C467.404 183.846 467.45 183.285 467.45 182.8L467.374 180.586C467.374 180.085 467.374 179.828 467.374 179.828C467.412 180.079 467.437 180.332 467.45 180.586C467.45 181.117 467.541 181.845 467.601 182.785C467.601 183.27 467.601 183.816 467.707 184.407C467.814 184.999 467.889 185.651 467.996 186.349C468.206 187.973 468.536 189.58 468.981 191.156C470.067 195.498 471.805 199.65 474.137 203.47C477.516 209.093 482.047 213.937 487.431 217.685C492.815 221.433 498.931 224 505.377 225.217C507.305 225.579 509.256 225.802 511.216 225.884C512.217 225.884 513.218 226.02 514.249 226.005L517.282 225.838C517.798 225.838 518.313 225.838 518.798 225.747L520.315 225.505C521.346 225.338 522.377 225.217 523.348 225.004C525.438 224.533 527.495 223.925 529.505 223.185C531.586 222.446 533.613 221.565 535.571 220.546C536.542 220.015 537.482 219.393 538.437 218.817C539.41 218.245 540.342 217.606 541.228 216.906C543.072 215.542 544.82 214.052 546.46 212.448C548.096 210.769 549.616 208.981 551.009 207.094C553.881 203.243 556.109 198.951 557.606 194.386C560.78 184.94 560.78 174.715 557.606 165.269C556.103 160.702 553.875 156.406 551.009 152.546C549.613 150.667 548.093 148.884 546.46 147.208C544.817 145.607 543.069 144.117 541.228 142.749C540.339 142.049 539.407 141.406 538.437 140.823C537.467 140.262 536.542 139.64 535.571 139.109C533.613 138.091 531.586 137.209 529.505 136.471C527.495 135.73 525.438 135.122 523.348 134.651C522.317 134.439 521.27 134.317 520.315 134.15L518.798 133.908C518.283 133.908 517.767 133.908 517.282 133.817L514.249 133.65C513.233 133.65 512.232 133.65 511.216 133.771C509.256 133.854 507.305 134.077 505.377 134.439C498.934 135.657 492.82 138.223 487.436 141.968C482.053 145.713 477.521 150.552 474.137 156.17C471.805 159.995 470.066 164.152 468.981 168.499C468.536 170.075 468.206 171.682 467.996 173.307C467.905 174.004 467.768 174.641 467.707 175.248L467.601 176.87C467.601 177.811 467.495 178.539 467.45 179.069C467.403 179.33 467.342 179.588 467.268 179.843Z" fill="#263238"/>
<path d="M499.631 459.244C499.464 459.395 481.933 441.925 460.444 420.224C438.955 398.523 421.667 380.795 421.819 380.643C421.971 380.491 439.516 397.962 461.005 419.663C482.494 441.364 499.737 459.092 499.631 459.244Z" fill="#263238"/>
<path d="M505.437 166.27C506.654 165.531 507.965 164.96 509.335 164.571L510.138 160.704L516.675 160.598L517.615 164.42C518.993 164.755 520.323 165.265 521.573 165.936L524.879 163.783L529.58 168.332L527.533 171.684C528.266 172.909 528.836 174.224 529.231 175.596L533.098 176.4L533.205 182.921L529.368 183.861C529.043 185.248 528.532 186.584 527.851 187.835L530.005 191.125L525.455 195.827L522.089 193.779C520.87 194.524 519.553 195.096 518.176 195.478L517.372 199.345L510.836 199.466L509.896 195.629C508.515 195.301 507.184 194.791 505.938 194.113L502.647 196.282L497.946 191.732L499.993 188.35C499.248 187.137 498.676 185.825 498.295 184.453L494.427 183.634L494.306 177.113L498.143 176.173C498.471 174.792 498.981 173.461 499.659 172.215L497.491 168.909L502.04 164.207L505.422 166.255L505.437 166.27ZM508.91 174.975C507.95 175.973 507.307 177.233 507.063 178.597C506.819 179.96 506.985 181.365 507.539 182.634C508.093 183.904 509.011 184.98 510.177 185.728C511.342 186.476 512.704 186.862 514.088 186.836C515.473 186.811 516.819 186.376 517.957 185.586C519.094 184.795 519.972 183.686 520.479 182.397C520.987 181.108 521.1 179.698 520.807 178.344C520.513 176.991 519.824 175.755 518.828 174.793C518.165 174.152 517.383 173.649 516.526 173.312C515.668 172.974 514.753 172.809 513.831 172.826C512.91 172.843 512.001 173.042 511.157 173.41C510.312 173.779 509.549 174.311 508.91 174.975Z" fill="white"/>
<path d="M508.91 174.975C509.288 174.525 509.733 174.136 510.23 173.822C511.373 173.083 512.705 172.69 514.067 172.69C515.428 172.69 516.76 173.083 517.903 173.822C518.976 174.52 519.841 175.494 520.406 176.643C520.724 177.262 520.944 177.927 521.058 178.614C521.172 179.328 521.172 180.054 521.058 180.768C520.853 182.279 520.167 183.685 519.102 184.777C518.037 185.87 516.649 186.591 515.143 186.834C514.43 186.947 513.703 186.947 512.99 186.834C512.302 186.746 511.631 186.551 511.003 186.258C509.906 185.77 508.951 185.011 508.227 184.054C507.503 183.097 507.034 181.971 506.863 180.783C506.645 179.205 506.972 177.601 507.788 176.233C508.075 175.731 508.444 175.28 508.88 174.899C508.88 174.899 508.471 175.354 507.925 176.309C507.157 177.694 506.884 179.298 507.151 180.859C507.316 181.91 507.726 182.908 508.349 183.77C509.064 184.766 510.033 185.551 511.155 186.045C511.751 186.317 512.385 186.496 513.035 186.576C513.714 186.682 514.404 186.682 515.083 186.576C516.508 186.33 517.819 185.636 518.822 184.594C519.826 183.552 520.471 182.217 520.663 180.783C520.77 180.105 520.77 179.414 520.663 178.736C520.561 178.088 520.362 177.459 520.072 176.87C519.536 175.773 518.72 174.836 517.706 174.156C516.815 173.572 515.805 173.194 514.749 173.049C513.199 172.855 511.63 173.186 510.29 173.989C509.365 174.535 508.956 175.005 508.91 174.975Z" fill="white"/>
<path d="M505.437 166.27L505.225 166.149L504.573 165.785L502.025 164.268H502.101L497.551 169V168.863L499.72 172.154C499.036 173.393 498.526 174.719 498.203 176.097H498.219L494.382 177.052L494.503 176.916C494.503 178.963 494.579 181.147 494.624 183.437L494.503 183.285L498.37 184.089H498.461V184.195C498.854 185.546 499.42 186.841 500.145 188.047V188.138V188.229L498.112 191.611V191.383L502.814 195.933H502.586L505.877 193.779L505.983 193.704H506.074C507.309 194.384 508.63 194.895 510.002 195.22H510.108V195.341C510.396 196.539 510.73 197.844 511.048 199.178L510.851 199.026L517.387 198.905L517.19 199.057C517.448 197.844 517.721 196.524 517.994 195.205V195.084H518.115C519.466 194.69 520.76 194.124 521.967 193.4H522.073H522.179L525.546 195.447H525.303L529.853 190.746V191.004L527.7 187.698L527.624 187.592V187.486C528.302 186.255 528.812 184.939 529.14 183.573V183.467H529.246L533.083 182.527L532.947 182.724C532.947 180.495 532.871 178.311 532.84 176.188L532.977 176.37L529.11 175.551H529.004V175.445C528.627 174.086 528.065 172.785 527.336 171.578V171.487V171.396C528.043 170.243 528.726 169.121 529.383 168.029V168.241L524.697 163.692H524.894L521.588 165.845H521.512C520.277 165.164 518.956 164.654 517.584 164.329C517.236 162.934 516.932 161.675 516.659 160.477L516.766 160.568L510.244 160.659H510.32C509.987 162.175 509.729 163.464 509.501 164.526C508.454 164.806 507.438 165.192 506.468 165.678L505.756 166.042L505.528 166.164L505.74 166.012L506.438 165.618C507.403 165.107 508.42 164.701 509.471 164.405L510.26 160.538V160.462L516.796 160.325H516.887V160.416C517.175 161.599 517.493 162.858 517.842 164.238L517.736 164.147C519.132 164.471 520.479 164.981 521.74 165.663H521.588L524.879 163.495H524.985L525.076 163.571L529.792 168.12L529.883 168.211L529.807 168.317C529.155 169.424 528.473 170.546 527.775 171.699V171.684C528.523 172.92 529.1 174.251 529.489 175.642L529.352 175.505L533.098 176.233H533.25V176.385C533.25 178.508 533.326 180.677 533.371 182.906V183.058H533.22L529.398 183.998L529.534 183.861C529.213 185.258 528.702 186.605 528.018 187.865V187.668L530.171 190.959L530.262 191.095L530.065 191.398C528.549 192.915 527.032 194.507 525.516 196.084L525.394 196.206L525.258 196.13L521.891 194.083H522.088C520.854 194.822 519.528 195.398 518.146 195.796L518.282 195.645L517.478 199.512V199.663H517.311L510.79 199.785H510.624V199.633C510.29 198.314 509.972 196.994 509.683 195.796L509.82 195.933C508.423 195.611 507.076 195.1 505.816 194.416H506.013L502.768 196.433L502.647 196.509L502.541 196.418L497.839 191.869L497.748 191.762V191.641L499.796 188.274V188.456C499.048 187.221 498.472 185.889 498.082 184.498L498.203 184.62L494.352 183.816H494.215V183.695C494.215 181.405 494.215 179.145 494.124 177.158V177.037H494.23L498.067 176.097L497.976 176.203C498.304 174.813 498.813 173.471 499.492 172.215V172.336L497.354 169.03V168.954L501.904 164.283L504.376 165.8L505.028 166.209L505.437 166.27Z" fill="white"/>
<path d="M487.119 490.757C512.823 490.757 533.66 469.92 533.66 444.215C533.66 418.511 512.823 397.674 487.119 397.674C461.415 397.674 440.577 418.511 440.577 444.215C440.577 469.92 461.415 490.757 487.119 490.757Z" fill="#3780EF"/>
<path d="M440.591 444.215C440.591 444.215 440.591 443.957 440.591 443.457C440.591 442.957 440.591 442.183 440.667 441.243C440.667 440.758 440.667 440.212 440.667 439.605C440.667 438.998 440.833 438.362 440.924 437.649C441.115 436.017 441.419 434.401 441.834 432.811C442.883 428.414 444.602 424.205 446.93 420.33C450.315 414.605 454.883 409.667 460.327 405.847C465.772 402.026 471.968 399.411 478.503 398.174C480.457 397.809 482.433 397.575 484.418 397.477C485.434 397.477 486.45 397.34 487.451 397.355L490.484 397.507C490.999 397.507 491.53 397.507 492 397.598L493.517 397.84C494.548 398.007 495.61 398.129 496.671 398.341C498.792 398.81 500.879 399.418 502.919 400.161C505 400.916 507.027 401.813 508.985 402.845C509.971 403.376 510.926 403.997 511.912 404.589C512.904 405.166 513.851 405.815 514.748 406.53C516.62 407.928 518.399 409.448 520.071 411.08C521.711 412.782 523.231 414.596 524.62 416.509C527.547 420.422 529.816 424.786 531.339 429.429C534.564 439.038 534.564 449.438 531.339 459.047C529.895 463.663 527.724 468.019 524.909 471.952C522.167 475.796 518.811 479.162 514.975 481.916C514.075 482.626 513.128 483.275 512.14 483.857C511.154 484.433 510.198 485.055 509.213 485.601C507.254 486.628 505.227 487.52 503.147 488.27C501.108 489.019 499.021 489.628 496.899 490.09C495.837 490.317 494.776 490.438 493.729 490.605L492.213 490.833C491.697 490.908 491.166 490.908 490.696 490.939L487.587 491.09C486.571 491.09 485.555 490.999 484.554 490.969C482.564 490.864 480.583 490.626 478.625 490.256C472.105 489.003 465.926 486.381 460.496 482.561C455.066 478.742 450.51 473.813 447.127 468.1C444.809 464.222 443.096 460.014 442.047 455.619C441.629 454.031 441.324 452.414 441.137 450.782C441.046 450.084 440.94 449.432 440.879 448.825C440.818 448.219 440.879 447.688 440.879 447.203L440.803 444.989C440.803 444.488 440.803 444.23 440.803 444.23C440.841 444.477 440.866 444.725 440.879 444.973C440.879 445.504 440.97 446.247 441.031 447.188L441.137 448.81C441.137 449.402 441.334 450.054 441.44 450.751C441.651 452.369 441.975 453.971 442.411 455.544C443.5 459.889 445.238 464.046 447.567 467.873C450.946 473.496 455.476 478.34 460.86 482.088C466.244 485.836 472.36 488.403 478.807 489.619C480.741 489.974 482.696 490.197 484.66 490.287C485.646 490.287 486.647 490.423 487.694 490.408L490.727 490.241C491.242 490.241 491.758 490.241 492.243 490.15L493.76 489.908C494.791 489.741 495.837 489.619 496.868 489.407C498.959 488.938 501.016 488.33 503.025 487.587C505.106 486.849 507.133 485.967 509.091 484.949C510.062 484.418 511.002 483.796 511.958 483.22C512.933 482.651 513.865 482.013 514.748 481.309C518.514 478.589 521.812 475.276 524.514 471.497C527.38 467.642 529.608 463.351 531.111 458.789C534.275 449.336 534.275 439.11 531.111 429.657C529.611 425.093 527.383 420.802 524.514 416.948C523.119 415.065 521.599 413.276 519.965 411.595C518.321 410 516.574 408.515 514.733 407.152C513.854 406.438 512.921 405.794 511.942 405.226C510.987 404.65 510.047 404.043 509.076 403.512C507.115 402.495 505.089 401.608 503.01 400.858C500.998 400.128 498.942 399.525 496.853 399.054C495.822 398.841 494.776 398.72 493.744 398.553L492.228 398.311C491.712 398.311 491.197 398.311 490.711 398.204L487.678 398.053C486.677 398.053 485.661 398.129 484.645 398.174C482.681 398.256 480.724 398.479 478.792 398.841C472.346 400.049 466.23 402.611 460.847 406.357C455.465 410.103 450.938 414.948 447.567 420.573C445.23 424.398 443.487 428.555 442.395 432.902C441.963 434.475 441.639 436.077 441.425 437.694C441.319 438.407 441.182 439.044 441.122 439.635C441.061 440.227 441.122 440.773 441.015 441.273C441.015 442.213 440.909 442.941 440.864 443.472C440.786 443.724 440.695 443.973 440.591 444.215Z" fill="#263238"/>
<path d="M490.348 446.248C491.893 445.565 493.204 444.444 494.117 443.023C495.031 441.602 495.508 439.945 495.489 438.256C495.556 437.15 495.397 436.043 495.021 435.002C494.644 433.961 494.059 433.007 493.3 432.201C492.542 431.394 491.626 430.752 490.609 430.312C489.593 429.873 488.498 429.646 487.39 429.646C486.283 429.646 485.188 429.873 484.171 430.312C483.155 430.752 482.239 431.394 481.481 432.201C480.722 433.007 480.137 433.961 479.76 435.002C479.384 436.043 479.225 437.15 479.292 438.256C479.258 439.961 479.732 441.639 480.652 443.075C481.573 444.511 482.9 445.642 484.464 446.323C471.998 448.204 472.559 461.746 472.559 461.746L502.025 461.883C502.025 461.883 502.768 448.113 490.348 446.248Z" fill="white"/>
<path d="M508.623 437.073C509.593 436.648 510.415 435.947 510.987 435.056C511.559 434.166 511.855 433.126 511.838 432.068C511.876 431.379 511.773 430.689 511.535 430.04C511.297 429.392 510.929 428.799 510.455 428.298C509.98 427.796 509.408 427.397 508.774 427.124C508.139 426.851 507.456 426.71 506.766 426.71C506.075 426.71 505.392 426.851 504.757 427.124C504.123 427.397 503.551 427.796 503.076 428.298C502.602 428.799 502.234 429.392 501.996 430.04C501.758 430.689 501.655 431.379 501.693 432.068C501.673 433.137 501.971 434.187 502.549 435.086C503.127 435.985 503.958 436.692 504.938 437.118C497.128 438.301 497.477 446.778 497.477 446.778L515.933 446.854C515.933 446.854 516.418 438.225 508.623 437.073Z" fill="white"/>
<path d="M469.407 437.072C470.376 436.648 471.199 435.946 471.771 435.056C472.343 434.166 472.639 433.126 472.622 432.068C472.676 431.37 472.585 430.668 472.355 430.007C472.125 429.345 471.761 428.739 471.285 428.225C470.81 427.711 470.233 427.301 469.591 427.02C468.95 426.74 468.257 426.595 467.557 426.595C466.857 426.595 466.164 426.74 465.522 427.02C464.881 427.301 464.304 427.711 463.828 428.225C463.353 428.739 462.989 429.345 462.759 430.007C462.528 430.668 462.438 431.37 462.492 432.068C462.469 433.135 462.764 434.185 463.339 435.084C463.914 435.983 464.743 436.691 465.722 437.118C457.912 438.301 458.261 446.778 458.261 446.778L476.717 446.854C476.717 446.854 477.171 438.225 469.407 437.072Z" fill="white"/>
<path d="M192.356 204.759C192.219 204.941 178.101 194.841 160.813 182.223C143.524 169.606 129.603 159.218 129.709 159.036C129.815 158.854 143.949 168.954 161.252 181.587C178.556 194.219 192.477 204.577 192.356 204.759Z" fill="#263238"/>
<path d="M127.055 441.606H116.318V453.92H127.055V441.606Z" fill="white"/>
<path d="M141.037 433.767H130.3V453.921H141.037V433.767Z" fill="white"/>
<path d="M155.519 424.091H144.782V453.936H155.519V424.091Z" fill="white"/>
<path d="M120.472 197.267C146.176 197.267 167.014 176.43 167.014 150.726C167.014 125.021 146.176 104.184 120.472 104.184C94.768 104.184 73.9307 125.021 73.9307 150.726C73.9307 176.43 94.768 197.267 120.472 197.267Z" fill="#3780EF"/>
<path d="M166.999 150.726C166.961 150.475 166.935 150.221 166.923 149.968C166.923 149.437 166.832 148.709 166.771 147.769C166.771 147.283 166.771 146.737 166.665 146.146C166.559 145.555 166.483 144.902 166.377 144.205C166.166 142.58 165.837 140.974 165.391 139.398C164.303 135.052 162.565 130.895 160.235 127.068C156.851 121.451 152.32 116.611 146.936 112.866C141.553 109.121 135.439 106.555 128.995 105.337C127.067 104.975 125.116 104.752 123.157 104.67C122.156 104.67 121.155 104.533 120.124 104.548L117.09 104.715C116.575 104.715 116.059 104.715 115.574 104.806L114.057 105.049C113.026 105.215 111.995 105.337 111.024 105.549C108.935 106.02 106.878 106.628 104.867 107.369C102.787 108.107 100.76 108.989 98.8014 110.008C97.8309 110.538 96.9058 111.16 95.9352 111.721C94.9654 112.304 94.0335 112.947 93.1448 113.647C91.3036 115.015 89.5558 116.505 87.9129 118.106C86.2798 119.782 84.7599 121.566 83.3634 123.444C80.4972 127.304 78.2699 131.6 76.7666 136.167C73.5925 145.614 73.5925 155.838 76.7666 165.284C78.2638 169.849 80.4917 174.141 83.3634 177.993C84.756 179.879 86.276 181.667 87.9129 183.346C89.5523 184.951 91.3005 186.44 93.1448 187.804C94.0335 188.505 94.9654 189.148 95.9352 189.73C96.9058 190.291 97.8309 190.913 98.8014 191.444C100.76 192.463 102.787 193.345 104.867 194.083C106.878 194.823 108.935 195.431 111.024 195.903C112.071 196.115 113.117 196.236 114.057 196.403L115.574 196.646C116.09 196.646 116.605 196.646 117.09 196.737L120.124 196.903C121.14 196.903 122.14 196.903 123.157 196.782C125.116 196.7 127.067 196.477 128.995 196.115C135.441 194.898 141.557 192.332 146.942 188.584C152.326 184.836 156.856 179.991 160.235 174.368C162.567 170.548 164.306 166.396 165.391 162.054C165.837 160.478 166.166 158.871 166.377 157.247C166.483 156.549 166.604 155.912 166.665 155.306L166.771 153.683C166.771 152.743 166.877 152.015 166.923 151.484C166.935 151.23 166.961 150.977 166.999 150.726C166.999 150.726 166.999 150.984 166.999 151.484L166.923 153.698C166.923 154.183 166.923 154.729 166.923 155.336C166.923 155.943 166.756 156.58 166.665 157.292C166.482 158.925 166.178 160.542 165.755 162.13C164.708 166.52 162.995 170.724 160.675 174.596C157.299 180.314 152.744 185.247 147.313 189.067C141.882 192.888 135.699 195.507 129.177 196.752C127.22 197.129 125.238 197.367 123.247 197.465C122.247 197.465 121.231 197.601 120.214 197.586L117.181 197.434C116.666 197.434 116.135 197.434 115.665 197.343L114.148 197.101C113.102 196.934 112.041 196.812 110.994 196.6C108.871 196.124 106.779 195.516 104.731 194.78C102.654 194.016 100.628 193.12 98.6649 192.096C97.6792 191.565 96.7238 190.944 95.7381 190.352C94.6457 189.774 93.6011 189.11 92.6141 188.366C90.7367 186.968 88.9535 185.448 87.276 183.816C85.6435 182.107 84.1238 180.293 82.7264 178.387C79.7996 174.468 77.5305 170.099 76.0083 165.451C72.7733 155.844 72.7733 145.441 76.0083 135.834C77.5321 131.22 79.7904 126.883 82.6961 122.989C84.0935 121.083 85.6132 119.269 87.2456 117.56C88.9232 115.928 90.7064 114.408 92.5837 113.01C93.4778 112.291 94.4259 111.642 95.4196 111.069C96.3902 110.478 97.3456 109.856 98.3313 109.325C100.294 108.302 102.32 107.405 104.397 106.641C106.445 105.905 108.537 105.297 110.661 104.821C111.707 104.609 112.768 104.488 113.815 104.321L115.331 104.078C115.847 104.078 116.378 104.078 116.848 103.987L119.881 103.835C120.897 103.835 121.928 103.926 122.914 103.957C124.905 104.054 126.886 104.292 128.843 104.67C135.366 105.914 141.548 108.534 146.979 112.354C152.41 116.174 156.965 121.108 160.341 126.826C162.661 130.697 164.374 134.901 165.422 139.291C165.844 140.879 166.148 142.496 166.331 144.129C166.422 144.842 166.544 145.494 166.589 146.085C166.635 146.677 166.589 147.238 166.589 147.723C166.589 148.679 166.589 149.406 166.665 149.937C166.741 150.468 166.999 150.726 166.999 150.726Z" fill="#263238"/>
<path d="M135.911 145.1C135.911 142.332 135.167 139.616 133.759 137.234C132.35 134.852 130.327 132.892 127.902 131.558C125.477 130.225 122.739 129.568 119.973 129.655C117.207 129.741 114.515 130.569 112.178 132.052C109.841 133.535 107.946 135.618 106.689 138.084C105.433 140.549 104.861 143.307 105.035 146.069C105.208 148.831 106.12 151.496 107.676 153.785C109.231 156.074 111.372 157.903 113.876 159.082V162.979H127.418C127.418 162.979 127.509 160.78 127.54 158.839C130.061 157.537 132.176 155.567 133.652 153.143C135.129 150.72 135.91 147.937 135.911 145.1Z" fill="white"/>
<path d="M122.519 162.903C122.526 162.843 122.526 162.782 122.519 162.721V162.16C122.519 161.675 122.656 160.947 122.792 160.022C122.929 159.097 123.111 157.96 123.414 156.671C123.739 155.193 124.207 153.751 124.809 152.364C125.169 151.556 125.595 150.78 126.083 150.043C126.354 149.647 126.719 149.324 127.145 149.103C127.378 148.98 127.639 148.915 127.903 148.915C128.167 148.915 128.427 148.98 128.661 149.103C128.889 149.242 129.061 149.457 129.146 149.71C129.238 149.97 129.238 150.253 129.146 150.514C128.886 150.988 128.459 151.35 127.948 151.53C126.89 151.884 125.736 151.808 124.733 151.317C124.214 151.054 123.753 150.688 123.378 150.243C123.002 149.797 122.721 149.281 122.55 148.724C122.352 148.153 122.321 147.538 122.459 146.95C122.532 146.635 122.713 146.355 122.971 146.158C123.228 145.962 123.545 145.861 123.869 145.873C124.035 145.893 124.193 145.954 124.331 146.049C124.468 146.144 124.58 146.271 124.658 146.419C124.801 146.716 124.843 147.051 124.779 147.374C124.584 147.982 124.201 148.513 123.687 148.891C123.196 149.31 122.622 149.62 122.003 149.801C121.383 149.981 120.732 150.028 120.093 149.937C119.443 149.843 118.827 149.59 118.298 149.201C117.769 148.813 117.344 148.3 117.06 147.708C116.912 147.422 116.826 147.108 116.808 146.787C116.79 146.465 116.839 146.144 116.954 145.843C117.009 145.687 117.097 145.546 117.212 145.428C117.327 145.31 117.467 145.219 117.621 145.16C117.771 145.093 117.934 145.058 118.099 145.058C118.263 145.058 118.426 145.093 118.576 145.16C118.861 145.313 119.089 145.552 119.228 145.843C119.367 146.122 119.449 146.426 119.471 146.737C119.513 147.334 119.431 147.933 119.228 148.497C118.865 149.607 118.089 150.536 117.06 151.09C116.08 151.614 114.945 151.77 113.86 151.53C113.328 151.447 112.837 151.191 112.465 150.802C112.279 150.597 112.169 150.335 112.153 150.059C112.136 149.784 112.214 149.511 112.374 149.285C112.555 149.089 112.805 148.97 113.071 148.952C113.327 148.934 113.582 148.981 113.815 149.088C114.233 149.333 114.562 149.705 114.755 150.15C115.149 150.999 115.452 151.803 115.771 152.591C117.014 155.624 117.879 158.263 118.47 160.037C118.758 160.932 118.986 161.63 119.122 162.1C119.122 162.327 119.244 162.509 119.289 162.63V162.828C119.283 162.767 119.283 162.706 119.289 162.646L119.107 162.115L118.41 160.068C117.803 158.293 116.893 155.746 115.665 152.637C115.346 151.863 115.028 151.044 114.633 150.225C114.46 149.807 114.15 149.459 113.754 149.24C113.553 149.087 113.299 149.02 113.049 149.054C112.799 149.088 112.572 149.221 112.419 149.422C112.266 149.623 112.2 149.876 112.234 150.127C112.268 150.377 112.4 150.603 112.601 150.756C112.954 151.112 113.411 151.346 113.906 151.423C114.935 151.637 116.007 151.487 116.939 150.999C117.93 150.463 118.679 149.567 119.031 148.497C119.212 147.955 119.289 147.384 119.259 146.813C119.253 146.528 119.177 146.248 119.036 145.999C118.896 145.751 118.696 145.541 118.455 145.388C118.33 145.335 118.196 145.308 118.061 145.308C117.925 145.308 117.791 145.335 117.666 145.388C117.533 145.438 117.412 145.517 117.312 145.619C117.213 145.721 117.137 145.844 117.09 145.979C116.988 146.256 116.944 146.552 116.962 146.847C116.981 147.142 117.06 147.43 117.196 147.693C117.463 148.252 117.862 148.738 118.359 149.108C118.856 149.478 119.435 149.721 120.047 149.816C120.659 149.898 121.282 149.852 121.874 149.679C122.467 149.507 123.018 149.213 123.49 148.815C123.986 148.432 124.348 147.901 124.521 147.299C124.578 147.021 124.54 146.733 124.415 146.48C124.35 146.358 124.256 146.253 124.143 146.174C124.03 146.095 123.9 146.044 123.763 146.025C123.487 146.013 123.216 146.105 123.005 146.283C122.787 146.456 122.633 146.696 122.565 146.965C122.435 147.523 122.467 148.107 122.656 148.648C122.811 149.168 123.069 149.651 123.414 150.07C123.759 150.488 124.184 150.833 124.665 151.085C125.145 151.337 125.671 151.489 126.212 151.534C126.752 151.58 127.296 151.516 127.812 151.348C128.286 151.184 128.681 150.848 128.919 150.407C129.023 150.199 129.043 149.959 128.976 149.736C128.908 149.513 128.757 149.325 128.555 149.209C128.349 149.11 128.124 149.058 127.895 149.058C127.667 149.058 127.441 149.11 127.236 149.209C126.832 149.419 126.488 149.727 126.235 150.104C125.744 150.829 125.318 151.595 124.961 152.394C124.354 153.766 123.882 155.193 123.55 156.655C123.247 157.944 123.05 159.082 122.898 160.007C122.747 160.932 122.656 161.645 122.58 162.13C122.58 162.373 122.58 162.555 122.58 162.691L122.519 162.903Z" fill="#3780EF"/>
<path d="M126.386 165.481H114.754C114.521 165.481 114.297 165.389 114.132 165.224C113.967 165.059 113.875 164.835 113.875 164.602C113.878 164.371 113.973 164.151 114.137 163.99C114.302 163.828 114.523 163.737 114.754 163.737H126.386C126.614 163.741 126.831 163.834 126.993 163.995C127.154 164.156 127.246 164.374 127.25 164.602C127.25 164.832 127.16 165.054 126.998 165.218C126.836 165.383 126.616 165.477 126.386 165.481Z" fill="white"/>
<path d="M126.386 166.239H114.754C114.639 166.239 114.524 166.262 114.417 166.306C114.311 166.351 114.214 166.415 114.132 166.497C114.05 166.579 113.986 166.676 113.941 166.782C113.897 166.889 113.875 167.003 113.875 167.119C113.874 167.234 113.897 167.347 113.942 167.453C113.986 167.559 114.051 167.655 114.133 167.736C114.215 167.816 114.312 167.879 114.419 167.922C114.525 167.965 114.639 167.985 114.754 167.983H116.058L117.757 171.214C117.851 171.393 117.993 171.543 118.167 171.647C118.341 171.752 118.54 171.806 118.742 171.805H122.898C123.104 171.806 123.307 171.75 123.484 171.642C123.66 171.535 123.804 171.382 123.899 171.198L125.536 167.983H126.416C126.645 167.983 126.865 167.892 127.027 167.73C127.189 167.568 127.28 167.348 127.28 167.119C127.28 167.002 127.257 166.887 127.212 166.779C127.167 166.671 127.101 166.573 127.017 166.492C126.934 166.41 126.835 166.345 126.727 166.302C126.618 166.259 126.502 166.237 126.386 166.239Z" fill="white"/>
<path d="M123.642 171.471C123.37 171.405 123.102 171.324 122.838 171.229C122.197 171.048 121.533 170.966 120.867 170.986C120.199 170.999 119.538 171.122 118.911 171.35C118.653 171.46 118.39 171.556 118.122 171.638C118.347 171.46 118.597 171.316 118.865 171.214C119.503 170.958 120.18 170.814 120.867 170.789C121.553 170.774 122.236 170.881 122.884 171.107C123.155 171.187 123.411 171.31 123.642 171.471Z" fill="#3780EF"/>
<path d="M125.537 168.029C125.537 168.029 123.429 168.12 120.851 168.12C118.273 168.12 116.149 168.12 116.149 168.029C116.149 167.938 118.242 167.938 120.851 167.938C123.459 167.938 125.537 167.968 125.537 168.029Z" fill="#3780EF"/>
<path d="M124.81 169.409C124.436 169.486 124.055 169.527 123.673 169.531C122.96 169.531 121.974 169.53 120.897 169.621C119.821 169.712 118.835 169.621 118.122 169.621C117.736 169.627 117.35 169.596 116.97 169.531C117.353 169.494 117.739 169.494 118.122 169.531H120.897H123.658C124.037 169.455 124.423 169.414 124.81 169.409Z" fill="#3780EF"/>
<path d="M284.514 621.965L287.122 665.534L279.252 700.596C279.129 701.193 279.128 701.809 279.248 702.407C279.368 703.004 279.607 703.572 279.951 704.076C280.294 704.579 280.736 705.009 281.249 705.338C281.762 705.668 282.336 705.891 282.937 705.994C283.64 706.108 284.36 706.049 285.036 705.825C285.712 705.601 286.323 705.217 286.819 704.705C293.249 698.063 316.33 673.769 316.239 671.054C316.118 667.521 316.664 624.224 316.664 624.224L284.514 621.965Z" fill="#455A64"/>
<path d="M282.877 705.994L316.241 666.064L316.332 669.31C316.332 671.099 316.438 672.039 315.437 673.298C306.695 684.531 297.313 695.251 287.336 705.403C286.305 706.479 284.409 706.297 282.938 706.024L282.877 705.994Z" fill="#263238"/>
<path d="M306.79 653.69C306.266 654.104 305.914 654.697 305.802 655.355C305.69 656.013 305.826 656.69 306.184 657.254C306.579 657.788 307.163 658.151 307.817 658.27C308.47 658.388 309.145 658.253 309.702 657.891C310.253 657.448 310.621 656.818 310.736 656.122C310.85 655.425 310.704 654.71 310.324 654.115C309.854 653.602 309.204 653.289 308.51 653.241C307.816 653.193 307.13 653.413 306.593 653.857" fill="white"/>
<path d="M292.204 686.568C291.961 686.704 290.9 684.445 288.261 683.323C286.638 682.741 284.918 682.478 283.196 682.549C283.196 682.443 283.696 682.079 284.712 681.897C286.048 681.705 287.41 681.895 288.642 682.445C289.874 682.995 290.925 683.883 291.673 685.006C292.219 685.885 292.31 686.537 292.204 686.568Z" fill="#263238"/>
<path d="M289.323 692.528C289.11 692.725 287.67 691.36 285.38 690.799C283.09 690.238 281.179 690.678 281.103 690.405C281.027 690.132 283.029 689.176 285.653 689.874C288.276 690.572 289.535 692.407 289.323 692.528Z" fill="#263238"/>
<path d="M297.708 678.864C297.511 679.077 295.297 676.969 291.824 675.831C288.352 674.694 285.319 674.845 285.288 674.557C285.258 674.269 288.427 673.602 292.143 674.921C295.858 676.241 297.921 678.743 297.708 678.864Z" fill="#263238"/>
<path d="M298.042 665.549C297.936 665.822 295.479 664.897 292.34 664.912C289.201 664.927 286.744 665.762 286.638 665.489C286.531 665.216 288.973 663.972 292.355 663.972C294.375 663.83 296.383 664.387 298.042 665.549Z" fill="#263238"/>
<path d="M297.571 652.75C297.449 653.008 294.977 651.643 291.671 651.916C288.365 652.189 286.106 653.811 285.939 653.584C285.772 653.356 286.318 652.932 287.304 652.31C288.611 651.533 290.08 651.072 291.596 650.961C293.112 650.85 294.633 651.094 296.039 651.673C297.1 652.158 297.631 652.644 297.571 652.75Z" fill="#263238"/>
<path d="M291.658 649.474C291.489 648.94 291.447 648.374 291.537 647.821C291.627 646.303 292.018 644.818 292.689 643.454C293.087 642.409 293.824 641.527 294.782 640.951C295.112 640.787 295.485 640.729 295.849 640.786C296.213 640.843 296.55 641.012 296.814 641.27C297.299 641.8 297.569 642.492 297.572 643.211C297.534 644.682 296.983 646.094 296.013 647.202C295.044 648.31 293.718 649.044 292.265 649.277C290.825 649.48 289.358 649.249 288.051 648.614C286.744 647.98 285.655 646.97 284.925 645.713C284.739 645.398 284.624 645.046 284.587 644.682C284.551 644.319 284.593 643.951 284.712 643.605C284.872 643.268 285.134 642.99 285.46 642.811C285.787 642.631 286.162 642.559 286.532 642.604C287.612 642.801 288.621 643.276 289.459 643.984C290.656 644.894 291.683 646.008 292.492 647.275C293.068 648.17 293.265 648.792 293.205 648.792C292.02 647.186 290.599 645.77 288.989 644.591C288.237 644.002 287.352 643.606 286.411 643.438C286.209 643.408 286.003 643.445 285.825 643.544C285.647 643.643 285.506 643.797 285.425 643.984C285.36 644.216 285.345 644.459 285.381 644.697C285.418 644.935 285.505 645.163 285.637 645.364C286.301 646.43 287.257 647.282 288.392 647.82C289.527 648.358 290.792 648.558 292.037 648.397C293.257 648.188 294.37 647.572 295.196 646.649C296.022 645.727 296.512 644.553 296.587 643.317C296.596 642.816 296.43 642.328 296.116 641.937C295.972 641.793 295.786 641.697 295.585 641.665C295.383 641.632 295.177 641.664 294.994 641.755C294.193 642.245 293.562 642.97 293.19 643.833C292.354 645.609 291.835 647.519 291.658 649.474Z" fill="#263238"/>
<path d="M382.118 614.382L380.601 650.445C380.601 650.445 416.755 664.093 417.119 670.751L347.117 670.372V614.094L382.118 614.382Z" fill="#455A64"/>
<path d="M358.991 647.291C358.316 647.489 357.737 647.93 357.368 648.529C356.998 649.128 356.863 649.843 356.989 650.536C357.166 651.219 357.598 651.807 358.196 652.18C358.795 652.553 359.514 652.681 360.204 652.538C360.917 652.319 361.525 651.846 361.911 651.208C362.297 650.57 362.434 649.813 362.297 649.08C362.037 648.391 361.522 647.829 360.858 647.51C360.195 647.191 359.434 647.14 358.733 647.366" fill="white"/>
<path d="M347.13 670.372V665.246L414.615 667.202C414.615 667.202 416.996 668.81 417.132 670.751L347.13 670.372Z" fill="#263238"/>
<path d="M381.753 650.081C381.753 650.429 380.024 650.581 378.34 651.597C376.657 652.613 375.747 654.13 375.429 653.993C375.11 653.857 375.641 651.885 377.704 650.596C379.766 649.307 381.828 649.777 381.753 650.081Z" fill="#263238"/>
<path d="M389.03 653.159C389.106 653.493 387.62 654.069 386.452 655.51C385.285 656.95 384.936 658.543 384.602 658.467C384.269 658.391 384.056 656.51 385.543 654.751C387.029 652.992 389.03 652.84 389.03 653.159Z" fill="#263238"/>
<path d="M393.203 661.97C392.885 662.046 392.43 660.332 393.309 658.467C394.189 656.602 395.811 655.874 395.948 656.147C396.084 656.42 395.099 657.436 394.431 658.983C393.764 660.529 393.582 661.94 393.203 661.97Z" fill="#263238"/>
<path d="M381.176 641.8C381.039 642.119 379.477 641.634 377.536 641.8C375.595 641.967 374.094 642.528 373.912 642.225C373.73 641.922 375.201 640.708 377.475 640.617C379.75 640.526 381.358 641.558 381.176 641.8Z" fill="#263238"/>
<path d="M411.93 116.983L414.022 105.048C414.022 105.048 411.399 89.7923 412.021 87.6995C412.642 85.6068 414.007 75.4158 414.007 75.4158L425.366 64.8003C426.096 64.837 426.799 65.0903 427.385 65.5278C427.971 65.9653 428.414 66.5672 428.657 67.257C428.657 67.257 433.388 67.257 434.146 70.5782C434.561 70.4008 435.013 70.3301 435.462 70.3724C435.911 70.4148 436.342 70.569 436.716 70.8208C437.09 71.0727 437.395 71.4142 437.603 71.8142C437.811 72.2142 437.916 72.6599 437.907 73.1108C438.024 74.1184 438.024 75.1361 437.907 76.1438C438.559 76.3561 442.366 77.6603 442.229 79.6014C441.842 82.5621 441.019 85.4493 439.788 88.1697C439.54 88.6522 439.176 89.0656 438.728 89.3726C438.281 89.6797 437.764 89.8708 437.225 89.9288L435.587 95.1001C435.587 95.1001 433.767 103.668 431.447 107.535L429.764 109.795L428.247 121.502C422.485 121.609 416.816 120.039 411.93 116.983Z" fill="#B06B5A"/>
<path d="M430.964 74.7483C430.676 71.9478 429.825 69.2344 428.461 66.7715L424.291 68.9098C424.594 70.2962 425.01 71.6555 425.535 72.974C425.738 73.7458 426.118 74.4597 426.644 75.0597C427.17 75.6597 427.829 76.1294 428.568 76.4316C428.972 76.6232 429.433 76.6628 429.864 76.5431C430.296 76.4233 430.67 76.1523 430.918 75.7795C431.01 75.4434 431.025 75.0912 430.964 74.7483Z" fill="#B06B5A"/>
<path d="M424.289 68.9102C424.268 69.1915 424.299 69.4742 424.38 69.7443C424.556 70.4807 424.778 71.2051 425.047 71.9129C425.199 72.383 425.351 72.8683 425.533 73.4294C425.736 74.0065 426.028 74.5487 426.397 75.0369C426.794 75.5953 427.313 76.0566 427.914 76.3866C428.237 76.5782 428.596 76.7013 428.969 76.7482C429.343 76.7952 429.721 76.765 430.082 76.6595C430.275 76.5971 430.454 76.4965 430.608 76.3636C430.762 76.2308 430.887 76.0684 430.977 75.8861C431.112 75.5338 431.154 75.1524 431.098 74.7791C431.056 74.1111 430.965 73.4471 430.825 72.7925C430.591 71.6924 430.256 70.6163 429.824 69.5775C429.46 68.6827 429.112 68.0609 428.869 67.515C428.745 67.2671 428.604 67.0288 428.444 66.8022C428.512 67.0718 428.614 67.3316 428.748 67.5757C428.96 68.0609 429.278 68.7737 429.612 69.6533C429.994 70.6959 430.298 71.7654 430.522 72.8531C430.648 73.4942 430.734 74.1425 430.78 74.7942C430.824 75.1166 430.788 75.445 430.674 75.7496C430.609 75.894 430.512 76.022 430.392 76.1243C430.271 76.2267 430.129 76.3007 429.976 76.3411C429.658 76.4341 429.324 76.4606 428.995 76.4188C428.667 76.3771 428.35 76.268 428.065 76.0984C427.501 75.7928 427.009 75.3686 426.625 74.8549C426.267 74.3947 425.981 73.8835 425.775 73.3384C425.578 72.8228 425.426 72.3072 425.244 71.8219C424.911 70.9272 424.638 70.2144 424.501 69.6988C424.365 69.1832 424.304 68.9102 424.289 68.9102Z" fill="#844E42"/>
<path d="M429.977 76.5229C429.964 76.5982 429.964 76.675 429.977 76.7504C429.955 76.9723 429.955 77.1957 429.977 77.4176C429.941 78.2525 430.086 79.0852 430.401 79.8592C430.852 81.0317 431.587 82.0739 432.54 82.8922C432.826 83.1419 433.162 83.3301 433.524 83.4448C433.887 83.5596 434.269 83.5986 434.647 83.5595C435.063 83.5029 435.45 83.3172 435.755 83.0287C436.051 82.7134 436.233 82.3074 436.27 81.8762C436.296 81.0934 436.235 80.3101 436.088 79.5407C435.982 78.7976 435.861 78.0242 435.724 77.4176C435.436 76.0831 435.178 74.8851 434.966 73.8538C434.754 72.8226 434.602 72.0037 434.511 71.4426C434.476 71.1397 434.415 70.8403 434.329 70.5479C434.299 70.8504 434.299 71.1552 434.329 71.4578C434.329 72.034 434.511 72.8681 434.693 73.8993C434.875 74.9306 435.118 76.1438 435.375 77.4783C435.497 78.1455 435.618 78.8583 435.724 79.5862C435.863 80.3309 435.919 81.0888 435.891 81.8458C435.858 82.2021 435.709 82.5377 435.466 82.8012C435.222 83.0475 434.901 83.2028 434.556 83.241C434.219 83.2767 433.878 83.2426 433.555 83.1409C433.231 83.0391 432.932 82.8719 432.676 82.6496C431.764 81.88 431.042 80.9093 430.568 79.8137C430.26 79.0665 430.085 78.2709 430.052 77.4631C430.045 77.1485 430.02 76.8346 429.977 76.5229Z" fill="#844E42"/>
<path d="M431.902 82.3158C431.853 82.3971 431.812 82.4835 431.781 82.5736C431.683 82.8203 431.601 83.0737 431.538 83.3318C431.289 84.2862 431.197 85.2747 431.265 86.2587C431.293 87.742 431.829 89.1711 432.782 90.3078C433.367 90.9922 434.192 91.4264 435.087 91.521C435.336 91.5405 435.586 91.5103 435.823 91.4322C436.06 91.3541 436.279 91.2296 436.467 91.066C436.81 90.7024 437.046 90.2511 437.15 89.7618C437.415 88 437.547 86.2206 437.544 84.4389C437.544 82.8162 437.544 81.4059 437.544 80.1017C437.544 78.7975 437.544 77.8724 437.65 77.19C437.67 76.8314 437.67 76.4719 437.65 76.1133C437.65 76.1133 437.65 76.2043 437.65 76.3863C437.65 76.5682 437.574 76.826 437.544 77.1748C437.453 77.8573 437.377 78.8582 437.331 80.1017C437.286 81.3452 437.256 82.8162 437.195 84.4237C437.174 86.1855 437.032 87.9437 436.77 89.686C436.698 90.1146 436.497 90.5111 436.194 90.8234C436.04 90.9606 435.86 91.0649 435.664 91.1301C435.469 91.1953 435.262 91.2199 435.057 91.2025C434.263 91.0939 433.535 90.7004 433.009 90.0955C432.09 89.0156 431.557 87.6603 431.493 86.2435C431.412 84.9207 431.55 83.5935 431.902 82.3158Z" fill="#844E42"/>
<path d="M200.985 65.5284C200.985 65.5284 186.79 43.7817 184.303 32.8931C181.922 22.2776 179.026 4.20084 179.026 4.20084C179.026 4.20084 176.22 3.80655 175.417 13.8003C174.613 23.7941 174.567 30.2847 174.567 30.2847L159.023 16.2116C158.204 17.3057 157.761 18.6358 157.761 20.0028C157.761 21.3698 158.204 22.7 159.023 23.7941C161.829 28.192 171.792 39.4748 171.792 39.4748L168.228 42.5836C168.228 42.5836 159.736 37.382 157.78 41.7799C155.823 46.1777 165.362 47.8459 165.362 47.8459L165.756 54.2456L170.655 58.9922L174.249 60.1903C174.249 60.1903 179.572 67.2723 181.574 69.2893C183.212 71.1527 184.646 73.1863 185.85 75.3553L200.985 65.5284Z" fill="#B06B5A"/>
<path d="M180.86 43.0231C178.758 43.3106 176.629 43.336 174.521 43.0989C172.392 43.1339 170.267 42.8995 168.197 42.4013C170.304 42.1132 172.438 42.0826 174.551 42.3103C176.676 42.2836 178.795 42.523 180.86 43.0231Z" fill="#844E42"/>
<path d="M177.691 58.795C177.266 58.947 176.814 59.0118 176.364 58.9858C175.913 58.9597 175.472 58.8433 175.067 58.6434C174.163 58.2918 173.33 57.7779 172.611 57.1269C171.764 56.32 171.025 55.4076 170.412 54.4123C169.41 52.6194 168.28 50.9013 167.03 49.2714C166.029 48.1037 165.165 47.6032 165.225 47.4971C165.286 47.3909 166.256 47.7397 167.439 48.8922C168.841 50.4386 170.058 52.1436 171.064 53.9725C172.041 55.7335 173.505 57.1759 175.28 58.1278C176.061 58.4246 176.868 58.648 177.691 58.795Z" fill="#844E42"/>
<path d="M175.281 35.4104C175.069 35.4104 174.644 34.4246 174.311 33.0901C173.977 31.7556 173.901 30.6334 174.114 30.5879C174.326 30.5424 174.75 31.5736 175.084 32.9081C175.418 34.2427 175.494 35.3649 175.281 35.4104Z" fill="#844E42"/>
<path d="M290.066 116.013C290.066 116.013 277.115 141.46 272.429 160.431L270.912 166.74C270.912 166.74 284.03 183.346 297.208 187L314.254 161.857L290.066 116.013Z" fill="#263238"/>
<path d="M357.276 147.601C357.034 133.786 359.111 118.227 349.997 107.323C343.233 99.2249 334.347 95.4791 323.943 93.6745C318.833 92.8101 312.6 93.9323 307.641 95.4943C300.847 97.6477 296.798 104.063 292.476 109.765C283.923 121.184 281.011 138.487 283.968 144.098L330.98 183.315C342.718 180.055 349.815 179.266 354.501 165.542C356.453 159.766 357.392 153.697 357.276 147.601Z" fill="#263238"/>
<path d="M346.571 117.529L315.406 100.62C305.003 96.7832 294.554 108.203 291.142 118.682C287.366 130.404 283.211 144.872 282.362 154.122C280.663 172.715 293.781 178.477 293.781 178.477C293.781 178.477 293.781 178.75 292.507 184.088L290.308 192.702C289.36 196.177 289.661 199.875 291.157 203.151C294.721 210.567 303.487 213.312 314.891 211.659C321.488 210.688 326.704 207.033 328.539 200.937L350.665 125.339C351.092 123.761 350.907 122.08 350.148 120.632C349.389 119.184 348.111 118.076 346.571 117.529Z" fill="#B06B5A"/>
<path d="M293.811 136.455C293.652 137.05 293.733 137.684 294.036 138.22C294.339 138.756 294.841 139.151 295.433 139.321C295.723 139.419 296.029 139.458 296.334 139.434C296.639 139.41 296.935 139.325 297.206 139.183C297.477 139.041 297.716 138.846 297.909 138.609C298.102 138.372 298.245 138.099 298.33 137.805C298.489 137.208 298.409 136.572 298.106 136.033C297.802 135.495 297.3 135.097 296.707 134.923C296.417 134.828 296.11 134.792 295.805 134.818C295.5 134.843 295.204 134.93 294.933 135.073C294.663 135.216 294.424 135.412 294.231 135.65C294.038 135.887 293.895 136.161 293.811 136.455Z" fill="#263238"/>
<path d="M291.627 130.147C291.839 130.526 293.901 129.676 296.373 130.313C298.845 130.95 300.331 132.634 300.665 132.406C300.999 132.179 300.665 131.693 300.043 130.89C299.159 129.887 297.99 129.178 296.692 128.858C295.411 128.514 294.052 128.599 292.825 129.1C291.975 129.51 291.52 129.98 291.627 130.147Z" fill="#263238"/>
<path d="M317.044 141.156C316.885 141.751 316.965 142.385 317.269 142.921C317.572 143.457 318.074 143.853 318.666 144.022C318.956 144.12 319.262 144.159 319.567 144.135C319.871 144.111 320.168 144.026 320.439 143.884C320.71 143.742 320.949 143.547 321.142 143.31C321.335 143.073 321.478 142.8 321.563 142.506C321.718 141.909 321.636 141.275 321.333 140.738C321.031 140.2 320.531 139.801 319.94 139.625C319.649 139.529 319.343 139.493 319.038 139.519C318.733 139.545 318.437 139.632 318.166 139.775C317.896 139.918 317.657 140.114 317.464 140.351C317.271 140.588 317.128 140.862 317.044 141.156Z" fill="#263238"/>
<path d="M316.044 135.636C316.256 136.016 318.319 135.166 320.775 135.803C323.232 136.44 324.733 138.124 325.082 137.896C325.431 137.669 325.082 137.183 324.46 136.38C323.581 135.367 322.411 134.652 321.109 134.332C319.826 134.007 318.474 134.091 317.242 134.575C316.332 135 315.938 135.47 316.044 135.636Z" fill="#263238"/>
<path d="M302.925 149.71C301.726 148.976 300.443 148.39 299.103 147.966C298.481 147.753 297.92 147.465 297.92 147.01C298.037 146.348 298.348 145.735 298.815 145.251C299.801 143.886 300.817 142.445 301.848 140.929C306.17 134.757 309.431 129.616 309.218 129.449C309.006 129.282 305.275 134.135 300.953 140.307L297.92 144.675C297.333 145.338 296.995 146.185 296.965 147.071C296.998 147.317 297.089 147.551 297.228 147.757C297.367 147.962 297.552 148.132 297.769 148.254C298.094 148.436 298.44 148.579 298.8 148.678C300.124 149.201 301.511 149.548 302.925 149.71Z" fill="#263238"/>
<path d="M293.795 178.478C302.182 180.741 311.032 180.636 319.363 178.174C319.363 178.174 310.264 189.184 292.794 182.966L293.795 178.478Z" fill="#844E42"/>
<path d="M309.9 156.382C309.678 155.746 309.304 155.174 308.809 154.716C308.315 154.259 307.716 153.93 307.064 153.758C306.161 153.454 305.193 153.399 304.261 153.599C303.33 153.799 302.47 154.247 301.771 154.896C301.233 155.522 300.951 156.33 300.983 157.155C300.983 157.58 300.983 157.368 301.195 157.701C301.932 159.006 302.973 160.113 304.228 160.931C304.944 161.327 305.763 161.494 306.577 161.41C307.39 161.326 308.158 160.995 308.778 160.461C309.32 159.949 309.711 159.298 309.909 158.578C310.107 157.859 310.104 157.099 309.9 156.382Z" fill="#844E42"/>
<path d="M310.173 153.485C309.779 153.349 309.082 156.033 306.291 157.337C303.501 158.642 300.741 157.595 300.619 157.959C300.498 158.323 301.12 158.657 302.318 158.99C303.875 159.424 305.536 159.29 307.004 158.611C308.392 157.948 309.476 156.783 310.037 155.351C310.477 154.244 310.355 153.485 310.173 153.485Z" fill="#263238"/>
<path d="M317.029 126.34C317.029 127.068 319.592 127.523 322.322 128.767C325.052 130.01 327.129 131.511 327.69 131.041C327.948 130.814 327.69 130.071 327.023 129.131C326.037 127.945 324.785 127.01 323.368 126.401C321.966 125.766 320.432 125.475 318.895 125.552C317.757 125.643 317.029 125.991 317.029 126.34Z" fill="#263238"/>
<path d="M293.263 123.489C293.718 124.111 295.705 123.641 298.071 123.762C300.436 123.884 302.377 124.429 302.878 123.868C303.105 123.58 302.878 122.989 301.983 122.352C300.845 121.593 299.514 121.178 298.146 121.154C296.784 121.078 295.428 121.388 294.234 122.049C293.369 122.625 293.051 123.156 293.263 123.489Z" fill="#263238"/>
<path d="M316.24 98.7852C316.178 98.9035 316.123 99.025 316.073 99.1491L316.24 98.7852Z" fill="#263238"/>
<path d="M320.788 191.838C322.305 187.288 321.41 182.056 322.957 177.461C324.61 172.578 328.765 168.969 331.131 164.389C334.922 157.064 333.754 148.163 334.391 139.882C329.947 138.154 326.29 134.858 324.11 130.617C321.38 125.642 320.303 120.001 319.272 114.36C318.336 119.458 319.009 124.72 321.198 129.419C320.149 129.36 319.128 129.054 318.219 128.527C317.31 128 316.538 127.267 315.966 126.386C314.827 124.621 314.073 122.637 313.752 120.562C312.771 115.558 312.73 110.416 313.63 105.397C311.444 112.362 310.722 119.704 311.507 126.962C310.253 126.451 308.902 126.218 307.549 126.279C306.881 126.318 306.213 126.201 305.597 125.938C304.981 125.674 304.435 125.272 304.001 124.763C303.585 123.96 303.407 123.055 303.485 122.154C303.517 115.848 304.636 109.595 306.791 103.668C304.389 106.553 302.276 109.667 300.482 112.964C298.694 116.281 297.869 120.032 298.101 123.792C297.741 124.021 297.304 124.098 296.887 124.008C296.47 123.917 296.105 123.665 295.872 123.307C295.433 122.563 295.256 121.692 295.372 120.835C295.751 117.704 296.653 114.659 298.041 111.827C295.554 114.633 294.174 118.212 292.43 121.533C290.686 124.854 288.32 128.145 284.847 129.494C285.308 124.774 286.452 120.146 288.244 115.755C289.888 112.101 292.037 108.696 294.629 105.64C297.205 102.181 300.423 99.2518 304.107 97.0108C310.415 93.4925 312.205 95.9644 315.223 98.5273L315.587 98.77C315.587 98.77 315.587 98.6183 315.663 98.5273L315.981 97.8449C325.285 97.7374 334.447 100.137 342.505 104.79C349.167 109.159 354.233 115.572 356.942 123.064L357.048 123.444C361.704 138.609 363.326 155.487 356.441 189.669L320.788 191.838Z" fill="#263238"/>
<path d="M174.674 57.2783C174.765 57.2783 174.902 57.4603 174.902 57.8091C174.884 58.2765 174.682 58.718 174.341 59.0375C174.019 59.3749 173.578 59.5712 173.112 59.5834C172.763 59.5834 172.566 59.4469 172.581 59.3559C172.597 59.2649 173.264 59.0375 173.795 58.4764C174.325 57.9152 174.447 57.3087 174.674 57.2783Z" fill="#844E42"/>
<path d="M360.096 22.2473L360.445 21.5801L360.809 22.2322C361.109 22.7446 361.544 23.1644 362.067 23.4454L362.734 23.779L362.082 24.1581C361.563 24.4495 361.141 24.8873 360.869 25.4168L360.535 26.0689L360.156 25.432C359.865 24.9128 359.427 24.4909 358.898 24.2188L358.246 23.87L358.883 23.506C359.395 23.206 359.815 22.7704 360.096 22.2473Z" fill="#E0E0E0"/>
<path d="M340.08 15.9382L340.277 15.5591L340.49 15.923C340.664 16.2217 340.915 16.4679 341.218 16.6358L341.612 16.8329L341.233 17.0453C340.932 17.2117 340.689 17.4655 340.535 17.7732L340.323 18.1675L340.11 17.7883C339.94 17.4868 339.688 17.2397 339.383 17.0756L339.003 16.8784L339.367 16.6661C339.669 16.4956 339.916 16.2433 340.08 15.9382Z" fill="#E0E0E0"/>
<path d="M328.128 67.2419L328.325 66.8628L328.537 67.2268C328.707 67.5283 328.96 67.7754 329.265 67.9395L329.644 68.1367L329.28 68.349C328.977 68.5249 328.73 68.7824 328.567 69.0921L328.37 69.4712L328.158 69.0921C327.991 68.7912 327.738 68.548 327.43 68.3945L327.036 68.1822L327.415 67.9698C327.716 67.7993 327.963 67.547 328.128 67.2419Z" fill="#E0E0E0"/>
<path d="M442.49 31.7405L442.839 31.0732L443.203 31.7253C443.504 32.2418 443.946 32.6624 444.476 32.9385L445.128 33.2873L444.492 33.6513C443.967 33.9403 443.539 34.3783 443.263 34.91L442.93 35.5621L442.55 34.9252C442.259 34.406 441.821 33.9841 441.292 33.712L440.64 33.3632L441.277 32.9992C441.789 32.6991 442.209 32.2636 442.49 31.7405Z" fill="#E0E0E0"/>
<path d="M439.925 6.59679L440.502 5.48975L441.123 6.58163C441.624 7.44689 442.36 8.15175 443.246 8.61375L444.353 9.19002L443.262 9.81179C442.393 10.3081 441.687 11.0456 441.229 11.9349L440.653 13.0419L440.031 11.9501C439.535 11.0816 438.798 10.3757 437.908 9.91794L436.801 9.4175L437.893 8.79573C438.773 8.27918 439.48 7.51412 439.925 6.59679Z" fill="#E0E0E0"/>
<path d="M355.046 1.10705L355.623 0L356.244 1.09188C356.741 1.96033 357.478 2.66621 358.368 3.124L359.475 3.70027L358.383 4.32204C357.514 4.81832 356.808 5.55581 356.351 6.44515L355.774 7.5522L355.153 6.46031C354.652 5.59506 353.916 4.89019 353.029 4.4282L351.922 3.85192L352.999 3.23016C353.872 2.7348 354.583 1.99746 355.046 1.10705Z" fill="#E0E0E0"/>
<path d="M374.654 104.123L374.366 102.91L375.534 103.32C376.465 103.621 377.461 103.663 378.415 103.441L379.628 103.153L379.219 104.321C378.902 105.27 378.854 106.288 379.082 107.263L379.386 108.476L378.203 108.066C377.286 107.791 376.312 107.765 375.382 107.99L374.169 108.294L374.578 107.111C374.892 106.143 374.918 105.106 374.654 104.123Z" fill="#E0E0E0"/>
<path d="M434.526 108.931C435.405 108.066 410.353 102.349 410.353 102.349L401.041 171.957L346.569 198.025L334.436 200.239L331.403 192.384L308.929 201.589L290.261 186.621L280.449 194.31L272.866 192.384C269.045 187.364 256.321 170.652 253.849 166.952C251.211 163.024 200.135 57.7636 199.725 55.7163L176.417 68.1668C176.417 68.1668 200.559 129.54 211.296 160.295C222.033 191.049 240.868 225.353 240.868 225.353C241.884 229.766 259.476 282.267 263.237 297.796C267.407 314.978 269.06 330.249 268.741 329.37L316.875 330.477L363.25 315.448C363.25 315.448 350.587 284.921 351.118 282.267C351.649 279.613 363.25 236.347 363.25 236.347C363.25 236.347 428.794 196.175 432.767 185.165C436.74 174.155 433.661 109.795 434.526 108.931Z" fill="white"/>
<path d="M434.528 108.931C434.467 109.163 434.436 109.403 434.437 109.643C434.437 110.129 434.437 110.841 434.437 111.782C434.437 113.677 434.437 116.498 434.558 120.198C434.695 127.584 434.998 138.502 435.028 152.576C435.028 159.612 435.028 167.453 434.391 176.021C434.225 178.159 434.027 180.343 433.633 182.557C433.469 183.693 433.148 184.801 432.678 185.848C432.123 186.88 431.44 187.838 430.646 188.699C427.323 192.229 423.711 195.475 419.848 198.404C411.962 204.592 403.167 210.734 393.734 217.088C384.301 223.442 374.171 229.933 363.404 236.59L363.525 236.423C360.325 248.419 356.928 261.188 353.349 274.579C352.91 276.262 352.485 277.945 352.045 279.644C351.833 280.493 351.605 281.342 351.423 282.176C351.439 283.012 351.582 283.84 351.848 284.633C352.849 288.015 354.108 291.366 355.381 294.763C357.944 301.527 360.704 308.412 363.571 315.327L363.707 315.661L363.358 315.767L317.044 330.811L268.91 329.719L269.274 329.233C269.517 329.233 268.622 328.945 268.698 329.233C268.774 329.522 268.607 329.446 268.607 329.4V329.142V328.763V327.975L268.425 326.458L268 323.289C267.712 321.166 267.379 319.042 267.03 316.919C266.322 312.663 265.503 308.387 264.573 304.09C262.799 295.506 260.13 287.014 257.491 278.309C254.852 269.604 252.047 260.991 249.226 252.21C246.405 243.429 243.448 234.603 240.794 225.504V225.611C235.244 215.283 229.891 204.531 224.78 193.445C219.669 182.36 214.832 170.88 210.692 159.066C205.141 143.431 199.303 128.084 193.54 112.964C187.777 97.8449 181.984 82.9831 176.267 68.3791L176.13 68.0607L176.449 67.8939L199.469 55.3827L199.833 55.1855L200.031 55.6405C201.335 58.6735 202.912 61.9795 204.383 65.1035L208.857 74.5058L217.758 93.0224L235.168 128.873C240.885 140.535 246.451 151.954 252.047 162.964C252.759 164.344 253.427 165.709 254.23 166.982L256.975 170.668L262.42 177.932L273.035 192.172L272.853 192.065L280.436 193.991H280.148L289.974 186.318L290.172 186.151L290.369 186.318L309.037 201.286H308.719L331.405 192.111L331.694 191.99L331.8 192.278L334.833 200.133L334.514 199.951L346.646 197.752H346.571L401.043 171.744L400.907 171.911C405.047 141.414 408.232 117.772 410.324 102.319V102.182H410.446C418.817 104.138 424.928 105.685 428.917 106.732C432.905 107.778 434.892 108.567 434.589 108.824C434.862 108.612 432.86 107.899 428.886 106.838C424.913 105.776 418.771 104.26 410.385 102.288L410.537 102.197C408.489 117.65 405.365 141.308 401.332 171.82V171.941H401.225L346.798 198.056L334.666 200.285H334.423L334.332 200.057C333.362 197.555 332.391 195.007 331.299 192.202L331.678 192.369L309.219 201.589H309.052L308.901 201.483L290.111 186.849H290.46C287.29 189.351 284.075 191.868 280.648 194.537L280.527 194.643H280.375L272.792 192.717H272.686V192.627L262.071 178.371C260.271 175.975 258.456 173.549 256.627 171.092C255.701 169.879 254.792 168.651 253.866 167.422C252.941 166.194 252.35 164.692 251.637 163.328C246.026 152.303 240.461 140.898 234.728 129.237L217.152 93.356L208.235 74.8395L203.685 65.4371C202.169 62.2373 200.652 59.2043 199.272 55.7922L199.833 56.05L176.6 68.5611L176.767 68.0759C182.5 82.6748 188.262 97.5416 194.055 112.676C199.833 127.841 205.672 143.143 211.222 158.793C215.362 170.577 220.185 182.011 225.28 193.097C230.376 204.182 235.729 214.919 241.264 225.216C243.888 234.179 246.891 243.05 249.681 251.846C252.471 260.642 255.277 269.331 257.931 277.96C260.585 286.589 263.239 295.112 265.013 303.741C265.943 308.028 266.762 312.314 267.47 316.601C267.834 318.724 268.152 320.862 268.455 322.985L268.88 326.185L269.047 327.778L269.123 328.581V328.991V329.4C269.123 329.4 269.123 329.4 269.016 329.628C268.91 329.855 268.167 329.628 268.425 329.628V329.537L268.182 329.036H268.789L316.908 330.158H316.801L363.116 315.145L362.918 315.6C360.052 308.639 357.307 301.785 354.745 295.006C353.471 291.609 352.212 288.242 351.211 284.815C350.906 283.938 350.757 283.014 350.771 282.085C350.968 281.19 351.181 280.356 351.393 279.492C351.848 277.809 352.288 276.11 352.712 274.442L362.949 236.287V236.181H363.04C373.797 229.538 383.907 223.053 393.37 216.724C402.803 210.4 411.568 204.288 419.499 198.116C423.346 195.217 426.942 192.001 430.251 188.502C431.028 187.673 431.691 186.745 432.223 185.742C432.681 184.728 432.997 183.657 433.163 182.557C433.557 180.373 433.754 178.189 433.936 176.066C434.558 167.528 434.589 159.688 434.634 152.651C434.634 138.578 434.407 127.675 434.316 120.274C434.316 116.574 434.316 113.753 434.316 111.857C434.25 110.877 434.322 109.892 434.528 108.931Z" fill="#263238"/>
<path d="M334.786 200.179C334.786 200.179 334.786 200.33 334.634 200.603C334.463 201.017 334.26 201.418 334.028 201.801C333.204 203.259 332.184 204.596 330.995 205.774C329.126 207.572 327.019 209.103 324.731 210.324C321.821 211.866 318.812 213.214 315.723 214.358L315.359 214.51L315.238 214.13C314.493 211.727 313.518 209.401 312.326 207.185C311.72 206.017 310.992 204.91 310.264 203.758L309.688 202.923C309.521 202.65 309.339 202.387 309.142 202.135C309.142 201.862 308.292 202.438 307.731 202.726C305.416 204.122 303.282 205.797 301.377 207.716C300.437 208.625 299.573 209.581 298.708 210.521C298.284 210.991 297.874 211.461 297.449 211.916L296.843 212.599L296.54 212.948L296.403 213.114C296.403 213.114 296.403 212.766 296.312 212.735L295.796 213.251C291.647 209.102 287.829 204.635 284.377 199.89C283.103 198.146 282.148 196.736 281.526 195.766C281.172 195.292 280.868 194.784 280.616 194.249C281.012 194.699 281.377 195.175 281.708 195.675C282.406 196.615 283.407 197.98 284.741 199.678C288.299 204.306 292.17 208.683 296.327 212.781L295.812 213.296C295.766 213.224 295.741 213.14 295.741 213.054C295.741 212.968 295.766 212.884 295.812 212.811L295.903 212.69L296.039 212.508L296.342 212.159L296.964 211.461L298.223 210.051C299.072 209.096 299.937 208.125 300.892 207.2C302.838 205.226 305.023 203.504 307.398 202.074L308.323 201.559C308.514 201.442 308.725 201.359 308.945 201.316C309.088 201.298 309.234 201.313 309.371 201.36C309.508 201.407 309.632 201.486 309.733 201.589C309.977 201.872 310.196 202.177 310.385 202.499L310.977 203.348C311.705 204.516 312.493 205.653 313.069 206.851C314.274 209.116 315.254 211.493 315.996 213.948L315.511 213.721C318.583 212.6 321.586 211.299 324.504 209.824C326.768 208.653 328.869 207.19 330.752 205.471C332.337 203.904 333.695 202.122 334.786 200.179Z" fill="#263238"/>
<path d="M337.304 266.526C336.693 267.083 336.039 267.59 335.347 268.042C334.073 268.952 332.163 270.165 329.751 271.576C317.12 278.918 303.165 283.695 288.684 285.634C285.909 285.998 283.665 286.21 282.103 286.271C281.296 286.351 280.483 286.351 279.676 286.271C280.466 286.098 281.266 285.982 282.072 285.922C283.589 285.755 285.864 285.467 288.608 285.042C302.947 282.808 316.781 278.07 329.478 271.045C331.92 269.695 333.861 268.558 335.18 267.739C335.852 267.274 336.562 266.868 337.304 266.526Z" fill="#263238"/>
<path d="M308.959 280.402C308.875 280.157 308.824 279.902 308.808 279.644C308.717 279.052 308.626 278.325 308.504 277.445C308.262 275.549 307.958 272.789 307.655 269.362C307.048 262.538 306.472 253.075 306.381 242.596C306.29 232.117 306.73 222.638 307.246 215.799C307.488 212.387 307.746 209.612 307.958 207.716C308.064 206.836 308.155 206.108 308.216 205.517C308.232 205.259 308.283 205.004 308.368 204.759C308.404 205.015 308.404 205.276 308.368 205.532C308.368 206.124 308.368 206.852 308.246 207.731C308.125 209.763 307.973 212.508 307.776 215.844C307.412 222.684 307.079 232.132 307.155 242.596C307.23 253.06 307.731 262.492 308.201 269.332C308.444 272.653 308.641 275.398 308.792 277.415C308.792 278.294 308.899 279.022 308.944 279.614C308.988 279.874 308.993 280.14 308.959 280.402Z" fill="#263238"/>
<path d="M318.044 333.828C317.795 333.197 317.612 332.541 317.498 331.872C317.18 330.447 316.755 328.642 316.27 326.473C315.238 321.924 313.813 315.646 312.114 308.73C310.416 301.815 308.793 295.582 307.565 291.078L306.17 285.725C305.949 285.082 305.806 284.415 305.745 283.738C306.041 284.347 306.28 284.981 306.458 285.634C306.867 286.877 307.428 288.667 308.096 290.927C309.43 295.476 311.129 301.618 312.858 308.548C314.586 315.479 315.891 321.772 316.785 326.367C317.225 328.657 317.559 330.522 317.771 331.812C317.929 332.473 318.02 333.149 318.044 333.828Z" fill="#263238"/>
<path d="M238.898 191.262C239.708 192.482 240.355 193.802 240.824 195.189C243.425 201.779 244.499 208.872 243.964 215.935C243.927 217.4 243.697 218.853 243.281 220.257C243.16 220.257 243.281 218.574 243.418 215.905C243.513 212.426 243.305 208.945 242.796 205.502C242.259 202.06 241.427 198.671 240.309 195.371C239.764 194.028 239.293 192.656 238.898 191.262Z" fill="#263238"/>
<path d="M374.442 209.445C373.732 210.689 372.947 211.89 372.091 213.039C370.178 215.904 368.475 218.905 366.996 222.017C365.524 225.13 364.287 228.349 363.295 231.646C362.95 233.04 362.525 234.412 362.021 235.756C362.076 234.31 362.321 232.877 362.749 231.495C364.469 224.723 367.481 218.348 371.621 212.72C372.426 211.519 373.373 210.419 374.442 209.445Z" fill="#263238"/>
<path d="M206.779 72.019C205.755 72.8321 204.634 73.5147 203.442 74.0512C200.657 75.4963 197.774 76.743 194.813 77.7818C191.845 78.8396 188.804 79.681 185.714 80.2992C184.455 80.6246 183.162 80.8027 181.862 80.8299C183.074 80.3716 184.322 80.0165 185.593 79.7684C187.913 79.1618 191.083 78.2519 194.525 77.0387C197.968 75.8255 200.985 74.5364 203.169 73.5507C204.332 72.9497 205.538 72.4376 206.779 72.019Z" fill="#263238"/>
<path d="M196.283 65.3311C196.283 65.3311 196.51 65.2552 196.904 65.3311C197.45 65.538 197.909 65.9227 198.209 66.4229C198.445 66.8015 198.594 67.2275 198.646 67.6705C198.699 68.1135 198.653 68.5626 198.512 68.9858C198.276 69.4949 197.899 69.9258 197.426 70.2278C196.953 70.5298 196.404 70.6903 195.843 70.6903C195.282 70.6903 194.732 70.5298 194.259 70.2278C193.787 69.9258 193.41 69.4949 193.174 68.9858C193.034 68.5626 192.993 68.1131 193.053 67.6716C193.114 67.2301 193.274 66.8082 193.523 66.4381C193.828 65.938 194.301 65.5621 194.857 65.3766C195.251 65.2552 195.479 65.3766 195.479 65.3766C195.479 65.3766 194.584 65.6192 193.962 66.7566C193.798 67.0608 193.699 67.3963 193.673 67.7413C193.647 68.0862 193.694 68.4328 193.811 68.7584C193.987 69.128 194.268 69.4382 194.618 69.651C194.968 69.8638 195.373 69.9699 195.782 69.9564C196.192 69.9839 196.602 69.8891 196.958 69.684C197.314 69.4788 197.602 69.1725 197.784 68.8039C197.907 68.4788 197.962 68.1315 197.943 67.7842C197.925 67.4369 197.835 67.0973 197.678 66.7869C197.162 65.604 196.237 65.5282 196.283 65.3311Z" fill="#263238"/>
<path d="M358.505 59.9018C356.17 62.2221 353.773 64.4513 351.499 66.8929C350.49 67.8959 349.714 69.1089 349.226 70.4456C348.739 71.7823 348.552 73.2099 348.678 74.6271C348.866 76.0795 349.352 77.4773 350.106 78.7327C350.861 79.988 351.867 81.0737 353.061 81.9215C360.294 87.9875 369.333 93.2498 379.038 92.9616C385.63 92.6257 391.845 89.7893 396.418 85.0303C398.313 83.165 395.386 80.2078 393.476 82.0883C390.039 85.7238 385.454 88.0642 380.494 88.7154C376.244 89.054 371.977 88.3132 368.089 86.562C364.361 84.9284 360.856 82.829 357.656 80.314C355.937 79.2436 354.465 77.8225 353.334 76.1436C352.839 75.1113 352.678 73.9503 352.873 72.8223C353.069 71.6943 353.612 70.6553 354.426 69.8501C356.7 67.454 359.096 65.1792 361.432 62.859C361.79 62.4646 361.983 61.9476 361.971 61.4148C361.959 60.8821 361.743 60.3744 361.367 59.9966C360.991 59.6188 360.485 59.3999 359.952 59.3851C359.419 59.3703 358.901 59.5607 358.505 59.917V59.9018Z" fill="#3780EF"/>
<path d="M405.713 18.1679C407.912 15.9841 410.096 13.7852 412.31 11.6014C412.897 10.9219 413.63 10.3846 414.455 10.0299C415.28 9.67528 416.175 9.5126 417.072 9.55415C419.513 9.78163 420.908 11.6014 422.319 13.3606C427.354 19.5934 431.827 27.4186 431.63 35.6684C431.347 41.223 428.923 46.4519 424.867 50.2572C423.001 52.168 425.928 55.11 427.809 53.2902C432.068 49.1936 434.825 43.7822 435.634 37.928C436.08 32.8373 435.203 27.7176 433.086 23.0662C431.181 18.7652 428.713 14.7364 425.746 11.0858C424.286 8.84802 422.211 7.07884 419.771 5.99036C418.314 5.48277 416.756 5.3349 415.23 5.55935C413.704 5.78379 412.255 6.37391 411.006 7.27939C408.071 9.74123 405.324 12.4176 402.786 15.2865C402.496 15.689 402.359 16.1822 402.4 16.6769C402.442 17.1716 402.659 17.635 403.013 17.9832C403.367 18.3315 403.834 18.5416 404.329 18.5754C404.824 18.6093 405.315 18.4648 405.713 18.1679Z" fill="#3780EF"/>
<path d="M429.977 79.1768L425.428 82.0126L425.352 82.1339H425.231L422.319 86.7896C422.319 86.7896 429.28 94.7816 431.797 103.016L438.94 95.8887L439.137 95.6915L446.295 88.5639C438.015 86.1072 429.977 79.1768 429.977 79.1768Z" fill="#3780EF"/>
<path d="M427.115 73.3513L416.528 83.9115C415.188 85.2483 415.186 87.4184 416.523 88.7585L416.598 88.8336C417.934 90.1737 420.104 90.1763 421.444 88.8395L432.031 78.2793C433.371 76.9425 433.373 74.7724 432.036 73.4323L431.962 73.3572C430.625 72.0171 428.455 72.0145 427.115 73.3513Z" fill="#3780EF"/>
<path d="M399.026 6.02051L374.216 30.7851L372.896 32.0893L349.451 55.4738C349.785 56.141 396.008 107.369 422.547 79.2374C450.814 52.7137 399.648 6.38447 399.026 6.02051Z" fill="#3780EF"/>
<g opacity="0.3">
<path d="M399.026 6.02051C402.059 9.05352 405.001 11.7681 407.67 14.6949C425.762 34.4095 436.635 55.9439 427.96 72.5345L420.878 79.6014C420.878 79.6014 429.447 59.7655 420.105 43.5085C410.763 27.2516 397.63 8.6289 397.63 8.6289L399.026 6.02051Z" fill="black"/>
</g>
<path d="M429.226 101.333L445.106 85.4926C447.099 83.5043 449.8 82.3892 452.616 82.3926C455.431 82.396 458.13 83.5177 460.118 85.511L460.236 85.6291L429.304 116.485L429.187 116.367C428.2 115.378 427.419 114.205 426.887 112.913C426.355 111.622 426.083 110.238 426.087 108.842C426.09 107.445 426.37 106.063 426.908 104.775C427.447 103.486 428.235 102.317 429.226 101.333Z" fill="#3780EF"/>
<path d="M464.819 79.8776L423.28 121.315L443.223 141.307L484.762 99.8688L464.819 79.8776Z" fill="#455A64"/>
<path d="M463.457 90.6642L434.061 119.989L443.839 129.791L473.235 100.467L463.457 90.6642Z" fill="#E0E0E0"/>
<path d="M432.615 77.6602C432.615 77.6602 430.173 80.2231 427.08 83.3016C423.986 86.3801 421.468 88.8671 421.423 88.8216C421.377 88.7761 423.91 86.3042 426.943 83.2257C429.976 80.1472 432.584 77.6602 432.615 77.6602Z" fill="#263238"/>
<path d="M427.96 72.5344C427.96 72.5344 425.322 75.2945 421.985 78.6005C418.649 81.9064 415.919 84.6665 415.919 84.5603C415.919 84.4542 418.558 81.8003 421.894 78.4943C425.231 75.1883 427.915 72.5041 427.96 72.5344Z" fill="#263238"/>
<path d="M444.96 85.4553C444.96 85.4553 441.669 88.8674 437.544 93.0378C433.419 97.2082 429.977 100.408 429.977 100.408C429.977 100.408 433.252 96.9959 437.392 92.8255C441.532 88.6551 444.929 85.425 444.96 85.4553Z" fill="#263238"/>
<path d="M399.024 6.02051V6.18732L398.766 6.65744L397.765 8.46208L397.038 9.76628L396.128 11.2828C395.46 12.3747 394.748 13.6334 393.853 14.9527C393.413 15.62 392.943 16.3176 392.473 17.0607C392.003 17.8038 391.457 18.5772 390.956 19.2899L390.122 20.4576C389.986 20.6548 389.849 20.8671 389.698 21.0643L389.258 21.6557L387.377 24.1124C384.529 27.7279 381.492 31.1903 378.278 34.4853C375.037 37.742 371.631 40.8297 368.072 43.736L365.646 45.6468L365.054 46.1018L364.463 46.5416L363.25 47.3301C362.476 47.8761 361.733 48.4372 361.036 48.8466L358.943 50.2418C357.624 51.1517 356.38 51.8797 355.303 52.5621L353.787 53.4872L352.483 54.2151L350.693 55.216L350.223 55.4738L350.056 55.5648L350.208 55.4586L350.678 55.1856L352.452 54.1544L353.741 53.4113C354.211 53.1384 354.712 52.8047 355.258 52.4711C356.335 51.7887 357.578 51.0607 358.897 50.1357L360.975 48.7253C361.688 48.24 362.492 47.6789 363.174 47.2088L364.326 46.3596L364.933 45.935L365.509 45.4648L367.936 43.554C371.487 40.651 374.884 37.5631 378.112 34.3034C381.321 31.02 384.358 27.5729 387.211 23.9759L389.03 21.5495L389.485 20.9581L389.91 20.3515L390.744 19.1838C391.29 18.4255 391.836 17.6673 392.261 16.9697L393.656 14.8617C394.55 13.5424 395.278 12.2988 395.946 11.2221C396.279 10.6762 396.598 10.1757 396.871 9.70562C397.144 9.2355 397.386 8.79571 397.614 8.41659L398.645 6.62711L398.918 6.15699L399.024 6.02051Z" fill="#263238"/>
<path d="M386.955 42.7351L397.161 46.2078L405.805 39.7627L405.653 50.5451L414.449 56.7779L404.152 59.9626L400.937 70.2445L394.735 61.4336L383.952 61.5701L390.412 52.9411L386.955 42.7351Z" fill="white"/>
<path d="M399.026 6.02051L399.178 6.15699L399.617 6.55129C399.996 6.90008 400.558 7.40053 401.27 8.06779C402.696 9.40232 404.728 11.3738 407.124 13.9215C409.52 16.4692 412.31 19.5781 415.146 23.2329C418.257 27.1758 421.065 31.348 423.548 35.7137C426.052 40.0738 428.042 44.71 429.477 49.5291C430.088 51.6389 430.529 53.7942 430.797 55.9742L430.888 56.7325C430.888 56.9751 430.888 57.2329 430.888 57.4756V58.2187C430.888 58.4613 430.888 58.7039 430.888 58.9314C430.888 59.902 430.888 60.8119 430.888 61.6915C430.712 64.4571 430.108 67.1787 429.098 69.7593C428.749 70.6692 428.431 71.3668 428.203 71.8217L427.93 72.3525L427.84 72.5193C427.859 72.4563 427.884 72.3954 427.915 72.3373C427.915 72.216 428.052 72.034 428.173 71.8065C428.385 71.3364 428.689 70.654 429.038 69.7441C430.024 67.1601 430.602 64.4382 430.751 61.6763C430.797 60.767 430.797 59.8559 430.751 58.9466V58.2187V57.4907C430.751 57.2481 430.751 56.9903 430.751 56.7476L430.645 55.9894C430.365 53.8202 429.918 51.6757 429.311 49.5746C427.88 44.7705 425.896 40.1494 423.396 35.8047C420.913 31.4512 418.115 27.2849 415.025 23.339C412.189 19.6842 409.414 16.5602 407.033 13.9973C404.652 11.4344 402.681 9.41748 401.164 8.12845C400.467 7.44602 399.905 6.93041 399.526 6.61194L399.102 6.21765L399.026 6.02051Z" fill="#263238"/>
<path d="M410.672 83.2107L410.536 83.3017L410.126 83.5746C409.59 83.8952 409.027 84.1691 408.443 84.3935C407.518 84.7297 406.556 84.9538 405.577 85.0608C404.272 85.2048 402.954 85.2048 401.649 85.0608C400.075 84.8843 398.518 84.58 396.993 84.1509L394.461 83.423L391.807 82.4979C387.916 81.0302 384.16 79.2237 380.585 77.0991C377.01 74.9763 373.562 72.647 370.257 70.1232C367.224 67.803 364.54 65.5737 362.326 63.7236C360.112 61.8734 358.368 60.2963 357.155 59.174L355.76 57.9305L355.411 57.612C355.365 57.5769 355.325 57.5361 355.29 57.4907L355.411 57.5969L355.79 57.9002L357.2 59.1285C358.429 60.1901 360.233 61.7218 362.417 63.5871C364.601 65.4524 367.3 67.6362 370.348 69.9412C373.654 72.4581 377.102 74.7822 380.676 76.902C384.249 79.0109 387.993 80.8168 391.868 82.3008C392.778 82.6041 393.642 82.9377 394.506 83.2258L397.039 83.9689C398.555 84.3952 400.101 84.7044 401.664 84.894C402.96 85.0292 404.266 85.0292 405.562 84.894C406.537 84.7867 407.499 84.5731 408.428 84.2571C409.01 84.0404 409.573 83.7766 410.111 83.4685L410.521 83.2107H410.672Z" fill="white"/>
<path d="M417.452 85.0308C417.228 85.3939 417.133 85.8221 417.183 86.2459C417.232 86.6697 417.424 87.0644 417.725 87.3662C418.158 87.7984 418.674 88.1388 419.242 88.3671L419.939 88.6855C419.683 88.6605 419.432 88.5939 419.196 88.4884C418.619 88.2794 418.099 87.9364 417.68 87.4875C417.465 87.2468 417.308 86.9611 417.218 86.6514C417.129 86.3417 417.111 86.0159 417.164 85.698C417.197 85.5102 417.275 85.3331 417.392 85.1824C417.376 85.0763 417.437 85.0308 417.452 85.0308Z" fill="white"/>
<path d="M431.01 101.196C430.904 101.346 430.782 101.483 430.646 101.606C430.32 101.966 430.016 102.346 429.736 102.743C428.796 104.056 428.163 105.565 427.886 107.156C427.612 108.752 427.695 110.388 428.128 111.948C428.295 112.54 428.477 113.01 428.599 113.328L428.811 113.829C428.811 113.829 428.811 113.829 428.735 113.707C428.659 113.586 428.614 113.51 428.538 113.359C428.328 112.912 428.151 112.451 428.007 111.979C427.526 110.407 427.422 108.745 427.704 107.126C428.062 105.013 429.075 103.066 430.6 101.56C430.692 101.46 430.794 101.368 430.904 101.287L431.01 101.196Z" fill="white"/>
<path d="M414.418 87.5175L427.232 75.2944C428.083 76.3288 428.611 77.5901 428.751 78.9219C428.891 80.2536 428.637 81.5972 428.021 82.786C426.764 85.154 425.041 87.2433 422.956 88.9278C427.839 91.4604 431.448 99.5434 427.096 105.761" fill="#B06B5A"/>
<path d="M428.461 103.016C428.461 103.016 428.461 102.91 428.567 102.728C428.673 102.546 428.749 102.243 428.84 101.848C429.112 100.743 429.204 99.6013 429.113 98.4667C428.972 96.7138 428.455 95.012 427.597 93.4774C426.536 91.494 424.917 89.8649 422.941 88.7914V89.0492C424.01 88.0983 425.023 87.0855 425.974 86.0162C427.036 84.9154 427.879 83.6239 428.461 82.2097C428.913 81.0003 429.064 79.6992 428.901 78.4185C428.768 77.19 428.235 76.0391 427.384 75.1428L427.278 75.0215L427.172 75.1276L418.073 83.9537L415.45 86.5318L414.752 87.2142L414.524 87.472C414.524 87.472 414.631 87.472 414.797 87.2597L415.525 86.6076L418.21 84.0902L427.445 75.3551H427.218C427.998 76.1922 428.497 77.253 428.643 78.3881C428.789 79.6228 428.643 80.8745 428.218 82.0429C427.679 83.4131 426.893 84.6726 425.898 85.7583C424.978 86.8259 423.995 87.8386 422.956 88.7914L422.805 88.9278L423.002 89.034C424.923 90.0824 426.503 91.6618 427.551 93.5835C428.385 95.0905 428.901 96.7524 429.068 98.4667C429.169 99.5874 429.103 100.717 428.871 101.818C428.598 102.592 428.461 103.001 428.461 103.016Z" fill="#844E42"/>
<path d="M332.51 401.647L315.268 329.4H268.802C268.802 329.4 264.874 369.224 263.434 381.235C261.993 393.245 272.457 526.546 272.457 526.546L282.238 652.083H316.875L325.762 514.081C325.762 494.836 332.51 401.647 332.51 401.647Z" fill="#263238"/>
<path d="M397.813 402.799C394.704 347.371 363.252 315.449 363.252 315.449C361.811 315.449 315.27 329.37 315.27 329.37L332.315 407.652L333.346 426.7L345.054 643.196L383.709 643.606C383.709 643.606 385.651 607.346 391.565 533.795C395.326 487.117 400.057 443.048 397.813 402.799Z" fill="#263238"/>
<path d="M328.371 383.282C328.187 382.683 328.061 382.069 327.992 381.447C327.764 380.112 327.491 378.414 327.158 376.442C326.46 372.211 325.459 366.373 324.125 359.958C322.79 353.543 321.516 347.826 320.516 343.61L319.333 338.666C319.155 338.068 319.043 337.453 318.999 336.831C319.27 337.389 319.483 337.974 319.636 338.575C320 339.728 320.485 341.396 321.061 343.458C322.184 347.613 323.609 353.376 324.898 359.806C326.187 366.236 327.112 372.105 327.658 376.351C327.946 378.489 328.144 380.218 328.25 381.416C328.367 382.031 328.408 382.657 328.371 383.282Z" fill="#455A64"/>
<path d="M286.409 348.023C286.542 348.543 286.593 349.08 286.561 349.616C286.595 351.058 286.55 352.501 286.425 353.938C286.086 358.738 284.676 363.402 282.3 367.586C279.83 371.785 276.006 375.02 271.457 376.761C270.088 377.27 268.652 377.576 267.195 377.671C266.693 377.751 266.181 377.751 265.679 377.671C267.609 377.417 269.505 376.955 271.335 376.291C275.674 374.447 279.305 371.257 281.693 367.192C284.014 363.095 285.459 358.561 285.939 353.877C286.303 350.283 286.288 348.023 286.409 348.023Z" fill="#455A64"/>
<path d="M307.716 336.983C307.716 337.059 307.368 337.15 306.822 337.483C306.078 337.982 305.497 338.689 305.153 339.516C304.88 340.099 304.738 340.736 304.738 341.381C304.738 342.026 304.88 342.662 305.153 343.246C305.589 343.878 306.194 344.374 306.897 344.68C307.601 344.986 308.376 345.089 309.136 344.977C309.895 344.865 310.607 344.542 311.193 344.046C311.778 343.55 312.213 342.9 312.448 342.169C312.552 341.536 312.517 340.887 312.344 340.269C312.171 339.651 311.865 339.078 311.447 338.59C310.886 337.879 310.126 337.351 309.263 337.074C308.641 336.907 308.262 336.922 308.262 336.846C308.6 336.711 308.971 336.685 309.324 336.771C310.3 336.941 311.191 337.432 311.856 338.166C312.375 338.705 312.762 339.356 312.988 340.068C313.214 340.781 313.273 341.536 313.161 342.276C313.001 343.173 312.528 343.984 311.826 344.566C311.088 345.177 310.196 345.576 309.248 345.718C308.297 345.859 307.326 345.733 306.442 345.354C305.61 344.988 304.929 344.345 304.517 343.534C304.196 342.859 304.035 342.119 304.049 341.372C304.062 340.625 304.248 339.891 304.592 339.227C305.013 338.327 305.731 337.599 306.624 337.165C306.961 336.993 307.342 336.93 307.716 336.983Z" fill="#455A64"/>
<path d="M378.765 346.294C378.328 346.599 377.847 346.835 377.339 346.992C375.974 347.507 374.535 347.804 373.078 347.871C368.234 348.011 363.487 346.503 359.611 343.595C355.836 340.658 352.625 337.062 350.133 332.979C349.147 331.463 348.419 330.174 347.919 329.279C347.627 328.837 347.398 328.358 347.236 327.854C347.342 327.854 348.541 329.704 350.603 332.661C353.177 336.581 356.379 340.05 360.081 342.928C363.83 345.731 368.381 347.257 373.062 347.28C374.997 347.189 376.912 346.858 378.765 346.294Z" fill="#455A64"/>
</svg>
