<svg width="301" height="300" viewBox="0 0 301 300" fill="none" xmlns="http://www.w3.org/2000/svg">
<path d="M140.069 4.25928H127.125C123.167 4.25928 119.959 7.46762 119.959 11.4253V24.3766C119.959 28.3343 123.167 31.5427 127.125 31.5427H140.069C144.027 31.5427 147.235 28.3343 147.235 24.3766V11.4253C147.235 7.46762 144.027 4.25928 140.069 4.25928Z" fill="white"/>
<path d="M140.096 31.5426C140.096 31.5426 140.441 31.5426 141.07 31.4252C141.998 31.2999 142.89 30.98 143.686 30.4863C144.961 29.7302 145.965 28.5928 146.558 27.2347C146.92 26.3913 147.119 25.4872 147.145 24.5699C147.145 23.5895 147.145 22.5471 147.145 21.4494C147.145 19.2609 147.145 16.8653 147.145 14.2903C147.145 13.6482 147.145 12.9924 147.145 12.3227C147.152 11.6548 147.104 10.9874 147 10.3275C146.9 9.65536 146.695 9.00306 146.392 8.39451C146.093 7.76018 145.695 7.17758 145.212 6.66858C144.214 5.61178 142.915 4.88852 141.491 4.59747C140.747 4.48107 139.993 4.43484 139.24 4.4594H127.131C125.531 4.45965 123.98 5.00786 122.735 6.01275C121.49 7.01764 120.627 8.41859 120.29 9.98235C120.157 10.7411 120.104 11.5115 120.131 12.2813V14.5733C120.131 16.0921 120.131 17.5764 120.131 19.0262C120.131 20.476 120.131 21.8843 120.131 23.2582C120.111 23.926 120.129 24.5945 120.186 25.2602C120.268 25.895 120.43 26.5167 120.669 27.1104C121.126 28.1929 121.846 29.1444 122.763 29.8785C123.681 30.6126 124.767 31.1063 125.923 31.3148C126.95 31.4304 127.983 31.472 129.016 31.439H131.777H136.237H139.061H139.793C139.875 31.43 139.958 31.43 140.041 31.439H139.793H139.061L136.237 31.4736H131.777H129.016C127.97 31.5198 126.922 31.4851 125.882 31.37C124.671 31.1683 123.531 30.6655 122.566 29.9079C121.601 29.1503 120.842 28.1622 120.359 27.0345C120.1 26.4163 119.926 25.7661 119.841 25.1014C119.779 24.4129 119.756 23.7215 119.772 23.0303C119.772 21.6496 119.772 20.2689 119.772 18.7984C119.772 17.3279 119.772 15.8643 119.772 14.3455V12.2675C119.74 11.4747 119.793 10.6808 119.931 9.89951C120.28 8.25279 121.185 6.77615 122.493 5.71672C123.801 4.65729 125.434 4.07937 127.117 4.0797H139.213C139.989 4.04745 140.767 4.09837 141.532 4.23158C143.028 4.5449 144.39 5.31717 145.426 6.44076C145.928 6.97248 146.343 7.58069 146.655 8.24263C146.97 8.88196 147.182 9.56693 147.283 10.2723C147.374 10.9587 147.407 11.6516 147.38 12.3434C147.38 13.0338 147.38 13.6689 147.38 14.311C147.38 16.886 147.38 19.2816 147.38 21.4701C147.38 22.5678 147.38 23.6102 147.38 24.5975C147.351 25.5507 147.136 26.4891 146.745 27.3589C146.11 28.7392 145.053 29.8825 143.728 30.6244C142.91 31.1058 141.999 31.4092 141.056 31.515C140.737 31.5502 140.416 31.5595 140.096 31.5426Z" fill="#263238"/>
<path d="M134.779 17.7561C135.38 17.4931 135.891 17.0589 136.247 16.5076C136.603 15.9564 136.789 15.3125 136.781 14.6563C136.801 14.231 136.735 13.806 136.586 13.4071C136.437 13.0082 136.208 12.6437 135.914 12.3356C135.62 12.0276 135.267 11.7823 134.875 11.6148C134.484 11.4472 134.062 11.3608 133.637 11.3608C133.211 11.3608 132.789 11.4472 132.398 11.6148C132.006 11.7823 131.653 12.0276 131.359 12.3356C131.065 12.6437 130.837 13.0082 130.688 13.4071C130.539 13.806 130.472 14.231 130.492 14.6563C130.479 15.3172 130.662 15.967 131.019 16.5237C131.375 17.0804 131.888 17.5189 132.494 17.7837C127.661 18.5155 127.882 23.7692 127.882 23.7692L139.315 23.8244C139.315 23.8244 139.577 18.481 134.779 17.7561Z" fill="#455A64"/>
<path d="M139.328 23.8108L127.875 23.7625C127.868 22.8191 128.037 21.8826 128.372 21.001C128.667 20.2258 129.14 19.5306 129.753 18.9713C130.515 18.3032 131.456 17.8735 132.459 17.7356C131.864 17.464 131.361 17.0234 131.014 16.4687C130.667 15.914 130.49 15.2694 130.506 14.6151C130.502 13.7335 130.835 12.8838 131.438 12.2402C131.721 11.9436 132.062 11.707 132.439 11.5445C132.816 11.382 133.222 11.297 133.633 11.2944C134.498 11.3286 135.314 11.7034 135.904 12.3371C136.494 12.9708 136.809 13.812 136.781 14.6772C136.79 15.3265 136.61 15.9644 136.263 16.5134C135.916 17.0624 135.417 17.4989 134.827 17.7701C135.825 17.9103 136.76 18.3427 137.513 19.0128C138.112 19.5898 138.569 20.2991 138.845 21.0839C139.174 21.9667 139.333 22.9035 139.315 23.8453L139.328 23.8108ZM127.896 23.7211L139.301 23.7694C139.304 22.8423 139.145 21.9217 138.831 21.0493C138.556 20.2637 138.1 19.5541 137.499 18.9782C136.74 18.2973 135.791 17.8638 134.779 17.7356H134.717H134.772C135.37 17.4736 135.878 17.0412 136.231 16.4923C136.585 15.9435 136.769 15.3025 136.76 14.6496C136.792 13.7919 136.482 12.9567 135.898 12.3275C135.314 11.6984 134.504 11.3268 133.647 11.2944C133.234 11.296 132.826 11.3827 132.448 11.549C132.071 11.7153 131.731 11.9576 131.451 12.261C130.853 12.8981 130.521 13.7408 130.526 14.6151C130.505 15.274 130.682 15.924 131.034 16.4814C131.386 17.0388 131.897 17.478 132.501 17.7425C131.477 17.8687 130.515 18.2992 129.739 18.9782C129.127 19.5322 128.654 20.2229 128.358 20.9941C128.04 21.8674 127.883 22.7915 127.896 23.7211Z" fill="#263238"/>
<path d="M142.844 120.469H126.123C122.165 120.469 118.957 123.678 118.957 127.635V144.363C118.957 148.321 122.165 151.529 126.123 151.529H142.844C146.801 151.529 150.01 148.321 150.01 144.363V127.635C150.01 123.678 146.801 120.469 142.844 120.469Z" fill="white"/>
<path d="M142.857 151.529C142.857 151.529 143.251 151.529 143.982 151.391C145.361 151.159 146.64 150.525 147.66 149.57C148.681 148.615 149.397 147.38 149.719 146.02C149.911 144.971 149.973 143.902 149.906 142.837C149.906 141.698 149.906 140.49 149.906 139.227C149.906 136.693 149.906 133.925 149.906 130.942V128.657C149.937 127.886 149.895 127.114 149.782 126.351C149.478 124.729 148.613 123.265 147.338 122.218C146.063 121.17 144.459 120.605 142.809 120.621H126.171C125.252 120.622 124.341 120.804 123.492 121.157C122.644 121.509 121.872 122.026 121.223 122.676C120.574 123.327 120.059 124.099 119.708 124.949C119.357 125.799 119.177 126.709 119.177 127.629C119.177 131.274 119.177 134.788 119.177 138.136C119.177 139.807 119.177 141.443 119.177 143.024C119.152 143.798 119.18 144.573 119.26 145.343C119.354 146.079 119.574 146.794 119.909 147.456C120.541 148.726 121.539 149.777 122.774 150.473C123.92 151.104 125.215 151.414 126.523 151.37L138.515 151.432L141.773 151.467H142.622H142.912C142.816 151.477 142.719 151.477 142.622 151.467H141.773H138.515L126.523 151.522C125.169 151.576 123.825 151.261 122.636 150.611C121.347 149.894 120.305 148.803 119.647 147.484C119.294 146.794 119.06 146.049 118.957 145.281C118.874 144.497 118.846 143.708 118.874 142.92C118.874 141.339 118.874 139.703 118.874 138.032C118.874 134.684 118.874 131.17 118.874 127.525C118.872 126.559 119.06 125.602 119.429 124.709C119.797 123.815 120.338 123.004 121.02 122.32C121.702 121.635 122.512 121.092 123.404 120.722C124.297 120.351 125.253 120.16 126.219 120.159H142.857C144.627 120.154 146.341 120.781 147.69 121.926C148.968 123.022 149.83 124.523 150.134 126.179C150.247 126.96 150.287 127.751 150.251 128.54V130.811C150.251 133.787 150.251 136.555 150.251 139.096C150.251 140.359 150.251 141.567 150.251 142.706C150.307 143.788 150.231 144.873 150.023 145.937C149.601 147.643 148.573 149.137 147.13 150.141C146.226 150.768 145.189 151.177 144.1 151.336C143.819 151.382 143.535 151.402 143.251 151.398L142.857 151.529Z" fill="#263238"/>
<path d="M135.836 135.837C136.519 135.537 137.098 135.042 137.502 134.415C137.906 133.787 138.116 133.055 138.107 132.309C138.138 131.821 138.068 131.332 137.902 130.871C137.736 130.411 137.477 129.99 137.142 129.633C136.807 129.277 136.403 128.993 135.954 128.798C135.505 128.604 135.021 128.504 134.531 128.504C134.042 128.504 133.558 128.604 133.109 128.798C132.66 128.993 132.255 129.277 131.92 129.633C131.585 129.99 131.327 130.411 131.161 130.871C130.995 131.332 130.925 131.821 130.955 132.309C130.939 133.062 131.147 133.803 131.552 134.437C131.958 135.071 132.543 135.571 133.233 135.872C127.71 136.7 127.98 142.685 127.98 142.685L140.993 142.748C140.993 142.748 141.29 136.665 135.836 135.837Z" fill="#3780EF"/>
<path d="M240.948 158.488C241.045 158.488 241.128 161.94 241.128 166.262C241.128 170.584 241.045 174.035 240.948 174.035C240.851 174.035 240.769 170.584 240.769 166.262C240.769 161.94 240.844 158.488 240.948 158.488Z" fill="#263238"/>
<path d="M238.545 190.805H221.037V208.312H238.545V190.805Z" fill="#E0E0E0"/>
<path d="M260.989 191.868H242.957V193.366H260.989V191.868Z" fill="#E0E0E0"/>
<path d="M260.989 195.327H242.957V196.825H260.989V195.327Z" fill="#E0E0E0"/>
<path d="M260.989 198.792H242.957V200.29H260.989V198.792Z" fill="#E0E0E0"/>
<path d="M260.989 202.258H242.957V203.756H260.989V202.258Z" fill="#E0E0E0"/>
<path d="M260.989 205.716H242.957V207.214H260.989V205.716Z" fill="#E0E0E0"/>
<path d="M221.233 174.346H259.382C260.673 174.346 261.911 174.858 262.824 175.771C263.737 176.684 264.25 177.922 264.25 179.213V186.054H216.435V179.151C216.442 177.88 216.949 176.663 217.847 175.763C218.746 174.864 219.962 174.355 221.233 174.346Z" fill="#E0E0E0"/>
<path d="M259.789 216.424C260.369 216.395 260.941 216.269 261.48 216.051C262.127 215.774 262.699 215.348 263.151 214.809C263.767 214.074 264.123 213.157 264.166 212.199C264.166 207.836 264.166 201.54 264.124 193.766C264.124 189.872 264.124 185.613 264.124 181.036C264.124 180.463 264.124 179.883 264.124 179.303C264.157 178.73 264.094 178.156 263.938 177.605C263.681 176.76 263.174 176.014 262.484 175.464C261.793 174.914 260.952 174.587 260.072 174.525C259.478 174.491 258.836 174.525 258.215 174.525H254.404H220.921C220.2 174.521 219.488 174.694 218.85 175.029C218.227 175.369 217.698 175.858 217.31 176.452C216.916 177.038 216.679 177.715 216.62 178.419C216.586 179.11 216.62 179.869 216.62 180.58V189.127C216.62 194.726 216.62 200.131 216.62 205.281V210.956C216.588 211.56 216.615 212.166 216.703 212.765C216.822 213.334 217.053 213.874 217.381 214.353C217.709 214.833 218.128 215.243 218.615 215.561C219.092 215.871 219.624 216.084 220.182 216.189C220.744 216.273 221.313 216.301 221.881 216.272H234.611L253.051 216.334L258.063 216.369H259.368H259.81C259.81 216.369 259.658 216.369 259.368 216.369H258.063L253.051 216.403L234.611 216.459H221.881C221.295 216.488 220.708 216.462 220.127 216.383C219.214 216.205 218.372 215.763 217.708 215.111C217.044 214.46 216.587 213.627 216.392 212.717C216.299 212.098 216.266 211.471 216.296 210.846V208.982C216.296 207.725 216.296 206.455 216.296 205.171C216.296 200.021 216.296 194.615 216.296 189.016V180.58C216.296 179.89 216.296 179.144 216.296 178.392C216.355 177.629 216.604 176.893 217.02 176.251C217.443 175.61 218.017 175.081 218.691 174.712C219.377 174.352 220.14 174.165 220.914 174.167H254.397H258.208C258.843 174.167 259.444 174.167 260.086 174.167C260.723 174.208 261.344 174.385 261.908 174.684C262.458 174.968 262.946 175.358 263.343 175.832C263.74 176.306 264.038 176.855 264.221 177.446C264.386 178.027 264.453 178.631 264.421 179.234V180.967C264.421 185.544 264.421 189.803 264.421 193.697C264.421 201.484 264.421 207.781 264.352 212.137C264.295 213.121 263.916 214.059 263.275 214.809C262.806 215.353 262.214 215.778 261.549 216.051C261.143 216.212 260.715 216.312 260.279 216.348L259.789 216.424Z" fill="#263238"/>
<path d="M242.963 174.346C242.965 174.745 242.848 175.136 242.627 175.468C242.406 175.801 242.091 176.06 241.722 176.214C241.354 176.367 240.948 176.408 240.556 176.33C240.164 176.253 239.804 176.061 239.522 175.778C239.24 175.496 239.048 175.136 238.97 174.744C238.892 174.353 238.933 173.947 239.086 173.578C239.24 173.21 239.499 172.895 239.832 172.674C240.164 172.453 240.555 172.336 240.954 172.337C241.487 172.337 241.998 172.549 242.375 172.925C242.752 173.302 242.963 173.813 242.963 174.346Z" fill="#263238"/>
<path d="M162.438 106.254C162.279 106.265 162.12 106.265 161.961 106.254L160.581 106.289L155.541 106.344L138.91 106.399H136.507C136.107 106.413 135.705 106.399 135.306 106.358C134.907 106.302 134.519 106.188 134.153 106.02C133.465 105.691 132.855 105.22 132.362 104.638C131.869 104.056 131.506 103.377 131.295 102.644C131.093 101.972 130.993 101.274 130.998 100.573C130.998 99.8824 130.998 99.261 130.998 98.6328C130.998 97.3901 130.998 96.2234 131.047 95.181C131.047 93.1099 131.116 91.377 131.136 90.1413C131.136 89.5752 131.15 89.1149 131.178 88.7605C131.173 88.6007 131.187 88.4408 131.219 88.2842C131.234 88.4426 131.234 88.6021 131.219 88.7605C131.219 89.1057 131.219 89.566 131.219 90.1413C131.219 91.377 131.219 93.0891 131.219 95.181C131.219 96.251 131.219 97.4178 131.219 98.6673C131.219 99.9169 131.074 101.277 131.516 102.582C131.718 103.265 132.06 103.899 132.522 104.443C132.983 104.986 133.553 105.427 134.195 105.737C134.534 105.886 134.891 105.988 135.258 106.04C135.641 106.079 136.026 106.093 136.411 106.082H138.813L155.444 106.13L160.484 106.185L161.865 106.22C162.056 106.206 162.249 106.218 162.438 106.254Z" fill="#263238"/>
<path d="M137.709 42.9062H109.963C106.005 42.9062 102.797 46.1146 102.797 50.0723V77.8182C102.797 81.7759 106.005 84.9843 109.963 84.9843H137.709C141.667 84.9843 144.875 81.7759 144.875 77.8182V50.0723C144.875 46.1146 141.667 42.9062 137.709 42.9062Z" fill="white"/>
<path d="M137.702 84.9774C138.226 84.9367 138.747 84.8652 139.262 84.7634C140.737 84.4179 142.064 83.6129 143.052 82.4645C143.767 81.6448 144.278 80.6679 144.543 79.6133C144.783 78.3394 144.857 77.04 144.764 75.7472C144.764 72.9443 144.764 69.7479 144.764 66.227C144.764 62.7062 144.764 58.8332 144.764 54.6841V51.5153C144.825 50.4418 144.746 49.3651 144.53 48.312C144.247 47.2337 143.711 46.2384 142.967 45.4087C142.222 44.579 141.291 43.9389 140.249 43.5415C139.716 43.3301 139.156 43.1908 138.585 43.1273C138 43.0773 137.412 43.0589 136.825 43.072H109.963C108.655 43.0811 107.375 43.4566 106.269 44.1559C105.718 44.4948 105.22 44.9136 104.792 45.3986C104.357 45.8693 103.994 46.4021 103.715 46.9795C103.431 47.5518 103.226 48.1604 103.107 48.7883C103.007 49.4159 102.965 50.0515 102.983 50.6868V54.5322C102.983 59.6064 102.983 64.508 102.983 69.1749C102.983 71.5083 102.983 73.7797 102.983 75.9888C102.934 77.0678 102.98 78.1489 103.121 79.2198C103.335 80.2322 103.766 81.1861 104.385 82.0158C104.974 82.8008 105.723 83.4525 106.582 83.9283C107.441 84.4042 108.391 84.6935 109.369 84.7772C111.268 84.8463 113.132 84.7772 114.892 84.8256L131.606 84.8808L136.148 84.9153L131.606 84.9498L114.892 85.012C113.125 85.012 111.288 85.0465 109.369 85.012C108.349 84.9257 107.358 84.6239 106.463 84.1264C105.569 83.629 104.789 82.9472 104.177 82.1262C103.525 81.2628 103.072 80.2654 102.852 79.206C102.698 78.1178 102.647 77.0175 102.7 75.9198C102.7 73.7106 102.7 71.4393 102.7 69.1059C102.7 64.439 102.7 59.5373 102.7 54.4631V50.6178C102.677 49.9594 102.718 49.3004 102.824 48.6502C102.95 47.9918 103.164 47.3533 103.459 46.7517C103.757 46.1466 104.138 45.5864 104.592 45.0879C105.044 44.5802 105.567 44.1406 106.145 43.7831C107.315 43.0514 108.666 42.6616 110.046 42.6578H136.86C137.461 42.6443 138.062 42.665 138.661 42.72C139.257 42.7912 139.842 42.9374 140.401 43.1549C141.491 43.5721 142.465 44.2442 143.242 45.1149C144.02 45.9857 144.577 47.0298 144.868 48.1601C145.092 49.2378 145.171 50.3407 145.103 51.4393V54.6081C145.103 58.7503 145.103 62.6164 145.103 66.1511C145.103 69.6858 145.103 72.8684 145.103 75.6713C145.181 76.9796 145.093 78.2926 144.84 79.5788C144.562 80.6556 144.029 81.65 143.287 82.4783C142.276 83.6392 140.914 84.439 139.407 84.7565C139.021 84.8421 138.628 84.8906 138.233 84.9015C137.833 84.9844 137.702 84.9774 137.702 84.9774Z" fill="#263238"/>
<path d="M114.809 72.3228H109.5V76.389H114.809V72.3228Z" fill="#3780EF"/>
<path d="M121.527 62.9478H116.218V76.3892H121.527V62.9478Z" fill="#3780EF"/>
<path d="M128.912 68.7329H123.604V76.3822H128.912V68.7329Z" fill="#3780EF"/>
<path d="M135.961 59.0469H130.652V76.382H135.961V59.0469Z" fill="#3780EF"/>
<path d="M111.793 68.132C111.27 68.132 110.758 67.9769 110.324 67.6864C109.889 67.3958 109.55 66.9829 109.35 66.4997C109.15 66.0166 109.097 65.4849 109.199 64.972C109.301 64.4591 109.553 63.988 109.923 63.6182C110.293 63.2484 110.764 62.9966 111.277 62.8946C111.79 62.7925 112.321 62.8449 112.804 63.045C113.288 63.2451 113.701 63.584 113.991 64.0189C114.282 64.4537 114.437 64.9649 114.437 65.4879C114.437 66.1891 114.158 66.8617 113.662 67.3575C113.166 67.8534 112.494 68.132 111.793 68.132ZM111.793 63.541C111.406 63.541 111.028 63.6558 110.706 63.8708C110.385 64.0858 110.135 64.3913 109.987 64.7487C109.839 65.1061 109.801 65.4993 109.877 65.8785C109.953 66.2577 110.14 66.6058 110.414 66.8787C110.687 67.1517 111.036 67.3372 111.416 67.4118C111.795 67.4864 112.188 67.4467 112.545 67.2978C112.902 67.1489 113.207 66.8974 113.42 66.5752C113.634 66.253 113.748 65.8746 113.746 65.4879C113.744 64.9709 113.538 64.4757 113.172 64.1108C112.805 63.7459 112.31 63.541 111.793 63.541Z" fill="#3780EF"/>
<path d="M119.386 58.0802C118.863 58.0802 118.352 57.9251 117.917 57.6346C117.482 57.3441 117.144 56.9311 116.943 56.448C116.743 55.9648 116.691 55.4332 116.793 54.9203C116.895 54.4074 117.147 53.9362 117.517 53.5664C117.886 53.1966 118.358 52.9448 118.87 52.8428C119.383 52.7408 119.915 52.7931 120.398 52.9933C120.881 53.1934 121.294 53.5323 121.585 53.9671C121.875 54.4019 122.03 54.9132 122.03 55.4361C122.029 56.1368 121.749 56.8083 121.254 57.3038C120.758 57.7992 120.087 58.0784 119.386 58.0802ZM119.386 53.4824C119 53.4824 118.622 53.5969 118.301 53.8116C117.98 54.0263 117.729 54.3314 117.581 54.6884C117.433 55.0454 117.395 55.4383 117.47 55.8173C117.545 56.1963 117.732 56.5444 118.005 56.8176C118.278 57.0908 118.626 57.2769 119.005 57.3523C119.384 57.4277 119.777 57.389 120.134 57.2411C120.491 57.0933 120.796 56.8428 121.011 56.5215C121.225 56.2003 121.34 55.8225 121.34 55.4361C121.34 55.1795 121.29 54.9255 121.191 54.6884C121.093 54.4514 120.949 54.236 120.768 54.0546C120.586 53.8732 120.371 53.7293 120.134 53.6311C119.897 53.5329 119.643 53.4824 119.386 53.4824Z" fill="#3780EF"/>
<path d="M126.289 64.4523C125.766 64.4523 125.254 64.2972 124.82 64.0067C124.385 63.7161 124.046 63.3032 123.846 62.82C123.646 62.3369 123.593 61.8052 123.695 61.2923C123.797 60.7794 124.049 60.3083 124.419 59.9385C124.789 59.5687 125.26 59.3169 125.773 59.2149C126.286 59.1128 126.817 59.1652 127.301 59.3653C127.784 59.5655 128.197 59.9044 128.487 60.3392C128.778 60.774 128.933 61.2852 128.933 61.8082C128.931 62.5089 128.652 63.1804 128.156 63.6758C127.661 64.1713 126.989 64.4505 126.289 64.4523ZM126.289 59.8613C125.902 59.8613 125.524 59.9761 125.202 60.1911C124.881 60.4061 124.631 60.7116 124.483 61.069C124.335 61.4264 124.297 61.8196 124.373 62.1988C124.449 62.578 124.636 62.9261 124.91 63.199C125.184 63.472 125.532 63.6575 125.912 63.7321C126.291 63.8067 126.684 63.767 127.041 63.6181C127.398 63.4692 127.703 63.2177 127.916 62.8955C128.13 62.5733 128.244 62.1949 128.242 61.8082C128.242 61.29 128.037 60.7931 127.67 60.4267C127.304 60.0603 126.807 59.8544 126.289 59.8544V59.8613Z" fill="#3780EF"/>
<path d="M133.601 55.2155C133.078 55.2155 132.567 55.0604 132.132 54.7699C131.697 54.4793 131.358 54.0664 131.158 53.5832C130.958 53.1001 130.906 52.5684 131.008 52.0555C131.11 51.5426 131.362 51.0715 131.731 50.7017C132.101 50.3319 132.572 50.0801 133.085 49.9781C133.598 49.876 134.13 49.9284 134.613 50.1285C135.096 50.3286 135.509 50.6675 135.8 51.1024C136.09 51.5372 136.245 52.0484 136.245 52.5714C136.243 53.2721 135.964 53.9435 135.469 54.439C134.973 54.9345 134.302 55.2137 133.601 55.2155ZM133.601 50.6176C133.215 50.6176 132.837 50.7322 132.516 50.9469C132.194 51.1616 131.944 51.4667 131.796 51.8237C131.648 52.1807 131.61 52.5735 131.685 52.9525C131.76 53.3315 131.946 53.6796 132.22 53.9529C132.493 54.2261 132.841 54.4122 133.22 54.4876C133.599 54.5629 133.992 54.5243 134.349 54.3764C134.706 54.2285 135.011 53.9781 135.226 53.6568C135.44 53.3355 135.555 52.9578 135.555 52.5714C135.548 52.058 135.339 51.5681 134.973 51.2077C134.607 50.8472 134.115 50.6452 133.601 50.6452V50.6176Z" fill="#3780EF"/>
<path d="M131.758 54.0505L127.494 60.1167L128.059 60.5137L132.322 54.4474L131.758 54.0505Z" fill="#3780EF"/>
<path d="M121.41 57.0526L120.911 57.5298L124.156 60.9226L124.655 60.4455L121.41 57.0526Z" fill="#3780EF"/>
<path d="M117.577 57.1998L112.793 63.3623L113.338 63.7856L118.122 57.6232L117.577 57.1998Z" fill="#3780EF"/>
<path d="M134.048 85.4743C134.05 85.8736 133.932 86.2643 133.711 86.5969C133.491 86.9294 133.176 87.1889 132.807 87.3423C132.438 87.4957 132.033 87.5363 131.641 87.4587C131.249 87.3811 130.889 87.189 130.607 86.9067C130.325 86.6243 130.133 86.2645 130.055 85.8728C129.977 85.4811 130.018 85.0752 130.171 84.7066C130.325 84.338 130.584 84.0232 130.917 83.8022C131.249 83.5812 131.64 83.464 132.039 83.4653C132.572 83.4653 133.083 83.677 133.46 84.0538C133.837 84.4305 134.048 84.9415 134.048 85.4743Z" fill="#263238"/>
<path d="M182.457 75.5472C182.36 75.5472 182.277 69.7481 182.277 62.5959C182.277 55.4436 182.36 49.6445 182.457 49.6445C182.553 49.6445 182.636 55.4436 182.636 62.5959C182.636 69.7481 182.553 75.5472 182.457 75.5472Z" fill="#263238"/>
<path d="M195.14 7.42871H167.395C163.437 7.42871 160.229 10.6371 160.229 14.5947V42.3407C160.229 46.2984 163.437 49.5067 167.395 49.5067H195.14C199.098 49.5067 202.306 46.2984 202.306 42.3407V14.5947C202.306 10.6371 199.098 7.42871 195.14 7.42871Z" fill="white"/>
<path d="M195.133 49.4997C195.662 49.4527 196.187 49.3743 196.707 49.265C198.182 48.9194 199.509 48.1144 200.497 46.9661C201.212 46.1464 201.723 45.1694 201.988 44.1148C202.231 42.8554 202.312 41.5702 202.23 40.2902C202.23 37.4873 202.23 34.2909 202.23 30.77C202.23 27.2491 202.23 23.3762 202.23 19.227V16.0375C202.29 14.9641 202.212 13.8873 201.995 12.8342C201.712 11.7554 201.176 10.7595 200.432 9.92875C199.687 9.09803 198.756 8.45639 197.715 8.05687C197.18 7.85094 196.621 7.71406 196.051 7.64955C195.466 7.59613 194.878 7.57769 194.291 7.59432H167.394C166.082 7.59666 164.798 7.96744 163.686 8.66439C163.127 9.00373 162.623 9.42493 162.188 9.91396C161.753 10.3847 161.39 10.9175 161.111 11.4949C160.827 12.0672 160.623 12.6758 160.504 13.3037C160.403 13.9312 160.362 14.5669 160.38 15.2022V19.0475C160.38 24.1218 160.38 29.0234 160.38 33.6903C160.38 36.0168 160.38 38.295 160.38 40.5042C160.331 41.5809 160.377 42.6597 160.518 43.7282C160.73 44.7432 161.161 45.6997 161.781 46.5311C162.372 47.3149 163.121 47.9657 163.98 48.4414C164.839 48.9171 165.788 49.2071 166.766 49.2926C168.664 49.3617 170.528 49.2926 172.288 49.3409L189.002 49.3962L193.545 49.4307H189.002L172.288 49.4859C170.521 49.4859 168.685 49.5273 166.766 49.4859C165.2 49.3444 163.722 48.7037 162.549 47.6584C161.376 46.613 160.569 45.2183 160.248 43.6799C160.094 42.5918 160.043 41.4915 160.097 40.3938C160.097 38.1846 160.097 35.9064 160.097 33.5798C160.097 28.9129 160.097 24.0113 160.097 18.9371V15.2091C160.073 14.5507 160.115 13.8917 160.221 13.2415C160.347 12.5832 160.56 11.9446 160.856 11.343C161.153 10.7379 161.534 10.1778 161.988 9.67923C162.44 9.17147 162.963 8.73196 163.541 8.37444C164.711 7.64275 166.062 7.25295 167.442 7.24913H194.256C194.857 7.23558 195.459 7.25633 196.058 7.31127C196.654 7.38254 197.238 7.52867 197.798 7.7462C198.882 8.1686 199.85 8.84374 200.621 9.71548C201.392 10.5872 201.943 11.6304 202.23 12.7583C202.454 13.836 202.533 14.9389 202.465 16.0375V19.2063C202.465 23.3485 202.465 27.2146 202.465 30.7493C202.465 34.284 202.465 37.4666 202.465 40.2695C202.543 41.5778 202.454 42.8908 202.202 44.177C201.924 45.2538 201.391 46.2482 200.649 47.0765C199.638 48.2374 198.275 49.0372 196.769 49.3547C196.383 49.4403 195.99 49.4888 195.595 49.4997H195.133Z" fill="#263238"/>
<path d="M184.432 49.4997C184.432 49.897 184.314 50.2854 184.093 50.6158C183.873 50.9462 183.559 51.2037 183.192 51.3557C182.825 51.5078 182.421 51.5476 182.031 51.4701C181.641 51.3926 181.283 51.2012 181.002 50.9203C180.722 50.6393 180.53 50.2813 180.453 49.8916C180.375 49.5019 180.415 49.098 180.567 48.7309C180.719 48.3638 180.977 48.05 181.307 47.8293C181.637 47.6085 182.026 47.4907 182.423 47.4907C182.956 47.4907 183.467 47.7024 183.844 48.0791C184.22 48.4559 184.432 48.9669 184.432 49.4997Z" fill="#263238"/>
<path d="M179.675 33.8354C178.561 33.8446 177.459 33.6111 176.444 33.1511C175.43 32.6912 174.528 32.0159 173.801 31.1721C173.074 30.3283 172.539 29.3363 172.234 28.265C171.929 27.1938 171.862 26.069 172.035 24.9688C172.209 23.8687 172.62 22.8196 173.241 21.8945C173.861 20.9693 174.675 20.1904 175.627 19.6118C176.579 19.0332 177.645 18.6688 178.752 18.5439C179.858 18.4191 180.979 18.5368 182.036 18.8889C182.996 19.1974 183.886 19.6925 184.654 20.3457C185.423 20.9988 186.055 21.7973 186.514 22.6952C186.973 23.5931 187.251 24.5729 187.33 25.5783C187.41 26.5837 187.291 27.5949 186.979 28.554C186.473 30.0914 185.494 31.4298 184.183 32.3782C182.871 33.3265 181.293 33.8365 179.675 33.8354ZM179.675 19.8692C178.514 19.8693 177.377 20.1904 176.388 20.797C175.398 21.4036 174.596 22.2719 174.07 23.3061C173.544 24.3402 173.314 25.4997 173.406 26.6564C173.498 27.8131 173.908 28.9218 174.591 29.8599C175.274 30.798 176.203 31.5289 177.275 31.9717C178.348 32.4145 179.522 32.552 180.668 32.369C181.813 32.1859 182.886 31.6895 183.767 30.9345C184.649 30.1796 185.304 29.1956 185.66 28.0915C186.171 26.5031 186.03 24.777 185.269 23.2923C184.508 21.8075 183.189 20.6856 181.601 20.1729C180.981 19.9717 180.333 19.8692 179.682 19.8692H179.675Z" fill="#263238"/>
<path d="M189.804 38.4402C189.709 38.439 189.615 38.4181 189.528 38.3789C189.441 38.3397 189.363 38.283 189.3 38.2124L183.59 32.0059C183.48 31.8694 183.426 31.696 183.439 31.5211C183.453 31.3462 183.532 31.1829 183.661 31.0642C183.79 30.9456 183.96 30.8806 184.135 30.8824C184.31 30.8842 184.478 30.9527 184.605 31.0739L190.308 37.2873C190.431 37.422 190.496 37.6001 190.488 37.7825C190.48 37.965 190.4 38.1369 190.266 38.2607C190.14 38.3758 189.975 38.4397 189.804 38.4402Z" fill="#263238"/>
<path d="M247.086 21.8638H219.34C215.382 21.8638 212.174 25.0721 212.174 29.0298V56.7757C212.174 60.7334 215.382 63.9418 219.34 63.9418H247.086C251.043 63.9418 254.252 60.7334 254.252 56.7757V29.0298C254.252 25.0721 251.043 21.8638 247.086 21.8638Z" fill="white"/>
<path d="M247.106 63.9419C247.632 63.9015 248.155 63.83 248.673 63.7279C250.148 63.3823 251.475 62.5773 252.463 61.429C253.177 60.6061 253.688 59.6271 253.954 58.5708C254.19 57.2989 254.264 56.0022 254.175 54.7117C254.175 51.9019 254.175 48.7124 254.175 45.1846C254.175 41.6568 254.175 37.7907 254.175 33.6485V30.4797C254.237 29.406 254.156 28.3287 253.933 27.2764C253.654 26.1969 253.12 25.1999 252.377 24.3687C251.633 23.5376 250.702 22.8965 249.66 22.4991C249.125 22.2947 248.566 22.1579 247.996 22.0917C247.411 22.035 246.823 22.0165 246.236 22.0365H219.346C218.034 22.0439 216.75 22.4168 215.639 23.1135C215.088 23.4499 214.59 23.8664 214.161 24.3492C213.725 24.8219 213.362 25.3571 213.084 25.9371C212.798 26.5061 212.593 27.1127 212.477 27.739C212.376 28.3689 212.335 29.0068 212.352 29.6444V33.4897C212.352 38.5639 212.352 43.4587 212.352 48.1256C212.352 50.459 212.352 52.7372 212.352 54.9464C212.3 56.023 212.346 57.1022 212.491 58.1704C212.703 59.1854 213.134 60.1419 213.754 60.9733C214.344 61.7563 215.092 62.4066 215.95 62.8823C216.807 63.3579 217.755 63.6484 218.731 63.7348C220.637 63.8038 222.501 63.7348 224.254 63.7831L240.968 63.8384L245.511 63.8729L240.968 63.9074L224.254 63.9626C222.487 63.9626 220.651 64.004 218.731 63.9626C217.711 63.8755 216.721 63.5733 215.827 63.0759C214.932 62.5785 214.152 61.8972 213.54 61.0769C212.887 60.2131 212.432 59.2161 212.208 58.1566C212.06 57.0679 212.009 55.9682 212.056 54.8705C212.056 52.6613 212.056 50.3831 212.056 48.0496C212.056 43.3827 212.056 38.488 212.056 33.4138V29.6513C212.032 28.9929 212.074 28.3339 212.18 27.6837C212.306 27.0253 212.519 26.3868 212.815 25.7852C213.112 25.1801 213.493 24.6199 213.947 24.1214C214.399 23.6137 214.922 23.1741 215.501 22.8166C216.67 22.0829 218.021 21.6907 219.401 21.6844H246.215C246.816 21.672 247.418 21.6904 248.017 21.7396C248.612 21.8142 249.196 21.9603 249.757 22.1746C250.834 22.6012 251.795 23.2764 252.561 24.145C253.328 25.0136 253.879 26.0511 254.168 27.1729C254.392 28.253 254.471 29.3581 254.403 30.459C254.403 31.5291 254.403 32.5853 254.403 33.6278C254.403 37.77 254.403 41.6361 254.403 45.1639C254.403 48.6917 254.403 51.8812 254.403 54.691C254.487 55.999 254.401 57.3124 254.147 58.5985C253.805 59.8776 253.117 61.0377 252.159 61.9512C251.2 62.8647 250.008 63.4962 248.714 63.7762C248.328 63.8578 247.935 63.9063 247.541 63.9212C247.216 63.9488 247.106 63.9419 247.106 63.9419Z" fill="#263238"/>
<path d="M235.75 64.239C235.751 64.638 235.634 65.0284 235.413 65.3608C235.192 65.6932 234.878 65.9527 234.51 66.1063C234.142 66.2599 233.736 66.3008 233.345 66.2238C232.953 66.1468 232.593 65.9554 232.311 65.6737C232.028 65.3921 231.835 65.0329 231.757 64.6417C231.679 64.2505 231.718 63.8448 231.871 63.476C232.023 63.1073 232.281 62.792 232.613 62.5702C232.945 62.3484 233.335 62.23 233.734 62.23C234.267 62.23 234.779 62.4414 235.157 62.818C235.535 63.1945 235.748 63.7055 235.75 64.239Z" fill="#263238"/>
<path d="M249.12 44.5633C250.177 48.2637 247.74 51.8812 243.977 51.8812H224.039C223.274 51.8849 222.518 51.712 221.831 51.3762C221.143 51.0404 220.543 50.5506 220.075 49.9449C219.608 49.3392 219.286 48.6339 219.136 47.8837C218.985 47.1336 219.009 46.3588 219.207 45.6196C219.253 45.4546 219.31 45.2932 219.379 45.1363C219.846 44.0525 220.663 43.1568 221.699 42.5934C222.736 42.0299 223.932 41.8314 225.095 42.0297C225.342 40.0027 226.266 38.1184 227.718 36.6827C229.17 35.2469 231.064 34.3438 233.094 34.12C235.124 33.8962 237.169 34.3647 238.899 35.4496C240.629 36.5345 241.942 38.1721 242.624 40.0966C242.624 40.0966 247.795 39.8205 249.12 44.5633Z" fill="#3780EF"/>
<path d="M232.254 55.416V47.7667H229.258C229.178 47.7667 229.099 47.7445 229.031 47.7026C228.963 47.6608 228.907 47.6008 228.871 47.5293C228.834 47.4579 228.818 47.3778 228.825 47.2978C228.831 47.2179 228.859 47.1412 228.906 47.0763L233.842 40.1105C233.882 40.0563 233.934 40.0122 233.994 39.9818C234.054 39.9514 234.12 39.9355 234.187 39.9355C234.255 39.9355 234.321 39.9514 234.381 39.9818C234.441 40.0122 234.493 40.0563 234.533 40.1105L239.462 47.0142C239.509 47.0791 239.537 47.1557 239.543 47.2357C239.55 47.3156 239.534 47.3958 239.497 47.4672C239.461 47.5387 239.405 47.5986 239.337 47.6405C239.269 47.6824 239.19 47.7046 239.11 47.7045H236.19V55.4091L232.254 55.416Z" fill="white"/>
<path d="M292.848 72.6753H265.103C261.145 72.6753 257.937 75.8836 257.937 79.8413V107.587C257.937 111.545 261.145 114.753 265.103 114.753H292.848C296.806 114.753 300.015 111.545 300.015 107.587V79.8413C300.015 75.8836 296.806 72.6753 292.848 72.6753Z" fill="white"/>
<path d="M292.841 114.746C293.365 114.71 293.886 114.638 294.401 114.532C295.876 114.187 297.203 113.382 298.191 112.233C298.906 111.414 299.417 110.437 299.682 109.382C299.921 108.108 299.996 106.809 299.903 105.516C299.903 102.713 299.903 99.5236 299.903 95.9959C299.903 92.4681 299.903 88.602 299.903 84.4529V81.291C299.964 80.2153 299.885 79.1362 299.668 78.0808C299.386 77.0025 298.85 76.0072 298.106 75.1775C297.361 74.3478 296.43 73.7077 295.388 73.3103C294.854 73.099 294.295 72.9597 293.724 72.8961C293.139 72.8461 292.551 72.8277 291.964 72.8409H265.102C263.79 72.8432 262.505 73.214 261.394 73.9109C260.845 74.2519 260.347 74.6705 259.917 75.1536C259.482 75.6243 259.119 76.1571 258.84 76.7346C258.557 77.3073 258.352 77.9157 258.232 78.5433C258.132 79.1732 258.09 79.8111 258.108 80.4487V84.2872C258.108 89.3614 258.108 94.263 258.108 98.9299C258.108 101.263 258.108 103.535 258.108 105.744C258.059 106.823 258.105 107.904 258.246 108.975C258.459 109.988 258.89 110.942 259.51 111.771C260.098 112.561 260.845 113.218 261.704 113.699C262.563 114.181 263.514 114.477 264.494 114.567C266.393 114.629 268.257 114.567 270.017 114.608L286.731 114.663L291.273 114.698H292.454C292.723 114.698 292.861 114.698 292.861 114.698H292.454H291.273H286.731L270.017 114.76C268.25 114.76 266.413 114.802 264.494 114.76C262.929 114.616 261.451 113.974 260.278 112.927C259.105 111.881 258.298 110.486 257.977 108.947C257.823 107.859 257.772 106.759 257.825 105.661C257.825 103.452 257.825 101.181 257.825 98.8471C257.825 94.1802 257.825 89.2786 257.825 84.2044V80.3659C257.802 79.7053 257.843 79.0439 257.949 78.3914C258.075 77.7331 258.289 77.0945 258.584 76.4929C258.882 75.8878 259.263 75.3277 259.717 74.8291C260.169 74.3214 260.692 73.8819 261.27 73.5243C262.44 72.7927 263.791 72.4029 265.171 72.399H291.985C292.586 72.3855 293.187 72.4062 293.786 72.4612C294.382 72.5324 294.967 72.6786 295.526 72.8961C296.616 73.3133 297.59 73.9854 298.367 74.8561C299.145 75.7269 299.702 76.771 299.993 77.9013C300.217 78.9813 300.296 80.0865 300.228 81.1874V84.4736C300.228 88.6158 300.228 92.4819 300.228 96.0166C300.228 99.5513 300.228 102.734 300.228 105.537C300.306 106.845 300.218 108.158 299.965 109.444C299.687 110.521 299.154 111.515 298.412 112.344C297.399 113.504 296.038 114.305 294.532 114.629C294.146 114.709 293.753 114.756 293.358 114.767C292.972 114.753 292.841 114.746 292.841 114.746Z" fill="#263238"/>
<path d="M279.511 106.489C276.979 106.49 274.504 105.741 272.398 104.335C270.292 102.929 268.65 100.93 267.681 98.5909C266.711 96.2518 266.457 93.6777 266.951 91.1942C267.444 88.7107 268.664 86.4295 270.454 84.639C272.244 82.8486 274.526 81.6294 277.009 81.1357C279.493 80.6421 282.067 80.8961 284.406 81.8658C286.745 82.8354 288.744 84.477 290.15 86.5829C291.556 88.6888 292.305 91.1644 292.304 93.6965C292.298 97.0876 290.949 100.338 288.551 102.736C286.153 105.134 282.903 106.484 279.511 106.489ZM279.511 81.5874C277.116 81.5861 274.774 82.2951 272.782 83.6248C270.79 84.9545 269.237 86.8452 268.319 89.0578C267.402 91.2703 267.161 93.7052 267.627 96.0546C268.094 98.404 269.246 100.562 270.94 102.256C272.633 103.951 274.79 105.105 277.14 105.572C279.489 106.04 281.924 105.801 284.137 104.884C286.35 103.968 288.242 102.416 289.572 100.425C290.903 98.4332 291.614 96.0917 291.614 93.6965C291.61 90.4873 290.334 87.4105 288.065 85.1406C285.797 82.8706 282.721 81.5929 279.511 81.5874Z" fill="#3780EF"/>
<path d="M279.125 106.448C277.854 105.653 276.741 104.627 275.846 103.424C273.696 100.56 272.634 97.0237 272.85 93.4483C272.884 89.9003 274.121 86.4688 276.357 83.7141C277.268 82.5939 278.383 81.6568 279.643 80.9526L279.947 81.574C279.885 81.574 273.865 84.6875 273.54 93.4828C273.216 102.278 279.401 105.827 279.464 105.861L279.125 106.448Z" fill="#3780EF"/>
<path d="M279.69 106.441L279.331 105.854C279.387 105.813 285.379 101.995 285.054 93.1926C284.73 84.3904 278.965 81.5806 278.91 81.553L279.2 80.9316C279.456 81.049 285.413 83.9417 285.745 93.1719C286.076 102.402 279.752 106.399 279.69 106.441Z" fill="#3780EF"/>
<path d="M279.676 89.6377C274.499 89.6377 271.157 87.8773 269.266 86.3999L269.694 85.8545C271.496 87.2697 274.692 88.9473 279.676 88.9473C284.509 88.9473 287.56 87.2767 289.279 85.8752L289.714 86.4068C287.912 87.8842 284.709 89.6377 279.676 89.6377Z" fill="#3780EF"/>
<path d="M289.307 101.153C287.505 99.7721 284.309 98.1567 279.317 98.1567C274.485 98.1567 271.433 99.7721 269.714 101.139L269.286 100.594C271.088 99.1646 274.291 97.4663 279.317 97.4663C284.502 97.4663 287.836 99.1715 289.728 100.601L289.307 101.153Z" fill="#3780EF"/>
<path d="M291.972 93.3862H267.367V94.0766H291.972V93.3862Z" fill="#3780EF"/>
<path d="M259.794 94.5667C259.794 94.9657 259.676 95.3557 259.454 95.6874C259.232 96.019 258.917 96.2774 258.548 96.4297C258.18 96.5821 257.774 96.6216 257.383 96.5433C256.992 96.465 256.632 96.2723 256.351 95.9897C256.069 95.707 255.878 95.3472 255.801 94.9557C255.724 94.5642 255.765 94.1587 255.918 93.7904C256.072 93.4222 256.331 93.1078 256.664 92.8872C256.996 92.6665 257.386 92.5494 257.785 92.5508C258.05 92.5508 258.312 92.603 258.556 92.7044C258.8 92.8058 259.022 92.9544 259.208 93.1416C259.395 93.3289 259.543 93.5512 259.644 93.7958C259.744 94.0403 259.795 94.3023 259.794 94.5667Z" fill="#263238"/>
<path d="M258.911 94.5667C258.911 94.6634 254.133 94.7462 248.244 94.7462C242.355 94.7462 237.578 94.6634 237.578 94.5667C237.578 94.47 242.355 94.3872 248.244 94.3872C254.133 94.3872 258.911 94.4631 258.911 94.5667Z" fill="#263238"/>
<path d="M284.607 127.436H267.886C263.928 127.436 260.72 130.644 260.72 134.602V151.322C260.72 155.28 263.928 158.488 267.886 158.488H284.607C288.564 158.488 291.773 155.28 291.773 151.322V134.602C291.773 130.644 288.564 127.436 284.607 127.436Z" fill="white"/>
<path d="M284.606 158.488C284.606 158.488 285.006 158.488 285.731 158.357C286.798 158.172 287.81 157.75 288.693 157.122C290.079 156.116 291.059 154.646 291.454 152.979C291.645 151.93 291.708 150.861 291.641 149.797C291.641 148.658 291.641 147.449 291.641 146.186C291.641 143.652 291.641 140.877 291.641 137.902V135.63C291.673 134.859 291.629 134.087 291.51 133.325C291.219 131.743 290.39 130.311 289.162 129.272C287.872 128.181 286.234 127.588 284.544 127.601H267.906C266.985 127.602 266.074 127.785 265.224 128.138C264.374 128.492 263.603 129.009 262.953 129.661C262.303 130.314 261.789 131.087 261.439 131.939C261.088 132.79 260.91 133.702 260.912 134.622C260.912 138.261 260.912 141.775 260.912 145.123C260.912 146.803 260.912 148.434 260.912 150.018C260.885 150.789 260.91 151.562 260.988 152.33C261.088 153.066 261.309 153.78 261.644 154.443C262.271 155.713 263.267 156.765 264.502 157.46C265.65 158.093 266.948 158.405 268.258 158.364L280.25 158.419L283.508 158.454H284.357H284.64C284.546 158.463 284.451 158.463 284.357 158.454H283.508H280.25L268.258 158.516C266.904 158.562 265.562 158.245 264.371 157.598C263.082 156.882 262.038 155.795 261.375 154.477C261.026 153.786 260.792 153.042 260.685 152.275C260.603 151.491 260.573 150.702 260.595 149.914C260.595 148.326 260.595 146.695 260.595 145.019C260.595 141.671 260.595 138.157 260.595 134.519C260.624 132.598 261.403 130.764 262.767 129.41C264.131 128.057 265.971 127.291 267.892 127.277H284.53C286.299 127.271 288.012 127.895 289.362 129.037C290.644 130.13 291.507 131.633 291.806 133.29C291.926 134.071 291.967 134.862 291.931 135.651C291.931 136.424 291.931 137.177 291.931 137.922C291.931 140.898 291.931 143.673 291.931 146.207C291.931 147.47 291.931 148.678 291.931 149.817C291.993 150.897 291.918 151.98 291.71 153.041C291.287 154.749 290.26 156.246 288.817 157.253C287.913 157.88 286.875 158.286 285.786 158.44C285.505 158.484 285.222 158.507 284.937 158.509C284.826 158.512 284.715 158.505 284.606 158.488Z" fill="#263238"/>
<path d="M268.639 148.347C270.182 149.336 271.968 149.882 273.801 149.925C275.634 149.968 277.444 149.506 279.032 148.589C280.62 147.673 281.925 146.337 282.805 144.728C283.684 143.12 284.105 141.3 284.02 139.469C284.704 138.962 285.295 138.341 285.767 137.632C285.125 137.918 284.442 138.104 283.744 138.185C284.478 137.747 285.028 137.058 285.29 136.245C284.601 136.652 283.846 136.939 283.06 137.094C282.53 136.531 281.828 136.158 281.065 136.033C280.301 135.909 279.517 136.039 278.835 136.405C278.153 136.77 277.61 137.35 277.291 138.055C276.971 138.76 276.893 139.55 277.068 140.304C275.671 140.234 274.304 139.871 273.056 139.238C271.808 138.606 270.708 137.717 269.826 136.631C269.375 137.404 269.235 138.321 269.437 139.193C269.638 140.066 270.165 140.829 270.91 141.326C270.351 141.305 269.805 141.154 269.315 140.884C269.308 141.703 269.586 142.499 270.101 143.137C270.616 143.774 271.336 144.212 272.139 144.377C271.621 144.517 271.078 144.536 270.551 144.432C270.775 145.132 271.212 145.744 271.801 146.183C272.391 146.621 273.103 146.864 273.837 146.876C272.368 148.036 270.498 148.565 268.639 148.347Z" fill="#455A64"/>
<path d="M250.046 156.797L241.037 125.081H162.266L152 156.693C151.855 157.134 151.815 157.602 151.885 158.061C151.954 158.52 152.13 158.956 152.399 159.334C152.668 159.712 153.021 160.022 153.432 160.238C153.842 160.455 154.298 160.572 154.761 160.58H190.743L192.2 159.123H209.19L210.647 160.58H247.236C247.693 160.576 248.142 160.466 248.549 160.259C248.956 160.052 249.31 159.753 249.582 159.387C249.854 159.02 250.038 158.596 250.118 158.146C250.199 157.697 250.174 157.235 250.046 156.797Z" fill="#E0E0E0"/>
<g opacity="0.3">
<path d="M250.046 156.797L241.037 125.081H162.266L152 156.693C151.855 157.134 151.815 157.602 151.885 158.061C151.954 158.52 152.13 158.956 152.399 159.334C152.668 159.712 153.021 160.022 153.432 160.238C153.842 160.455 154.298 160.572 154.761 160.58H190.743L192.2 159.123H209.19L210.647 160.58H247.236C247.693 160.576 248.142 160.466 248.549 160.259C248.956 160.052 249.31 159.753 249.582 159.387C249.854 159.02 250.038 158.596 250.118 158.146C250.199 157.697 250.174 157.235 250.046 156.797Z" fill="black"/>
</g>
<path d="M162.231 124.26V77.7218C162.23 77.2842 162.314 76.8506 162.48 76.4457C162.646 76.0408 162.89 75.6727 163.199 75.3623C163.507 75.0519 163.874 74.8055 164.278 74.637C164.681 74.4685 165.115 74.3813 165.552 74.3804H237.937C238.375 74.3813 238.808 74.4685 239.212 74.637C239.616 74.8055 239.982 75.0519 240.291 75.3623C240.599 75.6727 240.843 76.0408 241.009 76.4457C241.175 76.8506 241.26 77.2842 241.258 77.7218V124.26H162.231Z" fill="#E0E0E0"/>
<path d="M236.482 78.9849H167.01V120.372H236.482V78.9849Z" fill="white"/>
<path d="M236.482 120.373C236.482 120.373 236.482 120.11 236.482 119.62C236.482 119.13 236.482 118.391 236.482 117.446C236.482 115.533 236.482 112.737 236.441 109.161C236.441 101.988 236.399 91.6603 236.372 78.999L236.51 79.137L167.024 79.1647L167.203 78.9852C167.203 93.6417 167.203 107.635 167.203 120.373L167.038 120.207L217.007 120.283L231.353 120.331H235.177H236.164H236.51H236.185H235.219H231.422L217.117 120.373L167.038 120.456H166.872V120.373C166.872 107.635 166.872 93.6417 166.872 78.9852V78.8057H167.024L236.489 78.8471H236.627V78.9852C236.627 91.688 236.572 102.043 236.551 109.237C236.551 112.813 236.551 115.595 236.517 117.522C236.517 118.454 236.517 119.172 236.517 119.669C236.517 120.166 236.482 120.373 236.482 120.373Z" fill="#263238"/>
<path d="M203.026 76.8034C203.031 77.0588 202.961 77.31 202.823 77.5249C202.685 77.7398 202.486 77.9087 202.251 78.0099C202.017 78.1112 201.757 78.1402 201.506 78.0932C201.255 78.0463 201.024 77.9255 200.842 77.7464C200.659 77.5673 200.535 77.3379 200.484 77.0876C200.433 76.8374 200.458 76.5775 200.555 76.3414C200.652 76.1053 200.818 75.9036 201.031 75.762C201.243 75.6205 201.493 75.5456 201.749 75.547C201.915 75.5451 202.08 75.5762 202.235 75.6385C202.389 75.7007 202.53 75.7929 202.649 75.9096C202.767 76.0264 202.862 76.1655 202.926 76.3189C202.991 76.4722 203.025 76.6369 203.026 76.8034Z" fill="#263238"/>
<path d="M250.046 155.623L241.037 123.907H162.266L152 155.519C151.855 155.96 151.815 156.428 151.885 156.887C151.954 157.346 152.13 157.782 152.399 158.16C152.668 158.538 153.021 158.848 153.432 159.064C153.842 159.281 154.298 159.398 154.761 159.406H190.743L192.2 157.949H209.19L210.647 159.406H247.236C247.693 159.402 248.142 159.292 248.549 159.085C248.956 158.878 249.31 158.58 249.582 158.213C249.854 157.847 250.038 157.422 250.118 156.972C250.199 156.523 250.174 156.061 250.046 155.623Z" fill="#E0E0E0"/>
<path d="M235.446 125.937L166.803 125.709C166.478 125.69 166.154 125.772 165.877 125.942C165.599 126.112 165.38 126.363 165.249 126.662L159.726 142.278C159.43 143.127 160.196 143.969 161.273 143.969H240.728C241.798 143.969 242.571 143.134 242.274 142.285L236.993 126.904C236.862 126.605 236.645 126.354 236.369 126.181C236.093 126.009 235.771 125.924 235.446 125.937Z" fill="#EBEBEB"/>
<g opacity="0.1">
<path d="M214.126 155.892H187.043C186.771 155.876 186.506 155.799 186.267 155.666C186.029 155.533 185.823 155.349 185.665 155.126C185.508 154.904 185.402 154.649 185.356 154.38C185.31 154.111 185.325 153.835 185.4 153.573L186.933 147.159C187.011 146.777 187.215 146.433 187.514 146.182C187.812 145.932 188.186 145.789 188.576 145.778H212.78C213.179 145.791 213.562 145.941 213.863 146.202C214.165 146.464 214.368 146.821 214.437 147.214L215.818 153.621C215.885 153.884 215.892 154.159 215.84 154.425C215.787 154.691 215.676 154.942 215.513 155.16C215.351 155.377 215.143 155.556 214.903 155.683C214.663 155.81 214.398 155.881 214.126 155.892Z" fill="black"/>
</g>
<path d="M214.037 130.88L213.347 127.608C213.323 127.499 213.263 127.403 213.176 127.333C213.089 127.264 212.981 127.227 212.871 127.228H208.645C208.576 127.227 208.507 127.242 208.443 127.27C208.379 127.299 208.323 127.341 208.277 127.393C208.231 127.446 208.197 127.507 208.177 127.574C208.157 127.641 208.152 127.711 208.162 127.78L208.632 131.053C208.648 131.169 208.706 131.276 208.795 131.353C208.884 131.431 208.997 131.473 209.115 131.474H213.582C213.653 131.47 213.722 131.452 213.785 131.419C213.849 131.386 213.904 131.339 213.947 131.283C213.99 131.226 214.021 131.161 214.037 131.091C214.052 131.022 214.052 130.95 214.037 130.88Z" fill="#263238"/>
<path d="M201.298 130.956L200.994 127.67C200.986 127.548 200.931 127.435 200.841 127.353C200.751 127.271 200.633 127.226 200.511 127.228H196.196C196.131 127.228 196.066 127.241 196.006 127.267C195.945 127.292 195.891 127.33 195.845 127.377C195.799 127.424 195.763 127.479 195.74 127.54C195.716 127.601 195.704 127.667 195.706 127.732L195.824 131.018C195.829 131.145 195.883 131.264 195.974 131.352C196.066 131.439 196.187 131.488 196.314 131.488H200.85C200.914 131.482 200.977 131.465 201.034 131.435C201.092 131.405 201.143 131.365 201.185 131.315C201.226 131.266 201.258 131.209 201.277 131.147C201.297 131.085 201.304 131.021 201.298 130.956Z" fill="#263238"/>
<path d="M208.004 130.922L207.534 127.642C207.518 127.526 207.459 127.421 207.371 127.344C207.282 127.268 207.168 127.227 207.051 127.228H202.08C202.013 127.228 201.946 127.242 201.884 127.269C201.822 127.296 201.766 127.336 201.72 127.386C201.675 127.436 201.64 127.496 201.619 127.56C201.598 127.624 201.59 127.692 201.597 127.76L201.894 131.039C201.908 131.16 201.965 131.271 202.055 131.353C202.146 131.434 202.263 131.48 202.384 131.481H207.521C207.591 131.482 207.661 131.467 207.725 131.438C207.789 131.409 207.846 131.367 207.892 131.313C207.938 131.26 207.972 131.198 207.991 131.13C208.011 131.062 208.015 130.991 208.004 130.922Z" fill="#263238"/>
<path d="M176.481 131.004L177.171 128.022C177.186 127.927 177.181 127.83 177.156 127.737C177.13 127.644 177.086 127.558 177.026 127.483C176.965 127.408 176.89 127.347 176.805 127.303C176.719 127.259 176.625 127.234 176.529 127.228H172.435C172.295 127.234 172.159 127.283 172.047 127.368C171.934 127.453 171.851 127.57 171.807 127.704L170.951 130.687C170.93 130.784 170.93 130.885 170.952 130.982C170.974 131.08 171.016 131.171 171.076 131.251C171.137 131.33 171.214 131.395 171.302 131.442C171.39 131.489 171.487 131.516 171.586 131.522H175.867C176.01 131.511 176.147 131.455 176.257 131.362C176.367 131.269 176.445 131.144 176.481 131.004Z" fill="#263238"/>
<path d="M236.113 130.777L234.871 127.539C234.835 127.447 234.773 127.368 234.691 127.312C234.61 127.256 234.513 127.227 234.415 127.228H226.393C226.314 127.227 226.236 127.246 226.166 127.282C226.097 127.318 226.037 127.371 225.992 127.436C225.947 127.5 225.918 127.575 225.909 127.653C225.899 127.731 225.909 127.81 225.937 127.884L227.145 131.129C227.178 131.223 227.24 131.304 227.322 131.361C227.404 131.418 227.501 131.448 227.601 131.446H235.671C235.75 131.444 235.827 131.423 235.896 131.384C235.964 131.346 236.023 131.292 236.066 131.226C236.11 131.161 236.137 131.085 236.145 131.007C236.153 130.929 236.142 130.85 236.113 130.777Z" fill="#263238"/>
<path d="M194.639 127.228H189.972C189.846 127.228 189.726 127.276 189.634 127.362C189.543 127.448 189.489 127.565 189.481 127.691L189.323 130.991C189.32 131.057 189.331 131.123 189.354 131.184C189.377 131.246 189.413 131.303 189.459 131.351C189.505 131.398 189.56 131.436 189.62 131.462C189.681 131.488 189.747 131.501 189.813 131.501H194.763C194.828 131.501 194.893 131.488 194.953 131.463C195.013 131.437 195.067 131.4 195.112 131.353C195.157 131.306 195.192 131.25 195.215 131.189C195.238 131.128 195.249 131.063 195.246 130.997L195.129 127.704C195.125 127.577 195.072 127.456 194.98 127.367C194.889 127.278 194.766 127.228 194.639 127.228Z" fill="#263238"/>
<path d="M170.473 127.228H167.221C167.087 127.232 166.956 127.275 166.846 127.353C166.735 127.43 166.65 127.538 166.6 127.663L165.53 130.659C165.502 130.758 165.496 130.861 165.514 130.963C165.531 131.064 165.57 131.16 165.629 131.244C165.688 131.328 165.765 131.397 165.854 131.448C165.943 131.498 166.042 131.529 166.144 131.536H169.596C169.737 131.53 169.873 131.481 169.985 131.396C170.097 131.311 170.181 131.194 170.225 131.06L171.081 128.07C171.103 127.974 171.104 127.875 171.085 127.779C171.065 127.682 171.025 127.591 170.968 127.511C170.91 127.432 170.836 127.365 170.751 127.316C170.666 127.267 170.571 127.237 170.473 127.228Z" fill="#263238"/>
<path d="M182.521 131.087L182.956 127.773C182.965 127.705 182.959 127.635 182.939 127.569C182.918 127.503 182.884 127.442 182.838 127.391C182.793 127.339 182.736 127.298 182.673 127.27C182.61 127.242 182.542 127.227 182.473 127.228H178.33C178.22 127.228 178.113 127.266 178.026 127.335C177.94 127.404 177.879 127.5 177.854 127.608L177.115 130.922C177.099 130.993 177.098 131.067 177.114 131.139C177.131 131.21 177.163 131.277 177.209 131.334C177.255 131.392 177.313 131.438 177.379 131.469C177.446 131.5 177.518 131.516 177.592 131.515H182.058C182.174 131.512 182.285 131.467 182.371 131.389C182.456 131.31 182.509 131.203 182.521 131.087Z" fill="#263238"/>
<path d="M183.591 127.649L183.156 130.956C183.147 131.025 183.154 131.096 183.174 131.163C183.195 131.23 183.229 131.291 183.276 131.344C183.322 131.396 183.379 131.438 183.443 131.466C183.507 131.494 183.577 131.509 183.646 131.508H188.265C188.39 131.509 188.511 131.461 188.602 131.375C188.693 131.289 188.748 131.171 188.755 131.046L188.914 127.746C188.918 127.679 188.908 127.613 188.885 127.551C188.862 127.488 188.826 127.431 188.78 127.384C188.734 127.336 188.679 127.298 188.618 127.272C188.556 127.247 188.49 127.234 188.424 127.235H184.075C183.958 127.235 183.845 127.277 183.756 127.353C183.668 127.429 183.609 127.534 183.591 127.649Z" fill="#263238"/>
<path d="M220.389 130.832L219.422 127.573C219.392 127.472 219.33 127.384 219.245 127.322C219.161 127.26 219.058 127.227 218.953 127.228H214.451C214.379 127.227 214.307 127.243 214.241 127.274C214.176 127.305 214.118 127.35 214.072 127.407C214.026 127.463 213.994 127.529 213.977 127.6C213.96 127.67 213.96 127.744 213.975 127.815L214.665 131.08C214.689 131.189 214.749 131.287 214.836 131.357C214.922 131.428 215.03 131.466 215.142 131.467H219.905C219.983 131.469 220.061 131.453 220.131 131.419C220.202 131.386 220.263 131.336 220.311 131.274C220.358 131.212 220.39 131.139 220.403 131.062C220.417 130.985 220.412 130.906 220.389 130.832Z" fill="#263238"/>
<path d="M226.393 130.79L225.185 127.546C225.15 127.453 225.088 127.373 225.007 127.316C224.925 127.259 224.829 127.229 224.729 127.228H220.587C220.512 127.228 220.438 127.246 220.371 127.28C220.303 127.313 220.245 127.362 220.2 127.423C220.155 127.483 220.125 127.553 220.112 127.627C220.099 127.701 220.103 127.777 220.125 127.849L221.084 131.108C221.115 131.208 221.178 131.296 221.262 131.358C221.347 131.42 221.449 131.453 221.554 131.453H225.938C226.016 131.451 226.093 131.43 226.162 131.393C226.231 131.356 226.29 131.302 226.334 131.238C226.379 131.173 226.407 131.099 226.417 131.021C226.428 130.943 226.419 130.864 226.393 130.79Z" fill="#263238"/>
<path d="M194.816 132.233H189.721C189.595 132.233 189.475 132.281 189.384 132.367C189.292 132.453 189.238 132.571 189.231 132.696L189.065 136.106C189.062 136.172 189.073 136.238 189.096 136.3C189.119 136.362 189.155 136.419 189.201 136.466C189.247 136.514 189.302 136.552 189.363 136.578C189.423 136.604 189.489 136.617 189.555 136.617H194.94C195.006 136.616 195.071 136.602 195.131 136.576C195.192 136.55 195.246 136.512 195.292 136.464C195.338 136.417 195.373 136.361 195.397 136.299C195.421 136.238 195.432 136.172 195.43 136.106L195.306 132.71C195.302 132.582 195.249 132.461 195.157 132.372C195.066 132.283 194.943 132.233 194.816 132.233Z" fill="#263238"/>
<path d="M228.294 135.906L227.044 132.558C227.01 132.464 226.948 132.384 226.866 132.327C226.785 132.27 226.688 132.24 226.588 132.24H222.073C221.997 132.24 221.922 132.258 221.854 132.292C221.786 132.327 221.727 132.376 221.681 132.437C221.636 132.498 221.605 132.569 221.592 132.644C221.578 132.718 221.582 132.795 221.604 132.868L222.598 136.251C222.629 136.351 222.691 136.439 222.776 136.501C222.86 136.563 222.963 136.597 223.067 136.596H227.838C227.92 136.598 228.002 136.578 228.075 136.54C228.148 136.501 228.21 136.445 228.255 136.376C228.301 136.308 228.328 136.228 228.335 136.146C228.341 136.064 228.327 135.981 228.294 135.906Z" fill="#263238"/>
<path d="M221.908 135.948L220.907 132.585C220.878 132.485 220.817 132.397 220.733 132.335C220.65 132.272 220.548 132.239 220.444 132.24H215.535C215.463 132.24 215.391 132.255 215.325 132.286C215.26 132.317 215.202 132.363 215.156 132.419C215.11 132.475 215.078 132.541 215.061 132.612C215.044 132.683 215.044 132.756 215.059 132.827L215.784 136.196C215.809 136.305 215.869 136.402 215.955 136.472C216.042 136.542 216.149 136.581 216.26 136.583H221.438C221.515 136.583 221.591 136.565 221.66 136.53C221.728 136.496 221.788 136.446 221.833 136.384C221.879 136.322 221.91 136.25 221.923 136.175C221.935 136.099 221.93 136.021 221.908 135.948Z" fill="#263238"/>
<path d="M182.948 136.624H187.995C188.119 136.623 188.238 136.574 188.328 136.488C188.417 136.402 188.471 136.285 188.478 136.162L188.644 132.751C188.647 132.685 188.636 132.619 188.613 132.557C188.589 132.495 188.554 132.439 188.508 132.391C188.462 132.343 188.407 132.305 188.346 132.279C188.285 132.254 188.22 132.24 188.154 132.24H183.39C183.271 132.241 183.157 132.285 183.068 132.363C182.979 132.442 182.922 132.55 182.907 132.668L182.465 136.079C182.456 136.147 182.462 136.217 182.482 136.283C182.503 136.349 182.537 136.41 182.583 136.461C182.628 136.513 182.685 136.554 182.748 136.582C182.811 136.61 182.879 136.625 182.948 136.624Z" fill="#263238"/>
<path d="M196.502 136.603H201.286C201.354 136.604 201.421 136.59 201.483 136.563C201.545 136.535 201.6 136.495 201.646 136.445C201.691 136.395 201.726 136.336 201.747 136.272C201.768 136.207 201.776 136.139 201.769 136.072L201.458 132.689C201.448 132.567 201.393 132.454 201.303 132.371C201.214 132.288 201.097 132.242 200.975 132.24H196.377C196.312 132.241 196.247 132.255 196.187 132.281C196.127 132.308 196.073 132.346 196.028 132.394C195.983 132.441 195.948 132.497 195.925 132.559C195.902 132.62 195.891 132.686 195.894 132.751L196.018 136.141C196.024 136.265 196.077 136.383 196.167 136.469C196.257 136.555 196.377 136.603 196.502 136.603Z" fill="#263238"/>
<path d="M202.053 132.799L202.364 136.182C202.377 136.303 202.434 136.414 202.525 136.496C202.615 136.577 202.732 136.623 202.854 136.624H208.246C208.315 136.624 208.384 136.61 208.448 136.582C208.512 136.553 208.568 136.511 208.614 136.459C208.66 136.406 208.694 136.344 208.714 136.278C208.734 136.211 208.739 136.14 208.729 136.071L208.246 132.689C208.23 132.573 208.174 132.468 208.086 132.391C207.998 132.315 207.886 132.273 207.769 132.274H202.543C202.476 132.274 202.409 132.288 202.347 132.315C202.285 132.342 202.23 132.381 202.184 132.43C202.138 132.479 202.102 132.537 202.08 132.601C202.057 132.664 202.048 132.732 202.053 132.799Z" fill="#263238"/>
<path d="M215.142 135.989L214.41 132.62C214.386 132.512 214.326 132.415 214.239 132.346C214.152 132.276 214.045 132.239 213.934 132.24H209.343C209.273 132.24 209.204 132.254 209.14 132.282C209.077 132.311 209.02 132.353 208.974 132.405C208.928 132.458 208.894 132.52 208.874 132.586C208.855 132.653 208.849 132.724 208.859 132.793L209.343 136.168C209.359 136.285 209.417 136.392 209.506 136.469C209.595 136.546 209.708 136.589 209.826 136.59H214.659C214.733 136.59 214.806 136.574 214.873 136.543C214.941 136.511 215 136.465 215.046 136.407C215.093 136.349 215.126 136.281 215.142 136.209C215.159 136.136 215.159 136.061 215.142 135.989Z" fill="#263238"/>
<path d="M175.597 132.233H165.421C165.323 132.234 165.228 132.264 165.147 132.32C165.065 132.375 165.003 132.453 164.966 132.544L163.64 135.996C163.612 136.069 163.602 136.149 163.612 136.227C163.621 136.305 163.65 136.38 163.695 136.444C163.74 136.509 163.8 136.562 163.87 136.598C163.94 136.634 164.017 136.652 164.096 136.652H174.831C174.945 136.65 175.054 136.61 175.141 136.537C175.228 136.464 175.287 136.363 175.308 136.251L176.074 132.8C176.085 132.73 176.081 132.659 176.062 132.592C176.043 132.524 176.01 132.462 175.965 132.408C175.919 132.354 175.863 132.311 175.8 132.281C175.737 132.251 175.668 132.235 175.597 132.233Z" fill="#263238"/>
<path d="M176.433 136.631H181.376C181.493 136.63 181.607 136.588 181.696 136.51C181.785 136.433 181.842 136.326 181.859 136.21L182.301 132.758C182.311 132.689 182.306 132.619 182.286 132.552C182.266 132.485 182.232 132.423 182.186 132.371C182.14 132.318 182.084 132.276 182.02 132.248C181.956 132.219 181.887 132.205 181.818 132.206H177.199C177.088 132.206 176.981 132.244 176.895 132.312C176.808 132.381 176.748 132.478 176.723 132.585L175.956 136.037C175.941 136.108 175.942 136.182 175.958 136.253C175.975 136.324 176.008 136.391 176.053 136.447C176.099 136.504 176.157 136.55 176.222 136.582C176.288 136.614 176.36 136.63 176.433 136.631Z" fill="#263238"/>
<path d="M234.369 136.555H237.544C237.627 136.557 237.708 136.537 237.781 136.499C237.854 136.46 237.916 136.404 237.962 136.335C238.007 136.266 238.035 136.187 238.041 136.105C238.048 136.023 238.034 135.94 238 135.865L236.661 132.53C236.624 132.439 236.561 132.361 236.48 132.306C236.399 132.251 236.303 132.221 236.205 132.22H233.299C233.222 132.221 233.146 132.24 233.077 132.275C233.008 132.31 232.949 132.361 232.903 132.423C232.858 132.486 232.827 132.558 232.815 132.634C232.802 132.71 232.807 132.788 232.829 132.862L233.913 136.196C233.942 136.296 234.001 136.385 234.083 136.449C234.165 136.514 234.265 136.551 234.369 136.555Z" fill="#263238"/>
<path d="M233.186 135.92L232.102 132.579C232.071 132.481 232.009 132.395 231.926 132.335C231.843 132.274 231.743 132.241 231.64 132.24H228.25C228.172 132.241 228.095 132.261 228.026 132.297C227.957 132.334 227.898 132.387 227.853 132.451C227.809 132.515 227.78 132.589 227.77 132.666C227.76 132.744 227.768 132.823 227.794 132.896L229.037 136.244C229.072 136.338 229.136 136.419 229.218 136.476C229.301 136.533 229.399 136.563 229.5 136.562H232.724C232.801 136.563 232.878 136.545 232.947 136.51C233.017 136.475 233.077 136.424 233.122 136.361C233.167 136.298 233.197 136.225 233.208 136.148C233.219 136.072 233.212 135.993 233.186 135.92Z" fill="#263238"/>
<path d="M182.478 142.361H187.477C187.664 142.363 187.845 142.292 187.982 142.163C188.118 142.034 188.2 141.858 188.209 141.67L188.381 138.115C188.387 138.016 188.372 137.916 188.338 137.823C188.303 137.73 188.25 137.645 188.182 137.573C188.113 137.501 188.03 137.444 187.939 137.405C187.847 137.367 187.749 137.348 187.649 137.349H182.941C182.763 137.347 182.59 137.411 182.455 137.528C182.32 137.645 182.233 137.807 182.209 137.984L181.747 141.532C181.733 141.636 181.741 141.742 181.772 141.842C181.802 141.942 181.854 142.035 181.924 142.113C181.993 142.192 182.078 142.255 182.174 142.297C182.27 142.34 182.374 142.362 182.478 142.361Z" fill="#263238"/>
<path d="M238.185 137.349H230.535C230.417 137.348 230.3 137.376 230.195 137.431C230.089 137.485 229.999 137.564 229.931 137.662C229.863 137.759 229.82 137.871 229.805 137.988C229.79 138.106 229.803 138.225 229.845 138.336L231.226 141.961C231.277 142.103 231.371 142.225 231.494 142.312C231.618 142.398 231.765 142.445 231.916 142.444H239.669C239.788 142.444 239.906 142.415 240.012 142.359C240.118 142.304 240.209 142.223 240.277 142.125C240.345 142.026 240.388 141.913 240.402 141.794C240.416 141.675 240.402 141.555 240.359 141.443L238.937 137.798C238.877 137.652 238.771 137.529 238.635 137.448C238.5 137.368 238.342 137.333 238.185 137.349Z" fill="#263238"/>
<path d="M175.535 137.922L174.741 141.456C174.718 141.562 174.718 141.67 174.741 141.775C174.765 141.88 174.811 141.979 174.877 142.064C174.943 142.149 175.027 142.219 175.123 142.267C175.219 142.316 175.324 142.344 175.432 142.347H180.381C180.559 142.345 180.731 142.279 180.864 142.161C180.997 142.043 181.083 141.881 181.106 141.705L181.569 138.163C181.584 138.06 181.576 137.954 181.547 137.854C181.517 137.754 181.466 137.661 181.397 137.583C181.328 137.504 181.243 137.441 181.148 137.398C181.052 137.355 180.949 137.334 180.844 137.335H176.225C176.061 137.341 175.904 137.402 175.779 137.509C175.653 137.615 175.568 137.761 175.535 137.922Z" fill="#263238"/>
<path d="M168.817 137.88L167.775 141.532C167.748 141.626 167.744 141.726 167.762 141.822C167.78 141.918 167.82 142.009 167.879 142.087C167.937 142.165 168.013 142.228 168.101 142.272C168.188 142.316 168.285 142.34 168.382 142.34H173.436C173.58 142.34 173.719 142.291 173.831 142.2C173.943 142.11 174.02 141.984 174.05 141.843L174.886 138.122C174.908 138.029 174.908 137.932 174.887 137.839C174.866 137.745 174.824 137.658 174.764 137.583C174.704 137.509 174.628 137.449 174.541 137.408C174.455 137.368 174.36 137.347 174.264 137.349L169.432 137.411C169.292 137.411 169.156 137.456 169.045 137.541C168.934 137.626 168.854 137.745 168.817 137.88Z" fill="#263238"/>
<path d="M216.226 138.233L217.006 141.844C217.04 142.003 217.127 142.146 217.252 142.25C217.377 142.354 217.534 142.412 217.696 142.417H222.819C222.932 142.414 223.043 142.385 223.143 142.332C223.244 142.28 223.33 142.205 223.397 142.114C223.464 142.022 223.509 141.917 223.528 141.805C223.548 141.694 223.541 141.579 223.509 141.471L222.432 137.86C222.389 137.71 222.299 137.578 222.174 137.483C222.05 137.389 221.898 137.337 221.742 137.335H216.909C216.801 137.339 216.695 137.366 216.599 137.415C216.503 137.464 216.419 137.535 216.353 137.621C216.288 137.707 216.242 137.807 216.22 137.912C216.198 138.018 216.2 138.128 216.226 138.233Z" fill="#263238"/>
<path d="M188.977 138.046L188.805 141.601C188.799 141.701 188.814 141.8 188.848 141.894C188.882 141.988 188.935 142.073 189.004 142.146C189.073 142.218 189.155 142.276 189.247 142.315C189.338 142.354 189.437 142.375 189.537 142.375L215.619 142.416C215.726 142.411 215.831 142.383 215.926 142.334C216.021 142.285 216.105 142.215 216.17 142.131C216.236 142.046 216.282 141.948 216.306 141.843C216.33 141.739 216.331 141.63 216.309 141.525L215.529 137.922C215.494 137.763 215.407 137.621 215.282 137.517C215.157 137.413 215.001 137.354 214.839 137.349H189.709C189.521 137.348 189.34 137.421 189.204 137.551C189.067 137.68 188.986 137.858 188.977 138.046Z" fill="#263238"/>
<path d="M163.115 137.729L161.734 141.546C161.702 141.634 161.691 141.728 161.703 141.821C161.715 141.914 161.749 142.002 161.803 142.079C161.856 142.156 161.928 142.218 162.011 142.261C162.094 142.304 162.186 142.327 162.279 142.327H166.518C166.644 142.325 166.766 142.283 166.866 142.207C166.967 142.132 167.041 142.026 167.077 141.905L168.168 138.081C168.193 137.994 168.197 137.903 168.18 137.815C168.164 137.727 168.127 137.644 168.073 137.572C168.019 137.5 167.948 137.442 167.868 137.402C167.787 137.363 167.699 137.342 167.609 137.342H163.681C163.558 137.338 163.436 137.373 163.334 137.443C163.233 137.512 163.156 137.612 163.115 137.729Z" fill="#263238"/>
<path d="M223.213 138.322L224.283 141.94C224.328 142.089 224.419 142.22 224.543 142.314C224.667 142.408 224.818 142.461 224.973 142.464H229.647C229.766 142.465 229.883 142.437 229.988 142.383C230.093 142.328 230.184 142.249 230.252 142.152C230.32 142.055 230.363 141.943 230.378 141.825C230.393 141.708 230.379 141.588 230.338 141.477L228.957 137.853C228.905 137.712 228.81 137.591 228.687 137.506C228.563 137.421 228.417 137.376 228.267 137.376H223.869C223.758 137.383 223.651 137.415 223.554 137.469C223.457 137.523 223.374 137.599 223.311 137.69C223.248 137.781 223.206 137.885 223.189 137.995C223.172 138.104 223.18 138.216 223.213 138.322Z" fill="#263238"/>
<path d="M241.321 124.025C241.321 124.121 223.661 124.204 201.88 124.204C180.099 124.204 162.439 124.121 162.439 124.025C162.439 123.928 180.092 123.845 201.88 123.845C223.668 123.845 241.321 123.921 241.321 124.025Z" fill="#263238"/>
<path d="M186.47 90.8731C187.193 90.2725 187.994 89.7732 188.852 89.3888L188.997 86.7861L193.242 86.0957L194.23 88.5051C195.174 88.5927 196.102 88.804 196.991 89.1333L198.931 87.4074L202.438 89.9065L201.43 92.3021C202.031 93.0263 202.532 93.8273 202.921 94.6839L205.517 94.8289L206.208 99.0746L203.798 100.062C203.717 101.007 203.506 101.936 203.17 102.823L204.903 104.763L202.404 108.27L199.994 107.256C199.271 107.852 198.473 108.351 197.619 108.74L197.467 111.336L193.222 112.026L192.234 109.617C191.289 109.536 190.36 109.324 189.473 108.988L187.561 110.707L184.054 108.208L185.062 105.813C184.464 105.086 183.963 104.286 183.57 103.431L180.975 103.279L180.284 99.0332L182.694 98.046C182.781 97.102 182.992 96.1735 183.322 95.2845L181.589 93.3446L184.088 89.8375L186.491 90.8454L186.47 90.8731ZM189.583 96.2027C189.054 96.9464 188.756 97.8304 188.729 98.7431C188.701 99.6558 188.945 100.556 189.429 101.331C189.913 102.105 190.615 102.718 191.448 103.093C192.28 103.469 193.205 103.588 194.106 103.438C195.007 103.288 195.842 102.874 196.508 102.248C197.173 101.623 197.638 100.814 197.844 99.9249C198.051 99.0353 197.988 98.1047 197.666 97.2504C197.343 96.3962 196.774 95.6569 196.031 95.1257C195.537 94.7729 194.978 94.521 194.386 94.3845C193.795 94.248 193.182 94.2296 192.583 94.3302C191.984 94.4309 191.411 94.6487 190.896 94.9712C190.381 95.2937 189.935 95.7145 189.583 96.2096V96.2027Z" fill="#F5F5F5"/>
<path d="M209.868 101.684C210.357 101.28 210.898 100.944 211.476 100.683L211.58 98.9227L214.452 98.4395L215.142 100.069C215.775 100.129 216.397 100.273 216.992 100.497L218.304 99.3231L220.679 101.015L219.988 102.637C220.392 103.128 220.729 103.672 220.989 104.252L222.75 104.349L223.233 107.228L221.604 107.918C221.542 108.551 221.398 109.173 221.176 109.768L222.349 111.08L220.651 113.469L219.022 112.778C218.534 113.186 217.993 113.525 217.413 113.786L217.317 115.547L214.438 116.03L213.747 114.394C213.115 114.335 212.493 114.194 211.897 113.973L210.586 115.139L208.211 113.448L208.901 111.826C208.493 111.338 208.153 110.797 207.893 110.217L206.133 110.114L205.649 107.242L207.286 106.551C207.34 105.918 207.482 105.296 207.707 104.701L206.533 103.389L208.231 101.015L209.854 101.705L209.868 101.684ZM211.98 105.295C211.62 105.798 211.418 106.397 211.399 107.016C211.38 107.635 211.545 108.245 211.873 108.77C212.201 109.295 212.677 109.71 213.241 109.964C213.806 110.218 214.433 110.299 215.043 110.197C215.653 110.094 216.22 109.813 216.67 109.388C217.12 108.964 217.435 108.415 217.573 107.812C217.712 107.209 217.668 106.578 217.448 106C217.228 105.422 216.841 104.921 216.336 104.563C215.661 104.083 214.824 103.891 214.007 104.028C213.19 104.165 212.461 104.621 211.98 105.295Z" fill="#F5F5F5"/>
<path d="M208.521 84.8739C208.955 84.5181 209.433 84.2188 209.943 83.9833L210.033 82.43L212.58 82.002L213.167 83.4448C213.729 83.5005 214.281 83.6281 214.81 83.8245L215.97 82.7821L218.041 84.2802L217.44 85.723C217.801 86.1541 218.101 86.6326 218.331 87.1452L219.891 87.235L220.312 89.7824L218.87 90.3692C218.82 90.9313 218.695 91.4841 218.497 92.0123L219.532 93.1721L218.034 95.2777L216.598 94.6702C216.164 95.0306 215.684 95.3302 215.169 95.5608L215.079 97.121L212.539 97.5491L211.945 96.1062C211.386 96.0512 210.836 95.9236 210.309 95.7265L209.142 96.762L207.071 95.2639L207.672 93.828C207.313 93.3928 207.014 92.9123 206.781 92.3989L205.228 92.3092L204.8 89.7686L206.243 89.1749C206.295 88.6148 206.422 88.0644 206.622 87.5387L205.58 86.372L207.078 84.3009L208.521 84.9015V84.8739ZM210.385 88.0703C210.068 88.5149 209.891 89.0433 209.874 89.5888C209.858 90.1343 210.003 90.6724 210.292 91.1353C210.582 91.5981 211.001 91.9649 211.499 92.1893C211.996 92.4137 212.549 92.4857 213.088 92.3961C213.626 92.3065 214.126 92.0595 214.524 91.6861C214.922 91.3127 215.2 90.8297 215.324 90.2982C215.448 89.7666 215.411 89.2104 215.219 88.6996C215.027 88.1888 214.687 87.7464 214.244 87.4283C213.949 87.2164 213.614 87.0649 213.26 86.9825C212.906 86.9001 212.54 86.8884 212.181 86.948C211.823 87.0077 211.479 87.1375 211.171 87.3301C210.863 87.5227 210.596 87.7742 210.385 88.0703Z" fill="#F5F5F5"/>
<path d="M52.8269 88.6161C49.6719 86.6762 48.8504 82.0852 50.4934 78.7714C52.1365 75.4577 55.7126 73.4004 59.3578 72.7514C62.0096 72.3097 64.7283 72.5009 67.2921 73.3095C69.856 74.1182 72.1924 75.5213 74.111 77.4045C76.1821 79.4756 77.839 82.1404 80.5866 83.0517C83.0029 83.8526 85.6539 83.0517 88.1807 83.3486C91.5773 83.7421 94.5114 86.1101 96.2925 89.0165C98.0737 91.923 98.8331 95.3472 99.2818 98.73C99.6961 101.837 99.9722 105.247 102.181 107.491C104.391 109.734 107.649 110.093 110.293 111.633C115.264 114.526 116.962 121.844 113.786 126.635C112.772 128.16 111.301 129.569 111.211 131.398C111.122 133.069 112.226 134.539 112.751 136.127C114.132 140.214 110.825 145.144 106.538 145.454C104.363 145.613 102.029 144.798 100.096 145.799C98.1634 146.8 97.4938 149.134 96.2787 150.922C95.0358 152.654 93.2356 153.906 91.1795 154.469C89.1234 155.032 86.9362 154.872 84.9843 154.015C83.3757 153.255 81.85 151.985 80.0758 152.13C78.3015 152.275 76.9346 153.808 75.2018 154.201C72.9235 154.678 70.7351 153.028 69.3474 151.164C67.9598 149.3 66.9864 147.09 65.2052 145.572C62.8994 143.576 59.6823 143.128 56.8034 142.175C53.5925 141.124 50.6454 139.394 48.1626 137.103C45.6798 134.812 43.7194 132.013 42.4147 128.896C41.1099 125.78 40.4915 122.419 40.6013 119.042C40.7112 115.666 41.5467 112.352 43.0513 109.327" fill="#263238"/>
<path d="M86.509 128.996C87.1925 128.231 88.0495 127.641 89.0082 127.277H88.8148C88.9915 127.229 89.1715 127.194 89.3533 127.173C89.6824 127.073 90.0284 127.042 90.3701 127.08C90.7119 127.117 91.0424 127.224 91.3416 127.394C92.4538 127.777 93.3823 128.563 93.9443 129.596C94.3851 130.512 94.5648 131.531 94.4637 132.542C94.3626 133.553 93.9846 134.516 93.3713 135.326C92.9327 136.065 92.2805 136.653 91.5006 137.013C90.7207 137.373 89.85 137.489 89.0033 137.343C88.1567 137.198 87.3739 136.8 86.7585 136.201C86.1431 135.601 85.7239 134.829 85.5563 133.987C85.28 133.142 85.2224 132.241 85.3891 131.368C85.5557 130.495 85.941 129.679 86.509 128.996Z" fill="#455A64"/>
<path d="M45.8182 163.866L41.6069 102.92C41.5253 101.626 41.9326 100.348 42.7483 99.339C43.5639 98.3303 44.7285 97.6645 46.0115 97.4733L73.1637 89.3546C81.9176 88.0429 88.2276 98.6194 89.1665 107.422C90.202 117.197 91.0857 129.175 90.2435 136.534C88.5382 151.343 76.4361 153.759 76.4361 153.759C76.4361 153.759 76.5672 168.816 76.7329 174.16L80.3367 190.694L45.8182 163.866Z" fill="#FFBF9D"/>
<path d="M83.8307 120.069C83.8538 120.56 83.6854 121.041 83.3609 121.411C83.0364 121.781 82.5811 122.01 82.091 122.05C81.852 122.08 81.6094 122.062 81.3777 121.996C81.146 121.93 80.9298 121.819 80.7419 121.668C80.5539 121.518 80.3981 121.331 80.2836 121.119C80.169 120.907 80.0982 120.675 80.0751 120.435C80.0482 119.943 80.2143 119.46 80.5378 119.089C80.8614 118.718 81.3171 118.487 81.8079 118.447C82.0475 118.419 82.2902 118.439 82.522 118.506C82.7538 118.572 82.97 118.684 83.1582 118.835C83.3463 118.986 83.5027 119.173 83.6181 119.385C83.7335 119.597 83.8058 119.829 83.8307 120.069Z" fill="#263238"/>
<path d="M86.7433 112.779C86.5223 113.034 85.0518 112.04 83.0222 112.137C80.9925 112.234 79.5703 113.304 79.3149 113.069C79.2044 112.958 79.4184 112.51 80.0467 112.006C80.9001 111.36 81.932 110.994 83.0015 110.956C84.0574 110.908 85.1016 111.196 85.9838 111.778C86.6259 112.213 86.8537 112.648 86.7433 112.779Z" fill="#263238"/>
<path d="M65.5373 120.69C65.5641 121.181 65.3979 121.664 65.0741 122.034C64.7504 122.404 64.2948 122.633 63.8045 122.672C63.5653 122.701 63.3228 122.681 63.091 122.615C62.8593 122.55 62.6429 122.438 62.4547 122.288C62.2664 122.137 62.1099 121.951 61.9944 121.74C61.8789 121.528 61.8066 121.296 61.7817 121.056C61.7568 120.564 61.9243 120.081 62.249 119.71C62.5737 119.339 63.0301 119.109 63.5215 119.068C63.7608 119.039 64.0035 119.059 64.2353 119.125C64.467 119.192 64.6832 119.304 64.871 119.455C65.0588 119.606 65.2145 119.793 65.3289 120.005C65.4434 120.218 65.5142 120.45 65.5373 120.69Z" fill="#263238"/>
<path d="M66.8136 114.001C66.5858 114.256 65.1084 113.262 63.0856 113.352C61.0628 113.442 59.6338 114.525 59.3783 114.284C59.2679 114.18 59.4819 113.725 60.117 113.228C60.9649 112.576 61.9959 112.206 63.0649 112.171C64.1209 112.123 65.1651 112.41 66.0473 112.993C66.6893 113.469 66.9172 113.883 66.8136 114.001Z" fill="#263238"/>
<path d="M74.8279 128.734C74.8279 128.623 76.0637 128.347 78.0934 127.995C78.6112 127.919 79.1013 127.795 79.1704 127.443C79.1916 126.904 79.047 126.371 78.7561 125.917L77.0578 122.037C74.683 116.514 72.9156 111.958 73.171 111.861C73.4265 111.764 75.4976 116.176 77.8656 121.699L79.5086 125.606C79.8611 126.218 79.9859 126.934 79.8607 127.629C79.7934 127.815 79.6844 127.984 79.542 128.121C79.3996 128.259 79.2276 128.362 79.0392 128.423C78.7575 128.515 78.4652 128.571 78.1693 128.589C76.112 128.789 74.8348 128.851 74.8279 128.734Z" fill="#263238"/>
<path d="M76.3743 152.751C76.3743 152.751 67.3995 153.759 57.3408 148.285C57.3408 148.285 61.7592 159.172 76.4157 157.163L76.3743 152.751Z" fill="#FF9A6C"/>
<path d="M74.7321 133.573C74.2468 132.922 73.6103 132.4 72.8777 132.051C72.1451 131.702 71.3385 131.537 70.5277 131.571C69.998 131.6 69.4835 131.758 69.0287 132.031C68.5739 132.304 68.1927 132.684 67.9181 133.138C67.6138 133.662 67.4767 134.268 67.5252 134.872C67.5736 135.477 67.8054 136.053 68.1894 136.522C68.5735 136.992 69.0917 137.333 69.6747 137.501C70.2578 137.668 70.8781 137.654 71.4528 137.459C72.5687 137.045 73.5681 136.368 74.3662 135.485C74.6224 135.266 74.8295 134.996 74.9737 134.691C75.0432 134.525 75.0682 134.343 75.0465 134.164C75.0247 133.985 74.9568 133.814 74.8494 133.669" fill="#FF9A6C"/>
<path d="M68.911 130.397C69.2424 130.363 69.339 132.565 71.2928 134.049C73.2465 135.534 75.58 135.189 75.6145 135.492C75.649 135.63 75.1105 135.948 74.1164 136.017C72.8276 136.087 71.555 135.704 70.5195 134.933C69.5236 134.19 68.8572 133.088 68.6624 131.861C68.5382 130.95 68.7591 130.39 68.911 130.397Z" fill="#263238"/>
<path d="M67.3523 105.606C67.1728 106.165 65.1362 105.993 62.7682 106.379C60.4003 106.766 58.5018 107.498 58.1635 107.021C58.0116 106.787 58.3223 106.255 59.0748 105.689C60.0836 104.991 61.2378 104.53 62.4504 104.343C63.6629 104.155 64.9023 104.245 66.0751 104.605C66.9657 104.923 67.4213 105.337 67.3523 105.606Z" fill="#263238"/>
<path d="M85.7293 105.806C85.3979 106.282 83.9758 105.861 82.2775 105.916C80.5792 105.971 79.1846 106.358 78.8256 105.916C78.6737 105.688 78.8739 105.226 79.516 104.756C80.3265 104.2 81.2839 103.896 82.267 103.884C83.2501 103.872 84.2147 104.151 85.0389 104.687C85.6672 105.109 85.8812 105.571 85.7293 105.806Z" fill="#263238"/>
<path d="M98.9557 103.176C98.3105 100.934 96.9107 98.9826 94.993 97.6531C93.9229 96.9628 92.6803 96.5761 91.6861 95.796C89.5391 94.1115 89.0006 91.1291 87.6544 88.7543C86.7709 87.2195 85.5339 85.9178 84.0462 84.9572C82.5585 83.9966 80.863 83.4049 79.1007 83.2313C76.1805 82.9759 73.1912 83.9217 70.3399 83.2313C68.2274 82.7273 66.3772 81.3949 64.244 81.0221C60.1018 80.2903 56.2771 83.3211 53.3154 86.3311C53.3154 89.2928 55.7386 91.2465 58.0376 93.1174C59.2003 94.0457 60.5502 94.7114 61.9945 95.0689C63.4388 95.4264 64.9433 95.4672 66.4048 95.1885C68.6623 94.7398 71.127 93.5592 73.1083 94.7329C75.0897 95.9065 75.3175 99.0822 77.1677 100.642C79.8118 102.872 83.9402 100.684 87.2678 101.616C89.8429 102.341 91.479 104.764 93.2119 106.801C94.9447 108.837 97.5198 110.756 100.067 109.956C99.9597 107.66 99.5867 105.385 98.9557 103.176Z" fill="#263238"/>
<path d="M67.6492 91.0872C65.7852 90.5832 61.9606 89.4372 60.9457 87.8355C58.7297 84.3837 54.8774 82.0364 50.9768 82.3126C48.9613 82.4991 47.0605 83.334 45.5595 84.6919C44.0584 86.0498 43.0379 87.8577 42.651 89.8445C40.2316 89.9623 37.8887 90.7297 35.8684 92.066C33.8482 93.4023 32.2252 95.2582 31.1701 97.4385C30.9018 98.0026 30.6712 98.5838 30.4798 99.1783C29.7664 100.488 29.3469 101.937 29.2503 103.425C29.1538 104.912 29.3825 106.404 29.9206 107.794C30.6109 109.465 31.7155 111.315 30.8733 112.903C30.031 114.491 27.7942 114.608 26.0407 115.229C24.5634 115.821 23.34 116.912 22.5833 118.312C21.8266 119.712 21.5842 121.332 21.8985 122.892C22.1539 124.011 22.7062 125.115 22.4853 126.234C22.2644 127.352 21.2771 128.243 20.5246 129.161C19.5873 130.312 18.9684 131.689 18.7296 133.154C18.4909 134.619 18.6406 136.121 19.164 137.51C19.6873 138.899 20.5659 140.127 21.712 141.07C22.8582 142.013 24.2317 142.639 25.6955 142.886C27.021 143.106 28.457 143.031 29.6099 143.714C30.9354 144.501 31.5291 146.075 32.4749 147.29C33.4055 148.445 34.6649 149.29 36.0865 149.713C37.508 150.135 39.0244 150.116 40.4349 149.658C40.9955 149.451 41.5269 149.173 42.0158 148.83C42.9202 150.045 44.3216 150.859 46.6965 150.825L45.6955 119.806C45.8717 120.183 46.1365 120.51 46.4671 120.762C46.7978 121.013 47.1845 121.18 47.594 121.249C52.5923 122.306 53.1722 112.033 52.0193 109.265C53.8774 107.704 55.5313 105.916 56.9416 103.942C58.2809 101.871 59.4131 96.3478 59.0817 93.8417C60.8629 93.9453 68.4708 91.3081 67.6492 91.0872Z" fill="#263238"/>
<path d="M47.0823 122.334C46.8752 119.186 43.0091 118.564 40.296 120.187C38.8117 121.077 37.6864 122.838 37.8728 126.186C38.3767 135.106 47.2273 132.765 47.2273 132.51C47.2273 132.254 47.317 126.027 47.0823 122.334Z" fill="#FFBF9D"/>
<path d="M44.3137 129.279C44.2722 129.279 44.1687 129.396 43.9132 129.534C43.5498 129.711 43.1327 129.743 42.7465 129.624C41.7869 129.327 40.9101 127.877 40.779 126.269C40.7116 125.505 40.8178 124.735 41.0896 124.018C41.1572 123.735 41.2924 123.473 41.4836 123.255C41.6748 123.036 41.9163 122.867 42.1873 122.762C42.3638 122.705 42.5545 122.711 42.727 122.779C42.8994 122.847 43.043 122.972 43.1331 123.134C43.2643 123.383 43.216 123.562 43.2643 123.576C43.3126 123.59 43.4507 123.411 43.354 123.052C43.2959 122.831 43.1614 122.637 42.9743 122.506C42.7178 122.338 42.4058 122.276 42.1045 122.334C41.74 122.428 41.406 122.614 41.135 122.876C40.864 123.137 40.6653 123.464 40.558 123.825C40.2201 124.619 40.0826 125.485 40.1576 126.345C40.3164 128.14 41.3313 129.796 42.6361 130.066C42.8749 130.118 43.1224 130.117 43.361 130.064C43.5995 130.01 43.8234 129.905 44.0168 129.755C44.3137 129.5 44.3482 129.292 44.3137 129.279Z" fill="#FF9A6C"/>
<path d="M55.3203 88.8574C54.6279 89.2266 54.0265 89.7455 53.5598 90.3762C52.6969 91.6051 52.4 93.9385 52.9937 96.555L53.049 96.7829L52.828 96.8381C51.5487 97.2022 50.3708 97.8571 49.3864 98.7517C48.4019 99.6463 47.6377 100.756 47.1532 101.995C46.8871 102.693 46.7401 103.43 46.7183 104.177C46.7525 104.969 46.8588 105.757 47.0358 106.531C47.2195 107.366 47.3441 108.212 47.4086 109.065C47.482 110.001 47.2389 110.934 46.7183 111.716C45.6344 113.421 43.8601 114.277 42.3413 115.105C40.817 115.79 39.4171 116.723 38.1991 117.867C36.2058 119.876 35.0529 122.569 34.9751 125.399C34.9342 127.315 35.3657 129.212 36.2316 130.922C36.846 132.137 37.35 132.71 37.3016 132.744C37.2533 132.779 37.1498 132.627 36.915 132.351C36.5777 131.941 36.2773 131.502 36.0175 131.039C35.0392 129.328 34.5274 127.39 34.5333 125.419C34.5537 122.455 35.7187 119.613 37.7849 117.487C39.037 116.278 40.484 115.288 42.0652 114.56C43.584 113.731 45.2547 112.882 46.2074 111.377C47.1739 109.997 46.7114 108.243 46.4283 106.648C46.2451 105.836 46.1411 105.009 46.1177 104.177C46.1408 103.359 46.3042 102.551 46.6009 101.788C47.1265 100.473 47.9529 99.2999 49.014 98.3624C50.0751 97.4248 51.3412 96.749 52.7107 96.3893L52.545 96.6724C51.972 93.9109 52.3586 91.5084 53.3527 90.2243C53.7113 89.7308 54.1854 89.3326 54.7335 89.0645C54.9181 88.9676 55.1157 88.8979 55.3203 88.8574Z" fill="#455A64"/>
<path d="M41.0289 132.668C41.7202 131.909 42.5814 131.325 43.5418 130.963H43.3485C43.5274 130.915 43.7097 130.88 43.8939 130.859C44.2231 130.76 44.5689 130.729 44.9107 130.767C45.2524 130.805 45.5828 130.911 45.8822 131.08C46.9934 131.459 47.9206 132.243 48.478 133.276C48.9197 134.191 49.1006 135.209 49.0007 136.22C48.9009 137.231 48.5241 138.195 47.9119 139.006C47.4738 139.752 46.8181 140.347 46.0327 140.71C45.2472 141.073 44.3696 141.188 43.5173 141.038C42.6649 140.889 41.8786 140.482 41.2636 139.874C40.6486 139.265 40.2343 138.483 40.0762 137.632C39.8087 136.791 39.7557 135.896 39.9221 135.029C40.0885 134.162 40.4689 133.351 41.0289 132.668Z" fill="#455A64"/>
<path d="M170.424 199.986L176.506 197.653C176.506 197.653 178.17 192.344 179.267 190.791C180.365 189.237 186.24 184.46 186.585 184.336C186.931 184.211 190.79 175.554 192.55 175.83C194.311 176.106 195.519 177.349 195.029 179.696C194.538 182.044 190.638 186.731 191.715 187.504C192.584 188.038 193.547 188.399 194.552 188.568C194.552 188.568 195.035 185.868 196.513 184.998C197.99 184.128 199.682 185.571 199.682 185.571L199.723 186.738L201.187 185.399C201.187 185.399 202.726 179.979 205.053 180.007C205.599 178.829 206.382 177.777 207.352 176.914C207.602 176.726 207.892 176.598 208.2 176.542C208.508 176.486 208.825 176.502 209.125 176.59C209.426 176.678 209.701 176.835 209.93 177.048C210.159 177.261 210.336 177.525 210.445 177.818L206.268 190.1L194.759 202.775C194.759 202.775 189.368 204.846 187.994 205.482C186.62 206.117 180.4 210.438 177.638 211.363C174.877 212.289 171.667 213.69 171.667 213.69L170.424 199.986Z" fill="#FFBF9D"/>
<path d="M186.564 196.203C185.851 196.022 185.116 195.948 184.382 195.982C182.574 195.892 180.774 196.288 179.17 197.128C178.294 197.636 177.553 198.346 177.009 199.199C176.582 199.884 176.237 200.616 175.98 201.381C175.695 202.061 175.527 202.785 175.483 203.521C175.847 202.89 176.145 202.224 176.374 201.533C176.899 200.338 177.755 198.613 179.467 197.632C180.991 196.847 182.675 196.422 184.389 196.39C185.119 196.415 185.849 196.352 186.564 196.203Z" fill="#FF9A6C"/>
<path d="M191.875 187.815C191.964 187.691 191.336 187.125 190.356 186.828C189.375 186.531 188.54 186.662 188.547 186.828C188.554 186.994 189.299 187.132 190.19 187.401C191.081 187.67 191.792 187.96 191.875 187.815Z" fill="#FF9A6C"/>
<path d="M204.916 190.1C204.91 189.205 205 188.311 205.185 187.435C205.427 185.779 205.8 183.466 206.262 180.808L206.435 181.153C206.028 180.967 205.537 180.677 205.172 180.559C204.968 180.502 204.754 180.487 204.544 180.514C204.334 180.541 204.132 180.611 203.95 180.718C203.303 181.123 202.804 181.726 202.527 182.437C202.211 183.119 201.956 183.829 201.768 184.557C201.437 185.979 201.216 187.318 201.015 188.395C200.86 189.595 200.61 190.782 200.27 191.944C200.18 191.944 200.27 190.563 200.546 188.319C200.691 187.208 200.864 185.889 201.174 184.418C201.355 183.643 201.609 182.887 201.934 182.161C202.263 181.313 202.862 180.598 203.639 180.124C204.163 179.833 204.781 179.761 205.358 179.924C205.831 180.111 206.292 180.328 206.739 180.573L206.96 180.677L206.911 180.918C206.414 183.576 205.959 185.875 205.606 187.511C205.47 188.397 205.238 189.265 204.916 190.1Z" fill="#FF9A6C"/>
<path d="M189.804 200.587C189.804 200.587 189.804 200.401 189.859 200.062C189.975 199.587 190.139 199.124 190.349 198.682C191.134 197.072 192.153 195.588 193.373 194.277L193.304 194.387C194.105 192.033 193.38 188.623 195.513 185.578C195.783 185.256 196.123 184.999 196.507 184.828C196.891 184.657 197.309 184.576 197.729 184.591C198.502 184.63 199.248 184.892 199.876 185.344L200.028 185.447V185.634C199.6 189.085 199.207 192.061 198.896 194.173C198.828 195.026 198.563 195.85 198.123 196.583C197.826 197.094 197.612 197.328 197.577 197.273C197.666 196.986 197.784 196.708 197.929 196.445C198.28 195.701 198.473 194.892 198.495 194.07C198.689 191.95 198.999 188.968 199.386 185.53L199.517 185.827C198.988 185.465 198.37 185.255 197.729 185.219C197.406 185.209 197.085 185.272 196.791 185.405C196.497 185.538 196.236 185.737 196.031 185.986C195.545 186.59 195.204 187.299 195.037 188.057C194.834 188.798 194.673 189.549 194.553 190.307C194.429 191.06 194.395 191.75 194.305 192.496C194.213 193.184 194.063 193.863 193.856 194.526V194.588L193.815 194.636C192.599 195.879 191.546 197.27 190.68 198.778C190.018 199.89 189.88 200.608 189.804 200.587Z" fill="#FF9A6C"/>
<path d="M41.8984 162.355C42.2712 161.83 44.7082 157.115 44.7082 157.115L58.557 169.051C58.557 169.051 72.1297 180.415 72.1297 179.683L74.2975 168.747L76.9623 158.799L81.9398 166.324C81.9398 166.324 97.5905 196.997 97.5905 197.391C97.5905 197.784 107.256 229.507 107.256 229.507L105.185 242.382L104.936 287.981L75.768 286.752L70.0103 277.563L60.0828 219.096L41.8984 162.355Z" fill="white"/>
<path d="M78.2935 278.93H109.374L114.296 299.821H66.502L78.2935 278.93Z" fill="#263238"/>
<path d="M77.3152 270.114C76.3418 255.14 76.7491 226.883 71.0191 212.123C65.289 197.363 42.2721 161.188 42.2721 161.188L36.618 169.969L21.8096 175.526L41.8993 256.99C41.8993 256.99 34.1672 275.216 30.4806 285.861C29.376 289.044 27.8917 294.443 26.2624 299.834H77.115C77.5638 287.974 77.7778 277.19 77.3152 270.114Z" fill="#3780EF"/>
<path d="M174.685 195.506L135.486 217.294L108.341 178.53L108.106 178.219C105.013 174.125 101.975 169.624 96.9772 168.499L96.2178 168.326L97.6675 214.726C97.6675 214.726 116.998 236.017 127.816 244.819C131.04 247.442 139.214 245.806 143.108 243.652C158.703 235.043 185.351 212.972 185.351 212.972L174.685 195.506Z" fill="#3780EF"/>
<path d="M109.098 257.329C109.098 257.329 111.956 235.182 112.895 229.617C117.797 200.511 96.202 168.326 96.202 168.326L86.3297 166.69L77.8105 159.662L81.5731 170.17C81.5731 170.17 93.9445 204.771 96.4022 215.831C98.8599 226.89 100.089 260.87 100.468 260.049C100.696 259.572 102.181 280.573 104.051 299.821H125.004L109.098 257.329Z" fill="#3780EF"/>
<path d="M107.276 232.668C107.252 232.427 107.252 232.185 107.276 231.943C107.276 231.433 107.338 230.749 107.387 229.872C107.387 229.417 107.442 228.927 107.476 228.388C107.511 227.85 107.476 227.249 107.476 226.621C107.476 225.35 107.476 223.908 107.38 222.313C106.907 214.002 105.281 205.798 102.547 197.936C101.435 194.637 100.12 191.409 98.612 188.271C97.2781 185.234 95.7611 182.28 94.0693 179.427C92.5712 176.818 91.1905 174.553 90.0307 172.675L87.2692 168.298C86.9723 167.815 86.7307 167.429 86.5374 167.125C86.4445 166.994 86.368 166.853 86.3096 166.704C86.4215 166.819 86.521 166.947 86.6064 167.083C86.8066 167.373 87.069 167.774 87.4004 168.209C88.0907 169.203 89.0503 170.666 90.2447 172.523C91.439 174.381 92.8543 176.666 94.3869 179.227C96.1116 182.085 97.6564 185.048 99.0124 188.098C100.546 191.254 101.875 194.505 102.989 197.832C105.749 205.733 107.344 213.994 107.725 222.354C107.828 223.956 107.773 225.406 107.725 226.676C107.725 227.311 107.725 227.905 107.683 228.45C107.642 228.996 107.594 229.486 107.552 229.941C107.462 230.791 107.4 231.474 107.345 232.013C107.338 232.233 107.315 232.452 107.276 232.668Z" fill="#263238"/>
<path d="M71.8742 179.848C71.6806 179.791 71.495 179.71 71.3219 179.606L69.8307 178.819L64.5563 175.899L64.8669 175.747C64.6115 178.115 64.1766 180.884 63.7416 183.831C63.5621 185.033 63.3964 186.199 63.2584 187.325L63.21 187.753L62.8787 187.477C60.062 185.074 57.6042 182.962 55.8714 181.443L53.8417 179.634C53.5891 179.428 53.3579 179.196 53.1514 178.944C53.441 179.098 53.71 179.288 53.9522 179.51L56.0716 181.208C57.8597 182.672 60.3519 184.736 63.1893 187.118L62.8027 187.27C62.9339 186.137 63.0927 184.964 63.2722 183.762C63.7071 180.808 64.1697 178.046 64.4596 175.699L64.501 175.381L64.7703 175.54L69.9549 178.605L71.3978 179.496C71.7499 179.703 71.888 179.827 71.8742 179.848Z" fill="#263238"/>
<path d="M79.9319 166.324C79.9899 166.736 80.0038 167.152 79.9733 167.567C79.9733 168.464 79.9733 169.603 79.9112 170.964C79.8421 173.835 79.7041 177.791 79.5315 182.168C79.5315 182.272 79.5315 182.382 79.5315 182.486L79.497 183.252L79.0896 182.603C77.1083 179.476 75.2926 176.611 73.8497 174.319L74.1811 174.277L72.7451 178.219C72.5884 178.715 72.3874 179.196 72.1445 179.655C72.234 179.144 72.3704 178.643 72.5518 178.157C72.8832 177.115 73.3112 175.768 73.829 174.16L73.9464 173.794L74.1604 174.118L79.4901 182.32L79.0551 182.437C79.0551 182.334 79.0551 182.223 79.0551 182.12C79.2277 177.75 79.4141 173.787 79.5729 170.922C79.6626 169.541 79.7317 168.43 79.7869 167.532C79.7937 167.126 79.8423 166.721 79.9319 166.324Z" fill="#263238"/>
<path d="M21.8083 175.526C20.5754 176.295 19.4194 177.18 18.3565 178.17C15.6331 180.789 13.5822 184.027 12.3779 187.608C10.9972 191.605 9.61641 196.52 8.78797 199.613L5.04617 256.465C4.71051 261.514 5.52732 266.573 7.43485 271.26L19.04 299.82H44.0727L30.5622 261.608L35.1601 219.455L21.8083 175.526Z" fill="#3780EF"/>
<path d="M37.2314 169.023L42.7337 185.537H48.6018L44.791 187.96L74.898 245.489" fill="#3780EF"/>
<path d="M74.898 245.489C74.898 245.489 74.8428 245.426 74.7599 245.288L74.4147 244.681C74.1041 244.101 73.6691 243.3 73.1237 242.306L68.4499 233.538L53.1928 204.543L44.5977 188.064L44.501 187.884L44.6736 187.774L48.4845 185.357L48.6018 185.744H42.7337H42.5956L42.5542 185.613C40.9111 180.573 39.5649 176.445 38.6122 173.538C38.1703 172.158 37.8183 171.018 37.5628 170.218C37.4524 169.859 37.3695 169.576 37.3005 169.348C37.2626 169.25 37.2393 169.148 37.2314 169.044C37.2799 169.135 37.3214 169.23 37.3557 169.327C37.4317 169.548 37.5352 169.831 37.6664 170.183L38.8193 173.469C39.7996 176.369 41.2011 180.476 42.9132 185.495L42.7337 185.371H48.6018H49.2922L48.6847 185.758L44.8807 188.195L44.9636 187.905C47.587 192.917 50.4865 198.488 53.5932 204.356C59.4889 215.692 64.8324 225.958 68.7261 233.428C70.6246 237.135 72.1779 240.145 73.2618 242.264L74.5114 244.639L74.8151 245.275C74.8482 245.344 74.8759 245.415 74.898 245.489Z" fill="#263238"/>
<path d="M26.1221 183.576C29.7685 187.821 32.3963 192.842 33.8046 198.258C35.2129 203.673 35.3645 209.339 34.2477 214.822" fill="#3780EF"/>
<path d="M34.248 214.822C34.1514 214.822 34.5587 212.965 34.7313 209.99C34.8274 208.23 34.802 206.465 34.6553 204.708C34.4587 202.562 34.0963 200.434 33.5714 198.343C33.0086 196.262 32.2885 194.226 31.4175 192.254C30.703 190.641 29.8772 189.079 28.946 187.58C27.3305 185.04 26.074 183.638 26.1845 183.576C26.5173 183.865 26.8202 184.187 27.0889 184.536C27.4373 184.916 27.7645 185.314 28.0692 185.73C28.4282 186.213 28.8631 186.752 29.2635 187.394C30.2532 188.877 31.1301 190.433 31.8869 192.047C32.7932 194.032 33.5322 196.09 34.0961 198.198C34.6319 200.314 34.9875 202.471 35.1593 204.646C35.2993 206.422 35.2993 208.207 35.1593 209.983C35.1248 210.742 35.0074 211.419 34.9315 212.019C34.868 212.532 34.7781 213.041 34.6622 213.545C34.5621 213.982 34.4235 214.41 34.248 214.822Z" fill="#263238"/>
<path d="M44.0737 299.82C44.0371 299.759 44.007 299.695 43.984 299.627C43.9288 299.482 43.8597 299.296 43.7631 299.061C43.5698 298.529 43.3005 297.791 42.9484 296.852C42.2581 294.905 41.2432 292.13 40.0075 288.706C37.5498 281.802 34.1531 272.247 30.3906 261.671V261.629V261.588C30.3906 261.298 30.4597 260.98 30.4942 260.656C31.7645 249.285 32.9105 238.992 33.7458 231.515C34.1738 227.808 34.5259 224.798 34.7745 222.686C34.8987 221.664 34.9954 220.863 35.0713 220.29L35.1542 219.669C35.1599 219.596 35.1738 219.524 35.1956 219.455C35.2067 219.525 35.2067 219.598 35.1956 219.669C35.1956 219.834 35.1956 220.041 35.1473 220.297C35.092 220.87 35.0161 221.678 34.9195 222.706C34.6985 224.819 34.3879 227.829 34.0013 231.543C33.1935 239.027 32.082 249.32 30.8601 260.697C30.8601 261.015 30.7841 261.332 30.7565 261.629V261.546L40.2767 288.623L43.1072 296.804C43.4317 297.756 43.6802 298.502 43.8597 299.033L44.0461 299.62C44.0627 299.686 44.0719 299.753 44.0737 299.82Z" fill="#263238"/>
<path d="M102.815 183.086C104.37 185.554 105.73 188.139 106.882 190.819C107.462 192.041 107.945 193.442 108.539 194.912C109.132 196.383 109.629 198.012 110.085 199.745C110.541 201.478 110.996 203.287 111.466 205.185C111.638 206.145 111.818 207.118 111.997 208.105C112.177 209.093 112.287 210.107 112.439 211.122C113.293 218.115 113.386 225.18 112.715 232.192C112.563 233.525 112.432 234.74 112.308 235.81C112.184 236.88 112.025 237.784 111.921 238.53L111.645 240.249C111.616 240.449 111.577 240.647 111.528 240.843C111.524 240.639 111.54 240.436 111.576 240.235C111.625 239.814 111.694 239.234 111.783 238.516C111.873 237.798 112.018 236.852 112.108 235.789C112.198 234.726 112.336 233.504 112.46 232.172C113.051 225.177 112.923 218.14 112.08 211.171C111.928 210.156 111.825 209.141 111.645 208.161C111.466 207.18 111.293 206.207 111.121 205.254C110.693 203.369 110.306 201.54 109.795 199.835C109.284 198.13 108.773 196.521 108.29 195.002C107.807 193.483 107.248 192.13 106.682 190.908L105.915 189.141C105.674 188.589 105.404 188.085 105.176 187.601C104.707 186.635 104.314 185.806 103.934 185.151C103.554 184.495 103.319 183.998 103.112 183.625C103.002 183.452 102.903 183.272 102.815 183.086Z" fill="#263238"/>
<path d="M135.872 229.389C135.561 228.86 135.329 228.287 135.182 227.691C134.273 224.829 134.14 221.777 134.795 218.847C134.897 218.238 135.088 217.647 135.362 217.094C135.417 217.094 135.23 217.784 135.044 218.896C134.536 221.798 134.668 224.776 135.431 227.622C135.679 228.713 135.955 229.369 135.872 229.389Z" fill="#263238"/>
</svg>
